<?xml version="1.0" encoding="UTF-8" standalone="no"?>
<svg width="71px" height="81px" viewBox="0 0 71 81" version="1.1" xmlns="http://www.w3.org/2000/svg" xmlns:xlink="http://www.w3.org/1999/xlink">
    <!-- Generator: Sketch 42 (36781) - http://www.bohemiancoding.com/sketch -->
    <title>YB</title>
    <desc>Created with Sketch.</desc>
    <defs>
        <polygon id="path-1" points="0 80.6874075 70.8760808 80.6874075 70.8760808 0.669421488 0 0.669421488"></polygon>
    </defs>
    <g id="YB-Screens" stroke="none" stroke-width="1" fill="none" fill-rule="evenodd">
        <g id="04---You---05---So-far…" transform="translate(-477.000000, -14.000000)">
            <g id="YB" transform="translate(477.000000, 14.000000)">
                <path d="M27.0169607,39.9839515 C34.9701333,40.2334928 44.1268435,37.77442 50.7855992,33.8568627 C59.1219389,28.858767 62.6416722,20.8904021 62.6416722,11.9747491 L62.6416722,0.980392129 L45.8560077,0.980392129 L45.8560077,11.6646394 C45.8560077,15.9649883 43.9991212,19.436763 39.3151495,22.2204819 C36.9449174,23.5481389 34.1276571,24.6214091 31.2489917,24.6214091 C27.9797907,24.6214091 25.0249832,23.7395347 22.5933462,21.9612496 C19.137474,19.5675905 17.1405842,15.2018278 17.1405842,11.4126753 L17.1405842,0.980392129 L0.676681716,0.980392129 L0.676681716,11.6646394 C0.676681716,20.9558159 6.99402576,25.3021967 23.109148,27.0901728 C28.1247065,27.6425556 33.3048304,27.6086374 38.4800418,25.9175706 C41.5552031,24.9097142 41.9015272,24.3185676 42.8471638,23.8655168 L43.2278747,24.2483084 L42.9773424,24.9339415 C41.1155435,29.8109006 37.0087786,33.5346394 32.585164,35.7465935 C26.8892384,38.6029943 20.0339867,38.3389166 13.7485732,37.4570422 L13.6233071,37.4570422 C16.138455,39.1311499 24.3961963,39.9258059 27.0169607,39.9839515 L27.0169607,39.9839515 Z" id="Fill-1" fill="#FEFEFE"></path>
                <path d="M40.7628333,16.4635865 C40.1954513,17.4859794 39.0164757,18.6755407 38.365583,18.6755407 L38.2452292,18.6585816 C38.0118903,18.527754 37.8964489,18.3169764 37.6655662,17.9244938 C37.4567893,17.5489704 37.1620454,17.0401967 36.6364188,16.441782 C35.9757012,15.4605756 35.2953341,14.9493792 34.7942695,14.5883921 L34.4602264,14.3267371 L34.541281,14.0626593 C34.973572,13.4860492 35.2314729,12.7592296 35.2314729,11.9621509 L35.2314729,11.9306553 L35.3248085,11.6544639 C36.4669411,11.5648228 37.6729348,11.3080133 38.5719037,10.949449 C39.0655997,10.7532077 39.1761287,10.6708348 39.352975,10.5327391 C39.4684163,10.4237162 39.6624561,10.2662386 40.4533522,9.86406511 L40.9249424,9.73808306 C41.3449524,9.73808306 41.4800434,10.4019116 41.5954848,11.1989903 L41.6765393,11.644773 C41.6691707,12.4903064 41.499693,14.90577 40.7628333,16.4635865 M34.2563619,21.3332775 L33.4016046,21.5803961 C32.7114127,21.6555008 32.1735051,21.6918418 31.6527909,21.6918418 C30.8717195,21.6918418 30.0906482,21.599778 28.7028958,21.328432 C27.9807732,21.192759 26.8239035,20.7493991 26.9614506,19.9910841 C27.027768,19.5210741 27.4944458,19.0801369 27.9758608,18.627086 L28.7888627,17.7936663 C29.3636133,17.1177241 29.9039771,16.4175546 30.260126,15.3370163 L30.6334682,15.3370163 C30.9503179,15.4411937 31.2917296,15.5114529 31.6405099,15.5114529 C32.0261331,15.5114529 32.3749134,15.4436165 32.7359747,15.3370163 L32.961945,15.3370163 C33.1608971,16.1680133 33.7872279,17.299429 34.381628,18.1498079 C34.6370727,18.5059495 34.8974298,18.7942545 35.133225,19.0510641 C35.6097276,19.593756 35.8455227,19.8602565 35.7865739,20.2478936 C35.651483,20.9480631 35.1872613,21.0982725 34.2563619,21.3332775 M25.7161577,17.2388607 C25.2249179,17.8833074 24.9498236,18.2249126 24.6427987,18.2321808 C23.8248844,18.1134669 22.9725833,17.4447929 22.4395881,16.4926593 C21.6904474,14.8815427 21.5185134,12.4200472 21.5111448,11.6253911 C21.6044804,10.3534569 21.8353631,9.89798336 22.3781831,9.89798336 L22.4174823,9.89798336 C23.0069701,9.97066531 23.3532941,10.1620611 23.7413736,10.3897979 C24.0361175,10.5593891 24.3726168,10.7532077 24.8515756,10.9009943 L24.9326302,10.9203762 C25.8463362,11.2135267 27.064611,11.5793592 28.150251,11.6980731 L28.1281452,11.9621509 C28.1281452,12.7786115 28.3934147,13.5102765 28.8232495,14.0868866 L28.8797421,14.3073552 L28.4155205,14.5980831 C27.8948063,14.9154609 27.1751399,15.3491299 26.5193348,16.2140452 C26.2000289,16.5919913 25.9323032,16.9287511 25.7161577,17.2388607 M24.0901539,5.44984776 L24.3087556,5.15427448 C25.4901874,3.81450379 26.2196785,3.37841207 28.4007833,2.7485018 C28.7274577,2.66612892 29.0958876,2.61282882 29.4151935,2.61282882 C29.8671341,2.61282882 30.2134582,2.70973809 30.3608301,2.87448385 L30.4664467,3.29846192 C30.4345161,3.87749482 30.3853921,4.19244996 30.3510053,4.47348685 C30.30925,4.8126693 30.2699508,5.09370619 30.2699508,5.63639811 C30.2134582,6.55461347 30.4025855,7.36865135 30.6211872,8.30867129 L30.6727674,8.52671715 L30.4418847,8.70599931 C29.7443242,8.94827249 29.1400992,9.37951875 28.7274577,9.98277897 L28.7028958,10.0070063 L28.1944625,9.64117378 C27.7621715,9.30441406 27.2046143,8.85863141 26.2638901,8.58001725 C25.6572089,8.34016681 25.1438633,8.21176202 24.7312218,8.10273909 C24.1613836,7.95495245 23.7806728,7.85562044 23.4932975,7.57458356 C22.9652147,7.11910998 23.2869768,6.55219073 24.0901539,5.44984776 M33.8068775,12.0202964 C33.8068775,13.2292396 32.802292,14.2152914 31.5741925,14.2152914 C30.3780235,14.2152914 29.4053687,13.2292396 29.4053687,12.0202964 C29.4053687,10.8283124 30.3608301,9.88102423 31.5741925,9.88102423 C32.826854,9.88102423 33.8068775,10.8283124 33.8068775,12.0202964 M32.8587846,5.77933929 C32.8587846,5.21968824 32.826854,4.93380589 32.7801862,4.5994689 C32.7457994,4.31843201 32.6991317,4.00105414 32.6647449,3.40748485 L32.7679052,3.01015684 C32.9177334,2.83572015 33.295988,2.73881087 33.7798593,2.73881087 C34.1139023,2.73881087 34.516719,2.7945337 34.8483059,2.87448385 C37.0490602,3.49954866 37.7638142,3.93564038 38.9329649,5.25118375 L39.365256,5.82052573 C40.2052761,6.87199133 40.340367,7.22328744 39.7778974,7.68845195 C39.5740329,7.84835225 39.365256,7.88711596 38.9722641,7.94283879 C38.5080425,8.00582982 37.8743431,8.10273909 36.9827429,8.52429442 C36.0248252,8.91435424 35.4402498,9.44008704 34.9809406,9.86406511 L34.6935653,10.1136065 C34.1998693,9.34075504 33.4016046,8.79806312 32.4731613,8.58243999 L32.5100043,8.42011695 C32.7359747,7.48736521 32.9079086,6.67575006 32.8587846,5.77933929 M42.0400568,8.72538116 L42.7302487,7.65211097 L41.4726748,7.42921965 C41.5782914,6.61760449 41.2982847,5.73330738 40.6351109,4.83689662 C39.1196361,2.74607907 35.8823657,0.984753047 33.5784509,0.984753047 C33.0528243,0.984753047 32.5861465,1.07923959 32.1956109,1.24883081 L31.7092834,0.226437992 L30.8618948,1.31182184 C30.3681987,1.14223061 29.8278349,1.03805315 29.2702777,1.03805315 C26.6003893,1.03805315 23.6283884,3.13613889 22.2848475,5.16638814 C21.6904474,6.07248984 21.4693894,6.89379592 21.6339548,7.54308804 L21.179558,7.6690701 L20.4181362,7.6690701 L21.179558,8.74234028 C20.0595312,9.54668724 19.8458419,11.8410143 20.1651477,13.9584819 C20.612176,16.8173054 22.0613334,19.693088 24.3087556,19.6325197 L24.3087556,20.8996085 L25.4091328,20.6040352 L25.7407197,21.4108049 C26.7133745,22.7190801 29.5281786,23.1915128 31.6380537,23.1915128 C33.9763552,23.1915128 35.8307855,22.66578 36.602032,21.8032874 L37.0023925,21.0425497 L38.4908491,21.5052914 L38.353302,20.1122206 C40.6351109,20.0516523 42.1628667,17.5828886 42.8162157,15.2691798 C43.486758,12.9215526 43.4916704,9.97066531 42.0400568,8.72538116" id="Fill-3" fill="#FEFEFE"></path>
                <path d="M25.3980799,55.6973054 C24.9854384,55.4647231 24.5875342,55.348432 24.2166481,55.348432 C23.7303207,55.348432 23.2562743,55.5034868 22.8239832,55.7845237 L22.2983566,56.2012336 L22.2983566,55.5761688 L20.4046271,55.5761688 L20.4046271,64.9691 L22.2983566,64.9691 L22.2983566,61.671762 C22.2983566,60.2132775 22.3622178,59.241762 22.4923964,58.7790202 C22.6643303,58.2096783 22.8903006,57.7929684 23.1899569,57.5385816 L24.0226084,57.1679036 L24.4770052,57.2841947 L24.7742053,57.4150222 L25.732123,55.8862785 L25.3980799,55.6973054 Z" id="Fill-5" fill="#FEFEFE"></path>
                <polygon id="Fill-7" fill="#FEFEFE" points="34.7972169 55.5776224 32.0167996 55.5776224 28.4626795 58.6326872 28.4626795 52.2342525 26.5861434 52.2342525 26.5861434 64.9705536 28.4626795 64.9705536 28.4626795 61.5230063 32.3631236 64.9705536 35.057574 64.9705536 29.5556881 60.0766354"></polygon>
                <path d="M38.1958596,57.122114 C38.6649936,57.122114 39.175883,57.3861917 39.7015096,57.8876972 L39.9741477,58.1420841 L41.2120721,56.8798408 L40.9443464,56.6278767 C40.0552023,55.7871887 39.1562334,55.351097 38.249896,55.351097 C37.4614561,55.351097 36.7982823,55.6054839 36.2652871,56.1142575 C35.7445729,56.6181857 35.4842158,57.2505187 35.4842158,58.0136793 C35.4842158,58.5927122 35.6414125,59.1160222 35.9779118,59.5714958 C36.2947615,60.0051648 36.8695121,60.4485247 37.719357,60.8725028 C38.5765705,61.3110173 38.9081573,61.5726723 39.0235987,61.7083453 L39.249569,62.3237191 L38.8909639,63.0723433 C38.6502564,63.2903891 38.3555125,63.4042575 37.9944513,63.4042575 C37.4589999,63.4042575 36.9431981,63.1304888 36.4347649,62.5611469 L36.1596706,62.2534599 L34.9708702,63.5859624 L35.1599975,63.8306583 C35.4940406,64.2497909 35.9214192,64.5841279 36.4298525,64.8288238 C36.9407419,65.0686743 37.4835619,65.1946563 38.0362067,65.1946563 C38.8909639,65.1946563 39.6204551,64.908774 40.2001181,64.3491229 C40.7699562,63.7846264 41.0622439,63.0917251 41.0622439,62.2776872 C41.0622439,61.7034998 40.8952224,61.1729215 40.5513545,60.7053343 C40.2099428,60.247438 39.6106303,59.813769 38.7116614,59.3558727 C37.9109405,58.946431 37.596547,58.684776 37.4688247,58.5248757 L37.2330296,57.9579564 L37.4982991,57.3910372 L38.1958596,57.122114" id="Fill-9" fill="#FEFEFE"></path>
                <path d="M49.384092,55.9085676 C48.8265349,55.5403124 48.1682735,55.3513393 47.4412386,55.3513393 C46.7535028,55.3513393 46.0854167,55.5185078 45.4836479,55.8455766 C45.1446924,56.022436 44.8278427,56.2598637 44.5159055,56.5409006 L44.5159055,52.2357062 L42.6516504,52.2357062 L42.6516504,64.9671618 L44.5159055,64.9671618 L44.5159055,61.4275507 C44.5159055,60.3155168 44.5650294,59.5523562 44.6681898,59.157451 C44.8278427,58.5735726 45.1348676,58.0938717 45.6089141,57.6941209 C46.0903291,57.3040611 46.6233243,57.1126653 47.2177245,57.1126653 C47.7335263,57.1126653 48.1314305,57.224111 48.4286306,57.4712296 C48.7430241,57.7038119 48.9493448,58.0720671 49.0696986,58.5590362 C49.1237349,58.7649684 49.1826837,59.2737421 49.1826837,60.4729943 L49.1826837,64.9671618 L51.049395,64.9671618 L51.049395,60.1435028 C51.049395,58.8982186 50.9216727,57.9969624 50.6613156,57.4009704 C50.3862213,56.7759056 49.963755,56.2744001 49.384092,55.9085676" id="Fill-11" fill="#FEFEFE"></path>
                <path d="M53.832023,52.0125726 C53.4758741,52.0125726 53.166393,52.1385546 52.9109483,52.3856733 C52.660416,52.6400601 52.5302375,52.9404789 52.5302375,53.2966204 C52.5302375,53.6503393 52.660416,53.950758 52.9109483,54.1978767 C53.166393,54.4522635 53.4758741,54.5734001 53.832023,54.5734001 C54.190628,54.5734001 54.5025653,54.4522635 54.7481852,54.1978767 C54.9987175,53.950758 55.1264399,53.6503393 55.1264399,53.2966204 C55.1264399,52.9404789 54.9987175,52.6400601 54.7481852,52.3856733 C54.5025653,52.1385546 54.190628,52.0125726 53.832023,52.0125726" id="Fill-13" fill="#FEFEFE"></path>
                <mask id="mask-2" fill="white">
                    <use xlink:href="#path-1"></use>
                </mask>
                <g id="Clip-16"></g>
                <polygon id="Fill-15" fill="#FEFEFE" mask="url(#mask-2)" points="52.8974392 64.9666773 54.7715191 64.9666773 54.7715191 55.5737461 52.8974392 55.5737461"></polygon>
                <path d="M61.7223169,55.6973054 C61.3096755,55.4647231 60.9117712,55.348432 60.5408852,55.348432 C60.0496453,55.348432 59.5878799,55.5034868 59.1433079,55.7942147 L58.6225937,56.2012336 L58.6225937,55.5761688 L56.7337766,55.5761688 L56.7337766,64.9691 L58.6225937,64.9691 L58.6225937,61.671762 C58.6225937,60.2132775 58.6864548,59.241762 58.8264582,58.7790202 C58.9861111,58.2096783 59.2145376,57.7929684 59.5117377,57.5385816 L60.354214,57.1679036 L60.8061547,57.2841947 L61.1008985,57.4150222 L62.0612724,55.8862785 L61.7223169,55.6973054 Z" id="Fill-17" fill="#FEFEFE" mask="url(#mask-2)"></path>
                <path d="M63.905141,59.0292884 C64.1065494,58.5350512 64.3595379,58.1522595 64.6665628,57.8809136 C65.2167514,57.3915217 65.8651879,57.154094 66.6388906,57.154094 C67.1104808,57.154094 67.5599653,57.2437351 67.9750629,57.4423991 C68.395073,57.6337949 68.7340284,57.8881818 68.9845607,58.1982914 C69.1638633,58.4163373 69.3161476,58.6997969 69.44387,59.0292884 L63.905141,59.0292884 Z M71.5439202,60.3545227 C71.5390078,59.0947022 71.1853151,58.0238547 70.492667,57.1783213 C69.5347493,55.9669554 68.2329638,55.3515816 66.6241534,55.3515816 C65.0546422,55.3515816 63.7921559,55.9499963 62.8538878,57.1298667 C62.1194843,58.0480821 61.7510544,59.1189295 61.7510544,60.2987999 C61.7510544,61.5489295 62.1907141,62.6851907 63.0503838,63.6785108 C63.929703,64.6839445 65.150434,65.1902954 66.6904708,65.1902954 C67.3757503,65.1902954 67.9996249,65.0836952 68.5620945,64.8801857 C69.1073707,64.6694081 69.6158039,64.3617211 70.0554635,63.9595477 C70.492667,63.5597969 70.888115,63.0292186 71.2123333,62.3968856 L71.3793549,62.0698169 L69.8000188,61.2485108 L69.6158039,61.5489295 C69.2866732,62.0770851 68.9919293,62.4598767 68.729116,62.6851907 C68.4687589,62.917773 68.1445407,63.0922097 67.766286,63.2351509 C67.3831189,63.3708238 66.9974957,63.4483513 66.5897666,63.4483513 C65.7595713,63.4483513 65.0865728,63.1624689 64.5265594,62.5955497 C64.0353196,62.086776 63.7577691,61.4786703 63.6767145,60.722778 L71.5512888,60.722778 L71.5439202,60.3545227 Z" id="Fill-18" fill="#FEFEFE" mask="url(#mask-2)"></path>
                <polygon id="Fill-19" fill="#FEFEFE" mask="url(#mask-2)" points="6.71328221 59.1043931 10.7635545 52.5363672 8.53086953 52.5363672 5.74799597 57.0232665 2.91354222 52.5363672 0.678401055 52.5363672 4.80481552 59.1140841 4.80481552 64.9674041 6.71328221 64.9674041"></polygon>
                <path d="M13.979456,57.1766254 C14.8121074,57.1766254 15.5244052,57.4721987 16.1163492,58.0924181 C16.7353113,58.7077919 17.0300552,59.4370342 17.0300552,60.3213313 C17.0300552,60.8809824 16.8925081,61.4115606 16.6149576,61.8985297 C16.3472319,62.3782306 15.9714334,62.7513313 15.5244052,63.0154091 C15.0552712,63.2746414 14.5394694,63.4078916 13.979456,63.4078916 C13.4194426,63.4078916 12.9036408,63.2746414 12.4443315,63.0154091 C11.9874785,62.7513313 11.61168,62.3782306 11.3414981,61.8985297 C11.0590352,61.4115606 10.9214881,60.8809824 10.9214881,60.3213313 C10.9214881,59.4370342 11.2211444,58.7077919 11.8278256,58.0875726 C12.4320505,57.4721987 13.1369797,57.1766254 13.979456,57.1766254 M17.5384884,63.7252695 C18.4472821,62.7440631 18.9115037,61.598111 18.9115037,60.3019495 C18.9115037,59.0106334 18.4718441,57.8767949 17.6097182,56.9270841 C16.6493444,55.8853094 15.4286134,55.3498856 13.979456,55.3498856 C12.5180175,55.3498856 11.2997428,55.8853094 10.3320003,56.9343522 C9.47478684,57.8792177 9.0351272,59.0179016 9.0351272,60.3019495 C9.0351272,61.598111 9.49934883,62.7440631 10.4130549,63.7252695 C11.3316733,64.6992077 12.5327547,65.193445 13.979456,65.193445 C15.4187886,65.193445 16.6149576,64.6992077 17.5384884,63.7252695" id="Fill-20" fill="#FEFEFE" mask="url(#mask-2)"></path>
                <path d="M7.80604518,71.7617132 L7.07901025,72.3286324 C6.74742337,72.449769 6.19477858,72.5176055 5.43826926,72.5176055 L5.15335017,72.5176055 L5.15335017,69.5909455 L6.11618021,69.5909455 C6.83584654,69.5909455 7.34673595,69.7169275 7.64639224,69.9640462 C7.93622373,70.1869375 8.06640228,70.4946244 8.06640228,70.8943752 C8.06640228,71.221444 7.98289151,71.4976354 7.80604518,71.7617132 L7.80604518,71.7617132 Z M5.15335017,74.4606364 L5.42107587,74.4606364 C6.38144971,74.4606364 7.04462346,74.4969774 7.40814093,74.5866185 C7.93376753,74.707755 8.31693459,74.9306464 8.60676608,75.2480242 C8.88186038,75.5654021 9.02186373,75.9191209 9.02186373,76.343099 C9.02186373,76.6701678 8.92115956,76.9778547 8.72220744,77.2588916 C8.53308011,77.5471967 8.27272301,77.7555517 7.94113613,77.8984928 C7.59481206,78.0341658 7.01514907,78.1116932 6.21197197,78.1116932 L5.15335017,78.1116932 L5.15335017,74.4606364 Z M9.84469042,73.7580442 C9.6236325,73.5666484 9.34362581,73.3946344 9.00467033,73.2395796 L9.6408259,72.5103373 C9.93311359,72.0257909 10.0731169,71.483099 10.0731169,70.8943752 C10.0731169,70.2790013 9.9085516,69.7023911 9.57942092,69.1911947 C9.25520264,68.682421 8.79834961,68.2923612 8.22605522,68.050088 C7.67095423,67.8053921 6.91690111,67.6866783 5.92950908,67.6866783 L3.22523389,67.6866783 L3.22523389,80.0183832 L6.83584654,80.0183832 C8.08850807,80.0183832 9.1029183,79.667087 9.86679621,78.9572266 C10.6355865,78.2352525 11.0261222,77.34611 11.0261222,76.3188717 C11.0261222,75.8052525 10.9180494,75.3279744 10.7092725,74.8918827 C10.505408,74.4485227 10.2082079,74.0608856 9.84469042,73.7580442 L9.84469042,73.7580442 Z" id="Fill-21" fill="#FEFEFE" mask="url(#mask-2)"></path>
                <path d="M19.0976836,73.1957281 C19.69454,73.7917201 19.9794591,74.5112715 19.9794591,75.4004141 C19.9794591,75.979447 19.8443681,76.5051798 19.5766424,76.9751897 C19.3236539,77.4258179 18.9675051,77.7819594 18.473809,78.0533054 C17.9874816,78.3198059 17.4643112,78.4603243 16.931316,78.4603243 C16.3934084,78.4603243 15.8997124,78.3246514 15.425666,78.0533054 C14.9639006,77.7819594 14.5905583,77.3943223 14.3105516,76.9121987 C14.0280887,76.4179614 13.8905416,75.9019195 13.8905416,75.373764 C13.8905416,74.8383403 14.0280887,74.3198757 14.3007268,73.8401748 C14.5831897,73.3556284 14.956532,72.9776823 15.4182974,72.7160272 C15.8874314,72.4446813 16.3860398,72.3162765 16.943597,72.3162765 C17.8032667,72.3162765 18.5131082,72.5973134 19.0976836,73.1957281 L19.0976836,73.1957281 Z M19.9082293,71.6306434 C19.620854,71.3592974 19.2990919,71.1388288 18.9675051,70.9668149 C18.3362619,70.6421688 17.6264204,70.4725776 16.8551738,70.4725776 C15.5239139,70.4725776 14.364588,70.9522785 13.4115827,71.9092575 C12.4634899,72.844432 11.9869873,74.0000751 11.9869873,75.3325776 C11.9869873,76.6917301 12.4561213,77.8497959 13.3919331,78.8116204 C14.340026,79.7613313 15.4968958,80.2434549 16.8256995,80.2434549 C17.5699278,80.2434549 18.2650321,80.0762864 18.8962753,79.7710222 C19.2450556,79.601431 19.5889234,79.3809624 19.9082293,79.1168847 L19.9082293,80.0181409 L21.7970464,80.0181409 L21.7970464,70.6906234 L19.9082293,70.6906234 L19.9082293,71.6306434 Z" id="Fill-22" fill="#FEFEFE" mask="url(#mask-2)"></path>
                <path d="M30.2107564,71.0261718 C29.650743,70.6603393 28.9949378,70.4737889 28.2679029,70.4737889 C27.5752548,70.4737889 26.912081,70.636112 26.3225932,70.9680262 C26.0032873,71.1303493 25.7036311,71.3435497 25.4137996,71.602782 L25.4137996,70.6918348 L23.5151577,70.6918348 L23.5151577,80.0169295 L25.4137996,80.0169295 L25.4137996,76.4942775 C25.4137996,75.4064709 25.4702921,74.6578468 25.5587153,74.2653642 C25.7134558,73.6935995 26.0229369,73.2308577 26.4871586,72.831107 C26.9562926,72.4531608 27.467182,72.261765 28.0493012,72.261765 C28.552822,72.261765 28.9433576,72.3756334 29.2454701,72.6082157 C29.5328454,72.8383752 29.7391661,73.1799804 29.8546075,73.6766404 C29.9037315,73.8825726 29.9626803,74.3695417 29.9626803,75.5494121 L29.9626803,80.0169295 L31.8613222,80.0169295 L31.8613222,75.2368797 C31.8613222,74.0037092 31.7335998,73.1218348 31.4732427,72.5113064 C31.2030608,71.8959325 30.7830508,71.3920043 30.2107564,71.0261718" id="Fill-23" fill="#FEFEFE" mask="url(#mask-2)"></path>
                <polygon id="Fill-24" fill="#FEFEFE" mask="url(#mask-2)" points="36.4632568 75.1658936 41.6703988 70.691108 38.8261203 70.691108 35.3702482 73.6734908 35.3702482 67.39377 33.4593253 67.39377 33.4593253 80.0186254 35.3702482 80.0186254 35.3702482 76.6582964 39.1749006 80.0186254 41.9209311 80.0186254"></polygon>
            </g>
        </g>
    </g>
</svg>