<!-- Generated by IcoMoon.io -->
<svg version="1.1" xmlns="http://www.w3.org/2000/svg" width="32" height="32" viewBox="0 0 32 32">
<title>icon__watch</title>
<path d="M22 5.605c3.587 2.075 6 5.953 6 10.395s-2.413 8.32-6 10.395v5.605h-12v-5.605c-3.587-2.075-6-5.953-6-10.395s2.413-8.32 6-10.395v-5.605h12v5.605zM20 4.683v-2.683h-8v2.683c1.251-0.442 2.597-0.683 4-0.683s2.749 0.241 4 0.683zM20 27.317c-1.251 0.442-2.597 0.683-4 0.683s-2.749-0.241-4-0.683v2.683h8v-2.683zM16 26c5.523 0 10-4.477 10-10s-4.477-10-10-10c-5.523 0-10 4.477-10 10s4.477 10 10 10zM16 16h5.019c0.542 0 0.981 0.464 0.981 1 0 0.552-0.43 1-0.981 1h-6.038c-0.27 0-0.515-0.115-0.694-0.292-0.177-0.178-0.287-0.424-0.287-0.704v-8.009c0-0.55 0.464-0.995 1-0.995 0.552 0 1 0.43 1 0.995v7.005z"></path>
</svg>
