<!-- Generated by IcoMoon.io -->
<svg version="1.1" xmlns="http://www.w3.org/2000/svg" width="32" height="32" viewBox="0 0 32 32">
<title>icon__tag</title>
<path d="M4 10l12-10 12 10v22h-24v-22zM6 30h20v-19.063l-10-8.333-10 8.333v19.063zM16 16c-2.209 0-4-1.791-4-4s1.791-4 4-4c2.209 0 4 1.791 4 4s-1.791 4-4 4zM16 14c1.105 0 2-0.895 2-2s-0.895-2-2-2c-1.105 0-2 0.895-2 2s0.895 2 2 2zM12 19c0-0.552 0.449-1 1-1 0.552 0 1 0.449 1 1v8c0 0.552-0.449 1-1 1-0.552 0-1-0.449-1-1v-8zM18 19c0-0.552 0.449-1 1-1 0.552 0 1 0.449 1 1v8c0 0.552-0.449 1-1 1-0.552 0-1-0.449-1-1v-8z"></path>
</svg>
