<svg id="Layer_1" data-name="Layer 1" xmlns="http://www.w3.org/2000/svg" xmlns:xlink="http://www.w3.org/1999/xlink" viewBox="0 0 96 96"><defs><style>.cls-1,.cls-2,.cls-5,.cls-6{fill:none;}.cls-2{clip-rule:evenodd;}.cls-3{clip-path:url(#clip-path);}.cls-4{clip-path:url(#clip-path-2);}.cls-5{stroke:#4a4a4a;stroke-width:10px;}.cls-5,.cls-6{stroke-miterlimit:10;}.cls-6{stroke:#fff;stroke-linecap:square;stroke-width:13px;}.cls-7{clip-path:url(#clip-path-4);}.cls-8{fill:#4a4a4a;}.cls-9{clip-path:url(#clip-path-6);}.cls-10{clip-path:url(#clip-path-8);}</style><clipPath id="clip-path"><ellipse class="cls-1" cx="48.54" cy="47.81" rx="45.41" ry="47.81"/></clipPath><clipPath id="clip-path-2"><rect class="cls-1" x="-1" width="96" height="96"/></clipPath><clipPath id="clip-path-4"><polygon class="cls-2" points="70.36 21.94 86.13 9.93 86.13 26.51 70.36 21.94"/></clipPath><clipPath id="clip-path-6"><polygon class="cls-2" points="30.75 75.92 16.28 89 14.67 72.63 30.75 75.92"/></clipPath><clipPath id="clip-path-8"><path class="cls-2" d="M62.12,63.64H35.71V60.47l4.08-1V51.4H35.71V46.74h4.08v-4.9a11.63,11.63,0,0,1,1.39-5.76,9.84,9.84,0,0,1,3.91-3.89,11.87,11.87,0,0,1,5.84-1.39,10.58,10.58,0,0,1,7.9,3,11.94,11.94,0,0,1,3.24,8l-4.85,1a8.34,8.34,0,0,0-1.9-5.21,5.69,5.69,0,0,0-4.39-1.8,5.83,5.83,0,0,0-4.35,1.68,6,6,0,0,0-1.66,4.42v4.9h9.7V51.4h-9.7V59H62.12Z"/></clipPath></defs><title>Artboard 1</title><g class="cls-3"><g class="cls-4"><ellipse class="cls-5" cx="48.54" cy="47.81" rx="45.41" ry="47.81"/></g></g><g class="cls-4"><line class="cls-6" x1="-0.71" y1="84.75" x2="94.27" y2="19.19"/></g><g class="cls-7"><g class="cls-4"><rect class="cls-8" x="65.36" y="4.93" width="25.76" height="26.58"/></g></g><g class="cls-9"><g class="cls-4"><rect class="cls-8" x="9.67" y="67.63" width="26.08" height="26.37"/></g></g><g class="cls-10"><g class="cls-4"><rect class="cls-8" x="30.71" y="25.79" width="36.42" height="42.85"/></g></g></svg>