<svg id="Layer_1" data-name="Layer 1" xmlns="http://www.w3.org/2000/svg" xmlns:xlink="http://www.w3.org/1999/xlink" viewBox="0 0 96 96"><defs><style>.cls-1,.cls-2{fill:none;}.cls-1{clip-rule:evenodd;}.cls-3{clip-path:url(#clip-path);}.cls-4{clip-path:url(#clip-path-2);}.cls-5{fill:#4a4a4a;}</style><clipPath id="clip-path"><path class="cls-1" d="M30.77,24.22H79.1V10.35a.35.35,0,0,0-.48-.35ZM69.24,57.64v7.2H86v-7.2Zm-4.8-4.31a.48.48,0,0,1,.49-.48H86v16.8H64.93a.49.49,0,0,1-.49-.48ZM9.2,31.74v56.6a.49.49,0,0,0,.49.5H85.56a.49.49,0,0,0,.49-.5V31.74a.49.49,0,0,0-.49-.5H9.69A.49.49,0,0,0,9.2,31.74Zm-1-7.7L84.54,1.31A1,1,0,0,1,86,2.37V24h5.8a1.49,1.49,0,0,1,1.49,1.47V94.57A1.47,1.47,0,0,1,91.76,96H3.49A1.49,1.49,0,0,1,2,94.57V25.52A1.47,1.47,0,0,1,3.49,24Z"/></clipPath><clipPath id="clip-path-2"><rect class="cls-2" x="1.95" y="1.29" width="94.81" height="94.75"/></clipPath></defs><title>Artboard 1</title><g class="cls-3"><g class="cls-4"><rect class="cls-5" x="-2.94" y="-3.68" width="101.13" height="104.66"/></g></g></svg>