<!-- Generated by IcoMoon.io -->
<svg version="1.1" xmlns="http://www.w3.org/2000/svg" width="32" height="32" viewBox="0 0 32 32">
<title>icon__clipboard-tick</title>
<path d="M22 4h2v2h6v26h-28v-26h6v-2h2v-1.981c0-1.115 0.902-2.019 1.982-2.019h8.037c1.094 0 1.982 0.887 1.982 2.019v1.981zM20 6v-4h-8v4h-2v4h12v-4h-2zM8 12v-4h-4v22h24v-22h-4v4h-16zM11.707 20.536l2.364 2.364 6.607-6.607c0.391-0.391 1.024-0.391 1.414 0s0.391 1.024 0 1.414l-7.314 7.314c-0.391 0.391-1.024 0.391-1.414 0l-3.071-3.071c-0.391-0.391-0.391-1.024 0-1.414s1.024-0.391 1.414 0z"></path>
</svg>
