<svg id="Layer_1" data-name="Layer 1" xmlns="http://www.w3.org/2000/svg" xmlns:xlink="http://www.w3.org/1999/xlink" viewBox="0 0 96 96"><defs><style>.cls-1,.cls-2{fill:none;}.cls-1{clip-rule:evenodd;}.cls-3{clip-path:url(#clip-path);}.cls-4{clip-path:url(#clip-path-2);}.cls-5{fill:#4a4a4a;}</style><clipPath id="clip-path"><path class="cls-1" d="M72.39,44.92h7.28V88.34H72.39Zm-55.83,0h7.28V88.34H16.56ZM38.41,10.15v6.68H57.83V10.15a1,1,0,0,0-1-1H39.4A1,1,0,0,0,38.41,10.15Zm-7.28-4.7a4,4,0,0,1,4-3.95H61.15a4,4,0,0,1,4,3.95V16.82h-34ZM9.28,44.92V87.35a1,1,0,0,0,1,1H86a1,1,0,0,0,1-1V44.92Zm0-19.45V37.26H87V25.47a1,1,0,0,0-1-1H10.26A1,1,0,0,0,9.28,25.47ZM2,19.78a3,3,0,0,1,3-3H91.27a3,3,0,0,1,3,3V93a3,3,0,0,1-3,3H5a3,3,0,0,1-3-3Z"/></clipPath><clipPath id="clip-path-2"><rect class="cls-2" x="1.01" y="1.5" width="94.97" height="94.5"/></clipPath></defs><title>Artboard 1</title><g class="cls-3"><g class="cls-4"><rect class="cls-5" x="-2.95" y="-3.42" width="102.13" height="104.34"/></g></g></svg>