<!-- Generated by IcoMoon.io -->
<svg version="1.1" xmlns="http://www.w3.org/2000/svg" width="32" height="32" viewBox="0 0 32 32">
<title>icon__cycle--small</title>
<path d="M11.873 21.873l-0.79 1.369c-0.169 0.293-0.033 0.51 0.298 0.494l4.504-0.215c0.332-0.016 0.476-0.267 0.325-0.562l-2.066-4.008c-0.152-0.296-0.41-0.3-0.577-0.011l-0.683 1.182c-0.141-0.118-0.276-0.245-0.405-0.379-0.94-0.979-1.479-2.306-1.479-3.727s0.539-2.748 1.479-3.727c0.245-0.256 0.515-0.484 0.805-0.681 0.456-0.311 0.574-0.933 0.263-1.389s-0.933-0.574-1.389-0.263c-0.405 0.276-0.78 0.594-1.121 0.949-1.296 1.35-2.036 3.172-2.036 5.112s0.74 3.762 2.036 5.112c0.26 0.271 0.54 0.52 0.837 0.745zM19.121 11.915c0.139 0.117 0.273 0.242 0.4 0.374 0.94 0.979 1.479 2.306 1.479 3.727s-0.539 2.748-1.479 3.727c-0.245 0.256-0.515 0.484-0.805 0.681-0.456 0.311-0.574 0.933-0.263 1.389s0.933 0.574 1.389 0.263c0.404-0.276 0.78-0.594 1.122-0.949 1.296-1.35 2.036-3.172 2.036-5.112s-0.74-3.762-2.036-5.112c-0.259-0.269-0.537-0.517-0.832-0.741l0.771-1.336c0.166-0.287 0.032-0.509-0.299-0.493l-4.452 0.204c-0.331 0.015-0.476 0.266-0.323 0.56l2.050 3.957c0.152 0.294 0.411 0.3 0.577 0.012l0.665-1.152z"></path>
</svg>
