<!-- Generated by IcoMoon.io -->
<svg version="1.1" xmlns="http://www.w3.org/2000/svg" width="32" height="32" viewBox="0 0 32 32">
<title>icon__telephone</title>
<path d="M9.437 23.304c-0.203-0.206-0.203-0.206-0.287-0.291-0.21-0.212-0.358-0.355-0.497-0.484-1.364-1.261-2.338-1.167-4.951 0.933-1.383 1.111-1.822 1.98-1.673 2.748 0.102 0.526 1.182 1.924 2.595 3.215 2.154 1.967 10.216-1.191 16.914-7.886 6.729-6.729 9.938-14.851 7.941-16.846-0.095-0.095-0.473-0.551-0.573-0.665-0.281-0.321-0.571-0.62-0.878-0.897-0.672-0.604-1.318-0.993-1.845-1.102-0.737-0.153-1.604 0.288-2.722 1.679-2.099 2.61-2.193 3.583-0.935 4.945 0.129 0.139 0.273 0.288 0.485 0.498 0.087 0.086 0.087 0.086 0.29 0.286 0.161 0.159 0.161 0.159 0.277 0.274 1.961 1.969-0.046 4.948-4.484 9.388-4.443 4.44-7.421 6.443-9.39 4.474-0.111-0.112-0.111-0.112-0.268-0.271zM11.12 22.161c0.589 0.588 3.183-1.098 6.563-4.475 3.376-3.377 5.065-5.974 4.48-6.561-0.118-0.117-0.515-0.509-0.559-0.552-0.223-0.221-0.39-0.392-0.546-0.561-1.966-2.128-1.883-4.164 0.845-7.556 1.543-1.919 3.101-2.713 4.687-2.384 2.243 0.466 4.111 3.015 4.303 3.208 3.041 3.037-0.375 12.107-7.942 19.674-7.569 7.566-16.52 10.832-19.677 7.948-1.516-1.385-2.98-3.129-3.209-4.31-0.309-1.592 0.465-3.147 2.384-4.689 3.395-2.728 5.431-2.811 7.561-0.843 0.168 0.156 0.338 0.322 0.559 0.544 0.038 0.039 0.432 0.438 0.55 0.556z"></path>
</svg>
