<svg id="Layer_1" data-name="Layer 1" xmlns="http://www.w3.org/2000/svg" xmlns:xlink="http://www.w3.org/1999/xlink" viewBox="0 0 96 96"><defs><style>.cls-1,.cls-2{fill:none;}.cls-1{clip-rule:evenodd;}.cls-3{clip-path:url(#clip-path);}.cls-4{clip-path:url(#clip-path-2);}.cls-5{fill:#4a4a4a;}</style><clipPath id="clip-path"><path class="cls-1" d="M14.44,70a3.79,3.79,0,0,1,3.8-3.8H46.76a3.8,3.8,0,0,1,0,7.59H18.24A3.8,3.8,0,0,1,14.44,70Zm0-12.66a3.79,3.79,0,0,1,3.8-3.8H46.76a3.8,3.8,0,0,1,0,7.59H18.24A3.8,3.8,0,0,1,14.44,57.36ZM62.59,28.25V43.44H77V28.25Zm-4.81-4.07a1,1,0,0,1,1-1H80.84a1,1,0,0,1,1,1V47.51a1,1,0,0,1-1,1H58.78a1,1,0,0,1-1-1ZM7.22,16.6V80.4a1,1,0,0,0,1,1H88.06a1,1,0,0,0,1-1V16.6a1,1,0,0,0-1-1H8.23A1,1,0,0,0,7.22,16.6ZM0,11A3,3,0,0,1,3,8H93.29a3,3,0,0,1,3,3V86a3,3,0,0,1-3,3H3a3,3,0,0,1-3-3Z"/></clipPath><clipPath id="clip-path-2"><rect class="cls-2" width="96" height="96"/></clipPath></defs><title>Artboard 1</title><g class="cls-3"><g class="cls-4"><rect class="cls-5" x="-5" y="3" width="106.29" height="91"/></g></g></svg>