<svg id="Layer_1" data-name="Layer 1" xmlns="http://www.w3.org/2000/svg" xmlns:xlink="http://www.w3.org/1999/xlink" viewBox="0 0 96 96"><defs><style>.cls-1,.cls-2{fill:none;}.cls-1{clip-rule:evenodd;}.cls-3{clip-path:url(#clip-path);}.cls-4{clip-path:url(#clip-path-2);}.cls-5{fill:#4a4a4a;}</style><clipPath id="clip-path"><path class="cls-1" d="M17.87,40.8,27,55.2h51.6a1,1,0,0,0,1-1V27.39a1,1,0,0,0-1-1H27ZM68.19,19.2H82.41a4,4,0,0,1,4,4V58.39a4,4,0,0,1-4,4H68.19V93a3,3,0,0,1-3,3H43.87a3,3,0,0,1-3-3V62.4H23.61a2,2,0,0,1-1.54-.85L9,40.67,22.08,20a2,2,0,0,1,1.54-.84H40.87V3a3,3,0,0,1,3-3H65.19a3,3,0,0,1,3,3ZM47.7,62.4V87.8a1,1,0,0,0,1,1H60.36a1,1,0,0,0,1-1V62.4ZM61.36,19.2V8.2a1,1,0,0,0-1-1H48.71a1,1,0,0,0-1,1v11Z"/></clipPath><clipPath id="clip-path-2"><rect class="cls-2" x="1.6" width="96" height="96"/></clipPath></defs><title>Artboard 1</title><g class="cls-3"><g class="cls-4"><rect class="cls-5" x="4" y="-5" width="87.4" height="106"/></g></g></svg>