<!-- Generated by IcoMoon.io -->
<svg version="1.1" xmlns="http://www.w3.org/2000/svg" width="32" height="32" viewBox="0 0 32 32">
<title>icon__cycle</title>
<path d="M8.641 27.569l-1.594 2.761c-0.267 0.462-0.052 0.803 0.476 0.768l7.689-0.514c0.524-0.035 0.766-0.449 0.533-0.923l-3.399-6.916c-0.232-0.472-0.637-0.487-0.902-0.028l-1.552 2.687c-0.636-0.419-1.229-0.903-1.769-1.443-2.095-2.095-3.292-4.925-3.292-7.947s1.197-5.852 3.292-7.947c0.55-0.55 1.155-1.041 1.805-1.467 0.577-0.377 0.739-1.151 0.362-1.729s-1.151-0.739-1.729-0.362c-0.794 0.519-1.533 1.12-2.204 1.791-2.559 2.559-4.023 6.021-4.023 9.713s1.465 7.154 4.023 9.713c0.695 0.695 1.461 1.313 2.285 1.843zM22.257 6.629c0.632 0.418 1.221 0.899 1.759 1.437 2.095 2.095 3.292 4.925 3.292 7.947s-1.197 5.852-3.292 7.947c-0.55 0.55-1.155 1.041-1.805 1.467-0.577 0.377-0.739 1.151-0.362 1.729s1.151 0.739 1.729 0.362c0.794-0.519 1.533-1.12 2.204-1.791 2.559-2.559 4.023-6.021 4.023-9.713s-1.465-7.154-4.023-9.713c-0.692-0.692-1.455-1.308-2.275-1.837l1.554-2.692c0.266-0.461 0.051-0.803-0.478-0.769l-7.573 0.488c-0.532 0.034-0.767 0.447-0.532 0.922l3.364 6.803c0.236 0.477 0.64 0.488 0.905 0.029l1.51-2.616z"></path>
</svg>
