<!-- Generated by IcoMoon.io -->
<svg version="1.1" xmlns="http://www.w3.org/2000/svg" width="32" height="32" viewBox="0 0 32 32">
<title>icon__question--small</title>
<path d="M17.293 6c4.104 0 6.85 2.627 6.85 6.479 0 3.016-2.155 5.165-5.521 5.583v1.672h-3.573v-4.658h2.244c1.831 0 3.071-1.045 3.071-2.598 0-1.762-1.24-2.986-3.071-2.986-1.978 0-3.248 1.373-3.602 3.434l-3.691-0.746c0.236-3.284 3.13-6.18 7.293-6.18zM16.791 22.003c1.358 0 2.333 1.075 2.333 2.299 0 1.284-0.974 2.269-2.333 2.269s-2.333-0.985-2.333-2.269c0-1.224 0.974-2.299 2.333-2.299z"></path>
</svg>
