<!-- Generated by IcoMoon.io -->
<svg version="1.1" xmlns="http://www.w3.org/2000/svg" width="32" height="32" viewBox="0 0 32 32">
<title>icon__shirt</title>
<path d="M8 4v-2.002c0-1.104 0.893-1.998 1.999-1.998h14.001c1.104 0 1.999 0.894 1.999 1.998v2.002h3.997c1.106 0 2.003 0.896 2.003 2.002v23.995c0 1.106-0.898 2.002-2.003 2.002h-25.993c-1.106 0-2.003-0.896-2.003-2.002v-23.995c0-1.106 0.898-2.002 2.003-2.002h3.997zM26 6v5.958c0 1.135-0.831 1.664-1.762 1.259l-6.238-2.835v19.619h12v-24h-4zM8 6h-4v24h12v-19.619l-6.238 2.835c-0.947 0.412-1.762-0.101-1.762-1.259v-5.958zM22.581 2.004c-2.685-0.002-8.482-0.003-11.167-0.004l5.585 5.585 5.581-5.582zM10 10.922l5.198-2.31-5.2-5.2c0.002 2.515 0.002 7.51 0.002 7.51zM24 10.922v-7.508l-5.198 5.198 5.198 2.31zM20 19c0-0.552 0.447-1 0.997-1h6.006c0.551 0 0.997 0.449 0.997 1 0 0.552-0.447 1-0.997 1h-6.006c-0.551 0-0.997-0.449-0.997-1z"></path>
</svg>
