<!-- Generated by IcoMoon.io -->
<svg version="1.1" xmlns="http://www.w3.org/2000/svg" width="32" height="32" viewBox="0 0 32 32">
<title>icon__diary</title>
<path d="M0 3.988c0-2.203 1.789-3.988 3.988-3.988h24.024c2.203 0 3.988 1.789 3.988 3.988v24.024c0 2.203-1.789 3.988-3.988 3.988h-24.024c-2.203 0-3.988-1.789-3.988-3.988v-24.024zM6 30v-4h-2v-4h2v-4h-2v-4h2v-4h-2v-4h2v-4h-2.012c-1.096 0-1.988 0.892-1.988 1.988v24.024c0 1.096 0.892 1.988 1.988 1.988h2.012zM8 30h20.012c1.096 0 1.988-0.892 1.988-1.988v-24.024c0-1.096-0.892-1.988-1.988-1.988h-20.012v28zM10 6h18v10h-18v-10zM12 14h14v-6h-14v6zM10 25c0-0.552 0.445-1 1-1h16c0.552 0 1 0.449 1 1 0 0.552-0.445 1-1 1h-16c-0.552 0-1-0.449-1-1zM10 21c0-0.552 0.445-1 1-1h16c0.552 0 1 0.449 1 1 0 0.552-0.445 1-1 1h-16c-0.552 0-1-0.449-1-1z"></path>
</svg>
