<!-- Generated by IcoMoon.io -->
<svg version="1.1" xmlns="http://www.w3.org/2000/svg" width="32" height="32" viewBox="0 0 32 32">
<title>icon__question</title>
<path d="M16.39 2c5.472 0 9.133 3.503 9.133 8.639 0 4.021-2.874 6.887-7.362 7.444v2.229h-4.764v-6.21h2.992c2.441 0 4.094-1.393 4.094-3.463 0-2.349-1.653-3.981-4.094-3.981-2.638 0-4.33 1.831-4.803 4.578l-4.921-0.995c0.315-4.379 4.173-8.241 9.724-8.241zM15.721 23.338c1.811 0 3.11 1.433 3.11 3.065 0 1.712-1.299 3.026-3.11 3.026s-3.11-1.314-3.11-3.026c0-1.632 1.299-3.065 3.11-3.065z"></path>
</svg>
