<svg id="Layer_1" data-name="Layer 1" xmlns="http://www.w3.org/2000/svg" xmlns:xlink="http://www.w3.org/1999/xlink" viewBox="0 0 96 96"><defs><style>.cls-1,.cls-2{fill:none;}.cls-1{clip-rule:evenodd;}.cls-3{clip-path:url(#clip-path);}.cls-4{clip-path:url(#clip-path-2);}.cls-5{fill:#4a4a4a;}</style><clipPath id="clip-path"><path class="cls-1" d="M82,33a31,31,0,0,0-4.65-11.7c11.2,5.41,18.69,15.29,18.69,26.58,0,10.21-6.13,19.26-15.58,24.9V88.4L61.53,78.71q-1.93.16-3.91.16a45.15,45.15,0,0,1-20.85-5h.94a54.33,54.33,0,0,0,16-2.38q1.9.18,3.87.18,1.62,0,3.2-.12l13.89,7.62-.7-11C82.91,64,88.85,56.47,88.85,47.9,88.85,42.27,86.29,37.09,82,33ZM34.5,69.18,15.56,78.87V63.27C6.11,57.63,0,48.57,0,38.37c0-17.1,17.2-31,38.43-31s38.43,13.87,38.43,31-17.2,31-38.43,31Q36.43,69.34,34.5,69.18Zm.71-7.11q1.58.12,3.2.12c17.24,0,31.22-10.67,31.22-23.82s-14-23.82-31.22-23.82S7.19,25.21,7.19,38.37c0,8.57,5.93,16.09,14.84,20.28l-.7,11Z"/></clipPath><clipPath id="clip-path-2"><rect class="cls-2" x="-0.02" y="0.4" width="96" height="96"/></clipPath></defs><title>Artboard 1</title><g class="cls-3"><g class="cls-4"><rect class="cls-5" x="-5.02" y="2.4" width="106.07" height="91"/></g></g></svg>