<svg id="Layer_1" data-name="Layer 1" xmlns="http://www.w3.org/2000/svg" xmlns:xlink="http://www.w3.org/1999/xlink" viewBox="0 0 96 96"><defs><style>.cls-1,.cls-2{fill:none;}.cls-1{clip-rule:evenodd;}.cls-3{clip-path:url(#clip-path);}.cls-4{clip-path:url(#clip-path-2);}.cls-5{fill:#4a4a4a;}</style><clipPath id="clip-path"><path class="cls-1" d="M48.4,88.8A4.8,4.8,0,1,0,43.6,84,4.8,4.8,0,0,0,48.4,88.8ZM72.4,36h7.2V74.4H72.4ZM17.2,36h7.2V74.4H17.2Zm55.2,0a24,24,0,0,0-48,0ZM43.61,5.16q0-.18,0-.36a4.8,4.8,0,1,1,9.6,0q0,.18,0,.36A31.21,31.21,0,0,1,79.6,36H17.2A31.21,31.21,0,0,1,43.61,5.16ZM60.14,81.6A10.55,10.55,0,0,1,60.4,84a12,12,0,0,1-24,0,10.55,10.55,0,0,1,.26-2.4H13.6a3.6,3.6,0,1,1,0-7.2H83.2a3.6,3.6,0,1,1,0,7.2Z"/></clipPath><clipPath id="clip-path-2"><rect class="cls-2" width="96" height="96"/></clipPath></defs><title>Artboard 1</title><g class="cls-3"><g class="cls-4"><rect class="cls-5" x="5" y="-5" width="86.8" height="106"/></g></g></svg>