<!-- Generated by IcoMoon.io -->
<svg version="1.1" xmlns="http://www.w3.org/2000/svg" width="32" height="32" viewBox="0 0 32 32">
<title>icon__briefcase</title>
<path d="M10 6v0-2.002c0-1.103 0.902-1.998 1.982-1.998h8.037c1.094 0 1.982 0.885 1.982 1.998v2.002h2v-1.009c0-0.547 0.431-0.991 0.991-0.991h4.018c0.547 0 0.991 0.432 0.991 0.991v1.009c1.105 0.001 2 0.912 2 2.005v19.99c0 1.107-0.889 2.005-2.002 2.005h-27.997c-1.106 0-2.002-0.912-2.002-2.005v-19.99c0-1.107 0.888-2.004 2-2.005v-1.009c0-0.547 0.432-0.991 0.991-0.991h4.018c0.547 0 0.991 0.432 0.991 0.991v1.009h2zM12 4v2h8v-2h-8zM2 8v20h2v-20h-2zM28 8v20h2v-20h-2zM6 8v20h20v-20h-20z"></path>
</svg>
