<svg id="Layer_1" data-name="Layer 1" xmlns="http://www.w3.org/2000/svg" xmlns:xlink="http://www.w3.org/1999/xlink" viewBox="0 0 96 96"><defs><style>.cls-1{fill:none;}.cls-2{clip-path:url(#clip-path);}.cls-3{clip-path:url(#clip-path-2);}.cls-4{fill:#4a4a4a;}</style><clipPath id="clip-path"><path class="cls-1" d="M60.06,67.3a2.49,2.49,0,0,1,2.5-2.5H72a2.51,2.51,0,0,1,2.5,2.5v2.2A2.49,2.49,0,0,1,72,72H62.56a2.51,2.51,0,0,1-2.5-2.5Zm-38.59,0A2.5,2.5,0,0,1,24,64.8h24a2.5,2.5,0,0,1,2.49,2.5v2.2A2.5,2.5,0,0,1,47.92,72H24a2.5,2.5,0,0,1-2.49-2.5ZM60.06,52.9a2.49,2.49,0,0,1,2.5-2.5H72a2.51,2.51,0,0,1,2.5,2.5v2.2A2.49,2.49,0,0,1,72,57.6H62.56a2.51,2.51,0,0,1-2.5-2.5Zm-38.59,0A2.5,2.5,0,0,1,24,50.4h24a2.5,2.5,0,0,1,2.49,2.5v2.2a2.5,2.5,0,0,1-2.49,2.5H24a2.5,2.5,0,0,1-2.49-2.5ZM60.06,38.5a2.49,2.49,0,0,1,2.5-2.5H72a2.51,2.51,0,0,1,2.5,2.5v2.2A2.49,2.49,0,0,1,72,43.2H62.56a2.51,2.51,0,0,1-2.5-2.5Zm-38.59,0A2.5,2.5,0,0,1,24,36h24a2.5,2.5,0,0,1,2.49,2.5v2.2a2.5,2.5,0,0,1-2.49,2.5H24a2.5,2.5,0,0,1-2.49-2.5Zm0-21.6A2.5,2.5,0,0,1,24,14.4H72a2.51,2.51,0,0,1,2.51,2.5v2.2A2.5,2.5,0,0,1,72,21.6H24a2.51,2.51,0,0,1-2.51-2.5ZM14.24,7.7a.5.5,0,0,1,.5-.5H81.26a.5.5,0,0,1,.5.5V88.8L70.51,80.06,59.25,88.8,48,80.06,36.74,88.8,25.49,80.06,14.24,88.8ZM8.49,0A1.49,1.49,0,0,0,7,1.51V96h5.86l11.71-9,11.65,9L48,87l11.71,9,11.72-9,11.72,9H89V1.51A1.5,1.5,0,0,0,87.51,0Z"/></clipPath><clipPath id="clip-path-2"><rect class="cls-1" width="96" height="96"/></clipPath></defs><title>Artboard 1</title><g class="cls-2"><g class="cls-3"><rect class="cls-4" x="2" y="-5" width="92" height="106"/></g></g></svg>