<svg id="Layer_1" data-name="Layer 1" xmlns="http://www.w3.org/2000/svg" xmlns:xlink="http://www.w3.org/1999/xlink" viewBox="0 0 96 96"><defs><style>.cls-1,.cls-2{fill:none;}.cls-1{clip-rule:evenodd;}.cls-3{clip-path:url(#clip-path);}.cls-4{clip-path:url(#clip-path-2);}.cls-5{fill:#4a4a4a;}</style><clipPath id="clip-path"><path class="cls-1" d="M46.22,50.9l3.37-1.55a3.59,3.59,0,0,1-1.43-2.75c0-5.62,10.65-6.36,10.65-15,0-4.93-4.09-8.87-10.82-8.87a14.32,14.32,0,0,0-12,5.84l2.76,3.09A10.08,10.08,0,0,1,47.61,27c4.3,0,6.46,2.47,6.46,5.33,0,6.07-9.94,6.64-9.94,13.92a6,6,0,0,0,2.1,4.7m1.16,11.17a3.15,3.15,0,1,1,3-3.15A3.12,3.12,0,0,1,47.38,62.07ZM42.12,83.48,19.46,95.92V75.58C7.65,67.95,0,55.7,0,41.89,0,18.76,21.5,0,48,0S96,18.76,96,41.89,74.53,83.79,48,83.79A55.49,55.49,0,0,1,42.12,83.48Zm-1.35-7.62A48.38,48.38,0,0,0,48,76.4c22.54,0,40.81-15.45,40.81-34.5S70.55,7.39,48,7.39,7.2,22.84,7.2,41.89C7.2,54.33,15,65.23,26.66,71.3V83.6Z"/></clipPath><clipPath id="clip-path-2"><rect class="cls-2" x="0.03" width="96" height="96"/></clipPath></defs><title>Artboard 1</title><g class="cls-3"><g class="cls-4"><rect class="cls-5" x="-5" y="-5" width="106.03" height="105.92"/></g></g></svg>