<!-- Generated by IcoMoon.io -->
<svg version="1.1" xmlns="http://www.w3.org/2000/svg" width="32" height="32" viewBox="0 0 32 32">
<title>icon__calculator</title>
<path d="M4 6.005c0-1.107 0.912-2.005 2.005-2.005h19.99c1.107 0 2.005 0.912 2.005 2.005v19.99c0 1.107-0.912 2.005-2.005 2.005h-19.99c-1.107 0-2.005-0.912-2.005-2.005v-19.99zM6 10v16h20v-16h-20zM6 6v2h20v-2h-20zM8 14.999c0-0.552 0.447-0.999 0.999-0.999h2.002c0.552 0 0.999 0.447 0.999 0.999v2.002c0 0.552-0.447 0.999-0.999 0.999h-2.002c-0.552 0-0.999-0.447-0.999-0.999v-2.002zM8 20.999c0-0.552 0.447-0.999 0.999-0.999h2.002c0.552 0 0.999 0.447 0.999 0.999v2.002c0 0.552-0.447 0.999-0.999 0.999h-2.002c-0.552 0-0.999-0.447-0.999-0.999v-2.002zM14 14.999c0-0.552 0.447-0.999 0.999-0.999h2.002c0.552 0 0.999 0.447 0.999 0.999v2.002c0 0.552-0.447 0.999-0.999 0.999h-2.002c-0.552 0-0.999-0.447-0.999-0.999v-2.002zM14 20.999c0-0.552 0.447-0.999 0.999-0.999h2.002c0.552 0 0.999 0.447 0.999 0.999v2.002c0 0.552-0.447 0.999-0.999 0.999h-2.002c-0.552 0-0.999-0.447-0.999-0.999v-2.002zM20 14.999c0-0.552 0.447-0.999 0.999-0.999h2.002c0.552 0 0.999 0.447 0.999 0.999v2.002c0 0.552-0.447 0.999-0.999 0.999h-2.002c-0.552 0-0.999-0.447-0.999-0.999v-2.002zM20 20.999c0-0.552 0.447-0.999 0.999-0.999h2.002c0.552 0 0.999 0.447 0.999 0.999v2.002c0 0.552-0.447 0.999-0.999 0.999h-2.002c-0.552 0-0.999-0.447-0.999-0.999v-2.002z"></path>
</svg>
