<!-- Generated by IcoMoon.io -->
<svg version="1.1" xmlns="http://www.w3.org/2000/svg" width="32" height="32" viewBox="0 0 32 32">
<title>icon__flag</title>
<path d="M2 18.894v0 12.099c0 0.556-0.464 1.007-1 1.007-0.552 0-1-0.466-1-1.007v-29.075l1.31-0.485c2.333-0.864 5.102-1.433 8.172-1.433 3.307 0 6.565 0.68 9.672 2.016 2.246 0.964 4.325 1.443 6.172 1.443 1.448 0 2.702-0.283 3.793-0.794l2.879-1.348v17.336l-0.424 0.54c-1.287 1.64-3.364 2.807-6.248 2.807-1.841 0-3.865-0.484-6.031-1.415-3.636-1.562-7.439-2.352-11.311-2.352-1.991 0-3.856 0.21-5.548 0.568l-0.439 0.093zM7.987 16.233c4.146 0 8.217 0.846 12.101 2.515 1.948 0.838 3.707 1.253 5.24 1.253 2.090 0 3.657-0.747 4.672-2.038v-13.5c-1.424 0.667-2.973 0.997-4.673 0.997-2.149 0-4.492-0.546-6.962-1.605-2.86-1.23-5.849-1.853-8.882-1.853-2.66 0-5.197 0.464-7.478 1.309l-0.005 13.541c1.919-0.406 3.924-0.617 5.987-0.617z"></path>
</svg>
