<!-- Generated by IcoMoon.io -->
<svg version="1.1" xmlns="http://www.w3.org/2000/svg" width="32" height="32" viewBox="0 0 32 32">
<title>icon__magnify</title>
<path d="M31.281 27.071l-7.654-7.654c1.154-1.894 1.819-4.122 1.819-6.501 0-6.921-5.997-12.916-12.918-12.916-6.921-0.002-12.529 5.608-12.529 12.529 0 6.919 5.997 12.916 12.916 12.916 2.303 0 4.456-0.626 6.309-1.709l7.694 7.698c0.753 0.751 1.975 0.751 2.726 0l1.91-1.91c0.751-0.751 0.478-1.701-0.273-2.453zM3.856 12.529c0-4.792 3.883-8.675 8.673-8.675 4.792 0 9.061 4.267 9.061 9.061 0 4.79-3.885 8.675-8.675 8.675-4.792-0.002-9.059-4.271-9.059-9.061z"></path>
</svg>
