<!-- Generated by IcoMoon.io -->
<svg version="1.1" xmlns="http://www.w3.org/2000/svg" width="32" height="32" viewBox="0 0 32 32">
<title>icon__magnify--small</title>
<path d="M22.708 20.997l-3.109-3.109c0.469-0.769 0.739-1.674 0.739-2.641 0-2.812-2.436-5.247-5.248-5.247s-5.090 2.278-5.090 5.090c0 2.811 2.436 5.247 5.247 5.247 0.936 0 1.81-0.254 2.563-0.694l3.126 3.127c0.306 0.305 0.802 0.305 1.108 0l0.776-0.776c0.305-0.305 0.194-0.691-0.111-0.996zM11.567 15.090c0-1.947 1.577-3.524 3.523-3.524s3.681 1.734 3.681 3.681c0 1.946-1.578 3.524-3.524 3.524s-3.68-1.735-3.68-3.681z"></path>
</svg>
