<!-- Generated by IcoMoon.io -->
<svg version="1.1" xmlns="http://www.w3.org/2000/svg" width="32" height="32" viewBox="0 0 32 32">
<title>icon__calculator--small</title>
<path d="M24 24v-14h-14v14h14zM8 24.005v-14.010c0-1.102 0.893-1.995 1.995-1.995h14.010c1.102 0 1.995 0.893 1.995 1.995v14.010c0 1.102-0.893 1.995-1.995 1.995h-14.010c-1.102 0-1.995-0.893-1.995-1.995zM12 16v2h2v-2h-2zM12 20v2h2v-2h-2zM16 16v2h2v-2h-2zM16 20v2h2v-2h-2zM20 16v2h2v-2h-2zM20 20v2h2v-2h-2zM10 12v2h14v-2h-14z"></path>
</svg>
