<!-- Generated by IcoMoon.io -->
<svg version="1.1" xmlns="http://www.w3.org/2000/svg" width="32" height="32" viewBox="0 0 32 32">
<title>icon__list</title>
<path d="M6.5 9c-1.381 0-2.5-1.119-2.5-2.5s1.119-2.5 2.5-2.5c1.381 0 2.5 1.119 2.5 2.5s-1.119 2.5-2.5 2.5zM6.5 17c-1.381 0-2.5-1.119-2.5-2.5s1.119-2.5 2.5-2.5c1.381 0 2.5 1.119 2.5 2.5s-1.119 2.5-2.5 2.5zM6.5 25.5c-1.381 0-2.5-1.119-2.5-2.5s1.119-2.5 2.5-2.5c1.381 0 2.5 1.119 2.5 2.5s-1.119 2.5-2.5 2.5zM12 7c0-0.552 0.448-1 1.001-1h13.258c0.553 0 1.001 0.449 1.001 1 0 0.552-0.448 1-1.001 1h-13.258c-0.553 0-1.001-0.449-1.001-1zM12 15c0-0.552 0.448-1 1.001-1h13.258c0.553 0 1.001 0.449 1.001 1 0 0.552-0.448 1-1.001 1h-13.258c-0.553 0-1.001-0.449-1.001-1zM12 23c0-0.552 0.448-1 1.001-1h13.258c0.553 0 1.001 0.449 1.001 1 0 0.552-0.448 1-1.001 1h-13.258c-0.553 0-1.001-0.449-1.001-1z"></path>
</svg>
