<svg id="Layer_1" data-name="Layer 1" xmlns="http://www.w3.org/2000/svg" xmlns:xlink="http://www.w3.org/1999/xlink" viewBox="0 0 96 96"><defs><style>.cls-1,.cls-2{fill:none;}.cls-1{clip-rule:evenodd;}.cls-3{clip-path:url(#clip-path);}.cls-4{clip-path:url(#clip-path-2);}.cls-5{fill:#4a4a4a;}</style><clipPath id="clip-path"><path class="cls-1" d="M33.86,84v-.32A25.55,25.55,0,0,0,46.54,61.83a34.6,34.6,0,0,0-.9-7.27H71.13V43.81h-29c-1.87-5.15-3.54-10.3-3.54-15.64C38.62,18.64,46.41,13,59.54,13c7.27,0,15.19,1.61,18.73,3.41v-12C74,2.42,66.11,1,58.26,1,36.75,1,24,10.78,24,27.33,24,33,25.87,38.4,27.93,43.81H13.06V54.56H31.6a33.59,33.59,0,0,1,1.09,8c0,10.49-8.24,19.7-19.7,22V96.15H82.78V84Z"/></clipPath><clipPath id="clip-path-2"><rect class="cls-2" width="96" height="96"/></clipPath></defs><title>Artboard 1</title><g class="cls-3"><g class="cls-4"><rect class="cls-5" x="8" y="-4" width="79.78" height="105.15"/></g></g></svg>