<!-- Generated by IcoMoon.io -->
<svg version="1.1" xmlns="http://www.w3.org/2000/svg" width="32" height="32" viewBox="0 0 32 32">
<title>icon__tick-outlined</title>
<path d="M6.225 14.627l-4.225 4.286 8.958 9.087 19.042-19.763-4.273-4.237-14.818 15.379-4.684-4.751zM24.287 2.612c0.774-0.803 2.056-0.818 2.848-0.033l4.273 4.237c0.776 0.77 0.791 2.021 0.032 2.808l-19.042 19.763c-0.78 0.81-2.075 0.817-2.865 0.016l-8.958-9.087c-0.768-0.779-0.768-2.029 0-2.808l4.225-4.286c0.783-0.795 2.065-0.795 2.849 0l3.243 3.29 13.394-13.901z"></path>
</svg>
