<svg id="Layer_1" data-name="Layer 1" xmlns="http://www.w3.org/2000/svg" xmlns:xlink="http://www.w3.org/1999/xlink" viewBox="0 0 96 96"><defs><style>.cls-1{fill:none;}.cls-2{clip-path:url(#clip-path);}.cls-3{clip-path:url(#clip-path-2);}.cls-4{fill:#4a4a4a;}</style><clipPath id="clip-path"><path class="cls-1" d="M74.32,7.36a2.53,2.53,0,0,1,.78.32A12.2,12.2,0,0,1,77.2,9.2a35.56,35.56,0,0,1,3.4,3.46C81.75,14,82.89,15.41,84,16.85c.38.51.71,1,1,1.4l.37.53A4.13,4.13,0,0,1,86,21a2,2,0,0,1-.48,1.52c-1.2.92-15.07,10.66-16.73,11.76-.53.36-1.77.28-3.3-.57-1.05-.58-4-2.33-7.36-4.34l-1.93-1.16-1.82,1.34A106.58,106.58,0,0,0,41.46,41.5,108.74,108.74,0,0,0,30.11,55.1L28.83,57l1.1,2c2,3.67,3.59,6.64,4.14,7.74a6.05,6.05,0,0,1,.7,2.6,1.84,1.84,0,0,1-.17.89C33.69,71.82,24.43,86.5,23.41,88c-.48.72-2,.92-3.58-.22A67,67,0,0,1,14,82.72c-3.09-3-5-5.77-5-6.72.35-11.55,9.93-26.62,24.94-42.41S63.27,7.73,74.32,7.36ZM74.1,0C60.67.45,45.21,11.34,29,28.39S2.43,61.71,2,75.89c0,3.92,2.67,7.74,7.22,12.21a72.43,72.43,0,0,0,6.65,5.77c4.53,3.34,10.47,2.58,13.26-1.62,1.1-1.64,10.44-16.45,11.43-18.15a9.37,9.37,0,0,0,1.2-4.73,13.62,13.62,0,0,0-1.51-6c-.61-1.21-2.2-4.18-4.25-8l-3,1.83,2.86,2.12A102.08,102.08,0,0,1,46.41,46.71a100.07,100.07,0,0,1,12-11.12l-2-3-1.73,3.2c3.46,2.08,6.41,3.83,7.56,4.46,3.56,2,7.4,2.22,10.31.27,1.77-1.17,15.75-11,17.08-12A9.27,9.27,0,0,0,93,21a11.79,11.79,0,0,0-1.94-6.46c-.36-.53-.88-1.27-1.59-2.23C88.3,10.74,87,9.16,85.75,7.67a42.44,42.44,0,0,0-4.11-4.16C79,1.22,76.58-.08,74.1,0Z"/></clipPath><clipPath id="clip-path-2"><rect class="cls-1" x="-1" width="96" height="96"/></clipPath></defs><title>Artboard 1</title><g class="cls-2"><g class="cls-3"><rect class="cls-4" x="-3" y="-5" width="101" height="105.96"/></g></g></svg>