<?xml version="1.0" standalone="no"?>
<!DOCTYPE svg PUBLIC "-//W3C//DTD SVG 1.1//EN" "http://www.w3.org/Graphics/SVG/1.1/DTD/svg11.dtd" >
<svg xmlns="http://www.w3.org/2000/svg" xmlns:xlink="http://www.w3.org/1999/xlink" version="1.1">
<metadata></metadata>
<defs>
<font id="cyb_houschka_alt_probold" horiz-adv-x="1310" >
<font-face units-per-em="2048" ascent="1556" descent="-492" />
<missing-glyph horiz-adv-x="530" />
<glyph unicode="&#xfb01;" horiz-adv-x="1089" d="M25 758v149q0 13 9 22t21 9h105v106q0 155 71 246q92 121 283 121q92 0 176 -24.5t139 -65.5q26 -18 13 -41l-68 -143q-18 -25 -47 -9q-88 56 -152 56q-71 -3 -108 -43t-37 -127v-76h526q12 0 21.5 -9t9.5 -22v-876q0 -12 -9.5 -21.5t-21.5 -9.5h-208q-12 0 -21.5 9.5 t-9.5 21.5v694h-287v-694q0 -12 -9.5 -21.5t-21.5 -9.5h-209q-12 0 -21 9.5t-9 21.5v694h-105q-12 0 -21 10t-9 23z" />
<glyph unicode="&#xfb02;" horiz-adv-x="1089" d="M25 758v149q0 13 9 22t21 9h105v109q0 80 20.5 143t67 114.5t131 79t203.5 27.5q103 0 209.5 -23.5t164.5 -50.5q33 -11 33 -43v-1263q0 -12 -10 -21.5t-23 -9.5h-208q-12 0 -21.5 9.5t-9.5 21.5v1087q0 26 -19 37q-48 31 -120 31q-148 0 -148 -180v-68h172q14 0 23.5 -9 t9.5 -22v-149q0 -14 -9.5 -23.5t-23.5 -9.5h-172v-694q0 -12 -9.5 -21.5t-21.5 -9.5h-209q-12 0 -21 9.5t-9 21.5v694h-105q-12 0 -21 10t-9 23z" />
<glyph unicode="&#xfb03;" horiz-adv-x="1697" d="M25 758v149q0 13 9 22t21 9h105v88q0 185 88 281q81 84 217 84q168 0 285 -86q23 -17 12 -39l-62 -133q-14 -26 -47 -11q-59 41 -118 41q-55 0 -80 -39q-25 -40 -25 -118v-68h338v106q0 151 74 246q92 121 282 121q92 0 176.5 -24.5t139.5 -65.5q23 -16 12 -41l-70 -143 q-6 -11 -18.5 -13.5t-26.5 4.5q-88 56 -151 56q-72 -3 -109 -43t-37 -127v-76h527q12 0 21 -9t9 -22v-876q0 -12 -9 -21.5t-21 -9.5h-209q-13 0 -23 9.5t-10 21.5v694h-285v-694q0 -12 -9 -21.5t-21 -9.5h-209q-13 0 -23 9.5t-10 21.5v694h-338v-694q0 -12 -9.5 -21.5 t-21.5 -9.5h-209q-12 0 -21 9.5t-9 21.5v694h-105q-12 0 -21 10t-9 23z" />
<glyph unicode="&#xfb04;" horiz-adv-x="1699" d="M25 758v149q0 13 9 22t21 9h105v88q0 185 88 281q81 84 217 84q168 0 285 -86q23 -17 12 -39l-62 -133q-14 -26 -47 -11q-59 41 -118 41q-55 0 -80 -39q-25 -40 -25 -118v-68h338v109q0 80 20.5 143t67 114.5t131 79t203.5 27.5q104 0 210.5 -23.5t166.5 -50.5 q30 -12 30 -43v-1263q0 -12 -9 -21.5t-21 -9.5h-209q-12 0 -21.5 9.5t-9.5 21.5v1087q0 25 -18 37q-51 31 -121 31q-148 0 -148 -180v-68h172q12 0 21.5 -9t9.5 -22v-149q0 -13 -9.5 -23t-21.5 -10h-172v-694q0 -12 -9 -21.5t-21 -9.5h-209q-13 0 -23 9.5t-10 21.5v694h-338 v-694q0 -12 -9.5 -21.5t-21.5 -9.5h-209q-12 0 -21 9.5t-9 21.5v694h-105q-12 0 -21 10t-9 23z" />
<glyph horiz-adv-x="0" />
<glyph horiz-adv-x="682" />
<glyph unicode=" "  horiz-adv-x="530" />
<glyph unicode="&#x09;" horiz-adv-x="530" />
<glyph unicode="&#xa0;" horiz-adv-x="530" />
<glyph unicode="!" horiz-adv-x="581" d="M133 1364q-2 12 5.5 21.5t19.5 9.5h280q13 0 21 -9.5t6 -21.5l-74 -875q-2 -14 -11 -22t-22 -8h-118q-13 0 -22 8t-11 22zM137 143q0 69 46.5 115.5t115.5 46.5q68 0 115 -46.5t47 -115.5q0 -67 -47 -114t-115 -47q-69 0 -115.5 46.5t-46.5 114.5z" />
<glyph unicode="&#x22;" horiz-adv-x="708" d="M41 1348q-3 47 37 47h190q40 0 37 -47l-43 -383q-3 -45 -43 -45h-92q-37 0 -43 45zM399 1348q-6 47 35 47h193q41 0 35 -47l-41 -383q-6 -45 -46 -45h-90q-39 0 -45 45z" />
<glyph unicode="#" horiz-adv-x="1390" d="M0 231v150q0 12 9.5 21.5t21.5 9.5h274l60 278h-236q-13 0 -23 10t-10 23v149q0 12 10 21.5t23 9.5h279l71 332q9 31 47 31h136q39 0 28 -47l-67 -316h290l72 332q3 14 16 22.5t29 8.5h137q39 0 29 -47l-68 -316h232q12 0 21.5 -9.5t9.5 -21.5v-149q0 -13 -9.5 -23 t-21.5 -10h-275l-59 -278h236q13 0 22.5 -9.5t9.5 -21.5v-150q0 -13 -9 -22.5t-23 -9.5h-281l-70 -332q-9 -31 -47 -31h-137q-37 0 -29 47l68 316h-291l-69 -332q-9 -31 -46 -31h-137q-22 0 -27.5 11.5t-2.5 35.5l67 316h-229q-12 0 -21.5 9.5t-9.5 22.5zM520 412h291 l59 278h-290z" />
<glyph unicode="$" horiz-adv-x="1161" d="M90 141l88 183q10 28 37 10q60 -35 98 -55t109.5 -41t140.5 -21q102 0 150 39q55 40 55 111q0 55 -41.5 89t-122.5 64q-27 10 -102.5 32t-132.5 45t-107 54q-78 51 -121 120.5t-43 174.5q0 171 138 275q107 80 278 94v147q0 12 9.5 21.5t21.5 9.5h80q13 0 21.5 -9.5 t8.5 -21.5v-145q200 -12 355 -96q26 -13 12 -37l-86 -187q-14 -24 -39 -10q-162 94 -319 94q-94 0 -140 -32q-49 -32 -49 -91q0 -50 41 -80.5t125 -58.5q28 -9 88 -26t98 -28.5t88.5 -33.5t88.5 -49q151 -107 151 -293q0 -182 -145 -301q-106 -83 -269 -102v-142 q0 -12 -8.5 -21t-21.5 -9h-80q-12 0 -21.5 9t-9.5 21v138q-232 10 -412 120q-24 14 -12 39z" />
<glyph unicode="%" horiz-adv-x="1480" d="M37 1108q0 127 90 216t225 89t225.5 -89t90.5 -216t-90.5 -216t-225.5 -89t-225 89t-90 216zM184 13q-6 13 4 26l852 1329q16 27 45 27h187q21 0 25.5 -13t-5.5 -28l-852 -1329q-14 -25 -43 -25h-188q-19 0 -25 13zM211 1108q0 -57 40.5 -97t100.5 -40t101 40t41 97 t-41 97t-101 40t-100.5 -40t-40.5 -97zM813 285q0 127 90 216t225 89t225.5 -89t90.5 -216t-90.5 -216t-225.5 -89t-225 89t-90 216zM987 285q0 -57 40.5 -97.5t100.5 -40.5q59 0 100.5 40.5t41.5 97.5t-41.5 97t-100.5 40q-60 0 -100.5 -40t-40.5 -97z" />
<glyph unicode="&#x26;" horiz-adv-x="1366" d="M63 393q0 236 285 389q-31 60 -52.5 138t-21.5 141q0 151 98 238t279 87q163 0 255.5 -87.5t92.5 -221.5q0 -124 -75.5 -212t-221.5 -167q88 -142 209 -254q37 72 37 199q0 15 9.5 25t21.5 10h195q15 0 23.5 -10t8.5 -25q0 -201 -80 -340q71 -43 154 -53q19 -4 26 -13 t7 -28v-201q0 -13 -10.5 -20.5t-26.5 -7.5q-151 0 -330 110q-158 -110 -389 -110q-103 0 -190 24t-156 72.5t-108.5 129.5t-39.5 187zM338 389q0 -101 65 -150t179 -49q99 0 170 50q-164 143 -293 331q-121 -76 -121 -182zM545 1061q0 -75 45 -160q67 36 109 82t42 98 q0 46 -25 73.5t-67 27.5q-49 0 -76.5 -32.5t-27.5 -88.5z" />
<glyph unicode="'" horiz-adv-x="350" d="M41 1348q-3 47 37 47h190q40 0 37 -47l-43 -383q-3 -45 -43 -45h-92q-37 0 -43 45z" />
<glyph unicode="(" horiz-adv-x="651" d="M70 649q0 264 62.5 502t176.5 424q26 39 70 39h186q35 0 44.5 -20t-5.5 -48q-246 -448 -246 -897t246 -893q15 -28 5.5 -47.5t-44.5 -19.5h-186q-44 0 -70 39q-114 186 -176.5 422t-62.5 499z" />
<glyph unicode=")" horiz-adv-x="651" d="M41.5 -291.5q-9.5 19.5 5.5 47.5q246 444 246 893t-246 897q-15 28 -5.5 48t44.5 20h186q44 0 70 -39q114 -186 177 -424.5t63 -501.5t-62.5 -499t-177.5 -422q-26 -39 -70 -39h-186q-35 0 -44.5 19.5z" />
<glyph unicode="*" horiz-adv-x="827" d="M70 1233q11 36 40 47.5t64 1.5q20 -5 70 -27l106 -45l-10 117q-1 8 -2.5 23.5t-2.5 28t-1 22.5q0 36 21 60t59 24t59 -24t21 -60q0 -13 -3 -40t-4 -34l-10 -117l107 45q63 25 69 27q35 10 64.5 -1.5t40.5 -47.5q11 -37 -4.5 -63.5t-48.5 -36.5q-15 -5 -43.5 -11.5 t-30.5 -7.5l-115 -24l80 -89q37 -41 47 -55q22 -27 19.5 -60t-31.5 -55q-34 -23 -63.5 -17t-51.5 34q-18 23 -39 63l-63 103l-62 -103q-27 -45 -41 -63q-22 -28 -50.5 -34t-63.5 17q-30 24 -32 56t19 59q10 14 47 55l80 89l-114 24q-2 1 -30.5 7.5t-43.5 11.5 q-33 10 -48.5 36.5t-4.5 63.5z" />
<glyph unicode="+" horiz-adv-x="1128" d="M61 627v192q0 12 9.5 21.5t21.5 9.5h344v344q0 12 9 21.5t22 9.5h192q12 0 21.5 -9.5t9.5 -21.5v-344h344q13 0 23 -9.5t10 -21.5v-192q0 -13 -9.5 -22t-23.5 -9h-344v-346q0 -12 -9.5 -21.5t-21.5 -9.5h-192q-13 0 -22 9.5t-9 21.5v346h-344q-12 0 -21.5 9t-9.5 22z" />
<glyph unicode="," horiz-adv-x="501" d="M70 147q0 71 46 114.5t122 43.5q94 0 143.5 -60.5t52.5 -166.5q1 -116 -83.5 -221.5t-200.5 -139.5q-31 -8 -46 13l-26 43q-17 25 8 43q27 19 37 26t32 26t31 37.5t9 39.5q0 23 -13 39.5t-31.5 29t-36.5 27t-31 41.5t-13 65z" />
<glyph unicode="-" horiz-adv-x="956" d="M135 477v193q0 13 9.5 22.5t21.5 9.5h625q12 0 21 -9.5t9 -22.5v-193q0 -12 -9 -21.5t-21 -9.5h-625q-12 0 -21.5 9.5t-9.5 21.5z" />
<glyph unicode="." horiz-adv-x="460" d="M68 141q0 69 46.5 116.5t114.5 47.5t115 -47.5t47 -116.5q0 -67 -47 -114t-115 -47q-67 0 -114 47t-47 114z" />
<glyph unicode="/" horiz-adv-x="897" d="M-48 13q-8 13 1 32l676 1319q17 31 45 31h231q23 0 31 -14t-2 -33l-674 -1317q-16 -31 -47 -31h-231q-22 0 -30 13z" />
<glyph unicode="0" horiz-adv-x="1179" d="M61 696q0 353 136 536t395 183q257 0 392.5 -183t135.5 -536q0 -352 -135.5 -534t-392.5 -182q-259 0 -395 182t-136 534zM352 696q0 -229 66 -346q58 -102 174 -102q114 0 172 102q63 111 63 346t-63 346q-59 103 -172 103t-172 -103q-68 -115 -68 -346z" />
<glyph unicode="1" horiz-adv-x="1144" d="M135 31v192q0 12 9.5 21.5t21.5 9.5h295v850l-279 -98q-22 -7 -32.5 -0.5t-10.5 32.5v189q0 35 31 45l350 121q40 12 66 12h139q13 0 22 -9.5t9 -21.5v-1120h276q12 0 21.5 -9.5t9.5 -21.5v-192q0 -12 -9.5 -21.5t-21.5 -9.5h-866q-12 0 -21.5 9.5t-9.5 21.5z" />
<glyph unicode="2" horiz-adv-x="1150" d="M96 31v102q0 149 35.5 246.5t118.5 179.5q59 59 142 107t164 90.5t128 83.5q78 68 78 159q0 72 -47 119q-51 51 -148 51q-150 0 -319 -116q-37 -21 -49 6l-82 168q-11 23 12 41q106 68 212.5 106.5t250.5 38.5q106 0 195.5 -36.5t150.5 -102.5q100 -108 100 -266 q0 -191 -143 -324q-59 -55 -138 -100t-153.5 -84.5t-120.5 -79.5q-38 -32 -54.5 -70t-16.5 -96h585q13 0 23 -9.5t10 -21.5v-192q0 -12 -10 -21.5t-23 -9.5h-870q-13 0 -22 9.5t-9 21.5z" />
<glyph unicode="3" horiz-adv-x="1132" d="M102 127l82 168q13 26 43 6q75 -51 138.5 -70.5t134.5 -19.5q90 0 143 35q76 49 76 153q0 109 -94 162q-60 35 -181 35h-90q-12 0 -21 9t-9 22v166q0 13 9 22.5t21 9.5h68q112 0 176 35q82 52 82 152q0 72 -53 116q-48 41 -117 41q-124 0 -264 -94q-33 -23 -47 6l-80 160 q-14 29 12 45q90 59 183.5 93t217.5 34q170 0 281 -90q63 -51 96 -122.5t33 -153.5q0 -66 -18.5 -123.5t-65 -110t-119.5 -84.5q254 -94 254 -356q0 -190 -141 -297q-130 -96 -332 -96q-239 0 -407 106q-25 19 -11 41z" />
<glyph unicode="4" horiz-adv-x="1198" d="M37 299v168q0 29 18 55l607 848q19 29 53 29h196q12 0 21.5 -10t9.5 -23v-856h176q12 0 21.5 -10t9.5 -23v-178q0 -13 -9.5 -22t-21.5 -9h-176v-237q0 -12 -9.5 -21.5t-21.5 -9.5h-221q-12 0 -21.5 9.5t-9.5 21.5v237h-591q-12 0 -21.5 9t-9.5 22zM346 510h313v444z" />
<glyph unicode="5" horiz-adv-x="1144" d="M106 139l78 166q15 27 39 10q83 -55 145 -79.5t156 -24.5q114 0 174 72q60 66 60 172q0 117 -53 176q-57 63 -158 63q-81 0 -131 -37q-53 -31 -78 -77q-16 -26 -43 -17l-135 27q-21 4 -27 13t-4 34l49 727q2 13 11 22t22 9h731q12 0 21.5 -9.5t9.5 -21.5v-193 q0 -13 -9.5 -22.5t-21.5 -9.5h-516l-20 -258q23 14 83 32q50 13 99 13q238 0 352 -142q104 -122 104 -327q0 -198 -124 -328q-140 -149 -396 -149q-244 0 -405 116q-27 17 -13 43z" />
<glyph unicode="6" horiz-adv-x="1163" d="M76 641q0 371 153 573q153 199 430 199q121 0 224 -27q82 -22 164 -73q26 -14 12 -39l-84 -176q-13 -30 -45 -11q-55 31 -123 54q-71 22 -152 22q-142 0 -219 -125q-54 -85 -61 -233q49 42 108 63q74 29 154 29q229 0 348 -145q98 -116 98 -306q0 -105 -38 -194 t-105 -150q-134 -122 -344 -122q-248 0 -375 149q-145 164 -145 512zM362 547q3 -83 20.5 -144t40.5 -94.5t55.5 -53t59 -25t58.5 -5.5q91 0 148 60.5t57 152.5q0 111 -57.5 162t-141.5 51q-150 0 -240 -104z" />
<glyph unicode="7" horiz-adv-x="1153" d="M82 973v391q0 12 9.5 21.5t21.5 9.5h905q13 0 22 -9.5t9 -21.5v-170q0 -31 -13 -61l-506 -1102q-13 -31 -51 -31h-243q-25 0 -31 15.5t4 35.5l366 748q35 70 193 340h-430v-166q0 -12 -9.5 -21.5t-21.5 -9.5h-194q-12 0 -21.5 9.5t-9.5 21.5z" />
<glyph unicode="8" horiz-adv-x="1175" d="M68 365q0 73 23 133t66 104.5t86.5 74.5t100.5 58q-40 26 -64 43.5t-57.5 49.5t-52.5 62.5t-33 75t-14 95.5q0 72 26 131.5t70.5 100t104 68t125.5 40t137 12.5q66 0 130 -12t125.5 -39.5t108 -67t75 -100.5t28.5 -135q0 -65 -18 -118t-54 -92.5t-65.5 -62.5t-75.5 -51 q53 -33 84 -54t71 -56t61 -68.5t36.5 -81.5t15.5 -104q0 -178 -137.5 -284.5t-382.5 -106.5q-250 0 -385 104t-135 281zM356 389q0 -78 55.5 -134t176.5 -56t178 54.5t57 135.5q0 70 -63 122t-185 103q-219 -87 -219 -225zM408 1059q0 -39 17 -72t50.5 -59t60.5 -41t70 -35 q164 81 164 195q0 72 -51.5 112.5t-126.5 40.5q-78 0 -131 -33t-53 -108z" />
<glyph unicode="9" horiz-adv-x="1163" d="M76 944q0 105 38 194t105 150q135 123 344 123q248 0 375 -149q145 -164 145 -512q0 -372 -153 -574q-153 -199 -430 -199q-121 0 -224 27q-77 21 -163 74q-27 15 -13 39l84 176q13 29 45 10q50 -28 123 -53q74 -23 152 -23q142 0 219 125q54 85 61 234q-51 -44 -108 -64 q-72 -28 -154 -28q-229 0 -348 145q-98 116 -98 305zM358 952q0 -59 16.5 -102.5t45.5 -67t62.5 -34.5t72.5 -11q134 0 240 109q-10 319 -232 319q-92 0 -148.5 -61.5t-56.5 -151.5z" />
<glyph unicode=":" horiz-adv-x="473" d="M74 141q0 69 48 116.5t116 47.5t114.5 -47.5t46.5 -116.5q0 -67 -46.5 -114t-114.5 -47t-116 47t-48 114zM74 793q0 67 48 115t116 48q67 0 114 -47.5t47 -115.5t-47 -115t-114 -47q-68 0 -116 47.5t-48 114.5z" />
<glyph unicode=";" horiz-adv-x="475" d="M76 147q0 71 45.5 114.5t120.5 43.5q96 0 145 -60.5t51 -166.5q3 -116 -81.5 -221.5t-200.5 -139.5q-30 -8 -45 13l-27 43q-17 25 8 43q27 19 37 26t32 26t31 37.5t9 39.5q0 23 -13 39.5t-31.5 29t-36.5 27t-31 41.5t-13 65zM90 793q0 68 47.5 115.5t114.5 47.5 t114.5 -47.5t47.5 -115.5q0 -67 -47 -114.5t-115 -47.5t-115 47.5t-47 114.5z" />
<glyph unicode="&#x3c;" horiz-adv-x="1226" d="M70 596v254q0 37 30 47l1002 389q43 14 43 -24v-226q0 -40 -33 -51l-735 -262l735 -262q33 -11 33 -51v-226q0 -38 -43 -24l-1002 387q-30 10 -30 49z" />
<glyph unicode="=" horiz-adv-x="1128" d="M61 387v193q0 12 9.5 21t21.5 9h942q13 0 23 -9t10 -21v-193q0 -12 -10 -21.5t-23 -9.5h-942q-12 0 -21.5 9.5t-9.5 21.5zM61 862v193q0 12 9.5 21t21.5 9h942q13 0 23 -9t10 -21v-193q0 -12 -10 -21.5t-23 -9.5h-942q-12 0 -21.5 9.5t-9.5 21.5z" />
<glyph unicode="&#x3e;" horiz-adv-x="1230" d="M80 184v226q0 40 35 51l735 262l-735 262q-35 11 -35 51v226q0 21 15.5 26t27.5 -2l1003 -389q17 -6 24 -16.5t7 -30.5v-254q0 -38 -31 -49l-1003 -387q-12 -7 -27.5 -2t-15.5 26z" />
<glyph unicode="?" horiz-adv-x="1032" d="M47 1190q-9 20 14 43q217 182 469 182q194 0 322 -115q125 -112 125 -282q0 -107 -48 -183t-159 -153q-92 -63 -121.5 -111.5t-36.5 -121.5q0 -14 -12 -23.5t-25 -9.5h-143q-25 0 -41 28q-22 53 -22 109q0 87 86 184q22 23 47 45t71 59.5t60 49.5q69 58 69 127 q0 73 -53 117q-54 41 -131 41q-94 0 -173.5 -38.5t-178.5 -115.5q-9 -6 -22 -3t-17 15zM334 141q0 69 47 116.5t115 47.5q69 0 115 -47.5t46 -116.5q0 -68 -46 -114.5t-115 -46.5q-68 0 -115 47t-47 114z" />
<glyph unicode="@" horiz-adv-x="1587" d="M68 694q0 146 61 279.5t163.5 230t244.5 154t297 57.5q142 0 267 -42.5t218 -119.5t147 -192.5t54 -253.5q0 -208 -99.5 -328.5t-273.5 -120.5q-118 0 -172 74h-6q-85 -74 -221 -74q-98 0 -154 50q-64 54 -64 147q0 114 123 168q87 38 256 51v10q0 56 -20 76 q-25 31 -78 31q-80 0 -178 -55q-24 -12 -33 8l-39 88q-11 18 8 29q48 29 119 48t146 19q139 0 206 -72q56 -62 56 -170v-188q0 -46 20 -70t53 -24q71 -2 115.5 69.5t44.5 214.5q0 139 -66.5 242t-178.5 155t-253 52q-155 0 -287.5 -74t-210 -200t-77.5 -273 q0 -258 163.5 -402t434.5 -147q266 -3 451 103q12 6 22.5 3t15.5 -14l46 -116q9 -23 -17 -39q-95 -54 -251 -85.5t-300 -31.5q-341 3 -547 200.5t-206 532.5zM711 563q0 -37 26 -57q24 -19 70 -19q56 0 102 43v125q-88 -5 -131 -18q-67 -21 -67 -74z" />
<glyph unicode="A" d="M6 25q0 4 4 20l477 1323q8 33 50 33h243q41 0 49 -33l471 -1323l5 -20q0 -25 -29 -25h-236q-43 0 -51 35l-84 248h-506l-84 -248q-11 -35 -51 -35h-229q-29 0 -29 25zM473 518h361l-179 524z" />
<glyph unicode="B" horiz-adv-x="1202" d="M98 31v1333q0 12 10 21.5t23 9.5h422q219 0 340 -88q135 -100 135 -267q0 -106 -44.5 -182.5t-129.5 -114.5v-8q289 -68 289 -358q0 -94 -40 -168t-107 -118.5t-148.5 -67.5t-171.5 -23h-545q-13 0 -23 9.5t-10 21.5zM393 240h219q85 0 131 20q99 43 99 156 q0 105 -97 149q-51 25 -174 25h-178v-350zM393 827h139q76 0 121 21q78 40 78 141q0 89 -63 133q-47 33 -117 33h-158v-328z" />
<glyph unicode="C" horiz-adv-x="1288" d="M59 698q0 200 99.5 364.5t270.5 257.5t378 93q234 0 422 -96q25 -15 14 -43l-94 -197q-12 -19 -41 -12q-157 82 -307 82q-179 0 -305.5 -129.5t-126.5 -319.5q0 -198 124 -324t310 -126q163 0 317 82q27 12 37 -11l94 -200q12 -27 -14 -39q-198 -100 -436 -100 q-339 0 -540.5 194.5t-201.5 523.5z" />
<glyph unicode="D" horiz-adv-x="1456" d="M98 31v1333q0 12 10 21.5t23 9.5h522q180 0 321.5 -46.5t254.5 -166.5q168 -180 168 -484q0 -198 -76 -353t-236 -245q-179 -100 -458 -100h-496q-13 0 -23 9.5t-10 21.5zM393 248h213q168 0 281 55q209 105 209 395q0 205 -107 318q-122 131 -377 131h-219v-899z" />
<glyph unicode="E" horiz-adv-x="1204" d="M98 31v1333q0 12 10 21.5t23 9.5h987q13 0 23 -9.5t10 -21.5v-201q0 -12 -10 -21t-23 -9h-725v-302h619q12 0 21 -9t9 -21v-199q0 -13 -9 -23t-21 -10h-619v-309h725q14 0 23.5 -9t9.5 -22v-198q0 -12 -10 -21.5t-23 -9.5h-987q-13 0 -23 9.5t-10 21.5z" />
<glyph unicode="F" horiz-adv-x="1132" d="M98 31v1333q0 12 10 21.5t23 9.5h928q12 0 21.5 -9.5t9.5 -21.5v-201q0 -12 -9.5 -21t-21.5 -9h-666v-302h574q12 0 21 -9t9 -21v-199q0 -13 -9 -23t-21 -10h-574v-538q0 -12 -9 -21.5t-22 -9.5h-231q-13 0 -23 9.5t-10 21.5z" />
<glyph unicode="G" horiz-adv-x="1468" d="M59 698q0 149 59 282.5t159.5 228t238.5 149.5t291 55q234 0 422 -96q25 -15 14 -43l-94 -197q-14 -22 -41 -12q-64 28 -94.5 40.5t-92 27t-120.5 14.5q-182 0 -308 -130t-126 -319q0 -200 120.5 -328t313.5 -128q84 0 163 22.5t134 57.5v170h-283q-12 0 -21.5 9t-9.5 21 v201q0 12 9.5 21.5t21.5 9.5h531q13 0 21.5 -9.5t8.5 -21.5v-692q0 -12 -8.5 -21.5t-21.5 -9.5h-218q-12 0 -21 9.5t-9 21.5v24q-137 -75 -328 -75q-150 0 -279 47t-225.5 136t-151.5 226.5t-55 308.5z" />
<glyph unicode="H" horiz-adv-x="1419" d="M98 31v1333q0 12 10 21.5t23 9.5h231q13 0 22 -9.5t9 -21.5v-533h635v533q0 12 9.5 21.5t21.5 9.5h233q12 0 21.5 -9.5t9.5 -21.5v-1333q0 -12 -9.5 -21.5t-21.5 -9.5h-233q-12 0 -21.5 9.5t-9.5 21.5v540h-635v-540q0 -12 -9 -21.5t-22 -9.5h-231q-13 0 -23 9.5 t-10 21.5z" />
<glyph unicode="I" horiz-adv-x="489" d="M98 31v1333q0 12 10 21.5t23 9.5h231q13 0 22 -9.5t9 -21.5v-1333q0 -12 -9 -21.5t-22 -9.5h-231q-13 0 -23 9.5t-10 21.5z" />
<glyph unicode="J" horiz-adv-x="1048" d="M23 160l108 184q7 10 17.5 12t23.5 -8q121 -108 244 -108q112 0 172 57q69 69 69 235v832q0 12 9.5 21.5t21.5 9.5h234q12 0 21 -9.5t9 -21.5v-858q0 -280 -168 -416q-136 -110 -364 -110q-111 0 -212.5 37t-178.5 100q-23 16 -6 43z" />
<glyph unicode="K" horiz-adv-x="1294" d="M98 31v1333q0 12 10 21.5t23 9.5h231q13 0 22 -9.5t9 -21.5v-530l481 530q28 31 64 31h297q21 0 26 -15t-12 -32l-536 -557l553 -738q15 -17 12 -35t-29 -18h-274q-38 0 -60 31l-409 542l-113 -114v-428q0 -12 -9 -21.5t-22 -9.5h-231q-13 0 -23 9.5t-10 21.5z" />
<glyph unicode="L" horiz-adv-x="1054" d="M98 31v1333q0 12 10 21.5t23 9.5h231q13 0 22 -9.5t9 -21.5v-1104h596q14 0 23.5 -9t9.5 -22v-198q0 -12 -10 -21.5t-23 -9.5h-858q-13 0 -23 9.5t-10 21.5z" />
<glyph unicode="M" horiz-adv-x="1638" d="M98 31v1333q0 12 10 21.5t23 9.5h234q21 0 33.5 -6.5t23.5 -26.5l397 -690l400 690q10 20 22 26.5t33 6.5h235q13 0 23 -9.5t10 -21.5v-1333q0 -12 -10 -21.5t-23 -9.5h-221q-13 0 -23 9.5t-10 21.5v852l-297 -518q-10 -18 -20 -25.5t-29 -7.5h-170q-32 0 -49 33 l-305 518v-852q0 -12 -10 -21.5t-23 -9.5h-221q-13 0 -23 9.5t-10 21.5z" />
<glyph unicode="N" horiz-adv-x="1439" d="M98 31v1333q0 12 10 21.5t23 9.5h205q18 0 29.5 -7t25.5 -26l670 -873v875q0 12 9.5 21.5t21.5 9.5h221q12 0 21 -9.5t9 -21.5v-1333q0 -12 -9 -21.5t-21 -9.5h-205q-20 0 -32 6t-25 25l-670 872v-872q0 -12 -9.5 -21.5t-21.5 -9.5h-219q-13 0 -23 9.5t-10 21.5z" />
<glyph unicode="O" horiz-adv-x="1611" d="M59 694q0 156 60.5 291.5t162.5 228.5t238.5 146t286.5 53q149 0 285 -53t238 -146t162 -228.5t60 -291.5q0 -208 -103 -373t-272 -253t-370 -88t-371.5 89t-273.5 254t-103 371zM373 694q0 -189 123.5 -314.5t310.5 -125.5t309.5 125.5t122.5 314.5t-123 316t-309 127 q-187 0 -310.5 -127.5t-123.5 -315.5z" />
<glyph unicode="P" horiz-adv-x="1265" d="M98 31v1333q0 12 10 21.5t23 9.5h580q205 0 333 -105q80 -66 125 -164.5t45 -218.5q0 -124 -49 -225.5t-135 -167.5q-121 -94 -319 -94h-318v-389q0 -12 -9 -21.5t-22 -9.5h-231q-13 0 -23 9.5t-10 21.5zM393 678h273q102 0 157 37q92 56 92 192q0 131 -88 189 q-64 41 -155 41h-279v-459z" />
<glyph unicode="Q" horiz-adv-x="1615" d="M59 694q0 156 60.5 291.5t162.5 228.5t238.5 146t286.5 53q149 0 285 -53t238 -146t162 -228.5t60 -291.5q0 -256 -151.5 -441.5t-386.5 -244.5q0 -18 22 -24q118 -37 283.5 -78.5t267.5 -55.5q43 -6 25 -40l-107 -179q-13 -26 -49 -26q-37 0 -98 15t-149.5 45.5t-166 59 t-199 74.5t-198.5 74q-33 11 -33 53v78q-241 57 -397 244.5t-156 445.5zM373 694q0 -189 123.5 -314.5t310.5 -125.5t309.5 125.5t122.5 314.5t-123 316t-309 127q-187 0 -310.5 -127.5t-123.5 -315.5z" />
<glyph unicode="R" horiz-adv-x="1308" d="M98 31v1333q0 12 10 21.5t23 9.5h598q224 0 352 -95q77 -57 119.5 -150.5t42.5 -207.5q0 -210 -156 -342q-55 -47 -124 -76l303 -471q8 -13 9.5 -24.5t-5 -20t-23.5 -8.5h-256q-24 0 -36.5 6t-22.5 25l-275 452h-264v-452q0 -12 -9 -21.5t-22 -9.5h-231q-13 0 -23 9.5 t-10 21.5zM393 733h287q128 0 180 35q84 53 84 170q0 113 -78 168q-61 39 -161 39h-312v-412z" />
<glyph unicode="S" horiz-adv-x="1150" d="M49 150l94 198q14 28 39 12q60 -37 105 -60.5t120 -45t150 -21.5q106 0 160 41q59 43 59 119q0 59 -45 97t-129 67q-33 12 -111 35.5t-141.5 48t-116.5 57.5q-83 55 -128.5 129.5t-45.5 188.5q0 185 146 291q137 106 385 106q251 0 446 -106q27 -14 13 -39l-95 -199 q-14 -25 -39 -10q-181 98 -342 98q-93 0 -151 -35q-51 -36 -51 -94q0 -53 45 -86t133 -63q28 -9 93.5 -27.5t105.5 -31t94.5 -36.5t95.5 -53q160 -110 160 -313t-154 -322q-147 -116 -383 -116q-280 0 -500 131q-24 14 -12 39z" />
<glyph unicode="T" horiz-adv-x="1220" d="M12 1163v201q0 12 9.5 21.5t21.5 9.5h1131q13 0 22.5 -9.5t9.5 -21.5v-201q0 -12 -9.5 -21t-22.5 -9h-418v-1102q0 -12 -9.5 -21.5t-21.5 -9.5h-233q-12 0 -21.5 9.5t-9.5 21.5v1102h-418q-12 0 -21.5 9t-9.5 21z" />
<glyph unicode="U" horiz-adv-x="1402" d="M96 551v813q0 12 9.5 21.5t21.5 9.5h233q12 0 21.5 -9.5t9.5 -21.5v-782q0 -158 70 -240q78 -96 239 -96q166 0 244 96q68 83 68 240v782q0 12 9.5 21.5t22.5 9.5h232q13 0 22 -9.5t9 -21.5v-813q0 -240 -127 -385q-163 -186 -480 -186q-155 0 -276.5 48t-198.5 138 q-129 147 -129 385z" />
<glyph unicode="V" horiz-adv-x="1382" d="M4.5 1383q6.5 12 26.5 12h248q40 0 51 -35l354 -995h4l367 995q11 35 51 35h246q19 0 25.5 -12t-1.5 -31l-520 -1327q-11 -31 -47 -31h-246q-38 0 -49 31l-508 1327q-8 19 -1.5 31z" />
<glyph unicode="W" horiz-adv-x="2119" d="M3.5 1379.5q4.5 15.5 25.5 15.5h241q44 0 52 -35l288 -993h4l304 993q11 35 51 35h178q40 0 51 -35l320 -993h4l276 993q8 35 51 35h240q21 0 26.5 -15.5t-1.5 -27.5l-416 -1327q-11 -31 -49 -31h-258q-42 0 -50 31l-280 821h-4l-266 -821q-11 -31 -50 -31h-260 q-38 0 -49 31l-426 1327q-7 12 -2.5 27.5z" />
<glyph unicode="X" horiz-adv-x="1435" d="M3 15q-6 15 9 34l527 645l-516 649q-14 19 -8 35.5t30 16.5h307q30 0 51 -31l318 -430l307 430q24 31 55 31h310q24 0 30 -16.5t-10 -35.5l-508 -643l518 -651q15 -19 9.5 -34t-29.5 -15h-305q-20 0 -31 6.5t-23 22.5l-325 444l-328 -444q-19 -29 -51 -29h-307 q-24 0 -30 15z" />
<glyph unicode="Y" horiz-adv-x="1353" d="M5.5 1379q5.5 16 29.5 16h268q35 0 51 -31l322 -492l323 492q19 31 54 31h268q24 0 29 -16t-9 -36l-518 -763v-549q0 -12 -9 -21.5t-21 -9.5h-234q-12 0 -21.5 9.5t-9.5 21.5v551l-514 761q-14 20 -8.5 36z" />
<glyph unicode="Z" horiz-adv-x="1251" d="M14 27q0 9 6 18l701 1088h-635q-12 0 -21.5 9t-9.5 21v201q0 12 9.5 21.5t21.5 9.5h1092q30 0 30 -27q0 -9 -6 -18l-700 -1090h688q14 0 23.5 -9t9.5 -22v-198q0 -12 -10 -21.5t-23 -9.5h-1145q-31 0 -31 27z" />
<glyph unicode="[" horiz-adv-x="753" d="M96 -281v1864q0 12 9 21.5t22 9.5h547q13 0 22 -9.5t9 -21.5v-184q0 -14 -9 -23.5t-22 -9.5h-289v-1432h289q13 0 22 -9t9 -21v-185q0 -12 -9 -21t-22 -9h-547q-13 0 -22 9t-9 21z" />
<glyph unicode="\" horiz-adv-x="665" d="M27 1348q-11 47 30 47h195q42 0 53 -43l365 -1307q14 -45 -29 -45h-195q-42 0 -55 41z" />
<glyph unicode="]" horiz-adv-x="753" d="M47 -98q0 13 9.5 21.5t23.5 8.5h289v1434h-289q-14 0 -23.5 10t-9.5 23v184q0 12 10 21.5t23 9.5h547q12 0 21 -9.5t9 -21.5v-1866q0 -12 -9 -21t-21 -9h-547q-13 0 -23 9t-10 21v185z" />
<glyph unicode="^" horiz-adv-x="1118" d="M50 813.5q-6 16.5 5 26.5l387 596q21 30 52 30h129q19 0 29 -6.5t22 -23.5l389 -596q9 -10 2.5 -26.5t-27.5 -16.5h-196q-20 0 -30 8t-21 26l-232 359l-231 -359q-8 -12 -14 -18t-16 -11t-24 -5h-196q-22 0 -28 16.5z" />
<glyph unicode="_" horiz-adv-x="923" d="M-39 -147q0 13 8.5 21.5t22.5 8.5h940q12 0 21.5 -8.5t9.5 -21.5v-142q0 -12 -9.5 -21t-21.5 -9h-940q-13 0 -22 9t-9 21v142z" />
<glyph unicode="`" horiz-adv-x="794" d="M180 1540q0 10 8.5 17.5t20.5 7.5h186q27 0 43 -31l154 -311q10 -30 10 -33q0 -12 -8 -19.5t-19 -7.5h-141q-27 0 -47 33l-199 322q-8 11 -8 22z" />
<glyph unicode="a" horiz-adv-x="940" d="M49 268q0 160 170 238q131 57 371 74v20q0 73 -29 109q-32 43 -112 43q-126 0 -256 -76q-35 -21 -46 10l-59 127q-11 25 12 41q73 46 173.5 74t207.5 28q201 0 297 -106q82 -92 82 -250v-569q0 -12 -9.5 -21.5t-21.5 -9.5h-180q-13 0 -23 9.5t-10 21.5v16h-8 q-60 -38 -117.5 -52.5t-132.5 -14.5q-133 0 -217 75q-92 76 -92 213zM307 276q0 -55 41 -79q38 -27 98 -27q78 0 144 41v195q-109 0 -182 -23q-101 -32 -101 -107z" />
<glyph unicode="b" horiz-adv-x="1071" d="M96 39v1325q0 12 9 21.5t22 9.5h209q12 0 21.5 -9.5t9.5 -21.5v-438q91 30 198 30q200 0 326 -135q123 -129 123 -354q0 -196 -113 -324q-147 -163 -457 -163q-212 0 -317 22q-31 7 -31 37zM367 207q32 -4 102 -4q146 0 217 92q53 69 53 172q0 118 -65 190 q-67 70 -166 70q-68 0 -141 -27v-493z" />
<glyph unicode="c" horiz-adv-x="935" d="M55 469q0 173 103 301q71 89 182.5 136.5t243.5 47.5q175 0 307 -92q24 -17 12 -41l-80 -147q-5 -11 -18 -13t-27 5q-98 61 -192 61q-117 0 -189 -78q-65 -71 -65 -180q0 -120 67 -190q70 -76 187 -76q101 0 200 57q32 19 45 -8l76 -143q12 -22 -12 -39 q-124 -90 -317 -90q-257 0 -400 149q-123 132 -123 340z" />
<glyph unicode="d" horiz-adv-x="1062" d="M55 463q0 197 105 325q134 168 395 168q81 0 141 -16v424q0 12 9.5 21.5t21.5 9.5h209q12 0 21.5 -9.5t9.5 -21.5v-1333q0 -12 -9.5 -21.5t-21.5 -9.5h-330q-257 0 -403 123q-148 125 -148 340zM334 467q0 -117 74 -178q77 -64 227 -64h61v486q-57 14 -125 14 q-122 0 -188 -92q-49 -64 -49 -166z" />
<glyph unicode="e" horiz-adv-x="1036" d="M55 479q0 205 138 346q128 131 344 131q241 0 362 -163q85 -114 85 -292q0 -33 -3 -69q0 -14 -8.5 -22.5t-22.5 -8.5h-610q12 -88 63 -143q64 -70 183 -70q120 0 229 66q30 16 47 -8l70 -129q10 -24 -14 -41q-59 -41 -156 -68.5t-197 -27.5q-235 0 -372 137 q-138 135 -138 362zM340 565h383q-3 74 -45 125q-51 58 -139 58q-99 0 -148 -58q-41 -47 -51 -125z" />
<glyph unicode="f" horiz-adv-x="724" d="M20 758v149q0 13 9.5 22t21.5 9h105v109q0 186 94 280q84 84 229 84q92 0 176.5 -24.5t139.5 -65.5q23 -16 12 -41l-70 -143q-6 -11 -18.5 -13.5t-26.5 4.5q-88 56 -151 56q-57 0 -86 -37q-29 -39 -29 -121v-88h205q14 0 23.5 -9t9.5 -22v-149q0 -14 -10 -23.5t-23 -9.5 h-205v-694q0 -12 -9.5 -21.5t-21.5 -9.5h-209q-12 0 -21 9.5t-9 21.5v694h-105q-12 0 -21.5 10t-9.5 23z" />
<glyph unicode="g" horiz-adv-x="1097" d="M55 471q0 101 33 195t96 161q122 129 318 129q122 0 231 -75h6v26q0 13 9.5 22t21.5 9h201q12 0 21 -9t9 -22v-927q0 -249 -139 -367q-120 -100 -342 -100q-104 0 -201.5 27.5t-164.5 74.5q-24 20 -15 41l80 151q7 12 19 15t28 -6q122 -84 258 -84q103 0 154 51 q53 56 53 160v94q-95 -53 -227 -53q-188 0 -309 118q-67 66 -103.5 162t-36.5 207zM332 471q0 -141 61 -205q53 -59 144 -59q108 0 194 59v393q-100 74 -188 74q-94 0 -148 -61q-63 -72 -63 -201z" />
<glyph unicode="h" horiz-adv-x="1107" d="M96 31v1333q0 12 9 21.5t22 9.5h209q12 0 21.5 -9.5t9.5 -21.5v-530q50 57 106 84q74 38 172 38q175 0 275 -92q106 -95 106 -295v-538q0 -12 -9 -21.5t-22 -9.5h-209q-12 0 -21 9.5t-9 21.5v481q0 124 -47 176q-41 47 -123 47q-117 0 -176 -94q-43 -76 -43 -180v-430 q0 -12 -9.5 -21.5t-21.5 -9.5h-209q-13 0 -22 9.5t-9 21.5z" />
<glyph unicode="i" horiz-adv-x="462" d="M76 1257q0 65 45.5 110.5t109.5 45.5q65 0 110.5 -45.5t45.5 -110.5q0 -64 -45.5 -109.5t-110.5 -45.5t-110 45t-45 110zM96 31v874q0 13 9.5 23t21.5 10h209q12 0 21.5 -10t9.5 -23v-874q0 -12 -9.5 -21.5t-21.5 -9.5h-209q-12 0 -21.5 9.5t-9.5 21.5z" />
<glyph unicode="j" horiz-adv-x="464" d="M-51 -336q-20 20 8 41q83 62 113 136t30 235v831q0 12 10 21.5t23 9.5h209q12 0 21.5 -9.5t9.5 -21.5v-835q0 -423 -228 -555q-18 -10 -29 -9.5t-24 13.5zM78 1257q0 65 45.5 110.5t109.5 45.5q65 0 110.5 -45.5t45.5 -110.5q0 -64 -45.5 -109.5t-110.5 -45.5t-110 45 t-45 110z" />
<glyph unicode="k" horiz-adv-x="1064" d="M96 31v1333q0 12 9 21.5t22 9.5h209q12 0 21.5 -9.5t9.5 -21.5v-795l331 342q23 27 60 27h246q26 0 32 -18t-12 -33l-367 -340l379 -498q14 -17 9 -33t-31 -16h-242q-20 0 -31 6.5t-22 24.5l-250 342l-102 -97v-245q0 -12 -9.5 -21.5t-21.5 -9.5h-209q-13 0 -22 9.5 t-9 21.5z" />
<glyph unicode="l" horiz-adv-x="462" d="M96 31v1333q0 12 9 21.5t22 9.5h209q12 0 21.5 -9.5t9.5 -21.5v-1333q0 -12 -9.5 -21.5t-21.5 -9.5h-209q-13 0 -22 9.5t-9 21.5z" />
<glyph unicode="m" horiz-adv-x="1640" d="M96 31v876q0 13 9 22t22 9h201q12 0 21 -9t9 -22v-51h7q25 36 65 57q72 41 166 41q101 0 178 -39q75 -38 115 -96q58 66 125 99q71 36 178 36q166 0 264 -92q103 -93 103 -287v-544q0 -12 -9.5 -21.5t-21.5 -9.5h-209q-13 0 -22 9.5t-9 21.5v485q0 114 -41 168 q-40 51 -119 51q-87 0 -129 -73q-36 -68 -36 -199v-432q0 -12 -9.5 -21.5t-21.5 -9.5h-209q-13 0 -22 9.5t-9 21.5v485q0 114 -41 168q-40 51 -119 51q-87 0 -129 -73q-36 -62 -36 -175v-456q0 -12 -9.5 -21.5t-21.5 -9.5h-209q-13 0 -22 9.5t-9 21.5z" />
<glyph unicode="n" horiz-adv-x="1107" d="M96 31v876q0 13 9 22t22 9h201q12 0 21 -9t9 -22v-78h7q37 46 94 82q82 45 184 45q175 0 275 -92q108 -97 108 -295v-538q0 -12 -10 -21.5t-23 -9.5h-209q-12 0 -21 9.5t-9 21.5v479q0 126 -45 176q-41 47 -125 47q-114 0 -174 -92q-43 -76 -43 -195v-415 q0 -12 -9.5 -21.5t-21.5 -9.5h-209q-13 0 -22 9.5t-9 21.5z" />
<glyph unicode="o" horiz-adv-x="1126" d="M55 467q0 110 41 203t115 157q142 129 352 129q103 0 195 -33.5t160 -95.5q73 -64 113 -156.5t40 -203.5t-40 -204t-113 -157q-67 -61 -159.5 -93.5t-195.5 -32.5q-214 0 -352 126q-74 64 -115 157.5t-41 203.5zM324 467q0 -116 69 -195q70 -73 170 -73t170 73 q70 80 70 195q0 117 -70 197q-68 71 -170 71t-170 -71q-69 -79 -69 -197z" />
<glyph unicode="p" horiz-adv-x="1067" d="M96 -449v1338q0 28 31 37q140 30 330 30q275 0 422 -147q131 -128 131 -342q0 -207 -111 -334q-68 -78 -171 -115.5t-218 -37.5q-83 0 -143 16v-445q0 -13 -9.5 -22.5t-21.5 -9.5h-209q-13 0 -22 9t-9 23zM367 219q50 -18 114 -18q120 0 187 59q73 67 73 207 q0 117 -65 192q-70 76 -193 76q-69 0 -116 -8v-508z" />
<glyph unicode="q" horiz-adv-x="1064" d="M55 461q0 207 119 332q75 81 187.5 122t246.5 41q204 0 326 -43q21 -6 28 -15.5t7 -25.5v-1321q0 -13 -9.5 -22.5t-21.5 -9.5h-209q-14 0 -23.5 9.5t-9.5 22.5v517q-12 -27 -49 -50q-66 -38 -164 -38q-183 0 -297 114q-131 131 -131 367zM324 467q0 -125 53 -197 q54 -69 149 -69q85 0 129 55q41 55 41 178v293q-44 8 -110 8q-144 0 -211 -94q-51 -66 -51 -174z" />
<glyph unicode="r" horiz-adv-x="813" d="M96 31v876q0 13 9 22t22 9h201q12 0 21 -9t9 -22v-80h7q22 37 73 78q67 51 156 51q75 0 143 -30q44 -20 88 -64q23 -26 4 -51l-116 -135q-18 -27 -43 -2q-27 23 -54 37q-35 18 -71 18q-82 0 -127 -61q-51 -68 -51 -215v-422q0 -12 -9.5 -21.5t-21.5 -9.5h-209 q-13 0 -22 9.5t-9 21.5z" />
<glyph unicode="s" horiz-adv-x="808" d="M31 96l69 144q4 12 15.5 15t23.5 -3q119 -76 236 -76q55 0 90 21t35 67q0 31 -20 49.5t-64 38.5q-31 14 -100 37.5t-105 38.5q-162 73 -162 250q0 126 90 201q96 77 277 77q185 0 313 -71q28 -14 12 -41l-69 -144q-9 -24 -37 -10q-109 60 -207 60q-50 0 -86 -19 q-27 -21 -27 -53q0 -50 84 -84q19 -8 92 -32.5t113 -43.5q87 -41 126.5 -98.5t39.5 -138.5q0 -143 -119 -226q-104 -75 -272 -75q-199 0 -334 77q-28 15 -14 39z" />
<glyph unicode="t" horiz-adv-x="794" d="M16 758v149q0 13 9.5 22t21.5 9h103v184q0 13 9 22t21 9h209q13 0 22 -8.5t9 -22.5v-184h258q14 0 22.5 -9t8.5 -22v-149q0 -14 -9 -23.5t-22 -9.5h-258v-356q0 -68 20 -107q24 -49 95 -49q69 0 133 51q14 10 26 9t17 -13l71 -151q13 -23 -12 -41q-126 -88 -307 -88 q-163 0 -240 90q-73 93 -73 262v393h-103q-12 0 -21.5 10t-9.5 23z" />
<glyph unicode="u" horiz-adv-x="1091" d="M82 403v504q0 13 9.5 22t21.5 9h209q12 0 21 -9t9 -22v-493q0 -74 27 -127q46 -86 166 -86q119 0 168 86q26 51 26 127v493q0 13 8.5 22t22.5 9h209q12 0 21.5 -9t9.5 -22v-504q0 -171 -82 -276q-118 -147 -383 -147q-263 0 -381 147q-82 105 -82 276z" />
<glyph unicode="v" horiz-adv-x="1026" d="M8 895q-14 43 25 43h221q40 0 51 -33l209 -647h4l203 647q8 33 51 33h217q21 0 27 -15t-2 -28l-344 -870q-11 -31 -47 -31h-242q-38 0 -49 31z" />
<glyph unicode="w" horiz-adv-x="1443" d="M10 895q-14 43 25 43h209q43 0 51 -33l149 -588h5l153 588q5 33 51 33h152q43 0 51 -33l156 -588h4l147 588q8 33 51 33h195q39 0 25 -43l-263 -870q-11 -31 -49 -31h-225q-44 0 -49 31l-125 469h-4l-127 -469q-7 -31 -49 -31h-221q-42 0 -50 31z" />
<glyph unicode="x" horiz-adv-x="1091" d="M3 15q-6 15 9 34l365 430l-344 410q-14 19 -9 34t29 15h260q20 0 31 -7t21 -24l180 -241l184 241q21 31 53 31h250q24 0 29.5 -15t-8.5 -34l-346 -391l372 -449q14 -20 9 -34.5t-29 -14.5h-254q-31 0 -53 29l-207 262l-205 -262q-25 -29 -53 -29h-254q-24 0 -30 15z" />
<glyph unicode="y" horiz-adv-x="1093" d="M10 895q-14 43 25 43h252q40 0 51 -33l240 -633l200 633q8 33 51 33h232q38 0 24 -43l-356 -946q-71 -195 -188 -303q-144 -130 -367 -130q-23 0 -47 1q-11 0 -18 7t-7 17v207q0 25 25 25q6 0 26 -2t37 -2q91 0 154 49q53 44 94 116z" />
<glyph unicode="z" horiz-adv-x="907" d="M14.5 24q2.5 9 8.5 17l442 661h-395q-13 0 -23 9.5t-10 21.5v174q0 13 9.5 22t23.5 9h794q18 0 25 -12t-4 -31l-439 -657h414q12 0 21.5 -9.5t9.5 -21.5v-176q0 -12 -9.5 -21.5t-21.5 -9.5h-819q-17 0 -23 7.5t-3.5 16.5z" />
<glyph unicode="{" horiz-adv-x="735" d="M66 555v188q0 12 8.5 21.5t21.5 9.5h10q75 0 111 53q45 62 45 211q0 39 -3 107.5t-3 107.5q0 158 78 248q95 109 317 109q18 0 27.5 -9t9.5 -22v-149q0 -12 -9.5 -21.5t-21.5 -9.5q-77 0 -116 -51q-31 -48 -31 -140q0 -37 2 -100.5t2 -99.5q0 -175 -76 -260 q-49 -57 -151 -99q99 -41 151 -98q76 -88 76 -260q0 -36 -2 -100t-2 -101q0 -91 31 -139q37 -51 116 -51q12 0 21.5 -9.5t9.5 -21.5v-150q0 -13 -9.5 -21.5t-27.5 -8.5q-223 0 -317 108q-78 87 -78 248q0 39 3 107.5t3 107.5q0 146 -45 211q-36 53 -111 53h-10 q-13 0 -21.5 9.5t-8.5 21.5z" />
<glyph unicode="|" horiz-adv-x="466" d="M98 -416v1780q0 12 10 21.5t23 9.5h209q12 0 21.5 -9.5t9.5 -21.5v-1780q0 -12 -9.5 -21t-21.5 -9h-209q-13 0 -23 9t-10 21z" />
<glyph unicode="}" horiz-adv-x="735" d="M37 -133q0 13 9.5 22t21.5 9q77 0 116 51q31 51 31 141l-4 201q0 172 76 260q56 59 151 98q-98 37 -151 99q-76 85 -76 260l4 198q0 94 -31 142q-42 51 -116 51q-12 0 -21.5 9t-9.5 22v149q0 13 9.5 22t27.5 9q220 0 317 -111q78 -87 78 -246l-6 -215q0 -151 45 -213 q38 -53 110 -53h11q13 0 21.5 -8.5t8.5 -22.5v-186q0 -12 -8.5 -21.5t-21.5 -9.5h-11q-73 0 -110 -55q-45 -62 -45 -211l6 -213q0 -161 -78 -248q-96 -110 -317 -110q-37 0 -37 32v148z" />
<glyph unicode="~" horiz-adv-x="1296" d="M70 444q0 179 93 283t263 104q62 0 116 -18.5t92.5 -45.5t73 -54t72 -45.5t74.5 -18.5q123 0 123 129q0 31 35 31h182q31 0 31 -31q0 -180 -93.5 -283.5t-263.5 -103.5q-61 0 -115 18.5t-92 45.5t-72.5 54t-72.5 45.5t-76 18.5q-123 0 -123 -129q0 -32 -34 -32h-183 q-30 0 -30 32z" />
<glyph unicode="&#xa1;" horiz-adv-x="577" d="M106 -223q0 29 3.5 65t7 58t10.5 62t8 48l82 434q3 15 14 24t23 9h74q29 0 39 -33l79 -434q29 -147 29 -233q0 -254 -184 -254q-92 0 -138.5 65.5t-46.5 188.5zM129 793q0 68 47.5 115.5t114.5 47.5q69 0 116.5 -47.5t47.5 -115.5t-47.5 -115t-116.5 -47 q-67 0 -114.5 47.5t-47.5 114.5z" />
<glyph unicode="&#xa2;" horiz-adv-x="1122" d="M133 469q0 177 100 301q128 153 342 178v154q0 12 9.5 21.5t21.5 9.5h80q13 0 22 -9.5t9 -21.5v-150q138 -14 250 -90q24 -17 12 -41l-80 -147q-6 -11 -18.5 -13t-26.5 5q-98 61 -192 61q-117 0 -189 -78q-65 -71 -65 -180q0 -120 67 -190q70 -76 189 -76q99 0 198 57 q15 9 27.5 6.5t17.5 -14.5l76 -143q12 -22 -12 -39q-99 -70 -254 -86v-146q0 -14 -9 -23.5t-22 -9.5h-80q-12 0 -21.5 10t-9.5 23v146q-201 18 -319 145q-123 129 -123 340z" />
<glyph unicode="&#xa3;" horiz-adv-x="1157" d="M80 31v192q0 12 9.5 21.5t21.5 9.5h143q86 82 86 225q0 15 -4 47h-178q-12 0 -21.5 10t-9.5 23v172q0 12 9.5 21.5t21.5 9.5h108q-43 135 -43 225q0 193 129 307q132 119 346 119q201 0 346 -84q24 -14 13 -39l-78 -162q-6 -12 -17.5 -15t-21.5 3q-110 58 -215 58 q-103 0 -166 -60q-55 -55 -55 -141q0 -80 43 -211h358q13 0 22 -9.5t9 -21.5v-172q0 -14 -9 -23.5t-22 -9.5h-297q0 -5 1 -15t1 -15q0 -138 -82 -242h496q12 0 21.5 -9.5t9.5 -21.5v-192q0 -12 -9.5 -21.5t-21.5 -9.5h-913q-12 0 -21.5 9.5t-9.5 21.5z" />
<glyph unicode="&#xa4;" horiz-adv-x="1380" d="M73 1259.5q0 13.5 9 22.5l121 125q9 7 22.5 7t22.5 -7l164 -166q127 84 280 84q152 0 277 -82l166 166q9 9 22.5 9t22.5 -9l120 -123q9 -9 9 -22.5t-9 -22.5l-161 -164q84 -127 84 -282q0 -154 -84 -281l164 -164q9 -9 9 -22.5t-9 -22.5l-123 -123q-8 -9 -22 -9t-23 9 l-164 166q-119 -84 -279 -84q-154 0 -284 84l-158 -164q-9 -9 -22.5 -9t-22.5 9l-123 125q-8 8 -8.5 22t8.5 23l160 162q-80 125 -80 279q0 151 82 280l-162 162q-9 9 -9 22.5zM383 795q0 -128 91 -219t218 -91q126 0 215.5 91t89.5 219q0 126 -89.5 215.5t-215.5 89.5 q-128 0 -218.5 -89.5t-90.5 -215.5z" />
<glyph unicode="&#xa5;" horiz-adv-x="1224" d="M5.5 1379.5q6.5 15.5 27.5 15.5h270q36 0 51 -35l254 -488l256 488q8 19 19 27t32 8h275q21 0 26.5 -16.5t-4.5 -26.5l-352 -586h221q12 0 21.5 -9.5t9.5 -21.5v-133q0 -12 -9.5 -21.5t-21.5 -9.5h-325v-141h325q12 0 21.5 -9t9.5 -22v-131q0 -13 -9.5 -21.5t-21.5 -8.5 h-325v-207q0 -12 -9.5 -21.5t-21.5 -9.5h-233q-12 0 -21.5 9.5t-9.5 21.5v207h-324q-12 0 -21.5 8.5t-9.5 21.5v131q0 13 9.5 22t21.5 9h324v141h-324q-12 0 -21.5 9.5t-9.5 21.5v133q0 12 9.5 21.5t21.5 9.5h221l-350 586q-9 12 -2.5 27.5z" />
<glyph unicode="&#xa6;" horiz-adv-x="466" d="M98 324q0 12 10 21t23 9h209q12 0 21.5 -9t9.5 -21v-740q0 -12 -9.5 -21t-21.5 -9h-209q-13 0 -23 9t-10 21v740zM98 625v739q0 12 10 21.5t23 9.5h209q12 0 21.5 -9.5t9.5 -21.5v-739q0 -12 -9.5 -21.5t-21.5 -9.5h-209q-13 0 -23 9.5t-10 21.5z" />
<glyph unicode="&#xa7;" horiz-adv-x="1021" d="M68 524q0 185 147 324q-65 84 -65 194q0 161 100 261q109 112 297 112q113 0 193.5 -28t154.5 -78q10 -6 13.5 -18t-1.5 -23l-71 -148q-4 -12 -16.5 -15t-22.5 3q-129 96 -234 96q-61 0 -98 -37q-33 -30 -33 -86q0 -29 12 -57t26 -48t48 -48.5t52.5 -42.5t66 -46.5 t65.5 -45.5q56 -39 94.5 -72t78.5 -79.5t60.5 -103t20.5 -120.5q0 -190 -147 -322q68 -88 68 -194q0 -152 -97 -256q-114 -117 -301 -117q-113 0 -193.5 28t-154.5 78q-25 18 -12 41l71 148q5 12 16.5 15.5t22.5 -3.5q132 -94 240 -94q55 0 88 31q35 35 35 92 q0 31 -13.5 60.5t-33 52.5t-53.5 50.5t-62.5 46.5t-72.5 48.5t-72 50.5q-65 48 -109 93t-76 112.5t-32 144.5zM350 565q0 -98 111 -184q29 -23 91.5 -64t76.5 -51q45 56 45 113t-32 101.5t-93 92.5q-23 16 -75 50t-79 53q-45 -52 -45 -111z" />
<glyph unicode="&#xa8;" horiz-adv-x="905" d="M59 1354q0 65 45 110t111 45q65 0 110.5 -45.5t45.5 -109.5q0 -65 -46 -111.5t-110 -46.5q-65 0 -110.5 46.5t-45.5 111.5zM535 1354q0 65 44.5 110t110.5 45q64 0 109 -45t45 -110t-45 -111.5t-109 -46.5q-65 0 -110 46.5t-45 111.5z" />
<glyph unicode="&#xa9;" horiz-adv-x="1636" d="M59 735q0 154 59.5 293.5t160.5 240.5t240.5 160.5t293.5 59.5t294 -59.5t241 -160.5t161 -240.5t60 -293.5t-59.5 -293.5t-160.5 -240t-240.5 -160t-293.5 -59.5t-294 59.5t-241 160t-161 240t-60 293.5zM209 735q0 -168 80 -308.5t219 -222t305 -81.5q167 0 306.5 81.5 t219.5 222t80 308.5q0 167 -79.5 307.5t-218.5 223t-306 82.5t-306.5 -82.5t-219.5 -223t-80 -307.5zM453 727q0 161 116.5 269t278.5 108q126 0 211 -47q23 -10 16 -27q0 -2 -26 -53t-27 -51q-8 -10 -31 0q-75 35 -147 35q-93 0 -159.5 -66.5t-66.5 -167.5q0 -103 65 -168 t163 -65q76 0 153 34q20 10 29 -2q1 0 27 -52t26 -54q4 -16 -16 -25q-99 -45 -219 -45q-174 0 -283.5 102.5t-109.5 274.5z" />
<glyph unicode="&#xaa;" horiz-adv-x="571" d="M45 1008q0 90 92 137q75 38 223 47v14q0 50 -24 74q-21 18 -62 18q-59 0 -149 -49q-23 -12 -31 6l-28 64q-6 21 16 35q100 61 215 61q100 0 156 -45q38 -31 52.5 -75t14.5 -113v-316q0 -12 -9.5 -21t-21.5 -9h-81q-13 0 -22 9t-9 21v17h-6q-29 -23 -66 -35t-82 -12 q-73 0 -127 45q-51 48 -51 127zM115 537v53q0 12 9 21.5t21 9.5h277q12 0 21.5 -9.5t9.5 -21.5v-53q0 -12 -9.5 -21.5t-21.5 -9.5h-277q-12 0 -21 9.5t-9 21.5zM199 1010q0 -35 24 -49q22 -17 53 -17q47 0 84 29v123q-64 -4 -108 -21q-53 -21 -53 -65z" />
<glyph unicode="&#xab;" horiz-adv-x="1312" d="M35 471q0 14 24 45l344 395q18 20 31 26.5t35 6.5h201q29 0 36 -19t-12 -42l-348 -412l348 -414q19 -25 12 -42t-36 -17h-201q-23 0 -36 6t-30 25l-344 395q-24 27 -24 47zM606 471q0 15 23 45l344 395q18 20 30.5 26.5t34.5 6.5h201q30 0 37 -19t-12 -42l-346 -412 l346 -414q19 -25 12 -42t-37 -17h-201q-23 0 -35 6t-30 25l-344 395q-23 26 -23 47z" />
<glyph unicode="&#xac;" horiz-adv-x="1163" d="M51 618v205q0 13 9.5 23t21.5 10h997q12 0 21.5 -10t9.5 -23v-456q0 -12 -9.5 -21.5t-21.5 -9.5h-196q-12 0 -21.5 9.5t-9.5 21.5v221h-770q-12 0 -21.5 9t-9.5 21z" />
<glyph unicode="&#xad;" horiz-adv-x="956" d="M135 477v193q0 13 9.5 22.5t21.5 9.5h625q12 0 21 -9.5t9 -22.5v-193q0 -12 -9 -21.5t-21 -9.5h-625q-12 0 -21.5 9.5t-9.5 21.5z" />
<glyph unicode="&#xae;" horiz-adv-x="882" d="M63 1094q0 157 110 266.5t267 109.5t268 -110t111 -266t-110.5 -265.5t-268.5 -109.5q-157 0 -267 110t-110 265zM141 1094q0 -126 86.5 -213.5t212.5 -87.5q127 0 214 87.5t87 213.5q0 127 -87 215t-214 88t-213 -88t-86 -215zM289 934v323q0 9 7.5 17t16.5 8h148 q61 0 99 -31.5t38 -89.5q0 -79 -74 -104l76 -113q10 -19 4.5 -27t-20.5 -8h-35q-22 0 -37 23l-74 108h-67v-106q0 -10 -7.5 -17.5t-17.5 -7.5h-33q-10 0 -17 7t-7 18zM371 1110h80q65 0 65 51t-65 51h-80v-102z" />
<glyph unicode="&#xaf;" horiz-adv-x="946" d="M139 1247v158q0 12 9 21.5t22 9.5h494q13 0 21.5 -9.5t8.5 -21.5v-158q0 -14 -8.5 -23.5t-21.5 -9.5h-494q-13 0 -22 9.5t-9 23.5z" />
<glyph unicode="&#xb0;" horiz-adv-x="698" d="M74 1214q0 116 80.5 196.5t195.5 80.5q116 0 196.5 -80.5t80.5 -196.5q0 -115 -80.5 -195.5t-196.5 -80.5t-196 80t-80 196zM186 1214q0 -69 47 -117t117 -48q69 0 117.5 48t48.5 117t-48.5 115.5t-117.5 46.5q-70 0 -117 -46.5t-47 -115.5z" />
<glyph unicode="&#xb1;" horiz-adv-x="1128" d="M61 31v192q0 12 9.5 21.5t21.5 9.5h942q13 0 23 -9.5t10 -21.5v-192q0 -12 -10 -21.5t-23 -9.5h-942q-12 0 -21.5 9.5t-9.5 21.5zM61 764v192q0 12 9.5 21.5t21.5 9.5h344v344q0 12 9 21.5t22 9.5h192q12 0 21.5 -9.5t9.5 -21.5v-344h344q13 0 23 -9.5t10 -21.5v-192 q0 -13 -9.5 -22t-23.5 -9h-344v-346q0 -12 -9.5 -21.5t-21.5 -9.5h-192q-13 0 -22 9.5t-9 21.5v346h-344q-12 0 -21.5 9t-9.5 22z" />
<glyph unicode="&#xb2;" horiz-adv-x="747" d="M115 713v41q0 75 18.5 126.5t63.5 94.5q39 38 120 80.5t109 68.5q33 30 33 74q0 40 -29 66q-25 22 -72 22q-78 0 -157 -55q-25 -17 -39 10l-29 62q-15 28 12 45q108 67 226 67q112 0 176 -67q57 -57 57 -144q0 -100 -67 -164q-40 -38 -116 -77.5t-102 -63.5 q-38 -32 -38 -82h288q12 0 21.5 -9.5t9.5 -21.5v-73q0 -12 -9.5 -21.5t-21.5 -9.5h-424q-12 0 -21 9.5t-9 21.5z" />
<glyph unicode="&#xb3;" horiz-adv-x="737" d="M121 760l33 67q13 26 36 9q62 -43 132 -43q55 0 83.5 26t28.5 72q0 62 -55 86q-25 12 -84 12h-31q-12 0 -21.5 10t-9.5 23v57q0 14 9 22.5t22 8.5h19q55 0 84 14q49 22 49 82q0 33 -23 56.5t-65 23.5q-62 0 -129 -43q-24 -15 -35 10l-31 62q-15 30 12 43q100 57 195 57 q99 0 156 -55t57 -135q0 -119 -100 -164q127 -53 127 -184q0 -92 -65 -148.5t-181 -56.5q-114 0 -201 49q-24 12 -12 39z" />
<glyph unicode="&#xb4;" horiz-adv-x="796" d="M193 1190q0 9 12 33l153 311q16 31 43 31h185q12 0 20 -7t8 -18q0 -10 -6 -22l-200 -322q-20 -33 -48 -33h-139q-12 0 -20 7.5t-8 19.5z" />
<glyph unicode="&#xb5;" horiz-adv-x="1091" d="M82 -326v1233q0 13 9.5 22t21.5 9h209q12 0 21 -9t9 -22v-493q0 -74 27 -127q46 -86 166 -86q118 0 168 84q26 53 26 129v493q0 13 8.5 22t22.5 9h209q12 0 21.5 -9t9.5 -22v-504q0 -171 -82 -276q-118 -147 -383 -147q-75 0 -127 14q-37 11 -66 37v-357q0 -13 -9 -22.5 t-21 -9.5h-209q-12 0 -21.5 9.5t-9.5 22.5z" />
<glyph unicode="&#xb6;" horiz-adv-x="1462" d="M51 1053q0 198 122.5 305.5t348.5 107.5h871q12 0 21 -9t9 -21v-164q0 -12 -9 -21.5t-21 -9.5h-232v-1620q0 -12 -9.5 -21.5t-21.5 -9.5h-178q-13 0 -22.5 9.5t-9.5 21.5v1620h-226v-1620q0 -12 -9 -21.5t-21 -9.5h-179q-13 0 -21.5 9.5t-8.5 21.5v1016 q-189 10 -296.5 121.5t-107.5 294.5z" />
<glyph unicode="&#xb7;" horiz-adv-x="475" d="M68 707q0 71 50 120.5t120 49.5t120 -49.5t50 -120.5q0 -72 -49.5 -122t-120.5 -50t-120.5 50t-49.5 122z" />
<glyph unicode="&#xb8;" horiz-adv-x="806" d="M156 -326q0 11 7 18t17 7q7 0 33.5 -3t46.5 -3q135 0 135 82q0 65 -112 65q-34 0 -52 -2l17 201h137v-98q89 -9 138.5 -57t49.5 -117q0 -59 -27.5 -101.5t-73.5 -64t-95.5 -31.5t-104.5 -10q-53 0 -92 8q-24 4 -24 24v82z" />
<glyph unicode="&#xb9;" horiz-adv-x="755" d="M117 1229v57q0 33 30 45l218 76q21 8 34 8h35q12 0 20.5 -8.5t8.5 -22.5v-567h143q12 0 21.5 -9.5t9.5 -21.5v-73q0 -12 -9.5 -21.5t-21.5 -9.5h-454q-13 0 -22 9.5t-9 21.5v73q0 12 9 21.5t22 9.5h157v432l-151 -51q-22 -6 -31.5 0.5t-9.5 30.5z" />
<glyph unicode="&#xba;" horiz-adv-x="716" d="M57 1124q0 116 68 193q88 98 233 98q70 0 131 -26t101 -72q69 -75 69 -193q0 -115 -69 -190q-40 -47 -100.5 -72.5t-131.5 -25.5q-147 0 -233 98q-68 77 -68 190zM186 537v53q0 12 10 21.5t23 9.5h277q12 0 21 -9.5t9 -21.5v-53q0 -12 -9 -21.5t-21 -9.5h-277 q-13 0 -23 9.5t-10 21.5zM215 1124q0 -55 33 -100q37 -57 110 -57q69 0 111 55q31 46 31 102q0 53 -31 103q-42 55 -111 55q-72 0 -110 -55q-33 -48 -33 -103z" />
<glyph unicode="&#xbb;" horiz-adv-x="1312" d="M36.5 15q-7.5 17 12.5 42l348 414l-348 412q-20 23 -12 42t37 19h200q22 0 35 -6.5t31 -26.5l344 -395q25 -32 25 -45q0 -18 -25 -47l-344 -395q-17 -19 -30 -25t-36 -6h-200q-30 0 -37.5 17zM606.5 15q-6.5 17 14.5 42l346 414l-346 412q-22 23 -14.5 42t36.5 19h201 q23 0 36.5 -7t28.5 -26l344 -395q25 -32 25 -45q0 -18 -25 -47l-344 -395q-15 -19 -28 -25t-37 -6h-201q-30 0 -36.5 17z" />
<glyph unicode="&#xbc;" horiz-adv-x="806" d="M57 449v71q0 14 8.5 22.5t22.5 8.5h627q14 0 23.5 -9t9.5 -22v-71q0 -13 -10 -23t-23 -10h-627q-13 0 -22 9.5t-9 23.5zM98 -221q0 31 19 55l309 430q21 27 55 27h54q12 0 21 -9.5t9 -21.5v-424h82q12 0 21.5 -9.5t9.5 -21.5v-65q0 -13 -9.5 -23t-21.5 -10h-82v-108 q0 -12 -9 -21.5t-21 -9.5h-86q-12 0 -21.5 9.5t-9.5 21.5v108h-289q-13 0 -22 9.5t-9 23.5v39zM137 1229v57q0 33 31 45l219 76q21 8 35 8h33q28 0 28 -31v-567h144q13 0 22.5 -9.5t9.5 -21.5v-73q0 -12 -9.5 -21.5t-22.5 -9.5h-455q-12 0 -21.5 9.5t-9.5 21.5v73 q0 12 9.5 21.5t21.5 9.5h158v432l-150 -51q-23 -6 -33 0.5t-10 30.5zM276 -164h142v199z" />
<glyph unicode="&#xbd;" horiz-adv-x="806" d="M57 449v71q0 14 8.5 22.5t22.5 8.5h627q14 0 23.5 -9t9.5 -22v-71q0 -13 -10 -23t-23 -10h-627q-13 0 -22 9.5t-9 23.5zM137 1229v57q0 33 31 45l219 76q21 8 35 8h33q28 0 28 -31v-567h144q13 0 22.5 -9.5t9.5 -21.5v-73q0 -12 -9.5 -21.5t-22.5 -9.5h-455 q-12 0 -21.5 9.5t-9.5 21.5v73q0 12 9.5 21.5t21.5 9.5h158v432l-150 -51q-23 -6 -33 0.5t-10 30.5zM145 -358q0 74 19.5 125.5t64.5 95.5q39 38 120.5 80.5t109.5 68.5q30 27 30 74q0 40 -26 66q-25 22 -72 22q-79 0 -158 -55q-25 -17 -38 10l-31 61q-13 29 14 46 q104 67 225 67q113 0 177 -67q57 -57 57 -144q0 -97 -70 -164q-39 -38 -115 -78t-102 -63q-37 -32 -37 -82h287q13 0 23 -9.5t10 -21.5v-73q0 -12 -10 -21.5t-23 -9.5h-422q-13 0 -23 9.5t-10 21.5v41z" />
<glyph unicode="&#xbe;" horiz-adv-x="806" d="M57 449v71q0 14 8.5 22.5t22.5 8.5h627q14 0 23.5 -9t9.5 -22v-71q0 -13 -10 -23t-23 -10h-627q-13 0 -22 9.5t-9 23.5zM98 -221q0 31 19 55l309 430q21 27 55 27h54q12 0 21 -9.5t9 -21.5v-424h82q12 0 21.5 -9.5t9.5 -21.5v-65q0 -13 -9.5 -23t-21.5 -10h-82v-108 q0 -12 -9 -21.5t-21 -9.5h-86q-12 0 -21.5 9.5t-9.5 21.5v108h-289q-13 0 -22 9.5t-9 23.5v39zM160 760l33 67q13 26 36 9q62 -43 131 -43q56 0 84.5 26t28.5 72q0 62 -55 86q-25 12 -84 12h-31q-12 0 -21.5 10t-9.5 23v57q0 14 9 22.5t22 8.5h19q55 0 84 14q49 22 49 82 q0 33 -23 56.5t-65 23.5q-62 0 -129 -43q-24 -15 -35 10l-31 62q-15 30 12 43q100 57 195 57q99 0 156 -55t57 -135q0 -119 -100 -164q126 -52 126 -184q0 -92 -64.5 -148.5t-180.5 -56.5q-114 0 -201 49q-24 12 -12 39zM276 -164h142v199z" />
<glyph unicode="&#xbf;" horiz-adv-x="991" d="M57 -82q0 107 49 182.5t160 151.5q91 65 121 113.5t35 119.5q1 16 12.5 24.5t24.5 8.5h143q27 0 41 -26q25 -52 25 -109q0 -89 -88 -184q-17 -18 -40 -39t-39 -34t-51 -41.5t-49 -39.5q-69 -60 -69 -127q0 -77 55 -117q47 -41 129 -41q95 0 174.5 38t177.5 114 q10 8 22.5 5t18.5 -15l78 -156q11 -20 -12 -43q-217 -182 -471 -182q-194 0 -322 112q-125 115 -125 285zM377 793q0 68 47.5 115.5t114.5 47.5t115 -48t48 -115t-47.5 -114.5t-115.5 -47.5q-67 0 -114.5 47.5t-47.5 114.5z" />
<glyph unicode="&#xc0;" d="M6 25q0 4 4 20l477 1323q8 33 50 33h243q41 0 49 -33l471 -1323l5 -20q0 -25 -29 -25h-236q-43 0 -51 35l-84 248h-506l-84 -248q-11 -35 -51 -35h-229q-29 0 -29 25zM444 1958q0 10 8.5 17t20.5 7h186q28 0 43 -30l154 -312q10 -30 10 -32q0 -12 -7.5 -19.5t-18.5 -7.5 h-142q-27 0 -47 33l-198 321q-9 12 -9 23zM473 518h361l-179 524z" />
<glyph unicode="&#xc1;" d="M6 25q0 4 4 20l477 1323q8 33 50 33h243q41 0 49 -33l471 -1323l5 -20q0 -25 -29 -25h-236q-43 0 -51 35l-84 248h-506l-84 -248q-11 -35 -51 -35h-229q-29 0 -29 25zM442 1608q0 6 13 32l153 312q15 30 43 30h185q12 0 20 -7t8 -17q0 -11 -6 -23l-201 -321 q-20 -33 -47 -33h-139q-12 0 -20.5 7.5t-8.5 19.5zM473 518h361l-179 524z" />
<glyph unicode="&#xc2;" d="M6 25q0 4 4 20l477 1323q8 33 50 33h243q41 0 49 -33l471 -1323l5 -20q0 -25 -29 -25h-236q-43 0 -51 35l-84 248h-506l-84 -248q-11 -35 -51 -35h-229q-29 0 -29 25zM260.5 1595q-4.5 14 9.5 31l295 334q19 22 43 22h94q16 0 23 -4.5t18 -17.5l295 -334q14 -17 10 -31 t-24 -14h-170q-22 0 -32 6t-23 25l-144 162l-145 -162q-13 -19 -23 -25t-32 -6h-170q-20 0 -24.5 14zM473 518h361l-179 524z" />
<glyph unicode="&#xc3;" d="M6 25q0 4 4 20l477 1323q8 33 50 33h243q41 0 49 -33l471 -1323l5 -20q0 -25 -29 -25h-236q-43 0 -51 35l-84 248h-506l-84 -248q-11 -35 -51 -35h-229q-29 0 -29 25zM291 1688q0 117 54 187.5t155 70.5q82 0 170 -64q38 -27 64 -40t54 -13q64 0 78 76q6 30 31 30h86 q18 0 27.5 -9.5t9.5 -22.5q0 -118 -53 -189.5t-154 -71.5q-86 0 -168 62q-73 55 -121 55q-66 0 -80 -73q-6 -33 -30 -33h-86q-18 0 -27.5 10t-9.5 25zM473 518h361l-179 524z" />
<glyph unicode="&#xc4;" d="M6 25q0 4 4 20l477 1323q8 33 50 33h243q41 0 49 -33l471 -1323l5 -20q0 -25 -29 -25h-236q-43 0 -51 35l-84 248h-506l-84 -248q-11 -35 -51 -35h-229q-29 0 -29 25zM262 1763q0 65 45 110.5t111 45.5q64 0 109.5 -45.5t45.5 -110.5t-45.5 -111t-109.5 -46 q-66 0 -111 46t-45 111zM473 518h361l-179 524zM737 1763q0 65 45 110.5t111 45.5q64 0 109 -45.5t45 -110.5t-45 -111t-109 -46q-66 0 -111 46t-45 111z" />
<glyph unicode="&#xc5;" d="M6 25q0 4 4 20l477 1323q8 33 50 33h243q41 0 49 -33l471 -1323l5 -20q0 -25 -29 -25h-236q-43 0 -51 35l-84 248h-506l-84 -248q-11 -35 -51 -35h-229q-29 0 -29 25zM408 1755q0 105 72 177.5t177 72.5q102 0 175 -72.5t73 -177.5q0 -101 -73.5 -173.5t-174.5 -72.5 q-104 0 -176.5 72t-72.5 174zM473 518h361l-179 524zM526 1755q0 -53 38 -91t93 -38q53 0 91 37.5t38 91.5q0 56 -38 94.5t-91 38.5q-56 0 -93.5 -38t-37.5 -95z" />
<glyph unicode="&#xc6;" horiz-adv-x="2080" d="M8 15.5q-6 15.5 10 37.5l1026 1309q26 33 66 33h885q12 0 21 -9.5t9 -21.5v-201q0 -12 -9 -21t-21 -9h-623v-302h514q12 0 21.5 -9t9.5 -21v-199q0 -13 -9.5 -23t-21.5 -10h-514v-309h623q12 0 21 -9t9 -22v-198q0 -12 -9 -21.5t-21 -9.5h-883q-20 0 -27.5 8t-7.5 27v248 h-518l-190 -248q-25 -35 -66 -35h-266q-23 0 -29 15.5zM741 518h336v443z" />
<glyph unicode="&#xc7;" horiz-adv-x="1300" d="M59 698q0 200 99.5 364.5t270.5 257.5t378 93q234 0 422 -96q25 -15 14 -43l-94 -197q-12 -19 -41 -12q-157 82 -307 82q-179 0 -305.5 -129.5t-126.5 -319.5q0 -198 124 -324t310 -126q163 0 317 82q27 12 37 -11l94 -200q12 -27 -14 -39q-176 -88 -377 -98v-41 q89 -9 139 -57t50 -117q0 -59 -27.5 -101.5t-73.5 -64t-95.5 -31.5t-104.5 -10q-54 0 -93 8q-24 4 -24 24v82q0 11 7 18t17 7q7 0 33.5 -3t46.5 -3q135 0 135 82q0 65 -112 65q-33 0 -51 -2l12 146q-304 23 -482 214t-178 500z" />
<glyph unicode="&#xc8;" horiz-adv-x="1204" d="M98 31v1333q0 12 10 21.5t23 9.5h987q13 0 23 -9.5t10 -21.5v-201q0 -12 -10 -21t-23 -9h-725v-302h619q12 0 21 -9t9 -21v-199q0 -13 -9 -23t-21 -10h-619v-309h725q14 0 23.5 -9t9.5 -22v-198q0 -12 -10 -21.5t-23 -9.5h-987q-13 0 -23 9.5t-10 21.5zM365 1958 q0 10 8 17t20 7h187q28 0 43 -30l153 -312q10 -30 10 -32q0 -12 -7.5 -19.5t-18.5 -7.5h-142q-27 0 -47 33l-198 321q-8 11 -8 23z" />
<glyph unicode="&#xc9;" horiz-adv-x="1204" d="M98 31v1333q0 12 10 21.5t23 9.5h987q13 0 23 -9.5t10 -21.5v-201q0 -12 -10 -21t-23 -9h-725v-302h619q12 0 21 -9t9 -21v-199q0 -13 -9 -23t-21 -10h-619v-309h725q14 0 23.5 -9t9.5 -22v-198q0 -12 -10 -21.5t-23 -9.5h-987q-13 0 -23 9.5t-10 21.5zM446 1608 q0 6 13 32l153 312q15 30 43 30h185q12 0 20 -7t8 -17q0 -11 -6 -23l-200 -321q-20 -33 -48 -33h-139q-12 0 -20.5 7.5t-8.5 19.5z" />
<glyph unicode="&#xca;" horiz-adv-x="1204" d="M98 31v1333q0 12 10 21.5t23 9.5h987q13 0 23 -9.5t10 -21.5v-201q0 -12 -10 -21t-23 -9h-725v-302h619q12 0 21 -9t9 -21v-199q0 -13 -9 -23t-21 -10h-619v-309h725q14 0 23.5 -9t9.5 -22v-198q0 -12 -10 -21.5t-23 -9.5h-987q-13 0 -23 9.5t-10 21.5zM213.5 1595 q-4.5 14 9.5 31l295 334q19 22 43 22h94q16 0 23 -4.5t18 -17.5l295 -334q14 -17 10 -31t-24 -14h-170q-22 0 -32 6t-23 25l-144 162l-145 -162q-13 -19 -23 -25t-32 -6h-170q-20 0 -24.5 14z" />
<glyph unicode="&#xcb;" horiz-adv-x="1204" d="M98 31v1333q0 12 10 21.5t23 9.5h987q13 0 23 -9.5t10 -21.5v-201q0 -12 -10 -21t-23 -9h-725v-302h619q12 0 21 -9t9 -21v-199q0 -13 -9 -23t-21 -10h-619v-309h725q14 0 23.5 -9t9.5 -22v-198q0 -12 -10 -21.5t-23 -9.5h-987q-13 0 -23 9.5t-10 21.5zM233 1763 q0 65 45 110.5t111 45.5q65 0 110.5 -45.5t45.5 -110.5t-46 -111t-110 -46q-66 0 -111 46t-45 111zM709 1763q0 65 44.5 110.5t110.5 45.5q64 0 109 -45.5t45 -110.5t-45 -111t-109 -46q-65 0 -110 46t-45 111z" />
<glyph unicode="&#xcc;" horiz-adv-x="528" d="M47 1958q0 10 8.5 17t20.5 7h186q28 0 43 -30l154 -312q10 -30 10 -32q0 -12 -8 -19.5t-19 -7.5h-141q-27 0 -47 33l-199 321q-8 11 -8 23zM121 31v1333q0 12 10 21.5t23 9.5h231q13 0 22 -9.5t9 -21.5v-1333q0 -12 -9 -21.5t-22 -9.5h-231q-13 0 -23 9.5t-10 21.5z" />
<glyph unicode="&#xcd;" horiz-adv-x="528" d="M63 1608q0 6 13 32l153 312q15 30 43 30h185q12 0 20 -7t8 -17q0 -11 -6 -23l-200 -321q-20 -33 -48 -33h-139q-12 0 -20.5 7.5t-8.5 19.5zM113 31v1333q0 12 9.5 21.5t22.5 9.5h232q13 0 22 -9.5t9 -21.5v-1333q0 -12 -9 -21.5t-22 -9.5h-232q-13 0 -22.5 9.5t-9.5 21.5 z" />
<glyph unicode="&#xce;" horiz-adv-x="505" d="M-141 1595q-4 14 10 31l295 334q19 22 43 22h94q16 0 23 -4.5t18 -17.5l295 -334q14 -17 10 -31t-24 -14h-170q-22 0 -32.5 6.5t-23.5 24.5l-143 162l-145 -162q-13 -18 -23.5 -24.5t-32.5 -6.5h-170q-20 0 -24 14zM104 31v1333q0 12 10 21.5t23 9.5h232q13 0 21.5 -9.5 t8.5 -21.5v-1333q0 -12 -8.5 -21.5t-21.5 -9.5h-232q-13 0 -23 9.5t-10 21.5z" />
<glyph unicode="&#xcf;" horiz-adv-x="499" d="M-143 1763q0 65 44.5 110.5t110.5 45.5q64 0 110 -45.5t46 -110.5t-46 -111t-110 -46q-65 0 -110 46t-45 111zM100 31v1333q0 12 10 21.5t23 9.5h232q13 0 21.5 -9.5t8.5 -21.5v-1333q0 -12 -8.5 -21.5t-21.5 -9.5h-232q-13 0 -23 9.5t-10 21.5zM332 1763 q0 65 44.5 110.5t110.5 45.5q64 0 109 -45.5t45 -110.5t-45 -111t-109 -46q-65 0 -110 46t-45 111z" />
<glyph unicode="&#xd0;" horiz-adv-x="1513" d="M-25 602v191q0 13 9.5 22.5t21.5 9.5h139v539q0 12 9.5 21.5t21.5 9.5h524q178 0 319.5 -46.5t254.5 -166.5q170 -182 170 -484q0 -198 -76.5 -353t-234.5 -245q-179 -100 -461 -100h-496q-12 0 -21.5 9.5t-9.5 21.5v540h-139q-12 0 -21.5 9t-9.5 22zM440 248h211 q171 0 281 55q211 103 211 395q0 205 -107 318q-125 131 -379 131h-217v-322h242q12 0 21.5 -9.5t9.5 -22.5v-191q0 -13 -9.5 -22t-21.5 -9h-242v-323z" />
<glyph unicode="&#xd1;" horiz-adv-x="1439" d="M98 31v1333q0 12 10 21.5t23 9.5h205q18 0 29.5 -7t25.5 -26l670 -873v875q0 12 9.5 21.5t21.5 9.5h221q12 0 21 -9.5t9 -21.5v-1333q0 -12 -9 -21.5t-21 -9.5h-205q-20 0 -32 6t-25 25l-670 872v-872q0 -12 -9.5 -21.5t-21.5 -9.5h-219q-13 0 -23 9.5t-10 21.5z M356 1688q0 117 54 187.5t155 70.5q82 0 170 -64q74 -53 119 -53q64 0 78 76q6 30 31 30h86q18 0 27 -9.5t9 -22.5q0 -119 -52.5 -190t-153.5 -71q-86 0 -168 62q-73 55 -121 55q-66 0 -80 -73q-6 -33 -31 -33h-86q-18 0 -27.5 10t-9.5 25z" />
<glyph unicode="&#xd2;" horiz-adv-x="1611" d="M59 694q0 156 60.5 291.5t162.5 228.5t238.5 146t286.5 53q149 0 285 -53t238 -146t162 -228.5t60 -291.5q0 -208 -103 -373t-272 -253t-370 -88t-371.5 89t-273.5 254t-103 371zM373 694q0 -189 123.5 -314.5t310.5 -125.5t309.5 125.5t122.5 314.5t-123 316t-309 127 q-187 0 -310.5 -127.5t-123.5 -315.5zM580 1958q0 10 8 17t20 7h187q28 0 43 -30l153 -312q10 -30 10 -32q0 -12 -7.5 -19.5t-18.5 -7.5h-141q-28 0 -48 33l-198 321q-8 11 -8 23z" />
<glyph unicode="&#xd3;" horiz-adv-x="1611" d="M59 694q0 156 60.5 291.5t162.5 228.5t238.5 146t286.5 53q149 0 285 -53t238 -146t162 -228.5t60 -291.5q0 -208 -103 -373t-272 -253t-370 -88t-371.5 89t-273.5 254t-103 371zM373 694q0 -189 123.5 -314.5t310.5 -125.5t309.5 125.5t122.5 314.5t-123 316t-309 127 q-187 0 -310.5 -127.5t-123.5 -315.5zM606 1608q0 8 12 32l154 312q15 30 43 30h184q12 0 20.5 -7t8.5 -17q0 -11 -6 -23l-201 -321q-20 -33 -47 -33h-139q-12 0 -20.5 7.5t-8.5 19.5z" />
<glyph unicode="&#xd4;" horiz-adv-x="1611" d="M59 694q0 156 60.5 291.5t162.5 228.5t238.5 146t286.5 53q149 0 285 -53t238 -146t162 -228.5t60 -291.5q0 -208 -103 -373t-272 -253t-370 -88t-371.5 89t-273.5 254t-103 371zM373 694q0 -189 123.5 -314.5t310.5 -125.5t309.5 125.5t122.5 314.5t-123 316t-309 127 q-187 0 -310.5 -127.5t-123.5 -315.5zM410 1595q-4 14 10 31l295 334q19 22 43 22h94q16 0 23 -4.5t18 -17.5l295 -334q14 -17 10 -31t-24 -14h-170q-22 0 -32.5 6.5t-23.5 24.5l-143 162l-146 -162q-13 -19 -23 -25t-32 -6h-170q-20 0 -24 14z" />
<glyph unicode="&#xd5;" horiz-adv-x="1611" d="M59 694q0 156 60.5 291.5t162.5 228.5t238.5 146t286.5 53q149 0 285 -53t238 -146t162 -228.5t60 -291.5q0 -208 -103 -373t-272 -253t-370 -88t-371.5 89t-273.5 254t-103 371zM373 694q0 -189 123.5 -314.5t310.5 -125.5t309.5 125.5t122.5 314.5t-123 316t-309 127 q-187 0 -310.5 -127.5t-123.5 -315.5zM440 1688q0 117 54 187.5t155 70.5q82 0 170 -64q74 -53 119 -53q64 0 78 76q6 30 31 30h86q18 0 27 -9.5t9 -22.5q0 -119 -52.5 -190t-153.5 -71q-86 0 -168 62q-73 55 -121 55q-66 0 -80 -73q-6 -33 -31 -33h-86q-18 0 -27.5 10 t-9.5 25z" />
<glyph unicode="&#xd6;" horiz-adv-x="1611" d="M59 694q0 156 60.5 291.5t162.5 228.5t238.5 146t286.5 53q149 0 285 -53t238 -146t162 -228.5t60 -291.5q0 -208 -103 -373t-272 -253t-370 -88t-371.5 89t-273.5 254t-103 371zM373 694q0 -189 123.5 -314.5t310.5 -125.5t309.5 125.5t122.5 314.5t-123 316t-309 127 q-187 0 -310.5 -127.5t-123.5 -315.5zM412 1763q0 65 44.5 110.5t110.5 45.5q65 0 110.5 -45.5t45.5 -110.5t-46 -111t-110 -46q-65 0 -110 46t-45 111zM887 1763q0 65 44.5 110.5t110.5 45.5q64 0 109 -45.5t45 -110.5t-45 -111t-109 -46q-65 0 -110 46t-45 111z" />
<glyph unicode="&#xd7;" horiz-adv-x="1040" d="M32 399.5q0 13.5 9 22.5l299 301l-299 299q-9 9 -9 21.5t9 21.5l135 137q9 9 21.5 9t21.5 -9l301 -301l301 303q9 8 22.5 8t22.5 -8l135 -137q9 -9 9 -21.5t-9 -21.5l-301 -301l301 -301q9 -9 9 -22.5t-9 -22.5l-135 -137q-9 -9 -22.5 -9t-22.5 9l-301 301l-301 -299 q-9 -9 -21.5 -9t-21.5 9l-135 137q-9 7 -9 20.5z" />
<glyph unicode="&#xd8;" horiz-adv-x="1611" d="M59 694q0 156 60.5 291.5t162.5 228.5t238.5 146t286.5 53q218 0 399 -108l51 59q1 1 6.5 7t7.5 7.5t7.5 6t9 6t8.5 3t11 1.5h172q21 0 28.5 -16.5t-6.5 -30.5l-143 -164q93 -94 143.5 -219.5t50.5 -270.5q0 -208 -103 -373t-272 -253t-370 -88q-219 0 -401 106l-50 -55 q-24 -31 -49 -31h-172q-24 0 -31.5 14t9.5 31l139 162q-193 199 -193 487zM373 694q0 -145 78 -260l565 651q-96 52 -209 52q-187 0 -310.5 -127.5t-123.5 -315.5zM594 305q94 -51 213 -51q187 0 309.5 125.5t122.5 314.5q0 147 -80 260z" />
<glyph unicode="&#xd9;" horiz-adv-x="1402" d="M96 551v813q0 12 9.5 21.5t21.5 9.5h233q12 0 21.5 -9.5t9.5 -21.5v-782q0 -158 70 -240q78 -96 239 -96q166 0 244 96q68 83 68 240v782q0 12 9.5 21.5t22.5 9.5h232q13 0 22 -9.5t9 -21.5v-813q0 -240 -127 -385q-163 -186 -480 -186q-155 0 -276.5 48t-198.5 138 q-129 147 -129 385zM477 1958q0 10 8.5 17t20.5 7h186q28 0 43 -30l154 -312q10 -30 10 -32q0 -12 -8 -19.5t-19 -7.5h-141q-27 0 -47 33l-199 321q-8 11 -8 23z" />
<glyph unicode="&#xda;" horiz-adv-x="1402" d="M96 551v813q0 12 9.5 21.5t21.5 9.5h233q12 0 21.5 -9.5t9.5 -21.5v-782q0 -158 70 -240q78 -96 239 -96q166 0 244 96q68 83 68 240v782q0 12 9.5 21.5t22.5 9.5h232q13 0 22 -9.5t9 -21.5v-813q0 -240 -127 -385q-163 -186 -480 -186q-155 0 -276.5 48t-198.5 138 q-129 147 -129 385zM504 1608q0 8 12 32l154 312q15 30 43 30h184q12 0 20.5 -7t8.5 -17q0 -11 -6 -23l-201 -321q-20 -33 -47 -33h-140q-12 0 -20 7.5t-8 19.5z" />
<glyph unicode="&#xdb;" horiz-adv-x="1402" d="M96 551v813q0 12 9.5 21.5t21.5 9.5h233q12 0 21.5 -9.5t9.5 -21.5v-782q0 -158 70 -240q78 -96 239 -96q166 0 244 96q68 83 68 240v782q0 12 9.5 21.5t22.5 9.5h232q13 0 22 -9.5t9 -21.5v-813q0 -240 -127 -385q-163 -186 -480 -186q-155 0 -276.5 48t-198.5 138 q-129 147 -129 385zM305.5 1595q-4.5 14 9.5 31l295 334q19 22 43 22h95q11 0 18.5 -3.5t10.5 -6t11 -12.5l295 -334q14 -17 10 -31t-24 -14h-170q-22 0 -32 6t-23 25l-144 162l-145 -162q-13 -19 -23 -25t-32 -6h-170q-20 0 -24.5 14z" />
<glyph unicode="&#xdc;" horiz-adv-x="1402" d="M96 551v813q0 12 9.5 21.5t21.5 9.5h233q12 0 21.5 -9.5t9.5 -21.5v-782q0 -158 70 -240q78 -96 239 -96q166 0 244 96q68 83 68 240v782q0 12 9.5 21.5t22.5 9.5h232q13 0 22 -9.5t9 -21.5v-813q0 -240 -127 -385q-163 -186 -480 -186q-155 0 -276.5 48t-198.5 138 q-129 147 -129 385zM309 1763q0 65 45 110.5t111 45.5q65 0 110.5 -45.5t45.5 -110.5t-46 -111t-110 -46q-66 0 -111 46t-45 111zM784 1763q0 65 45 110.5t111 45.5q64 0 109 -45.5t45 -110.5t-45 -111t-109 -46q-66 0 -111 46t-45 111z" />
<glyph unicode="&#xdd;" horiz-adv-x="1353" d="M5.5 1379q5.5 16 29.5 16h268q35 0 51 -31l322 -492l323 492q19 31 54 31h268q24 0 29 -16t-9 -36l-518 -763v-549q0 -12 -9 -21.5t-21 -9.5h-234q-12 0 -21.5 9.5t-9.5 21.5v551l-514 761q-14 20 -8.5 36zM498 1608q0 8 12 32l154 312q15 30 43 30h184q12 0 20.5 -7 t8.5 -17q0 -9 -7 -23l-200 -321q-20 -33 -47 -33h-140q-12 0 -20 7.5t-8 19.5z" />
<glyph unicode="&#xde;" horiz-adv-x="1265" d="M98 31v1333q0 12 10 21.5t23 9.5h231q13 0 22 -9.5t9 -21.5v-182h318q205 0 333 -105q80 -66 125 -164.5t45 -218.5q0 -123 -49 -225t-135 -166q-124 -96 -319 -96h-318v-176q0 -12 -9 -21.5t-22 -9.5h-231q-13 0 -23 9.5t-10 21.5zM393 465h273q114 0 174 47 q75 59 75 182q0 111 -65 170q-60 60 -178 60h-279v-459z" />
<glyph unicode="&#xdf;" horiz-adv-x="1138" d="M96 -119v1143q0 159 90 258q58 64 144 98.5t184 34.5q204 0 322 -88q108 -86 108 -237q0 -64 -24 -114t-59 -78t-69.5 -48.5t-58.5 -38.5t-24 -35q0 -25 29.5 -44.5t90.5 -46.5t95 -48q157 -105 157 -289q0 -164 -112 -270q-106 -98 -269 -98q-91 0 -156.5 19t-129.5 58 q-27 13 -13 41l76 154q10 26 39 10q86 -53 176 -53q64 0 99 35q36 29 36 86q0 33 -23.5 63t-53.5 49.5t-81 52t-83 56.5q-65 46 -99 94t-34 117q0 40 22.5 69t54.5 48t63.5 39t54 54t22.5 81q0 63 -39 102q-42 39 -111 39q-70 0 -112 -45q-41 -44 -41 -125v-1143 q0 -12 -9.5 -21.5t-21.5 -9.5h-209q-13 0 -22 9.5t-9 21.5z" />
<glyph unicode="&#xe0;" horiz-adv-x="940" d="M49 268q0 160 170 238q131 57 371 74v20q0 73 -29 109q-32 43 -112 43q-126 0 -256 -76q-35 -21 -46 10l-59 127q-11 25 12 41q73 46 173.5 74t207.5 28q201 0 297 -106q82 -92 82 -250v-569q0 -12 -9.5 -21.5t-21.5 -9.5h-180q-13 0 -23 9.5t-10 21.5v16h-8 q-60 -38 -117.5 -52.5t-132.5 -14.5q-133 0 -217 75q-92 76 -92 213zM258 1540q0 10 8.5 17.5t20.5 7.5h186q27 0 43 -31l154 -311q10 -30 10 -33q0 -12 -8 -19.5t-19 -7.5h-141q-27 0 -47 33l-199 322q-8 11 -8 22zM307 276q0 -55 41 -79q38 -27 98 -27q78 0 144 41v195 q-109 0 -182 -23q-101 -32 -101 -107z" />
<glyph unicode="&#xe1;" horiz-adv-x="940" d="M49 268q0 160 170 238q131 57 371 74v20q0 73 -29 109q-32 43 -112 43q-126 0 -256 -76q-35 -21 -46 10l-59 127q-11 25 12 41q73 46 173.5 74t207.5 28q201 0 297 -106q82 -92 82 -250v-569q0 -12 -9.5 -21.5t-21.5 -9.5h-180q-13 0 -23 9.5t-10 21.5v16h-8 q-60 -38 -117.5 -52.5t-132.5 -14.5q-133 0 -217 75q-92 76 -92 213zM274 1190q0 7 13 33l153 311q16 31 43 31h185q12 0 20 -7t8 -18q0 -10 -6 -22l-201 -322q-20 -33 -47 -33h-139q-12 0 -20.5 7.5t-8.5 19.5zM307 276q0 -55 41 -79q38 -27 98 -27q78 0 144 41v195 q-109 0 -182 -23q-101 -32 -101 -107z" />
<glyph unicode="&#xe2;" horiz-adv-x="954" d="M49 268q0 160 170 238q131 57 371 74v20q0 73 -29 109q-32 43 -112 43q-126 0 -256 -76q-35 -21 -46 10l-59 127q-11 25 12 41q73 46 173.5 74t207.5 28q201 0 297 -106q82 -92 82 -250v-569q0 -12 -9.5 -21.5t-21.5 -9.5h-180q-13 0 -23 9.5t-10 21.5v16h-8 q-60 -38 -117.5 -52.5t-132.5 -14.5q-133 0 -217 75q-92 76 -92 213zM82 1177q-4 14 10 31l295 334q20 23 43 23h94q11 0 19 -3.5t11 -6.5t11 -13l295 -334q14 -17 10 -31t-24 -14h-170q-22 0 -32 6t-23 25l-144 162l-145 -162q-13 -18 -23.5 -24.5t-32.5 -6.5h-170 q-20 0 -24 14zM307 276q0 -55 41 -79q38 -27 98 -27q78 0 144 41v195q-109 0 -182 -23q-101 -32 -101 -107z" />
<glyph unicode="&#xe3;" horiz-adv-x="940" d="M49 268q0 160 170 238q131 57 371 74v20q0 73 -29 109q-32 43 -112 43q-126 0 -256 -76q-35 -21 -46 10l-59 127q-11 25 12 41q73 46 173.5 74t207.5 28q201 0 297 -106q82 -92 82 -250v-569q0 -12 -9.5 -21.5t-21.5 -9.5h-180q-13 0 -23 9.5t-10 21.5v16h-8 q-60 -38 -117.5 -52.5t-132.5 -14.5q-133 0 -217 75q-92 76 -92 213zM104 1260q0 117 54 187.5t155 70.5q82 0 170 -64q74 -53 119 -53q64 0 78 76q6 30 31 30h86q18 0 27.5 -9.5t9.5 -22.5q0 -118 -53 -189.5t-154 -71.5q-86 0 -168 62q-73 55 -121 55q-66 0 -80 -74 q-6 -32 -31 -32h-86q-18 0 -27.5 10t-9.5 25zM307 276q0 -55 41 -79q38 -27 98 -27q78 0 144 41v195q-109 0 -182 -23q-101 -32 -101 -107z" />
<glyph unicode="&#xe4;" horiz-adv-x="958" d="M53 268q0 160 170 238q131 57 371 74v20q0 73 -29 109q-32 43 -112 43q-126 0 -256 -76q-34 -21 -45 10l-60 127q-11 25 12 41q73 46 173.5 74t207.5 28q201 0 297 -106q82 -92 82 -250v-569q0 -12 -9 -21.5t-21 -9.5h-181q-13 0 -22.5 9.5t-9.5 21.5v16h-9 q-60 -38 -117.5 -52.5t-132.5 -14.5q-133 0 -217 75q-92 76 -92 213zM88 1354q0 65 45 110t111 45q64 0 109.5 -45.5t45.5 -109.5q0 -65 -45.5 -111.5t-109.5 -46.5q-65 0 -110.5 46.5t-45.5 111.5zM311 276q0 -55 41 -79q38 -27 99 -27q77 0 143 41v195q-109 0 -182 -23 q-101 -32 -101 -107zM563 1354q0 65 45 110t111 45q64 0 108.5 -45t44.5 -110t-44.5 -111.5t-108.5 -46.5q-65 0 -110.5 46.5t-45.5 111.5z" />
<glyph unicode="&#xe5;" horiz-adv-x="940" d="M49 268q0 160 170 238q131 57 371 74v20q0 73 -29 109q-32 43 -112 43q-126 0 -256 -76q-35 -21 -46 10l-59 127q-11 25 12 41q73 46 173.5 74t207.5 28q201 0 297 -106q82 -92 82 -250v-569q0 -12 -9.5 -21.5t-21.5 -9.5h-180q-13 0 -23 9.5t-10 21.5v16h-8 q-60 -38 -117.5 -52.5t-132.5 -14.5q-133 0 -217 75q-92 76 -92 213zM229 1364q0 105 72.5 177.5t177.5 72.5q102 0 175 -72.5t73 -177.5q0 -101 -73.5 -173.5t-174.5 -72.5q-104 0 -177 72t-73 174zM307 276q0 -55 41 -79q38 -27 98 -27q78 0 144 41v195q-109 0 -182 -23 q-101 -32 -101 -107zM348 1364q0 -53 38 -91t93 -38q53 0 91 37.5t38 91.5q0 56 -38 94.5t-91 38.5q-56 0 -93.5 -38t-37.5 -95z" />
<glyph unicode="&#xe6;" horiz-adv-x="1570" d="M51 266q0 153 164 228q130 58 377 75v31q0 73 -29 109q-32 43 -110 43q-66 0 -136.5 -23t-121.5 -53q-13 -8 -27 -5.5t-18 15.5l-60 127q-5 10 -1.5 22.5t13.5 18.5q166 102 381 102q101 0 168 -28q64 -31 113 -90q51 54 119 82q83 36 188 36q246 0 363 -163 q100 -135 84 -361q-2 -14 -11 -22.5t-22 -8.5h-611q11 -87 64 -143q67 -70 180 -70q120 0 232 66q34 18 47 -8l69 -129q11 -25 -12 -41q-60 -42 -155 -69t-199 -27q-236 0 -381 145q-81 -81 -166 -113q-88 -32 -197 -32q-139 0 -225 86q-80 77 -80 200zM309 274 q0 -48 37 -75q34 -27 96 -27q60 0 107 21q45 18 88 61q-33 62 -39 145q-138 -5 -211 -34q-78 -30 -78 -91zM874 565h386q-6 74 -48 125q-51 58 -139 58q-95 0 -147 -58q-43 -49 -52 -125z" />
<glyph unicode="&#xe7;" horiz-adv-x="948" d="M55 469q0 173 103 301q71 89 182.5 136.5t243.5 47.5q175 0 307 -92q24 -17 12 -41l-80 -147q-5 -11 -18 -13t-27 5q-98 61 -192 61q-117 0 -189 -78q-65 -71 -65 -180q0 -120 67 -190q70 -76 187 -76q101 0 200 57q32 19 45 -8l76 -143q12 -22 -12 -39 q-107 -76 -264 -88v-41q89 -9 138.5 -57t49.5 -117q0 -59 -27.5 -101.5t-73.5 -64t-95.5 -31.5t-104.5 -10q-53 0 -92 8q-25 4 -25 24v82q0 10 7.5 17.5t17.5 7.5q7 0 33.5 -3t46.5 -3q135 0 135 82q0 65 -113 65q-33 0 -51 -2l12 148q-195 21 -311 143q-123 132 -123 340z " />
<glyph unicode="&#xe8;" horiz-adv-x="1036" d="M55 479q0 205 138 346q128 131 344 131q241 0 362 -163q101 -136 82 -361q0 -14 -8.5 -22.5t-22.5 -8.5h-610q12 -88 63 -143q64 -70 183 -70q120 0 229 66q30 16 47 -8l70 -129q10 -24 -14 -41q-59 -41 -156 -68.5t-197 -27.5q-235 0 -372 137q-138 135 -138 362z M297 1540q0 10 8.5 17.5t20.5 7.5h186q28 0 43 -31l154 -311q10 -30 10 -33q0 -12 -8 -19.5t-19 -7.5h-141q-27 0 -47 33l-199 322q-8 11 -8 22zM340 565h383q-3 74 -45 125q-51 58 -139 58q-99 0 -148 -58q-41 -47 -51 -125z" />
<glyph unicode="&#xe9;" horiz-adv-x="1036" d="M55 479q0 205 138 346q128 131 344 131q241 0 362 -163q101 -136 82 -361q0 -14 -8.5 -22.5t-22.5 -8.5h-610q12 -88 63 -143q64 -70 183 -70q120 0 229 66q30 16 47 -8l70 -129q10 -24 -14 -41q-59 -41 -156 -68.5t-197 -27.5q-235 0 -372 137q-138 135 -138 362z M313 1190q0 7 13 33l153 311q15 31 43 31h185q12 0 20 -7t8 -18q0 -10 -6 -22l-201 -322q-20 -33 -47 -33h-139q-12 0 -20.5 7.5t-8.5 19.5zM340 565h383q-3 74 -45 125q-51 58 -139 58q-99 0 -148 -58q-41 -47 -51 -125z" />
<glyph unicode="&#xea;" horiz-adv-x="1036" d="M55 479q0 205 138 346q128 131 344 131q241 0 362 -163q101 -136 82 -361q0 -14 -8.5 -22.5t-22.5 -8.5h-610q12 -88 63 -143q64 -70 183 -70q120 0 229 66q30 16 47 -8l70 -129q10 -24 -14 -41q-59 -41 -156 -68.5t-197 -27.5q-235 0 -372 137q-138 135 -138 362z M121 1177q-4 14 10 31l295 334q20 23 43 23h94q11 0 19 -3.5t11 -6.5t11 -13l295 -334q14 -17 10 -31t-24 -14h-170q-22 0 -32.5 6.5t-23.5 24.5l-143 162l-145 -162q-13 -18 -23.5 -24.5t-32.5 -6.5h-170q-20 0 -24 14zM340 565h383q-3 74 -45 125q-51 58 -139 58 q-99 0 -148 -58q-41 -47 -51 -125z" />
<glyph unicode="&#xeb;" horiz-adv-x="1036" d="M55 479q0 205 138 346q128 131 344 131q241 0 362 -163q101 -136 82 -361q0 -14 -8.5 -22.5t-22.5 -8.5h-610q12 -88 63 -143q64 -70 183 -70q120 0 229 66q30 16 47 -8l70 -129q10 -24 -14 -41q-59 -41 -156 -68.5t-197 -27.5q-235 0 -372 137q-138 135 -138 362z M123 1354q0 65 45 110t111 45q65 0 110 -45.5t45 -109.5q0 -65 -45.5 -111.5t-109.5 -46.5q-65 0 -110.5 46.5t-45.5 111.5zM340 565h383q-3 74 -45 125q-51 58 -139 58q-99 0 -148 -58q-41 -47 -51 -125zM598 1354q0 65 45 110t111 45q64 0 108.5 -45t44.5 -110 t-44.5 -111.5t-108.5 -46.5q-65 0 -110.5 46.5t-45.5 111.5z" />
<glyph unicode="&#xec;" horiz-adv-x="503" d="M35 1540q0 11 8 18t20 7h187q28 0 43 -31l153 -311l11 -33q0 -12 -8 -19.5t-19 -7.5h-141q-27 0 -47 33l-199 322q-8 11 -8 22zM119 31v876q0 13 8.5 22t22.5 9h208q12 0 21.5 -9t9.5 -22v-876q0 -12 -9.5 -21.5t-21.5 -9.5h-208q-13 0 -22 9.5t-9 21.5z" />
<glyph unicode="&#xed;" horiz-adv-x="503" d="M49 1190q0 9 12 33l154 311q15 31 43 31h184q12 0 20.5 -7.5t8.5 -17.5t-6 -22l-201 -322q-20 -33 -47 -33h-139q-12 0 -20.5 7.5t-8.5 19.5zM117 31v876q0 14 8.5 22.5t21.5 8.5h209q12 0 21.5 -9t9.5 -22v-876q0 -12 -9.5 -21.5t-21.5 -9.5h-209q-13 0 -21.5 9.5 t-8.5 21.5z" />
<glyph unicode="&#xee;" horiz-adv-x="462" d="M-163.5 1177q-4.5 14 9.5 31l295 334q20 23 43 23h95q11 0 19 -4t10 -6t11 -13l295 -334q14 -17 10 -31t-24 -14h-170q-22 0 -32 6t-23 25l-144 162l-145 -162q-13 -19 -23 -25t-32 -6h-170q-20 0 -24.5 14zM96 31v876q0 13 9 22t22 9h209q12 0 21.5 -9t9.5 -22v-876 q0 -12 -9.5 -21.5t-21.5 -9.5h-209q-13 0 -22 9.5t-9 21.5z" />
<glyph unicode="&#xef;" horiz-adv-x="458" d="M-164 1354q0 65 45 110t111 45q64 0 109.5 -45.5t45.5 -109.5q0 -65 -45.5 -111.5t-109.5 -46.5q-65 0 -110.5 46.5t-45.5 111.5zM94 31v876q0 13 9 22t22 9h209q12 0 21.5 -9t9.5 -22v-876q0 -12 -9.5 -21.5t-21.5 -9.5h-209q-13 0 -22 9.5t-9 21.5zM311 1354 q0 65 45 110t111 45q64 0 109 -45t45 -110t-45 -111.5t-109 -46.5q-65 0 -110.5 46.5t-45.5 111.5z" />
<glyph unicode="&#xf0;" horiz-adv-x="1019" d="M55 428q0 181 117 295q62 60 143 91.5t166 31.5q65 0 125 -31q-54 114 -166 221l-141 -108q-9 -6 -22.5 -5.5t-20.5 9.5l-74 96q-8 9 -6 22.5t12 20.5l111 84q-19 18 -60.5 52t-50.5 42q-26 23 -2 43l131 127q21 21 52 2q86 -63 135 -110l149 114q9 6 22.5 5.5t20.5 -9.5 l72 -96q18 -25 -4 -43l-123 -94q155 -163 238.5 -347.5t83.5 -379.5q0 -118 -36.5 -211.5t-99.5 -151.5t-144.5 -88t-176.5 -30q-181 0 -299 100q-152 127 -152 348zM305 428q0 -98 52.5 -159.5t148.5 -61.5q91 0 147 63t56 191q0 51 -15 135q-72 39 -168 39q-85 0 -153 -56 t-68 -151z" />
<glyph unicode="&#xf1;" horiz-adv-x="1107" d="M96 31v876q0 13 9 22t22 9h201q12 0 21 -9t9 -22v-78h7q37 46 94 82q82 45 184 45q175 0 275 -92q108 -97 108 -295v-538q0 -12 -10 -21.5t-23 -9.5h-209q-12 0 -21 9.5t-9 21.5v479q0 126 -45 176q-41 47 -125 47q-114 0 -174 -92q-43 -76 -43 -195v-415 q0 -12 -9.5 -21.5t-21.5 -9.5h-209q-13 0 -22 9.5t-9 21.5zM178 1260q0 117 54 187.5t155 70.5q82 0 170 -64q74 -53 119 -53q64 0 78 76q6 30 30 30h86q18 0 27.5 -9.5t9.5 -22.5q0 -118 -53 -189.5t-154 -71.5q-86 0 -168 62q-73 55 -120 55q-66 0 -80 -74q-6 -32 -31 -32 h-86q-18 0 -27.5 10t-9.5 25z" />
<glyph unicode="&#xf2;" horiz-adv-x="1126" d="M55 467q0 110 41 203t115 157q142 129 352 129q103 0 195 -33.5t160 -95.5q73 -64 113 -156.5t40 -203.5t-40 -204t-113 -157q-67 -61 -159.5 -93.5t-195.5 -32.5q-214 0 -352 126q-74 64 -115 157.5t-41 203.5zM324 467q0 -116 69 -195q70 -73 170 -73t170 73 q70 80 70 195q0 117 -70 197q-68 71 -170 71t-170 -71q-69 -79 -69 -197zM342 1540q0 10 8.5 17.5t20.5 7.5h186q27 0 43 -31l154 -311q10 -30 10 -33q0 -12 -8 -19.5t-19 -7.5h-141q-27 0 -47 33l-199 322q-8 11 -8 22z" />
<glyph unicode="&#xf3;" horiz-adv-x="1126" d="M55 467q0 110 41 203t115 157q142 129 352 129q103 0 195 -33.5t160 -95.5q73 -64 113 -156.5t40 -203.5t-40 -204t-113 -157q-67 -61 -159.5 -93.5t-195.5 -32.5q-214 0 -352 126q-74 64 -115 157.5t-41 203.5zM324 467q0 -116 69 -195q70 -73 170 -73t170 73 q70 80 70 195q0 117 -70 197q-68 71 -170 71t-170 -71q-69 -79 -69 -197zM358 1190q0 7 13 33l153 311q16 31 43 31h185q12 0 20 -7t8 -18q0 -10 -6 -22l-201 -322q-20 -33 -47 -33h-139q-12 0 -20.5 7.5t-8.5 19.5z" />
<glyph unicode="&#xf4;" horiz-adv-x="1126" d="M55 467q0 110 41 203t115 157q142 129 352 129q103 0 195 -33.5t160 -95.5q73 -64 113 -156.5t40 -203.5t-40 -204t-113 -157q-67 -61 -159.5 -93.5t-195.5 -32.5q-214 0 -352 126q-74 64 -115 157.5t-41 203.5zM168.5 1177q-4.5 14 9.5 31l295 334q20 23 43 23h94 q11 0 19 -3.5t11 -6.5t11 -13l295 -334q14 -17 10 -31t-24 -14h-170q-22 0 -32 6t-23 25l-144 162l-145 -162q-13 -18 -23.5 -24.5t-32.5 -6.5h-169q-20 0 -24.5 14zM324 467q0 -116 69 -195q70 -73 170 -73t170 73q70 80 70 195q0 117 -70 197q-68 71 -170 71t-170 -71 q-69 -79 -69 -197z" />
<glyph unicode="&#xf5;" horiz-adv-x="1126" d="M55 467q0 110 41 203t115 157q142 129 352 129q103 0 195 -33.5t160 -95.5q73 -64 113 -156.5t40 -203.5t-40 -204t-113 -157q-67 -61 -159.5 -93.5t-195.5 -32.5q-214 0 -352 126q-74 64 -115 157.5t-41 203.5zM188 1260q0 117 54 187.5t155 70.5q82 0 170 -64 q74 -53 119 -53q64 0 78 76q6 30 31 30h86q18 0 27.5 -9.5t9.5 -22.5q0 -118 -53 -189.5t-154 -71.5q-86 0 -168 62q-73 55 -121 55q-66 0 -80 -74q-6 -32 -31 -32h-86q-18 0 -27.5 10t-9.5 25zM324 467q0 -116 69 -195q70 -73 170 -73t170 73q70 80 70 195q0 117 -70 197 q-68 71 -170 71t-170 -71q-69 -79 -69 -197z" />
<glyph unicode="&#xf6;" horiz-adv-x="1126" d="M55 467q0 110 41 203t115 157q142 129 352 129q103 0 195 -33.5t160 -95.5q73 -64 113 -156.5t40 -203.5t-40 -204t-113 -157q-67 -61 -159.5 -93.5t-195.5 -32.5q-214 0 -352 126q-74 64 -115 157.5t-41 203.5zM170 1354q0 65 45 110t111 45q64 0 109.5 -45.5 t45.5 -109.5q0 -65 -45.5 -111.5t-109.5 -46.5q-65 0 -110.5 46.5t-45.5 111.5zM324 467q0 -116 69 -195q70 -73 170 -73t170 73q70 80 70 195q0 117 -70 197q-68 71 -170 71t-170 -71q-69 -79 -69 -197zM645 1354q0 65 45 110t111 45q64 0 108.5 -45t44.5 -110 t-44.5 -111.5t-108.5 -46.5q-65 0 -110.5 46.5t-45.5 111.5z" />
<glyph unicode="&#xf7;" horiz-adv-x="1196" d="M61 627v192q0 12 9 21.5t22 9.5h1010q13 0 23 -9.5t10 -21.5v-192q0 -13 -9.5 -23t-23.5 -10h-1010q-13 0 -22 9.5t-9 23.5zM434 266q0 69 48 116.5t116 47.5t115 -47.5t47 -116.5q0 -68 -47 -115t-115 -47t-116 47.5t-48 114.5zM434 1178q0 67 48 114t116 47 q66 0 114 -47t48 -114t-48 -114.5t-114 -47.5q-68 0 -116 47.5t-48 114.5z" />
<glyph unicode="&#xf8;" horiz-adv-x="1128" d="M55 467q0 110 41 203t115 157q142 129 352 129q152 0 275 -71l20 22q27 31 51 31h92q22 0 29 -14t-10 -31l-78 -90q129 -129 129 -336q0 -111 -40 -204t-113 -157q-67 -61 -159.5 -93.5t-195.5 -32.5q-154 0 -270 67l-14 -16q-8 -9 -11.5 -13t-10.5 -9t-13.5 -7t-14.5 -2 h-92q-25 0 -31 11.5t11 33.5l69 82q-131 134 -131 340zM324 467q0 -86 32 -143l326 378q-58 33 -119 33q-102 0 -170 -71q-69 -79 -69 -197zM449 227q51 -28 114 -28q100 0 170 73q70 80 70 195q0 70 -31 137z" />
<glyph unicode="&#xf9;" horiz-adv-x="1091" d="M82 403v504q0 13 9.5 22t21.5 9h209q12 0 21 -9t9 -22v-493q0 -74 27 -127q46 -86 166 -86q119 0 168 86q26 51 26 127v493q0 13 8.5 22t22.5 9h209q12 0 21.5 -9t9.5 -22v-504q0 -171 -82 -276q-118 -147 -383 -147q-263 0 -381 147q-82 105 -82 276zM324 1540 q0 11 8 18t20 7h187q27 0 43 -31l153 -311q10 -30 10 -33q0 -12 -7.5 -19.5t-18.5 -7.5h-141q-28 0 -48 33l-198 322q-8 11 -8 22z" />
<glyph unicode="&#xfa;" horiz-adv-x="1091" d="M82 403v504q0 13 9.5 22t21.5 9h209q12 0 21 -9t9 -22v-493q0 -74 27 -127q46 -86 166 -86q119 0 168 86q26 51 26 127v493q0 13 8.5 22t22.5 9h209q12 0 21.5 -9t9.5 -22v-504q0 -171 -82 -276q-118 -147 -383 -147q-263 0 -381 147q-82 105 -82 276zM340 1190 q0 9 12 33l154 311q16 31 43 31h184q12 0 20.5 -7.5t8.5 -17.5t-6 -22l-201 -322q-20 -33 -47 -33h-139q-12 0 -20.5 7.5t-8.5 19.5z" />
<glyph unicode="&#xfb;" horiz-adv-x="1091" d="M82 403v504q0 13 9.5 22t21.5 9h209q12 0 21 -9t9 -22v-493q0 -74 27 -127q46 -86 166 -86q119 0 168 86q26 51 26 127v493q0 13 8.5 22t22.5 9h209q12 0 21.5 -9t9.5 -22v-504q0 -171 -82 -276q-118 -147 -383 -147q-263 0 -381 147q-82 105 -82 276zM150 1177 q-4 14 10 31l295 334q20 23 43 23h94q11 0 19 -3.5t11 -6.5t11 -13l295 -334q14 -17 9.5 -31t-24.5 -14h-170q-22 0 -32 6t-23 25l-143 162l-146 -162q-13 -19 -23 -25t-32 -6h-170q-20 0 -24 14z" />
<glyph unicode="&#xfc;" horiz-adv-x="1091" d="M82 403v504q0 13 9.5 22t21.5 9h209q12 0 21 -9t9 -22v-493q0 -74 27 -127q46 -86 166 -86q119 0 168 86q26 51 26 127v493q0 13 8.5 22t22.5 9h209q12 0 21.5 -9t9.5 -22v-504q0 -171 -82 -276q-118 -147 -383 -147q-263 0 -381 147q-82 105 -82 276zM152 1354 q0 65 44.5 110t110.5 45q65 0 110.5 -45.5t45.5 -109.5q0 -65 -46 -111.5t-110 -46.5q-65 0 -110 46.5t-45 111.5zM627 1354q0 65 44.5 110t110.5 45q64 0 109 -45t45 -110t-45 -111.5t-109 -46.5q-65 0 -110 46.5t-45 111.5z" />
<glyph unicode="&#xfd;" horiz-adv-x="1093" d="M10 895q-14 43 25 43h252q40 0 51 -33l240 -633l200 633q8 33 51 33h232q38 0 24 -43l-356 -946q-71 -195 -188 -303q-159 -144 -414 -129q-11 0 -18 7t-7 17v207q0 25 25 25q6 0 26 -2t37 -2q91 0 154 49q53 44 94 116zM342 1190q0 9 12 33l154 311q16 31 43 31h184 q12 0 20.5 -7.5t8.5 -17.5t-6 -22l-201 -322q-20 -33 -47 -33h-139q-12 0 -20.5 7.5t-8.5 19.5z" />
<glyph unicode="&#xfe;" horiz-adv-x="1067" d="M96 -449v1813q0 12 9 21.5t22 9.5h209q12 0 21.5 -9.5t9.5 -21.5v-414q41 6 90 6q275 0 422 -147q131 -128 131 -342q0 -207 -111 -334q-68 -78 -171 -115.5t-218 -37.5q-83 0 -143 16v-445q0 -13 -9.5 -22.5t-21.5 -9.5h-209q-13 0 -22 9t-9 23zM367 219q50 -18 114 -18 q120 0 187 59q73 67 73 207q0 117 -65 192q-70 76 -193 76q-69 0 -116 -8v-508z" />
<glyph unicode="&#xff;" horiz-adv-x="1093" d="M10 895q-14 43 25 43h252q40 0 51 -33l240 -633l200 633q8 33 51 33h232q38 0 24 -43l-356 -946q-71 -195 -188 -303q-159 -144 -414 -129q-11 0 -18 7t-7 17v207q0 25 25 25q6 0 26 -2t37 -2q91 0 154 49q53 44 94 116zM154 1354q0 65 44.5 110t110.5 45 q65 0 110.5 -45.5t45.5 -109.5q0 -65 -46 -111.5t-110 -46.5q-65 0 -110 46.5t-45 111.5zM629 1354q0 65 44.5 110t110.5 45q64 0 109 -45t45 -110t-45 -111.5t-109 -46.5q-65 0 -110 46.5t-45 111.5z" />
<glyph unicode="&#x152;" horiz-adv-x="2355" d="M59 694q0 156 60.5 291.5t162.5 228.5t238.5 146t286.5 53q243 0 438 -131v82q0 12 10 21.5t23 9.5h987q13 0 23 -9.5t10 -21.5v-201q0 -12 -10 -21t-23 -9h-725v-302h619q12 0 21 -9t9 -21v-199q0 -13 -9 -23t-21 -10h-617q-2 -4 -2 -12v-297h725q14 0 23.5 -9t9.5 -22 v-198q0 -12 -10 -21.5t-23 -9.5h-987q-13 0 -23 9.5t-10 21.5v78q-192 -129 -438 -129q-201 0 -371.5 89t-273.5 254t-103 371zM373 694q0 -189 123.5 -314.5t310.5 -125.5t309.5 125.5t122.5 314.5t-123 316t-309 127q-187 0 -310.5 -127.5t-123.5 -315.5z" />
<glyph unicode="&#x153;" horiz-adv-x="1783" d="M55 467q0 110 41 203t115 157q142 129 352 129q103 0 195 -33.5t160 -95.5l12 -12l10 10q128 131 344 131q242 0 363 -163q101 -136 82 -361q0 -14 -8.5 -22.5t-22.5 -8.5h-611q11 -87 64 -143q64 -70 182 -70q121 0 230 66q30 16 47 -8l69 -129q10 -24 -14 -41 q-59 -41 -155.5 -68.5t-196.5 -27.5q-236 0 -373 137l-6 4l-16 -15q-67 -61 -159.5 -93.5t-195.5 -32.5q-214 0 -352 126q-74 64 -115 157.5t-41 203.5zM324 467q0 -116 69 -195q70 -73 170 -73t170 73q70 80 70 195v16q-6 107 -70 181q-68 71 -170 71t-170 -71 q-69 -79 -69 -197zM1087 565h383q-3 74 -45 125q-51 58 -139 58q-98 0 -147 -58q-43 -49 -52 -125z" />
<glyph unicode="&#x178;" horiz-adv-x="1353" d="M5.5 1379q5.5 16 29.5 16h268q35 0 51 -31l322 -492l323 492q19 31 54 31h268q24 0 29 -16t-9 -36l-518 -763v-549q0 -12 -9 -21.5t-21 -9.5h-234q-12 0 -21.5 9.5t-9.5 21.5v551l-514 761q-14 20 -8.5 36zM285 1763q0 65 44.5 110.5t110.5 45.5q64 0 110 -45.5 t46 -110.5t-46 -111t-110 -46q-65 0 -110 46t-45 111zM760 1763q0 65 44.5 110.5t110.5 45.5q64 0 109 -45.5t45 -110.5t-45 -111t-109 -46q-65 0 -110 46t-45 111z" />
<glyph unicode="&#x2c6;" horiz-adv-x="907" d="M60 1177q-4 14 10 31l295 334q20 23 43 23h94q11 0 19 -3.5t11 -6.5t11 -13l295 -334q14 -17 9.5 -31t-24.5 -14h-170q-22 0 -32 6t-23 25l-143 162l-146 -162q-13 -19 -23 -25t-32 -6h-170q-20 0 -24 14z" />
<glyph unicode="&#x2dc;" horiz-adv-x="884" d="M78 1260q0 117 54 187.5t155 70.5q82 0 170 -64q38 -27 64 -40t54 -13q64 0 78 76q6 30 31 30h86q18 0 27.5 -9.5t9.5 -22.5q0 -118 -53 -189.5t-154 -71.5q-86 0 -168 62q-73 55 -121 55q-66 0 -80 -74q-3 -17 -10 -24.5t-20 -7.5h-86q-18 0 -27.5 10t-9.5 25z" />
<glyph unicode="&#x2000;" horiz-adv-x="1002" />
<glyph unicode="&#x2001;" horiz-adv-x="2005" />
<glyph unicode="&#x2002;" horiz-adv-x="1002" />
<glyph unicode="&#x2003;" horiz-adv-x="2005" />
<glyph unicode="&#x2004;" horiz-adv-x="668" />
<glyph unicode="&#x2005;" horiz-adv-x="501" />
<glyph unicode="&#x2006;" horiz-adv-x="334" />
<glyph unicode="&#x2007;" horiz-adv-x="334" />
<glyph unicode="&#x2008;" horiz-adv-x="250" />
<glyph unicode="&#x2009;" horiz-adv-x="401" />
<glyph unicode="&#x200a;" horiz-adv-x="111" />
<glyph unicode="&#x2010;" horiz-adv-x="956" d="M135 477v193q0 13 9.5 22.5t21.5 9.5h625q12 0 21 -9.5t9 -22.5v-193q0 -12 -9 -21.5t-21 -9.5h-625q-12 0 -21.5 9.5t-9.5 21.5z" />
<glyph unicode="&#x2011;" horiz-adv-x="956" d="M135 477v193q0 13 9.5 22.5t21.5 9.5h625q12 0 21 -9.5t9 -22.5v-193q0 -12 -9 -21.5t-21 -9.5h-625q-12 0 -21.5 9.5t-9.5 21.5z" />
<glyph unicode="&#x2012;" horiz-adv-x="956" d="M135 477v193q0 13 9.5 22.5t21.5 9.5h625q12 0 21 -9.5t9 -22.5v-193q0 -12 -9 -21.5t-21 -9.5h-625q-12 0 -21.5 9.5t-9.5 21.5z" />
<glyph unicode="&#x2013;" horiz-adv-x="1363" d="M135 414v202q0 12 9.5 21.5t21.5 9.5h1032q12 0 21.5 -9.5t9.5 -21.5v-202q0 -12 -9.5 -21.5t-21.5 -9.5h-1032q-12 0 -21.5 9.5t-9.5 21.5z" />
<glyph unicode="&#x2014;" horiz-adv-x="2490" d="M135 414v202q0 12 9.5 21.5t21.5 9.5h2158q12 0 21.5 -9.5t9.5 -21.5v-202q0 -12 -9.5 -21.5t-21.5 -9.5h-2158q-12 0 -21.5 9.5t-9.5 21.5z" />
<glyph unicode="&#x2018;" horiz-adv-x="514" d="M76 1061q-4 115 80.5 220t201.5 138q32 10 43 -12l29 -43q17 -25 -8 -41q-35 -24 -50.5 -35t-37 -39.5t-21.5 -56.5q0 -22 13 -38.5t31.5 -29t37.5 -27t32 -42t13 -66.5q0 -69 -46.5 -112t-121.5 -43q-96 0 -145 60.5t-51 166.5z" />
<glyph unicode="&#x2019;" horiz-adv-x="514" d="M76 1260q0 69 46 112t122 43q94 0 143.5 -60.5t52.5 -166.5q1 -117 -83.5 -222.5t-200.5 -138.5q-32 -6 -45 13l-27 43q-17 25 8 43q35 24 50.5 35t37 39.5t21.5 56.5q0 22 -13 38.5t-31.5 29t-36.5 27t-31 42t-13 66.5z" />
<glyph unicode="&#x201a;" horiz-adv-x="501" d="M70 137q0 69 46 112.5t122 43.5q94 0 143.5 -60.5t52.5 -166.5q1 -117 -83.5 -222.5t-200.5 -136.5q-33 -9 -46 10l-26 43q-17 25 8 43q33 22 50 35t38 41t21 55q0 22 -13 38.5t-31.5 29t-36.5 27t-31 42t-13 66.5z" />
<glyph unicode="&#x201c;" horiz-adv-x="972" d="M74 1061q-3 115 82 220t202 138q30 9 43 -12l29 -43q16 -24 -8 -41q-35 -24 -50.5 -35t-37 -39.5t-21.5 -56.5q0 -22 13 -38.5t31.5 -29t36.5 -27t31 -42t13 -66.5q0 -69 -46.5 -112t-121.5 -43q-95 0 -144 60t-52 167zM535 1061q-4 115 80.5 220t201.5 138q32 10 43 -12 l29 -43q17 -25 -8 -41q-35 -24 -50.5 -35t-37 -39.5t-21.5 -56.5q0 -22 13 -38.5t32 -29t37.5 -27t31.5 -42t13 -66.5q0 -69 -46.5 -112t-121.5 -43q-96 0 -145 60.5t-51 166.5z" />
<glyph unicode="&#x201d;" horiz-adv-x="972" d="M76 1260q0 69 46 112t122 43q94 0 143.5 -60.5t52.5 -166.5q3 -116 -82.5 -222t-201.5 -139q-32 -6 -45 13l-27 43q-17 25 8 43q35 24 50.5 35t37 39.5t21.5 56.5q0 22 -13 38.5t-31.5 29t-36.5 27t-31 42t-13 66.5zM535 1260q0 69 46 112t121 43q96 0 145.5 -60.5 t51.5 -166.5q3 -116 -82 -222t-201 -139q-32 -6 -45 13l-26 43q-18 27 8 43q2 1 16 11t18.5 13.5t17.5 13.5t18.5 16t14.5 16.5t13 19t7.5 19.5t3.5 22q0 22 -13 38.5t-32 29t-37.5 27t-31.5 42t-13 66.5z" />
<glyph unicode="&#x201e;" horiz-adv-x="962" d="M70 137q0 69 46 112.5t122 43.5q94 0 143.5 -60.5t52.5 -166.5q1 -117 -83.5 -222.5t-200.5 -136.5q-33 -9 -46 10l-26 43q-17 25 8 43q33 22 50 35t38 41t21 55q0 22 -13 38.5t-31.5 29t-36.5 27t-31 42t-13 66.5zM528 137q0 69 46.5 112.5t121.5 43.5q96 0 145.5 -60.5 t51.5 -166.5q3 -117 -82 -222.5t-201 -136.5q-32 -8 -45 10l-26 43q-18 27 8 43q65 46 85 71q23 30 23 60q0 22 -13 38.5t-31.5 29t-37.5 27t-32 42t-13 66.5z" />
<glyph unicode="&#x2022;" horiz-adv-x="978" d="M76 698q0 170 121.5 292t291.5 122t292 -122t122 -292t-122 -291.5t-292 -121.5t-291.5 121.5t-121.5 291.5z" />
<glyph unicode="&#x2026;" horiz-adv-x="1830" d="M68 143q0 69 46.5 115.5t114.5 46.5t115 -46.5t47 -115.5q0 -67 -47 -114t-115 -47q-67 0 -114 47t-47 114zM752 143q0 69 47.5 115.5t115.5 46.5t115 -46.5t47 -115.5q0 -67 -47 -114t-115 -47t-115.5 47t-47.5 114zM1438 143q0 69 46.5 115.5t114.5 46.5t116 -47 t48 -115q0 -67 -48 -114t-116 -47q-67 0 -114 47t-47 114z" />
<glyph unicode="&#x202f;" horiz-adv-x="401" />
<glyph unicode="&#x2039;" horiz-adv-x="743" d="M35 471q0 14 24 45l344 395q18 20 31 26.5t35 6.5h201q29 0 36 -19t-12 -42l-348 -412l348 -414q19 -25 12 -42t-36 -17h-201q-23 0 -36 6t-30 25l-344 395q-24 27 -24 47z" />
<glyph unicode="&#x203a;" horiz-adv-x="743" d="M36 15q-7 17 13 42l348 414l-348 412q-20 23 -13 42t38 19h200q22 0 35 -6.5t31 -26.5l344 -395q3 -4 11 -14.5t11 -17t3 -13.5q0 -14 -25 -47l-344 -395q-17 -19 -30 -25t-36 -6h-200q-31 0 -38 17z" />
<glyph unicode="&#x205f;" horiz-adv-x="501" />
<glyph unicode="&#x20ac;" horiz-adv-x="1208" d="M-45 510v88q0 13 9.5 22t23.5 9h94q-4 46 -4 69q0 22 4 62h-94q-13 0 -23 9.5t-10 21.5v88q0 12 10 21t23 9h123q58 188 211 322q98 87 224.5 135.5t262.5 48.5q232 0 416 -98q10 -4 14 -17.5t-2 -23.5l-92 -199q-12 -24 -39 -12q-157 84 -303 84q-126 0 -234 -80 q-82 -59 -135 -160h561q13 0 23 -9t10 -21v-88q0 -12 -10 -21.5t-23 -9.5h-612q-2 -20 -2 -62q0 -46 2 -69h506q14 0 23.5 -9t9.5 -22v-88q0 -12 -10 -21.5t-23 -9.5h-453q40 -91 121 -153q107 -78 248 -78q166 0 313 84q27 11 39 -13l90 -198q6 -11 2.5 -23t-14.5 -18 q-189 -100 -426 -100q-261 0 -447 129q-194 130 -256 370h-118q-13 0 -23 9.5t-10 21.5z" />
<glyph unicode="&#x2122;" horiz-adv-x="1624" d="M49 1339v91q0 12 10 21t23 9h565q12 0 21.5 -9t9.5 -21v-91q0 -12 -9.5 -21t-21.5 -9h-201v-551q0 -12 -8.5 -21.5t-21.5 -9.5h-103q-12 0 -21 9.5t-9 21.5v551h-201q-13 0 -23 9t-10 21zM768 756v674q0 12 9.5 21t21.5 9h90q20 0 31.5 -6.5t23.5 -26.5l199 -335l196 335 q10 20 22.5 26.5t33.5 6.5h90q13 0 23 -9t10 -21v-674q0 -12 -10 -21.5t-23 -9.5h-99q-12 0 -21 9.5t-9 21.5v407l-148 -250q-18 -30 -47 -30h-41q-19 0 -29 7t-20 23l-143 250v-407q0 -12 -9.5 -21.5t-21.5 -9.5h-98q-12 0 -21.5 9.5t-9.5 21.5z" />
<glyph unicode="&#x25fc;" horiz-adv-x="942" d="M0 0v942h942v-942h-942z" />
</font>
</defs>
</svg>
