<?xml version="1.0" standalone="no"?>
<!DOCTYPE svg PUBLIC "-//W3C//DTD SVG 1.1//EN" "http://www.w3.org/Graphics/SVG/1.1/DTD/svg11.dtd" >
<svg xmlns="http://www.w3.org/2000/svg">
<metadata>
Created by FontPrep 20130207 at Fri Jun  5 16:11:25 2015
 By Malliapi, Chris (UK - London)
Copyright (c) 2014 by Rene' Bieder. All rights reserved.
</metadata>
<defs>
<font id="17fd4643737cd77b2b8ae701bb3ac19e" horiz-adv-x='1024' >
  <font-face 
    font-family="GalanoGrotesque-Light"
    font-weight="300"
    font-stretch="normal"
    units-per-em="2048"
    panose-1="0 0 4 0 0 0 0 0 0 0"
    ascent="1638"
    descent="-410"
    x-height="1001"
    cap-height="1372"
    bbox="-354 -402.87 2423.01 1917"
    underline-thickness="102"
    underline-position="-102"
    unicode-range="U+0020-FB02"
  />
<missing-glyph horiz-adv-x="1644" 
d="M813 393q19 0 35 -14q16 -15 16 -35t-15 -36t-35 -15q-20 0 -37 15q-15 16 -15 36t15 35q16 14 36 14zM1090 825q0 -101 -69 -165t-175 -72v-103h-66v164h39q86 0 143 47q56 47 56 125t-52 126t-142 48t-145 -56q-54 -56 -54 -148l-70 10q0 113 76 185q75 72 193 73
q118 0 192 -66t74 -168zM822 1343q-270 0 -460 -187t-190 -471t190 -471t460 -187t461 187q189 187 189 471t-189 471q-190 187 -461 187zM822 1399q296 0 504 -204t208 -511t-208 -511t-504 -204t-504 204t-208 511t208 511t504 204z" />
    <glyph glyph-name="fi" unicode="fi" horiz-adv-x="1243" 
d="M897 1307q1 33 23 55t56 22t56 -22t23 -56q0 -32 -23 -54q-22 -22 -56 -22t-56 22t-23 55zM1026 1001v-1001h-98v915h-602v-915h-101v915h-184v86h184v179q0 154 86 242t234 89q106 0 190 -55l-33 -78q-68 43 -162 43t-154 -65q-60 -66 -60 -176v-179h700z" />
    <glyph glyph-name="fl" unicode="fl" horiz-adv-x="1210" 
d="M1014 1475v-1475h-101v1475h101zM326 1001h395v-86h-395v-915h-101v915h-184v86h184v179q0 152 85 242t233 89q82 0 157 -32l-30 -84q-53 27 -121 26q-104 0 -164 -65q-59 -66 -59 -176v-179z" />
    <glyph glyph-name=".notdef" horiz-adv-x="1644" 
d="M813 393q19 0 35 -14q16 -15 16 -35t-15 -36t-35 -15q-20 0 -37 15q-15 16 -15 36t15 35q16 14 36 14zM1090 825q0 -101 -69 -165t-175 -72v-103h-66v164h39q86 0 143 47q56 47 56 125t-52 126t-142 48t-145 -56q-54 -56 -54 -148l-70 10q0 113 76 185q75 72 193 73
q118 0 192 -66t74 -168zM822 1343q-270 0 -460 -187t-190 -471t190 -471t460 -187t461 187q189 187 189 471t-189 471q-190 187 -461 187zM822 1399q296 0 504 -204t208 -511t-208 -511t-504 -204t-504 204t-208 511t208 511t504 204z" />
    <glyph glyph-name=".null" horiz-adv-x="0" 
 />
    <glyph glyph-name="nonmarkingreturn" horiz-adv-x="681" 
 />
    <glyph glyph-name="space" unicode=" " horiz-adv-x="524" 
 />
    <glyph glyph-name="exclam" unicode="!" horiz-adv-x="532" 
d="M266 147q33 -1 56 -23q22 -22 22 -54t-22 -55q-22 -21 -57 -21t-57 22t-22 55q0 32 24 54t56 22zM319 1372v-63l-2 -922h-100l-4 922v63h106z" />
    <glyph glyph-name="quotedbl" unicode="&#x22;" horiz-adv-x="602" 
d="M385 823v549h100v-549h-100zM119 823v549h100v-549h-100z" />
    <glyph glyph-name="numbersign" unicode="#" horiz-adv-x="1376" 
d="M969 895h-447l-112 -440h444zM1059 895l-113 -440h223l-22 -88h-223l-95 -367h-92l94 367h-444l-94 -367h-94l94 367h-223l24 88h221l113 440h-223l24 86h222l100 391h92l-100 -391h446l101 391h92l-101 -391h224l-25 -86h-221z" />
    <glyph glyph-name="dollar" unicode="$" horiz-adv-x="1187" 
d="M973 381q1 107 -59 157t-173 76l-96 23v-516q150 4 239 78t89 182zM260 1000q0 -104 57 -151q57 -48 166 -75l76 -18v497q-133 -9 -216 -79t-83 -174zM1073 395q0 -162 -117 -260t-309 -104v-236h-90v240q-182 17 -306 121t-138 262l102 22q15 -133 109 -216t235 -99v532
l-110 27q-295 63 -295 303q0 154 111 249q112 95 292 105v236h90v-238q170 -14 278 -111t124 -239l-99 -20q-14 117 -97 191t-208 89v-512l119 -28q309 -68 309 -314z" />
    <glyph glyph-name="percent" unicode="%" horiz-adv-x="1746" 
d="M1303 551q-101 0 -179 -71q-78 -70 -78 -180t78 -178q76 -68 178 -69q102 0 178 69q76 68 76 178t-76 180t-177 71zM1303 623q137 0 234 -89q97 -88 97 -232t-98 -234t-233 -90t-235 90q-100 92 -99 234q0 142 98 232q99 89 236 89zM446 1323q-102 0 -179 -71
q-77 -70 -77 -180t77 -178t178 -69q101 0 179 69q76 68 76 178t-76 180t-178 71zM301 0l1036 1372h80l-1036 -1372h-80zM446 1395q136 0 234 -89q98 -90 98 -232t-98 -233t-234 -91t-234 91q-99 91 -99 233t98 232t235 89z" />
    <glyph glyph-name="ampersand" unicode="&#x26;" horiz-adv-x="1468" 
d="M633 63q242 0 389 179l-342 280q-113 88 -201 172q-238 -106 -237 -321q0 -139 107 -225q108 -85 284 -85zM633 -23q-221 0 -355 109t-135 287q0 129 77 229t200 156q-123 139 -123 291q0 153 105 249q106 96 268 96t264 -89q102 -90 121 -254l-92 -21q-15 143 -93 211
t-200 68t-198 -73q-77 -72 -77 -188t81 -216t278 -257l317 -260q68 125 68 291v82h90v-82q0 -201 -86 -348l268 -219l-57 -70l-262 215q-166 -207 -459 -207z" />
    <glyph glyph-name="quotesingle" unicode="'" horiz-adv-x="335" 
d="M119 823v549h100v-549h-100z" />
    <glyph glyph-name="parenleft" unicode="(" horiz-adv-x="708" 
d="M236 685q0 -225 78 -417t266 -372l-68 -64q-383 350 -383 853t383 853l68 -65q-188 -178 -266 -370t-78 -418z" />
    <glyph glyph-name="parenright" unicode=")" horiz-adv-x="708" 
d="M580 685q0 -503 -383 -853l-68 64q188 180 266 371t78 417t-78 419q-78 192 -266 370l68 65q383 -350 383 -853z" />
    <glyph glyph-name="asterisk" unicode="*" horiz-adv-x="851" 
d="M465 768h-78v291l-256 -146l-37 62l260 147l-260 148l37 63l256 -145v287h78v-289l258 147l37 -63l-260 -148l260 -147l-37 -62l-258 146v-291z" />
    <glyph glyph-name="plus" unicode="+" horiz-adv-x="1187" 
d="M1034 580h-395v-398h-90v398h-395v90h395v397h90v-397h395v-90z" />
    <glyph glyph-name="comma" unicode="," horiz-adv-x="387" 
d="M299 264v-6l-182 -528h-80l141 534h121z" />
    <glyph glyph-name="hyphen" unicode="-" horiz-adv-x="903" 
d="M780 477h-657v90h657v-90z" />
    <glyph glyph-name="period" unicode="." horiz-adv-x="382" 
d="M193 147q33 -1 55 -23t22 -54t-22 -55q-22 -21 -56 -21t-57 22t-23 55q0 32 24 54t57 22z" />
    <glyph glyph-name="slash" unicode="/" horiz-adv-x="702" 
d="M690 1516l-590 -1663h-88l590 1663h88z" />
    <glyph glyph-name="zero" unicode="0" horiz-adv-x="1361" 
d="M680 74q205 0 330 168t125 444t-125 446t-330 168q-205 0 -329 -168t-124 -444t124 -445t329 -169zM680 1395q250 0 404 -196t155 -513q0 -317 -155 -513q-154 -196 -404 -196t-404 196t-153 513q0 317 153 513q154 196 404 196z" />
    <glyph glyph-name="one" unicode="1" horiz-adv-x="712" 
d="M520 1372v-1372h-102v1243l-381 -219v100l420 248h63z" />
    <glyph glyph-name="two" unicode="2" horiz-adv-x="1044" 
d="M981 94v-94h-918v66l502 456q166 148 232 240q65 92 65 227t-95 225t-252 90t-255 -98t-100 -266l-97 16q3 199 129 319t326 120t322 -114q123 -114 123 -300q0 -147 -74 -253t-260 -275l-396 -359h748z" />
    <glyph glyph-name="three" unicode="3" horiz-adv-x="1214" 
d="M618 -23q-210 0 -345 124q-134 124 -144 327l98 18q9 -172 115 -275t276 -103t269 87q100 87 100 223t-94 210t-260 74h-184v88h180q149 0 239 70t90 197q0 126 -94 207t-253 81q-159 1 -258 -95t-109 -260l-97 19q13 193 139 309t326 117t322 -105q121 -106 121 -278
q-1 -116 -65 -196t-179 -109q129 -27 201 -111t71 -211q0 -182 -127 -295q-128 -113 -338 -113z" />
    <glyph glyph-name="four" unicode="4" horiz-adv-x="1271" 
d="M868 444v807l-667 -807h667zM1206 356h-237v-356h-101v356h-780v105l758 911h123v-928h237v-88z" />
    <glyph glyph-name="five" unicode="5" horiz-adv-x="1144" 
d="M604 799q207 -1 326 -101t119 -292t-130 -311q-130 -118 -343 -118t-350 126q-136 126 -138 339l102 21q0 -181 108 -287t278 -106t271 92t101 242t-93 227q-93 76 -257 76h-418l35 665h784v-94h-690l-26 -479h321z" />
    <glyph glyph-name="six" unicode="6" horiz-adv-x="1245" 
d="M653 72q164 0 266 105q101 105 101 260t-102 257t-270 102t-274 -108q-106 -110 -106 -262t110 -253t275 -101zM659 887q209 0 336 -128t127 -326t-129 -327t-340 -129q-256 1 -393 175t-137 489q0 416 188 610q139 143 353 144q156 0 268 -76t149 -213l-100 -19
q-29 105 -114 161t-208 57q-172 0 -282 -121q-166 -184 -154 -549v-31q43 125 163 204t273 79z" />
    <glyph glyph-name="seven" unicode="7" horiz-adv-x="1003" 
d="M971 1372v-67l-570 -1305h-116l569 1278h-801v94h918z" />
    <glyph glyph-name="eight" unicode="8" horiz-adv-x="1193" 
d="M598 70q172 0 279 80q106 80 106 210t-103 212q-104 83 -280 83t-282 -83t-105 -214q0 -131 106 -210q107 -78 279 -78zM238 1034q0 -124 98 -200t263 -76t262 78t97 200t-99 197q-99 76 -260 76t-261 -76t-100 -199zM1096 356q0 -170 -136 -274t-361 -104
q-224 0 -361 104t-138 274q0 123 81 219t247 132q-147 35 -219 125t-72 208q0 160 126 257t335 97t335 -96q126 -98 126 -258q-1 -116 -71 -208t-220 -125q166 -33 247 -131t81 -220z" />
    <glyph glyph-name="nine" unicode="9" horiz-adv-x="1245" 
d="M598 575q168 0 273 109q105 110 105 262t-109 253t-273 101t-266 -105t-102 -259t102 -258t270 -103zM594 1395q254 0 391 -174t137 -490q0 -416 -186 -610q-139 -143 -352 -144q-156 0 -269 76t-151 213l100 19q31 -107 116 -161t208 -54q172 0 280 118q164 182 156 549
l-2 33q-41 -127 -162 -205t-272 -78q-211 0 -338 127t-127 325t130 327t341 129z" />
    <glyph glyph-name="colon" unicode=":" horiz-adv-x="382" 
d="M193 147q33 -1 55 -23t22 -54t-22 -55q-22 -21 -56 -21t-57 22t-23 55q0 32 24 54t57 22zM193 922q33 0 55 -23t22 -55t-22 -52q-22 -22 -56 -22t-57 22t-23 54t24 54t57 22z" />
    <glyph glyph-name="semicolon" unicode=";" horiz-adv-x="434" 
d="M299 264v-6l-182 -528h-80l141 534h121zM242 922q32 0 56 -23t24 -55t-23 -52q-23 -22 -57 -22t-57 22q-21 22 -21 54t22 54t56 22z" />
    <glyph glyph-name="less" unicode="&#x3c;" horiz-adv-x="880" 
d="M801 248l-738 344v90l738 344v-106l-611 -283l611 -285v-104z" />
    <glyph glyph-name="equal" unicode="=" horiz-adv-x="1187" 
d="M1034 416h-880v88h880v-88zM1034 793h-880v90h880v-90z" />
    <glyph glyph-name="greater" unicode="&#x3e;" horiz-adv-x="880" 
d="M692 637l-610 283v106l737 -344v-90l-737 -344v104z" />
    <glyph glyph-name="question" unicode="?" horiz-adv-x="1056" 
d="M512 147q32 -1 56 -23t24 -54t-23 -54t-57 -22t-56 22t-22 54q0 33 22 55t56 22zM536 1395q202 0 324 -115t123 -295q0 -180 -119 -292t-303 -122v-180h-96v262h57q154 0 258 90q104 89 104 235t-96 236t-254 90t-256 -100q-99 -102 -104 -266l-96 18q4 193 130 316
t328 123z" />
    <glyph glyph-name="at" unicode="@" horiz-adv-x="1980" 
d="M957 223q136 0 230 96q93 96 93 250t-93 247t-229 93t-233 -94q-96 -94 -96 -248t96 -249t232 -95zM990 1395q360 1 602 -223q241 -224 241 -566q0 -265 -134 -395q-75 -72 -181 -72t-170 52q-63 52 -68 143q-109 -184 -330 -184q-170 0 -286 116t-117 302q0 185 117 302
t286 117q106 0 192 -49t138 -137v166h76v-617q0 -66 45 -106t117 -39q119 0 179 118t60 281q0 315 -219 520t-547 205t-548 -214q-220 -215 -220 -537t217 -538t527 -216q123 0 256 36t227 99l39 -63q-95 -66 -241 -104t-279 -38q-342 0 -581 234t-238 587q0 354 240 587
t600 233z" />
    <glyph glyph-name="A" unicode="A" horiz-adv-x="1402" 
d="M1051 469l-349 772l-348 -772h697zM1372 0h-110l-168 375h-783l-170 -375h-110l624 1372h93z" />
    <glyph glyph-name="B" unicode="B" horiz-adv-x="1378" 
d="M301 90h537q145 0 233 79t88 206t-89 201t-234 73h-535v-559zM301 1282v-547h528q129 0 209 78t80 201q0 124 -85 196t-234 72h-498zM1264 356q0 -150 -113 -254q-113 -102 -305 -102h-649v1372h610q193 0 301 -96t109 -240q0 -144 -72 -232t-176 -104v-4
q133 -14 214 -102t81 -238z" />
    <glyph glyph-name="C" unicode="C" horiz-adv-x="1607" 
d="M836 74q193 0 337 94t205 256l101 -25q-70 -195 -242 -308.5t-401 -113.5q-297 0 -502 206t-205 503t205 503t502 206q229 0 401 -113t242 -303l-99 -31q-59 162 -204.5 256t-339.5 94q-254 0 -429.5 -177t-175.5 -435t175.5 -435t429.5 -177z" />
    <glyph glyph-name="D" unicode="D" horiz-adv-x="1517" 
d="M301 94h324q313 0 487 169t174 423t-174 423t-487 169h-324v-1184zM197 1372h430q358 0 560 -196t202 -490t-202 -490t-560 -196h-430v1372z" />
    <glyph glyph-name="E" unicode="E" horiz-adv-x="1308" 
d="M301 1278v-543h817v-92h-817v-549h879v-94h-983v1372h983v-94h-879z" />
    <glyph glyph-name="F" unicode="F" horiz-adv-x="1204" 
d="M301 1278v-549h793v-94h-793v-635h-104v1372h962v-94h-858z" />
    <glyph glyph-name="G" unicode="G" horiz-adv-x="1648" 
d="M754 731h764q2 -16 2 -45q0 -301 -191.5 -505t-490.5 -204t-504 205t-205 504t204 504t501 205q225 0 395 -103.5t244 -283.5l-93 -35q-70 154 -213 239.5t-333 85.5q-254 0 -427.5 -177t-173.5 -435t175.5 -435t425.5 -177t409.5 160.5t175.5 402.5h-665v94z" />
    <glyph glyph-name="H" unicode="H" horiz-adv-x="1509" 
d="M1313 1372v-1372h-103v645h-909v-645h-104v1372h104v-633h909v633h103z" />
    <glyph glyph-name="I" unicode="I" horiz-adv-x="497" 
d="M301 0h-104v1372h104v-1372z" />
    <glyph glyph-name="J" unicode="J" horiz-adv-x="1218" 
d="M1038 1372v-866q0 -236 -136 -382t-346 -146t-342 120q-132 121 -157 318l99 22q20 -166 124 -266t272 -100t276 121t108 313v866h102z" />
    <glyph glyph-name="K" unicode="K" horiz-adv-x="1374" 
d="M301 637v-637h-104v1372h104v-641h66l749 641h133l-796 -688l843 -684h-143l-780 637h-72z" />
    <glyph glyph-name="L" unicode="L" horiz-adv-x="1193" 
d="M1128 94v-94h-931v1372h104v-1278h827z" />
    <glyph glyph-name="M" unicode="M" horiz-adv-x="1849" 
d="M1653 1372v-1372h-101v1147l-596 -1147h-63l-596 1147v-1147h-100v1372h92l637 -1220l637 1220h90z" />
    <glyph glyph-name="N" unicode="N" horiz-adv-x="1556" 
d="M1358 1372v-1372h-92l-965 1194v-1194h-104v1372h92l966 -1202v1202h103z" />
    <glyph glyph-name="O" unicode="O" horiz-adv-x="1660" 
d="M830 74q253 0 426 176q174 176 174 435t-174 436t-426 177q-253 0 -426 -177t-173 -436t173 -435t426 -176zM831 1395q295 0 498 -206t203 -504t-203 -503t-499 -205t-498 205t-203 503t203 504t499 206z" />
    <glyph glyph-name="P" unicode="P" horiz-adv-x="1316" 
d="M301 649h475q162 0 260 88q98 87 98 227t-98 227t-260 87h-475v-629zM197 1372h579q209 0 336 -114t127 -294t-127 -295q-127 -114 -336 -114h-475v-555h-104v1372z" />
    <glyph glyph-name="Q" unicode="Q" horiz-adv-x="1660" 
d="M231 685q0 -259 173 -435t426 -176t426 176q174 176 174 435t-174 436t-426 177q-253 0 -426 -177t-173 -436zM831 -23q-297 0 -499 205t-203 503q0 298 204 504q205 206 499 206t497 -206t203 -503q0 -178 -77 -330t-212 -247l305 -363l-80 -72l-317 379
q-147 -76 -320 -76z" />
    <glyph glyph-name="R" unicode="R" horiz-adv-x="1368" 
d="M301 723h520q145 0 234.5 77t89.5 201.5t-89 200.5t-235 76h-520v-555zM301 631v-631h-104v1372h624q193 0 309.5 -101.5t116.5 -269t-116.5 -269t-309.5 -101.5h-88l570 -631h-136l-565 631h-301z" />
    <glyph glyph-name="S" unicode="S" horiz-adv-x="1267" 
d="M627 1395q205 0 337 -100.5t166 -266.5l-102 -24q-27 137 -133.5 219t-265 82t-258 -78t-99.5 -195.5t62.5 -172t181.5 -81.5l301 -71q137 -27 236.5 -103.5t99.5 -244.5t-134 -275t-357 -107t-375 110t-174 298l110 25q18 -158 141 -249t302.5 -91t282 79.5t102.5 203
t-60.5 176.5t-195.5 83l-318 74q-315 74 -315 330q0 172 130 275.5t335 103.5z" />
    <glyph glyph-name="T" unicode="T" horiz-adv-x="1290" 
d="M1233 1278h-535v-1278h-106v1278h-535v94h1176v-94z" />
    <glyph glyph-name="U" unicode="U" horiz-adv-x="1484" 
d="M1307 1372v-780q0 -276 -155 -446t-409 -169q-253 0 -409 169t-156 446v780h105v-780q0 -232 127 -374q126 -142 334 -142t334 141t126 375v780h103z" />
    <glyph glyph-name="V" unicode="V" horiz-adv-x="1390" 
d="M1348 1372l-605 -1372h-96l-604 1372h113l538 -1229l541 1229h113z" />
    <glyph glyph-name="W" unicode="W" horiz-adv-x="1943" 
d="M1898 1372l-432 -1372h-104l-391 1208l-391 -1208h-103l-434 1372h109l380 -1212l390 1212h100l389 -1212l379 1212h108z" />
    <glyph glyph-name="X" unicode="X" horiz-adv-x="1263" 
d="M1092 0l-461 623l-459 -623h-129l512 690l-496 682h127l445 -614l446 614h127l-497 -682l514 -690h-129z" />
    <glyph glyph-name="Y" unicode="Y" horiz-adv-x="1351" 
d="M727 0h-104v500l-580 872h117l516 -772l514 772h119l-582 -872v-500z" />
    <glyph glyph-name="Z" unicode="Z" horiz-adv-x="1282" 
d="M1167 90v-90h-1036v66l899 1216h-872v90h1007v-72l-889 -1210h891z" />
    <glyph glyph-name="bracketleft" unicode="[" horiz-adv-x="786" 
d="M297 1427v-1507h362v-88h-462v1684h462v-89h-362z" />
    <glyph glyph-name="backslash" unicode="\" horiz-adv-x="702" 
d="M690 -147h-88l-590 1663h88z" />
    <glyph glyph-name="bracketright" unicode="]" horiz-adv-x="786" 
d="M590 1516v-1684h-461v88h363v1507h-363v89h461z" />
    <glyph glyph-name="asciicircum" unicode="^" horiz-adv-x="755" 
d="M154 961h-97l287 411h70l286 -411h-98l-223 317z" />
    <glyph glyph-name="underscore" unicode="_" horiz-adv-x="999" 
d="M958 -201h-917v86h917v-86z" />
    <glyph glyph-name="grave" unicode="`" horiz-adv-x="1228" 
d="M487 1444l179 -283h-91l-202 283h114z" />
    <glyph glyph-name="a" unicode="a" horiz-adv-x="1318" 
d="M182 500q0 -196 121 -314t295 -118t299 120t125 314t-126 314t-298 120t-294 -120t-122 -316zM1122 1001v-1001h-100v211q-66 -111 -180 -172t-250 -62q-212 -1 -360 145t-148 378t148 380q148 146 360 146q137 0 251 -62t179 -173v210h100z" />
    <glyph glyph-name="b" unicode="b" horiz-adv-x="1335" 
d="M297 502q0 -192 125 -314q125 -120 299 -120t295 118t121 315q0 195 -122 315t-294 120t-298 -121t-126 -313zM729 1026q211 0 358 -146t147 -378t-146 -378q-148 -146 -359 -147q-137 1 -252 63t-180 175v-215h-100v1475h100v-687q67 114 181 176t251 62z" />
    <glyph glyph-name="c" unicode="c" horiz-adv-x="1179" 
d="M616 70q129 0 231.5 63.5t137.5 175.5l92 -26q-39 -139 -168 -222.5t-293 -83.5q-215 0 -365.5 145.5t-150.5 377.5t151.5 379t364.5 147q162 0 290 -86t173 -229l-94 -31q-35 119 -137.5 185.5t-231.5 66.5q-174 0 -295.5 -121t-121.5 -313t120.5 -310t296.5 -118z" />
    <glyph glyph-name="d" unicode="d" horiz-adv-x="1335" 
d="M614 68q174 0 299 120t125 314t-126 314t-298 120t-294 -120t-121 -316q0 -196 120 -314q121 -118 295 -118zM1139 1475v-1475h-101v215q-66 -113 -180 -175t-252 -63q-211 -1 -358 145q-148 146 -148 378t148 380q148 146 358 146q137 0 252 -62t180 -176v687h101z" />
    <glyph glyph-name="e" unicode="e" horiz-adv-x="1204" 
d="M620 936q-154 0 -275.5 -100.5t-141.5 -266.5h803q-18 172 -125 269.5t-261 97.5zM1083 301q-117 -324 -491 -324q-188 0 -340 143.5t-152 378.5t154 381t362.5 146t345 -138.5t144.5 -359.5v-36h-907q2 -193 124.5 -309.5t282.5 -116.5q287 0 389 256z" />
    <glyph glyph-name="f" unicode="f" horiz-adv-x="716" 
d="M721 915h-395v-915h-101v915h-184v86h184v179q0 152 85 242t233 89q82 0 157 -32l-30 -84q-53 27 -121 26q-104 0 -164 -65q-59 -66 -59 -176v-179h395v-86z" />
    <glyph glyph-name="g" unicode="g" horiz-adv-x="1302" 
d="M605 145q169 0 286 111t117 287q0 177 -117 285t-286 108t-289 -109t-120 -285t120 -287q120 -110 289 -110zM1106 1001v-929q-2 -211 -135 -336t-353 -125q-375 0 -493 280l88 54q109 -242 405 -242q174 0 281 103q106 103 109 276v190q-131 -215 -410 -215
q-207 1 -352 137q-146 136 -146 348t146 347t352 135q281 0 410 -213v190h98z" />
    <glyph glyph-name="h" unicode="h" horiz-adv-x="1286" 
d="M709 1026q179 0 291 -119t112 -311v-596h-100v582q0 158 -87 254t-229 96q-182 0 -290 -116t-109 -314v-502h-100v1475h100v-687q123 238 412 238z" />
    <glyph glyph-name="i" unicode="i" horiz-adv-x="532" 
d="M315 0h-98v1001h98v-1001zM186 1307q0 33 22 55t57 22q34 0 57 -22q22 -22 22 -56q0 -32 -22 -54t-57 -22t-57 22t-22 55z" />
    <glyph glyph-name="j" unicode="j" horiz-adv-x="571" 
d="M256 -127v1128h98v-1138q0 -103 -63 -167t-155 -64t-156 34l26 84q46 -24 106 -24t102 41t42 106zM305 1384q33 0 57 -22t23 -56q0 -32 -23 -54q-24 -22 -58 -22t-56 22t-23 55t23 55t57 22z" />
    <glyph glyph-name="k" unicode="k" horiz-adv-x="1153" 
d="M297 469v-469h-100v1475h100v-910h78l555 436h135l-614 -487l686 -514h-148l-624 469h-68z" />
    <glyph glyph-name="l" unicode="l" horiz-adv-x="493" 
d="M297 0h-100v1475h100v-1475z" />
    <glyph glyph-name="m" unicode="m" horiz-adv-x="1935" 
d="M1759 662v-662h-100v647q0 129 -79 207q-78 78 -222 78t-238 -109t-94 -297v-526h-100v647q0 129 -79 207t-221 78t-236 -110q-93 -110 -93 -296v-526h-100v1001h100v-196q109 221 365 221q125 0 218 -63t128 -172q116 235 402 235q146 0 247 -100q102 -100 102 -264z
" />
    <glyph glyph-name="n" unicode="n" horiz-adv-x="1286" 
d="M709 1026q180 0 291.5 -119t111.5 -311v-596h-100v582q0 158 -87 254t-229 96q-182 0 -290.5 -116t-108.5 -314v-502h-100v1001h100v-213q123 238 412 238z" />
    <glyph glyph-name="o" unicode="o" horiz-adv-x="1253" 
d="M627 68q180 0 304 124t124 310q0 188 -123 311t-305 123t-305 -123t-123 -310t124 -311t304 -124zM627 1024q223 0 375 -148t151 -374q0 -226 -152 -375q-153 -150 -375 -150t-374 150t-152 375q0 226 152 374t375 148z" />
    <glyph glyph-name="p" unicode="p" horiz-adv-x="1335" 
d="M297 502q0 -192 125 -314q125 -120 299 -120t295 118t121 315q0 195 -122 315t-294 120t-298 -121t-126 -313zM729 1026q211 0 358 -146t147 -378t-146 -378q-148 -146 -359 -147q-137 1 -252 63t-180 175v-563h-100v1349h100v-213q67 114 181 176t251 62z" />
    <glyph glyph-name="q" unicode="q" horiz-adv-x="1335" 
d="M614 68q174 0 299 120t125 314t-126 314t-298 120t-294 -120t-121 -316q0 -196 120 -314q121 -118 295 -118zM1139 1001v-1349h-101v563q-66 -113 -180 -175t-252 -63q-211 -1 -358 145q-148 146 -148 378t148 380q148 146 358 146q137 0 252 -62t180 -176v213h101z" />
    <glyph glyph-name="r" unicode="r" horiz-adv-x="825" 
d="M725 1010q41 0 70 -6l-11 -95q-20 4 -59 4q-199 0 -312.5 -142t-113.5 -353v-418h-100v1001h100v-280q63 131 173 210t253 79z" />
    <glyph glyph-name="s" unicode="s" horiz-adv-x="1038" 
d="M542 61q134 0 211.5 54.5t77.5 139.5t-49 125t-141 60l-246 54q-248 53 -248 243q0 129 101.5 209t263.5 80t264.5 -74.5t130.5 -195.5l-92 -25q-20 96 -100 153.5t-202 57.5t-193.5 -54t-71.5 -136.5t47 -119t137 -57.5l242 -53q256 -59 256 -250q0 -137 -106.5 -216
t-282.5 -79t-293 79t-137 218l98 25q10 -111 104.5 -174.5t228.5 -63.5z" />
    <glyph glyph-name="t" unicode="t" horiz-adv-x="763" 
d="M508 -23q-125 0 -207 81t-82 225v632h-219v86h219v330h100v-330h375v-86h-375v-626q0 -100 56.5 -158.5t149.5 -59t173 67.5l39 -82q-104 -80 -229 -80z" />
    <glyph glyph-name="u" unicode="u" horiz-adv-x="1286" 
d="M1090 1001v-1001h-101v213q-59 -113 -164.5 -175.5t-244.5 -62.5q-182 0 -293 119t-111 314v593h98v-579q0 -158 87.5 -255t230.5 -97q180 0 288.5 115.5t108.5 314.5v501h101z" />
    <glyph glyph-name="v" unicode="v" horiz-adv-x="1114" 
d="M1071 1004l-459 -1004h-110l-459 1004h113l401 -889l401 889h113z" />
    <glyph glyph-name="w" unicode="w" horiz-adv-x="1554" 
d="M1511 1004l-340 -1010h-98l-295 848l-297 -848h-98l-340 1010h102l291 -859l301 856h80l301 -858l291 861h102z" />
    <glyph glyph-name="x" unicode="x" horiz-adv-x="1169" 
d="M655 498l406 -498h-121l-354 438l-357 -438h-120l405 498l-405 506h120l357 -447l354 447h121z" />
    <glyph glyph-name="y" unicode="y" horiz-adv-x="1130" 
d="M1087 1004l-632 -1352h-111l166 356l-467 996h115l407 -881l412 881h110z" />
    <glyph glyph-name="z" unicode="z" horiz-adv-x="1019" 
d="M938 86v-86h-856v70l709 845h-689v86h816v-69l-709 -846h729z" />
    <glyph glyph-name="braceleft" unicode="{" horiz-adv-x="884" 
d="M442 1253v-350q0 -80 -36 -140t-103 -89q139 -59 139 -230v-350q0 -80 46 -127t122 -47h148v-88h-156q-118 0 -188 70t-70 184v350q0 86 -52 137t-136 56l-37 4v82l37 4q84 6 136 57t52 135v351q0 114 71 184t187 70h156v-86h-148q-76 0 -122 -48t-46 -129z" />
    <glyph glyph-name="bar" unicode="|" horiz-adv-x="493" 
d="M297 -147h-100v1663h100v-1663z" />
    <glyph glyph-name="braceright" unicode="}" horiz-adv-x="884" 
d="M543 436v-350q0 -114 -71 -184t-187 -70h-156v88h147q74 0 120 47t46 127v350q0 170 140 230q-66 29 -103 89t-37 140v350q0 80 -46 128t-120 49h-147v86h156q117 0 187 -70t71 -184v-351q0 -84 51 -135t137 -57l37 -4v-82l-37 -4q-86 -3 -137 -55t-51 -138z" />
    <glyph glyph-name="asciitilde" unicode="~" horiz-adv-x="950" 
d="M86 498q0 115 60 175t148 60t189 -77q103 -76 163 -76t94 41t32 110h94q0 -117 -62 -179t-150 -62t-188 76q-102 77 -162 77q-60 1 -96 -39t-32 -106h-90z" />
    <glyph glyph-name="exclamdown" unicode="&#xa1;" horiz-adv-x="532" 
d="M319 -354h-106v63l4 924h100l2 -924v-63zM266 872q-32 0 -56 23t-24 55t23 52q23 22 57 22t56 -22t22 -54t-22 -54t-56 -22z" />
    <glyph glyph-name="cent" unicode="&#xa2;" horiz-adv-x="1179" 
d="M199 499q0 -177 104 -293t262 -134v858q-156 -18 -261 -136t-105 -295zM651 -266h-88v246q-197 18 -330 160t-133 358t133 361q133 144 330 165v266h88v-266q152 -10 270 -94t158 -219l-94 -31q-31 110 -124 176t-212 74v-858q119 8 211 69t125 168l92 -26
q-37 -133 -155 -214t-271 -92v-243z" />
    <glyph glyph-name="sterling" unicode="&#xa3;" horiz-adv-x="1320" 
d="M1210 94v-94h-1081v63l174 25v502h-174v94h174v272q0 197 123 318t324 121q202 0 324 -120t126 -317l-100 -20q-2 166 -98 262t-250 96q-156 0 -251 -93t-95 -247v-272h542v-94h-542v-496h804z" />
    <glyph glyph-name="yen" unicode="&#xa5;" horiz-adv-x="1337" 
d="M1130 616v-81h-411v-181h411v-82h-411v-272h-103v272h-409v82h409v181h-409v81h362l-497 756h116l480 -737l477 737h121l-500 -756h364z" />
    <glyph glyph-name="section" unicode="&#xa7;" horiz-adv-x="1085" 
d="M897 469q0 63 -42 113t-148 98l-326 147q-18 8 -51 25q-154 -61 -154 -213q0 -63 42 -111t151 -100l323 -147q29 -13 49 -25q156 63 156 213zM993 475q0 -197 -178 -270q88 -80 88 -205t-102 -207t-284 -82q-183 1 -291 99t-105 258l88 20q2 -139 84 -216t220 -77
q138 1 214 61t76 156q0 123 -154 193l-323 147q-132 56 -188 120t-56 164t50 167q50 68 126 100q-86 78 -86 203t101 207t277 82q176 -1 280 -97q105 -96 108 -254l-92 -22q-2 135 -81 213t-211 78q-132 -1 -208 -61t-76 -156q0 -123 156 -195l324 -145q129 -57 186 -122
t57 -159z" />
    <glyph glyph-name="dieresis" unicode="&#xa8;" horiz-adv-x="1228" 
d="M809 1352q33 0 55 -24t23 -56q0 -32 -22 -52q-23 -22 -57 -22t-56 22t-23 54t23 54q24 24 57 24zM422 1352q34 0 56 -24t22 -56t-22 -52q-22 -22 -56 -22t-58 22q-22 22 -22 54t24 54q24 24 56 24z" />
    <glyph glyph-name="copyright" unicode="&#xa9;" horiz-adv-x="1607" 
d="M803 297q-149 0 -261 109q-112 110 -112 280t112 278t260 107q148 0 248 -75t124 -189l-74 -19q-27 94 -107 152q-81 58 -193 57q-112 0 -201 -87t-89 -225t89 -226t203 -88t193 59q80 59 103 154l73 -17q-23 -117 -121 -193t-247 -77zM802 1337q-268 0 -456 -185
t-188 -466t187 -465t457 -184t456 184q188 184 188 465t-188 466t-456 185zM802 1395q296 0 502 -203t206 -509t-206 -506t-502 -200t-502 200t-206 506t206 509t502 203z" />
    <glyph glyph-name="ordfeminine" unicode="&#xaa;" horiz-adv-x="790" 
d="M410 1030q-102 0 -158 -39t-57 -102t43 -100t133 -37t160 61t71 154v63h-192zM422 1378q114 0 186 -66q74 -66 74 -186v-421h-80v106q-86 -123 -260 -123q-104 0 -166 54q-61 54 -61 144t76 146q77 55 215 55h196v43q0 86 -51 134t-137 49q-166 0 -195 -160l-74 14
q19 103 91 157t186 54z" />
    <glyph glyph-name="guillemotleft" unicode="&#xab;" horiz-adv-x="790" 
d="M375 537l260 364h104l-260 -364l260 -365h-104zM51 537l260 364h105l-260 -364l260 -365h-105z" />
    <glyph glyph-name="registered" unicode="&#xae;" horiz-adv-x="1024" 
d="M414 981h121q47 0 77 24q30 25 29 63q0 38 -29 60t-75 23h-123v-170zM537 1192q67 0 109 -34t42 -88t-35 -88t-92 -40l148 -143h-60l-143 141h-92v-141h-45v393h168zM512 621q152 0 257 103t105 261t-105 262q-105 105 -257 105t-257 -104t-105 -263q0 -158 105 -261
t257 -103zM512 1395q172 0 291 -117t119 -294t-119 -294t-291 -117t-291 117t-119 294t119 294t291 117z" />
    <glyph glyph-name="macron" unicode="&#xaf;" horiz-adv-x="1228" 
d="M889 1206h-547v82h547v-82z" />
    <glyph glyph-name="degree" unicode="&#xb0;" horiz-adv-x="823" 
d="M413 958q75 0 129 52t54 131q0 80 -54 132t-129 52t-130 -52t-55 -132q0 -79 54 -131q56 -52 131 -52zM412 1395q108 0 185 -71q77 -70 77 -182t-77 -184t-185 -72t-185 72t-77 184t78 182q76 70 184 71z" />
    <glyph glyph-name="plusminus" unicode="&#xb1;" horiz-adv-x="1187" 
d="M154 90h880v-90h-880v90zM1034 752v-90h-395v-367h-90v367h-395v90h395v376h90v-376h395z" />
    <glyph glyph-name="acute" unicode="&#xb4;" horiz-adv-x="1228" 
d="M618 1161h-90l177 283h114z" />
    <glyph glyph-name="paragraph" unicode="&#xb6;" horiz-adv-x="1112" 
d="M915 0h-86v1372h86v-1372zM657 0h-86v612h-102q-186 0 -307 106t-121 283q0 178 107 275q108 96 292 96h217v-1372z" />
    <glyph glyph-name="periodcentered" unicode="&#xb7;" horiz-adv-x="382" 
d="M193 621q33 0 55 -23q22 -22 22 -54t-22 -54t-56 -22t-57 22t-23 54t24 54t57 23z" />
    <glyph glyph-name="cedilla" unicode="&#xb8;" horiz-adv-x="1228" 
d="M596 0h82l-180 -358h-111z" />
    <glyph glyph-name="ordmasculine" unicode="&#xba;" horiz-adv-x="911" 
d="M190 1034q0 -116 80 -194t188 -78t186 77t79 195q0 118 -79 196q-79 77 -186 77q-108 0 -188 -78t-80 -195zM457 1378q143 0 244 -96t101 -248t-100 -249q-102 -97 -245 -97t-245 97q-101 97 -101 249t101 248q102 96 245 96z" />
    <glyph glyph-name="guillemotright" unicode="&#xbb;" horiz-adv-x="790" 
d="M375 172l260 365l-260 364h104l260 -364l-260 -365h-104zM51 172l260 365l-260 364h105l260 -364l-260 -365h-105z" />
    <glyph glyph-name="onequarter" unicode="&#xbc;" horiz-adv-x="1398" 
d="M1149 250v401l-344 -401h344zM1354 182h-129v-184h-76v184h-424v76l412 485h88v-493h129v-68zM1235 1372l-1036 -1372h-80l1036 1372h80zM313 1372v-745h-82v639l-180 -109v84l211 131h51z" />
    <glyph glyph-name="onehalf" unicode="&#xbd;" horiz-adv-x="1527" 
d="M1462 72v-72h-530v53l285 244q89 76 123 122q34 45 34 113t-49 112t-131 44t-132 -51t-50 -137l-74 14q0 106 71 175t187 69t186 -62q72 -62 72 -156q0 -92 -44 -152t-138 -140l-209 -176h399zM1217 1372l-1037 -1372h-80l1037 1372h80zM313 1372v-745h-82v639l-180 -109
v84l211 131h51z" />
    <glyph glyph-name="threequarters" unicode="&#xbe;" horiz-adv-x="1595" 
d="M1346 250v401l-345 -401h345zM1550 182h-129v-184h-75v184h-424v76l411 485h88v-493h129v-68zM1442 1372l-1036 -1372h-80l1036 1372h80zM618 848q0 -96 -73 -160q-74 -63 -194 -63q-119 -1 -199 67t-82 185l67 14q5 -95 65 -147t148 -52t140 44t52 112t-52 106t-138 37
h-69v60h67q80 1 128 35t48 96t-51 104q-51 41 -132 41t-136 -49t-57 -135l-72 16q4 105 79 169t187 64t186 -58q72 -60 72 -152q0 -115 -121 -160q63 -18 100 -64t37 -110z" />
    <glyph glyph-name="questiondown" unicode="&#xbf;" horiz-adv-x="1056" 
d="M521 -377q-203 0 -325 116t-122 295t119 291t303 124v180h96v-262h-55q-154 1 -259 -91q-106 -92 -106 -236t96 -236t254 -91q158 -1 258 101t103 266l98 -17q-4 -193 -131 -317t-329 -123zM545 872q-33 0 -57 23t-24 55t24 52q22 22 56 22t56 -22t23 -54q-1 -32 -23 -54
t-55 -22z" />
    <glyph glyph-name="Agrave" unicode="&#xc0;" horiz-adv-x="1402" 
d="M1051 469l-349 772l-348 -772h697zM1372 0h-110l-168 375h-783l-170 -375h-110l624 1372h93zM655 1532l-200 283h114l176 -283h-90z" />
    <glyph glyph-name="Aacute" unicode="&#xc1;" horiz-adv-x="1402" 
d="M1051 469l-349 772l-348 -772h697zM1372 0h-110l-168 375h-783l-170 -375h-110l624 1372h93zM760 1532h-90l176 283h115z" />
    <glyph glyph-name="Acircumflex" unicode="&#xc2;" horiz-adv-x="1402" 
d="M1051 469l-349 772l-348 -772h697zM1372 0h-110l-168 375h-783l-170 -375h-110l624 1372h93zM518 1518h-104l241 282h95l243 -282h-106l-185 215z" />
    <glyph glyph-name="Atilde" unicode="&#xc3;" horiz-adv-x="1402" 
d="M1051 469l-349 772l-348 -772h697zM1372 0h-110l-168 375h-783l-170 -375h-110l624 1372h93zM834 1585q-64 -1 -136 53t-115 54q-42 0 -66 -28t-23 -75h-76q0 88 45 134t109 46t138 -54t114 -54q42 0 64 29t21 77h78q0 -90 -44 -136q-45 -46 -109 -46z" />
    <glyph glyph-name="Adieresis" unicode="&#xc4;" horiz-adv-x="1402" 
d="M1051 469l-349 772l-348 -772h697zM1372 0h-110l-168 375h-783l-170 -375h-110l624 1372h93zM897 1569q-35 -1 -57 21t-23 54q0 32 24 56q25 24 57 22q32 0 54 -24t23 -54q1 -32 -21 -54t-57 -21zM510 1569q-36 -1 -58 21t-22 54t24 56t56 22q32 0 56 -24q22 -24 22 -54
q0 -32 -22 -54t-56 -21z" />
    <glyph glyph-name="Aring" unicode="&#xc5;" horiz-adv-x="1402" 
d="M1051 469l-349 772l-348 -772h697zM1372 0h-110l-168 375h-783l-170 -375h-110l624 1372h93zM702 1819q-53 0 -91 -37t-38 -88t38 -88t91 -37t92 37q38 37 37 88q0 51 -37 88q-39 37 -92 37zM702 1503q-82 1 -139 57t-57 134t57 134t139 56t140 -56t57 -134
q1 -78 -57 -134t-140 -57z" />
    <glyph glyph-name="AE" unicode="&#xc6;" horiz-adv-x="2129" 
d="M1069 442v811l-594 -811h594zM1174 1278v-543h817v-92h-817v-549h878v-94h-983v348h-661l-256 -348h-121l1013 1372h1008v-94h-878z" />
    <glyph glyph-name="Ccedilla" unicode="&#xc7;" horiz-adv-x="1607" 
d="M836 74q193 0 337 94t205 256l101 -25q-68 -188 -234 -301.5t-387 -120.5l-170 -335h-110l196 338q-274 23 -459.5 224.5t-185.5 489.5t205 494.5t502 206.5q229 0 401 -113t242 -303l-99 -31q-59 162 -204.5 256t-339.5 94q-254 0 -429.5 -177t-175.5 -435t175.5 -435
t429.5 -177z" />
    <glyph glyph-name="Egrave" unicode="&#xc8;" horiz-adv-x="1308" 
d="M301 1278v-543h817v-92h-817v-549h879v-94h-983v1372h983v-94h-879zM649 1532l-200 283h114l176 -283h-90z" />
    <glyph glyph-name="Eacute" unicode="&#xc9;" horiz-adv-x="1308" 
d="M301 1278v-543h817v-92h-817v-549h879v-94h-983v1372h983v-94h-879zM754 1532h-90l176 283h114z" />
    <glyph glyph-name="Ecircumflex" unicode="&#xca;" horiz-adv-x="1308" 
d="M301 1278v-543h817v-92h-817v-549h879v-94h-983v1372h983v-94h-879zM512 1518h-104l241 282h94l244 -282h-106l-185 215z" />
    <glyph glyph-name="Edieresis" unicode="&#xcb;" horiz-adv-x="1308" 
d="M301 1278v-543h817v-92h-817v-549h879v-94h-983v1372h983v-94h-879zM891 1569q-35 0 -57.5 21.5t-22.5 53.5t23.5 55t56.5 23t55 -24q22 -22 22.5 -54t-21 -53.5t-56.5 -21.5zM504 1569q-35 0 -57.5 21.5t-22.5 53.5t23.5 55t56.5 23q34 0 56 -24q22 -22 22 -54
t-21.5 -53.5t-56.5 -21.5z" />
    <glyph glyph-name="Igrave" unicode="&#xcc;" horiz-adv-x="497" 
d="M301 0h-104v1372h104v-1372zM115 1815l176 -283h-90l-201 283h115z" />
    <glyph glyph-name="Iacute" unicode="&#xcd;" horiz-adv-x="497" 
d="M301 0h-104v1372h104v-1372zM305 1532h-90l176 283h115z" />
    <glyph glyph-name="Icircumflex" unicode="&#xce;" horiz-adv-x="497" 
d="M197 1372h104v-1372h-104v1372zM539 1518h-107l-184 215l-185 -215h-104l242 282h94z" />
    <glyph glyph-name="Idieresis" unicode="&#xcf;" horiz-adv-x="497" 
d="M301 0h-104v1372h104v-1372zM442 1722q33 0 56 -24q22 -24 22 -54q0 -32 -22 -54t-56 -22q-36 0 -58 22t-22 54t24 55t56 23zM55 1722q33 0 56 -24t23 -54q0 -32 -22 -54t-57 -22t-57 22t-23 54t23 55t57 23z" />
    <glyph glyph-name="Eth" unicode="&#xd0;" horiz-adv-x="1529" 
d="M334 94h323q313 0 488 169q174 169 174 423t-174 423t-488 169h-323v-539h368v-94h-368v-551zM231 1372h428q358 0 562 -195q203 -196 203 -491q0 -294 -204 -490q-202 -196 -561 -196h-428v645h-170v94h170v633z" />
    <glyph glyph-name="Ntilde" unicode="&#xd1;" horiz-adv-x="1556" 
d="M1358 1372v-1372h-92l-965 1194v-1194h-104v1372h92l966 -1202v1202h103zM677 1692q-42 0 -65.5 -28t-23.5 -75h-76q0 88 45 134t109.5 46t137.5 -54t115 -54q85 0 85 106h77q0 -90 -44 -136t-108 -46t-137 53.5t-115 53.5z" />
    <glyph glyph-name="Ograve" unicode="&#xd2;" horiz-adv-x="1660" 
d="M830 74q253 0 426 176q174 176 174 435t-174 436t-426 177q-253 0 -426 -177t-173 -436t173 -435t426 -176zM831 1395q295 0 498 -206t203 -504t-203 -503t-499 -205t-498 205t-203 503t203 504t499 206zM784 1532l-200 283h114l176 -283h-90z" />
    <glyph glyph-name="Oacute" unicode="&#xd3;" horiz-adv-x="1660" 
d="M830 74q253 0 426 176q174 176 174 435t-174 436t-426 177q-253 0 -426 -177t-173 -436t173 -435t426 -176zM831 1395q295 0 498 -206t203 -504t-203 -503t-499 -205t-498 205t-203 503t203 504t499 206zM889 1532h-90l176 283h115z" />
    <glyph glyph-name="Ocircumflex" unicode="&#xd4;" horiz-adv-x="1660" 
d="M830 74q253 0 426 176q174 176 174 435t-174 436t-426 177q-253 0 -426 -177t-173 -436t173 -435t426 -176zM831 1395q295 0 498 -206t203 -504t-203 -503t-499 -205t-498 205t-203 503t203 504t499 206zM647 1518h-104l241 282h95l243 -282h-106l-185 215z" />
    <glyph glyph-name="Otilde" unicode="&#xd5;" horiz-adv-x="1660" 
d="M830 74q253 0 426 176q174 176 174 435t-174 436t-426 177q-253 0 -426 -177t-173 -436t173 -435t426 -176zM831 1395q295 0 498 -206t203 -504t-203 -503t-499 -205t-498 205t-203 503t203 504t499 206zM964 1585q-64 -1 -137 53t-115 54t-66 -28t-23 -75h-76
q0 88 45 134q46 46 110 46t137 -54t115 -54t63 29q22 29 21 77h78q0 -90 -44 -136t-108 -46z" />
    <glyph glyph-name="Odieresis" unicode="&#xd6;" horiz-adv-x="1660" 
d="M830 74q253 0 426 176q174 176 174 435t-174 436t-426 177q-253 0 -426 -177t-173 -436t173 -435t426 -176zM831 1395q295 0 498 -206t203 -504t-203 -503t-499 -205t-498 205t-203 503t203 504t499 206zM1026 1569q-36 -1 -58 21t-22 54t24 56t56 22q32 0 56 -24
q22 -24 22 -54q0 -32 -22 -54t-56 -21zM639 1569q-35 -1 -57 21t-23 54q0 32 24 56q25 24 57 22q32 0 54 -24t23 -54q1 -32 -21 -54t-57 -21z" />
    <glyph glyph-name="multiply" unicode="&#xd7;" horiz-adv-x="1017" 
d="M575 625l295 -295l-65 -68l-295 297l-297 -297l-66 68l295 295l-295 297l66 65l297 -295l295 295l65 -65z" />
    <glyph glyph-name="Oslash" unicode="&#xd8;" horiz-adv-x="1660" 
d="M842 74q242 0 414 176q174 176 174 418t-138 413l-858 -858q166 -149 408 -149zM231 700q0 -244 142 -415l860 860q-170 153 -413 153t-416 -177t-173 -421zM1532 670q0 -284 -203 -488q-203 -205 -485 -205t-479 177l-134 -134l-61 62l133 133q-174 197 -174 483
t204 491q204 206 488 206t482 -181l129 129l61 -61l-131 -131q170 -197 170 -481z" />
    <glyph glyph-name="Ugrave" unicode="&#xd9;" horiz-adv-x="1484" 
d="M1307 1372v-780q0 -276 -155 -446t-409 -169q-253 0 -409 169t-156 446v780h105v-780q0 -232 127 -374q126 -142 334 -142t334 141t126 375v780h103zM694 1532l-200 283h114l176 -283h-90z" />
    <glyph glyph-name="Uacute" unicode="&#xda;" horiz-adv-x="1484" 
d="M1307 1372v-780q0 -276 -155 -446t-409 -169q-253 0 -409 169t-156 446v780h105v-780q0 -232 127 -374q126 -142 334 -142t334 141t126 375v780h103zM801 1532h-90l176 283h114z" />
    <glyph glyph-name="Ucircumflex" unicode="&#xdb;" horiz-adv-x="1484" 
d="M1307 1372v-780q0 -276 -155 -446t-409 -169q-253 0 -409 169t-156 446v780h105v-780q0 -232 127 -374q126 -142 334 -142t334 141t126 375v780h103zM559 1518h-104l241 282h95l243 -282h-106l-185 215z" />
    <glyph glyph-name="Udieresis" unicode="&#xdc;" horiz-adv-x="1484" 
d="M1307 1372v-780q0 -276 -155 -446t-409 -169q-253 0 -409 169t-156 446v780h105v-780q0 -232 127 -374q126 -142 334 -142t334 141t126 375v780h103zM938 1569q-36 -1 -58 21t-22 54t24 56t56 22q32 0 56 -24q22 -24 22 -54q0 -32 -22 -54t-56 -21zM551 1569
q-35 -1 -57 21t-23 54q0 32 24 56q25 24 57 22q32 0 54 -24t23 -54q1 -32 -21 -54t-57 -21z" />
    <glyph glyph-name="Yacute" unicode="&#xdd;" horiz-adv-x="1351" 
d="M727 0h-104v500l-580 872h117l516 -772l514 772h119l-582 -872v-500zM733 1532h-90l176 283h115z" />
    <glyph glyph-name="Thorn" unicode="&#xde;" horiz-adv-x="1263" 
d="M301 356h422q166 0 268 94q103 94 103 237t-102 237t-269 94h-422v-662zM301 1110h424q211 0 342 -119t131 -305t-131 -305t-342 -119h-424v-262h-104v1372h104v-262z" />
    <glyph glyph-name="germandbls" unicode="&#xdf;" horiz-adv-x="1339" 
d="M1239 392q0 -170 -118 -290q-117 -120 -317 -120t-362 81l27 84q152 -77 321 -77t264 95t95 245t-118 238q-118 89 -314 89h-107v88h97q155 0 249 81t94 214t-96 216q-98 83 -269 83q-171 1 -279 -115t-109 -311v-993h-100v989q0 233 137 377t350 143q213 0 338 -105
t125 -274q1 -123 -67 -217t-189 -127q160 -24 254 -124t94 -270z" />
    <glyph glyph-name="agrave" unicode="&#xe0;" horiz-adv-x="1318" 
d="M182 500q0 -196 121 -314t295 -118t299 120t125 314t-126 314t-298 120t-294 -120t-122 -316zM1122 1001v-1001h-100v211q-66 -111 -180 -172t-250 -62q-212 -1 -360 145t-148 378t148 380q148 146 360 146q137 0 251 -62t179 -173v210h100zM586 1161l-201 283h115
l176 -283h-90z" />
    <glyph glyph-name="aacute" unicode="&#xe1;" horiz-adv-x="1318" 
d="M182 500q0 -196 121 -314t295 -118t299 120t125 314t-126 314t-298 120t-294 -120t-122 -316zM1122 1001v-1001h-100v211q-66 -111 -180 -172t-250 -62q-212 -1 -360 145t-148 378t148 380q148 146 360 146q137 0 251 -62t179 -173v210h100zM690 1161h-90l176 283h115z
" />
    <glyph glyph-name="acircumflex" unicode="&#xe2;" horiz-adv-x="1318" 
d="M182 500q0 -196 121 -314t295 -118t299 120t125 314t-126 314t-298 120t-294 -120t-122 -316zM1122 1001v-1001h-100v211q-66 -111 -180 -172t-250 -62q-212 -1 -360 145t-148 378t148 380q148 146 360 146q137 0 251 -62t179 -173v210h100zM449 1147h-105l242 283h94
l244 -283h-107l-184 215z" />
    <glyph glyph-name="atilde" unicode="&#xe3;" horiz-adv-x="1318" 
d="M182 500q0 -196 121 -314t295 -118t299 120t125 314t-126 314t-298 120t-294 -120t-122 -316zM1122 1001v-1001h-100v211q-66 -111 -180 -172t-250 -62q-212 -1 -360 145t-148 378t148 380q148 146 360 146q137 0 251 -62t179 -173v210h100zM918 1397q0 -90 -44 -136
q-44 -47 -109 -47q-64 0 -137 54t-115 53q-42 0 -66 -28t-23 -74h-76q0 88 45 134t109 46t138 -54q128 -95 178 -26q22 29 22 78h78z" />
    <glyph glyph-name="adieresis" unicode="&#xe4;" horiz-adv-x="1318" 
d="M182 500q0 -196 121 -314t295 -118t299 120t125 314t-126 314t-298 120t-294 -120t-122 -316zM1122 1001v-1001h-100v211q-66 -111 -180 -172t-250 -62q-212 -1 -360 145t-148 378t148 380q148 146 360 146q137 0 251 -62t179 -173v210h100zM827 1198q-35 0 -57 22
t-22 54t24 54q24 24 56 24t55 -24t23 -56t-22 -52q-22 -22 -57 -22zM440 1198q-36 0 -58 22t-22 54t24 54q24 24 56 24t56 -24q22 -24 22 -56t-22 -52q-22 -22 -56 -22z" />
    <glyph glyph-name="aring" unicode="&#xe5;" horiz-adv-x="1318" 
d="M182 500q0 -196 121 -314t295 -118t299 120t125 314t-126 314t-298 120t-294 -120t-122 -316zM1122 1001v-1001h-100v211q-66 -111 -180 -172t-250 -62q-212 -1 -360 145t-148 378t148 380q148 146 360 146q137 0 251 -62t179 -173v210h100zM633 1448q-53 0 -91 -37
t-38 -88t38 -88t91 -37t91 37t38 88t-38 88t-91 37zM633 1133q-82 0 -139 56t-58 134q0 78 58 134t139 56q82 0 139 -56t57 -134t-57 -134t-139 -56z" />
    <glyph glyph-name="ae" unicode="&#xe6;" horiz-adv-x="1925" 
d="M874 473h-395q-131 0 -207 -52q-76 -51 -76 -147t76 -154t226 -58t264 109q113 110 112 284v18zM969 551h755q-14 174 -114 280q-100 107 -254 107t-264 -104t-123 -283zM1825 473h-856q9 -188 117 -298t276 -109q109 0 213 68t141 190l90 -23q-37 -141 -167 -232
q-129 -91 -283 -91t-268 76q-114 77 -170 216q-49 -135 -167 -214t-286 -79t-266 82q-99 82 -99 213t102 205t277 74h395v106q0 127 -82 204q-84 77 -222 77t-223 -61t-101 -172l-90 22q16 135 126 217t268 82t259 -65q100 -66 135 -177q133 242 416 242q201 0 331 -145
t134 -371v-37z" />
    <glyph glyph-name="ccedilla" unicode="&#xe7;" horiz-adv-x="1179" 
d="M616 70q129 0 231.5 63.5t137.5 175.5l92 -26q-37 -133 -154.5 -214t-269.5 -89l-170 -338h-110l196 338q-199 16 -334 158.5t-135 367.5t151.5 372.5t364.5 147.5q162 0 290 -86t173 -229l-94 -31q-35 119 -137.5 185.5t-231.5 66.5q-174 0 -295.5 -121t-121.5 -313
t120.5 -310t296.5 -118z" />
    <glyph glyph-name="egrave" unicode="&#xe8;" horiz-adv-x="1204" 
d="M620 936q-154 0 -275.5 -100.5t-141.5 -266.5h803q-18 172 -125 269.5t-261 97.5zM1083 301q-117 -324 -491 -324q-188 0 -340 143.5t-152 378.5t154 381t362.5 146t345 -138.5t144.5 -359.5v-36h-907q2 -193 124.5 -309.5t282.5 -116.5q287 0 389 256zM571 1161
l-200 283h114l177 -283h-91z" />
    <glyph glyph-name="eacute" unicode="&#xe9;" horiz-adv-x="1204" 
d="M620 936q-154 0 -275.5 -100.5t-141.5 -266.5h803q-18 172 -125 269.5t-261 97.5zM1083 301q-117 -324 -491 -324q-188 0 -340 143.5t-152 378.5t154 381t362.5 146t345 -138.5t144.5 -359.5v-36h-907q2 -193 124.5 -309.5t282.5 -116.5q287 0 389 256zM676 1161h-90
l176 283h115z" />
    <glyph glyph-name="ecircumflex" unicode="&#xea;" horiz-adv-x="1204" 
d="M620 936q-154 0 -275.5 -100.5t-141.5 -266.5h803q-18 172 -125 269.5t-261 97.5zM1083 301q-117 -324 -491 -324q-188 0 -340 143.5t-152 378.5t154 381t362.5 146t345 -138.5t144.5 -359.5v-36h-907q2 -193 124.5 -309.5t282.5 -116.5q287 0 389 256zM434 1147h-104
l241 283h95l243 -283h-106l-185 215z" />
    <glyph glyph-name="edieresis" unicode="&#xeb;" horiz-adv-x="1204" 
d="M620 936q-154 0 -275.5 -100.5t-141.5 -266.5h803q-18 172 -125 269.5t-261 97.5zM1083 301q-117 -324 -491 -324q-188 0 -340 143.5t-152 378.5t154 381t362.5 146t345 -138.5t144.5 -359.5v-36h-907q2 -193 124.5 -309.5t282.5 -116.5q287 0 389 256zM813 1198
q-35 0 -57.5 21.5t-22.5 53.5t23.5 55.5t56.5 23.5t55.5 -23.5t22.5 -55.5t-21.5 -53.5t-56.5 -21.5zM426 1198q-35 0 -57.5 21.5t-22.5 53.5t23.5 55.5t56.5 23.5t55.5 -23.5t22.5 -55.5t-21.5 -53.5t-56.5 -21.5z" />
    <glyph glyph-name="igrave" unicode="&#xec;" horiz-adv-x="552" 
d="M326 0h-99v1001h99v-1001zM143 1444l176 -283h-90l-200 283h114z" />
    <glyph glyph-name="iacute" unicode="&#xed;" horiz-adv-x="552" 
d="M326 0h-99v1001h99v-1001zM334 1161h-90l176 283h115z" />
    <glyph glyph-name="icircumflex" unicode="&#xee;" horiz-adv-x="552" 
d="M227 1001h99v-1001h-99v1001zM567 1147h-106l-185 215l-184 -215h-104l241 283h95z" />
    <glyph glyph-name="idieresis" unicode="&#xef;" horiz-adv-x="552" 
d="M326 0h-99v1001h99v-1001zM471 1352q33 0 55 -24t23 -56q0 -32 -22 -52q-23 -22 -57 -22t-56 22t-23 54t23 54q24 24 57 24zM84 1352q34 0 56 -24t22 -56t-22 -52q-22 -22 -56 -22t-58 22q-22 22 -22 54t24 54q24 24 56 24z" />
    <glyph glyph-name="eth" unicode="&#xf0;" horiz-adv-x="1247" 
d="M199 502q0 -190 127 -312q126 -122 314 -122t298 136t109 312q0 176 -125 298t-299 122t-299 -122t-125 -312zM1147 508q0 -240 -153 -385q-154 -145 -368 -145t-370 146t-156 376t151 378t353 148t330 -127q-113 195 -287 332l-268 -127l-33 74l227 108
q-135 94 -317 168v21h170q127 -57 242 -144l217 103l33 -74l-179 -86q188 -160 298 -365t110 -401z" />
    <glyph glyph-name="ntilde" unicode="&#xf1;" horiz-adv-x="1286" 
d="M709 1026q180 0 291.5 -119t111.5 -311v-596h-100v582q0 158 -87 254t-229 96q-182 0 -290.5 -116t-108.5 -314v-502h-100v1001h100v-213q123 238 412 238zM546 1321q-42 0 -65.5 -27.5t-23.5 -74.5h-76q0 88 45 134t110 46q64 -1 136 -55q74 -54 116 -54q84 0 84 107h78
q0 -90 -44 -136.5t-108 -46.5t-137 53.5t-115 53.5z" />
    <glyph glyph-name="ograve" unicode="&#xf2;" horiz-adv-x="1253" 
d="M627 68q180 0 304 124t124 310q0 188 -123 311t-305 123t-305 -123t-123 -310t124 -311t304 -124zM627 1024q223 0 375 -148t151 -374q0 -226 -152 -375q-153 -150 -375 -150t-374 150t-152 375q0 226 152 374t375 148zM580 1178l-201 282h115l176 -282h-90z" />
    <glyph glyph-name="oacute" unicode="&#xf3;" horiz-adv-x="1253" 
d="M627 68q180 0 304 124t124 310q0 188 -123 311t-305 123t-305 -123t-123 -310t124 -311t304 -124zM627 1024q223 0 375 -148t151 -374q0 -226 -152 -375q-153 -150 -375 -150t-374 150t-152 375q0 226 152 374t375 148zM684 1178h-90l176 282h115z" />
    <glyph glyph-name="ocircumflex" unicode="&#xf4;" horiz-adv-x="1253" 
d="M627 68q180 0 304 124t124 310q0 188 -123 311t-305 123t-305 -123t-123 -310t124 -311t304 -124zM627 1024q223 0 375 -148t151 -374q0 -226 -152 -375q-153 -150 -375 -150t-374 150t-152 375q0 226 152 374t375 148zM442 1163h-104l242 283h94l244 -283h-107l-184 215
z" />
    <glyph glyph-name="otilde" unicode="&#xf5;" horiz-adv-x="1253" 
d="M627 68q180 0 304 124t124 310q0 188 -123 311t-305 123t-305 -123t-123 -310t124 -311t304 -124zM627 1024q223 0 375 -148t151 -374q0 -226 -152 -375q-153 -150 -375 -150t-374 150t-152 375q0 226 152 374t375 148zM507 1337q-42 1 -66 -27t-23 -75h-76q0 88 45 134
t109 46t138 -54q73 -54 115 -54q85 0 85 106h77q0 -90 -44 -136t-108 -46t-137 53t-115 53z" />
    <glyph glyph-name="odieresis" unicode="&#xf6;" horiz-adv-x="1253" 
d="M627 68q180 0 304 124t124 310q0 188 -123 311t-305 123t-305 -123t-123 -310t124 -311t304 -124zM627 1024q223 0 375 -148t151 -374q0 -226 -152 -375q-153 -150 -375 -150t-374 150t-152 375q0 226 152 374t375 148zM821 1214q-35 0 -57 22t-23 54q0 32 24 55
q25 23 57 23t55 -24t23 -55t-22 -53t-57 -22zM434 1214q-36 0 -58 22t-22 54t24 55t56 23t56 -24q22 -24 22 -55t-22 -53t-56 -22z" />
    <glyph glyph-name="divide" unicode="&#xf7;" horiz-adv-x="1187" 
d="M592 330q34 0 56 -24t22 -56t-23 -52q-23 -22 -57 -22t-56 22t-22 54t24 54q24 24 56 24zM1034 580h-880v90h880v-90zM592 1073q34 -1 56 -23t22 -54t-23 -54t-57 -20q-34 0 -56 22t-22 52q0 32 24 54t56 23z" />
    <glyph glyph-name="oslash" unicode="&#xf8;" horiz-adv-x="1245" 
d="M636 68q171 0 295 124t124 298q0 176 -94 292l-615 -612q119 -102 290 -102zM199 515q0 -175 94 -290l612 613q-119 98 -289 98t-294 -123q-123 -123 -123 -298zM1153 492q0 -215 -152 -365q-151 -150 -365 -150t-357 125l-123 -122l-54 55l121 121q-123 141 -123 356
q0 216 152 364t363 148t358 -121l117 117l53 -53l-117 -117q127 -143 127 -358z" />
    <glyph glyph-name="ugrave" unicode="&#xf9;" horiz-adv-x="1286" 
d="M1090 1001v-1001h-101v213q-59 -113 -164.5 -175.5t-244.5 -62.5q-182 0 -293 119t-111 314v593h98v-579q0 -158 87.5 -255t230.5 -97q180 0 288.5 115.5t108.5 314.5v501h101zM584 1161l-201 283h115l176 -283h-90z" />
    <glyph glyph-name="uacute" unicode="&#xfa;" horiz-adv-x="1286" 
d="M1090 1001v-1001h-101v213q-59 -113 -164.5 -175.5t-244.5 -62.5q-182 0 -293 119t-111 314v593h98v-579q0 -158 87.5 -255t230.5 -97q180 0 288.5 115.5t108.5 314.5v501h101zM688 1161h-90l176 283h115z" />
    <glyph glyph-name="ucircumflex" unicode="&#xfb;" horiz-adv-x="1286" 
d="M1090 1001v-1001h-101v213q-59 -113 -164.5 -175.5t-244.5 -62.5q-182 0 -293 119t-111 314v593h98v-579q0 -158 87.5 -255t230.5 -97q180 0 288.5 115.5t108.5 314.5v501h101zM446 1147h-104l242 283h94l244 -283h-107l-184 215z" />
    <glyph glyph-name="udieresis" unicode="&#xfc;" horiz-adv-x="1286" 
d="M1090 1001v-1001h-101v213q-59 -113 -164.5 -175.5t-244.5 -62.5q-182 0 -293 119t-111 314v593h98v-579q0 -158 87.5 -255t230.5 -97q180 0 288.5 115.5t108.5 314.5v501h101zM825.5 1198q-34.5 0 -57.5 21.5t-23 53.5t24 55.5t56.5 23.5t55 -23.5t22.5 -55.5
t-21.5 -53.5t-56 -21.5zM438 1198q-35 0 -57.5 21.5t-22.5 53.5t24 55.5t56.5 23.5t55 -23.5t22.5 -55.5t-21.5 -53.5t-56.5 -21.5z" />
    <glyph glyph-name="yacute" unicode="&#xfd;" horiz-adv-x="1130" 
d="M1087 1004l-632 -1352h-111l166 356l-467 996h115l407 -881l412 881h110zM635 1163h-90l176 283h115z" />
    <glyph glyph-name="thorn" unicode="&#xfe;" horiz-adv-x="1335" 
d="M297 502q0 -192 125 -314q125 -120 299 -120t295 118t121 315q0 195 -122 315t-294 120t-298 -121t-126 -313zM729 1026q211 0 358 -146t147 -378t-146 -378q-148 -146 -359 -147q-137 1 -252 63t-180 175v-563h-100v1823h100v-687q67 114 181 176t251 62z" />
    <glyph glyph-name="ydieresis" unicode="&#xff;" horiz-adv-x="1130" 
d="M1087 1004l-632 -1352h-111l166 356l-467 996h115l407 -881l412 881h110zM772 1200q-36 0 -58 22t-22 54t24 54q24 24 56 24t56 -24q22 -24 22 -56t-22 -52q-22 -22 -56 -22zM385 1200q-35 0 -57 22t-23 54q0 32 24 54q25 24 57 24t54 -24t23 -56t-21 -52
q-22 -22 -57 -22z" />
    <glyph glyph-name="Amacron" unicode="&#x100;" horiz-adv-x="1402" 
d="M1051 469l-349 772l-348 -772h697zM1372 0h-110l-168 375h-783l-170 -375h-110l624 1372h93zM977 1577h-547v82h547v-82z" />
    <glyph glyph-name="amacron" unicode="&#x101;" horiz-adv-x="1318" 
d="M182 500q0 -196 121 -314t295 -118t299 120t125 314t-126 314t-298 120t-294 -120t-122 -316zM1122 1001v-1001h-100v211q-66 -111 -180 -172t-250 -62q-212 -1 -360 145t-148 378t148 380q148 146 360 146q137 0 251 -62t179 -173v210h100zM907 1206h-547v82h547v-82z
" />
    <glyph glyph-name="Abreve" unicode="&#x102;" horiz-adv-x="1402" 
d="M1051 469l-349 772l-348 -772h697zM1372 0h-110l-168 375h-783l-170 -375h-110l624 1372h93zM702 1513q-122 0 -198 71t-76 188h86q0 -82 54 -134t135 -51q81 0 136 51q54 51 54 134h84q0 -117 -77 -188t-198 -71z" />
    <glyph glyph-name="abreve" unicode="&#x103;" horiz-adv-x="1318" 
d="M182 500q0 -196 121 -314t295 -118t299 120t125 314t-126 314t-298 120t-294 -120t-122 -316zM1122 1001v-1001h-100v211q-66 -111 -180 -172t-250 -62q-212 -1 -360 145t-148 378t148 380q148 146 360 146q137 0 251 -62t179 -173v210h100zM633 1143q-121 1 -198 71
t-77 187h86q0 -82 54 -133t136 -51q81 0 135 51t54 133h84q-1 -117 -77 -187t-197 -71z" />
    <glyph glyph-name="Aogonek" unicode="&#x104;" horiz-adv-x="1402" 
d="M1051 469l-349 772l-348 -772h697zM1145 -251q0 73 32 123t111 128h-26l-168 375h-783l-170 -375h-110l624 1372h93l624 -1372q-86 -86 -116 -129t-29 -94q0 -100 98 -101q31 0 94 23l13 -72q-78 -27 -132 -27t-105 39q-50 38 -50 110z" />
    <glyph glyph-name="aogonek" unicode="&#x105;" horiz-adv-x="1318" 
d="M182 500q0 -196 121 -314t295 -118t299 120t125 314t-126 314t-298 120t-294 -120t-122 -316zM895 -251q0 73 32 123t111 128h-16v211q-66 -111 -180 -172t-250 -62q-212 -1 -360 145t-148 378t148 380q148 146 360 146q137 0 251 -62t179 -173v210h100v-1001
q-86 -86 -116 -129t-29 -94q0 -100 98 -101q31 0 94 23l13 -72q-78 -27 -132 -27t-105 39q-50 38 -50 110z" />
    <glyph glyph-name="Cacute" unicode="&#x106;" horiz-adv-x="1607" 
d="M836 74q193 0 337 94t205 256l101 -25q-70 -195 -242 -308.5t-401 -113.5q-297 0 -502 206t-205 503t205 503t502 206q229 0 401 -113t242 -303l-99 -31q-59 162 -204.5 256t-339.5 94q-254 0 -429.5 -177t-175.5 -435t175.5 -435t429.5 -177zM887 1532h-90l176 283h114z
" />
    <glyph glyph-name="cacute" unicode="&#x107;" horiz-adv-x="1179" 
d="M616 70q129 0 231.5 63.5t137.5 175.5l92 -26q-39 -139 -168 -222.5t-293 -83.5q-215 0 -365.5 145.5t-150.5 377.5t151.5 379t364.5 147q162 0 290 -86t173 -229l-94 -31q-35 119 -137.5 185.5t-231.5 66.5q-174 0 -295.5 -121t-121.5 -313t120.5 -310t296.5 -118z
M678 1161h-90l176 283h115z" />
    <glyph glyph-name="Cdotaccent" unicode="&#x10a;" horiz-adv-x="1607" 
d="M836 74q193 0 337 94t205 256l101 -25q-70 -195 -242 -308.5t-401 -113.5q-297 0 -502 206t-205 503t205 503t502 206q229 0 401 -113t242 -303l-99 -31q-59 162 -204.5 256t-339.5 94q-254 0 -429.5 -177t-175.5 -435t175.5 -435t429.5 -177zM829.5 1581
q-34.5 0 -56 21.5t-21.5 53.5t22.5 54.5t55 22.5t55 -22.5t22.5 -54.5t-21.5 -53.5t-56 -21.5z" />
    <glyph glyph-name="cdotaccent" unicode="&#x10b;" horiz-adv-x="1179" 
d="M616 70q129 0 231.5 63.5t137.5 175.5l92 -26q-39 -139 -168 -222.5t-293 -83.5q-215 0 -365.5 145.5t-150.5 377.5t151.5 379t364.5 147q162 0 290 -86t173 -229l-94 -31q-35 119 -137.5 185.5t-231.5 66.5q-174 0 -295.5 -121t-121.5 -313t120.5 -310t296.5 -118z
M620.5 1210q-34.5 0 -56 21.5t-21.5 53.5t22.5 54.5t55 22.5t55 -22.5t22.5 -54.5t-21.5 -53.5t-56 -21.5z" />
    <glyph glyph-name="Ccaron" unicode="&#x10c;" horiz-adv-x="1607" 
d="M836 74q193 0 337 94t205 256l101 -25q-70 -195 -242 -308.5t-401 -113.5q-297 0 -502 206t-205 503t205 503t502 206q229 0 401 -113t242 -303l-99 -31q-59 162 -204.5 256t-339.5 94q-254 0 -429.5 -177t-175.5 -435t175.5 -435t429.5 -177zM782 1520l-241 284h104
l184 -217l185 217h106l-243 -284h-95z" />
    <glyph glyph-name="ccaron" unicode="&#x10d;" horiz-adv-x="1179" 
d="M616 70q129 0 231.5 63.5t137.5 175.5l92 -26q-39 -139 -168 -222.5t-293 -83.5q-215 0 -365.5 145.5t-150.5 377.5t151.5 379t364.5 147q162 0 290 -86t173 -229l-94 -31q-35 119 -137.5 185.5t-231.5 66.5q-174 0 -295.5 -121t-121.5 -313t120.5 -310t296.5 -118z
M573 1149l-241 285h104l185 -217l184 217h106l-243 -285h-95z" />
    <glyph glyph-name="Dcaron" unicode="&#x10e;" horiz-adv-x="1517" 
d="M301 94h324q313 0 487 169t174 423t-174 423t-487 169h-324v-1184zM197 1372h430q358 0 560 -196t202 -490t-202 -490t-560 -196h-430v1372zM664 1520l-242 284h104l185 -217l184 217h106l-243 -284h-94z" />
    <glyph glyph-name="dcaron" unicode="&#x10f;" horiz-adv-x="1335" 
d="M614 68q174 0 299 120t125 314t-126 314t-298 120t-294 -120t-121 -316q0 -196 120 -314q121 -118 295 -118zM1329 1149v326h103l-21 -326h-82zM1038 1475h101v-1475h-101v215q-66 -113 -180 -175t-252 -63q-211 -1 -358 145q-148 146 -148 378t148 380q148 146 358 146
q137 0 252 -62t180 -176v687z" />
    <glyph glyph-name="Dcroat" unicode="&#x110;" horiz-adv-x="1529" 
d="M334 94h323q313 0 488 169q174 169 174 423t-174 423t-488 169h-323v-539h368v-94h-368v-551zM231 1372h428q358 0 562 -195q203 -196 203 -491q0 -294 -204 -490q-202 -196 -561 -196h-428v645h-170v94h170v633z" />
    <glyph glyph-name="dcroat" unicode="&#x111;" horiz-adv-x="1370" 
d="M614 68q174 0 299 120t125 314t-126 314t-298 120t-294 -120t-121 -316q0 -196 120 -314q121 -118 295 -118zM1307 1196h-168v-1196h-101v215q-66 -113 -180 -175t-252 -63q-211 -1 -358 145q-148 146 -148 378t148 380q148 146 358 146q137 0 252 -62t180 -176v408h-381
v82h381v197h101v-197h168v-82z" />
    <glyph glyph-name="Emacron" unicode="&#x112;" horiz-adv-x="1308" 
d="M301 1278v-543h817v-92h-817v-549h879v-94h-983v1372h983v-94h-879zM971 1577h-547v82h547v-82z" />
    <glyph glyph-name="emacron" unicode="&#x113;" horiz-adv-x="1204" 
d="M620 936q-154 0 -275.5 -100.5t-141.5 -266.5h803q-18 172 -125 269.5t-261 97.5zM1083 301q-117 -324 -491 -324q-188 0 -340 143.5t-152 378.5t154 381t362.5 146t345 -138.5t144.5 -359.5v-36h-907q2 -193 124.5 -309.5t282.5 -116.5q287 0 389 256zM893 1206h-547v82
h547v-82z" />
    <glyph glyph-name="Edotaccent" unicode="&#x116;" horiz-adv-x="1308" 
d="M301 1278v-543h817v-92h-817v-549h879v-94h-983v1372h983v-94h-879zM696.5 1581q-34.5 0 -56.5 21.5t-22 53.5t23 54.5t55.5 22.5t55 -22.5t22.5 -54.5t-21.5 -53.5t-56 -21.5z" />
    <glyph glyph-name="edotaccent" unicode="&#x117;" horiz-adv-x="1204" 
d="M620 936q-154 0 -275.5 -100.5t-141.5 -266.5h803q-18 172 -125 269.5t-261 97.5zM1083 301q-117 -324 -491 -324q-188 0 -340 143.5t-152 378.5t154 381t362.5 146t345 -138.5t144.5 -359.5v-36h-907q2 -193 124.5 -309.5t282.5 -116.5q287 0 389 256zM618.5 1210
q-34.5 0 -56 21.5t-21.5 53.5t22.5 54.5t55 22.5t55 -22.5t22.5 -54.5t-21.5 -53.5t-56 -21.5z" />
    <glyph glyph-name="Eogonek" unicode="&#x118;" horiz-adv-x="1308" 
d="M301 1278v-543h817v-92h-817v-549h879v-94h-74q-86 -86 -115.5 -129t-29.5 -94q0 -100 98 -101q31 0 94 23l12 -72q-79 -27 -133 -27t-103.5 38t-49.5 110t31.5 123t111.5 129h-825v1372h983v-94h-879z" />
    <glyph glyph-name="eogonek" unicode="&#x119;" horiz-adv-x="1206" 
d="M622 938q-150 0 -275 -102q-124 -102 -144 -267h801q-14 173 -123 271t-259 98zM1106 492h-907q2 -190 122 -308t266 -118t256 72t154 190l82 -21q-27 -71 -126 -195t-142 -192t-43 -123t31 -83t80 -28t100 25l12 -67q-65 -37 -137 -37t-121 45t-49 131t111 237
q-90 -43 -193 -43q-207 -1 -354 145q-148 146 -148 378t156 380q156 146 362 146t346 -139q138 -139 142 -361v-34z" />
    <glyph glyph-name="Ecaron" unicode="&#x11a;" horiz-adv-x="1308" 
d="M301 1278v-543h817v-92h-817v-549h879v-94h-983v1372h983v-94h-879zM649 1520l-241 284h104l184 -217l185 217h106l-244 -284h-94z" />
    <glyph glyph-name="ecaron" unicode="&#x11b;" horiz-adv-x="1204" 
d="M620 936q-154 0 -275.5 -100.5t-141.5 -266.5h803q-18 172 -125 269.5t-261 97.5zM1083 301q-117 -324 -491 -324q-188 0 -340 143.5t-152 378.5t154 381t362.5 146t345 -138.5t144.5 -359.5v-36h-907q2 -193 124.5 -309.5t282.5 -116.5q287 0 389 256zM571 1149
l-241 285h104l184 -217l185 217h106l-243 -285h-95z" />
    <glyph glyph-name="Gbreve" unicode="&#x11e;" horiz-adv-x="1648" 
d="M754 731h764q2 -16 2 -45q0 -301 -191.5 -505t-490.5 -204t-504 205t-205 504t204 504t501 205q225 0 395 -103.5t244 -283.5l-93 -35q-70 154 -213 239.5t-333 85.5q-254 0 -427.5 -177t-173.5 -435t175.5 -435t425.5 -177t409.5 160.5t175.5 402.5h-665v94zM837.5 1513
q-120.5 0 -197.5 71t-77 188h86q0 -82 54.5 -133.5t135.5 -51.5t135 51.5t54 133.5h84q0 -117 -77 -188t-197.5 -71z" />
    <glyph glyph-name="gbreve" unicode="&#x11f;" horiz-adv-x="1302" 
d="M605 145q169 0 286 111t117 287q0 177 -117 285t-286 108t-289 -109t-120 -285t120 -287q120 -110 289 -110zM1106 1001v-929q-2 -211 -135 -336t-353 -125q-375 0 -493 280l88 54q109 -242 405 -242q174 0 281 103q106 103 109 276v190q-131 -215 -410 -215
q-207 1 -352 137q-146 136 -146 348t146 347t352 135q281 0 410 -213v190h98zM625 1143q-121 1 -198 71t-77 187h86q0 -82 54 -133t136 -51t135 51q54 51 54 133h84q-1 -117 -77 -187t-197 -71z" />
    <glyph glyph-name="Gdotaccent" unicode="&#x120;" horiz-adv-x="1648" 
d="M754 731h764q2 -16 2 -45q0 -301 -191.5 -505t-490.5 -204t-504 205t-205 504t204 504t501 205q225 0 395 -103.5t244 -283.5l-93 -35q-70 154 -213 239.5t-333 85.5q-254 0 -427.5 -177t-173.5 -435t175.5 -435t425.5 -177t409.5 160.5t175.5 402.5h-665v94zM837.5 1581
q-34.5 0 -56 21.5t-21.5 53.5t22.5 54.5t55 22.5t55 -22.5t22.5 -54.5t-21.5 -53.5t-56 -21.5z" />
    <glyph glyph-name="gdotaccent" unicode="&#x121;" horiz-adv-x="1302" 
d="M605 145q169 0 286 111t117 287q0 177 -117 285t-286 108t-289 -109t-120 -285t120 -287q120 -110 289 -110zM1106 1001v-929q-2 -211 -135 -336t-353 -125q-375 0 -493 280l88 54q109 -242 405 -242q174 0 281 103q106 103 109 276v190q-131 -215 -410 -215
q-207 1 -352 137q-146 136 -146 348t146 347t352 135q281 0 410 -213v190h98zM623 1210q-35 0 -57 22t-22 54t24 54q22 22 55 22t55 -23t22 -55t-21 -52q-21 -22 -56 -22z" />
    <glyph glyph-name="Gcommaaccent" unicode="&#x122;" horiz-adv-x="1648" 
d="M758 -92h108l-121 -285h-79zM754 731h764q2 -16 2 -45q0 -301 -191.5 -505t-490.5 -204t-504 205t-205 504t204 504t501 205q225 0 395 -103.5t244 -283.5l-93 -35q-70 154 -213 239.5t-333 85.5q-254 0 -427.5 -177t-173.5 -435t175.5 -435t425.5 -177t409.5 160.5
t175.5 402.5h-665v94z" />
    <glyph glyph-name="gcommaaccent" unicode="&#x123;" horiz-adv-x="1314" 
d="M605 145q169 0 286 111t117 287q0 177 -117 285t-286 108t-289 -109t-120 -285t120 -287q120 -110 289 -110zM1106 1001v-929q-2 -211 -135 -336t-353 -125q-375 0 -493 280l88 54q109 -242 405 -242q174 0 281 103q106 103 109 276v190q-131 -215 -410 -215
q-207 1 -352 137q-146 136 -146 348t146 347t352 135q281 0 410 -213v190h98zM702 1171h-108l119 283h82z" />
    <glyph glyph-name="Hbar" unicode="&#x126;" horiz-adv-x="1536" 
d="M1221 975h-906v-256h906v256zM1473 975h-150v-975h-102v625h-906v-625h-104v975h-150v88h150v309h104v-309h906v309h102v-309h150v-88z" />
    <glyph glyph-name="hbar" unicode="&#x127;" horiz-adv-x="1273" 
d="M741 1026q180 0 292 -119t112 -311v-596h-101v582q0 158 -87 254t-228 96q-182 0 -291 -116t-108 -314v-502h-99v1202h-170v76h170v197h99v-197h381v-76h-381v-414q122 238 411 238z" />
    <glyph glyph-name="Imacron" unicode="&#x12a;" horiz-adv-x="497" 
d="M301 0h-104v1372h104v-1372zM522 1577h-549v82h549v-82z" />
    <glyph glyph-name="imacron" unicode="&#x12b;" horiz-adv-x="552" 
d="M326 0h-99v1001h99v-1001zM551 1206h-547v82h547v-82z" />
    <glyph glyph-name="Iogonek" unicode="&#x12e;" horiz-adv-x="497" 
d="M74 -251q0 73 32 123t111 128h-20v1372h104v-1372q-86 -86 -116 -129t-29 -94q0 -100 98 -101q31 0 94 23l12 -72q-78 -27 -132 -27t-104 39q-50 38 -50 110z" />
    <glyph glyph-name="iogonek" unicode="&#x12f;" horiz-adv-x="552" 
d="M98 -251q0 73 32 123t112 128h-15v1001h99v-1001q-86 -86 -116 -129t-30 -94q0 -100 99 -101q31 0 94 23l12 -72q-79 -27 -133 -27t-104 39q-50 38 -50 110zM276 1210q-34 0 -56 22t-22 54t24 54q22 22 54 22t56 -23q22 -23 22 -55t-22 -52q-22 -22 -56 -22z" />
    <glyph glyph-name="Idotaccent" unicode="&#x130;" horiz-adv-x="497" 
d="M301 0h-104v1372h104v-1372zM248 1733q34 0 56 -23q22 -22 22 -54t-22 -54t-56 -21q-34 0 -57 22q-21 21 -21 53t22 54t56 23z" />
    <glyph glyph-name="dotlessi" unicode="&#x131;" horiz-adv-x="552" 
d="M326 0h-99v1001h99v-1001z" />
    <glyph glyph-name="IJ" unicode="&#x132;" horiz-adv-x="1716" 
d="M1536 1372v-866q0 -236 -136 -382t-346 -146t-342 120q-132 121 -157 318l98 22q19 -166 123 -266t273 -100t277 121t108 313v866h102zM197 1372h104v-1372h-104v1372z" />
    <glyph glyph-name="ij" unicode="&#x133;" horiz-adv-x="1103" 
d="M788 -127v1128h99v-1138q1 -103 -63 -167t-156 -64t-156 34l27 84q47 -24 107 -24t100 41q42 41 42 106zM315 0h-98v1001h98v-1001zM838 1384q32 0 56 -22t24 -56q0 -32 -23 -54t-57 -22t-58 22q-23 22 -22 55q0 33 23 55q24 22 57 22zM186 1307q0 33 22 55t57 22
q34 0 57 -22q22 -22 22 -56q0 -32 -22 -54t-57 -22t-57 22t-22 55z" />
    <glyph glyph-name="Kcommaaccent" unicode="&#x136;" horiz-adv-x="1374" 
d="M610 -92h109l-121 -285h-80zM301 637v-637h-104v1372h104v-641h66l749 641h133l-796 -688l843 -684h-143l-780 637h-72z" />
    <glyph glyph-name="kcommaaccent" unicode="&#x137;" horiz-adv-x="1153" 
d="M500 -92h108l-121 -285h-79zM297 469v-469h-100v1475h100v-910h78l555 436h135l-614 -487l686 -514h-148l-624 469h-68z" />
    <glyph glyph-name="Lacute" unicode="&#x139;" horiz-adv-x="1193" 
d="M1128 94v-94h-931v1372h104v-1278h827zM305 1532h-90l176 283h115z" />
    <glyph glyph-name="lacute" unicode="&#x13a;" horiz-adv-x="493" 
d="M297 0h-100v1475h100v-1475zM305 1634h-90l176 283h115z" />
    <glyph glyph-name="Lcommaaccent" unicode="&#x13b;" horiz-adv-x="1193" 
d="M631 -92h108l-121 -285h-79zM1128 94v-94h-931v1372h104v-1278h827z" />
    <glyph glyph-name="lcommaaccent" unicode="&#x13c;" horiz-adv-x="493" 
d="M100 -377l93 285h108l-121 -285h-80zM297 0h-100v1475h100v-1475z" />
    <glyph glyph-name="Lcaron" unicode="&#x13d;" horiz-adv-x="1193" 
d="M639 1047v325h102l-20 -325h-82zM1128 94v-94h-931v1372h104v-1278h827z" />
    <glyph glyph-name="lcaron" unicode="&#x13e;" horiz-adv-x="493" 
d="M469 1149v326h102l-20 -326h-82zM297 0h-100v1475h100v-1475z" />
    <glyph glyph-name="Ldot" unicode="&#x13f;" horiz-adv-x="1189" 
d="M774 618q-33 0 -55.5 22t-22.5 54t22.5 54t55.5 22t55.5 -22.5t22.5 -54.5t-22.5 -53.5t-55.5 -21.5zM1128 94v-94h-931v1372h104v-1278h827z" />
    <glyph glyph-name="ldot" unicode="&#x140;" horiz-adv-x="610" 
d="M514 756q33 0 55.5 -22.5t22.5 -54.5t-22.5 -53.5t-56.5 -21.5t-55.5 21.5t-21.5 53.5t22.5 54.5t55.5 22.5zM297 0h-100v1475h100v-1475z" />
    <glyph glyph-name="Lslash" unicode="&#x141;" horiz-adv-x="1214" 
d="M1153 94v-94h-930v545l-162 -80v100l162 80v727h103v-678l360 178v-100l-360 -178v-500h827z" />
    <glyph glyph-name="lslash" unicode="&#x142;" horiz-adv-x="593" 
d="M348 0h-100v641l-187 -121v101l187 120v734h100v-668l184 121v-101l-184 -120v-707z" />
    <glyph glyph-name="Nacute" unicode="&#x143;" horiz-adv-x="1556" 
d="M1358 1372v-1372h-92l-965 1194v-1194h-104v1372h92l966 -1202v1202h103zM854 1532h-90l176 283h115z" />
    <glyph glyph-name="nacute" unicode="&#x144;" horiz-adv-x="1286" 
d="M709 1026q180 0 291.5 -119t111.5 -311v-596h-100v582q0 158 -87 254t-229 96q-182 0 -290.5 -116t-108.5 -314v-502h-100v1001h100v-213q123 238 412 238zM723 1161h-90l176 283h115z" />
    <glyph glyph-name="Ncommaaccent" unicode="&#x145;" horiz-adv-x="1556" 
d="M762 -92h108l-120 -285h-80zM1358 1372v-1372h-92l-965 1194v-1194h-104v1372h92l966 -1202v1202h103z" />
    <glyph glyph-name="ncommaaccent" unicode="&#x146;" horiz-adv-x="1286" 
d="M608 -92h109l-121 -285h-80zM709 1026q180 0 291.5 -119t111.5 -311v-596h-100v582q0 158 -87 254t-229 96q-182 0 -290.5 -116t-108.5 -314v-502h-100v1001h100v-213q123 238 412 238z" />
    <glyph glyph-name="Ncaron" unicode="&#x147;" horiz-adv-x="1556" 
d="M1358 1372v-1372h-92l-965 1194v-1194h-104v1372h92l966 -1202v1202h103zM750 1520l-242 284h104l185 -217l184 217h106l-243 -284h-94z" />
    <glyph glyph-name="ncaron" unicode="&#x148;" horiz-adv-x="1286" 
d="M709 1026q180 0 291.5 -119t111.5 -311v-596h-100v582q0 158 -87 254t-229 96q-182 0 -290.5 -116t-108.5 -314v-502h-100v1001h100v-213q123 238 412 238zM618 1149l-241 285h104l185 -217l184 217h106l-243 -285h-95z" />
    <glyph glyph-name="Eng" unicode="&#x14a;" horiz-adv-x="1546" 
d="M1358 1372v-1503q0 -104 -64 -171q-62 -67 -160 -67t-169 45l24 80q59 -32 123 -32t104.5 38.5t40.5 106.5v141l-956 1184v-1194h-104v1372h92l966 -1202v1202h103z" />
    <glyph glyph-name="eng" unicode="&#x14b;" horiz-adv-x="1286" 
d="M709 1026q180 0 291.5 -119t111.5 -311v-727q0 -104 -64.5 -171t-161.5 -67t-169 45l24 78q57 -35 122 -35t107 41t42 109v713q0 158 -87 254t-229 96q-182 0 -290.5 -116t-108.5 -314v-502h-100v1001h100v-213q123 238 412 238z" />
    <glyph glyph-name="Omacron" unicode="&#x14c;" horiz-adv-x="1660" 
d="M830 74q253 0 426 176q174 176 174 435t-174 436t-426 177q-253 0 -426 -177t-173 -436t173 -435t426 -176zM831 1395q295 0 498 -206t203 -504t-203 -503t-499 -205t-498 205t-203 503t203 504t499 206zM1106 1577h-547v82h547v-82z" />
    <glyph glyph-name="omacron" unicode="&#x14d;" horiz-adv-x="1253" 
d="M627 68q180 0 304 124t124 310q0 188 -123 311t-305 123t-305 -123t-123 -310t124 -311t304 -124zM627 1024q223 0 375 -148t151 -374q0 -226 -152 -375q-153 -150 -375 -150t-374 150t-152 375q0 226 152 374t375 148zM901 1223h-547v82h547v-82z" />
    <glyph glyph-name="Ohungarumlaut" unicode="&#x150;" horiz-adv-x="1660" 
d="M830 74q253 0 426 176q174 176 174 435t-174 436t-426 177q-253 0 -426 -177t-173 -436t173 -435t426 -176zM831 1395q295 0 498 -206t203 -504t-203 -503t-499 -205t-498 205t-203 503t203 504t499 206zM920 1532l174 280h125l-207 -280h-92zM729 1532h-92l176 280h125z
" />
    <glyph glyph-name="ohungarumlaut" unicode="&#x151;" horiz-adv-x="1253" 
d="M627 68q180 0 304 124t124 310q0 188 -123 311t-305 123t-305 -123t-123 -310t124 -311t304 -124zM627 1024q223 0 375 -148t151 -374q0 -226 -152 -375q-153 -150 -375 -150t-374 150t-152 375q0 226 152 374t375 148zM715 1178l174 280h125l-207 -280h-92zM524 1178
h-92l176 280h125z" />
    <glyph glyph-name="OE" unicode="&#x152;" horiz-adv-x="2158" 
d="M1049 94v1184h-97q-340 0 -530.5 -164t-190.5 -428t190.5 -428t530.5 -164h97zM2032 94v-94h-1080q-383 0 -603 190.5t-220 494.5t220 495.5t603 191.5h1078v-94h-879v-543h817v-92h-817v-549h881z" />
    <glyph glyph-name="oe" unicode="&#x153;" horiz-adv-x="2160" 
d="M1577 936q-154 0 -275.5 -100.5t-142.5 -266.5h803q-18 172 -124.5 269.5t-260.5 97.5zM626.5 68q180.5 0 304.5 123.5t124 311t-123 310.5t-305.5 123t-305 -123t-122.5 -310t123.5 -311t304 -124zM2062 492h-907q2 -193 125 -309.5t283 -116.5q287 0 389 256l88 -21
q-57 -158 -180 -241t-282.5 -83t-286 79t-187.5 216q-63 -137 -190.5 -216t-286.5 -79q-223 0 -375 149.5t-152 375t151.5 374t375.5 148.5q160 0 287.5 -80t189.5 -215q63 139 191 218t280 79q207 0 343 -138.5t144 -359.5v-36z" />
    <glyph glyph-name="Racute" unicode="&#x154;" horiz-adv-x="1368" 
d="M301 723h520q145 0 234.5 77t89.5 201.5t-89 200.5t-235 76h-520v-555zM301 631v-631h-104v1372h624q193 0 309.5 -101.5t116.5 -269t-116.5 -269t-309.5 -101.5h-88l570 -631h-136l-565 631h-301zM719 1532h-90l176 283h115z" />
    <glyph glyph-name="racute" unicode="&#x155;" horiz-adv-x="825" 
d="M725 1010q41 0 70 -6l-11 -95q-20 4 -59 4q-199 0 -312.5 -142t-113.5 -353v-418h-100v1001h100v-280q63 131 173 210t253 79zM496 1161h-90l176 283h114z" />
    <glyph glyph-name="Rcommaaccent" unicode="&#x156;" horiz-adv-x="1368" 
d="M625 -92h108l-121 -285h-80zM301 723h520q145 0 234.5 77t89.5 201.5t-89 200.5t-235 76h-520v-555zM301 631v-631h-104v1372h624q193 0 309.5 -101.5t116.5 -269t-116.5 -269t-309.5 -101.5h-88l570 -631h-136l-565 631h-301z" />
    <glyph glyph-name="rcommaaccent" unicode="&#x157;" horiz-adv-x="825" 
d="M195 -92h108l-121 -285h-80zM725 1010q41 0 70 -6l-11 -95q-20 4 -59 4q-199 0 -312.5 -142t-113.5 -353v-418h-100v1001h100v-280q63 131 173 210t253 79z" />
    <glyph glyph-name="Rcaron" unicode="&#x158;" horiz-adv-x="1368" 
d="M301 723h520q145 0 234.5 77t89.5 201.5t-89 200.5t-235 76h-520v-555zM301 631v-631h-104v1372h624q193 0 309.5 -101.5t116.5 -269t-116.5 -269t-309.5 -101.5h-88l570 -631h-136l-565 631h-301zM614 1520l-241 284h104l185 -217l184 217h106l-243 -284h-95z" />
    <glyph glyph-name="rcaron" unicode="&#x159;" horiz-adv-x="825" 
d="M725 1010q41 0 70 -6l-11 -95q-20 4 -59 4q-199 0 -312.5 -142t-113.5 -353v-418h-100v1001h100v-280q63 131 173 210t253 79zM391 1149l-241 285h104l184 -217l185 217h106l-244 -285h-94z" />
    <glyph glyph-name="Sacute" unicode="&#x15a;" horiz-adv-x="1267" 
d="M627 1395q205 0 337 -100.5t166 -266.5l-102 -24q-27 137 -133.5 219t-265 82t-258 -78t-99.5 -195.5t62.5 -172t181.5 -81.5l301 -71q137 -27 236.5 -103.5t99.5 -244.5t-134 -275t-357 -107t-375 110t-174 298l110 25q18 -158 141 -249t302.5 -91t282 79.5t102.5 203
t-60.5 176.5t-195.5 83l-318 74q-315 74 -315 330q0 172 130 275.5t335 103.5zM702 1532h-90l176 283h115z" />
    <glyph glyph-name="sacute" unicode="&#x15b;" horiz-adv-x="1038" 
d="M542 61q134 0 211.5 54.5t77.5 139.5t-49 125t-141 60l-246 54q-248 53 -248 243q0 129 101.5 209t263.5 80t264.5 -74.5t130.5 -195.5l-92 -25q-20 96 -100 153.5t-202 57.5t-193.5 -54t-71.5 -136.5t47 -119t137 -57.5l242 -53q256 -59 256 -250q0 -137 -106.5 -216
t-282.5 -79t-293 79t-137 218l98 25q10 -111 104.5 -174.5t228.5 -63.5zM584 1161h-90l176 283h114z" />
    <glyph glyph-name="Scedilla" unicode="&#x15e;" horiz-adv-x="1267" 
d="M666.5 70q179.5 0 282 79.5t102.5 203t-60.5 176.5t-195.5 83l-318 74q-315 74 -315 330q0 172 130 275.5t335 103.5t337 -100.5t166 -266.5l-102 -24q-27 137 -133.5 219t-265 82t-258 -78t-99.5 -195.5t62.5 -172t181.5 -81.5l301 -71q137 -27 236.5 -103.5
t99.5 -240.5t-122 -269.5t-329 -116.5l-170 -335h-110l196 338q-207 10 -346 118.5t-159 286.5l110 25q18 -158 141 -249t302.5 -91z" />
    <glyph glyph-name="scedilla" unicode="&#x15f;" horiz-adv-x="1038" 
d="M930 272q0 -129 -92.5 -205.5t-247.5 -86.5l-170 -338h-111l197 335q-166 10 -271.5 88t-123.5 209l98 25q10 -111 104.5 -174.5t228.5 -63.5t211.5 54.5t77.5 139.5t-49 125t-141 60l-246 54q-248 53 -248 243q0 129 101.5 209t263.5 80t264.5 -74.5t130.5 -195.5
l-92 -25q-20 96 -100 153.5t-202 57.5t-193.5 -54t-71.5 -136t47 -119t137 -58l242 -53q256 -60 256 -250z" />
    <glyph glyph-name="Scaron" unicode="&#x160;" horiz-adv-x="1267" 
d="M662 -23q-223 0 -375 110t-174 298l110 25q18 -158 141 -249t302.5 -91t282 79.5t102.5 203t-60.5 176.5t-195.5 83l-318 74q-315 74 -315 330q0 172 130 275.5t335 103.5t337 -100.5t166 -266.5l-102 -24q-27 137 -133.5 219t-265 82t-258 -78t-99.5 -195.5t62.5 -172
t181.5 -81.5l301 -71q137 -27 236.5 -103.5t99.5 -244.5t-134 -275t-357 -107zM598 1520l-242 284h105l184 -217l184 217h107l-244 -284h-94z" />
    <glyph glyph-name="scaron" unicode="&#x161;" horiz-adv-x="1038" 
d="M930 272q0 -137 -106.5 -216t-282.5 -79t-293 79t-137 218l98 25q10 -111 104.5 -174.5t228.5 -63.5t211.5 54.5t77.5 139.5t-49 125t-141 60l-246 54q-248 53 -248 243q0 129 101.5 209t263.5 80t264.5 -74.5t130.5 -195.5l-92 -25q-20 96 -100 153.5t-202 57.5
t-193.5 -54t-71.5 -136.5t47 -119.5t137 -57l242 -53q256 -59 256 -250zM479 1149l-241 285h104l184 -217l185 217h106l-244 -285h-94z" />
    <glyph glyph-name="tcedilla" unicode="&#x163;" horiz-adv-x="763" 
d="M518 -23h-6l-168 -335h-111l201 344q-100 23 -157.5 100.5t-57.5 196.5v632h-219v86h219v330h100v-330h375v-86h-375v-626q0 -100 56.5 -158.5t149.5 -59t173 67.5l39 -82q-104 -80 -219 -80z" />
    <glyph glyph-name="Tcaron" unicode="&#x164;" horiz-adv-x="1290" 
d="M1233 1278h-535v-1278h-106v1278h-535v94h1176v-94zM600 1520l-242 284h105l184 -217l184 217h107l-244 -284h-94z" />
    <glyph glyph-name="tcaron" unicode="&#x165;" horiz-adv-x="763" 
d="M508 -23q-125 0 -207 81t-82 225v632h-219v86h219v330h100v-330h375v-86h-375v-626q0 -100 56.5 -158.5t149.5 -59t173 67.5l39 -82q-104 -80 -229 -80zM473 1122v326h102l-20 -326h-82z" />
    <glyph glyph-name="Tbar" unicode="&#x166;" horiz-adv-x="1320" 
d="M698 1278v-547h281v-86h-281v-645h-106v645h-283v86h283v547h-535v94h1176v-94h-535z" />
    <glyph glyph-name="tbar" unicode="&#x167;" horiz-adv-x="763" 
d="M506 -23q-127 0 -209 81t-82 225v301h-205v84h205v247h-215v86h215v330h100v-330h375v-86h-375v-247h314v-84h-314v-295q1 -101 57 -159t149 -58t173 67l31 -84q-92 -78 -219 -78z" />
    <glyph glyph-name="Umacron" unicode="&#x16a;" horiz-adv-x="1484" 
d="M1307 1372v-780q0 -276 -155 -446t-409 -169q-253 0 -409 169t-156 446v780h105v-780q0 -232 127 -374q126 -142 334 -142t334 141t126 375v780h103zM1018 1577h-547v82h547v-82z" />
    <glyph glyph-name="umacron" unicode="&#x16b;" horiz-adv-x="1286" 
d="M1090 1001v-1001h-101v213q-59 -113 -164.5 -175.5t-244.5 -62.5q-182 0 -293 119t-111 314v593h98v-579q0 -158 87.5 -255t230.5 -97q180 0 288.5 115.5t108.5 314.5v501h101zM905 1206h-547v82h547v-82z" />
    <glyph glyph-name="Uring" unicode="&#x16e;" horiz-adv-x="1484" 
d="M1307 1372v-780q0 -276 -155 -446t-409 -169q-253 0 -409 169t-156 446v780h105v-780q0 -232 127 -374q126 -142 334 -142t334 141t126 375v780h103zM743 1819q-53 0 -91 -37t-38 -88t38 -88t91 -37t92 37q38 37 37 88q0 51 -37 88q-39 37 -92 37zM743 1503
q-82 1 -139 57t-57 134t57 134t139 56q81 0 139 -56t58 -134t-58 -134t-139 -57z" />
    <glyph glyph-name="uring" unicode="&#x16f;" horiz-adv-x="1286" 
d="M1090 1001v-1001h-101v213q-59 -113 -164.5 -175.5t-244.5 -62.5q-182 0 -293 119t-111 314v593h98v-579q0 -158 87.5 -255t230.5 -97q180 0 288.5 115.5t108.5 314.5v501h101zM631 1448q-53 0 -91 -37t-38 -88t38 -88t91 -37t91 37t38 88t-38 88t-91 37zM631 1133
q-82 0 -139.5 56t-57.5 134t57.5 134t139.5 56t139 -56t57 -134t-57 -134t-139 -56z" />
    <glyph glyph-name="Uhungarumlaut" unicode="&#x170;" horiz-adv-x="1484" 
d="M1307 1372v-780q0 -276 -155 -446t-409 -169q-253 0 -409 169t-156 446v780h105v-780q0 -232 127 -374q126 -142 334 -142t334 141t126 375v780h103zM831 1532l175 280h124l-206 -280h-93zM641 1532h-92l176 280h125z" />
    <glyph glyph-name="uhungarumlaut" unicode="&#x171;" horiz-adv-x="1286" 
d="M1090 1001v-1001h-101v213q-59 -113 -164.5 -175.5t-244.5 -62.5q-182 0 -293 119t-111 314v593h98v-579q0 -158 87.5 -255t230.5 -97q180 0 288.5 115.5t108.5 314.5v501h101zM719 1161l174 281h125l-207 -281h-92zM528 1161h-92l176 281h125z" />
    <glyph glyph-name="Uogonek" unicode="&#x172;" horiz-adv-x="1484" 
d="M1307 1372v-797q0 -295 -197 -469q-184 -154 -230 -206t-46 -108t30 -84t72 -28q41 0 106 27l23 -72q-168 -80 -268 9q-51 45 -51 112q0 66 31 118q32 52 112 122q-74 -18 -144 -19q-255 0 -411 165t-156 433v797h105v-797q0 -225 128 -362q127 -137 333 -137t333 137
t127 362v797h103z" />
    <glyph glyph-name="uogonek" unicode="&#x173;" horiz-adv-x="1286" 
d="M862 -251.5q0 72.5 32 123t112 128.5h-17v213q-59 -113 -164.5 -175.5t-244.5 -62.5q-182 0 -293 119t-111 314v593h98v-579q0 -158 87.5 -255t230.5 -97q180 0 288.5 115.5t108.5 314.5v501h101v-1001q-86 -86 -116 -129t-30 -94q0 -100 98 -101q32 0 95 23l12 -72
q-78 -27 -132.5 -26.5t-104.5 38t-50 110z" />
    <glyph glyph-name="Wcircumflex" unicode="&#x174;" horiz-adv-x="1943" 
d="M1898 1372l-432 -1372h-104l-391 1208l-391 -1208h-103l-434 1372h109l380 -1212l390 1212h100l389 -1212l379 1212h108zM786 1518h-104l242 282h94l244 -282h-107l-184 215z" />
    <glyph glyph-name="wcircumflex" unicode="&#x175;" horiz-adv-x="1554" 
d="M1511 1004l-340 -1010h-98l-295 848l-297 -848h-98l-340 1010h102l291 -859l301 856h80l301 -858l291 861h102zM594 1147h-105l242 283h94l244 -283h-106l-185 215z" />
    <glyph glyph-name="Ycircumflex" unicode="&#x176;" horiz-adv-x="1351" 
d="M727 0h-104v500l-580 872h117l516 -772l514 772h119l-582 -872v-500zM492 1518h-105l242 282h94l244 -282h-107l-184 215z" />
    <glyph glyph-name="ycircumflex" unicode="&#x177;" horiz-adv-x="1130" 
d="M1087 1004l-632 -1352h-111l166 356l-467 996h115l407 -881l412 881h110zM393 1149h-104l241 283h95l243 -283h-106l-184 215z" />
    <glyph glyph-name="Ydieresis" unicode="&#x178;" horiz-adv-x="1351" 
d="M727 0h-104v500l-580 872h117l516 -772l514 772h119l-582 -872v-500zM870 1569q-36 -1 -58 21t-22 54t24 56t56 22q32 0 56 -24q22 -24 22 -54q0 -32 -21 -54q-22 -21 -57 -21zM483 1569q-35 -1 -57 21t-23 54q0 32 24 56q25 24 57 22q32 0 55 -24t23 -54q0 -32 -22 -54
q-22 -21 -57 -21z" />
    <glyph glyph-name="Zacute" unicode="&#x179;" horiz-adv-x="1282" 
d="M1167 90v-90h-1036v66l899 1216h-872v90h1007v-72l-889 -1210h891zM717 1532h-90l176 283h115z" />
    <glyph glyph-name="zacute" unicode="&#x17a;" horiz-adv-x="1019" 
d="M938 86v-86h-856v70l709 845h-689v86h816v-69l-709 -846h729zM586 1161h-90l176 283h114z" />
    <glyph glyph-name="Zdotaccent" unicode="&#x17b;" horiz-adv-x="1282" 
d="M1167 90v-90h-1036v66l899 1216h-872v90h1007v-72l-889 -1210h891zM659 1581q-35 0 -57 22q-22 21 -20 53q0 32 22 54t56 23q32 0 55 -23q23 -22 23 -54t-22 -54t-57 -21z" />
    <glyph glyph-name="zdotaccent" unicode="&#x17c;" horiz-adv-x="1019" 
d="M938 86v-86h-856v70l709 845h-689v86h816v-69l-709 -846h729zM528 1210q-34 0 -56 22t-22 54t24 54q22 22 54 22t56 -23q22 -23 22 -55t-22 -52q-22 -22 -56 -22z" />
    <glyph glyph-name="Zcaron" unicode="&#x17d;" horiz-adv-x="1282" 
d="M1167 90v-90h-1036v66l899 1216h-872v90h1007v-72l-889 -1210h891zM612 1520l-241 284h104l184 -217l185 217h106l-243 -284h-95z" />
    <glyph glyph-name="zcaron" unicode="&#x17e;" horiz-adv-x="1019" 
d="M938 86v-86h-856v70l709 845h-689v86h816v-69l-709 -846h729zM481 1149l-241 285h104l184 -217l185 217h106l-244 -285h-94z" />
    <glyph glyph-name="florin" unicode="&#x192;" horiz-adv-x="1093" 
d="M825 1305q-111 0 -183 -68t-95 -184l-60 -326h422v-86h-436l-131 -729q-24 -114 -100 -182t-174 -68t-160 47l39 82q47 -35 115 -35t118 43q51 43 64 113l131 729h-264v86h278l60 326q29 156 130 249t245 93t233 -82l-45 -78q-76 70 -187 70z" />
    <glyph glyph-name="AEacute" unicode="&#x1fc;" horiz-adv-x="2129" 
d="M1069 442v811l-594 -811h594zM1174 1278v-543h817v-92h-817v-549h878v-94h-983v348h-661l-256 -348h-121l1013 1372h1008v-94h-878zM1481 1532h-90l176 283h114z" />
    <glyph glyph-name="aeacute" unicode="&#x1fd;" horiz-adv-x="1925" 
d="M874 473h-395q-131 0 -207 -52q-76 -51 -76 -147t76 -154t226 -58t264 109q113 110 112 284v18zM969 551h755q-14 174 -114 280q-100 107 -254 107t-264 -104t-123 -283zM1825 473h-856q9 -188 117 -298t276 -109q109 0 213 68t141 190l90 -23q-37 -141 -167 -232
q-129 -91 -283 -91t-268 76q-114 77 -170 216q-49 -135 -167 -214t-286 -79t-266 82q-99 82 -99 213t102 205t277 74h395v106q0 127 -82 204q-84 77 -222 77t-223 -61t-101 -172l-90 22q16 135 126 217t268 82t259 -65q100 -66 135 -177q133 242 416 242q201 0 331 -145
t134 -371v-37zM1010 1161h-90l176 283h114z" />
    <glyph glyph-name="Scommaaccent" unicode="&#x218;" horiz-adv-x="1267" 
d="M498 -377l92 285h108l-120 -285h-80zM627 1395q205 0 337 -100.5t166 -266.5l-102 -24q-27 137 -133.5 219t-265 82t-258 -78t-99.5 -195.5t62.5 -172t181.5 -81.5l301 -71q137 -27 236.5 -103.5t99.5 -244.5t-134 -275t-357 -107t-375 110t-174 298l110 25
q18 -158 141 -249t302.5 -91t282 79.5t102.5 203t-60.5 176.5t-195.5 83l-318 74q-315 74 -315 330q0 172 130 275.5t335 103.5z" />
    <glyph glyph-name="scommaaccent" unicode="&#x219;" horiz-adv-x="1038" 
d="M385 -377l92 285h109l-121 -285h-80zM542 61q134 0 211.5 54.5t77.5 139.5t-49 125t-141 60l-246 54q-248 53 -248 243q0 129 101.5 209t263.5 80t264.5 -74.5t130.5 -195.5l-92 -25q-20 96 -100 153.5t-202 57.5t-193.5 -54t-71.5 -136.5t47 -119t137 -57.5l242 -53
q256 -59 256 -250q0 -137 -106.5 -216t-282.5 -79t-293 79t-137 218l98 25q10 -111 104.5 -174.5t228.5 -63.5z" />
    <glyph glyph-name="uni021A" unicode="&#x21a;" horiz-adv-x="1290" 
d="M590 -92h108l-120 -285h-80zM1233 1278h-535v-1278h-106v1278h-535v94h1176v-94z" />
    <glyph glyph-name="uni021B" unicode="&#x21b;" horiz-adv-x="763" 
d="M401 -92h109l-121 -285h-80zM508 -23q-125 0 -207 81t-82 225v632h-219v86h219v330h100v-330h375v-86h-375v-626q0 -100 56.5 -158.5t149.5 -59t173 67.5l39 -82q-104 -80 -229 -80z" />
    <glyph glyph-name="circumflex" unicode="&#x2c6;" horiz-adv-x="1228" 
d="M799 1147l-185 215l-184 -215h-104l241 283h95l243 -283h-106z" />
    <glyph glyph-name="caron" unicode="&#x2c7;" horiz-adv-x="1228" 
d="M905 1434l-243 -285h-95l-241 285h104l184 -217l185 217h106z" />
    <glyph glyph-name="breve" unicode="&#x2d8;" horiz-adv-x="1228" 
d="M614 1143q-122 1 -198 71t-76 187h86q0 -82 54 -133t135 -51t136 51q54 51 54 133h84q0 -117 -77 -187t-198 -71z" />
    <glyph glyph-name="dotaccent" unicode="&#x2d9;" horiz-adv-x="1228" 
d="M614 1362q33 0 56 -23q22 -23 22 -55t-22 -52q-22 -22 -56 -22t-56 22t-22 54t23 54q22 22 55 22z" />
    <glyph glyph-name="ring" unicode="&#x2da;" horiz-adv-x="1228" 
d="M743 1321q0 51 -37 88q-38 37 -92 37t-91 -37q-38 -37 -38 -88t38 -88t91 -37t92 37q37 37 37 88zM811 1321q0 -78 -57 -134q-58 -57 -140 -57t-139 56t-57 135q0 78 57 134t139 56t140 -56t57 -134z" />
    <glyph glyph-name="ogonek" unicode="&#x2db;" horiz-adv-x="1228" 
d="M504 -223q0 -100 98 -101q31 0 94 23l13 -72q-79 -27 -133 -27t-104 39q-50 38 -50 110q0 71 32 125t119 134l76 -8q-85 -86 -115 -129t-30 -94z" />
    <glyph glyph-name="tilde" unicode="&#x2dc;" horiz-adv-x="1228" 
d="M406 1221h-76q0 88 45 134t109 46t138 -54q74 -55 114 -55q42 0 64 29t21 78h78q0 -90 -44 -136q-45 -46 -109 -46t-137 53t-115 53q-42 1 -64 -27q-24 -28 -24 -75z" />
    <glyph glyph-name="hungarumlaut" unicode="&#x2dd;" horiz-adv-x="1228" 
d="M725 1161h-92l174 281h125zM442 1161h-92l176 281h125z" />
    <glyph glyph-name="uni0326" unicode="&#x326;" horiz-adv-x="0" 
d="M465 -377l92 285h109l-121 -285h-80z" />
    <glyph glyph-name="Wgrave" unicode="&#x1e80;" horiz-adv-x="1943" 
d="M1898 1372l-432 -1372h-104l-391 1208l-391 -1208h-103l-434 1372h109l380 -1212l390 1212h100l389 -1212l379 1212h108zM924 1532l-201 283h115l176 -283h-90z" />
    <glyph glyph-name="wgrave" unicode="&#x1e81;" horiz-adv-x="1554" 
d="M1511 1004l-340 -1010h-98l-295 848l-297 -848h-98l-340 1010h102l291 -859l301 856h80l301 -858l291 861h102zM731 1161l-201 283h115l176 -283h-90z" />
    <glyph glyph-name="Wacute" unicode="&#x1e82;" horiz-adv-x="1943" 
d="M1898 1372l-432 -1372h-104l-391 1208l-391 -1208h-103l-434 1372h109l380 -1212l390 1212h100l389 -1212l379 1212h108zM1028 1532h-90l176 283h115z" />
    <glyph glyph-name="wacute" unicode="&#x1e83;" horiz-adv-x="1554" 
d="M1511 1004l-340 -1010h-98l-295 848l-297 -848h-98l-340 1010h102l291 -859l301 856h80l301 -858l291 861h102zM836 1161h-91l177 283h114z" />
    <glyph glyph-name="Wdieresis" unicode="&#x1e84;" horiz-adv-x="1943" 
d="M1898 1372l-432 -1372h-104l-391 1208l-391 -1208h-103l-434 1372h109l380 -1212l390 1212h100l389 -1212l379 1212h108zM1165 1569q-35 -1 -57 21t-23 54q0 32 24 56q25 24 57 22q32 0 55 -24t23 -54q0 -32 -22 -54q-22 -21 -57 -21zM778 1569q-36 -1 -58 21t-22 54
t24 56t56 22q32 0 56 -24q22 -24 22 -54q0 -32 -21 -54q-22 -21 -57 -21z" />
    <glyph glyph-name="wdieresis" unicode="&#x1e85;" horiz-adv-x="1554" 
d="M1511 1004l-340 -1010h-98l-295 848l-297 -848h-98l-340 1010h102l291 -859l301 856h80l301 -858l291 861h102zM973 1198q-35 0 -58 22t-23 54t24 54q24 24 57 24t55 -24t23 -56t-21 -52q-22 -22 -57 -22zM586 1198q-35 0 -58 22q-22 22 -22 54t24 54q24 24 56 24
q34 0 56 -24t22 -56t-22 -52q-22 -22 -56 -22z" />
    <glyph glyph-name="Ygrave" unicode="&#x1ef2;" horiz-adv-x="1351" 
d="M727 0h-104v500l-580 872h117l516 -772l514 772h119l-582 -872v-500zM629 1532l-201 283h115l176 -283h-90z" />
    <glyph glyph-name="ygrave" unicode="&#x1ef3;" horiz-adv-x="1130" 
d="M1087 1004l-632 -1352h-111l166 356l-467 996h115l407 -881l412 881h110zM528 1163l-200 283h114l176 -283h-90z" />
    <glyph glyph-name="endash" unicode="&#x2013;" horiz-adv-x="1269" 
d="M1147 481h-1024v82h1024v-82z" />
    <glyph glyph-name="emdash" unicode="&#x2014;" horiz-adv-x="2129" 
d="M2007 481h-1884v82h1884v-82z" />
    <glyph glyph-name="quoteleft" unicode="&#x2018;" horiz-adv-x="479" 
d="M106 840v4l183 528h80l-142 -532h-121z" />
    <glyph glyph-name="quoteright" unicode="&#x2019;" horiz-adv-x="479" 
d="M373 1372v-4l-180 -528h-82l141 532h121z" />
    <glyph glyph-name="quotesinglbase" unicode="&#x201a;" horiz-adv-x="479" 
d="M373 264v-6l-180 -528h-82l141 534h121z" />
    <glyph glyph-name="quotedblleft" unicode="&#x201c;" horiz-adv-x="792" 
d="M420 840v4l180 528h82l-141 -532h-121zM106 840v4l183 528h80l-142 -532h-121z" />
    <glyph glyph-name="quotedblright" unicode="&#x201d;" horiz-adv-x="792" 
d="M684 1372v-4l-180 -528h-82l141 532h121zM373 1372v-4l-180 -528h-82l141 532h121z" />
    <glyph glyph-name="quotedblbase" unicode="&#x201e;" horiz-adv-x="792" 
d="M684 264v-6l-180 -528h-82l141 534h121zM373 264v-6l-180 -528h-82l141 534h121z" />
    <glyph glyph-name="dagger" unicode="&#x2020;" horiz-adv-x="684" 
d="M606 1331v-76h-225v-487h-78v487h-225v76h225v185h78v-185h225z" />
    <glyph glyph-name="daggerdbl" unicode="&#x2021;" horiz-adv-x="684" 
d="M381 1255v-227h225v-76h-225v-184h-78v184h-225v76h225v227h-225v76h225v185h78v-185h225v-76h-225z" />
    <glyph glyph-name="bullet" unicode="&#x2022;" horiz-adv-x="788" 
d="M393 817q119 0 201 -81q82 -80 82 -194t-81 -191t-202 -77t-201 77t-79 191t81 194t199 81z" />
    <glyph glyph-name="ellipsis" unicode="&#x2026;" horiz-adv-x="1181" 
d="M991 147q33 -1 56 -23t23 -54t-24 -55q-22 -21 -56 -21t-56 22t-23 55q-1 32 23 54t57 22zM592 147q34 -1 56 -23t22 -54t-22 -55q-22 -21 -56 -21t-58 22q-22 22 -22 55q0 32 24 54t56 22zM193 147q33 -1 55 -23t22 -54t-22 -55q-22 -21 -56 -21t-57 22t-23 55
q0 32 24 54t57 22z" />
    <glyph glyph-name="perthousand" unicode="&#x2030;" horiz-adv-x="2535" 
d="M2091 551q-102 0 -179 -71q-77 -70 -77 -180t77 -178t178 -69q101 0 178 69q77 68 77 178t-76 180t-178 71zM1303 551q-101 0 -179 -71q-78 -70 -78 -180t78 -178q76 -68 178 -69q102 0 178 69q76 68 76 178t-76 180t-177 71zM2091 623q137 0 235 -89q98 -88 97 -232
t-99 -234t-233 -90t-234 90q-99 92 -99 234t97 232q99 89 236 89zM1303 623q137 0 234 -89q97 -88 97 -232t-98 -234t-233 -90t-235 90q-100 92 -99 234q0 142 98 232q99 89 236 89zM446 1323q-102 0 -179 -71q-77 -70 -77 -180t77 -178t178 -69q101 0 179 69q76 68 76 178
t-76 180t-178 71zM303 0l1036 1372h80l-1036 -1372h-80zM446 1395q136 0 234 -89q98 -90 98 -232t-98 -233t-234 -91t-234 91q-99 91 -99 233t98 232t235 89z" />
    <glyph glyph-name="guilsinglleft" unicode="&#x2039;" horiz-adv-x="466" 
d="M51 537l260 364h105l-260 -364l260 -365h-105z" />
    <glyph glyph-name="guilsinglright" unicode="&#x203a;" horiz-adv-x="466" 
d="M51 172l260 365l-260 364h105l260 -364l-260 -365h-105z" />
    <glyph glyph-name="fraction" unicode="&#x2044;" horiz-adv-x="419" 
d="M-354 0l1038 1372h80l-1038 -1372h-80z" />
    <glyph glyph-name="Euro" unicode="&#x20ac;" horiz-adv-x="1634" 
d="M976 74q160 0 272 102t159 289l98 -23q-49 -213 -189 -339t-341 -126q-201 1 -343 137t-188 369h-247v80h235q-6 59 -6 109t4 121h-233v79h245q40 242 184 382t348 140t344 -125q140 -126 187 -341l-100 -25q-45 189 -158 293t-273 104t-274 -114q-115 -114 -153 -314
h569l-20 -79h-559q-13 -115 0 -230h497l-18 -80h-465q41 -189 153 -299t272 -110z" />
    <glyph glyph-name="uni2116" unicode="&#x2116;" horiz-adv-x="2527" 
d="M1659 518h651v-84h-651v84zM2245 1049q0 115 -77 189t-182 75q-104 0 -182 -75q-78 -76 -78 -190t78 -190t182 -76t182 76q77 76 77 191zM1255 1372h103v-1372h-92l-965 1194v-1194h-104v1372h92l966 -1202v1202zM1987 702q-143 0 -245 98t-104 249q0 151 102 247t246 96
t244 -96t100 -248t-100 -248q-100 -98 -243 -98z" />
    <glyph glyph-name="uni2117" unicode="&#x2117;" horiz-adv-x="1607" 
d="M621 618h245q98 0 158 52t59 138q0 85 -59 136t-158 51h-245v-377zM549 1059h321q129 0 207 -69q78 -68 78 -182t-78 -184t-207 -69h-249v-264h-72v768zM802 1337q-268 0 -456 -185t-188 -466t188 -465t456 -184q269 0 456 184q188 184 188 465t-188 466t-456 185z
M802 1395q296 0 502 -203t206 -509t-206 -506t-502 -200t-502 200t-206 506t206 509t502 203z" />
    <glyph glyph-name="trademark" unicode="&#x2122;" horiz-adv-x="1314" 
d="M1214 834h-65v407l-203 -403h-45l-201 403v-407h-65v538h72l219 -430l219 430h69v-538zM541 1313h-197v-479h-70v479h-194v59h461v-59z" />
    <glyph glyph-name="oneeighth" unicode="&#x215b;" horiz-adv-x="1501" 
d="M1164 47q93 0 151 40q57 39 57 105t-55 109t-151 43t-152 -42q-58 -42 -58 -108t58 -107q58 -40 150 -40zM975 550q0 -60 54 -97t137 -37t134 36q52 36 54 97t-50 100t-136 39t-139 -39q-54 -39 -54 -99zM1456 177q0 -81 -80 -140t-211 -59t-211 58q-80 60 -80 152
q0 154 185 195q-158 45 -158 170q0 86 77 140q78 55 190 55t187 -54t75 -141q0 -125 -154 -170q86 -21 133 -73t47 -133zM1221 1372l-1037 -1372h-80l1037 1372h80zM313 1372v-745h-82v639l-180 -109v84l211 131h51z" />
    <glyph glyph-name="threeeighths" unicode="&#x215c;" horiz-adv-x="1710" 
d="M1353 344q-95 0 -153 -42t-57 -108q-1 -66 57 -107q58 -40 151 -40t150 40q57 39 57 105t-54 109q-56 43 -151 43zM1354 688q-84 0 -138 -39t-55 -99q0 -60 54 -97q53 -37 137 -37t135 36t53 97t-50 100t-136 39zM1642 177q0 -81 -80 -140t-210 -59q-131 0 -211 58
q-80 60 -80 152q0 154 184 195q-158 45 -158 170q0 86 77 140q77 55 190 55q114 0 188 -54t74 -141q0 -125 -154 -170q86 -21 133 -73t47 -133zM1407 1372l-1036 -1372h-80l1036 1372h80zM618 848q0 -96 -73 -160q-74 -63 -194 -63q-119 -1 -199 67t-82 185l67 14
q5 -95 65 -147t148 -52t140 44t52 112t-52 106t-138 37h-69v60h67q80 1 128 35t48 96t-51 104q-51 41 -132 41t-136 -49t-57 -135l-72 16q4 105 79 169t187 64t186 -58q72 -60 72 -152q0 -115 -121 -160q63 -18 100 -64t37 -110z" />
    <glyph glyph-name="fiveeighths" unicode="&#x215d;" horiz-adv-x="1687" 
d="M1353 344q-95 0 -153 -42t-57 -108q-1 -66 57 -107q58 -40 151 -40t150 40q57 39 57 105t-54 109q-56 43 -151 43zM1354 688q-84 0 -138 -39t-55 -99q0 -60 54 -97q53 -37 137 -37t135 36t53 97t-50 100t-136 39zM1642 177q0 -81 -80 -140t-210 -59q-131 0 -211 58
q-80 60 -80 152q0 154 184 195q-158 45 -158 170q0 86 77 140q77 55 190 55q114 0 188 -54t74 -141q0 -125 -154 -170q86 -21 133 -73t47 -133zM1413 1372l-1036 -1372h-80l1036 1372h80zM373 1083q115 1 185 -61t71 -168q0 -106 -77 -172q-77 -68 -195 -68q-117 0 -197 62
t-92 155l77 13q11 -72 69 -116t142 -44t141 46q56 46 56 123t-54 120t-141 43h-247l14 356h467v-72h-395l-11 -217h187z" />
    <glyph glyph-name="seveneighths" unicode="&#x215e;" horiz-adv-x="1456" 
d="M1119 47q93 0 151 40q57 39 57 105t-55 109q-54 43 -150 43t-153 -42t-57 -108t56 -107q58 -40 151 -40zM930 550q0 -60 54 -97t137 -37t134 36t53 97t-50 100t-136 39t-138 -39t-54 -99zM1411 177q0 -81 -80 -140t-211 -59t-211 58q-80 60 -80 152q0 154 185 195
q-158 45 -158 170q0 86 77 140q77 55 189 55t188 -54q75 -54 74 -141q1 -125 -153 -170q86 -21 133 -73t47 -133zM1186 1372l-1036 -1372h-80l1036 1372h80zM14 1300v72h523v-59l-342 -684h-91l340 671h-430z" />
    <glyph glyph-name="arrowleft" unicode="&#x2190;" horiz-adv-x="1488" 
d="M1407 612h-1188l559 -557l-73 -75l-685 684l685 684l73 -74l-559 -559h1188v-103z" />
    <glyph glyph-name="arrowup" unicode="&#x2191;" horiz-adv-x="1531" 
d="M817 0h-102v1190l-559 -561l-74 73l684 684l684 -684l-74 -73l-559 561v-1190z" />
    <glyph glyph-name="arrowright" unicode="&#x2192;" horiz-adv-x="1488" 
d="M82 612v103h1190l-561 559l73 74l684 -684l-684 -684l-73 75l561 557h-1190z" />
    <glyph glyph-name="arrowdown" unicode="&#x2193;" horiz-adv-x="1531" 
d="M715 1372h102v-1188l559 559l74 -73l-684 -684l-684 684l74 73l559 -559v1188z" />
    <glyph glyph-name="uni2196" unicode="&#x2196;" horiz-adv-x="1527" 
d="M166 362h-105v1010h1008v-102h-831l1208 -1209l-74 -75l-1206 1208v-832z" />
    <glyph glyph-name="uni2197" unicode="&#x2197;" horiz-adv-x="1527" 
d="M1466 1372v-1010h-104v832l-1208 -1208l-72 75l1208 1209h-833l2 102h1007z" />
    <glyph glyph-name="uni2198" unicode="&#x2198;" horiz-adv-x="1527" 
d="M1466 1010v-1010h-1007l-2 104h833l-1208 1207l72 75l1208 -1208v832h104z" />
    <glyph glyph-name="uni2199" unicode="&#x2199;" horiz-adv-x="1527" 
d="M1069 104v-104h-1008v1010h105v-832l1206 1208l74 -75l-1208 -1207h831z" />
    <glyph glyph-name="minus" unicode="&#x2212;" horiz-adv-x="1187" 
d="M1034 580h-880v90h880v-90z" />
    <glyph glyph-name="approxequal" unicode="&#x2248;" horiz-adv-x="1187" 
d="M841 383q-107 0 -237 61t-225 62q-150 0 -225 -74v92q80 68 225 68q96 0 230 -60q135 -60 241 -61q106 0 184 55v-96q-86 -47 -193 -47zM841 719q-107 0 -237 61t-225 62q-150 0 -225 -74v92q80 68 225 68q96 0 230 -60q135 -60 241 -61q106 0 184 55v-96
q-86 -47 -193 -47z" />
    <glyph glyph-name="notequal" unicode="&#x2260;" horiz-adv-x="1187" 
d="M1034 504v-88h-538l-129 -205h-101l131 205h-243v88h299l184 289h-483v90h540l131 207h99l-131 -207h241v-90h-299l-182 -289h481z" />
    <glyph glyph-name="lessequal" unicode="&#x2264;" horiz-adv-x="856" 
d="M776 279v-91h-706v91h706zM776 373l-713 286v84l713 289v-104l-583 -226l583 -227v-102z" />
    <glyph glyph-name="greaterequal" unicode="&#x2265;" horiz-adv-x="856" 
d="M788 188h-706v91h706v-91zM666 702l-584 226v104l713 -289v-84l-713 -286v102z" />
    <glyph glyph-name="K.ss03" horiz-adv-x="1435" 
d="M301 0h-104v1372h104v-909l877 909h122l-569 -590l658 -782h-134l-591 711l-363 -375v-336z" />
    <glyph glyph-name="Kcommaaccent.ss03" horiz-adv-x="1435" 
d="M680 -92h108l-120 -285h-80zM301 0h-104v1372h104v-909l877 909h122l-569 -590l658 -782h-134l-591 711l-363 -375v-336z" />
    <glyph glyph-name="Q.ss04" horiz-adv-x="1660" 
d="M231 685q0 -259 173 -435t426 -176t426 176q174 176 174 435t-174 436t-426 177q-253 0 -426 -177t-173 -436zM831 -23q-297 0 -499 205t-203 503q0 298 204 504q205 206 499 206t497 -206t203 -503q0 -182 -81 -337t-222 -251l379 -446h-146l-329 391q-141 -66 -302 -66
z" />
    <glyph glyph-name="I.ss05" horiz-adv-x="882" 
d="M494 1278v-1184h331v-94h-768v94h332v1184h-332v94h768v-94h-331z" />
    <glyph glyph-name="IJ.ss05" horiz-adv-x="2099" 
d="M1921 1372v-866q0 -236 -136 -382q-137 -146 -347 -146t-342 120q-132 121 -156 318l98 22q20 -166 124 -266t272 -100q169 0 277 121t108 313v772h-559v94h661zM825 1372v-94h-331v-1184h331v-94h-768v94h332v1184h-332v94h768z" />
    <glyph glyph-name="Iacute.ss05" horiz-adv-x="882" 
d="M494 1278v-1184h331v-94h-768v94h332v1184h-332v94h768v-94h-331zM498 1532h-90l176 283h114z" />
    <glyph glyph-name="Icircumflex.ss05" horiz-adv-x="882" 
d="M494 1278v-1184h331v-94h-768v94h332v1184h-332v94h768v-94h-331zM256 1518h-104l241 282h94l244 -282h-106l-185 215z" />
    <glyph glyph-name="Idieresis.ss05" horiz-adv-x="882" 
d="M494 1278v-1184h331v-94h-768v94h332v1184h-332v94h768v-94h-331zM635 1569q-35 -1 -57 21t-23 54q0 32 24 56q25 24 57 22q32 0 54 -24t23 -54q1 -32 -21 -54t-57 -21zM248 1569q-35 -1 -58 21q-22 22 -22 54t24 56t56 22q34 0 56 -24t22 -54q0 -32 -22 -54t-56 -21z
" />
    <glyph glyph-name="Idotaccent.ss05" horiz-adv-x="882" 
d="M494 1278v-1184h331v-94h-768v94h332v1184h-332v94h768v-94h-331zM440 1581q-34 0 -56 22q-22 21 -22 53t23 54t55 23q32 0 56 -23q22 -22 22 -54t-22 -54t-56 -21z" />
    <glyph glyph-name="Igrave.ss05" horiz-adv-x="882" 
d="M494 1278v-1184h331v-94h-768v94h332v1184h-332v94h768v-94h-331zM393 1532l-200 283h114l176 -283h-90z" />
    <glyph glyph-name="Imacron.ss05" horiz-adv-x="882" 
d="M494 1278v-1184h331v-94h-768v94h332v1184h-332v94h768v-94h-331zM715 1577h-547v82h547v-82z" />
    <glyph glyph-name="Iogonek.ss05" horiz-adv-x="882" 
d="M494 1278v-1184h331v-94h-333q-86 -86 -116 -129t-30 -94q0 -100 98 -101q31 0 95 23l12 -72q-79 -27 -133 -27t-104 39q-50 38 -50 110q0 73 32 123t112 128h-351v94h332v1184h-332v94h768v-94h-331z" />
    <glyph glyph-name="J.ss05" horiz-adv-x="1218" 
d="M1038 1372v-866q0 -236 -136 -382t-346 -146t-342 120q-132 121 -157 318l99 22q20 -166 124 -266t272 -100t276 121t108 313v772h-559v94h661z" />
    <glyph glyph-name="i.loclTRK" horiz-adv-x="552" 
d="M326 0h-99v1001h99v-1001zM276 1362q33 0 56 -23q22 -23 22 -55t-22 -52q-22 -22 -56 -22t-56 22t-22 54t23 54q22 22 55 22z" />
    <glyph glyph-name="germandbls.case" horiz-adv-x="2496" 
d="M1854 1395q205 0 336.5 -100.5t166.5 -266.5l-102 -24q-27 137 -133.5 219t-265.5 82t-258 -78t-99 -195.5t62.5 -172t181.5 -81.5l301 -71q137 -27 236.5 -104.5t99.5 -244.5t-134.5 -274t-357.5 -107t-374.5 110t-174.5 298l111 25q18 -158 141 -249t302 -91
t281.5 79.5t102.5 203t-60 176.5t-196 83l-317 74q-315 74 -315 330q0 172 130 275.5t335 103.5zM627 1395q205 0 337 -100.5t166 -266.5l-102 -24q-27 137 -133.5 219t-265 82t-258 -78t-99.5 -195.5t62.5 -172t181.5 -81.5l301 -71q137 -27 236.5 -103.5t99.5 -244.5
t-134 -275t-357 -107t-375 110t-174 298l110 25q18 -158 141 -249t302.5 -91t282 79.5t102.5 203t-60.5 176.5t-195.5 83l-318 74q-315 74 -315 330q0 172 130 275.5t335 103.5z" />
    <glyph glyph-name="a.ss01" horiz-adv-x="1116" 
d="M467 61q168 1 286 105t117 258v74h-364q-150 0 -230 -62t-80 -160q0 -96 76 -156q74 -60 195 -59zM577 1026q172 0 281 -100t109 -279v-647h-97v197q-59 -99 -168 -159t-258 -60t-246 81q-98 82 -98 216q0 135 106 221t302 86l362 -2v63q0 137 -82 215t-214 78t-218 -62
t-104 -167l-94 24q23 131 135 213t284 82z" />
    <glyph glyph-name="aacute.ss01" horiz-adv-x="1116" 
d="M467 61q168 1 286 105t117 258v74h-364q-150 0 -230 -62t-80 -160q0 -96 76 -156q74 -60 195 -59zM577 1026q172 0 281 -100t109 -279v-647h-97v197q-59 -99 -168 -159t-258 -60t-246 81q-98 82 -98 216q0 135 106 221t302 86l362 -2v63q0 137 -82 215t-214 78t-218 -62
t-104 -167l-94 24q23 131 135 213t284 82zM633 1161h-90l176 283h115z" />
    <glyph glyph-name="abreve.ss01" horiz-adv-x="1116" 
d="M467 61q168 1 286 105t117 258v74h-364q-150 0 -230 -62t-80 -160q0 -96 76 -156q74 -60 195 -59zM577 1026q172 0 281 -100t109 -279v-647h-97v197q-59 -99 -168 -159t-258 -60t-246 81q-98 82 -98 216q0 135 106 221t302 86l362 -2v63q0 137 -82 215t-214 78t-218 -62
t-104 -167l-94 24q23 131 135 213t284 82zM575 1143q-121 1 -197 71t-77 187h86q0 -82 54 -133t135 -51t136 51q54 51 54 133h84q0 -117 -77 -187t-198 -71z" />
    <glyph glyph-name="acircumflex.ss01" horiz-adv-x="1116" 
d="M467 61q168 1 286 105t117 258v74h-364q-150 0 -230 -62t-80 -160q0 -96 76 -156q74 -60 195 -59zM577 1026q172 0 281 -100t109 -279v-647h-97v197q-59 -99 -168 -159t-258 -60t-246 81q-98 82 -98 216q0 135 106 221t302 86l362 -2v63q0 137 -82 215t-214 78t-218 -62
t-104 -167l-94 24q23 131 135 213t284 82zM391 1147h-104l241 283h95l243 -283h-106l-185 215z" />
    <glyph glyph-name="adieresis.ss01" horiz-adv-x="1116" 
d="M467 61q168 1 286 105t117 258v74h-364q-150 0 -230 -62t-80 -160q0 -96 76 -156q74 -60 195 -59zM577 1026q172 0 281 -100t109 -279v-647h-97v197q-59 -99 -168 -159t-258 -60t-246 81q-98 82 -98 216q0 135 106 221t302 86l362 -2v63q0 137 -82 215t-214 78t-218 -62
t-104 -167l-94 24q23 131 135 213t284 82zM770 1198q-36 0 -58 22t-22 54t24 54q24 24 56 24t56 -24q22 -24 22 -56t-22 -52q-22 -22 -56 -22zM383 1198q-35 0 -57 22t-23 54q0 32 24 54q25 24 57 24t54 -24t23 -56t-21 -52q-22 -22 -57 -22z" />
    <glyph glyph-name="agrave.ss01" horiz-adv-x="1116" 
d="M467 61q168 1 286 105t117 258v74h-364q-150 0 -230 -62t-80 -160q0 -96 76 -156q74 -60 195 -59zM577 1026q172 0 281 -100t109 -279v-647h-97v197q-59 -99 -168 -159t-258 -60t-246 81q-98 82 -98 216q0 135 106 221t302 86l362 -2v63q0 137 -82 215t-214 78t-218 -62
t-104 -167l-94 24q23 131 135 213t284 82zM528 1161l-200 283h114l176 -283h-90z" />
    <glyph glyph-name="amacron.ss01" horiz-adv-x="1116" 
d="M467 61q168 1 286 105t117 258v74h-364q-150 0 -230 -62t-80 -160q0 -96 76 -156q74 -60 195 -59zM577 1026q172 0 281 -100t109 -279v-647h-97v197q-59 -99 -168 -159t-258 -60t-246 81q-98 82 -98 216q0 135 106 221t302 86l362 -2v63q0 137 -82 215t-214 78t-218 -62
t-104 -167l-94 24q23 131 135 213t284 82zM850 1206h-547v82h547v-82z" />
    <glyph glyph-name="aogonek.ss01" horiz-adv-x="1116" 
d="M467 61q168 1 286 105t117 258v74h-364q-150 0 -230 -62t-80 -160q0 -96 76 -156q74 -60 195 -59zM748 -251q0 73 32 123t111 128h-21v197q-59 -99 -168 -159t-258 -60t-246 81q-98 82 -98 216q0 135 106 221t302 86l362 -2v63q0 137 -82 215t-214 78t-218 -62t-104 -167
l-94 24q23 131 135 213q113 82 285 82t280 -100q109 -100 109 -279v-647h8q-86 -86 -116 -129t-30 -94q0 -100 99 -101q31 0 94 23l12 -72q-78 -27 -132 -27t-104 39q-50 38 -50 110z" />
    <glyph glyph-name="aring.ss01" horiz-adv-x="1116" 
d="M467 61q168 1 286 105t117 258v74h-364q-150 0 -230 -62t-80 -160q0 -96 76 -156q74 -60 195 -59zM577 1026q172 0 281 -100t109 -279v-647h-97v197q-59 -99 -168 -159t-258 -60t-246 81q-98 82 -98 216q0 135 106 221t302 86l362 -2v63q0 137 -82 215t-214 78t-218 -62
t-104 -167l-94 24q23 131 135 213t284 82zM575 1448q-53 0 -91 -37t-38 -88t38 -88t91 -37t92 37q38 37 38 88t-38 88q-39 37 -92 37zM575 1133q-82 0 -139 56t-57 134t57 134t139 56q81 0 139 -56t58 -134t-58 -134t-139 -56z" />
    <glyph glyph-name="atilde.ss01" horiz-adv-x="1116" 
d="M467 61q168 1 286 105t117 258v74h-364q-150 0 -230 -62t-80 -160q0 -96 76 -156q74 -60 195 -59zM577 1026q172 0 281 -100t109 -279v-647h-97v197q-59 -99 -168 -159t-258 -60t-246 81q-98 82 -98 216q0 135 106 221t302 86l362 -2v63q0 137 -82 215t-214 78t-218 -62
t-104 -167l-94 24q23 131 135 213t284 82zM456 1321q-42 0 -66 -28t-23 -74h-76q0 88 45 134q46 46 110 46t137 -54q73 -55 115 -55t63 29q22 29 21 78h78q0 -90 -44 -136q-44 -47 -108 -47t-137 54t-115 53z" />
    <glyph glyph-name="l.ss02" horiz-adv-x="620" 
d="M276 1475v-1252q0 -68 44.5 -109.5t108.5 -41.5t122 34l27 -83q-72 -45 -170 -45t-165 66.5t-67 174.5v1256h100z" />
    <glyph glyph-name="lacute.ss02" horiz-adv-x="620" 
d="M276 1475v-1252q0 -68 44.5 -109.5t108.5 -41.5t122 34l27 -83q-72 -45 -170 -45t-165 66.5t-67 174.5v1256h100zM283 1634h-90l176 283h114z" />
    <glyph glyph-name="lcaron.ss02" horiz-adv-x="620" 
d="M449 1149v326h102l-21 -326h-81zM276 1475v-1252q0 -68 44.5 -109.5t108.5 -41.5t122 34l27 -83q-72 -45 -170.5 -45.5t-165 66.5t-66.5 175v1256h100z" />
    <glyph glyph-name="lcommaaccent.ss02" horiz-adv-x="620" 
d="M221 -377l92 285h109l-121 -285h-80zM276 1475v-1252q0 -68 44.5 -109.5t108.5 -41.5t122 34l27 -83q-72 -45 -170 -45t-165 66.5t-67 174.5v1256h100z" />
    <glyph glyph-name="ldot.ss02" horiz-adv-x="677" 
d="M579.5 756q32.5 0 55 -22.5t22.5 -54.5t-21.5 -53.5t-56 -21.5t-56 21.5t-21.5 53.5t22.5 54.5t55 22.5zM297 1475v-1252q0 -67 44 -109q45 -42 109 -42t121 34l27 -83q-72 -45 -170 -45t-164.5 66.5t-66.5 174.5v1256h100z" />
    <glyph glyph-name="lslash.ss02" horiz-adv-x="673" 
d="M231 219v412l-170 -111v101l170 110v744h99v-680l202 133v-101l-202 -133v-471q0 -68 44 -109.5t108.5 -42t121.5 34.5l27 -83q-72 -45 -169.5 -45.5t-164 66.5t-66.5 175z" />
    <glyph glyph-name="k.ss03" horiz-adv-x="1208" 
d="M297 0h-100v1475h100v-1106l631 632h123l-408 -415l535 -586h-127l-476 518l-278 -287v-231z" />
    <glyph glyph-name="kcommaaccent.ss03" horiz-adv-x="1208" 
d="M578 -92h108l-121 -285h-80zM297 0h-100v1475h100v-1106l631 632h123l-408 -415l535 -586h-127l-476 518l-278 -287v-231z" />
    <glyph glyph-name="f_j" horiz-adv-x="1292" 
d="M1026 1384q32 0 56 -22t24 -56q0 -32 -23 -54t-57 -22t-58 22q-22 22 -22 55t24 55t56 22zM1077 1001v-1138q0 -104 -64 -168q-65 -63 -157 -63t-156 34l27 84q47 -24 107 -24t101 41q42 41 42 106v1042h-651v-915h-101v915h-184v86h184v179q0 154 86 242t234 89
q106 0 190 -55l-33 -78q-68 43 -162 43t-154 -65q-60 -66 -60 -176v-179h751z" />
    <glyph glyph-name="f_t" horiz-adv-x="1490" 
d="M1233 -23q-125 0 -206 81t-81 225v632h-620v-915h-101v915h-184v86h184v179q0 154 86 242t234 89q106 0 190 -55l-33 -78q-68 43 -162 43t-154 -65q-60 -66 -60 -176v-179h620v330h98v-330h377v-86h-377v-626q0 -101 56 -159t149 -58q92 0 176 67l37 -82
q-104 -80 -229 -80z" />
    <glyph glyph-name="fl.ss02" horiz-adv-x="1337" 
d="M893 1475h100v-1252q0 -67 43 -109t109 -42t123 34l24 -83q-72 -45 -169 -45t-164 66q-67 67 -66 175v1256zM326 1001h395v-86h-395v-915h-101v915h-184v86h184v179q0 152 85 242t233 89q82 0 157 -32l-30 -84q-53 27 -121 26q-104 0 -164 -65q-59 -66 -59 -176v-179z
" />
    <glyph glyph-name="zero.tf" 
d="M625 74q201 0 323 169t123 443q0 274 -123 444q-124 170 -324 170t-322 -168t-122 -446q0 -276 122 -444t323 -168zM625 1395q247 0 399 -196t152 -513t-152 -513t-400 -196t-398 196q-151 196 -150 513q0 317 150 513q151 196 399 196z" />
    <glyph glyph-name="one.tf" 
d="M1126 94v-94h-956v94h448v1151l-417 -223v98l456 252h62v-1278h407z" />
    <glyph glyph-name="two.tf" 
d="M1114 94v-94h-917v66l501 456q168 146 234 238t66 228t-96 226q-95 90 -253 90t-255 -98t-101 -266l-96 16q6 199 131 319q126 120 324 120t321 -114t123 -300t-146 -346q-61 -68 -186 -182l-397 -359h747z" />
    <glyph glyph-name="three.tf" 
d="M1137 385q0 -182 -127 -295t-338 -113t-345 124t-147 327l101 18q8 -172 113 -275q106 -103 276 -103t270 87t100 223t-95 210t-259 74h-184v88h178q152 0 241 70t89 197q0 126 -94 207t-254 81q-158 1 -258 -95t-107 -260l-98 19q12 193 138 309t327 117q202 1 322 -105
t120 -278q0 -116 -64 -196t-178 -109q129 -27 201 -111t72 -211z" />
    <glyph glyph-name="four.tf" 
d="M850 444v807l-660 -807h660zM1182 356h-232v-356h-100v356h-766v105l743 911h123v-928h232v-88z" />
    <glyph glyph-name="five.tf" 
d="M649 799q207 -1 325 -101t118 -292t-130 -311q-130 -118 -343 -118t-349 126q-135 126 -137 339l100 21q0 -181 108 -287t278 -106t272 92t102 242t-93 227q-93 76 -259 76h-418l35 665h784v-94h-690l-26 -479h323z" />
    <glyph glyph-name="six.tf" 
d="M287 426q1 -152 111 -253t274 -101t266 105t102 259t-102 257t-271 103t-275 -108q-106 -110 -105 -262zM678 887q211 0 337 -128t126 -326t-129 -327t-340 -129q-254 -1 -392 175t-139 489q0 416 189 610q139 143 352 144q156 0 268 -76t152 -213l-101 -19
q-31 106 -115 162q-85 55 -208 56q-172 0 -283 -121q-166 -184 -153 -549v-35q39 127 161 207q123 80 275 80z" />
    <glyph glyph-name="seven.tf" 
d="M1124 1372v-67l-688 -1305h-119l680 1278h-893v94h1020z" />
    <glyph glyph-name="eight.tf" 
d="M643 70q172 0 279 80q106 80 106 210t-102 213q-102 82 -278 82t-282 -83t-106 -214q0 -132 106 -210t277 -78zM644 758q165 0 262 78q98 78 98 200t-100 198q-100 75 -260 75q-161 0 -260 -75t-100 -198q-1 -122 97 -200t263 -78zM1141 356q0 -170 -136 -274
q-135 -104 -359 -104t-362 104t-139 274q0 123 82 219t248 132q-149 35 -221 125t-72 208q0 160 127 257t336 97t334 -96q125 -98 125 -258q0 -116 -70 -208t-221 -125q166 -33 247 -131t81 -220z" />
    <glyph glyph-name="nine.tf" 
d="M211 934q1 -154 103 -258t270 -103q168 0 273 109q105 110 105 262t-110 253t-274 101t-266 -105t-101 -259zM578 1393q256 0 393 -174t137 -490q0 -416 -188 -610q-139 -143 -353 -144q-157 0 -269 76t-148 213l100 19q29 -103 114 -159t207 -56q174 0 283 118
q166 184 154 549v33q-43 -125 -164 -204t-273 -79q-209 0 -335 127t-127 325q0 198 129 327t340 129z" />
    <glyph glyph-name="zero.zero.tf" 
d="M626 74q200 0 322 169t123 430q0 261 -100 425l-668 -856q123 -168 323 -168zM614 1300q-190 0 -312 -168t-122 -446q0 -219 78 -369l664 848q-118 135 -308 135zM625 1395q247 0 399 -196t152 -513t-152 -513t-400 -196t-398 196q-151 196 -150 513q0 317 150 513
q151 196 399 196z" />
    <glyph glyph-name="zero.zero" horiz-adv-x="1331" 
d="M678 74q207 0 332 168t125 436t-113 436l-676 -864q125 -176 332 -176zM680 1300q-205 0 -329 -168t-124 -446q0 -207 74 -358l668 852q-117 120 -289 120zM680 1395q250 0 404 -196t155 -513q0 -317 -155 -513q-154 -196 -404 -196t-404 196t-153 513q0 317 153 513
q154 196 404 196z" />
    <glyph glyph-name="zero.dnom" horiz-adv-x="788" 
d="M395 53q104 0 167 85q62 86 62 228t-62 227t-166 85t-168 -85q-62 -85 -62 -227t62 -228q63 -85 167 -85zM395 750q141 0 227 -106t87 -278q0 -174 -86 -280q-85 -106 -227 -106t-229 106t-87 280t87 278q87 106 228 106z" />
    <glyph glyph-name="one.dnom" horiz-adv-x="452" 
d="M313 0h-82v639l-180 -109v84l211 131h51v-745z" />
    <glyph glyph-name="two.dnom" horiz-adv-x="655" 
d="M590 72v-72h-531v53l285 244q88 76 123 122q35 45 35 113t-49 112t-131 44t-132 -51t-51 -137l-73 14q0 106 70 175q71 69 187 69q115 0 187 -62t72 -156q0 -92 -44 -152t-139 -140l-209 -176h400z" />
    <glyph glyph-name="three.dnom" horiz-adv-x="679" 
d="M351 -23q-119 0 -199 69t-82 185l67 15q5 -94 65 -146t148 -53q88 0 140 44t52 112q0 67 -52 105t-138 38h-69v60h67q80 0 128 34t48 98q0 62 -51 103t-132 41t-136 -49t-57 -135l-72 16q4 106 79 170t187 64t186 -60q72 -60 72 -151q0 -115 -121 -160q63 -19 101 -65
t36 -109q0 -96 -74 -161t-193 -65z" />
    <glyph glyph-name="four.dnom" horiz-adv-x="731" 
d="M481 250v401l-344 -401h344zM686 182h-129v-184h-76v184h-424v76l412 485h88v-493h129v-68z" />
    <glyph glyph-name="five.dnom" horiz-adv-x="688" 
d="M373 449q115 1 185 -61t71 -168q0 -106 -77 -174t-195 -66q-117 0 -197 61t-92 156l77 12q11 -72 69 -116t142 -44t141 46q56 46 56 123t-54 120t-141 43h-247l14 356h467v-71h-395l-11 -217h187z" />
    <glyph glyph-name="six.dnom" horiz-adv-x="733" 
d="M387 45q86 0 139 54t54 132q0 78 -54 130q-54 53 -142 53q-89 0 -143 -56q-55 -56 -55 -132q0 -77 58 -129t143 -52zM397 475q115 1 186 -69t71 -179t-74 -179q-72 -70 -204 -71t-210 95t-78 266q0 225 107 332q78 78 185 78t173 -46t82 -127l-78 -12q-27 117 -168 117
q-88 0 -143 -59q-80 -88 -80 -267q31 55 93 88t138 33z" />
    <glyph glyph-name="seven.dnom" horiz-adv-x="557" 
d="M537 743v-59l-342 -686h-91l340 674h-430v71h523z" />
    <glyph glyph-name="eight.dnom" horiz-adv-x="708" 
d="M353 47q93 0 151 40q57 39 57 105t-55 109q-54 43 -150 43t-153 -42t-57 -108t56 -107q58 -40 151 -40zM164 550q0 -60 54 -97t137 -37t134 36t53 97t-49 100q-53 39 -137 39t-138 -39t-54 -99zM645 177q0 -81 -80 -140t-211 -59t-211 58q-80 60 -80 152q0 154 185 195
q-158 45 -158 170q0 86 77 140q77 55 189 55t188 -54q75 -54 74 -141q1 -125 -153 -170q86 -21 133 -73t47 -133z" />
    <glyph glyph-name="nine.dnom" horiz-adv-x="733" 
d="M154 496q0 -78 54 -132t142 -53q88 -1 144 55t55 134q0 78 -57 130q-58 52 -144 52t-140 -54t-54 -132zM336 252q-116 0 -186 70t-70 178t72 178t206 70q133 0 211 -94t78 -265q0 -225 -106 -332q-79 -80 -187 -80q-108 1 -174 47t-82 128l78 12q31 -117 168 -117
q88 0 143 59q80 88 80 267q-31 -55 -93 -88t-138 -33z" />
    <glyph glyph-name="zero.numr" horiz-adv-x="788" 
d="M395 696q104 0 167 85q62 85 62 227t-62 228q-62 85 -166 85t-168 -85q-62 -85 -62 -227t62 -228q63 -85 167 -85zM395 1393q141 1 227 -105t87 -279q0 -173 -86 -279q-85 -106 -227 -107q-142 0 -229 106q-87 105 -87 279t87 280t228 105z" />
    <glyph glyph-name="one.numr" horiz-adv-x="452" 
d="M313 627h-82v639l-180 -109v84l211 131h51v-745z" />
    <glyph glyph-name="two.numr" horiz-adv-x="655" 
d="M590 707v-72h-531v53l285 244q88 76 123 122t35 114t-49 111q-49 44 -131 44t-132 -51t-51 -137l-73 14q0 106 70 175q71 69 187 69q115 -1 187 -63t72 -154t-44 -153q-44 -60 -139 -140l-209 -176h400z" />
    <glyph glyph-name="three.numr" horiz-adv-x="679" 
d="M351 625q-119 -1 -199 67t-82 185l67 14q5 -95 65 -147t148 -52t140 44t52 112t-52 106t-138 37h-69v60h67q80 1 128 35t48 96t-51 104q-51 41 -132 41t-136 -49t-57 -135l-72 16q4 105 79 169t187 64t186 -58q72 -60 72 -152q0 -115 -121 -160q63 -18 101 -64t36 -110
q0 -96 -73 -160q-74 -63 -194 -63z" />
    <glyph glyph-name="four.numr" horiz-adv-x="731" 
d="M481 879v401l-344 -401h344zM686 811h-129v-182h-76v182h-424v76l412 485h88v-493h129v-68z" />
    <glyph glyph-name="five.numr" horiz-adv-x="688" 
d="M373 1083q115 0 185 -61t71 -167q0 -105 -77 -173t-195 -68q-117 0 -197 62t-92 155l77 13q11 -72 69 -116t142 -44t141 46q56 46 56 123t-54 120t-141 43h-247l14 356h467v-72h-395l-11 -217h187z" />
    <glyph glyph-name="six.numr" horiz-adv-x="733" 
d="M387 690q86 0 139 54q54 54 54 132t-54 131q-54 52 -142 52q-89 0 -143 -55q-55 -54 -55 -132t58 -130t143 -52zM397 1120q115 0 186 -70t71 -178t-74 -178q-72 -70 -204 -70t-210 95q-78 94 -78 264q0 225 107 332q78 78 185 78t173 -45t82 -127l-78 -13
q-27 117 -168 117q-88 0 -143 -59q-80 -88 -80 -267q31 55 93 88t138 33z" />
    <glyph glyph-name="seven.numr" horiz-adv-x="557" 
d="M537 1372v-59l-342 -684h-91l340 671h-430v72h523z" />
    <glyph glyph-name="eight.numr" horiz-adv-x="708" 
d="M353 692q93 0 151 40q57 40 57 106t-55 108q-54 43 -150 43t-153 -42q-57 -43 -57 -109t56 -106q58 -40 151 -40zM164 1195q0 -60 54 -97t137 -37t134 36t53 97t-49 100q-53 39 -137 39t-138 -39t-54 -99zM645 822q0 -80 -80 -138t-211 -59q-131 0 -211 58t-80 151
q0 154 185 194q-158 45 -158 170q0 86 77 140t189 54t188 -54q75 -54 74 -140q1 -125 -153 -170q86 -20 133 -72q47 -54 47 -134z" />
    <glyph glyph-name="nine.numr" horiz-adv-x="733" 
d="M154 1142q0 -78 54 -132t142 -54t144 56t55 133q0 78 -57 130q-58 52 -144 52t-140 -53t-54 -132zM336 897q-116 0 -186 70q-70 71 -70 179t72 178t206 69q133 -1 211 -95t78 -264q0 -225 -106 -332q-79 -78 -187 -78t-174 46q-66 45 -82 127l78 12q31 -117 168 -117
q88 0 143 60q80 88 80 266q-31 -55 -93 -88t-138 -33z" />
    <glyph glyph-name="backslash.case" horiz-adv-x="702" 
d="M643 0h-98l-484 1372h97z" />
    <glyph glyph-name="periodcentered.case" horiz-adv-x="382" 
d="M193 754q33 0 55 -23t22 -55t-22 -52q-22 -22 -56 -22t-57 22t-23 54t24 54t57 22z" />
    <glyph glyph-name="bullet.case" horiz-adv-x="788" 
d="M393 952q119 0 201 -81t82 -195t-81 -190t-202 -76t-201 76t-79 191t81 195t199 80z" />
    <glyph glyph-name="colon.case" horiz-adv-x="382" 
d="M193 377q33 0 55 -23q22 -22 22 -54t-22 -54t-56 -21q-34 0 -57 22q-23 21 -23 53t24 54t57 23zM193 1096q33 0 55 -23t22 -55t-22 -52q-22 -22 -56 -22t-57 22t-23 54t24 54t57 22z" />
    <glyph glyph-name="exclamdown.case" horiz-adv-x="532" 
d="M319 0h-106v63l4 922h100l2 -922v-63zM266 1225q-32 -1 -56 23t-24 56t23 54t57 20q34 0 56 -22t22 -52q0 -32 -22 -56q-23 -23 -56 -23z" />
    <glyph glyph-name="questiondown.case" horiz-adv-x="1056" 
d="M74 391q0 180 119 292t303 122v182h96v-262h-55q-154 0 -259 -91q-106 -92 -106 -236t96 -235t254 -91t258 101t103 265l98 -16q-4 -193 -131 -317q-127 -123 -329 -123q-203 0 -325 114t-122 295zM545 1231q-33 1 -57 23t-24 54t24 54q22 22 56 20q34 0 56 -22t23 -52
q-1 -32 -23 -54t-55 -23z" />
    <glyph glyph-name="semicolon.case" horiz-adv-x="434" 
d="M299 264v-6l-182 -528h-80l141 534h121zM242 1096q32 0 56 -23t24 -55t-23 -52q-23 -22 -57 -22t-57 22q-21 22 -21 54t22 54t56 22z" />
    <glyph glyph-name="slash.case" horiz-adv-x="763" 
d="M162 0h-96l534 1372h96z" />
    <glyph glyph-name="braceleft.case" horiz-adv-x="884" 
d="M442 1108v-201q0 -80 -36 -140t-103 -89q139 -59 139 -229v-185q0 -80 46 -128t122 -48h148v-88h-156q-118 0 -188 71t-70 185v184q0 84 -52 136t-136 57l-37 6v80l37 6q84 4 136 55t52 135v201q0 115 71 186t187 70h156v-88h-148q-76 0 -122 -48t-46 -128z" />
    <glyph glyph-name="braceright.case" horiz-adv-x="884" 
d="M543 440v-184q0 -116 -71 -186t-187 -70h-156v88h147q74 0 120 48t46 128v185q0 170 140 229q-66 29 -103 89t-37 140v201q0 80 -46 128t-120 48h-147v88h156q117 0 187 -70t71 -186v-201q0 -84 51 -135t137 -55l37 -6v-80l-37 -6q-86 -4 -137 -56t-51 -137z" />
    <glyph glyph-name="bracketleft.case" horiz-adv-x="786" 
d="M297 1284v-1196h362v-88h-462v1372h462v-88h-362z" />
    <glyph glyph-name="bracketright.case" horiz-adv-x="786" 
d="M590 1372v-1372h-461v88h363v1196h-363v88h461z" />
    <glyph glyph-name="parenleft.case" horiz-adv-x="657" 
d="M236 686q0 -375 294 -649l-59 -60q-342 293 -342 709t342 709l59 -60q-294 -274 -294 -649z" />
    <glyph glyph-name="parenright.case" horiz-adv-x="657" 
d="M530 686q0 -414 -342 -709l-59 60q295 279 295 649t-295 649l59 60q342 -295 342 -709z" />
    <glyph glyph-name="emdash.case" horiz-adv-x="2129" 
d="M2007 643h-1884v82h1884v-82z" />
    <glyph glyph-name="endash.case" horiz-adv-x="1269" 
d="M1147 643h-1024v82h1024v-82z" />
    <glyph glyph-name="hyphen.case" horiz-adv-x="903" 
d="M780 639h-657v90h657v-90z" />
    <glyph glyph-name="guillemotleft.case" horiz-adv-x="790" 
d="M375 659l260 365h104l-260 -365l260 -364h-104zM51 659l260 365h105l-260 -365l260 -364h-105z" />
    <glyph glyph-name="guillemotright.case" horiz-adv-x="790" 
d="M375 295l260 364l-260 365h104l260 -365l-260 -364h-104zM51 295l260 364l-260 365h105l260 -365l-260 -364h-105z" />
    <glyph glyph-name="guilsinglleft.case" horiz-adv-x="466" 
d="M51 659l260 365h105l-260 -365l260 -364h-105z" />
    <glyph glyph-name="guilsinglright.case" horiz-adv-x="466" 
d="M51 295l260 364l-260 365h105l260 -365l-260 -364h-105z" />
    <glyph glyph-name="cent.tf" 
d="M199 499q0 -177 104 -293t262 -134v858q-156 -18 -261 -136t-105 -295zM651 -266h-88v246q-197 18 -330 160t-133 358t133 361q133 144 330 165v266h88v-266q152 -10 270 -94t158 -219l-94 -31q-31 110 -124 176t-212 74v-858q119 8 211 69t125 168l92 -26
q-37 -133 -155 -214t-271 -92v-243z" />
    <glyph glyph-name="dollar.tf" 
d="M993 381q0 107 -59 157t-172 76l-96 23v-516q150 4 238 78t89 182zM281 1000q0 -104 57 -151q57 -48 166 -75l76 -18v497q-133 -9 -216 -79t-83 -174zM1094 395q0 -162 -117 -260t-309 -104v-236h-90v240q-182 17 -306 121t-139 262l103 22q14 -133 108 -216t236 -99v532
l-111 27q-295 63 -295 303q0 154 112 249t292 105v236h90v-238q170 -14 278 -111t123 -239l-98 -20q-13 117 -97 191t-208 89v-512l118 -28q310 -68 310 -314z" />
    <glyph glyph-name="Euro.tf" 
d="M674 74q150 0 254 101t151 286l101 -23q-46 -211 -180 -336t-326 -125q-192 -1 -329 135q-136 136 -179 371h-121v80h111q-6 59 -6 109t4 121h-109v79h119q39 244 176 383q138 139 332 139t327 -125q133 -126 181 -339l-101 -21q-43 183 -149 287t-257 104t-259 -114
t-144 -314h537l-21 -79h-528q-4 -70 -4 -120t6 -110h469l-18 -80h-439q40 -193 146 -301t256 -108z" />
    <glyph glyph-name="florin.tf" 
d="M967 1305q-111 0 -184 -68t-95 -184l-59 -326h420v-86h-435l-133 -729q-20 -114 -97 -182t-174 -68t-161 47l39 82q47 -35 114 -35q68 0 118 43t63 113l131 729h-262v86h276l60 326q31 156 132 249q100 93 244 93t232 -82l-43 -78q-75 70 -186 70z" />
    <glyph glyph-name="sterling.tf" 
d="M1151 94v-94h-1073v63l172 25v502h-172v94h172v277q0 195 123 315t321 119q198 0 320 -117q121 -117 125 -311l-97 -17q-6 162 -100 254t-247 92t-247 -92t-94 -243v-277h537v-94h-537v-496h797z" />
    <glyph glyph-name="yen.tf" 
d="M1073 616v-81h-397v-181h397v-82h-397v-272h-105v272h-395v82h395v181h-395v81h350l-483 756h117l463 -737l462 737h121l-485 -756h352z" />
    <glyph glyph-name="approxequal.tf" 
d="M872 383q-108 0 -238 61t-224 62q-150 0 -226 -74v92q80 68 226 68q96 0 230 -60t240 -61q106 0 185 55v-96q-85 -47 -193 -47zM872 719q-108 0 -238 61t-224 62q-150 0 -226 -74v92q80 68 226 68q96 0 230 -60t240 -61q106 0 185 55v-96q-85 -47 -193 -47z" />
    <glyph glyph-name="divide.tf" 
d="M623 324q33 0 55 -23t22 -55t-22 -52q-22 -22 -56 -22t-57 22t-23 54t24 54t57 22zM1065 580h-881v90h881v-90zM623 1069q33 1 55 -23t22 -56t-22 -54t-56 -21q-34 0 -57 22q-23 21 -23 53t24 56q24 23 57 23z" />
    <glyph glyph-name="equal.tf" 
d="M1065 416h-881v88h881v-88zM1065 793h-881v90h881v-90z" />
    <glyph glyph-name="greater.tf" 
d="M891 637l-610 283v106l739 -344v-90l-739 -344v104z" />
    <glyph glyph-name="greaterequal.tf" 
d="M987 188h-704v91h704v-91zM866 702l-583 226v104l710 -289v-84l-710 -286v102z" />
    <glyph glyph-name="less.tf" 
d="M969 248l-738 344v90l738 344v-106l-611 -283l611 -285v-104z" />
    <glyph glyph-name="lessequal.tf" 
d="M969 279v-91h-707v91h707zM969 373l-713 286v84l713 289v-104l-584 -226l584 -227v-102z" />
    <glyph glyph-name="minus.tf" 
d="M1065 580h-881v90h881v-90z" />
    <glyph glyph-name="multiply.tf" 
d="M690 625l297 -295l-65 -68l-297 297l-297 -297l-66 68l297 295l-297 297l66 65l297 -297l297 297l65 -65z" />
    <glyph glyph-name="notequal.tf" 
d="M1065 504v-88h-539l-129 -205h-100l131 205h-244v88h299l185 289h-484v90h541l131 207h98l-131 -207h242v-90h-299l-182 -289h481z" />
    <glyph glyph-name="plus.tf" 
d="M1065 580h-395v-398h-90v398h-396v90h396v397h90v-397h395v-90z" />
    <glyph glyph-name="plusminus.tf" 
d="M184 90h881v-90h-881v90zM1065 752v-90h-395v-367h-90v367h-396v90h396v376h90v-376h395z" />
    <glyph glyph-name="bar.case" horiz-adv-x="493" 
d="M297 -84h-100v1538h100v-1538z" />
    <glyph glyph-name="at.case" horiz-adv-x="1980" 
d="M957 305q136 0 230 96q93 96 93 250t-93 247t-229 93t-233 -94q-96 -94 -96 -248t96 -249t232 -95zM990 1477q360 1 602 -223q241 -224 241 -566q0 -265 -134 -395q-75 -72 -181 -72t-170 52q-63 52 -68 143q-109 -184 -330 -185q-170 0 -286 117t-117 302q0 185 117 302
t286 117q106 0 192 -49t138 -137v166h76v-617q0 -66 45 -106t117 -39q119 -1 179 117t60 282q0 315 -219 520t-547 205t-548 -214t-220 -537q0 -322 217 -538t527 -216q123 0 256 36t227 99l39 -64q-95 -65 -241 -103t-279 -38q-342 0 -581 234t-238 587q0 354 240 587
t600 233z" />
    <glyph glyph-name="caron.alt" horiz-adv-x="1228" 
d="M559 1006v325h103l-21 -325h-82z" />
    </font>
</defs>
</svg>
