<?xml version="1.0" standalone="no"?>
<!DOCTYPE svg PUBLIC "-//W3C//DTD SVG 1.1//EN" "http://www.w3.org/Graphics/SVG/1.1/DTD/svg11.dtd" >
<svg xmlns="http://www.w3.org/2000/svg">
<metadata>
Created by FontPrep 20130207 at Fri Jun  5 16:11:29 2015
 By Malliapi, Chris (UK - London)
Copyright (c) 2014 by Rene' Bieder. All rights reserved.
</metadata>
<defs>
<font id="e947fdc6f5ebe9b172011dc248289451" horiz-adv-x='1024' >
  <font-face 
    font-family="GalanoGrotesque-MediumItalic"
    font-weight="500"
    font-style="italic"
    font-stretch="normal"
    units-per-em="2048"
    panose-1="0 0 6 0 0 0 0 0 0 0"
    ascent="1638"
    descent="-410"
    x-height="1016"
    cap-height="1372"
    bbox="-522 -420 2531 1917"
    underline-thickness="102"
    underline-position="-102"
    slope="-13"
    unicode-range="U+0020-FB02"
  />
<missing-glyph horiz-adv-x="1597" 
d="M785 436q32 0 55 -22q22 -22 22 -53q0 -33 -22 -55t-56 -22q-32 0 -54 24q-22 22 -22 54t23 52q22 22 54 22zM804 1063q120 1 194 -67t73 -168q0 -100 -62 -158q-62 -59 -165 -70v-76h-115v172h72q65 0 107 34t42 91t-41 94t-109 37t-111 -42q-44 -42 -50 -111l-119 20
q4 102 84 173t200 71zM799 1307q-254 1 -432 -177q-179 -178 -179 -445t178 -444t433 -177q254 0 432 176q178 178 178 445t-178 445t-432 177zM800 1401q296 0 504 -205t208 -512t-208 -511t-504 -204t-505 204t-209 511t209 512t505 205z" />
    <glyph glyph-name="fi" unicode="fi" horiz-adv-x="1294" 
d="M1201 1454q58 0 97 -39t39 -95t-38 -93t-97 -37t-97 37t-38 93t38 95t96 39zM815 1505q98 0 176 -43l-88 -172q-55 25 -127 25t-131 -47t-80 -131l-28 -121h700l-233 -1016h-213l192 840h-485l-195 -840h-215l195 840h-164l41 176h164l28 121q39 170 165 269t298 99z" />
    <glyph glyph-name="fl" unicode="fl" horiz-adv-x="1277" 
d="M1341 1475l-342 -1475h-213l342 1475h213zM795 1505q102 0 166 -37l-43 -170q-183 44 -274 -31q-58 -48 -79 -130l-28 -121h340l-41 -176h-338l-195 -840h-213l195 840h-166l41 176h164l28 121q41 176 158 272t285 96z" />
    <glyph glyph-name=".notdef" horiz-adv-x="1597" 
d="M785 436q32 0 55 -22q22 -22 22 -53q0 -33 -22 -55t-56 -22q-32 0 -54 24q-22 22 -22 54t23 52q22 22 54 22zM804 1063q120 1 194 -67t73 -168q0 -100 -62 -158q-62 -59 -165 -70v-76h-115v172h72q65 0 107 34t42 91t-41 94t-109 37t-111 -42q-44 -42 -50 -111l-119 20
q4 102 84 173t200 71zM799 1307q-254 1 -432 -177q-179 -178 -179 -445t178 -444t433 -177q254 0 432 176q178 178 178 445t-178 445t-432 177zM800 1401q296 0 504 -205t208 -512t-208 -511t-504 -204t-505 204t-209 511t209 512t505 205z" />
    <glyph glyph-name=".null" horiz-adv-x="0" 
 />
    <glyph glyph-name="nonmarkingreturn" horiz-adv-x="681" 
 />
    <glyph glyph-name="space" unicode=" " horiz-adv-x="505" 
 />
    <glyph glyph-name="exclam" unicode="!" horiz-adv-x="577" 
d="M201 252q57 0 95 -38t38 -92t-38 -92t-95 -38t-97 38q-38 38 -38 92t38 92q40 38 97 38zM598 1372l-225 -944h-219l196 881l15 63h233z" />
    <glyph glyph-name="quotedbl" unicode="&#x22;" horiz-adv-x="782" 
d="M520 782l135 590h217l-135 -590h-217zM172 782l135 590h217l-135 -590h-217z" />
    <glyph glyph-name="numbersign" unicode="#" horiz-adv-x="1404" 
d="M963 831h-314l-153 -321h313zM1163 831l-155 -321h211l-91 -178h-204l-160 -332h-201l160 332h-313l-160 -332h-201l160 332h-215l90 178h211l154 321h-213l88 179h211l174 362h200l-174 -362h312l174 362h200l-174 -362h211l-90 -179h-205z" />
    <glyph glyph-name="dollar" unicode="$" horiz-adv-x="1196" 
d="M700 578l-84 -355q121 3 187 57t65 138q0 53 -32 87q-33 34 -115 64zM469 976q0 -58 28 -88t97 -57l76 322q-90 -14 -146 -66q-56 -53 -55 -111zM1073 436q0 -174 -137 -284t-356 -113l-58 -244h-180l61 260q-141 33 -231 123t-102 236l217 43q18 -164 170 -213l90 387
q-222 82 -271 190q-23 51 -22 119q0 162 126 270t322 125l58 242h180l-59 -250q143 -27 225 -117t98 -229l-207 -45q-12 162 -163 207l-89 -369l41 -14q143 -55 215 -128t72 -196z" />
    <glyph glyph-name="percent" unicode="%" horiz-adv-x="1826" 
d="M1357 483q-73 0 -134 -56t-61 -137t46 -125q47 -44 119 -44t133 56q62 55 62 137t-46 126t-119 43zM1366 629q142 0 229 -82q88 -83 88 -227q1 -144 -111 -246t-253 -102t-230 83q-89 85 -89 229t112 244t254 101zM583 1253q-73 0 -134 -55t-61 -136t46 -126
q47 -45 119 -45t133 56q62 55 62 137t-46 126t-119 43zM201 0l1331 1372h147l-1331 -1372h-147zM225 1054q1 146 113 246t254 101q142 0 229 -82q88 -83 88 -227q-1 -144 -113 -246t-253 -102t-230 82q-88 82 -88 228z" />
    <glyph glyph-name="ampersand" unicode="&#x26;" horiz-adv-x="1449" 
d="M557 152q168 0 307 104l-342 369q-104 -45 -164 -118t-61 -160q1 -87 71 -141t189 -54zM535 -31q-201 -1 -327 95t-126 246t94 264q94 112 250 180q-55 98 -55 209q0 188 132 313t353 125q166 0 259 -74t104 -211l-209 -35q-16 141 -181 142q-111 0 -179 -67t-68 -171
q0 -69 39 -135t129 -158l258 -278q55 90 77 194l25 99h190l-24 -99q-45 -184 -141 -327l172 -187l-160 -143l-160 172q-193 -154 -452 -154z" />
    <glyph glyph-name="quotesingle" unicode="'" horiz-adv-x="434" 
d="M172 782l135 590h217l-135 -590h-217z" />
    <glyph glyph-name="parenleft" unicode="(" horiz-adv-x="788" 
d="M713 1542l145 -149q-244 -184 -349 -343t-138 -364t10 -376t186 -347l-172 -131q-332 358 -254 862t572 848z" />
    <glyph glyph-name="parenright" unicode=")" horiz-adv-x="788" 
d="M158 -168l-146 150q244 182 349 341t139 365t-8 377q-43 172 -187 346l172 131q333 -354 253 -861t-572 -849z" />
    <glyph glyph-name="asterisk" unicode="*" horiz-adv-x="942" 
d="M735 1059l174 -207l-102 -86l-168 201l-86 -236l-141 51l86 234l-258 -45l-23 133l266 47l-174 207l105 86l168 -199l84 232l141 -52l-86 -233l258 45l22 -131z" />
    <glyph glyph-name="plus" unicode="+" horiz-adv-x="1189" 
d="M1061 530h-367l-86 -372h-188l86 372h-367l45 189h365l86 373h188l-86 -373h369z" />
    <glyph glyph-name="comma" unicode="," horiz-adv-x="473" 
d="M39 -270h-172l256 544h256l-2 -6z" />
    <glyph glyph-name="hyphen" unicode="-" horiz-adv-x="915" 
d="M772 430h-668l46 184h665z" />
    <glyph glyph-name="period" unicode="." horiz-adv-x="460" 
d="M141 252q57 0 95 -38t38 -92t-38 -92t-94 -38q-58 0 -97 38t-39 92t39 92t96 38z" />
    <glyph glyph-name="slash" unicode="/" horiz-adv-x="804" 
d="M999 1475l-962 -1618h-211l962 1618h211z" />
    <glyph glyph-name="zero" unicode="0" horiz-adv-x="1363" 
d="M630 174q162 0 284 141t165 371t-29 371q-73 141 -234 141t-284 -141q-124 -141 -166 -369t30 -372q73 -142 234 -142zM824 1401q260 0 398 -200q138 -201 79 -521t-239 -514t-440 -195q-259 0 -398 200q-138 201 -79 521t239 514t440 195z" />
    <glyph glyph-name="one" unicode="1" horiz-adv-x="743" 
d="M776 1372l-315 -1372h-215l254 1096l-394 -201l54 231l481 246h135z" />
    <glyph glyph-name="two" unicode="2" horiz-adv-x="1062" 
d="M879 991q-1 99 -63 159t-173 60t-185 -74t-96 -214l-204 41q27 201 165 319t335 119q196 0 312 -108t116 -271q0 -164 -89 -286q-88 -122 -290 -279l-328 -258h575l-49 -199h-944l45 141l578 459q82 63 110 87q130 109 163 190q22 53 22 114z" />
    <glyph glyph-name="three" unicode="3" horiz-adv-x="1183" 
d="M1180 1042q0 -127 -73 -222t-196 -138q150 -90 150 -271q1 -181 -145 -311t-370 -129q-224 0 -356 121q-131 121 -122 320l196 43q-2 -133 71 -213t207 -80t220 76t86 174t-64 149t-170 51h-186l51 176h176q137 0 231 62t95 160q0 100 -63 153t-174 53t-192 -67
q-81 -68 -106 -203l-196 37q35 193 172 305q136 112 332 113q196 -1 311 -99t115 -260z" />
    <glyph glyph-name="four" unicode="4" horiz-adv-x="1267" 
d="M788 483l158 678l-661 -678h503zM1001 483h201l-41 -180h-200l-70 -303h-215l69 303h-737l47 205l865 864h286z" />
    <glyph glyph-name="five" unicode="5" horiz-adv-x="1159" 
d="M614 854q203 0 323 -98t120 -295t-150 -343t-384 -146t-371 131q-137 132 -129 348l204 38q0 -153 79 -241t219 -88t227 83q86 83 86 194t-73 169t-192 60h-432l199 706h868l-47 -198h-667l-93 -320h213z" />
    <glyph glyph-name="six" unicode="6" horiz-adv-x="1253" 
d="M668 707q-114 -1 -207 -89q-92 -88 -92 -202q1 -114 73 -180q72 -68 188 -68t205 87t89 203t-71 182q-71 67 -185 67zM725 889q188 0 305 -115q117 -116 117 -312t-154 -343t-382 -147t-361 149q-133 150 -133 397q0 385 208 634t511 249q170 0 290 -82t142 -232
l-205 -40q-12 77 -77 119t-161 42q-180 0 -315 -141t-166 -342q66 78 166 121t215 43z" />
    <glyph glyph-name="seven" unicode="7" horiz-adv-x="1054" 
d="M1210 1372l-34 -155l-799 -1217h-273l791 1174h-705l46 198h974z" />
    <glyph glyph-name="eight" unicode="8" horiz-adv-x="1196" 
d="M291 374q-1 -102 73 -160q74 -56 193 -56t202 62t83 164t-72 160q-72 56 -192 56t-204 -62q-83 -62 -83 -164zM700 805q115 0 192 59q77 60 77 156t-70 149q-69 53 -181 53t-190 -58t-78 -155t68 -151q67 -54 182 -53zM1186 1058q0 -148 -82 -244q-82 -97 -236 -134
q102 -45 156 -125t55 -178q0 -176 -148 -291q-149 -115 -379 -115q-230 -1 -366 105t-137 272q0 132 99 234t274 133q-188 92 -189 301q1 172 139 278t353 106t338 -96q123 -98 123 -246z" />
    <glyph glyph-name="nine" unicode="9" horiz-adv-x="1267" 
d="M664 666q114 0 207 88t93 202t-72 182t-188 66q-116 0 -206 -87t-90 -201t71 -183q71 -67 185 -67zM186 893q0 215 153 361t382 147q229 0 362 -151t134 -396q0 -385 -208 -634t-511 -249q-170 0 -291 83t-144 231l205 41q14 -78 79 -119t161 -41q182 0 317 141t164 344
q-137 -166 -381 -166q-188 0 -305 114t-117 294z" />
    <glyph glyph-name="colon" unicode=":" horiz-adv-x="460" 
d="M141 252q57 0 95 -38t38 -92t-38 -92t-94 -38q-58 0 -97 38t-39 92t39 92t96 38zM307 969q57 0 95 -38t38 -92t-38 -91t-95 -37t-96 37t-39 91t39 92t96 38z" />
    <glyph glyph-name="semicolon" unicode=";" horiz-adv-x="522" 
d="M39 -270h-172l256 544h256l-2 -6zM350 969q57 0 95 -38t38 -92t-38 -91t-95 -37t-96 37t-39 91t39 92t96 38z" />
    <glyph glyph-name="less" unicode="&#x3c;" horiz-adv-x="909" 
d="M348 649l469 -192l-53 -215l-690 311l49 221l835 307l-51 -233z" />
    <glyph glyph-name="equal" unicode="=" horiz-adv-x="1189" 
d="M1022 365h-922l45 186h922zM1114 760h-921l45 186h921z" />
    <glyph glyph-name="greater" unicode="&#x3e;" horiz-adv-x="909" 
d="M635 674l-469 192l51 215l692 -311l-51 -221l-833 -307l51 235z" />
    <glyph glyph-name="question" unicode="?" horiz-adv-x="1079" 
d="M434 252q57 0 95 -38t38 -92t-38 -92t-95 -38t-96 38t-39 92t39 92t96 38zM682 1401q202 1 324 -105t122 -285t-146 -302t-357 -138l-33 -133h-197l72 299h121q119 0 225 73q107 73 107 179q0 105 -67 163t-181 58t-202 -78q-87 -78 -110 -200l-200 39q27 184 174 307
t348 123z" />
    <glyph glyph-name="at" unicode="@" horiz-adv-x="1957" 
d="M928 281q110 0 208 92q97 92 97 235q-1 106 -63 168t-172 64q-110 0 -206 -90q-98 -90 -98 -216t62 -190q62 -63 172 -63zM1458 258q121 0 198 150t77 311q0 247 -170 401t-437 154q-348 0 -604 -238t-256 -575q0 -262 166 -430t436 -168t512 155l52 -114
q-119 -80 -281 -126t-313 -46q-311 0 -513 198t-202 510q0 266 142 488t378 348q236 125 506 125q317 -1 521 -187t204 -477q0 -202 -109 -393q-53 -92 -145 -151t-207 -60q-184 0 -215 137q-129 -133 -328 -133q-156 0 -252 96t-96 256q0 217 148 357t352 141
q203 0 281 -172l36 156h144l-137 -592q-12 -53 20 -87t92 -34z" />
    <glyph glyph-name="A" unicode="A" horiz-adv-x="1447" 
d="M995 520l-112 584l-383 -584h495zM1321 0h-225l-62 319h-665l-209 -319h-252l921 1372h205z" />
    <glyph glyph-name="B" unicode="B" horiz-adv-x="1351" 
d="M739 188q131 0 209 72t78 164q0 178 -182 178h-434l-97 -414h426zM850 778q117 0 197 72t79 174q0 74 -50 117t-130 43h-401l-94 -406h399zM1251 446q1 -190 -149 -318t-397 -128h-654l318 1372h626q162 0 257 -82q96 -82 96 -223t-92 -241t-195 -119l-2 -9
q84 -10 138 -78t54 -174z" />
    <glyph glyph-name="C" unicode="C" horiz-adv-x="1589" 
d="M961 1401q244 0 408.5 -126t191.5 -335l-228 -45q-25 137 -121 219t-256 82q-240 0 -419 -171t-179 -413q0 -190 117 -313t294 -123t305 83t188 212l200 -63q-80 -199 -258 -318t-428 -119q-289 0 -465 175.5t-176 451.5q0 330 241 566.5t585 236.5z" />
    <glyph glyph-name="D" unicode="D" horiz-adv-x="1509" 
d="M520 199q297 0 506 173t209 429q0 174 -108 273t-310 100h-280l-226 -975h209zM842 1372q292 0 456 -154t164 -413q0 -337 -262 -571t-655 -234h-500l317 1372h480z" />
    <glyph glyph-name="E" unicode="E" horiz-adv-x="1302" 
d="M537 1174l-91 -388h740l-45 -196h-740l-90 -391h803l-47 -199h-1022l315 1372h1020l-45 -198h-798z" />
    <glyph glyph-name="F" unicode="F" horiz-adv-x="1214" 
d="M537 1174l-95 -408h707l-45 -199h-707l-131 -567h-221l315 1372h1004l-45 -198h-782z" />
    <glyph glyph-name="G" unicode="G" horiz-adv-x="1615" 
d="M1567 778q0 -45 -8 -94q-59 -326 -274.5 -519.5t-510.5 -193.5t-467 172t-172 451q0 332 248 569.5t594 237.5q219 0 382 -107.5t204 -298.5l-222 -49q-39 127 -141 187.5t-237 60.5q-246 0 -424.5 -170t-178.5 -412q0 -190 117 -312t303 -122t328.5 111.5t191.5 288.5
h-520l47 200h740z" />
    <glyph glyph-name="H" unicode="H" horiz-adv-x="1505" 
d="M1542 1372l-317 -1372h-219l135 590h-740l-135 -590h-221l315 1372h222l-133 -581h739l133 581h221z" />
    <glyph glyph-name="I" unicode="I" horiz-adv-x="544" 
d="M266 0h-221l315 1372h222z" />
    <glyph glyph-name="J" unicode="J" horiz-adv-x="1216" 
d="M492 170q130 0 228 89q97 89 132 233l207 880h221l-207 -880q-57 -244 -213 -382t-371 -138t-341 121q-126 122 -130 325l209 43q-2 -131 67 -211q68 -80 198 -80z" />
    <glyph glyph-name="K" unicode="K" horiz-adv-x="1374" 
d="M662 676l579 -676h-270l-490 578h-98l-133 -578h-219l315 1372h221l-137 -594h51l746 594h297z" />
    <glyph glyph-name="L" unicode="L" horiz-adv-x="1189" 
d="M1059 199l-45 -199h-969l315 1372h222l-271 -1173h748z" />
    <glyph glyph-name="M" unicode="M" horiz-adv-x="1828" 
d="M1866 1372l-318 -1372h-213l201 872l-655 -872h-166l-254 874l-203 -874h-213l315 1372h177l309 -1085l809 1085h211z" />
    <glyph glyph-name="N" unicode="N" horiz-adv-x="1558" 
d="M1593 1372l-315 -1372h-186l-590 1010l-234 -1010h-219l316 1372h186l584 -1020l237 1020h221z" />
    <glyph glyph-name="O" unicode="O" horiz-adv-x="1630" 
d="M783 178q208 0 371 144t195 361t-88 365t-330 148t-373 -146t-195 -364t90 -362q122 -146 330 -146zM955 1403q299 0 479 -210t136 -519t-270 -507t-533 -198q-308 0 -487 207q-178 207 -136 508t276 510t535 209z" />
    <glyph glyph-name="P" unicode="P" horiz-adv-x="1355" 
d="M801 684q158 0 258 84t100 209q0 92 -59 144t-174 53h-391l-113 -490h379zM942 1372q201 0 322 -106t120 -283q0 -221 -166 -360t-430 -140h-411l-113 -483h-219l315 1372h582z" />
    <glyph glyph-name="Q" unicode="Q" horiz-adv-x="1630" 
d="M931 1196q-210 0 -373 -146t-195 -364q-31 -217 91 -362q122 -146 330 -146t370 144q163 144 195 361t-88 365t-330 148zM768 -31q-309 0 -488 207q-178 207 -136 508t276 510t535 209q299 0 479 -210t137 -509q-49 -348 -311 -551l266 -315l-170 -154l-303 354
q-141 -49 -285 -49z" />
    <glyph glyph-name="R" unicode="R" horiz-adv-x="1392" 
d="M834 745q152 0 246 72t94 184q0 82 -56.5 127.5t-148.5 45.5h-428l-99 -429h392zM1397 1010q0 -174 -128 -301t-341 -156l317 -553h-250l-299 547h-301l-125 -547h-221l270 1174l48 198h614q190 0 303 -94t113 -268z" />
    <glyph glyph-name="S" unicode="S" horiz-adv-x="1284" 
d="M782.5 1401q227.5 0 358.5 -104.5t147 -286.5l-221 -47q-4 113 -85 182t-209 69t-211 -65.5t-83 -161.5q0 -55 34 -90t114 -63l219 -72q303 -98 303 -342q0 -203 -152.5 -326t-389 -123t-391.5 106.5t-167 307.5l234 47q8 -131 96 -200.5t235.5 -69.5t231.5 64.5
t84 168.5q0 59 -37 97t-127 69l-217 70q-139 47 -219 118.5t-80 208.5q0 195 152.5 319t380 124z" />
    <glyph glyph-name="T" unicode="T" horiz-adv-x="1280" 
d="M1386 1174h-481l-270 -1174h-221l270 1174h-483l45 198h1188z" />
    <glyph glyph-name="U" unicode="U" horiz-adv-x="1466" 
d="M650 -29q-264 -1 -403 179q-140 180 -77 456l176 766h221l-176 -766q-45 -192 31 -308t242 -116t290 116t168 308l176 766h222l-177 -766q-69 -295 -249 -465t-444 -170z" />
    <glyph glyph-name="V" unicode="V" horiz-adv-x="1454" 
d="M1616 1372l-905 -1372h-213l-271 1372h228l200 -1075l701 1075h260z" />
    <glyph glyph-name="W" unicode="W" horiz-adv-x="1972" 
d="M2132 1372l-727 -1372h-236l-71 1020l-545 -1020h-231l-95 1372h222l61 -1034l553 1034h217l74 -1034l540 1034h238z" />
    <glyph glyph-name="X" unicode="X" horiz-adv-x="1327" 
d="M838 684l333 -684h-251l-246 518l-484 -518h-286l647 688l-326 684h250l244 -514l481 514h285l-643 -684z" />
    <glyph glyph-name="Y" unicode="Y" horiz-adv-x="1396" 
d="M793 459l-107 -459h-221l106 457l-344 915h230l262 -688l579 688h269z" />
    <glyph glyph-name="Z" unicode="Z" horiz-adv-x="1282" 
d="M1337 1208l-989 -1020h764l-43 -188h-1077l33 141l1024 1043h-760l41 188h1044z" />
    <glyph glyph-name="bracketleft" unicode="[" horiz-adv-x="815" 
d="M557 1333l-303 -1317h350l-43 -184h-557l389 1686h557l-43 -185h-350z" />
    <glyph glyph-name="backslash" unicode="\" horiz-adv-x="804" 
d="M594 -147h-178l-205 1665h178z" />
    <glyph glyph-name="bracketright" unicode="]" horiz-adv-x="817" 
d="M889 1518l-389 -1686h-557l41 184h352l303 1317h-350l43 185h557z" />
    <glyph glyph-name="asciicircum" unicode="^" horiz-adv-x="858" 
d="M338 909h-199l414 463h152l200 -463h-180l-125 287z" />
    <glyph glyph-name="underscore" unicode="_" horiz-adv-x="1071" 
d="M846 -293h-989l41 178h989z" />
    <glyph glyph-name="grave" unicode="`" horiz-adv-x="1228" 
d="M586 1452l217 -291h-197l-287 291h267z" />
    <glyph glyph-name="a" unicode="a" horiz-adv-x="1325" 
d="M552 160q138 0 255 97t141 253q25 156 -60 251t-224 95t-247 -95q-109 -95 -135 -252t53 -253t217 -96zM500 -29q-211 0 -336 152q-125 153 -88 389t203 384t383 148q270 0 366 -200l39 172h213l-236 -1016h-213l25 104q-145 -133 -356 -133z" />
    <glyph glyph-name="b" unicode="b" horiz-adv-x="1314" 
d="M661 160q139 0 248 95t135 252t-54 253q-79 96 -216 96t-254 -97q-118 -97 -142 -253t60 -251t223 -95zM829 1044q211 0 335 -152t86 -388t-204 -384t-382 -149q-270 0 -365 203l-41 -174h-215l342 1475h213l-131 -566q152 135 362 135z" />
    <glyph glyph-name="c" unicode="c" horiz-adv-x="1169" 
d="M549 168q102 0 186 53t129 150l203 -37q-68 -164 -214 -263.5t-321 -99.5q-236 1 -370 151t-98 384t216.5 386t403.5 152q174 0 297 -97t143 -259l-219 -43q-8 96 -77.5 149.5t-172.5 53.5q-143 0 -251 -96t-132.5 -246t55 -244t222.5 -94z" />
    <glyph glyph-name="d" unicode="d" horiz-adv-x="1314" 
d="M654 856q-140 0 -248 -95t-135 -252t53 -253t217 -96t254 97t141 253q25 156 -59 251q-83 95 -223 95zM486 -29q-210 0 -334 152q-124 153 -88 389q38 236 204 384t383 148q270 0 365 -200l145 631h215l-340 -1475h-215l25 104q-150 -133 -360 -133z" />
    <glyph glyph-name="e" unicode="e" horiz-adv-x="1187" 
d="M653 864q-123 0 -217 -71.5t-137 -184.5h623q-6 123 -76 189.5t-193 66.5zM268 457v-15q0 -135 74 -210.5t211 -75.5q199 0 311 184l189 -49q-74 -154 -211 -237t-303 -83q-211 0 -339 126t-128 337q0 260 182 435t413.5 175t355.5 -162.5t81 -424.5h-836z" />
    <glyph glyph-name="f" unicode="f" horiz-adv-x="745" 
d="M777 1315q-75 0 -133 -48t-79 -130l-28 -121h340l-41 -176h-338l-195 -840h-213l195 840h-166l41 176h164l28 121q41 176 158 272t285 96q102 0 166 -37l-43 -170q-66 17 -141 17z" />
    <glyph glyph-name="g" unicode="g" horiz-adv-x="1310" 
d="M555 236q137 0 251 84t138 224q24 142 -59 231q-84 89 -222 89q-139 0 -243 -84t-130 -225t51 -230t214 -89zM428 -389q-360 0 -475 303l201 76q76 -186 286 -187q141 0 258 87t150 231l16 65q-152 -129 -362 -129q-210 -1 -332 141q-123 142 -88 369q37 205 206 340
t376 135q262 0 356 -180l37 154h207l-215 -926q-49 -223 -221 -351t-400 -128z" />
    <glyph glyph-name="h" unicode="h" horiz-adv-x="1273" 
d="M804 1044q206 0 298 -136t47 -337l-133 -571h-213l133 580q30 128 -26 202t-182 74t-218 -93t-137 -269l-115 -494h-213l340 1475h215l-137 -590q135 159 341 159z" />
    <glyph glyph-name="i" unicode="i" horiz-adv-x="573" 
d="M276 0h-213l234 1016h213zM474 1454q58 0 97 -39t39 -95t-38 -93t-97 -37t-97 37t-38 93t38 95t96 39z" />
    <glyph glyph-name="j" unicode="j" horiz-adv-x="595" 
d="M-46 -389q-110 0 -194 37l84 186q103 -48 181 6q39 29 49 74l252 1102h215l-260 -1131q-29 -123 -123 -199t-204 -75zM497 1454q58 0 97 -39t39 -95t-38 -93t-97 -37t-98 37q-38 37 -38 93t38 95q39 39 97 39z" />
    <glyph glyph-name="k" unicode="k" horiz-adv-x="1228" 
d="M627 526l479 -526h-260l-379 422h-109l-96 -422h-213l340 1475h213l-194 -842h57l512 383h291z" />
    <glyph glyph-name="l" unicode="l" horiz-adv-x="538" 
d="M258 0h-215l342 1475h213z" />
    <glyph glyph-name="m" unicode="m" horiz-adv-x="1939" 
d="M1526 1044q174 0 267 -110t52 -287l-149 -647h-211l139 604q24 108 -26 176t-162 68t-201 -83q-90 -83 -131 -243l-121 -522h-213l139 604q27 108 -23 176t-160 68t-197 -78t-130 -229l-125 -541h-213l234 1016h213l-29 -121q127 150 334 149q121 0 207 -53t115 -147
q143 200 391 200z" />
    <glyph glyph-name="n" unicode="n" horiz-adv-x="1277" 
d="M806 1044q208 0 300 -136t47 -337l-133 -571h-213l133 580q29 127 -26.5 201.5t-183.5 74.5t-222 -99.5t-137 -287.5l-109 -469h-215l236 1016h213l-31 -133q133 161 341 161z" />
    <glyph glyph-name="o" unicode="o" horiz-adv-x="1239" 
d="M565 160q137 0 252 96t139 250q25 154 -60 252t-222 98t-252 -98q-116 -98 -140 -252t61 -250t222 -96zM688 1038q229 0 371 -150q141 -151 105 -383q-36 -233 -209 -381t-403 -148t-372 149q-141 150 -105 382q36 231 210 381t403 150z" />
    <glyph glyph-name="p" unicode="p" horiz-adv-x="1325" 
d="M663 160q139 0 247 95t134 252t-52 253q-79 96 -217 96t-255 -97q-118 -97 -142 -252t61 -251t224 -96zM828 1044q212 0 336 -152t86 -388t-204 -384t-382 -149q-270 0 -365 203l-121 -522h-215l318 1364h213l-25 -107q148 135 359 135z" />
    <glyph glyph-name="q" unicode="q" horiz-adv-x="1325" 
d="M552 160q138 0 254 97t140 252t-59 251q-84 96 -223 96t-248 -95q-108 -95 -134 -252t53 -253t217 -96zM496 -29q-208 0 -334 152q-125 153 -87 389t204 384t383 148q272 0 366 -202l39 174h213l-313 -1364h-215l106 452q-154 -133 -362 -133z" />
    <glyph glyph-name="r" unicode="r" horiz-adv-x="849" 
d="M872 1028q45 0 68 -8l-57 -205q-16 2 -58 2q-186 0 -310 -122t-173 -337l-84 -358h-213l234 1016h215l-41 -180q188 192 419 192z" />
    <glyph glyph-name="s" unicode="s" horiz-adv-x="1034" 
d="M485 139q94 0 153.5 41t59.5 92.5t-27.5 77t-88.5 45.5l-189 62q-227 70 -227 264q0 143 111.5 233t289.5 90t294 -77.5t143 -198.5l-185 -57q-10 74 -76.5 118.5t-166 44.5t-149.5 -38.5t-50 -88t30.5 -77t102.5 -52.5l129 -40q133 -45 200.5 -111t67.5 -172
q0 -147 -124 -235.5t-302 -88.5t-305 74t-158 211l211 61q14 -84 88 -131t168 -47z" />
    <glyph glyph-name="t" unicode="t" horiz-adv-x="825" 
d="M477 172q88 0 193 55l14 -186q-127 -70 -272.5 -70t-220 95.5t-31.5 279.5l112 494h-194l41 176h194l72 315h215l-74 -315h348l-38 -176h-351l-110 -480q-43 -188 102 -188z" />
    <glyph glyph-name="u" unicode="u" horiz-adv-x="1277" 
d="M472 -29q-208 0 -300 137.5t-45 337.5l131 570h213l-133 -580q-27 -125 28.5 -200.5t180.5 -75.5t218 94t138 272l115 490h213l-236 -1016h-213l31 133q-133 -162 -341 -162z" />
    <glyph glyph-name="v" unicode="v" horiz-adv-x="1169" 
d="M1249 1016l-676 -1016h-225l-201 1016h220l145 -760l496 760h241z" />
    <glyph glyph-name="w" unicode="w" horiz-adv-x="1617" 
d="M1698 1016l-578 -1020h-200l-78 684l-396 -684h-192l-107 1020h203l74 -707l405 707h168l80 -709l402 709h219z" />
    <glyph glyph-name="x" unicode="x" horiz-adv-x="1220" 
d="M743 496l279 -496h-244l-184 350l-350 -350h-285l512 500l-262 516h242l172 -365l352 365h287z" />
    <glyph glyph-name="y" unicode="y" horiz-adv-x="1171" 
d="M1251 1016l-907 -1364h-244l250 373l-203 991h224l147 -742l498 742h235z" />
    <glyph glyph-name="z" unicode="z" horiz-adv-x="1054" 
d="M1034 872l-739 -696h602l-41 -176h-891l33 141l735 699h-557l41 176h850z" />
    <glyph glyph-name="braceleft" unicode="{" horiz-adv-x="876" 
d="M776 1337q-43 -1 -77 -29t-42 -73l-77 -338q-41 -170 -195 -223q125 -59 90 -223l-78 -338q-9 -45 11 -73t63 -28h193l-41 -180h-220q-125 0 -184 71t-33 189l76 334q29 119 -123 152l-53 16l39 160l57 16q168 35 195 152l78 333q27 119 119 191q93 72 219 72h219
l-43 -181h-193z" />
    <glyph glyph-name="bar" unicode="|" horiz-adv-x="530" 
d="M217 -147h-207l385 1665h207z" />
    <glyph glyph-name="braceright" unicode="}" horiz-adv-x="905" 
d="M162 -168h-219l41 180h194q43 0 77 29t42 74l78 338q41 170 194 223q-59 29 -84 87t-6 136l76 338q12 45 -8 73t-66 27h-192l43 181h219q125 0 184 -72t33 -189l-78 -333q-27 -121 125 -152l51 -16l-37 -160l-57 -16q-168 -35 -194 -152l-78 -334q-27 -118 -120 -190
t-218 -72z" />
    <glyph glyph-name="asciitilde" unicode="~" horiz-adv-x="999" 
d="M385 764q80 0 128 -27t84 -53t77 -27q42 0 72 30t40 79h181q-35 -154 -129 -224t-186 -69q-92 0 -163 53q-73 54 -115 54t-75 -28t-41 -73h-168q37 149 126 217t169 68z" />
    <glyph glyph-name="exclamdown" unicode="&#xa1;" horiz-adv-x="577" 
d="M-16 -340l225 946h219l-211 -946h-233zM383 780q-57 0 -96 39t-39 93t39 92t96 36q57 0 95 -36t38 -92q0 -54 -38 -93t-95 -39z" />
    <glyph glyph-name="cent" unicode="&#xa2;" horiz-adv-x="1183" 
d="M385 725q-84 -90 -102 -211q-19 -121 23 -204t130 -120l152 650q-119 -25 -203 -115zM752 838l-156 -668q195 20 278 201l203 -37q-63 -160 -205 -259t-311 -104l-57 -237h-180l61 258q-166 47 -254 186t-55 342t190 349q158 146 361 171l57 250h180l-57 -258
q133 -29 222 -120t106 -224l-220 -43q-11 152 -163 193z" />
    <glyph glyph-name="sterling" unicode="&#xa3;" horiz-adv-x="1310" 
d="M917 1206q-118 0 -208 -79t-119 -197l-49 -209h413l-45 -199h-413l-76 -323h733l-45 -199h-1126l30 135l185 41l77 346h-172l45 199h175l47 209q49 213 201 342q153 129 363 129q209 0 317 -130t71 -339l-201 -25q23 135 -31 217t-172 82z" />
    <glyph glyph-name="yen" unicode="&#xa5;" horiz-adv-x="1388" 
d="M926 668h295l-39 -164h-383l-29 -129h381l-37 -164h-381l-49 -211h-219l49 211h-373l37 164h373l29 129h-371l37 164h284l-280 704h227l246 -647l545 647h270z" />
    <glyph glyph-name="section" unicode="&#xa7;" horiz-adv-x="1112" 
d="M287 604q0 -76 110 -133l258 -129l29 -16q162 78 162 188q0 84 -107 135l-260 119l-24 12q-168 -58 -168 -176zM514 1050q0 -77 96 -124l254 -121q188 -86 189 -264q0 -225 -244 -338q27 -51 27 -121q0 -164 -120 -268t-310 -104t-292 90q-103 91 -94 249l203 43
q-10 -98 38 -154q47 -56 145 -56t154 51q56 52 56 127t-92 124l-256 121q-88 41 -138 116t-50 163q0 211 248 313q-31 55 -31 127q0 166 128 271q127 105 317 105t280 -95q90 -96 80 -252l-205 -31q12 92 -32 148t-138 56q-93 0 -153 -49q-60 -50 -60 -127z" />
    <glyph glyph-name="dieresis" unicode="&#xa8;" horiz-adv-x="1228" 
d="M942 1432q57 0 96 -40t39 -96t-38 -92q-38 -37 -96 -37t-96 37t-38 92q0 56 38 96t95 40zM518 1432q57 0 96 -40t39 -96t-38 -92q-38 -37 -96 -37t-96 37t-38 92q0 56 38 96t95 40z" />
    <glyph glyph-name="copyright" unicode="&#xa9;" horiz-adv-x="1568" 
d="M841 1069q155 0 255 -79t118 -197l-143 -31q-19 78 -81 123t-155 45t-160 -69t-67 -176t68 -177t161 -70t155 47t77 131l145 -24q-16 -129 -117 -211t-256 -82t-270 108q-115 107 -115 277t115 278q115 107 270 107zM1444 685q0 265 -178 443t-431 177q-253 1 -431 -177
t-177 -443q0 -265 177 -440q176 -175 430 -175t432 175t178 440zM836 1401q298 0 506 -205t208 -512t-209 -510t-505 -203t-506 203q-209 203 -209 510t209 512t506 205z" />
    <glyph glyph-name="ordfeminine" unicode="&#xaa;" horiz-adv-x="798" 
d="M502 991q-72 -1 -117 -31t-45 -74q0 -89 100 -87q78 0 139 49q60 49 78 119l7 24h-162zM612 1378q129 0 199 -68t37 -198l-96 -414h-158l10 43q-88 -59 -198 -59t-168 47q-60 47 -60 141t92 161t238 67h180l6 22q14 63 -14 99q-29 35 -92 34q-115 0 -168 -114l-135 30
q91 209 327 209z" />
    <glyph glyph-name="guillemotleft" unicode="&#xab;" horiz-adv-x="907" 
d="M412 537l323 364h215l-340 -375l156 -354h-199zM59 537l324 364h213l-338 -375l154 -354h-197z" />
    <glyph glyph-name="registered" unicode="&#xae;" horiz-adv-x="962" 
d="M520 1004h105q37 0 59 17t21 46q0 61 -80 61h-105v-124zM774 1069q0 -100 -104 -125l125 -135h-84l-121 131h-70v-131h-69v383h174q69 0 109 -34t40 -89zM598 647q141 0 240 98q98 99 98 245t-98 244t-240 99q-142 0 -240 -98q-98 -99 -98 -245t98 -245q99 -98 240 -98z
M598 1401q172 0 291 -117t119 -294t-119 -294q-119 -116 -291 -116t-291 116t-119 294q0 177 119 294t291 117z" />
    <glyph glyph-name="macron" unicode="&#xaf;" horiz-adv-x="1228" 
d="M1014 1184h-617l39 174h617z" />
    <glyph glyph-name="degree" unicode="&#xb0;" horiz-adv-x="843" 
d="M541 965q59 0 107 45t48 112q0 68 -39 106t-97 38t-107 -45t-49 -113t38 -106q40 -37 99 -37zM567 1401q123 0 202 -73q79 -74 79 -200t-95 -214t-219 -87q-124 0 -202 73t-78 200t95 214t218 87z" />
    <glyph glyph-name="plusminus" unicode="&#xb1;" horiz-adv-x="1191" 
d="M61 186h922l-45 -186h-922zM1139 860l-43 -186h-367l-76 -322h-188l74 322h-365l43 186h365l82 352h190l-82 -352h367z" />
    <glyph glyph-name="acute" unicode="&#xb4;" horiz-adv-x="1228" 
d="M807 1161h-197l217 291h267z" />
    <glyph glyph-name="paragraph" unicode="&#xb6;" horiz-adv-x="1191" 
d="M913 0h-163l315 1372h166zM502 612q-158 0 -254 84t-96 226q0 206 138 328t357 122h297l-317 -1372h-164l141 612h-102z" />
    <glyph glyph-name="periodcentered" unicode="&#xb7;" horiz-adv-x="460" 
d="M236 664q57 0 96 -38t39 -92t-39 -92t-96 -36q-57 0 -96 36q-38 38 -38 92t38 92q39 38 96 38z" />
    <glyph glyph-name="cedilla" unicode="&#xb8;" horiz-adv-x="1228" 
d="M459 0h162l-209 -338h-248z" />
    <glyph glyph-name="ordmasculine" unicode="&#xba;" horiz-adv-x="892" 
d="M556 825q80 -1 146 63t66 151t-54 141t-135 55t-147 -63t-66 -150t55 -142q54 -56 135 -55zM584 1378q150 0 245 -90q97 -90 97 -242t-114 -258t-263 -106t-247 91q-97 91 -97 243t114 257q115 105 265 105z" />
    <glyph glyph-name="guillemotright" unicode="&#xbb;" horiz-adv-x="907" 
d="M864 537l-323 -365h-215l340 375l-156 354h199zM510 537l-324 -365h-213l338 375l-153 354h196z" />
    <glyph glyph-name="onequarter" unicode="&#xbc;" horiz-adv-x="1505" 
d="M1167 285l72 315l-342 -315h270zM1315 285h117l-27 -129h-121l-35 -158h-147l37 158h-430l32 143l500 467h182zM367 1174l-201 -95l37 162l264 131h102l-176 -768h-157zM1513 1372l-1331 -1372h-147l1331 1372h147z" />
    <glyph glyph-name="onehalf" unicode="&#xbd;" horiz-adv-x="1619" 
d="M1395 551q0 47 -31 75q-32 28 -90 28t-98 -44q-40 -43 -50 -116l-139 22q6 121 93 195q87 73 207 73t186 -63q65 -63 65 -155t-52 -156q-52 -63 -179 -160l-150 -113h307l-26 -137h-572l27 104l330 242q92 70 132 114t40 91zM367 1174l-201 -95l37 162l264 131h102
l-176 -768h-157zM1503 1372l-1331 -1372h-147l1331 1372h147z" />
    <glyph glyph-name="threequarters" unicode="&#xbe;" horiz-adv-x="1714" 
d="M1376 285l72 315l-342 -315h270zM1524 285h116l-26 -129h-121l-35 -158h-147l37 158h-430l32 143l500 467h182zM1706 1372l-1331 -1372h-148l1332 1372h147zM418 592q-133 0 -210 71t-73 187l137 29q-2 -74 41 -117t114 -43t116 36t45 91q0 102 -127 102h-86l28 113h82
q70 0 119 30t50 81q2 52 -30 80t-94 28t-108 -45q-47 -45 -60 -117l-131 29q15 113 103 185t209 71q121 1 191 -59t65 -154q-2 -139 -152 -191q90 -45 86 -155t-93 -180q-89 -72 -222 -72z" />
    <glyph glyph-name="questiondown" unicode="&#xbf;" horiz-adv-x="1079" 
d="M396 -367q-202 -1 -324 105t-121 285q0 179 146 303t358 137l30 133h199l-72 -301h-123q-117 0 -225 -72t-106 -179q0 -107 67 -165q69 -57 183 -57t200 78t111 202l199 -41q-28 -182 -174 -305t-348 -123zM645 780q-57 0 -95 39t-38 93t38 92t95 36q57 0 96 -36t39 -92
q0 -54 -39 -93t-96 -39z" />
    <glyph glyph-name="Agrave" unicode="&#xc0;" horiz-adv-x="1447" 
d="M995 520l-112 584l-383 -584h495zM1321 0h-225l-62 319h-665l-209 -319h-252l921 1372h205zM872 1518l-286 290h266l217 -290h-197z" />
    <glyph glyph-name="Aacute" unicode="&#xc1;" horiz-adv-x="1447" 
d="M995 520l-112 584l-383 -584h495zM1034 1372l287 -1372h-225l-62 319h-665l-209 -319h-252l921 1372h205zM1073 1518h-196l217 290h266z" />
    <glyph glyph-name="Acircumflex" unicode="&#xc2;" horiz-adv-x="1447" 
d="M995 520l-112 584l-383 -584h495zM1034 1372l287 -1372h-225l-62 319h-665l-209 -319h-252l921 1372h205zM891 1501h-225l305 297h203l167 -297h-202l-86 158z" />
    <glyph glyph-name="Atilde" unicode="&#xc3;" horiz-adv-x="1447" 
d="M995 520l-112 584l-383 -584h495zM1034 1372l287 -1372h-225l-62 319h-665l-209 -319h-252l921 1372h205zM890 1645q-36 0 -59 -23t-30 -59h-146q29 125 102 181t147 56t134 -44t96 -44q68 0 91 88h145q-30 -129 -102 -185t-148 -56t-135 43t-95 43z" />
    <glyph glyph-name="Adieresis" unicode="&#xc4;" horiz-adv-x="1447" 
d="M995 520l-112 584l-383 -584h495zM1034 1372l287 -1372h-225l-62 319h-665l-209 -319h-252l921 1372h205zM1208 1788q56 0 96 -40t40 -95t-39 -92q-38 -37 -96 -37t-96 37t-38 92t38 95t95 40zM784 1788q56 0 96 -40t40 -95t-38 -92t-97 -37q-58 0 -96 37t-38 92t38 95
t95 40z" />
    <glyph glyph-name="Aring" unicode="&#xc5;" horiz-adv-x="1447" 
d="M995 520l-112 584l-383 -584h495zM1321 0h-225l-62 319h-665l-209 -319h-252l921 1372h205zM1102 1703q0 41 -26 65t-67 24q-42 0 -72 -30t-30 -70t24 -67q23 -26 65 -26t74 32t32 72zM989 1477q-96 0 -155 59q-60 59 -60 150t73 161t169 70t155 -59q59 -60 59 -152
t-72 -160q-73 -68 -169 -69z" />
    <glyph glyph-name="AE" unicode="&#xc6;" horiz-adv-x="2349" 
d="M1202 483l139 604l-632 -604h493zM1581 1174l-90 -388h739l-45 -196h-739l-90 -391h803l-45 -199h-1024l65 285h-655l-299 -285h-293l1472 1372h1045l-45 -198h-799z" />
    <glyph glyph-name="Ccedilla" unicode="&#xc7;" horiz-adv-x="1589" 
d="M768.5 176q177.5 0 305.5 83t188 212l200 -63q-78 -195 -250 -313t-413 -124l-191 -309h-248l281 322q-233 39 -369.5 206.5t-136.5 407.5q0 330 240.5 566.5t585.5 236.5q244 0 408.5 -126t191.5 -335l-228 -45q-25 137 -121 219t-256 82q-240 0 -419 -171t-179 -413
q0 -190 116.5 -313t294 -123z" />
    <glyph glyph-name="Egrave" unicode="&#xc8;" horiz-adv-x="1302" 
d="M537 1174l-91 -388h740l-45 -196h-740l-90 -391h803l-47 -199h-1022l315 1372h1020l-45 -198h-798zM831 1518l-286 290h266l217 -290h-197z" />
    <glyph glyph-name="Eacute" unicode="&#xc9;" horiz-adv-x="1302" 
d="M537 1174l-91 -388h740l-45 -196h-740l-90 -391h803l-47 -199h-1022l315 1372h1020l-45 -198h-798zM1032 1518h-196l217 290h266z" />
    <glyph glyph-name="Ecircumflex" unicode="&#xca;" horiz-adv-x="1302" 
d="M537 1174l-91 -388h740l-45 -196h-740l-90 -391h803l-47 -199h-1022l315 1372h1020l-45 -198h-798zM850 1501h-225l305 297h203l167 -297h-202l-86 158z" />
    <glyph glyph-name="Edieresis" unicode="&#xcb;" horiz-adv-x="1302" 
d="M537 1174l-91 -388h740l-45 -196h-740l-90 -391h803l-47 -199h-1022l315 1372h1020l-45 -198h-798zM1168 1524q-58 0 -96 36.5t-38 92t38 95.5t95.5 40t96.5 -40t39 -95t-38.5 -92t-96.5 -37zM744 1524q-58 0 -96 36.5t-38 92t38 95.5t95.5 40t96.5 -40t39 -95t-38.5 -92
t-96.5 -37z" />
    <glyph glyph-name="Igrave" unicode="&#xcc;" horiz-adv-x="544" 
d="M266 0h-221l315 1372h222zM391 1808l217 -290h-196l-287 290h266z" />
    <glyph glyph-name="Iacute" unicode="&#xcd;" horiz-adv-x="544" 
d="M266 0h-221l315 1372h222zM612 1518h-196l217 290h266z" />
    <glyph glyph-name="Icircumflex" unicode="&#xce;" horiz-adv-x="544" 
d="M360 1372h222l-316 -1372h-221zM678 1501l-86 158l-162 -158h-225l305 297h203l168 -297h-203z" />
    <glyph glyph-name="Idieresis" unicode="&#xcf;" horiz-adv-x="544" 
d="M266 0h-221l315 1372h222zM748 1788q57 0 96 -40t39 -95t-38 -92t-96 -37t-97 37q-38 37 -38 92t38 95q39 40 96 40zM324 1788q57 0 96 -40t39 -95t-38 -92t-96 -37t-97 37q-38 37 -38 92t38 95q39 40 96 40z" />
    <glyph glyph-name="Eth" unicode="&#xd0;" horiz-adv-x="1595" 
d="M600 199q297 0 506 173t209 429q0 174 -108 273t-310 100h-281l-88 -383h287l-45 -201h-289l-90 -391h209zM922 1372q292 0 456 -154t164 -413q0 -337 -262 -571t-655 -234h-500l137 590h-184l45 201h184l135 581h480z" />
    <glyph glyph-name="Ntilde" unicode="&#xd1;" horiz-adv-x="1558" 
d="M1593 1372l-315 -1372h-186l-590 1010l-234 -1010h-219l316 1372h186l584 -1020l237 1020h221zM941 1645q-71 0 -89 -82h-145q29 125 101.5 181t147.5 56t134 -44t95 -44q68 0 91 88h145q-31 -129 -102.5 -185t-147.5 -56t-135 43t-95 43z" />
    <glyph glyph-name="Ograve" unicode="&#xd2;" horiz-adv-x="1630" 
d="M783 178q208 0 371 144t195 361t-88 365t-330 148t-373 -146t-195 -364t90 -362q122 -146 330 -146zM955 1403q299 0 479 -210t136 -519t-270 -507t-533 -198q-308 0 -487 207q-178 207 -136 508t276 510t535 209zM918 1808l217 -290h-197l-287 290h267z" />
    <glyph glyph-name="Oacute" unicode="&#xd3;" horiz-adv-x="1630" 
d="M783 178q208 0 371 144t195 361t-88 365t-330 148t-373 -146t-195 -364t90 -362q122 -146 330 -146zM955 1403q299 0 479 -210t136 -519t-270 -507t-533 -198q-308 0 -487 207q-178 207 -136 508t276 510t535 209zM1139 1518h-197l217 290h266z" />
    <glyph glyph-name="Ocircumflex" unicode="&#xd4;" horiz-adv-x="1630" 
d="M931 1196q-210 0 -373 -146t-195 -364q-31 -218 91 -362q122 -146 330 -146t370 144q163 144 195 361t-88 365t-330 148zM955 1403q299 0 479 -210t136 -519t-270 -507t-533 -198q-308 0 -487 207q-178 207 -136 508t276 510t535 209zM956 1501h-225l305 297h203
l168 -297h-203l-86 158z" />
    <glyph glyph-name="Otilde" unicode="&#xd5;" horiz-adv-x="1630" 
d="M783 178q208 0 371 144t195 361t-88 365t-330 148t-373 -146t-195 -364t90 -362q122 -146 330 -146zM955 1403q299 0 479 -210t136 -519t-270 -507t-533 -198q-308 0 -487 207q-178 207 -136 508t276 510t535 209zM970 1800q75 0 134 -44t95 -44q68 0 91 88h146
q-31 -129 -103 -185q-71 -56 -147 -56t-135 43t-95 43q-72 0 -90 -82h-145q29 125 101 181q73 56 148 56z" />
    <glyph glyph-name="Odieresis" unicode="&#xd6;" horiz-adv-x="1630" 
d="M783 178q208 0 371 144t195 361t-88 365t-330 148t-373 -146t-195 -364t90 -362q122 -146 330 -146zM955 1403q299 0 479 -210t136 -519t-270 -507t-533 -198q-308 0 -487 207q-178 207 -136 508t276 510t535 209zM1274 1788q57 0 96 -40t39 -95t-38 -92t-96 -37t-96 37
t-38 92t38 95t95 40zM850 1788q57 0 96 -40t39 -95t-38 -92t-96 -37t-96 37t-38 92t38 95t95 40z" />
    <glyph glyph-name="multiply" unicode="&#xd7;" horiz-adv-x="1116" 
d="M715 616l219 -278l-148 -121l-221 281l-360 -289l-105 139l357 287l-219 278l149 119l219 -278l363 290l104 -139z" />
    <glyph glyph-name="Oslash" unicode="&#xd8;" horiz-adv-x="1630" 
d="M1348 684q23 145 -31 272l-828 -671q117 -106 283 -107q219 0 382 144t194 362zM940 1196q-219 0 -382 -146t-196 -366q-20 -129 23 -246l819 666q-113 92 -264 92zM784 -31q-292 0 -471 172l-200 -161l-117 143l207 168q-90 176 -60 395q43 299 277 508t510 209
q274 0 452 -156l170 137l113 -143l-168 -137q106 -188 74 -420q-45 -319 -271 -517q-224 -198 -516 -198z" />
    <glyph glyph-name="Ugrave" unicode="&#xd9;" horiz-adv-x="1466" 
d="M650 -29q-264 -1 -403 179q-140 180 -77 456l176 766h221l-176 -766q-45 -192 31 -308t242 -116t290 116t168 308l176 766h222l-177 -766q-69 -295 -249 -465t-444 -170zM866 1518l-286 290h266l217 -290h-197z" />
    <glyph glyph-name="Uacute" unicode="&#xda;" horiz-adv-x="1466" 
d="M650 -29q-264 -1 -403 179q-140 180 -77 456l176 766h221l-176 -766q-45 -192 31 -308t242 -116t290 116t168 308l176 766h222l-177 -766q-69 -295 -249 -465t-444 -170zM1067 1518h-197l217 290h267z" />
    <glyph glyph-name="Ucircumflex" unicode="&#xdb;" horiz-adv-x="1466" 
d="M650 -29q-264 -1 -403 179q-140 180 -77 456l176 766h221l-176 -766q-45 -192 31 -308t242 -116t290 116t168 308l176 766h222l-177 -766q-69 -295 -249 -465t-444 -170zM885 1501h-226l306 297h202l168 -297h-202l-86 158z" />
    <glyph glyph-name="Udieresis" unicode="&#xdc;" horiz-adv-x="1466" 
d="M650 -29q-264 -1 -403 179q-140 180 -77 456l176 766h221l-176 -766q-45 -192 31 -308t242 -116t290 116t168 308l176 766h222l-177 -766q-69 -295 -249 -465t-444 -170zM1203 1524q-58 0 -96 37t-38 92t38 95t95 40t96 -40t39 -95t-38 -92t-96 -37zM913 1653
q0 -55 -38 -92t-96 -37t-96 37t-38 92t38 95t95 40t96 -40t39 -95z" />
    <glyph glyph-name="Yacute" unicode="&#xdd;" horiz-adv-x="1396" 
d="M793 459l-107 -459h-221l106 457l-344 915h230l262 -688l579 688h269zM993 1518h-196l217 290h266z" />
    <glyph glyph-name="Thorn" unicode="&#xde;" horiz-adv-x="1316" 
d="M719 436q145 0 245 87q99 87 99 214q0 93 -58 147t-167 54h-357l-114 -502h352zM846 1137q202 1 322 -101t120 -270q0 -227 -161 -379t-394 -151h-414l-53 -236h-221l315 1372h222l-54 -235h318z" />
    <glyph glyph-name="germandbls" unicode="&#xdf;" horiz-adv-x="1351" 
d="M721 -14q-147 0 -289 45l55 176q133 -41 240 -41q150 0 249 84t99 198t-80 174t-211 60h-102l41 176h53q131 0 231 72q99 72 99 174t-65 160t-189 59q-124 0 -223 -89q-98 -89 -135 -249l-226 -985h-215l223 985q55 240 213 382t408 142q190 0 304 -101t114 -259
q0 -121 -74 -223t-197 -152q219 -76 220 -313q0 -199 -144 -337t-399 -138z" />
    <glyph glyph-name="agrave" unicode="&#xe0;" horiz-adv-x="1325" 
d="M552 160q138 0 255 97t141 253q25 156 -60 251t-224 95t-247 -95q-109 -95 -135 -252t53 -253t217 -96zM500 -29q-211 0 -336 152q-125 153 -88 389t203 384t383 148q270 0 366 -200l39 172h213l-236 -1016h-213l25 104q-145 -133 -356 -133zM700 1161l-286 291h266
l217 -291h-197z" />
    <glyph glyph-name="aacute" unicode="&#xe1;" horiz-adv-x="1325" 
d="M552 160q138 0 255 97t141 253q25 156 -60 251t-224 95t-247 -95q-109 -95 -135 -252t53 -253t217 -96zM500 -29q-211 0 -336 152q-125 153 -88 389t203 384t383 148q270 0 366 -200l39 172h213l-236 -1016h-213l25 104q-145 -133 -356 -133zM901 1161h-196l217 291h266z
" />
    <glyph glyph-name="acircumflex" unicode="&#xe2;" horiz-adv-x="1325" 
d="M552 160q138 0 255 97t141 253q25 156 -60 251t-224 95t-247 -95q-109 -95 -135 -252t53 -253t217 -96zM500 -29q-211 0 -336 152q-125 153 -88 389t203 384t383 148q270 0 366 -200l39 172h213l-236 -1016h-213l25 104q-145 -133 -356 -133zM719 1145h-225l305 297h202
l168 -297h-202l-86 158z" />
    <glyph glyph-name="atilde" unicode="&#xe3;" horiz-adv-x="1325" 
d="M552 160q138 0 255 97t141 253q25 156 -60 251t-224 95t-247 -95q-109 -95 -135 -252t53 -253t217 -96zM500 -29q-211 0 -336 152q-125 153 -88 389t203 384t383 148q270 0 366 -200l39 172h213l-236 -1016h-213l25 104q-145 -133 -356 -133zM718 1288q-36 0 -59 -22
t-30 -60h-146q29 126 102 182t147 56t134 -44t96 -44q69 0 91 88h145q-31 -129 -102 -186q-72 -56 -148 -56t-135 43t-95 43z" />
    <glyph glyph-name="adieresis" unicode="&#xe4;" horiz-adv-x="1325" 
d="M552 160q138 0 255 97t141 253q25 156 -60 251t-224 95t-247 -95q-109 -95 -135 -252t53 -253t217 -96zM500 -29q-211 0 -336 152q-125 153 -88 389t203 384t383 148q270 0 366 -200l39 172h213l-236 -1016h-213l25 104q-145 -133 -356 -133zM1036 1432q56 0 96 -40
t40 -96t-39 -92q-38 -37 -96 -37t-96 37t-38 92q0 56 38 96t95 40zM612 1432q56 0 96 -40t40 -96t-38 -92q-38 -37 -97 -37q-58 0 -96 37t-38 92q0 56 38 96t95 40z" />
    <glyph glyph-name="aring" unicode="&#xe5;" horiz-adv-x="1325" 
d="M552 160q138 0 255 97t141 253q25 156 -60 251t-224 95t-247 -95q-109 -95 -135 -252t53 -253t217 -96zM500 -29q-211 0 -336 152q-125 153 -88 389t203 384t383 148q270 0 366 -200l39 172h213l-236 -1016h-213l25 104q-145 -133 -356 -133zM930 1347q0 41 -26 65
t-67 24q-42 0 -72 -30t-30 -71t24 -67q23 -26 65 -25q42 0 74 32t32 72zM817 1120q-96 0 -155 60q-60 60 -60 150q0 91 73 161t169 70q96 1 155 -59t59 -152t-72 -161q-73 -69 -169 -69z" />
    <glyph glyph-name="ae" unicode="&#xe6;" horiz-adv-x="1867" 
d="M446 436q-102 0 -162 -43t-60 -109t49 -104q50 -38 156 -37q105 0 217 80t130 191l4 22h-334zM997 590h588q2 131 -62 202q-65 70 -177 70t-212 -72q-98 -72 -137 -200zM1366 1044q217 0 338 -150t86 -384l-12 -74h-801q-2 -133 69 -207t195 -73q78 0 163 42t140 132
l185 -41q-63 -141 -207 -229t-310 -89q-256 0 -360 205q-80 -90 -205 -147t-279 -57t-248 76q-93 76 -93 216t115 233q116 93 313 93h348l10 61q14 97 -40 155q-55 58 -155 58t-173 -49t-99 -133l-188 43q41 141 174 230t315 89q242 0 330 -161q172 161 389 161z" />
    <glyph glyph-name="ccedilla" unicode="&#xe7;" horiz-adv-x="1169" 
d="M549 168q102 0 186 53t129 150l203 -37q-61 -150 -189 -247t-288 -114l-193 -311h-247l278 318q-193 35 -295 178q-101 143 -67 363t214.5 371.5t403.5 151.5q174 0 297 -97t143 -259l-219 -43q-8 96 -77.5 149.5t-172.5 53.5q-143 0 -251 -96t-132.5 -246t55 -244
t222.5 -94z" />
    <glyph glyph-name="egrave" unicode="&#xe8;" horiz-adv-x="1187" 
d="M653 864q-123 0 -217 -71.5t-137 -184.5h623q-6 123 -76 189.5t-193 66.5zM268 457v-15q0 -135 74 -210.5t211 -75.5q199 0 311 184l189 -49q-74 -154 -211 -237t-303 -83q-211 0 -339 126t-128 337q0 260 182 435t413.5 175t355.5 -162.5t81 -424.5h-836zM627 1161
l-287 291h266l217 -291h-196z" />
    <glyph glyph-name="eacute" unicode="&#xe9;" horiz-adv-x="1187" 
d="M653 864q-123 0 -217 -71.5t-137 -184.5h623q-6 123 -76 189.5t-193 66.5zM268 457v-15q0 -135 74 -210.5t211 -75.5q199 0 311 184l189 -49q-74 -154 -211 -237t-303 -83q-211 0 -339 126t-128 337q0 260 182 435t413.5 175t355.5 -162.5t81 -424.5h-836zM827 1161h-196
l217 291h266z" />
    <glyph glyph-name="ecircumflex" unicode="&#xea;" horiz-adv-x="1187" 
d="M653 864q-123 0 -217 -71.5t-137 -184.5h623q-6 123 -76 189.5t-193 66.5zM268 457v-15q0 -135 74 -210.5t211 -75.5q199 0 311 184l189 -49q-74 -154 -211 -237t-303 -83q-211 0 -339 126t-128 337q0 260 182 435t413.5 175t355.5 -162.5t81 -424.5h-836zM645 1145h-225
l305 297h203l168 -297h-203l-86 158z" />
    <glyph glyph-name="edieresis" unicode="&#xeb;" horiz-adv-x="1187" 
d="M653 864q-123 0 -217 -71.5t-137 -184.5h623q-6 123 -76 189.5t-193 66.5zM268 457v-15q0 -135 74 -210.5t211 -75.5q199 0 311 184l189 -49q-74 -154 -211 -237t-303 -83q-211 0 -339 126t-128 337q0 260 182 435t413.5 175t355.5 -162.5t81 -424.5h-836zM964 1167
q-58 0 -96.5 37t-38.5 92t38 95.5t95.5 40.5t96.5 -40t39 -95.5t-38 -92.5t-96 -37zM540 1167q-58 0 -96 37t-38 92t37.5 95.5t95 40.5t96.5 -40t39 -95.5t-38 -92.5t-96 -37z" />
    <glyph glyph-name="igrave" unicode="&#xec;" horiz-adv-x="587" 
d="M283 0h-213l235 1016h213zM332 1452l217 -291h-197l-286 291h266z" />
    <glyph glyph-name="iacute" unicode="&#xed;" horiz-adv-x="587" 
d="M283 0h-213l235 1016h213zM553 1161h-197l217 291h267z" />
    <glyph glyph-name="icircumflex" unicode="&#xee;" horiz-adv-x="587" 
d="M305 1016h213l-235 -1016h-213zM618 1145l-86 158l-161 -158h-226l306 297h202l168 -297h-203z" />
    <glyph glyph-name="idieresis" unicode="&#xef;" horiz-adv-x="587" 
d="M283 0h-213l235 1016h213zM688 1432q57 0 96 -40t39 -96t-38 -92q-38 -37 -96 -37t-96 37t-38 92q0 56 38 96t95 40zM264 1432q57 0 96 -40t39 -96t-38 -92q-38 -37 -96 -37t-96 37t-38 92q0 56 38 96t95 40z" />
    <glyph glyph-name="eth" unicode="&#xf0;" 
d="M578 166q170 0 278 125t109 262q0 137 -82 220q-83 83 -223 83t-259 -115t-119 -265t84 -230q83 -80 212 -80zM1182 596q0 -190 -93 -337q-93 -148 -231 -218t-293 -70q-213 0 -353 128t-140 343q0 254 182 428t412 174q111 0 194 -47q-61 111 -137 189l-297 -117
l-39 148l201 79q-106 74 -262 136l6 43h340q70 -41 131 -93l237 95l37 -152l-155 -61q116 -138 188 -308t72 -360z" />
    <glyph glyph-name="ntilde" unicode="&#xf1;" horiz-adv-x="1277" 
d="M806 1044q208 0 300 -136t47 -337l-133 -571h-213l133 580q29 127 -26.5 201.5t-183.5 74.5t-222 -99.5t-137 -287.5l-109 -469h-215l236 1016h213l-31 -133q133 161 341 161zM730 1288q-71 0 -89 -82h-145q29 125 101.5 181.5t147.5 56.5t134 -44t95 -44q68 0 91 88h145
q-31 -129 -102.5 -185.5t-147.5 -56.5t-135 43t-95 43z" />
    <glyph glyph-name="ograve" unicode="&#xf2;" horiz-adv-x="1239" 
d="M565 160q137 0 252 96t139 250q25 154 -60 252t-222 98t-252 -98q-116 -98 -140 -252t61 -250t222 -96zM688 1038q229 0 371 -150q141 -151 105 -383q-36 -233 -209 -381t-403 -148t-372 149q-141 150 -105 382q36 231 210 381t403 150zM657 1161l-286 291h266l217 -291
h-197z" />
    <glyph glyph-name="oacute" unicode="&#xf3;" horiz-adv-x="1239" 
d="M565 160q137 0 252 96t139 250q25 154 -60 252t-222 98t-252 -98q-116 -98 -140 -252t61 -250t222 -96zM688 1038q229 0 371 -150q141 -151 105 -383q-36 -233 -209 -381t-403 -148t-372 149q-141 150 -105 382q36 231 210 381t403 150zM858 1161h-196l217 291h266z" />
    <glyph glyph-name="ocircumflex" unicode="&#xf4;" horiz-adv-x="1239" 
d="M565 160q137 0 252 96t139 250q25 154 -60 252t-222 98t-252 -98q-116 -98 -140 -252t61 -250t222 -96zM688 1038q229 0 371 -150q141 -151 105 -383q-36 -233 -209 -381t-403 -148t-372 149q-141 150 -105 382q36 231 210 381t403 150zM676 1145h-225l305 297h202
l168 -297h-202l-86 158z" />
    <glyph glyph-name="otilde" unicode="&#xf5;" horiz-adv-x="1239" 
d="M565 160q137 0 252 96t139 250q25 154 -60 252t-222 98t-252 -98q-116 -98 -140 -252t61 -250t222 -96zM688 1038q229 0 371 -150q141 -151 105 -383q-36 -233 -209 -381t-403 -148t-372 149q-141 150 -105 382q36 231 210 381t403 150zM675 1288q-36 0 -59 -22t-30 -60
h-146q29 126 102 182q74 56 148 56t133 -44t95 -44q69 0 92 88h145q-31 -129 -102 -186q-72 -56 -148 -56t-135 43t-95 43z" />
    <glyph glyph-name="odieresis" unicode="&#xf6;" horiz-adv-x="1239" 
d="M565 160q137 0 252 96t139 250q25 154 -60 252t-222 98t-252 -98q-116 -98 -140 -252t61 -250t222 -96zM688 1038q229 0 371 -150q141 -151 105 -383q-36 -233 -209 -381t-403 -148t-372 149q-141 150 -105 382q36 231 210 381t403 150zM993 1432q57 0 97 -40t38 -96
q0 -56 -38 -92q-38 -37 -96 -37t-96 37t-38 92q0 56 38 96t95 40zM569 1432q57 0 97 -40t39 -96t-39 -92q-38 -37 -96 -37t-96 37t-38 92q0 56 38 96t95 40z" />
    <glyph glyph-name="divide" unicode="&#xf7;" horiz-adv-x="1189" 
d="M516 393q57 0 95 -39t38 -93t-38 -91t-95 -37t-96 37t-39 91t39 93t96 39zM1061 530h-922l45 189h922zM684 1118q57 0 95 -39t38 -93t-38 -91t-95 -37t-96 38t-39 91t39 92t96 39z" />
    <glyph glyph-name="oslash" unicode="&#xf8;" horiz-adv-x="1234" 
d="M965 506q14 94 -17 178l-565 -459q79 -65 203 -65t239 96t140 250zM289 506q-14 -96 16 -172l563 457q-76 65 -200 65t-238 -98q-116 -98 -141 -252zM1264 940l-148 -119q82 -139 55 -315q-37 -233 -209 -382q-174 -148 -388 -148t-353 116l-151 -123l-82 107l147 119
q-80 135 -53 311q37 233 211 383q174 149 387 149t350 -116l154 125z" />
    <glyph glyph-name="ugrave" unicode="&#xf9;" horiz-adv-x="1277" 
d="M472 -29q-208 0 -300 137.5t-45 337.5l131 570h213l-133 -580q-27 -125 28.5 -200.5t180.5 -75.5t218 94t138 272l115 490h213l-236 -1016h-213l31 133q-133 -162 -341 -162zM655 1161l-286 291h266l217 -291h-197z" />
    <glyph glyph-name="uacute" unicode="&#xfa;" horiz-adv-x="1277" 
d="M472 -29q-208 0 -300 137.5t-45 337.5l131 570h213l-133 -580q-27 -125 28.5 -200.5t180.5 -75.5t218 94t138 272l115 490h213l-236 -1016h-213l31 133q-133 -162 -341 -162zM856 1161h-197l218 291h266z" />
    <glyph glyph-name="ucircumflex" unicode="&#xfb;" horiz-adv-x="1277" 
d="M472 -29q-208 0 -300 137.5t-45 337.5l131 570h213l-133 -580q-27 -125 28.5 -200.5t180.5 -75.5t218 94t138 272l115 490h213l-236 -1016h-213l31 133q-133 -162 -341 -162zM674 1145h-225l305 297h202l168 -297h-202l-86 158z" />
    <glyph glyph-name="udieresis" unicode="&#xfc;" horiz-adv-x="1277" 
d="M472 -29q-208 0 -300 137.5t-45 337.5l131 570h213l-133 -580q-27 -125 28.5 -200.5t180.5 -75.5t218 94t138 272l115 490h213l-236 -1016h-213l31 133q-133 -162 -341 -162zM992 1167q-58 0 -96 37t-38 92t38 95.5t95.5 40.5t96 -40t38.5 -95.5t-38 -92.5t-96 -37z
M568 1167q-58 0 -96 37t-38 92t38 95.5t95.5 40.5t96 -40t38.5 -95.5t-38 -92.5t-96 -37z" />
    <glyph glyph-name="yacute" unicode="&#xfd;" horiz-adv-x="1171" 
d="M1251 1016l-907 -1364h-244l250 373l-203 991h224l147 -742l498 742h235zM831 1163h-196l217 291h266z" />
    <glyph glyph-name="thorn" unicode="&#xfe;" horiz-adv-x="1327" 
d="M663 160q139 0 248 95t135 252t-54 253q-79 96 -217 96t-254 -97q-117 -97 -141 -252t60 -251t223 -96zM829 1044q213 0 337 -152t86 -388t-204 -384t-382 -149q-272 0 -367 203l-121 -522h-215l422 1823h215l-131 -566q148 135 360 135z" />
    <glyph glyph-name="ydieresis" unicode="&#xff;" horiz-adv-x="1171" 
d="M1251 1016l-907 -1364h-244l250 373l-203 991h224l147 -742l498 742h235zM968 1169q-58 0 -97 37q-37 37 -37 92t37 96q37 40 95 40t97 -40t39 -96t-38 -92q-38 -37 -96 -37zM544 1169q-58 0 -97 37q-37 37 -37 92t37 96q37 40 95 40t97 -40t39 -96t-38 -92
q-38 -37 -96 -37z" />
    <glyph glyph-name="Amacron" unicode="&#x100;" horiz-adv-x="1447" 
d="M995 520l-112 584l-383 -584h495zM1321 0h-225l-62 319h-665l-209 -319h-252l921 1372h205zM1280 1540h-616l38 174h617z" />
    <glyph glyph-name="amacron" unicode="&#x101;" horiz-adv-x="1325" 
d="M552 160q138 0 255 97t141 253q25 156 -60 251t-224 95t-247 -95q-109 -95 -135 -252t53 -253t217 -96zM500 -29q-211 0 -336 152q-125 153 -88 389t203 384t383 148q270 0 366 -200l39 172h213l-236 -1016h-213l25 104q-145 -133 -356 -133zM1108 1184h-616l38 174h617z
" />
    <glyph glyph-name="Abreve" unicode="&#x102;" horiz-adv-x="1447" 
d="M995 520l-112 584l-383 -584h495zM1034 1372l287 -1372h-225l-62 319h-665l-209 -319h-252l921 1372h205zM962 1485q-146 0 -217 79q-70 79 -38 212h165q-14 -64 19 -104t93 -40t109 40q48 40 62 104h191q-30 -133 -134 -212t-250 -79z" />
    <glyph glyph-name="abreve" unicode="&#x103;" horiz-adv-x="1325" 
d="M552 160q138 0 255 97t141 253q25 156 -60 251t-224 95t-247 -95q-109 -95 -135 -252t53 -253t217 -96zM500 -29q-211 0 -336 152q-125 153 -88 389t203 384t383 148q270 0 366 -200l39 172h213l-236 -1016h-213l25 104q-145 -133 -356 -133zM790 1128q-146 0 -217 79
q-70 79 -38 212h165q-14 -63 19 -103t93 -40t109 40q48 40 62 103h191q-30 -133 -134 -212t-250 -79z" />
    <glyph glyph-name="Aogonek" unicode="&#x104;" horiz-adv-x="1447" 
d="M995 520l-112 584l-383 -584h495zM1135 -215q0 -57 65 -57q27 0 98 22l-28 -135q-68 -35 -142 -35t-120 41t-45 111q0 127 206 268h-73l-62 319h-665l-209 -319h-252l921 1372h205l287 -1372q-59 -51 -73 -65q-16 -13 -34 -28t-25 -23t-19 -21q-36 -37 -35 -78z" />
    <glyph glyph-name="aogonek" unicode="&#x105;" horiz-adv-x="1325" 
d="M552 160q138 0 255 97t141 253q25 156 -60 251t-224 95t-247 -95q-109 -95 -135 -252t53 -253t217 -96zM858 -215q0 -57 66 -57q27 0 98 22l-29 -135q-67 -35 -141 -35t-120 41t-46 111q0 127 207 268h-62l25 104q-145 -133 -356 -133t-336 152q-125 153 -88 389t203 384
t383 148q270 0 366 -200l39 172h213l-236 -1016q-32 -28 -59 -53q-29 -25 -47 -40t-26 -23t-18 -21q-36 -39 -36 -78z" />
    <glyph glyph-name="Cacute" unicode="&#x106;" horiz-adv-x="1589" 
d="M961 1401q244 0 408.5 -126t191.5 -335l-228 -45q-25 137 -121 219t-256 82q-240 0 -419 -171t-179 -413q0 -190 117 -313t294 -123t305 83t188 212l200 -63q-80 -199 -258 -318t-428 -119q-289 0 -465 175.5t-176 451.5q0 330 241 566.5t585 236.5zM1112 1518h-197
l218 290h266z" />
    <glyph glyph-name="cacute" unicode="&#x107;" horiz-adv-x="1169" 
d="M549 168q102 0 186 53t129 150l203 -37q-68 -164 -214 -263.5t-321 -99.5q-236 1 -370 151t-98 384t216.5 386t403.5 152q174 0 297 -97t143 -259l-219 -43q-8 96 -77.5 149.5t-172.5 53.5q-143 0 -251 -96t-132.5 -246t55 -244t222.5 -94zM823 1161h-196l217 291h266z
" />
    <glyph glyph-name="Cdotaccent" unicode="&#x10a;" horiz-adv-x="1589" 
d="M961 1401q244 0 408.5 -126t191.5 -335l-228 -45q-25 137 -121 219t-256 82q-240 0 -419 -171t-179 -413q0 -190 117 -313t294 -123t305 83t188 212l200 -63q-80 -199 -258 -318t-428 -119q-289 0 -465 175.5t-176 451.5q0 330 241 566.5t585 236.5zM1036.5 1798
q55.5 0 94 -38t38.5 -92t-37.5 -91t-95 -37t-94.5 37t-37 91t38 92t93.5 38z" />
    <glyph glyph-name="cdotaccent" unicode="&#x10b;" horiz-adv-x="1169" 
d="M549 168q102 0 186 53t129 150l203 -37q-68 -164 -214 -263.5t-321 -99.5q-236 1 -370 151t-98 384t216.5 386t403.5 152q174 0 297 -97t143 -259l-219 -43q-8 96 -77.5 149.5t-172.5 53.5q-143 0 -251 -96t-132.5 -246t55 -244t222.5 -94zM747.5 1184q-57.5 0 -94.5 36
q-37 38 -37 92t38 92t93.5 38t94.5 -38t39 -92t-38 -91t-95.5 -37z" />
    <glyph glyph-name="Ccaron" unicode="&#x10c;" horiz-adv-x="1589" 
d="M768.5 176q177.5 0 305.5 83t188 212l200 -63q-80 -199 -258 -318t-428 -119q-289 0 -465 175.5t-176 451.5q0 330 240.5 566.5t585.5 236.5q244 0 408.5 -126t191.5 -335l-228 -45q-25 137 -121 219t-256 82q-240 0 -419 -171t-179 -413q0 -190 116.5 -313t294 -123z
M901 1501l-166 299h201l86 -160l162 160h225l-305 -299h-203z" />
    <glyph glyph-name="ccaron" unicode="&#x10d;" horiz-adv-x="1169" 
d="M549 168q102 0 186 53t129 150l203 -37q-68 -164 -214 -263.5t-321 -99.5q-236 1 -370 151t-98 384t216.5 386t403.5 152q174 0 297 -97t143 -259l-219 -43q-8 96 -77.5 149.5t-172.5 53.5q-143 0 -251 -96t-132.5 -246t55 -244t222.5 -94zM612 1145l-166 299h201
l86 -160l162 160h225l-305 -299h-203z" />
    <glyph glyph-name="Dcaron" unicode="&#x10e;" horiz-adv-x="1509" 
d="M520 199q297 0 506 173t209 429q0 174 -108 273t-310 100h-280l-226 -975h209zM842 1372q292 0 456 -154t164 -413q0 -337 -262 -571t-655 -234h-500l317 1372h480zM850 1501l-166 299h201l86 -160l162 160h225l-305 -299h-203z" />
    <glyph glyph-name="dcaron" unicode="&#x10f;" horiz-adv-x="1320" 
d="M654 856q-140 0 -248 -95t-135 -252t53 -253t217 -96t254 97t141 253q25 156 -59 251q-83 95 -223 95zM1706 1475l-135 -381h-170l88 381h217zM486 -29q-210 0 -334 152q-124 153 -88 389q38 236 204 384t383 148q270 0 365 -200l145 631h215l-340 -1475h-215l25 104
q-150 -133 -360 -133z" />
    <glyph glyph-name="Dcroat" unicode="&#x110;" horiz-adv-x="1595" 
d="M600 199q297 0 506 173t209 429q0 174 -108 273t-310 100h-281l-88 -383h287l-45 -201h-289l-90 -391h209zM922 1372q292 0 456 -154t164 -413q0 -337 -262 -571t-655 -234h-500l137 590h-184l45 201h184l135 581h480z" />
    <glyph glyph-name="dcroat" unicode="&#x111;" horiz-adv-x="1406" 
d="M552 160q138 0 254 97t140 252t-59 251q-84 96 -223 96t-248 -95q-108 -95 -134 -252t53 -253t217 -96zM499 -29q-212 0 -337 152q-125 153 -87 389t204 384t383 148q272 0 366 -202l72 311h-309l38 172h310l35 150h212l-34 -150h155l-39 -172h-155l-266 -1153h-213
l24 106q-147 -135 -359 -135z" />
    <glyph glyph-name="Emacron" unicode="&#x112;" horiz-adv-x="1302" 
d="M537 1174l-91 -388h740l-45 -196h-740l-90 -391h803l-47 -199h-1022l315 1372h1020l-45 -198h-798zM1239 1540h-616l39 174h616z" />
    <glyph glyph-name="emacron" unicode="&#x113;" horiz-adv-x="1187" 
d="M653 864q-123 0 -217 -71.5t-137 -184.5h623q-6 123 -76 189.5t-193 66.5zM268 457v-15q0 -135 74 -210.5t211 -75.5q199 0 311 184l189 -49q-74 -154 -211 -237t-303 -83q-211 0 -339 126t-128 337q0 260 182 435t413.5 175t355.5 -162.5t81 -424.5h-836zM1034 1184
h-616l39 174h616z" />
    <glyph glyph-name="Edotaccent" unicode="&#x116;" horiz-adv-x="1302" 
d="M537 1174l-91 -388h740l-45 -196h-740l-90 -391h803l-47 -199h-1022l315 1372h1020l-45 -198h-798zM956.5 1540q-57.5 0 -94.5 37t-37 91t38 92t93.5 38t94.5 -38t39 -92t-38 -91t-95.5 -37z" />
    <glyph glyph-name="edotaccent" unicode="&#x117;" horiz-adv-x="1187" 
d="M653 864q-123 0 -217 -71.5t-137 -184.5h623q-6 123 -76 189.5t-193 66.5zM268 457v-15q0 -135 74 -210.5t211 -75.5q199 0 311 184l189 -49q-74 -154 -211 -237t-303 -83q-211 0 -339 126t-128 337q0 260 182 435t413.5 175t355.5 -162.5t81 -424.5h-836zM751.5 1184
q-57.5 0 -94 36.5t-36.5 91t37.5 92.5t93 38t94.5 -38t39 -92t-38 -91t-95.5 -37z" />
    <glyph glyph-name="Eogonek" unicode="&#x118;" horiz-adv-x="1302" 
d="M797 -215q0 -57 65 -57q27 0 99 22l-29 -135q-68 -35 -141.5 -35t-119.5 41t-46 111q0 127 206 268h-786l315 1372h1020l-45 -198h-798l-91 -388h740l-45 -196h-740l-90 -391h803l-47 -199h-84q-62 -54 -75 -66t-31.5 -27.5t-25.5 -23.5q-7 -9 -19 -21q-36 -38 -35 -77z
" />
    <glyph glyph-name="eogonek" unicode="&#x119;" horiz-adv-x="1185" 
d="M653 864q-123 0 -217 -72t-137 -184h625q-8 124 -78 190t-193 66zM268 457v-15q0 -137 73 -212t212 -74q199 0 311 184l189 -49q-47 -102 -142 -187q-174 -156 -224 -215t-50 -104q0 -57 65 -57q29 0 101 22l-29 -135q-70 -35 -142 -35t-119 41q-46 41 -46 111
q0 121 174 248q-43 -8 -102 -9q-211 0 -339 126t-128 337q0 260 182 435t416 175t361 -168q126 -168 71 -419h-834z" />
    <glyph glyph-name="Ecaron" unicode="&#x11a;" horiz-adv-x="1302" 
d="M537 1174l-91 -388h740l-45 -196h-740l-90 -391h803l-47 -199h-1022l315 1372h1020l-45 -198h-798zM821 1501l-166 299h201l86 -160l162 160h225l-305 -299h-203z" />
    <glyph glyph-name="ecaron" unicode="&#x11b;" horiz-adv-x="1187" 
d="M653 864q-123 0 -217 -71.5t-137 -184.5h623q-6 123 -76 189.5t-193 66.5zM667.5 1044q231.5 0 355.5 -162.5t81 -424.5h-836v-15q0 -135 74 -210.5t211 -75.5q199 0 311 184l189 -49q-74 -154 -211 -237t-303 -83q-211 0 -339 126t-128 337q0 260 182 435t413.5 175z
M616 1145l-165 299h200l86 -160l162 160h225l-305 -299h-203z" />
    <glyph glyph-name="Gbreve" unicode="&#x11e;" horiz-adv-x="1615" 
d="M1567 778q0 -45 -8 -94q-59 -326 -274.5 -519.5t-510.5 -193.5t-467 172t-172 451q0 332 248 569.5t594 237.5q219 0 382 -107.5t204 -298.5l-222 -49q-39 127 -141 187.5t-237 60.5q-246 0 -424.5 -170t-178.5 -412q0 -190 117 -312t303 -122t328.5 111.5t191.5 288.5
h-520l47 200h740zM1011 1485q-146 0 -216 78.5t-39 212.5h166q-14 -63 18.5 -103.5t92.5 -40.5t108.5 40t62.5 104h191q-31 -133 -134.5 -212t-249.5 -79z" />
    <glyph glyph-name="gbreve" unicode="&#x11f;" horiz-adv-x="1310" 
d="M555 236q137 0 251 84t138 224q24 142 -59 231q-84 89 -222 89q-139 0 -243 -84t-130 -225t51 -230t214 -89zM428 -389q-360 0 -475 303l201 76q76 -186 286 -187q141 0 258 87t150 231l16 65q-152 -129 -362 -129q-210 -1 -332 141q-123 142 -88 369q37 205 206 340
t376 135q262 0 356 -180l37 154h207l-215 -926q-49 -223 -221 -351t-400 -128zM781 1128q-146 0 -216 79t-39 212h166q-14 -63 19 -103t93 -40t108 40t63 103h190q-31 -133 -135 -212t-249 -79z" />
    <glyph glyph-name="Gdotaccent" unicode="&#x120;" horiz-adv-x="1615" 
d="M1567 778q0 -45 -8 -94q-59 -326 -274.5 -519.5t-510.5 -193.5t-467 172t-172 451q0 332 248 569.5t594 237.5q219 0 382 -107.5t204 -298.5l-222 -49q-39 127 -141 187.5t-237 60.5q-246 0 -424.5 -170t-178.5 -412q0 -190 117 -312t303 -122t328.5 111.5t191.5 288.5
h-520l47 200h740zM1046.5 1798q55.5 0 94.5 -38t39 -92t-38 -91t-95.5 -37t-94.5 37t-37 91t38 92t93.5 38z" />
    <glyph glyph-name="gdotaccent" unicode="&#x121;" horiz-adv-x="1310" 
d="M555 236q137 0 251 84t138 224q24 142 -59 231q-84 89 -222 89q-139 0 -243 -84t-130 -225t51 -230t214 -89zM428 -389q-360 0 -475 303l201 76q76 -186 286 -187q141 0 258 87t150 231l16 65q-152 -129 -362 -129q-210 -1 -332 141q-123 142 -88 369q37 205 206 340
t376 135q262 0 356 -180l37 154h207l-215 -926q-49 -223 -221 -351t-400 -128zM817 1184q-57 0 -94 37t-37 91t38 92t93 38t94 -38t39 -92t-38 -91t-95 -37z" />
    <glyph glyph-name="Gcommaaccent" unicode="&#x122;" horiz-adv-x="1615" 
d="M434 -391l168 299h234l-240 -299h-162zM1567 778q0 -45 -8 -94q-59 -326 -274.5 -519.5t-510.5 -193.5t-467 172t-172 451q0 332 248 569.5t594 237.5q219 0 382 -107.5t204 -298.5l-222 -49q-39 127 -141 187.5t-237 60.5q-246 0 -424.5 -170t-178.5 -412
q0 -190 117 -312t303 -122t328.5 111.5t191.5 288.5h-520l47 200h740z" />
    <glyph glyph-name="gcommaaccent" unicode="&#x123;" horiz-adv-x="1310" 
d="M555 236q137 0 251 84t138 224q24 142 -59 231q-84 89 -222 89q-139 0 -243 -84t-130 -225t51 -230t214 -89zM428 -389q-360 0 -475 303l201 76q76 -186 286 -187q141 0 258 87t150 231l16 65q-152 -129 -362 -129q-210 -1 -332 141q-123 142 -88 369q37 205 206 340
t376 135q262 0 356 -180l37 154h207l-215 -926q-49 -223 -221 -351t-400 -128zM891 1161h-234l242 299h162z" />
    <glyph glyph-name="Hbar" unicode="&#x126;" horiz-adv-x="1611" 
d="M1270 932h-727l-47 -203h727zM1624 932h-135l-215 -932h-219l121 528h-727l-121 -528h-222l216 932h-136l43 184h133l60 256h221l-59 -256h727l59 256h221l-59 -256h133z" />
    <glyph glyph-name="hbar" unicode="&#x127;" horiz-adv-x="1357" 
d="M888 1044q208 0 299 -136t46 -337l-131 -571h-213l133 580q28 128 -28 202t-183 74t-221 -99t-137 -288l-109 -469h-213l268 1167h-159l36 158h160l35 150h213l-35 -150h305l-36 -158h-306l-65 -284q133 161 341 161z" />
    <glyph glyph-name="Imacron" unicode="&#x12a;" horiz-adv-x="544" 
d="M266 0h-221l315 1372h222zM819 1540h-616l39 174h616z" />
    <glyph glyph-name="imacron" unicode="&#x12b;" horiz-adv-x="587" 
d="M283 0h-213l235 1016h213zM760 1184h-617l39 174h617z" />
    <glyph glyph-name="Iogonek" unicode="&#x12e;" horiz-adv-x="544" 
d="M78 -215q0 -57 65 -57q27 0 99 22l-29 -135q-67 -35 -141 -35t-120 41t-46 111q0 127 207 268h-68l315 1372h222l-316 -1372h-2q-59 -51 -73 -65q-15 -13 -33 -28t-26 -23t-18 -21q-36 -39 -36 -78z" />
    <glyph glyph-name="iogonek" unicode="&#x12f;" horiz-adv-x="587" 
d="M96 -215q0 -57 66 -57q27 0 98 22l-29 -135q-67 -35 -141 -35t-120 41t-46 111q0 127 207 268h-61l235 1016h213l-235 -1016q-59 -51 -73 -65q-16 -13 -34 -28t-25 -23t-19 -21q-36 -38 -36 -78zM477 1442q55 0 94 -38t39 -92t-38 -91t-95 -37t-94 37t-37 91t38 92t93 38
z" />
    <glyph glyph-name="Idotaccent" unicode="&#x130;" horiz-adv-x="544" 
d="M266 0h-221l315 1372h222zM537 1798q55 0 94 -38t39 -92t-38 -91t-95 -37t-95 37q-36 37 -36 91t37 92q39 38 94 38z" />
    <glyph glyph-name="dotlessi" unicode="&#x131;" horiz-adv-x="587" 
d="M283 0h-213l235 1016h213z" />
    <glyph glyph-name="IJ" unicode="&#x132;" horiz-adv-x="1761" 
d="M1038 170q130 0 227 89t132 233l207 880h221l-207 -880q-57 -244 -213 -382t-371 -138t-341 121q-126 122 -130 325l209 43q-2 -131 67 -211t199 -80zM266 0h-221l315 1372h222z" />
    <glyph glyph-name="ij" unicode="&#x133;" horiz-adv-x="1171" 
d="M526 -389q-112 0 -190 37l82 186q104 -49 180 6q39 29 49 74l252 1102h215l-260 -1131q-29 -123 -123 -199q-93 -76 -205 -75zM276 0h-213l234 1016h213zM1070 1454q58 0 97 -39t39 -95t-38 -93t-97 -37t-97 37t-38 93t38 95t96 39zM474 1454q58 0 97 -39t39 -95t-38 -93
t-97 -37t-97 37t-38 93t38 95t96 39z" />
    <glyph glyph-name="Kcommaaccent" unicode="&#x136;" horiz-adv-x="1374" 
d="M461 -92h233l-239 -299h-162zM662 676l579 -676h-270l-490 578h-98l-133 -578h-219l315 1372h221l-137 -594h51l746 594h297z" />
    <glyph glyph-name="kcommaaccent" unicode="&#x137;" horiz-adv-x="1228" 
d="M375 -92h233l-239 -299h-162zM627 526l479 -526h-260l-379 422h-109l-96 -422h-213l340 1475h213l-194 -842h57l512 383h291z" />
    <glyph glyph-name="Lacute" unicode="&#x139;" horiz-adv-x="1189" 
d="M1059 199l-45 -199h-969l315 1372h222l-271 -1173h748zM608 1518h-196l217 290h266z" />
    <glyph glyph-name="lacute" unicode="&#x13a;" horiz-adv-x="538" 
d="M258 0h-215l342 1475h213zM633 1620h-197l217 291h267z" />
    <glyph glyph-name="Lcommaaccent" unicode="&#x13b;" horiz-adv-x="1189" 
d="M377 -92h233l-239 -299h-162zM1059 199l-45 -199h-969l315 1372h222l-271 -1173h748z" />
    <glyph glyph-name="lcommaaccent" unicode="&#x13c;" horiz-adv-x="538" 
d="M-160 -391l170 299h234l-240 -299h-164zM258 0h-215l342 1475h213z" />
    <glyph glyph-name="Lcaron" unicode="&#x13d;" horiz-adv-x="1189" 
d="M901 991h-168l88 381h215zM1059 199l-45 -199h-969l315 1372h222l-271 -1173h748z" />
    <glyph glyph-name="lcaron" unicode="&#x13e;" horiz-adv-x="538" 
d="M815 1094h-168l88 381h215zM258 0h-215l342 1475h213z" />
    <glyph glyph-name="Ldot" unicode="&#x13f;" horiz-adv-x="1191" 
d="M788.5 584q-57.5 0 -94.5 36t-37 90t38 92t93.5 38t94.5 -38t39 -92t-38 -90t-95.5 -36zM1059 199l-45 -199h-969l315 1372h222l-271 -1173h748z" />
    <glyph glyph-name="ldot" unicode="&#x140;" horiz-adv-x="751" 
d="M722 836q56 0 94 -38t38 -92t-38 -91t-95 -37t-94 36.5t-37 91t38 92.5t94 38zM258 0h-215l342 1475h213z" />
    <glyph glyph-name="Lslash" unicode="&#x141;" horiz-adv-x="1275" 
d="M1143 199l-45 -199h-969l111 485l-174 -75l47 206l176 76l155 680h222l-134 -575l297 127l-47 -207l-297 -127l-92 -391h750z" />
    <glyph glyph-name="lslash" unicode="&#x142;" horiz-adv-x="688" 
d="M659 762l-167 -88l-156 -674h-213l125 545l-172 -90l47 207l174 90l166 723h215l-137 -594l168 88z" />
    <glyph glyph-name="Nacute" unicode="&#x143;" horiz-adv-x="1558" 
d="M1593 1372l-315 -1372h-186l-590 1010l-234 -1010h-219l316 1372h186l584 -1020l237 1020h221zM1124 1518h-196l217 290h266z" />
    <glyph glyph-name="nacute" unicode="&#x144;" horiz-adv-x="1277" 
d="M806 1044q208 0 300 -136t47 -337l-133 -571h-213l133 580q29 127 -26.5 201.5t-183.5 74.5t-222 -99.5t-137 -287.5l-109 -469h-215l236 1016h213l-31 -133q133 161 341 161zM913 1161h-196l217 291h266z" />
    <glyph glyph-name="Ncommaaccent" unicode="&#x145;" horiz-adv-x="1558" 
d="M565 -92h234l-240 -299h-162zM1593 1372l-315 -1372h-186l-590 1010l-234 -1010h-219l316 1372h186l584 -1020l237 1020h221z" />
    <glyph glyph-name="ncommaaccent" unicode="&#x146;" horiz-adv-x="1277" 
d="M403 -92h234l-240 -299h-161zM806 1044q208 0 300 -136t47 -337l-133 -571h-213l133 580q29 127 -26.5 201.5t-183.5 74.5t-222 -99.5t-137 -287.5l-109 -469h-215l236 1016h213l-31 -133q133 161 341 161z" />
    <glyph glyph-name="Ncaron" unicode="&#x147;" horiz-adv-x="1558" 
d="M1593 1372l-315 -1372h-186l-590 1010l-234 -1010h-219l316 1372h186l584 -1020l237 1020h221zM913 1501l-165 299h200l86 -160l162 160h225l-305 -299h-203z" />
    <glyph glyph-name="ncaron" unicode="&#x148;" horiz-adv-x="1277" 
d="M806 1044q208 0 300 -136t47 -337l-133 -571h-213l133 580q29 127 -26.5 201.5t-183.5 74.5t-222 -99.5t-137 -287.5l-109 -469h-215l236 1016h213l-31 -133q133 161 341 161zM702 1145l-165 299h200l86 -160l162 160h225l-305 -299h-203z" />
    <glyph glyph-name="Eng" unicode="&#x14a;" horiz-adv-x="1554" 
d="M919 -375q-117 0 -210 49l65 164q135 -50 208 4q38 28 50 74l31 131l-563 965l-234 -1012h-221l315 1372h187l586 -1022l237 1022h219l-334 -1456q-27 -125 -123 -208t-213 -83z" />
    <glyph glyph-name="eng" unicode="&#x14b;" horiz-adv-x="1277" 
d="M806 1044q208 0 300 -136t47 -337l-133 -571l-23 -84q-33 -127 -127 -209t-210 -82t-209 49l75 164q129 -54 207 4q39 30 51 74l23 84l133 580q29 127 -26.5 201.5t-183.5 74.5t-222 -99.5t-137 -287.5l-109 -469h-215l236 1016h213l-31 -133q133 161 341 161z" />
    <glyph glyph-name="Omacron" unicode="&#x14c;" horiz-adv-x="1630" 
d="M783 178q208 0 371 144t195 361t-88 365t-330 148t-373 -146t-195 -364t90 -362q122 -146 330 -146zM955 1403q299 0 479 -210t136 -519t-270 -507t-533 -198q-308 0 -487 207q-178 207 -136 508t276 510t535 209zM1346 1540h-617l39 174h616z" />
    <glyph glyph-name="omacron" unicode="&#x14d;" horiz-adv-x="1239" 
d="M565 160q137 0 252 96t139 250q25 154 -60 252t-222 98t-252 -98q-116 -98 -140 -252t61 -250t222 -96zM688 1038q229 0 371 -150q141 -151 105 -383q-36 -233 -209 -381t-403 -148t-372 149q-141 150 -105 382q36 231 210 381t403 150zM1065 1184h-616l38 174h617z" />
    <glyph glyph-name="Ohungarumlaut" unicode="&#x150;" horiz-adv-x="1630" 
d="M783 178q208 0 371 144t195 361t-88 365t-330 148t-373 -146t-195 -364t90 -362q122 -146 330 -146zM955 1403q299 0 479 -210t136 -519t-270 -507t-533 -198q-308 0 -487 207q-178 207 -136 508t276 510t535 209zM1294 1518h-192l217 290h264zM946 1518h-192l217 290
h264z" />
    <glyph glyph-name="ohungarumlaut" unicode="&#x151;" horiz-adv-x="1239" 
d="M565 160q137 0 252 96t139 250q25 154 -60 252t-222 98t-252 -98q-116 -98 -140 -252t61 -250t222 -96zM688 1038q229 0 371 -150q141 -151 105 -383q-36 -233 -209 -381t-403 -148t-372 149q-141 150 -105 382q36 231 210 381t403 150zM821 1161l217 291h265l-289 -291
h-193zM666 1161h-193l217 291h264z" />
    <glyph glyph-name="OE" unicode="&#x152;" horiz-adv-x="2121" 
d="M1065 1174q-279 0 -475.5 -144.5t-229.5 -376.5q-35 -203 65.5 -328.5t303.5 -125.5h178l228 975h-70zM729 0q-305 0 -471 182.5t-119 470.5q47 317 318.5 518t638.5 201h1102l-46 -198h-798l-90 -388h739l-45 -196h-739l-91 -391h803l-45 -199h-1157z" />
    <glyph glyph-name="oe" unicode="&#x153;" horiz-adv-x="2074" 
d="M565 160q137 0 252 96t139.5 249.5t-60.5 252t-222 98.5t-252 -98.5t-139.5 -252t60.5 -249.5t222 -96zM1538 864q-123 0 -217 -71.5t-137 -184.5h624q-8 123 -77.5 189.5t-192.5 66.5zM1153 457v-15q0 -135 73.5 -210.5t211.5 -75.5q199 0 311 184l190 -49
q-76 -154 -213 -237q-136 -83 -288 -83q-295 0 -420 215q-184 -211 -463 -211q-233 0 -374.5 149.5t-105.5 382t210 382t401 149.5q135 0 244.5 -55t173.5 -154q86 102 206 158.5t249 56.5q225 0 349 -162.5t81 -424.5h-836z" />
    <glyph glyph-name="Racute" unicode="&#x154;" horiz-adv-x="1392" 
d="M834 745q152 0 246 72t94 184q0 82 -56.5 127.5t-148.5 45.5h-428l-99 -429h392zM1397 1010q0 -174 -128 -301t-341 -156l317 -553h-250l-299 547h-301l-125 -547h-221l270 1174l48 198h614q190 0 303 -94t113 -268zM983 1518h-197l218 290h266z" />
    <glyph glyph-name="racute" unicode="&#x155;" horiz-adv-x="849" 
d="M825 817q-186 0 -310 -122t-173 -337l-84 -358h-213l234 1016h215l-41 -180q188 193 419 192q45 0 68 -8l-57 -205q-16 2 -58 2zM711 1161h-197l217 291h266z" />
    <glyph glyph-name="Rcommaaccent" unicode="&#x156;" horiz-adv-x="1392" 
d="M465 -92h233l-239 -299h-162zM834 745q152 0 246 72t94 184q0 82 -56.5 127.5t-148.5 45.5h-428l-99 -429h392zM1397 1010q0 -174 -128 -301t-341 -156l317 -553h-250l-299 547h-301l-125 -547h-221l270 1174l48 198h614q190 0 303 -94t113 -268z" />
    <glyph glyph-name="rcommaaccent" unicode="&#x157;" horiz-adv-x="849" 
d="M12 -92h234l-240 -299h-164zM872 1028q45 0 68 -8l-57 -205q-16 2 -58 2q-186 0 -310 -122t-173 -337l-84 -358h-213l234 1016h215l-41 -180q188 192 419 192z" />
    <glyph glyph-name="Rcaron" unicode="&#x158;" horiz-adv-x="1392" 
d="M834 745q152 0 246 72t94 184q0 82 -56.5 127.5t-148.5 45.5h-428l-99 -429h392zM1397 1010q0 -174 -128 -301t-341 -156l317 -553h-250l-299 547h-301l-125 -547h-221l270 1174l48 198h614q190 0 303 -94t113 -268zM772 1501l-166 299h201l86 -160l162 160h225
l-305 -299h-203z" />
    <glyph glyph-name="rcaron" unicode="&#x159;" horiz-adv-x="849" 
d="M825 817q-186 0 -310 -122t-173 -337l-84 -358h-213l234 1016h215l-41 -180q188 193 419 192q45 0 68 -8l-57 -205q-16 2 -58 2zM500 1145l-166 299h201l86 -160l161 160h226l-306 -299h-202z" />
    <glyph glyph-name="Sacute" unicode="&#x15a;" horiz-adv-x="1284" 
d="M782.5 1401q227.5 0 358.5 -104.5t147 -286.5l-221 -47q-4 113 -85 182t-209 69t-211 -65.5t-83 -161.5q0 -55 34 -90t114 -63l219 -72q303 -98 303 -342q0 -203 -152.5 -326t-389 -123t-391.5 106.5t-167 307.5l234 47q8 -131 96 -200.5t235.5 -69.5t231.5 64.5
t84 168.5q0 59 -37 97t-127 69l-217 70q-139 47 -219 118.5t-80 208.5q0 195 152.5 319t380 124zM944 1518h-196l217 290h266z" />
    <glyph glyph-name="sacute" unicode="&#x15b;" horiz-adv-x="1034" 
d="M485 139q94 0 153.5 41t59.5 92.5t-27.5 77t-88.5 45.5l-189 62q-227 70 -227 264q0 143 111.5 233t289.5 90t294 -77.5t143 -198.5l-185 -57q-10 74 -76.5 118.5t-166 44.5t-149.5 -38.5t-50 -88t30.5 -77t102.5 -52.5l129 -40q133 -45 200.5 -111t67.5 -172
q0 -147 -124 -235.5t-302 -88.5t-305 74t-158 211l211 61q14 -84 88 -131t168 -47zM772 1161h-197l218 291h266z" />
    <glyph glyph-name="Scedilla" unicode="&#x15e;" horiz-adv-x="1284" 
d="M1149 420q0 -190 -138.5 -312t-365.5 -135l-192 -311h-248l276 318q-184 25 -303 129t-129 276l234 47q8 -131 96 -200.5t235.5 -69.5t231.5 64.5t84 168.5q0 59 -37 97t-127 69l-217 70q-139 47 -219 118.5t-80 208.5q0 195 152.5 319t380 124t358.5 -104.5t147 -286.5
l-221 -47q-4 113 -85 182t-209 69t-211 -65.5t-83 -161.5q0 -55 34 -89.5t114 -63.5l219 -72q303 -98 303 -342z" />
    <glyph glyph-name="scedilla" unicode="&#x15f;" horiz-adv-x="1034" 
d="M907 295q0 -139 -110.5 -225t-282.5 -97l-192 -311h-248l278 320q-129 23 -219 93t-115 181l211 61q14 -84 88 -131t168 -47t153.5 41t59.5 92.5t-27.5 77t-88.5 45.5l-189 62q-227 70 -227 264q0 143 111.5 233t289.5 90t294 -77.5t143 -198.5l-185 -57
q-10 74 -76.5 118.5t-166 44.5t-149.5 -38.5t-50 -88t30.5 -77t102.5 -52.5l129 -40q133 -45 200.5 -111t67.5 -172z" />
    <glyph glyph-name="Scaron" unicode="&#x160;" horiz-adv-x="1284" 
d="M1149 420q0 -203 -152.5 -326t-389 -123t-391.5 106.5t-167 307.5l234 47q8 -131 96 -200.5t235.5 -69.5t231.5 64.5t84 168.5q0 59 -37 97t-127 69l-217 70q-139 47 -219 118.5t-80 208.5q0 195 152.5 319t380 124t358.5 -104.5t147 -286.5l-221 -47q-4 113 -85 182
t-209 69t-211 -65.5t-83 -161.5q0 -55 34 -89.5t114 -63.5l219 -72q303 -98 303 -342zM733 1501l-166 299h201l86 -160l162 160h225l-305 -299h-203z" />
    <glyph glyph-name="scaron" unicode="&#x161;" horiz-adv-x="1034" 
d="M576 874q-99 0 -149 -38.5t-50 -88t30.5 -77t102.5 -52.5l129 -40q133 -45 200.5 -111t67.5 -172q0 -147 -124 -235.5t-302 -88.5t-305 74t-158 211l211 61q14 -84 88 -131t168 -47t153.5 41t59.5 92.5t-27.5 77t-88.5 45.5l-189 62q-227 70 -227 264q0 143 111.5 233
t289.5 90t294 -77.5t143 -198.5l-185 -57q-10 74 -77 118.5t-166 44.5zM561 1145l-166 299h201l86 -160l162 160h225l-305 -299h-203z" />
    <glyph glyph-name="tcedilla" unicode="&#x163;" horiz-adv-x="825" 
d="M477 172q88 0 193 55l14 -186q-125 -68 -248 -70l-190 -309h-248l291 332q-195 78 -129 352l112 494h-194l41 176h194l72 315h215l-74 -315h348l-38 -176h-351l-110 -480q-43 -188 102 -188z" />
    <glyph glyph-name="Tcaron" unicode="&#x164;" horiz-adv-x="1280" 
d="M1386 1174h-481l-270 -1174h-221l270 1174h-483l45 198h1188zM770 1501l-166 299h201l86 -160l162 160h225l-305 -299h-203z" />
    <glyph glyph-name="tcaron" unicode="&#x165;" horiz-adv-x="825" 
d="M477 172q88 0 193 55l14 -186q-127 -70 -272.5 -70t-220 95.5t-31.5 279.5l112 494h-194l41 176h194l72 315h215l-74 -315h348l-38 -176h-351l-110 -480q-43 -188 102 -188zM827 1110h-168l89 381h215z" />
    <glyph glyph-name="Tbar" unicode="&#x166;" horiz-adv-x="1280" 
d="M905 1174l-92 -396h266l-43 -184h-264l-137 -594h-221l137 594h-254l43 184h252l92 396h-483l45 198h1188l-48 -198h-481z" />
    <glyph glyph-name="tbar" unicode="&#x167;" horiz-adv-x="854" 
d="M506 172q88 0 192 55l15 -186q-127 -70 -254 -70q-164 -1 -239 95t-32 280l41 174h-186l39 174h186l35 146h-225l41 176h223l74 315h213l-72 -315h356l-41 -176h-356l-35 -146h269l-39 -174h-269l-36 -160q-45 -188 100 -188z" />
    <glyph glyph-name="Umacron" unicode="&#x16a;" horiz-adv-x="1466" 
d="M650 -29q-264 -1 -403 179q-140 180 -77 456l176 766h221l-176 -766q-45 -192 31 -308t242 -116t290 116t168 308l176 766h222l-177 -766q-69 -295 -249 -465t-444 -170zM1274 1540h-617l39 174h617z" />
    <glyph glyph-name="umacron" unicode="&#x16b;" horiz-adv-x="1277" 
d="M472 -29q-208 0 -300 137.5t-45 337.5l131 570h213l-133 -580q-27 -125 28.5 -200.5t180.5 -75.5t218 94t138 272l115 490h213l-236 -1016h-213l31 133q-133 -162 -341 -162zM1063 1184h-617l39 174h617z" />
    <glyph glyph-name="Uring" unicode="&#x16e;" horiz-adv-x="1466" 
d="M650 -29q-264 -1 -403 179q-140 180 -77 456l176 766h221l-176 -766q-45 -192 31 -308t242 -116t290 116t168 308l176 766h222l-177 -766q-69 -295 -249 -465t-444 -170zM1096 1703q0 41 -26 65t-67 24q-42 0 -72 -30t-30 -70t24 -67q23 -26 65 -26t74 32t32 72z
M983 1477q-96 0 -156 59q-59 59 -59 150t73 161t169 70t155 -59q59 -60 59 -152t-72 -160q-73 -68 -169 -69z" />
    <glyph glyph-name="uring" unicode="&#x16f;" horiz-adv-x="1277" 
d="M472 -29q-208 0 -300 137.5t-45 337.5l131 570h213l-133 -580q-27 -125 28.5 -200.5t180.5 -75.5t218 94t138 272l115 490h213l-236 -1016h-213l31 133q-133 -162 -341 -162zM792 1436q-42 0 -72 -30t-30 -71t23.5 -66.5t65.5 -25.5t74 32t32 72t-25.5 64.5t-67.5 24.5z
M772 1120q-96 0 -155.5 59.5t-59.5 150.5t72.5 161t169 70t156 -59.5t59.5 -151.5t-73 -161t-169 -69z" />
    <glyph glyph-name="Uhungarumlaut" unicode="&#x170;" horiz-adv-x="1466" 
d="M650 -29q-264 -1 -403 179q-140 180 -77 456l176 766h221l-176 -766q-45 -192 31 -308t242 -116t290 116t168 308l176 766h222l-177 -766q-69 -295 -249 -465t-444 -170zM1030 1518l217 290h264l-288 -290h-193zM874 1518h-192l217 290h264z" />
    <glyph glyph-name="uhungarumlaut" unicode="&#x171;" horiz-adv-x="1277" 
d="M472 -29q-208 0 -300 137.5t-45 337.5l131 570h213l-133 -580q-27 -125 28.5 -200.5t180.5 -75.5t218 94t138 272l115 490h213l-236 -1016h-213l31 133q-133 -162 -341 -162zM819 1161l217 291h264l-288 -291h-193zM664 1161h-193l217 291h264z" />
    <glyph glyph-name="Uogonek" unicode="&#x172;" horiz-adv-x="1466" 
d="M770 -215q0 -57 66 -57q29 0 100 22l-29 -135q-71 -35 -143 -35t-118 41t-46 111q0 123 186 254q-66 -14 -149 -15q-250 -1 -390 179t-77 456l176 766h221l-176 -766q-45 -192 31 -308t242 -116t290 116t168 308l176 766h222l-177 -766q-78 -324 -276 -487
q-241 -233 -269 -267t-28 -67z" />
    <glyph glyph-name="uogonek" unicode="&#x173;" horiz-adv-x="1277" 
d="M809 -215q0 -57 65 -57q27 0 99 22l-29 -135q-68 -35 -141.5 -35t-119.5 41t-46 111q0 127 207 268h-62l31 133q-133 -162 -341 -162t-300 137.5t-45 337.5l131 570h213l-133 -580q-27 -125 28.5 -200.5t180.5 -75.5t218 94t138 272l115 490h213l-236 -1016
q-62 -54 -75 -66t-31.5 -27.5t-25.5 -23.5q-7 -9 -18 -21q-36 -40 -36 -77z" />
    <glyph glyph-name="Wcircumflex" unicode="&#x174;" horiz-adv-x="1972" 
d="M2132 1372l-727 -1372h-236l-71 1020l-545 -1020h-231l-95 1372h222l61 -1034l553 1034h217l74 -1034l540 1034h238zM1139 1501h-226l306 297h202l168 -297h-203l-86 158z" />
    <glyph glyph-name="wcircumflex" unicode="&#x175;" horiz-adv-x="1617" 
d="M1698 1016l-578 -1020h-200l-78 684l-396 -684h-192l-107 1020h203l74 -707l405 707h168l80 -709l402 709h219zM883 1145h-226l306 297h202l168 -297h-203l-86 158z" />
    <glyph glyph-name="Ycircumflex" unicode="&#x176;" horiz-adv-x="1396" 
d="M793 459l-107 -459h-221l106 457l-344 915h230l262 -688l579 688h269zM811 1501h-225l305 297h203l168 -297h-203l-86 158z" />
    <glyph glyph-name="ycircumflex" unicode="&#x177;" horiz-adv-x="1171" 
d="M1251 1016l-907 -1364h-244l250 373l-203 991h224l147 -742l498 742h235zM649 1147h-225l305 297h203l168 -297h-203l-86 158z" />
    <glyph glyph-name="Ydieresis" unicode="&#x178;" horiz-adv-x="1396" 
d="M793 459l-107 -459h-221l106 457l-344 915h230l262 -688l579 688h269zM1128 1788q56 0 96 -40t40 -95t-38 -92t-97 -37q-58 0 -96 37t-38 92t38 95t95 40zM706 1524q-58 0 -97 37q-38 37 -38 92t38 95q37 40 95 40t97 -40t39 -95t-38 -92t-96 -37z" />
    <glyph glyph-name="Zacute" unicode="&#x179;" horiz-adv-x="1282" 
d="M1337 1208l-989 -1020h764l-43 -188h-1077l33 141l1024 1043h-760l41 188h1044zM995 1518h-196l217 290h266z" />
    <glyph glyph-name="zacute" unicode="&#x17a;" horiz-adv-x="1054" 
d="M1067 1016l-33 -144l-739 -696h602l-41 -176h-891l33 141l735 699h-557l41 176h850zM791 1161h-197l217 291h266z" />
    <glyph glyph-name="Zdotaccent" unicode="&#x17b;" horiz-adv-x="1282" 
d="M1337 1208l-989 -1020h764l-43 -188h-1077l33 141l1024 1043h-760l41 188h1044zM920 1540q-57 0 -95 37q-37 37 -37 91t38 92t94 38t94 -38q39 -38 39 -92t-38 -91t-95 -37z" />
    <glyph glyph-name="zdotaccent" unicode="&#x17c;" horiz-adv-x="1054" 
d="M1034 872l-739 -696h602l-41 -176h-891l33 141l735 699h-557l41 176h850zM715 1184q-57 0 -94 37t-37 91t38 92t93 38t94 -38t39 -92t-38 -91t-95 -37z" />
    <glyph glyph-name="Zcaron" unicode="&#x17d;" horiz-adv-x="1282" 
d="M1337 1208l-989 -1020h764l-43 -188h-1077l33 141l1024 1043h-760l41 188h1044zM784 1501l-166 299h201l86 -160l162 160h225l-305 -299h-203z" />
    <glyph glyph-name="zcaron" unicode="&#x17e;" horiz-adv-x="1054" 
d="M1067 1016l-33 -144l-739 -696h602l-41 -176h-891l33 141l735 699h-557l41 176h850zM580 1145l-166 299h200l86 -160l162 160h225l-305 -299h-202z" />
    <glyph glyph-name="florin" unicode="&#x192;" horiz-adv-x="1165" 
d="M1070 1399q163 0 247 -74l-113 -172q-61 57 -160 57q-172 0 -256 -196l-102 -248h344l-39 -176h-377l-252 -610q-131 -317 -428 -318q-121 0 -192 53l111 172q119 -56 220 9q50 33 70 84l254 610h-231l39 176h266l115 278q72 172 196 264q125 91 288 91z" />
    <glyph glyph-name="AEacute" unicode="&#x1fc;" horiz-adv-x="2349" 
d="M1202 483l139 604l-632 -604h493zM1581 1174l-90 -388h739l-45 -196h-739l-90 -391h803l-45 -199h-1024l65 285h-655l-299 -285h-293l1472 1372h1045l-45 -198h-799zM1907 1518h-197l217 290h266z" />
    <glyph glyph-name="aeacute" unicode="&#x1fd;" horiz-adv-x="1867" 
d="M446 436q-102 0 -162 -43t-60 -109t49 -104q50 -38 156 -37q105 0 217 80t130 191l4 22h-334zM997 590h588q2 131 -62 202q-65 70 -177 70t-212 -72q-98 -72 -137 -200zM1366 1044q217 0 338 -150t86 -384l-12 -74h-801q-2 -133 69 -207t195 -73q78 0 163 42t140 132
l185 -41q-63 -141 -207 -229t-310 -89q-256 0 -360 205q-80 -90 -205 -147t-279 -57t-248 76q-93 76 -93 216t115 233q116 93 313 93h348l10 61q14 97 -40 155q-55 58 -155 58t-173 -49t-99 -133l-188 43q41 141 174 230t315 89q242 0 330 -161q172 161 389 161zM1219 1161
h-197l217 291h266z" />
    <glyph glyph-name="Scommaaccent" unicode="&#x218;" horiz-adv-x="1284" 
d="M254 -391l168 299h233l-239 -299h-162zM782.5 1401q227.5 0 358.5 -104.5t147 -286.5l-221 -47q-4 113 -85 182t-209 69t-211 -65.5t-83 -161.5q0 -55 34 -90t114 -63l219 -72q303 -98 303 -342q0 -203 -152.5 -326t-389 -123t-391.5 106.5t-167 307.5l234 47
q8 -131 96 -200.5t235.5 -69.5t231.5 64.5t84 168.5q0 59 -37 97t-127 69l-217 70q-139 47 -219 118.5t-80 208.5q0 195 152.5 319t380 124z" />
    <glyph glyph-name="scommaaccent" unicode="&#x219;" horiz-adv-x="1034" 
d="M123 -391l168 299h233l-239 -299h-162zM485 139q94 0 153.5 41t59.5 92.5t-27.5 77t-88.5 45.5l-189 62q-227 70 -227 264q0 143 111.5 233t289.5 90t294 -77.5t143 -198.5l-185 -57q-10 74 -76.5 118.5t-166 44.5t-149.5 -38.5t-50 -88t30.5 -77t102.5 -52.5l129 -40
q133 -45 200.5 -111t67.5 -172q0 -147 -124 -235.5t-302 -88.5t-305 74t-158 211l211 61q14 -84 88 -131t168 -47z" />
    <glyph glyph-name="uni021A" unicode="&#x21a;" horiz-adv-x="1280" 
d="M391 -92h234l-240 -299h-162zM1386 1174h-481l-270 -1174h-221l270 1174h-483l45 198h1188z" />
    <glyph glyph-name="uni021B" unicode="&#x21b;" horiz-adv-x="825" 
d="M215 -92h234l-240 -299h-162zM477 172q88 0 193 55l14 -186q-127 -70 -272.5 -70t-220 95.5t-31.5 279.5l112 494h-194l41 176h194l72 315h215l-74 -315h348l-38 -176h-351l-110 -480q-43 -188 102 -188z" />
    <glyph glyph-name="circumflex" unicode="&#x2c6;" horiz-adv-x="1228" 
d="M872 1145l-86 158l-161 -158h-226l306 297h202l166 -297h-201z" />
    <glyph glyph-name="caron" unicode="&#x2c7;" horiz-adv-x="1228" 
d="M1104 1444l-305 -299h-203l-166 299h201l86 -160l162 160h225z" />
    <glyph glyph-name="breve" unicode="&#x2d8;" horiz-adv-x="1228" 
d="M695 1128q-146 0 -216 79t-39 212h166q-14 -63 19 -103t93 -40t108 40t63 103h190q-31 -133 -135 -212t-249 -79z" />
    <glyph glyph-name="dotaccent" unicode="&#x2d9;" horiz-adv-x="1228" 
d="M731 1442q55 0 94 -38t39 -92t-38 -91t-95 -37t-94 37t-37 91t38 92t93 38z" />
    <glyph glyph-name="ring" unicode="&#x2da;" horiz-adv-x="1228" 
d="M836 1347q0 41 -26 65t-68 24t-72 -30t-29 -71q0 -41 24 -67q23 -26 65 -25q42 0 74 32t32 72zM750 1561q96 1 156 -59t59 -152q0 -92 -73 -161t-169 -69q-95 0 -155 60t-60 150q0 91 73 161t169 70z" />
    <glyph glyph-name="ogonek" unicode="&#x2db;" horiz-adv-x="1228" 
d="M520 -215q0 -57 66 -57q27 0 98 22l-29 -135q-67 -35 -141 -35t-120 41t-46 107t46 130t169 148l144 -6q-59 -51 -73 -65q-16 -13 -34 -28t-26 -23t-18 -21q-36 -39 -36 -78z" />
    <glyph glyph-name="tilde" unicode="&#x2dc;" horiz-adv-x="1228" 
d="M638 1444q75 0 134 -44t95 -44q71 0 91 88h146q-31 -130 -103 -186q-71 -56 -147 -56t-135 43t-95 43q-71 0 -89 -82h-146q29 125 101 182q73 56 148 56z" />
    <glyph glyph-name="hungarumlaut" unicode="&#x2dd;" horiz-adv-x="1228" 
d="M963 1161h-193l217 291h264zM614 1161h-192l217 291h264z" />
    <glyph glyph-name="uni0326" unicode="&#x326;" horiz-adv-x="0" 
d="M168 -391l168 299h233l-239 -299h-162z" />
    <glyph glyph-name="Wgrave" unicode="&#x1e80;" horiz-adv-x="1972" 
d="M2132 1372l-727 -1372h-236l-71 1020l-545 -1020h-231l-95 1372h222l61 -1034l553 1034h217l74 -1034l540 1034h238zM1120 1518l-286 290h266l217 -290h-197z" />
    <glyph glyph-name="wgrave" unicode="&#x1e81;" horiz-adv-x="1617" 
d="M1698 1016l-578 -1020h-200l-78 684l-396 -684h-192l-107 1020h203l74 -707l405 707h168l80 -709l402 709h219zM864 1161l-286 291h266l217 -291h-197z" />
    <glyph glyph-name="Wacute" unicode="&#x1e82;" horiz-adv-x="1972" 
d="M2132 1372l-727 -1372h-236l-71 1020l-545 -1020h-231l-95 1372h222l61 -1034l553 1034h217l74 -1034l540 1034h238zM1321 1518h-197l217 290h267z" />
    <glyph glyph-name="wacute" unicode="&#x1e83;" horiz-adv-x="1617" 
d="M1698 1016l-578 -1020h-200l-78 684l-396 -684h-192l-107 1020h203l74 -707l405 707h168l80 -709l402 709h219zM1065 1161h-197l217 291h267z" />
    <glyph glyph-name="Wdieresis" unicode="&#x1e84;" horiz-adv-x="1972" 
d="M2132 1372l-727 -1372h-236l-71 1020l-545 -1020h-231l-95 1372h222l61 -1034l553 1034h217l74 -1034l540 1034h238zM1457 1524q-58 0 -96 37t-38 92t38 95t95 40t96 -40t39 -95t-38 -92t-96 -37zM1033 1524q-58 0 -96 37t-38 92t38 95t95 40t96 -40t39 -95t-38 -92
t-96 -37z" />
    <glyph glyph-name="wdieresis" unicode="&#x1e85;" horiz-adv-x="1617" 
d="M1698 1016l-578 -1020h-200l-78 684l-396 -684h-192l-107 1020h203l74 -707l405 707h168l80 -709l402 709h219zM1201 1167q-58 0 -96 37t-38 92q0 56 38 96t95 40t96 -40t39 -96t-38 -92q-38 -37 -96 -37zM777 1167q-58 0 -96 37t-38 92q0 56 38 96t95 40t96 -40t39 -96
t-38 -92q-38 -37 -96 -37z" />
    <glyph glyph-name="Ygrave" unicode="&#x1ef2;" horiz-adv-x="1396" 
d="M793 459l-107 -459h-221l106 457l-344 915h230l262 -688l579 688h269zM793 1518l-287 290h266l217 -290h-196z" />
    <glyph glyph-name="ygrave" unicode="&#x1ef3;" horiz-adv-x="1171" 
d="M1251 1016l-907 -1364h-244l250 373l-203 991h224l147 -742l498 742h235zM631 1163l-287 291h266l217 -291h-196z" />
    <glyph glyph-name="endash" unicode="&#x2013;" horiz-adv-x="1271" 
d="M1133 440h-1024l36 164h1024z" />
    <glyph glyph-name="emdash" unicode="&#x2014;" horiz-adv-x="2131" 
d="M1993 440h-1884l36 164h1885z" />
    <glyph glyph-name="quoteleft" unicode="&#x2018;" horiz-adv-x="544" 
d="M494 1372h172l-254 -543h-258z" />
    <glyph glyph-name="quoteright" unicode="&#x2019;" horiz-adv-x="544" 
d="M326 829h-172l256 543h256l-2 -6z" />
    <glyph glyph-name="quotesinglbase" unicode="&#x201a;" horiz-adv-x="544" 
d="M72 -270h-172l256 544h256l-2 -6z" />
    <glyph glyph-name="quotedblleft" unicode="&#x201c;" horiz-adv-x="909" 
d="M858 1372h172l-256 -543h-256zM494 1372h172l-254 -543h-258z" />
    <glyph glyph-name="quotedblright" unicode="&#x201d;" horiz-adv-x="909" 
d="M688 829h-170l254 543h258l-2 -6zM326 829h-172l256 543h256l-2 -6z" />
    <glyph glyph-name="quotedblbase" unicode="&#x201e;" horiz-adv-x="909" 
d="M436 -270h-172l254 544h258l-2 -6zM72 -270h-172l256 544h256l-2 -6z" />
    <glyph glyph-name="dagger" unicode="&#x2020;" horiz-adv-x="782" 
d="M852 1192h-227l-117 -500h-150l115 500h-227l33 139h227l43 185h151l-43 -185h228z" />
    <glyph glyph-name="daggerdbl" unicode="&#x2021;" horiz-adv-x="782" 
d="M625 1192l-41 -176h229l-33 -139h-229l-43 -185h-150l43 185h-229l35 139h227l39 176h-227l33 139h227l43 185h151l-43 -185h228l-33 -139h-227z" />
    <glyph glyph-name="bullet" unicode="&#x2022;" horiz-adv-x="856" 
d="M434 852q140 0 234 -94t94 -226t-93 -222t-235 -91q-142 0 -234 90q-94 91 -94 223t94 226t234 94z" />
    <glyph glyph-name="ellipsis" unicode="&#x2026;" horiz-adv-x="1464" 
d="M1145 252q57 0 95 -38t38 -92t-38 -92t-95 -38t-96 38t-39 92t39 92t96 38zM643 252q57 0 95 -38t38 -92t-38 -92t-95 -38t-96 38t-39 92t39 92t96 38zM141 252q57 0 95 -38t38 -92t-38 -92t-94 -38q-58 0 -97 38t-39 92t39 92t96 38z" />
    <glyph glyph-name="perthousand" unicode="&#x2030;" horiz-adv-x="2598" 
d="M2131 483q-73 0 -134 -56t-61 -137t45 -125q46 -44 118 -44t133 55q62 56 62 138t-45 126t-118 43zM1357 483q-73 0 -134 -56t-61 -137t46 -125q47 -44 119 -44t133 56q62 55 62 137t-46 126t-119 43zM1774 284q0 144 112 244t254 101q142 0 228 -81q88 -80 88 -226
t-112 -248t-253 -102t-229 83q-88 85 -88 229zM1366 629q142 0 229 -82q88 -83 88 -227q1 -144 -111 -246t-253 -102t-230 83q-89 85 -89 229t112 244t254 101zM583 1253q-73 0 -134 -55t-61 -136t46 -126q47 -45 119 -45t133 56q62 55 62 137t-46 126t-119 43zM201 0
l1331 1372h147l-1331 -1372h-147zM225 1054q1 146 113 246t254 101q142 0 229 -82q88 -83 88 -227q-1 -144 -113 -246t-253 -102t-230 82q-88 82 -88 228z" />
    <glyph glyph-name="guilsinglleft" unicode="&#x2039;" horiz-adv-x="555" 
d="M59 537l324 364h213l-338 -375l154 -354h-197z" />
    <glyph glyph-name="guilsinglright" unicode="&#x203a;" horiz-adv-x="555" 
d="M512 537l-324 -365h-215l338 375l-153 354h198z" />
    <glyph glyph-name="fraction" unicode="&#x2044;" horiz-adv-x="464" 
d="M-522 0l1331 1372h147l-1331 -1372h-147z" />
    <glyph glyph-name="Euro" unicode="&#x20ac;" horiz-adv-x="1636" 
d="M924 178q254 0 393 318l209 -47q-88 -219 -257 -349t-375 -129q-206 0 -335 131t-149 355h-250l35 157h215q6 76 20 138h-207l37 155h213q86 225 260 359t388 135q214 0 343 -129t146 -348l-230 -45q-8 157 -86 237t-200 80t-224 -77t-163 -212h475l-64 -155h-465
q-16 -84 -18 -138h418l-64 -157h-350q23 -129 97 -204t188 -75z" />
    <glyph glyph-name="uni2116" unicode="&#x2116;" horiz-adv-x="2480" 
d="M1620 565h678l-43 -174h-676zM2066 854q78 0 142 60q63 60 63 142t-52 131q-52 48 -130 48t-138 -60q-61 -59 -61 -141t49 -131t127 -49zM1593 1372l-315 -1372h-186l-590 1010l-234 -1010h-219l316 1372h186l584 -1020l237 1020h221zM1716 1019q0 153 116 263t266 111
q150 0 248 -86t97 -238q0 -153 -120 -263t-269 -110t-244 85q-94 85 -94 238z" />
    <glyph glyph-name="uni2117" unicode="&#x2117;" horiz-adv-x="1568" 
d="M690 653h197q78 0 125 40q47 41 47 105t-47 102t-125 38h-197v-285zM557 1057h340q133 0 212 -71q79 -72 79 -190t-79 -191t-212 -73h-207v-229h-133v754zM822 70q253 0 431 175q179 175 179 440t-178 442t-432 177q-253 0 -430 -176q-177 -178 -177 -443t177 -440
t430 -175zM823 1401q297 0 506 -205t209 -512t-209 -510t-506 -203t-506 203t-209 510t209 512t506 205z" />
    <glyph glyph-name="trademark" unicode="&#x2122;" horiz-adv-x="1349" 
d="M1327 821h-119l82 357l-231 -355h-76l-70 357l-79 -359h-119l125 551h137l76 -383l252 383h149zM739 1266h-182l-102 -445h-127l102 445h-180l24 106h490z" />
    <glyph glyph-name="oneeighth" unicode="&#x215b;" horiz-adv-x="1585" 
d="M1024 194q0 -54 36 -80q36 -28 97 -28t105 32q43 32 43 85t-37 82q-36 29 -98 29t-104 -34q-42 -32 -42 -86zM1238 446q58 0 97 31t39 81t-35 77t-92 27t-94 -29t-39 -80t32 -79t92 -28zM1155 -35q-133 1 -212 61t-77 144t56 141t143 78q-96 55 -96 159t80 166
q79 60 203 60t196 -56t71 -138q-2 -168 -167 -213q108 -55 108 -163t-86 -174q-86 -65 -219 -65zM367 1174l-201 -95l37 162l264 131h102l-176 -768h-157zM1489 1372l-1331 -1372h-148l1331 1372h148z" />
    <glyph glyph-name="threeeighths" unicode="&#x215c;" horiz-adv-x="1785" 
d="M1214 194q0 -54 36 -80q36 -28 98 -28q61 0 104 32t43 85t-37 82t-98 29t-104 -33q-42 -33 -42 -87zM1438 662q-56 0 -94 -29t-40 -80t32 -79t92 -28t98 31q39 31 39 81t-35 77t-92 27zM1651 204q0 -108 -86 -174q-85 -65 -219 -65q-134 1 -212 61t-77 144q2 84 55 141
t143 78q-96 55 -96 159t80 166q80 60 204 60q123 0 195 -56t71 -138q-2 -168 -167 -213q109 -55 109 -163zM1681 1372l-1331 -1372h-147l1331 1372h147zM418 592q-133 0 -210 71t-73 187l137 29q-2 -74 41 -117t114 -43t116 36t45 91q0 102 -127 102h-86l28 113h82
q70 0 119 30t50 81q2 52 -30 80t-94 28t-108 -45q-47 -45 -60 -117l-131 29q15 113 103 185t209 71q121 1 191 -59t65 -154q-2 -139 -152 -191q90 -45 86 -155t-93 -180q-89 -72 -222 -72z" />
    <glyph glyph-name="fiveeighths" unicode="&#x215d;" horiz-adv-x="1783" 
d="M1219 194q0 -54 36 -80q36 -28 97 -28t104 32t43 85t-37 82t-98 29t-103 -34q-42 -32 -42 -86zM1433 446q58 0 97 31t39 81t-35 77t-92 27t-94 -29t-39 -80t32 -79t92 -28zM1655 204q0 -108 -86 -174q-86 -65 -219 -65q-133 1 -212 61t-77 144t55 141t144 78
q-96 55 -96 159t79 166q80 60 204 60q123 0 195 -56t71 -138q-2 -168 -167 -213q109 -55 109 -163zM1702 1372l-1331 -1372h-148l1331 1372h148zM739 858q0 -114 -90 -190q-90 -78 -224 -78t-213 66t-85 161l152 27q8 -55 47 -88q40 -33 106 -33t111 38t45 93t-33 83t-88 28
h-270l102 407h518l-29 -139h-382l-33 -139h123q109 0 176 -61t67 -175z" />
    <glyph glyph-name="seveneighths" unicode="&#x215e;" horiz-adv-x="1579" 
d="M1014 194q0 -54 36 -80q36 -28 97 -28t104 32t43 85t-37 82t-98 29t-103 -34q-42 -32 -42 -86zM1228 446q58 0 97 31t39 81t-35 77t-92 27t-94 -29t-39 -80t32 -79t92 -28zM1450 204q0 -108 -86 -174q-86 -65 -219 -65q-133 1 -212 61t-77 144t55 141t144 78
q-97 55 -97 159t80 166q80 60 204 60t196 -55q71 -56 70 -139q-2 -168 -167 -213q109 -55 109 -163zM131 606l440 627h-383l33 139h561l-26 -121l-447 -645h-178zM1464 1372l-1331 -1372h-147l1331 1372h147z" />
    <glyph glyph-name="arrowleft" unicode="&#x2190;" horiz-adv-x="1488" 
d="M1407 553h-963l414 -414l-156 -157l-682 682l685 684l155 -158l-416 -416h963v-221z" />
    <glyph glyph-name="arrowup" unicode="&#x2191;" horiz-adv-x="1529" 
d="M877 0h-222v965l-415 -418l-158 155l684 684l682 -681l-156 -156l-415 416v-965z" />
    <glyph glyph-name="arrowright" unicode="&#x2192;" horiz-adv-x="1488" 
d="M82 553v221h965l-418 416l155 158l684 -684l-682 -682l-155 157l416 414h-965z" />
    <glyph glyph-name="arrowdown" unicode="&#x2193;" horiz-adv-x="1529" 
d="M655 1372h222v-962l415 413l156 -155l-682 -682l-684 684l158 155l415 -415v962z" />
    <glyph glyph-name="uni2196" unicode="&#x2196;" horiz-adv-x="1529" 
d="M283 365h-222v1007h1006v-219h-631l1012 -1012l-156 -157l-1009 1011v-630z" />
    <glyph glyph-name="uni2197" unicode="&#x2197;" horiz-adv-x="1529" 
d="M1468 1372v-1007h-221v632l-1009 -1013l-156 157l1010 1012h-629l-2 219h1007z" />
    <glyph glyph-name="uni2198" unicode="&#x2198;" horiz-adv-x="1529" 
d="M1468 1008v-1008h-1007l2 221h629l-1010 1010l156 158l1009 -1014v633h221z" />
    <glyph glyph-name="uni2199" unicode="&#x2199;" horiz-adv-x="1529" 
d="M1067 221v-221h-1006v1008h222v-631l1009 1012l156 -158l-1012 -1010h631z" />
    <glyph glyph-name="minus" unicode="&#x2212;" horiz-adv-x="1189" 
d="M1061 530h-922l45 189h922z" />
    <glyph glyph-name="approxequal" unicode="&#x2248;" horiz-adv-x="1187" 
d="M828 375q-114 0 -240 51q-125 51 -226 51q-162 0 -249 -63l41 178q94 63 222 63t260 -50q130 -50 246 -50t195 43l-43 -180q-92 -43 -206 -43zM902 688q-114 0 -240 50q-125 50 -226 50q-162 0 -252 -63l41 178q94 63 224 63q129 0 259 -50t246 -50t195 43l-41 -180
q-92 -41 -206 -41z" />
    <glyph glyph-name="notequal" unicode="&#x2260;" horiz-adv-x="1189" 
d="M797 760l-168 -209h438l-45 -186h-543l-131 -164h-192l131 164h-187l45 186h291l168 209h-411l45 186h516l137 170h192l-137 -170h213l-45 -186h-317z" />
    <glyph glyph-name="lessequal" unicode="&#x2264;" horiz-adv-x="874" 
d="M39 362h725l-43 -186h-725zM352 756l459 -144l-45 -202l-666 262l47 202l789 261l-55 -230z" />
    <glyph glyph-name="greaterequal" unicode="&#x2265;" horiz-adv-x="876" 
d="M735 176h-725l43 186h725zM643 788l-461 146l49 205l668 -262l-47 -203l-786 -262l47 227z" />
    <glyph glyph-name="K.ss03" horiz-adv-x="1415" 
d="M883 786l391 -786h-250l-311 631l-391 -359l-64 -272h-221l317 1372h219l-174 -758l850 758h273z" />
    <glyph glyph-name="Kcommaaccent.ss03" horiz-adv-x="1415" 
d="M483 -92h234l-240 -299h-162zM883 786l391 -786h-250l-311 631l-391 -359l-64 -272h-221l317 1372h219l-174 -758l850 758h273z" />
    <glyph glyph-name="Q.ss04" horiz-adv-x="1626" 
d="M931 1196q-210 0 -373 -146t-195 -364q-31 -217 91 -362q122 -146 330 -146t370 144q163 144 195 361t-88 365t-330 148zM768 -31q-309 0 -488 207q-178 207 -136 508t276 510t535 209q299 0 479 -210t137 -509q-27 -184 -117 -332t-229 -243l366 -457h-303l-276 354
q-117 -37 -244 -37z" />
    <glyph glyph-name="I.ss05" horiz-adv-x="917" 
d="M723 1174l-225 -975h303l-45 -199h-826l45 199h304l225 975h-303l45 198h825l-45 -198h-303z" />
    <glyph glyph-name="IJ.ss05" horiz-adv-x="2134" 
d="M1410 170q130 0 227 89t132 233l160 682h-545l46 198h768l-207 -880q-57 -246 -215 -383t-373 -137t-340 121q-125 122 -127 325l209 43q-1 -131 67 -211t198 -80zM498 199h303l-45 -199h-826l45 199h304l225 975h-303l45 198h825l-45 -198h-303z" />
    <glyph glyph-name="Iacute.ss05" horiz-adv-x="917" 
d="M1071 1372l-45 -198h-303l-225 -975h303l-45 -199h-826l45 199h304l225 975h-303l45 198h825zM799 1518h-197l217 290h266z" />
    <glyph glyph-name="Icircumflex.ss05" horiz-adv-x="917" 
d="M723 1174l-225 -975h303l-45 -199h-826l45 199h304l225 975h-303l45 198h825l-45 -198h-303zM616 1501h-225l305 297h203l168 -297h-203l-86 158z" />
    <glyph glyph-name="Idieresis.ss05" horiz-adv-x="917" 
d="M723 1174l-225 -975h303l-45 -199h-826l45 199h304l225 975h-303l45 198h825l-45 -198h-303zM935 1524q-58 0 -96 37t-38 92t38 95t95 40t96 -40t39 -95t-38 -92t-96 -37zM511 1524q-58 0 -96 37t-38 92t38 95t95 40t96 -40t39 -95t-38 -92t-96 -37z" />
    <glyph glyph-name="Idotaccent.ss05" horiz-adv-x="917" 
d="M723 1174l-225 -975h303l-45 -199h-826l45 199h304l225 975h-303l45 198h825l-45 -198h-303zM723 1540q-57 0 -94 37t-37 91t38 92t93 38t94 -38t39 -92t-38 -91t-95 -37z" />
    <glyph glyph-name="Igrave.ss05" horiz-adv-x="917" 
d="M723 1174l-225 -975h303l-45 -199h-826l45 199h304l225 975h-303l45 198h825l-45 -198h-303zM598 1518l-287 290h267l217 -290h-197z" />
    <glyph glyph-name="Imacron.ss05" horiz-adv-x="917" 
d="M723 1174l-225 -975h303l-45 -199h-826l45 199h304l225 975h-303l45 198h825l-45 -198h-303zM1006 1540h-617l39 174h616z" />
    <glyph glyph-name="Iogonek.ss05" horiz-adv-x="917" 
d="M266 -215q0 -57 66 -57q27 0 98 22l-29 -135q-67 -35 -141 -35t-120 41t-46 111q0 127 207 268h-371l45 199h304l225 975h-303l45 198h825l-45 -198h-303l-225 -975h303l-45 -199h-303q-59 -51 -73 -65q-16 -13 -34 -28t-25 -23t-19 -21q-36 -38 -36 -78z" />
    <glyph glyph-name="J.ss05" horiz-adv-x="1216" 
d="M492 170q130 0 228 89q97 89 132 233l160 682h-545l45 198h768l-207 -880q-57 -246 -215 -383t-373 -137t-340 121q-125 122 -127 325l209 43q-2 -131 67 -211q68 -80 198 -80z" />
    <glyph glyph-name="i.loclTRK" horiz-adv-x="587" 
d="M283 0h-213l235 1016h213zM477 1442q55 0 94 -38t39 -92t-38 -91t-95 -37t-94 37t-37 91t38 92t93 38z" />
    <glyph glyph-name="germandbls.case" horiz-adv-x="2525" 
d="M2025.5 1401q227.5 0 358.5 -104.5t147 -286.5l-221 -47q-4 113 -85 182t-209 69t-211 -65.5t-83 -161.5q0 -55 34 -90t114 -63l219 -72q303 -98 303 -342q0 -203 -152.5 -326t-389 -123t-391 106.5t-167.5 307.5l234 47q8 -131 96 -200.5t235.5 -69.5t231.5 64.5
t84 168.5q0 59 -37 97t-127 69l-217 70q-139 47 -219 118.5t-80 208.5q0 195 152.5 319t380 124zM782.5 1401q227.5 0 358.5 -104.5t147 -286.5l-221 -47q-4 113 -85 182t-209 69t-211 -65.5t-83 -161.5q0 -55 34 -90t114 -63l219 -72q303 -98 303 -342q0 -203 -152.5 -326
t-389 -123t-391.5 106.5t-167 307.5l234 47q8 -131 96 -200.5t235.5 -69.5t231.5 64.5t84 168.5q0 59 -37 97t-127 69l-217 70q-139 47 -219 118.5t-80 208.5q0 195 152.5 319t380 124z" />
    <glyph glyph-name="a.ss01" horiz-adv-x="1138" 
d="M233 282q1 -138 209 -139q106 0 210 72q105 72 134 174l15 55h-332q-106 0 -171 -48t-65 -114zM670 1044q211 0 316 -112t58 -311l-143 -621h-203l25 111q-154 -139 -369 -140q-154 0 -242 73t-89 200q0 156 132 260t361 104h322l8 37q22 97 -30 157t-158 60t-186 -48
q-81 -48 -118 -132l-190 51q59 139 198 225q140 86 308 86z" />
    <glyph glyph-name="aacute.ss01" horiz-adv-x="1138" 
d="M233 282q1 -138 209 -139q106 0 210 72q105 72 134 174l15 55h-332q-106 0 -171 -48t-65 -114zM670 1044q211 0 316 -112t58 -311l-143 -621h-203l25 111q-154 -139 -369 -140q-154 0 -242 73t-89 200q0 156 132 260t361 104h322l8 37q22 97 -30 157t-158 60t-186 -48
q-81 -48 -118 -132l-190 51q59 139 198 225q140 86 308 86zM864 1161h-196l217 291h266z" />
    <glyph glyph-name="abreve.ss01" horiz-adv-x="1138" 
d="M233 282q1 -138 209 -139q106 0 210 72q105 72 134 174l15 55h-332q-106 0 -171 -48t-65 -114zM670 1044q211 0 316 -112t58 -311l-143 -621h-203l25 111q-154 -139 -369 -140q-154 0 -242 73t-89 200q0 156 132 260t361 104h322l8 37q22 97 -30 157t-158 60t-186 -48
q-81 -48 -118 -132l-190 51q59 139 198 225q140 86 308 86zM753 1128q-146 0 -216 79t-39 212h166q-14 -63 18 -103t93 -40q60 0 109 40q48 40 62 103h191q-31 -133 -135 -212t-249 -79z" />
    <glyph glyph-name="acircumflex.ss01" horiz-adv-x="1138" 
d="M233 282q1 -138 209 -139q106 0 210 72q105 72 134 174l15 55h-332q-106 0 -171 -48t-65 -114zM670 1044q211 0 316 -112t58 -311l-143 -621h-203l25 111q-154 -139 -369 -140q-154 0 -242 73t-89 200q0 156 132 260t361 104h322l8 37q22 97 -30 157t-158 60t-186 -48
q-81 -48 -118 -132l-190 51q59 139 198 225q140 86 308 86zM682 1145h-225l305 297h203l168 -297h-203l-86 158z" />
    <glyph glyph-name="adieresis.ss01" horiz-adv-x="1138" 
d="M233 282q1 -138 209 -139q106 0 210 72q105 72 134 174l15 55h-332q-106 0 -171 -48t-65 -114zM670 1044q211 0 316 -112t58 -311l-143 -621h-203l25 111q-154 -139 -369 -140q-154 0 -242 73t-89 200q0 156 132 260t361 104h322l8 37q22 97 -30 157t-158 60t-186 -48
q-81 -48 -118 -132l-190 51q59 139 198 225q140 86 308 86zM999 1432q57 0 97 -40t39 -96q0 -56 -38 -92q-39 -37 -97 -37t-96 37t-38 92q0 56 38 96t95 40zM575 1432q57 0 97 -40t39 -96t-39 -92q-38 -37 -96 -37t-96 37t-38 92q0 56 38 96t95 40z" />
    <glyph glyph-name="agrave.ss01" horiz-adv-x="1138" 
d="M233 282q1 -138 209 -139q106 0 210 72q105 72 134 174l15 55h-332q-106 0 -171 -48t-65 -114zM670 1044q211 0 316 -112t58 -311l-143 -621h-203l25 111q-154 -139 -369 -140q-154 0 -242 73t-89 200q0 156 132 260t361 104h322l8 37q22 97 -30 157t-158 60t-186 -48
q-81 -48 -118 -132l-190 51q59 139 198 225q140 86 308 86zM664 1161l-287 291h266l217 -291h-196z" />
    <glyph glyph-name="amacron.ss01" horiz-adv-x="1138" 
d="M233 282q1 -138 209 -139q106 0 210 72q105 72 134 174l15 55h-332q-106 0 -171 -48t-65 -114zM670 1044q211 0 316 -112t58 -311l-143 -621h-203l25 111q-154 -139 -369 -140q-154 0 -242 73t-89 200q0 156 132 260t361 104h322l8 37q22 97 -30 157t-158 60t-186 -48
q-81 -48 -118 -132l-190 51q59 139 198 225q140 86 308 86zM1110 1358l-39 -174h-616l39 174h616z" />
    <glyph glyph-name="aogonek.ss01" horiz-adv-x="1138" 
d="M233 282q1 -138 209 -139q106 0 210 72q105 72 134 174l15 55h-332q-106 0 -171 -48t-65 -114zM670 1044q211 0 316 -112t58 -311l-143 -621q-59 -51 -73 -65q-15 -13 -33 -28q-17 -15 -25 -23t-19 -21q-36 -39 -36 -78q0 -57 65 -57q27 0 99 22l-29 -135
q-68 -35 -142 -35t-119 41q-46 41 -46 111q0 127 207 268h-52l25 111q-154 -139 -369 -140q-154 0 -242 73t-89 200q0 156 132 260t361 104h322l8 37q22 97 -30 157t-158 60t-186 -48q-81 -48 -118 -132l-190 51q59 139 198 225q140 86 308 86z" />
    <glyph glyph-name="aring.ss01" horiz-adv-x="1138" 
d="M233 282q1 -138 209 -139q106 0 210 72q105 72 134 174l15 55h-332q-106 0 -171 -48t-65 -114zM670 1044q211 0 316 -112t58 -311l-143 -621h-203l25 111q-154 -139 -369 -140q-154 0 -242 73t-89 200q0 156 132 260t361 104h322l8 37q22 97 -30 157t-158 60t-186 -48
q-81 -48 -118 -132l-190 51q59 139 198 225q140 86 308 86zM893 1347q1 41 -25 65t-68 24t-72 -30t-30 -71t24 -67t66 -25q42 0 73 32q32 32 32 72zM780 1120q-96 0 -155 60t-59 150q0 91 72 161q73 70 169 70q95 1 155 -59t60 -152t-73 -161t-169 -69z" />
    <glyph glyph-name="atilde.ss01" horiz-adv-x="1138" 
d="M233 282q1 -138 209 -139q106 0 210 72q105 72 134 174l15 55h-332q-106 0 -171 -48t-65 -114zM670 1044q211 0 316 -112t58 -311l-143 -621h-203l25 111q-154 -139 -369 -140q-154 0 -242 73t-89 200q0 156 132 260t361 104h322l8 37q22 97 -30 157t-158 60t-186 -48
q-81 -48 -118 -132l-190 51q59 139 198 225q140 86 308 86zM911 1202q-76 0 -135 43t-95 43q-71 0 -89 -82h-146q29 126 102 182q74 56 148 56t133 -44t95 -44q69 0 92 88h145q-31 -129 -102 -186q-72 -56 -148 -56z" />
    <glyph glyph-name="l.ss02" horiz-adv-x="655" 
d="M383 172q53 0 133 33l31 -187q-100 -47 -223 -47t-197 91.5t-39 244.5l270 1168h215l-274 -1184q-31 -119 84 -119z" />
    <glyph glyph-name="lacute.ss02" horiz-adv-x="655" 
d="M383 172q53 0 133 33l31 -187q-100 -47 -223 -47t-197 91.5t-39 244.5l270 1168h215l-274 -1184q-31 -119 84 -119zM602 1620h-196l217 291h266z" />
    <glyph glyph-name="lcaron.ss02" horiz-adv-x="655" 
d="M770 1094h-168l88 381h215zM383 172q53 0 133 33l31 -187q-100 -47 -223 -47t-197 91.5t-39 244.5l270 1168h215l-274 -1184q-31 -119 84 -119z" />
    <glyph glyph-name="lcommaaccent.ss02" horiz-adv-x="655" 
d="M-37 -391l170 299h234l-240 -299h-164zM383 172q53 0 133 33l31 -187q-100 -47 -223 -47t-197 91.5t-39 244.5l270 1168h215l-274 -1184q-31 -119 84 -119z" />
    <glyph glyph-name="ldot.ss02" horiz-adv-x="782" 
d="M731 836q55 0 94 -38t39 -92t-38 -91t-95 -37t-94 36.5t-37 91t38 92.5t93 38zM397 172q51 0 135 33l29 -187q-100 -47 -223 -47t-196.5 91.5t-39.5 244.5l273 1168h213l-275 -1184q-31 -119 84 -119z" />
    <glyph glyph-name="lslash.ss02" horiz-adv-x="733" 
d="M459 172q51 0 135 33l29 -187q-100 -47 -223 -47t-197 91.5t-39 244.5l53 230l-156 -82l50 207l155 81l170 732h213l-139 -605l184 99l-49 -207l-184 -96l-86 -375q-31 -119 84 -119z" />
    <glyph glyph-name="k.ss03" horiz-adv-x="1241" 
d="M780 618l338 -618h-244l-258 477l-309 -268l-49 -209h-213l340 1475h215l-221 -955l584 496h278z" />
    <glyph glyph-name="kcommaaccent.ss03" horiz-adv-x="1241" 
d="M420 -92h233l-239 -299h-162zM780 618l338 -618h-244l-258 477l-309 -268l-49 -209h-213l340 1475h215l-221 -955l584 496h278z" />
    <glyph glyph-name="f_j" horiz-adv-x="1355" 
d="M1256 1454q58 0 98 -39t39 -95q0 -56 -38 -93q-37 -37 -97 -37t-98 37t-38 93t38 95t96 39zM712 -389q-112 0 -190 37l82 186q104 -49 180 6q39 29 50 74l210 926h-546l-195 -840h-213l195 840h-166l41 176h164l28 121q39 170 165 269t298 99q98 0 176 -43l-88 -172
q-55 25 -127 25t-131 -47t-80 -131l-28 -121h763l-260 -1131q-28 -123 -122 -199t-206 -75z" />
    <glyph glyph-name="f_t" horiz-adv-x="1579" 
d="M1208 172q92 0 193 55l16 -186q-129 -70 -256 -70q-163 -1 -237 95t-33 280l115 494h-508l-195 -840h-215l195 840h-164l41 176h164l28 121q39 170 165 269t298 99q98 0 176 -43l-88 -172q-55 25 -127 25t-131 -47t-80 -131l-28 -121h507l74 315h213l-71 -315h348
l-41 -176h-348l-111 -480q-45 -188 100 -188z" />
    <glyph glyph-name="fl.ss02" horiz-adv-x="1400" 
d="M1126 172q51 0 136 33l28 -187q-100 -47 -223 -47t-197 91t-39 245l273 1168h213l-275 -1184q-31 -119 84 -119zM795 1505q102 0 166 -37l-43 -170q-183 44 -274 -31q-58 -48 -79 -130l-28 -121h340l-41 -176h-338l-195 -840h-213l195 840h-166l41 176h164l28 121
q41 176 158 272t285 96z" />
    <glyph glyph-name="zero.tf" 
d="M572 174q155 0 276 142t161 372t-28 370q-69 140 -223 140t-275 -142t-161 -370t28 -370q67 -142 222 -142zM784 1401q254 0 378 -198t69 -517t-243 -517t-442 -198q-253 0 -377 198t-69 517q54 319 242 517t442 198z" />
    <glyph glyph-name="one.tf" 
d="M1053 199l-45 -199h-965l45 199h395l209 897l-393 -201l53 231l482 246h135l-271 -1173h355z" />
    <glyph glyph-name="two.tf" 
d="M737 1210q-111 0 -185 -74t-95 -214l-205 41q27 201 165 319t336 119q199 0 313 -108t114 -271q0 -164 -87 -286t-290 -279l-330 -258h576l-50 -199h-942l43 141l580 459q80 61 110 86q183 152 183 293q-1 111 -63 171t-173 60z" />
    <glyph glyph-name="three.tf" 
d="M1200 1042q0 -127 -73 -222t-195 -138q150 -90 150 -271t-146 -311t-370 -129q-224 0 -355 121t-123 320l197 43q-1 -133 71 -213t206 -80t220 76t86 174t-63 149t-170 51h-186l51 176h176q137 0 231 62t94 160q0 100 -63 153t-174 53t-192 -67q-81 -68 -105 -203
l-197 37q35 193 172 305q136 112 332 113q196 -1 311 -99t115 -260z" />
    <glyph glyph-name="four.tf" 
d="M768 483l152 660l-625 -660h473zM983 483h176l-41 -180h-176l-70 -303h-215l70 303h-698l47 205l825 864h287z" />
    <glyph glyph-name="five.tf" 
d="M641 854q201 0 321 -98t120 -295t-150 -343t-384 -146t-371 131q-136 132 -128 348l205 38q-2 -153 77 -241t220 -88t227 83t86 194t-72 170q-73 58 -194 59h-430l199 706h868l-47 -198h-670l-92 -320h215z" />
    <glyph glyph-name="six.tf" 
d="M660 707q-114 -1 -207 -89t-93 -202t73 -180q73 -68 189 -68t204 87q89 87 89 203t-70 182q-71 67 -185 67zM717 889q188 0 305 -115q117 -116 117 -312t-154 -343t-382 -147t-361 149q-133 150 -133 397q0 385 207 634q208 249 511 249q170 0 290 -82t143 -232l-205 -40
q-12 77 -77 119t-161 42q-182 0 -317 -141t-166 -344q66 78 167 122t216 44z" />
    <glyph glyph-name="seven.tf" 
d="M1364 1372l-35 -155l-878 -1217h-265l856 1174h-772l47 198h1047z" />
    <glyph glyph-name="eight.tf" 
d="M319 374q0 -102 74 -160q74 -56 193 -56q120 0 202 62t82 164t-71 160q-72 56 -193 56t-204 -62t-83 -164zM479 1009q-1 -97 67 -151t183 -53q115 0 192 59q77 60 77 156t-70 149t-182 53t-189 -58q-78 -58 -78 -155zM1214 1058q0 -148 -82 -244q-82 -97 -235 -134
q103 -45 157 -125t54 -178q0 -176 -148 -291t-380 -115q-230 -1 -366 105t-136 272q0 132 99 234t274 133q-188 92 -189 301q0 172 138 278t354 106t338 -96q122 -98 122 -246z" />
    <glyph glyph-name="nine.tf" 
d="M666 664q114 0 207 88t93 202t-72 181t-188 67t-206 -87t-90 -201t71 -183q71 -67 185 -67zM188 891q0 215 153 361t382 147q229 0 362 -151t134 -396q0 -385 -208 -634t-511 -249q-170 0 -291 83t-143 231l204 41q14 -78 79 -119t161 -41q182 0 317 141t164 344
q-137 -166 -381 -166q-188 0 -305 114t-117 294z" />
    <glyph glyph-name="zero.zero.tf" 
d="M573 174q154 0 275 142t160 370q20 119 14 203l-670 -576q67 -139 221 -139zM750 1198q-146 0 -267 -142t-159 -370q-18 -88 -15 -174l660 569q-73 117 -219 117zM784 1401q254 0 378 -198t69 -517t-243 -517t-442 -198q-253 0 -377 198t-69 517q54 319 242 517t442 198z
" />
    <glyph glyph-name="zero.zero" horiz-adv-x="1357" 
d="M636 174q154 0 278 142q122 142 165 370q20 106 15 203l-686 -592q74 -123 228 -123zM810 1198q-154 0 -278 -141q-122 -142 -165 -371q-20 -104 -15 -199l686 590q-74 121 -228 121zM824 1401q260 0 398 -200q138 -201 79 -521t-239 -514t-440 -195q-259 0 -398 200
q-138 201 -79 521t239 514t440 195z" />
    <glyph glyph-name="zero.dnom" horiz-adv-x="819" 
d="M332 119q74 -1 130 67t76 190t-14 190t-110 67q-76 0 -130 -69q-54 -70 -74 -188t14 -188q34 -69 108 -69zM439 776q151 0 225 -108t46 -290q-28 -181 -137 -290q-109 -108 -259 -108t-224 108t-45 290t136 290t258 108z" />
    <glyph glyph-name="one.dnom" horiz-adv-x="503" 
d="M254 0h-158l131 569l-200 -94l36 162l265 131h102z" />
    <glyph glyph-name="two.dnom" horiz-adv-x="710" 
d="M483 551q0 47 -30 75q-31 28 -89 28t-100 -44q-41 -43 -49 -116l-139 22q6 121 93 195q87 73 207 73t186 -63t65 -155t-53 -156q-52 -63 -179 -160l-149 -113h307l-27 -137h-571l27 104l329 242q92 70 132 114t40 91z" />
    <glyph glyph-name="three.dnom" horiz-adv-x="720" 
d="M399 784q121 0 191 -59t65 -154q-2 -139 -151 -190q90 -45 86 -155t-93 -182t-223 -73q-134 0 -210 72t-72 188l137 29q-2 -74 41 -117t114 -43q72 0 116 36t44 91q0 102 -127 103h-86l29 112h82q70 0 119 30t50 81t-31 80t-93 29t-108 -46t-60 -116l-131 28
q16 112 103 184t208 72z" />
    <glyph glyph-name="four.dnom" horiz-adv-x="796" 
d="M428 285l72 315l-342 -315h270zM666 156h-121l-35 -158h-148l37 158h-430l33 143l500 467h182l-109 -481h117z" />
    <glyph glyph-name="five.dnom" horiz-adv-x="714" 
d="M354 483q108 0 176 -60t68 -174t-90 -192q-90 -77 -224 -77t-214 66t-84 161l151 26q8 -55 47 -88t106 -33q68 0 112 39q44 38 44 93t-32 83q-33 28 -88 27h-271l103 408h518l-29 -139h-383l-33 -140h123z" />
    <glyph glyph-name="six.dnom" horiz-adv-x="739" 
d="M320 104q62 0 108 46q45 46 45 103q0 58 -36 95q-37 37 -99 37t-108 -46q-46 -47 -46 -105t37 -94t99 -36zM378 496q112 0 178 -64t65 -178q1 -115 -89 -196t-225 -81q-135 -1 -211 87t-76 266t111 311t281 133q106 0 182 -53t84 -152l-154 -24q-8 100 -121 100
q-80 0 -137 -60t-78 -151q78 62 190 62z" />
    <glyph glyph-name="seven.dnom" horiz-adv-x="604" 
d="M643 766l-27 -121l-446 -647h-178l440 629h-383l33 139h561z" />
    <glyph glyph-name="eight.dnom" horiz-adv-x="718" 
d="M154 194q0 -54 36 -80q36 -28 97 -28t104 32t43 85t-37 82t-98 29t-103 -34q-42 -32 -42 -86zM368 446q58 0 97 31t39 81t-35 77t-92 27t-94 -29t-39 -80t32 -79t92 -28zM590 204q0 -108 -86 -174q-86 -65 -219 -65q-133 1 -212 61t-77 144t55 141t144 78q-97 55 -97 159
t80 166q80 60 204 60t196 -55q71 -56 70 -139q-2 -168 -167 -213q109 -55 109 -163z" />
    <glyph glyph-name="nine.dnom" horiz-adv-x="741" 
d="M356 649q-62 0 -108 -45t-45 -104q0 -59 36 -95q35 -36 99 -36t110 46t46 104t-38 94t-100 36zM371 774q135 0 210 -86t74 -244q-1 -198 -111 -332t-278 -135q-106 1 -182 55t-86 152l156 23q8 -100 118 -101q82 0 140 60t77 151q-77 -61 -189 -61t-178 65t-65 179
q0 114 89 194q90 80 225 80z" />
    <glyph glyph-name="zero.numr" horiz-adv-x="819" 
d="M475 735q74 0 130 68q55 67 75 189t-12 190q-33 68 -110 68t-131 -70q-53 -68 -73 -187t14 -189t107 -69zM583 1393q151 0 225 -109t45 -290q-29 -182 -137 -290t-258 -108t-224 109q-75 109 -46 289q28 180 136 290q108 109 259 109z" />
    <glyph glyph-name="one.numr" horiz-adv-x="503" 
d="M393 604h-157l131 570l-201 -95l37 162l264 131h102z" />
    <glyph glyph-name="two.numr" horiz-adv-x="710" 
d="M625 1158q0 46 -31 75q-32 29 -90 29t-98 -43t-50 -117l-139 22q6 121 93 195t207 74q119 1 185 -63t66 -156t-52 -156q-52 -63 -179 -160l-150 -113h307l-26 -137h-572l27 105l330 241q92 70 132 114t40 90z" />
    <glyph glyph-name="three.numr" horiz-adv-x="720" 
d="M543 1403q121 1 191 -59t65 -154q-2 -139 -152 -191q90 -45 86 -155t-93 -180q-89 -72 -222 -72t-210 71t-73 187l137 29q-2 -74 41 -117t114 -43t116 36t45 91q0 102 -127 102h-86l28 113h82q70 0 119 30t50 81q2 52 -30 80t-94 28t-108 -45q-47 -45 -60 -117l-131 29
q15 113 103 185t209 71z" />
    <glyph glyph-name="four.numr" horiz-adv-x="796" 
d="M567 891l72 315l-342 -315h270zM805 762h-121l-35 -156h-147l35 156h-428l32 143l500 467h182l-108 -481h116z" />
    <glyph glyph-name="five.numr" horiz-adv-x="714" 
d="M496 1094q108 0 176 -60t68 -175q0 -113 -91 -191q-90 -78 -224 -78t-213 66t-85 161l152 27q8 -55 47 -88q40 -33 106 -33t111 38t45 93t-33 83t-88 28h-270l102 407h518l-29 -139h-382l-33 -139h123z" />
    <glyph glyph-name="six.numr" horiz-adv-x="739" 
d="M464 723q62 0 108 45q44 46 44 104t-35 95q-36 37 -99 37q-62 0 -108 -46t-46 -105q0 -58 37 -94t99 -36zM521 1114q111 0 177 -63t66 -178t-89 -195t-224 -80t-211 86t-76 264t110 312q111 133 281 133q106 1 182 -53t84 -152l-153 -25q-8 100 -121 101q-80 0 -137 -60
t-78 -151q77 61 189 61z" />
    <glyph glyph-name="seven.numr" horiz-adv-x="604" 
d="M782 1372l-26 -121l-447 -645h-178l440 627h-383l33 139h561z" />
    <glyph glyph-name="eight.numr" horiz-adv-x="718" 
d="M291 813q0 -53 36 -81t97 -27q61 -1 104 31t43 85t-36 82q-37 29 -99 29t-103 -33q-42 -33 -42 -86zM505 1065q58 0 97 31t39 81q0 51 -35 77t-92 26t-94 -29t-39 -80t32 -79t92 -27zM727 822q0 -108 -86 -174q-86 -64 -219 -64t-212 60t-77 144t55 142q53 57 144 78
q-96 56 -96 160t79 164q80 60 204 60q123 0 195 -54q72 -56 71 -139q-2 -167 -167 -214q109 -55 109 -163z" />
    <glyph glyph-name="nine.numr" horiz-adv-x="741" 
d="M482 987q64 0 109 46q46 47 46 105t-38 94q-37 36 -99 36t-108 -45t-46 -105t36 -95q36 -36 100 -36zM514 1393q135 0 210 -86q75 -87 75 -265t-110 -311t-279 -133q-106 0 -183 53q-76 53 -86 152l156 22q8 -100 119 -100q82 0 139 60t78 151q-78 -62 -190 -62
q-111 0 -177 65t-66 179t90 195q89 80 224 80z" />
    <glyph glyph-name="backslash.case" horiz-adv-x="811" 
d="M639 0h-211l-174 1372h211z" />
    <glyph glyph-name="periodcentered.case" horiz-adv-x="460" 
d="M266 797q57 0 96 -38t39 -92q0 -53 -39 -91t-96 -38t-95 38q-38 36 -38 90t38 93q38 38 95 38z" />
    <glyph glyph-name="bullet.case" horiz-adv-x="856" 
d="M467 991q139 0 233 -94t94 -226t-92 -222q-94 -91 -235 -91t-235 90t-93 223q0 132 94 226q95 94 234 94z" />
    <glyph glyph-name="colon.case" horiz-adv-x="462" 
d="M188 453q56 0 96 -39t40 -93q0 -53 -39 -91t-97 -38t-95 38q-38 36 -38 90t38 94q38 39 95 39zM344 1122q57 0 95 -38t38 -92t-38 -91t-95 -37t-96 37t-39 91t39 92t96 38z" />
    <glyph glyph-name="exclamdown.case" horiz-adv-x="577" 
d="M63 0l226 944h219l-211 -944h-234zM461 1120q-57 0 -95 39t-38 93t38 91t95 37t96 -38t39 -91t-39 -92t-96 -39z" />
    <glyph glyph-name="questiondown.case" horiz-adv-x="1079" 
d="M477 -23q-201 -1 -323 105t-123 285q0 179 146 303t358 137l32 133h197l-72 -299h-121q-119 0 -225 -73t-106 -179t66 -164q68 -57 182 -57t201 78t110 200l200 -38q-27 -184 -174 -308t-348 -123zM725 1126q-57 0 -95 38t-38 92t38 92t95 36q57 0 96 -36t39 -92
q0 -54 -39 -92t-96 -38z" />
    <glyph glyph-name="semicolon.case" horiz-adv-x="520" 
d="M39 -270h-172l256 544h256l-2 -6zM369 1122q57 0 96 -38t39 -92t-39 -91t-96 -37t-96 37q-37 37 -37 91t37 92q39 38 96 38z" />
    <glyph glyph-name="slash.case" horiz-adv-x="907" 
d="M131 0h-192l835 1372h193z" />
    <glyph glyph-name="braceleft.case" horiz-adv-x="876" 
d="M743 1192q-43 0 -77 -29t-43 -73l-43 -183q-39 -174 -189 -225q125 -59 86 -223l-41 -176q-10 -45 10 -74t64 -29h192l-40 -180h-220q-125 0 -184 72t-33 190l39 172q27 119 -123 154l-51 16l37 160l59 16q166 31 195 152l41 178q27 118 120 190t218 72h219l-43 -180
h-193z" />
    <glyph glyph-name="braceright.case" horiz-adv-x="937" 
d="M201 0h-219l43 180h192q43 0 76 28t43 75l43 182q41 174 192 225q-127 59 -88 225l39 175q12 46 -10 74t-63 28h-193l43 180h219q125 0 183 -72t32 -190l-39 -170q-27 -121 123 -156l53 -14l-39 -162l-57 -14q-168 -35 -194 -154l-41 -178q-27 -118 -120 -190t-218 -72z
" />
    <glyph glyph-name="bracketleft.case" horiz-adv-x="817" 
d="M524 1188l-229 -1004h350l-43 -184h-557l315 1372h558l-44 -184h-350z" />
    <glyph glyph-name="bracketright.case" horiz-adv-x="817" 
d="M854 1372l-315 -1372h-557l43 184h350l229 1004h-350l43 184h557z" />
    <glyph glyph-name="parenleft.case" horiz-adv-x="720" 
d="M604 1401l144 -146q-172 -127 -262 -263t-117 -308q-51 -319 178 -586l-170 -129q-305 305 -237 721t464 711z" />
    <glyph glyph-name="parenright.case" horiz-adv-x="722" 
d="M256 1272l172 129q303 -301 238 -715t-465 -717l-146 146q174 127 263 264t116 306t-15 309t-163 278z" />
    <glyph glyph-name="emdash.case" horiz-adv-x="2129" 
d="M2030 596h-1885l37 164h1884z" />
    <glyph glyph-name="endash.case" horiz-adv-x="1269" 
d="M1167 596h-1024l37 164h1024z" />
    <glyph glyph-name="hyphen.case" horiz-adv-x="915" 
d="M807 586h-666l43 186h666z" />
    <glyph glyph-name="guillemotleft.case" horiz-adv-x="907" 
d="M471 659l324 365h213l-338 -375l153 -354h-196zM117 659l323 365h213l-338 -375l154 -354h-197z" />
    <glyph glyph-name="guillemotright.case" horiz-adv-x="907" 
d="M866 659l-323 -364h-215l338 375l-154 354h199zM514 659l-324 -364h-215l338 375l-153 354h198z" />
    <glyph glyph-name="guilsinglleft.case" horiz-adv-x="555" 
d="M88 659l324 365h213l-338 -375l153 -354h-196z" />
    <glyph glyph-name="guilsinglright.case" horiz-adv-x="555" 
d="M541 659l-324 -364h-213l338 375l-156 354h199z" />
    <glyph glyph-name="cent.tf" 
d="M399 724q-84 -89 -102 -210t24 -204t128 -120l151 650q-117 -27 -201 -116zM764 838l-154 -668q195 20 279 201l203 -37q-66 -160 -207 -259t-310 -104l-57 -237h-180l59 260q-166 47 -253 185t-54 341t191 349t360 171l57 250h181l-60 -258q133 -29 222 -120t108 -224
l-219 -43q-12 152 -166 193z" />
    <glyph glyph-name="dollar.tf" 
d="M700 578l-84 -355q121 3 187 57t65 138q0 53 -32 87q-33 34 -115 64zM469 976q0 -58 28 -88t97 -57l76 322q-90 -14 -146 -66q-56 -53 -55 -111zM1073 436q0 -174 -137 -284t-356 -113l-58 -244h-180l61 260q-141 33 -231 123t-102 236l217 43q18 -164 170 -213l90 387
q-222 82 -271 190q-23 51 -22 119q0 162 126 270t322 125l58 242h180l-59 -250q143 -27 225 -117t98 -229l-207 -45q-12 162 -163 207l-89 -369l41 -14q143 -55 215 -128t72 -196z" />
    <glyph glyph-name="Euro.tf" 
d="M641 178q209 0 348 301l213 -41q-84 -213 -243 -340t-353 -127t-312 128q-120 128 -134 358h-131l34 157h99q2 66 16 138h-82l35 155h86q78 233 243 363t370 131q206 0 322 -129t132 -348l-225 -37q-12 149 -80 229q-67 80 -179 80t-205 -75t-149 -214h457l-61 -155h-441
q-8 -47 -16 -138h399l-59 -157h-338q16 -135 83 -207t171 -72z" />
    <glyph glyph-name="florin.tf" 
d="M1161 1399q162 0 250 -74l-113 -172q-61 57 -152 57q-184 0 -263 -196l-103 -248h342l-39 -176h-376l-252 -610q-131 -317 -426 -318q-121 0 -193 53l111 172q49 -25 108 -25t111 35q51 34 72 83l251 610h-229l39 176h264l115 278q72 172 196 264q125 91 287 91z" />
    <glyph glyph-name="sterling.tf" 
d="M879 1206q-119 0 -209 -79t-119 -197l-47 -209h414l-46 -199h-415l-74 -323h733l-45 -199h-1128l30 135l185 43l80 344h-175l46 199h174l49 209q49 213 202 342q152 129 362 129t316 -130t70 -339l-201 -25q23 135 -30 217t-172 82z" />
    <glyph glyph-name="yen.tf" 
d="M850 668h266l-39 -164h-346l-29 -129h347l-39 -164h-344l-50 -211h-219l49 211h-335l36 164h336l29 129h-336l39 164h254l-240 704h232l201 -647l497 647h264z" />
    <glyph glyph-name="approxequal.tf" 
d="M856 375q-114 0 -240 51t-225 51q-162 0 -250 -63l41 178q94 63 223 63t259 -50t246 -50t194 43l-41 -180q-93 -43 -207 -43zM930 688q-116 0 -242 50t-223 50q-164 0 -252 -63l41 178q94 63 223 63t260 -50t244 -50t197 43l-43 -180q-89 -41 -205 -41z" />
    <glyph glyph-name="divide.tf" 
d="M551 393q57 0 96 -39t39 -93t-39 -91t-96 -37t-95 37t-38 91t38 93t95 39zM1096 530h-922l45 189h922zM719 1118q57 0 96 -39t39 -92t-39 -91t-96 -38t-95 37t-38 91t38 93t95 39z" />
    <glyph glyph-name="equal.tf" 
d="M1049 365h-922l45 186h922zM1141 760h-922l43 186h922z" />
    <glyph glyph-name="greater.tf" 
d="M815 674l-467 192l51 215l693 -311l-52 -221l-835 -307l53 235z" />
    <glyph glyph-name="greaterequal.tf" 
d="M924 176h-725l45 186h725zM831 788l-458 146l49 205l665 -262l-45 -203l-788 -262l49 227z" />
    <glyph glyph-name="less.tf" 
d="M479 649l469 -192l-51 -215l-692 311l51 221l834 307l-52 -233z" />
    <glyph glyph-name="lessequal.tf" 
d="M203 362h725l-43 -186h-725zM516 756l459 -144l-45 -202l-666 262l47 202l789 261l-56 -230z" />
    <glyph glyph-name="minus.tf" 
d="M1092 530h-922l45 189h922z" />
    <glyph glyph-name="multiply.tf" 
d="M774 616l221 -278l-147 -121l-221 281l-363 -289l-104 139l358 287l-219 278l147 119l220 -278l362 290l107 -139z" />
    <glyph glyph-name="notequal.tf" 
d="M823 760l-168 -209h439l-45 -186h-543l-131 -164h-195l131 164h-184l45 186h291l168 209h-412l43 186h518l138 170h192l-137 -170h211l-43 -186h-318z" />
    <glyph glyph-name="plus.tf" 
d="M1092 530h-367l-86 -372h-188l86 372h-367l45 189h365l86 373h188l-86 -373h369z" />
    <glyph glyph-name="plusminus.tf" 
d="M92 186h922l-45 -186h-922zM1169 860l-43 -186h-366l-76 -322h-188l73 322h-364l43 186h364l82 352h191l-82 -352h366z" />
    <glyph glyph-name="bar.case" horiz-adv-x="530" 
d="M231 -84h-206l356 1540h207z" />
    <glyph glyph-name="at.case" horiz-adv-x="1947" 
d="M1237 690q0 106 -62 168t-172 64q-110 0 -207 -90q-98 -90 -98 -217q0 -125 63 -189t173 -64t206 92q97 92 97 236zM1462 340q121 0 198 150t77 311q0 247 -169 401t-435 154q-351 0 -607 -238t-256 -575q0 -262 166 -430t436 -168t512 155l52 -114q-119 -80 -281 -126
t-311 -46q-313 0 -514 198t-201 510q0 266 142 488q143 222 377 348q234 125 505 125q317 -1 521 -187t204 -477q0 -202 -109 -393q-53 -92 -145 -152t-207 -59q-184 0 -215 137q-129 -133 -328 -133q-156 0 -250 96t-96 256q0 217 148 357t352 141q203 0 281 -176l37 160
h141l-135 -592q-14 -53 20 -87t90 -34z" />
    <glyph glyph-name="caron.alt" horiz-adv-x="1228" 
d="M754 950h-168l88 381h215z" />
    </font>
</defs>
</svg>
