<?xml version="1.0" standalone="no"?>
<!DOCTYPE svg PUBLIC "-//W3C//DTD SVG 1.1//EN" "http://www.w3.org/Graphics/SVG/1.1/DTD/svg11.dtd" >
<svg xmlns="http://www.w3.org/2000/svg" xmlns:xlink="http://www.w3.org/1999/xlink" version="1.1">
<metadata></metadata>
<defs>
<font id="cyb_houschka_alt_promedium" horiz-adv-x="1280" >
<font-face units-per-em="2048" ascent="1556" descent="-492" />
<missing-glyph horiz-adv-x="520" />
<glyph unicode="&#xfb01;" horiz-adv-x="960" d="M41 825v80q0 8 6.5 14.5t13.5 6.5h119v137q0 156 66 244q81 104 243 104q157 0 273 -86q6 -5 8.5 -13t-0.5 -14l-37 -75q-4 -9 -14 -10.5t-17 4.5q-88 67 -184 67q-100 0 -145 -63q-43 -57 -43 -172v-123h499q9 0 15 -6.5t6 -14.5v-887q0 -8 -6 -13t-15 -5h-110 q-8 0 -13.5 5.5t-5.5 12.5v789h-370v-789q0 -8 -6 -13t-15 -5h-110q-8 0 -13.5 5.5t-5.5 12.5v789h-119q-8 0 -14 5.5t-6 12.5z" />
<glyph unicode="&#xfb02;" horiz-adv-x="962" d="M41 825v80q0 8 6.5 14.5t13.5 6.5h119v147q0 340 342 340q89 0 174 -20t138 -50q18 -9 18 -28v-1297q0 -8 -5 -13t-13 -5h-111q-9 0 -15 5t-6 13v1196q0 18 -14 29q-67 45 -168 45q-102 0 -146 -62t-44 -177v-123h260q7 0 12.5 -6.5t5.5 -14.5v-80q0 -7 -5 -12.5 t-13 -5.5h-260v-789q0 -8 -6 -13t-15 -5h-110q-8 0 -13.5 5.5t-5.5 12.5v789h-119q-8 0 -14 5.5t-6 12.5z" />
<glyph unicode="&#xfb03;" horiz-adv-x="1507" d="M41 825v80q0 8 6.5 14.5t13.5 6.5h119v125q0 187 76 266q68 74 195 74q154 0 258 -84q18 -11 8 -27l-33 -72q-4 -9 -14 -9.5t-17 5.5q-82 60 -168 60q-74 0 -118 -50q-37 -49 -37 -178v-110h397v137q0 159 66 244q78 104 241 104q159 0 275 -86q6 -5 8.5 -13t-0.5 -14 l-37 -75q-13 -19 -33 -6q-88 67 -182 67q-99 0 -147 -63q-41 -54 -41 -172v-123h499q8 0 14.5 -7t6.5 -14v-887q0 -7 -6.5 -12.5t-14.5 -5.5h-110q-8 0 -13.5 5.5t-5.5 12.5v789h-370v-789q0 -7 -6.5 -12.5t-14.5 -5.5h-111q-7 0 -12.5 5t-5.5 13v789h-397v-789q0 -8 -6 -13 t-15 -5h-110q-8 0 -13.5 5.5t-5.5 12.5v789h-119q-8 0 -14 5.5t-6 12.5z" />
<glyph unicode="&#xfb04;" horiz-adv-x="1509" d="M41 825v80q0 8 6.5 14.5t13.5 6.5h119v125q0 187 76 266q68 74 195 74q154 0 258 -84q18 -11 8 -27l-33 -72q-4 -9 -14 -9.5t-17 5.5q-82 60 -168 60q-74 0 -118 -50q-37 -49 -37 -178v-110h397v147q0 340 342 340q90 0 174.5 -20.5t134.5 -49.5q21 -9 21 -28v-1297 q0 -8 -6 -13t-15 -5h-110q-8 0 -13.5 5.5t-5.5 12.5v1196q0 18 -14 29q-67 45 -168 45q-102 0 -146 -62t-44 -177v-123h258q9 0 14.5 -6.5t5.5 -14.5v-80q0 -18 -20 -18h-258v-789q0 -7 -6.5 -12.5t-14.5 -5.5h-111q-7 0 -12.5 5t-5.5 13v789h-397v-789q0 -8 -6 -13t-15 -5 h-110q-8 0 -13.5 5.5t-5.5 12.5v789h-119q-8 0 -14 5.5t-6 12.5z" />
<glyph horiz-adv-x="0" />
<glyph horiz-adv-x="682" />
<glyph horiz-adv-x="0" />
<glyph horiz-adv-x="0" />
<glyph unicode="&#xd;" horiz-adv-x="520" />
<glyph unicode=" "  horiz-adv-x="520" />
<glyph unicode="&#x09;" horiz-adv-x="520" />
<glyph unicode="&#xa0;" horiz-adv-x="520" />
<glyph unicode="!" horiz-adv-x="440" d="M137 76q0 40 27 67t67 27t67.5 -27t27.5 -67t-27.5 -67t-67.5 -27t-67 27t-27 67zM139 1374q0 8 5 14.5t12 6.5h151q8 0 13 -7t4 -14l-39 -962q0 -8 -6 -14.5t-13 -6.5h-67q-7 0 -13 6.5t-6 14.5z" />
<glyph unicode="&#x22;" horiz-adv-x="544" d="M57 1360q-3 35 25 35h104q28 0 25 -35l-25 -354q-1 -17 -7.5 -24t-20.5 -7h-49q-26 0 -29 31zM334 1360q-3 35 24 35h105q27 0 24 -35l-24 -354q-3 -31 -27 -31h-51q-27 0 -27 31z" />
<glyph unicode="#" horiz-adv-x="1392" d="M0 266v82q0 8 5.5 13.5t12.5 5.5h324l80 372h-303q-7 0 -13 5.5t-6 13.5v82q0 7 5.5 12.5t13.5 5.5h327l82 389q5 21 29 21h74q21 0 18 -31l-82 -379h383l84 389q5 21 29 21h72q25 0 18 -31l-82 -379h301q9 0 15 -5t6 -13v-82q0 -8 -6 -13.5t-15 -5.5h-325l-78 -372h305 q7 0 12.5 -5.5t5.5 -13.5v-82q0 -8 -5 -13t-13 -5h-330l-82 -389q-6 -21 -26 -21h-76q-13 0 -17.5 8t-1.5 19l80 383h-383l-82 -389q-3 -21 -26 -21h-76q-23 0 -16 27l79 383h-299q-8 0 -13 5t-5 13zM465 367h383l78 372h-383z" />
<glyph unicode="$" horiz-adv-x="1146" d="M117 131l47 98q7 18 26 7q44 -28 71 -42.5t78 -37.5t107 -34t117 -11q136 0 215 57q86 68 86 186q0 127 -166 199q-46 19 -174.5 57t-204.5 76q-192 95 -192 285q0 162 113 250q108 90 297 96v137q0 21 20 21h45q8 0 14.5 -6t6.5 -15v-135q203 -6 344 -90q17 -9 8 -27 l-45 -96q-10 -17 -29 -6q-150 88 -321 88q-160 0 -234 -68q-59 -50 -59 -145q0 -68 48 -113t140 -78q32 -12 172.5 -53t212.5 -82q170 -100 170 -282q0 -186 -137 -291q-104 -81 -270 -94v-134q0 -7 -6.5 -12.5t-14.5 -5.5h-45q-20 0 -20 18v132q-230 7 -410 124 q-18 11 -10 27z" />
<glyph unicode="%" horiz-adv-x="1347" d="M37 1108q0 127 90 216t225 89t225.5 -89t90.5 -216t-90.5 -216t-225.5 -89t-225 89t-90 216zM137 1108q0 -87 62 -148t153 -61t153 61t62 148t-62 148t-153 61t-153 -61t-62 -148zM167 7q-3 7 3 18l868 1353q8 17 27 17h102q12 0 15.5 -8t-2.5 -17l-869 -1356 q-8 -14 -26 -14h-103q-12 0 -15 7zM680 285q0 127 90 216t225 89t225.5 -89t90.5 -216t-90.5 -216t-225.5 -89t-225 89t-90 216zM780 285q0 -87 62 -148t153 -61t153 61t62 148t-62 148t-153 61t-153 -61t-62 -148z" />
<glyph unicode="&#x26;" horiz-adv-x="1308" d="M66 379q0 67 23.5 126t67 106.5t95.5 84.5t119 72q-88 169 -88 299q0 150 87.5 234.5t239.5 84.5q144 0 224.5 -78t80.5 -206q0 -41 -11.5 -79t-27 -66.5t-46 -59t-54 -50t-67 -46.5t-68.5 -40.5t-74 -39.5q61 -107 152.5 -217.5t185.5 -192.5q84 124 84 332q0 9 5.5 15 t13.5 6h104q9 0 15 -6t6 -15q0 -251 -109 -412q60 -46 122.5 -74t108.5 -28q21 0 21 -25v-106q0 -7 -7 -12.5t-16 -5.5q-137 0 -329 135q-150 -135 -383 -135q-100 0 -183.5 23t-150 69.5t-104 125t-37.5 181.5zM217 377q0 -138 90 -208.5t246 -70.5q161 0 262 101 q-109 94 -210 213t-173 239q-102 -55 -158.5 -120t-56.5 -154zM432 1063q0 -99 72 -227l51 25.5t49.5 27t52.5 32.5t43 35t39.5 43t22.5 46.5t10 54.5q0 77 -44 121.5t-120 44.5q-79 0 -127.5 -53.5t-48.5 -149.5z" />
<glyph unicode="'" horiz-adv-x="268" d="M57 1360q-3 35 25 35h104q28 0 25 -35l-25 -354q-1 -17 -7.5 -24t-20.5 -7h-49q-26 0 -29 31z" />
<glyph unicode="(" horiz-adv-x="520" d="M76 649q0 266 61 512t178 428q16 25 41 25h99q21 0 26.5 -12t-4.5 -29q-241 -405 -241 -924q0 -513 241 -921q10 -15 4.5 -27t-26.5 -12h-99q-27 0 -41 22q-117 182 -178 427.5t-61 510.5z" />
<glyph unicode=")" horiz-adv-x="520" d="M36.5 -299q-5.5 12 4.5 27q242 410 242 921q0 517 -242 924q-10 17 -4.5 29t26.5 12h99q25 0 41 -25q117 -182 178 -428t61 -512q0 -265 -61 -510.5t-178 -427.5q-14 -22 -41 -22h-99q-21 0 -26.5 12z" />
<glyph unicode="*" horiz-adv-x="817" d="M72 1237q12 49 71 29q32 -10 78 -27l152 -59l-11 163q-4 74 -4 82q0 27 13 43.5t37 16.5q51 0 51 -60q0 -8 -4 -82l-9 -163l152 59q42 17 76 27q56 19 71 -29q8 -23 -3 -41t-37 -25l-80 -20l-156 -41l102 -127l54 -63q33 -48 -4 -78q-41 -28 -78 18q-4 6 -10.5 17 t-15 23.5t-19.5 27.5l-90 137l-89 -137q-43 -65 -45 -68q-35 -44 -75 -18q-43 29 -4 78q11 17 51 63l102 127l-158 41l-77 20q-26 8 -38 26t-3 40z" />
<glyph unicode="+" horiz-adv-x="1107" d="M59 672v102q0 8 5.5 13.5t13.5 5.5h403v403q0 8 6.5 14.5t14.5 6.5h102q7 0 13 -6.5t6 -14.5v-403h405q8 0 13.5 -5.5t5.5 -13.5v-102q0 -8 -6 -14.5t-13 -6.5h-405v-403q0 -8 -6 -14.5t-13 -6.5h-102q-8 0 -14.5 6.5t-6.5 14.5v403h-403q-7 0 -13 6.5t-6 14.5z" />
<glyph unicode="," horiz-adv-x="352" d="M74 78q0 40 26 65t70 25q56 0 84.5 -37t30.5 -100q1 -69 -46 -134t-114 -92q-21 -6 -31 7l-16 24q-8 16 8 29q61 45 61 84q0 17 -11.5 31t-25 22.5t-25 28t-11.5 47.5z" />
<glyph unicode="-" horiz-adv-x="923" d="M133 543v102q0 7 5.5 13t13.5 6h620q8 0 13.5 -6t5.5 -13v-102q0 -9 -5.5 -15t-13.5 -6h-620q-8 0 -13.5 6t-5.5 15z" />
<glyph unicode="." horiz-adv-x="327" d="M74 76q0 38 27 65t67 27q38 0 66 -27t28 -65q0 -40 -28 -68t-66 -28q-40 0 -67 28t-27 68z" />
<glyph unicode="/" horiz-adv-x="784" d="M-43.5 7.5q-4.5 7.5 2.5 19.5l690 1347q11 21 31 21h121q13 0 18 -8.5t0 -18.5l-692 -1350q-8 -18 -29 -18h-123q-14 0 -18.5 7.5z" />
<glyph unicode="0" horiz-adv-x="1177" d="M72 696q0 352 132.5 534.5t385.5 182.5t384.5 -182.5t131.5 -534.5t-131.5 -534t-384.5 -182t-385.5 182t-132.5 534zM231 696q0 -286 95 -432q88 -135 264 -135q170 0 262 135q92 145 92 432t-92 432q-87 136 -262 136q-173 0 -262 -136q-97 -153 -97 -432z" />
<glyph unicode="1" horiz-adv-x="1116" d="M178 1141v100q0 21 21 29l331 129q23 10 43 10h74q9 0 15 -6t6 -14v-1248h284q8 0 14.5 -5.5t6.5 -14.5v-103q0 -7 -6.5 -12.5t-14.5 -5.5h-751q-8 0 -14.5 5.5t-6.5 12.5v103q0 9 6.5 14.5t14.5 5.5h303v1096l-297 -115q-29 -9 -29 19z" />
<glyph unicode="2" horiz-adv-x="1140" d="M119 18v58q0 143 30.5 229t104.5 160q58 59 141 110t173 100t145 91q62 47 95.5 103.5t33.5 136.5q0 107 -66 182q-78 88 -227 88q-93 0 -171 -31t-159 -86q-25 -13 -33 6l-45 88q-9 17 9 29q94 62 189 96.5t222 34.5q215 0 340 -137q96 -111 96 -266q0 -199 -172 -334 q-68 -56 -223.5 -142t-220.5 -147q-50 -47 -69 -100.5t-19 -145.5h696q8 0 13.5 -5.5t5.5 -14.5v-103q0 -7 -5.5 -12.5t-13.5 -5.5h-850q-8 0 -14 5.5t-6 12.5z" />
<glyph unicode="3" horiz-adv-x="1128" d="M112 84q-2 6 3 18l43 91q10 18 32 4q133 -86 299 -86q131 0 213 57q107 75 107 217q0 150 -131 225q-74 41 -211 41h-64q-9 0 -14.5 6.5t-5.5 14.5v92q0 18 20 18h54q135 0 213 54q96 67 96 192q0 112 -82 184q-77 64 -182 64q-148 0 -291 -96q-24 -15 -33 4l-43 84 q-10 20 8 30q85 56 170 85.5t199 29.5q161 0 272 -90q129 -104 129 -276q0 -112 -56.5 -196t-168.5 -124q134 -38 205.5 -129.5t71.5 -224.5q0 -186 -146 -297q-123 -96 -319 -96q-230 0 -375 90q-11 8 -13 14z" />
<glyph unicode="4" horiz-adv-x="1181" d="M68 340v88q0 15 14 37l639 917q15 23 41 23h106q9 0 15 -5.5t6 -13.5v-931h198q9 0 15 -5.5t6 -13.5v-96q0 -8 -6 -14.5t-15 -6.5h-198v-301q0 -8 -6 -13t-15 -5h-118q-8 0 -13.5 5.5t-5.5 12.5v301h-643q-7 0 -13.5 6.5t-6.5 14.5zM246 455h485v708z" />
<glyph unicode="5" horiz-adv-x="1142" d="M125 139l43 92q11 18 27 5q76 -65 149.5 -95t187.5 -30q146 0 238 92q92 95 92 235q0 149 -86 238q-82 88 -211 88q-107 0 -186 -51q-55 -35 -98 -90q-7 -14 -29 -11l-74 19q-12 1 -16 8t-4 23l55 712q0 8 5.5 14.5t12.5 6.5h715q8 0 14.5 -6.5t6.5 -14.5v-102 q0 -7 -6.5 -13t-14.5 -6h-594l-37 -454q49 43 117 67q72 29 154 29q202 0 323 -131q111 -123 111 -324q0 -192 -123 -321q-139 -139 -365 -139q-250 0 -395 129q-20 10 -12 30z" />
<glyph unicode="6" horiz-adv-x="1153" d="M102 633q0 344 125 547q145 233 424 233q111 0 203 -24q82 -19 156 -64q15 -10 8 -29l-45 -94q-7 -17 -31 -4q-66 35 -135 53q-77 21 -158 21q-204 0 -303 -189q-78 -147 -78 -403q55 80 127 123q93 59 215 59q219 0 338 -137q99 -116 99 -299q0 -205 -136 -332 q-127 -114 -319 -114q-226 0 -346 137q-144 162 -144 516zM266 522q10 -171 70 -270q81 -133 258 -133q133 0 214 85.5t81 217.5q0 140 -78.5 220.5t-216.5 80.5q-115 0 -197 -54t-131 -147z" />
<glyph unicode="7" horiz-adv-x="1146" d="M111 1053v321q0 8 6.5 14.5t13.5 6.5h877q7 0 13.5 -6.5t6.5 -14.5v-90q0 -14 -10 -37l-574 -1229q-9 -18 -30 -18h-131q-16 0 -20 9.5t3 21.5l471 977q31 64 133 245h-614v-200q0 -8 -6.5 -14.5t-13.5 -6.5h-105q-7 0 -13.5 6.5t-6.5 14.5z" />
<glyph unicode="8" horiz-adv-x="1167" d="M92 356q0 78 31.5 142t88 110t106.5 74t116 55q-60 27 -104 53.5t-90.5 67t-71.5 95t-25 120.5q0 70 24 127.5t65 96.5t97.5 65.5t119.5 38.5t133 12q82 0 158 -19.5t141 -59t104 -108t39 -157.5q0 -54 -18.5 -100.5t-45 -79.5t-68.5 -63.5t-77 -49t-82 -39.5 q61 -28 100 -48.5t90 -56.5t80.5 -72t50.5 -88.5t21 -113.5q0 -178 -129.5 -278t-361.5 -100q-234 0 -363 98.5t-129 277.5zM252 369q0 -121 84 -194t248 -73t249 72t85 193q0 58 -27.5 106t-80.5 84.5t-106.5 61.5t-128.5 51q-69 -24 -121.5 -49.5t-101 -61.5t-74.5 -84 t-26 -106zM303 1073q0 -44 19 -83t45.5 -65.5t69.5 -52t76 -40t79 -31.5q274 104 274 260q0 113 -80 171t-200 58q-56 0 -103.5 -11t-89.5 -35t-66 -67.5t-24 -103.5z" />
<glyph unicode="9" horiz-adv-x="1155" d="M104 965q0 204 136 331q128 115 319 115q226 0 346 -137q144 -162 144 -516q0 -344 -125 -547q-146 -234 -424 -234q-108 0 -203 25q-82 19 -156 64q-15 10 -8 28l45 94q8 18 31 5q70 -37 135 -54q73 -20 158 -20q205 0 303 188q78 147 78 404q-55 -80 -127 -123 q-94 -60 -215 -60q-218 0 -338 138q-99 116 -99 299zM262 969q0 -142 78.5 -222.5t216.5 -80.5q109 0 192.5 56t135.5 152q-11 193 -93 295.5t-233 102.5q-135 0 -216 -85.5t-81 -217.5z" />
<glyph unicode=":" horiz-adv-x="337" d="M76 76q0 38 27 65t67 27q38 0 65 -27t27 -65q0 -40 -27 -68t-65 -28q-40 0 -67 28t-27 68zM76 850q0 38 27 65t67 27q38 0 65 -27t27 -65q0 -40 -27 -68t-65 -28q-40 0 -67 28t-27 68z" />
<glyph unicode=";" horiz-adv-x="339" d="M78 78q0 40 27 65t71 25q55 0 84 -37t31 -100q0 -69 -47.5 -134t-114.5 -92q-21 -6 -31 7l-14 24q-11 16 6 29q62 46 62 84q0 17 -11.5 31t-25.5 22.5t-25.5 28t-11.5 47.5zM84 850q0 38 27 65t67 27t67 -27t27 -65q0 -40 -27 -68t-67 -28t-67 28t-27 68z" />
<glyph unicode="&#x3c;" horiz-adv-x="1200" d="M76 655v133q0 23 18 31l991 424q7 4 17 1t10 -15v-121q0 -22 -20 -31l-844 -354l844 -356q20 -6 20 -31v-121q0 -12 -10 -15t-17 1l-991 426q-18 8 -18 28z" />
<glyph unicode="=" horiz-adv-x="1105" d="M59 424v102q0 9 5.5 15t13.5 6h950q8 0 13.5 -6t5.5 -15v-102q0 -7 -5.5 -12.5t-13.5 -5.5h-950q-8 0 -13.5 5.5t-5.5 12.5zM59 915v103q0 9 5.5 14.5t13.5 5.5h950q8 0 13.5 -5.5t5.5 -14.5v-103q0 -7 -5.5 -12.5t-13.5 -5.5h-950q-8 0 -13.5 5.5t-5.5 12.5z" />
<glyph unicode="&#x3e;" horiz-adv-x="1202" d="M88 215v121q0 25 18 31l844 356l-844 354q-18 9 -18 31v121q0 23 27 14l991 -424q18 -9 18 -31v-133q0 -19 -18 -28l-991 -426q-27 -9 -27 14z" />
<glyph unicode="?" horiz-adv-x="972" d="M39 1208q-9 16 10 31q189 174 445 174q186 0 303 -108q127 -111 127 -291q0 -111 -52 -184t-159 -148q-112 -82 -150 -142.5t-41 -156.5q-3 -21 -24 -21h-76q-18 0 -25 17q-12 41 -12 82q0 106 94 203q22 24 50 47.5t71 57t68 54.5q100 83 100 191q0 123 -84 194 q-76 70 -199 70q-116 0 -203 -42.5t-173 -115.5q-6 -6 -14 -5t-13 9zM356 76q0 38 27.5 65t67.5 27t67 -27t27 -65q0 -40 -27 -68t-67 -28t-67.5 28t-27.5 68z" />
<glyph unicode="@" horiz-adv-x="1589" d="M74 694q0 145 60 278t162 230t243.5 155t296.5 58q191 0 344 -72.5t243 -212.5t90 -325q0 -215 -87 -334t-250 -119q-53 0 -95.5 25t-64.5 69h-4q-84 -94 -234 -94q-108 0 -166 47q-69 53 -69 148q0 127 141 178q107 39 295 43v12q0 90 -33 125q-38 41 -121 41 q-116 0 -202 -57q-19 -13 -25 2l-23 49q-6 11 9 23q46 29 114 47t138 18q133 0 198 -70q51 -57 51 -178v-217q0 -61 29.5 -93t73.5 -34q104 -2 160.5 90t56.5 271q0 158 -74.5 276.5t-203 179t-293.5 60.5q-132 0 -253 -50t-208.5 -133.5t-139 -198t-51.5 -239.5 q0 -290 177 -456t477 -175q150 -4 285 30t214 83q17 12 25 -4l26 -68q5 -13 -12 -22q-95 -54 -250.5 -88.5t-304.5 -30.5q-338 8 -541.5 204t-203.5 529zM645 549q0 -60 47 -90q45 -29 119 -29q108 0 168 82v186q-148 0 -229 -26q-105 -34 -105 -123z" />
<glyph unicode="A" d="M8 14q0 11 4 19l531 1345q9 23 30 23h132q21 0 30 -23l529 -1345q6 -12 6 -19q0 -14 -21 -14h-125q-24 0 -30 20l-127 324h-662l-127 -324q-6 -20 -31 -20h-122q-17 0 -17 14zM348 477h578l-289 725z" />
<glyph unicode="B" horiz-adv-x="1228" d="M113 18v1356q0 8 5.5 14.5t12.5 6.5h455q190 0 305 -76q149 -97 149 -279q0 -114 -49.5 -191.5t-136.5 -115.5v-8q145 -24 223 -118t78 -234q0 -94 -38.5 -167.5t-104 -117t-146.5 -66t-172 -22.5h-563q-7 0 -12.5 5t-5.5 13zM276 133h386q109 0 178 31q149 63 149 227 q0 145 -123 211q-42 25 -100.5 33t-163.5 8h-326v-510zM276 774h295q132 0 191 31q115 63 115 211q0 134 -109 201q-74 45 -176 45h-316v-488z" />
<glyph unicode="C" horiz-adv-x="1300" d="M72 698q0 145 58 277t155.5 228t232.5 153t283 57q234 0 426 -110q21 -12 12 -31l-49 -103q-8 -19 -29 -6q-53 30 -95.5 49t-116.5 36.5t-152 17.5q-148 0 -276 -77t-203.5 -208t-75.5 -283q0 -166 76.5 -297.5t203.5 -202.5t277 -71q197 0 368 104q17 12 29 -6l49 -106 q6 -16 -10 -27q-197 -112 -438 -112q-206 0 -370.5 87.5t-259.5 252t-95 378.5z" />
<glyph unicode="D" horiz-adv-x="1445" d="M113 18v1356q0 8 5.5 14.5t12.5 6.5h500q381 0 579 -221q164 -182 164 -478q0 -202 -80.5 -355.5t-236.5 -240.5q-180 -100 -457 -100h-469q-7 0 -12.5 5t-5.5 13zM276 137h310q218 0 364 76q126 66 191 189t65 294q0 245 -127 385q-152 174 -473 174h-330v-1118z" />
<glyph unicode="E" horiz-adv-x="1165" d="M113 18v1356q0 8 5.5 14.5t12.5 6.5h961q7 0 12.5 -6.5t5.5 -14.5v-104q0 -9 -5 -15t-13 -6h-816v-479h709q8 0 13.5 -5.5t5.5 -12.5v-107q0 -7 -5.5 -12.5t-13.5 -5.5h-709v-482h816q7 0 12.5 -6t5.5 -14v-107q0 -8 -5 -13t-13 -5h-961q-7 0 -12.5 5t-5.5 13z" />
<glyph unicode="F" horiz-adv-x="1093" d="M113 18v1356q0 8 5.5 14.5t12.5 6.5h897q7 0 13 -6.5t6 -14.5v-104q0 -9 -5.5 -15t-13.5 -6h-752v-479h652q8 0 13 -5t5 -13v-107q0 -7 -5 -12.5t-13 -5.5h-652v-609q0 -7 -6 -12.5t-14 -5.5h-125q-7 0 -12.5 5t-5.5 13z" />
<glyph unicode="G" horiz-adv-x="1447" d="M72 698q0 145 57.5 277t155 228t233 153t283.5 57q234 0 426 -110q21 -12 12 -31l-49 -103q-8 -19 -29 -6q-57 31 -96.5 48.5t-114.5 36t-153 18.5q-150 0 -278 -77t-202.5 -208t-74.5 -283q0 -171 74.5 -302.5t200 -201t280.5 -69.5q116 0 220 35t173 94v293h-420 q-8 0 -14 5.5t-6 14.5v105q0 8 6 14t14 6h555q8 0 14.5 -6.5t6.5 -13.5v-654q0 -7 -6.5 -12.5t-14.5 -5.5h-115q-8 0 -14 5.5t-6 12.5v84q-75 -55 -180.5 -88.5t-225.5 -33.5q-147 0 -275.5 48t-226 137t-154 226.5t-56.5 306.5z" />
<glyph unicode="H" horiz-adv-x="1388" d="M113 18v1356q0 8 5.5 14.5t12.5 6.5h125q7 0 13.5 -6.5t6.5 -14.5v-602h836v602q0 8 7 14.5t14 6.5h124q7 0 13 -6.5t6 -14.5v-1356q0 -7 -5.5 -12.5t-13.5 -5.5h-124q-8 0 -14.5 5.5t-6.5 12.5v609h-836v-609q0 -7 -6 -12.5t-14 -5.5h-125q-7 0 -12.5 5t-5.5 13z" />
<glyph unicode="I" horiz-adv-x="389" d="M113 18v1356q0 8 5.5 14.5t12.5 6.5h125q7 0 13.5 -6.5t6.5 -14.5v-1356q0 -7 -6 -12.5t-14 -5.5h-125q-7 0 -12.5 5t-5.5 13z" />
<glyph unicode="J" horiz-adv-x="1007" d="M20 139l58 97q12 20 28 6q129 -117 277 -117q163 0 258 98q94 97 94 291v860q0 8 6 14.5t13 6.5h125q7 0 13.5 -6.5t6.5 -14.5v-872q0 -258 -151 -396q-137 -126 -365 -126q-99 0 -192.5 35.5t-163.5 93.5q-15 15 -7 30z" />
<glyph unicode="K" horiz-adv-x="1200" d="M113 18v1356q0 8 5.5 14.5t12.5 6.5h125q7 0 13.5 -6.5t6.5 -14.5v-651l639 651q18 21 41 21h156q15 0 18 -10.5t-8 -20.5l-581 -582l616 -749q10 -11 8 -22t-18 -11h-148q-23 0 -36 18l-537 646l-150 -150v-496q0 -7 -6 -12.5t-14 -5.5h-125q-7 0 -12.5 5t-5.5 13z" />
<glyph unicode="L" horiz-adv-x="1040" d="M113 18v1356q0 8 5.5 14.5t12.5 6.5h125q7 0 13.5 -6.5t6.5 -14.5v-1229h711q7 0 13 -6t6 -14v-107q0 -7 -5.5 -12.5t-13.5 -5.5h-856q-7 0 -12.5 5t-5.5 13z" />
<glyph unicode="M" horiz-adv-x="1622" d="M113 18v1356q0 8 5.5 14.5t12.5 6.5h129q23 0 35 -21l514 -852l516 852q14 21 37 21h129q7 0 12.5 -6.5t5.5 -14.5v-1356q0 -8 -5.5 -13t-12.5 -5h-121q-8 0 -13 5t-5 13v1092l-461 -756q-13 -20 -33 -20h-90q-20 0 -33 20l-465 756v-1092q0 -8 -5 -13t-13 -5h-121 q-7 0 -12.5 5t-5.5 13z" />
<glyph unicode="N" horiz-adv-x="1433" d="M113 18v1356q0 8 5.5 14.5t12.5 6.5h113q21 0 39 -21l880 -1110v1110q0 8 6 14.5t15 6.5h116q8 0 14.5 -6.5t6.5 -14.5v-1356q0 -7 -6.5 -12.5t-14.5 -5.5h-114q-22 0 -37 20l-881 1106v-1108q0 -8 -5 -13t-13 -5h-119q-7 0 -12.5 5t-5.5 13z" />
<glyph unicode="O" horiz-adv-x="1601" d="M72 694q0 149 58 283t156.5 229t233 151t281.5 56t281 -56t232.5 -151t157 -229t58.5 -283t-58.5 -282.5t-157 -227.5t-232.5 -149t-281 -55t-281.5 55.5t-233 150t-156.5 227.5t-58 281zM244 694q0 -153 73.5 -282.5t201.5 -205t282 -75.5q153 0 281 76t201 205t73 282 t-73 283t-201 206.5t-281 76.5t-281.5 -76.5t-202 -206.5t-73.5 -283z" />
<glyph unicode="P" horiz-adv-x="1222" d="M113 18v1356q0 8 5.5 14.5t12.5 6.5h549q196 0 321 -99q164 -129 164 -360q0 -117 -47 -213.5t-131 -157.5q-117 -88 -328 -88h-383v-459q0 -7 -6 -12.5t-14 -5.5h-125q-7 0 -12.5 5t-5.5 13zM276 621h357q156 0 239 55q60 41 93.5 108t33.5 152q0 171 -118 252 q-84 63 -226 63h-379v-630z" />
<glyph unicode="Q" horiz-adv-x="1605" d="M72 694q0 149 58 283t156.5 229t233 151t281.5 56t281 -56t232.5 -151t157 -229t58.5 -283q0 -133 -47 -255t-128.5 -213.5t-193.5 -152t-239 -77.5q0 -15 18 -23q124 -43 324 -99t303 -73q14 -2 18.5 -8.5t-2.5 -17.5l-55 -97q-12 -16 -33 -16q-25 0 -79 13.5t-140.5 42 t-163.5 55t-203 70.5t-204 71q-23 10 -23 35v43q-128 17 -240.5 79t-194 153.5t-128.5 214t-47 255.5zM244 694q0 -153 73.5 -282.5t201.5 -205t282 -75.5q153 0 281 76t201 205t73 282t-73 283t-201 206.5t-281 76.5t-281.5 -76.5t-202 -206.5t-73.5 -283z" />
<glyph unicode="R" horiz-adv-x="1253" d="M113 18v1356q0 8 5.5 14.5t12.5 6.5h553q221 0 340 -80q164 -112 164 -346q0 -217 -162 -334q-90 -67 -215 -82l389 -520q21 -33 -10 -33h-139q-27 0 -39 20l-385 525h-351v-527q0 -7 -6 -12.5t-14 -5.5h-125q-7 0 -12.5 5t-5.5 13zM276 682h375q168 0 250 47 q121 69 121 238q0 167 -117 239q-81 49 -239 49h-390v-573z" />
<glyph unicode="S" horiz-adv-x="1099" d="M66 141l51 105q7 17 26 6q43 -27 75 -45t85 -41t113.5 -35t126.5 -12q143 0 229 63q92 71 92 197q0 138 -178 213q-50 22 -186.5 62.5t-216.5 80.5q-99 48 -154 120.5t-55 182.5q0 169 121 269q131 106 374 106q232 0 406 -98q17 -11 8 -29l-49 -102q-10 -20 -29 -8 q-166 96 -344 96q-170 0 -250 -74q-65 -59 -65 -154q0 -72 51.5 -119.5t151.5 -84.5q19 -7 176.5 -54t234.5 -92q182 -104 182 -301q0 -196 -147 -311q-129 -102 -350 -102q-262 0 -469 133q-19 10 -10 28z" />
<glyph unicode="T" horiz-adv-x="1153" d="M6 1270v104q0 8 6 14.5t13 6.5h1101q7 0 13 -6.5t6 -14.5v-104q0 -9 -5.5 -15t-13.5 -6h-469v-1231q0 -18 -20 -18h-123q-20 0 -20 18v1231h-469q-8 0 -13.5 6t-5.5 15z" />
<glyph unicode="U" horiz-adv-x="1398" d="M111 551v823q0 8 5.5 14.5t14.5 6.5h123q9 0 14.5 -6.5t5.5 -14.5v-805q0 -200 105 -317q110 -125 319 -125q212 0 322 125q106 115 106 317v805q0 8 6 14.5t13 6.5h125q7 0 13.5 -6.5t6.5 -14.5v-823q0 -247 -135 -397q-157 -174 -455 -174q-297 0 -454 174 q-135 150 -135 397z" />
<glyph unicode="V" horiz-adv-x="1286" d="M3.5 1386.5q3.5 8.5 16.5 8.5h132q23 0 30 -23l457 -1173h4l459 1173q10 23 31 23h133q24 0 14 -29l-543 -1350q-6 -13 -12 -17.5t-20 -4.5h-132q-23 0 -30 22l-537 1350q-6 12 -2.5 20.5z" />
<glyph unicode="W" horiz-adv-x="2093" d="M4 1366q-10 29 16 29h127q24 0 31 -23l387 -1171h4l398 1171q6 23 30 23h101q20 0 30 -23l402 -1171h4l381 1171q6 23 31 23h127q26 0 16 -29l-457 -1350q-7 -22 -33 -22h-137q-23 0 -30 22l-383 1082h-5l-376 -1082q-5 -22 -31 -22h-139q-24 0 -31 22z" />
<glyph unicode="X" horiz-adv-x="1327" d="M1 10q-4 10 5 21l557 663l-549 670q-9 10 -5.5 20.5t18.5 10.5h163q19 0 33 -21l443 -547l436 547q14 21 33 21h165q14 0 18.5 -10.5t-3.5 -20.5l-547 -666l553 -667q8 -12 4.5 -21.5t-18.5 -9.5h-164q-20 0 -33 16l-444 555l-449 -555q-13 -16 -33 -16h-164 q-15 0 -19 10z" />
<glyph unicode="Y" horiz-adv-x="1249" d="M3 1384.5q4 10.5 20 10.5h141q21 0 33 -21l426 -600l428 600q11 21 30 21h144q14 0 18 -10.5t-4 -20.5l-534 -752v-594q0 -8 -6 -13t-15 -5h-123q-20 0 -20 18v594l-533 752q-9 10 -5 20.5z" />
<glyph unicode="Z" horiz-adv-x="1165" d="M20 16q0 10 5 15l833 1218h-811q-8 0 -13 6t-5 15v104q0 8 5.5 14.5t12.5 6.5h1059q9 0 14.5 -5.5t5.5 -13.5t-4 -14l-833 -1217h837q7 0 13 -6t6 -14v-107q0 -7 -5.5 -12.5t-13.5 -5.5h-1085q-21 0 -21 16z" />
<glyph unicode="[" horiz-adv-x="616" d="M109 -293v1886q0 8 6.5 14.5t13.5 6.5h422q7 0 13.5 -6.5t6.5 -14.5v-98q0 -7 -6 -12.5t-14 -5.5h-281v-1651h281q8 0 14 -6t6 -15v-98q0 -7 -6 -12.5t-14 -5.5h-422q-8 0 -14 5.5t-6 12.5z" />
<glyph unicode="\" horiz-adv-x="559" d="M25 1368q-4 9 0 18t16 9h106q24 0 33 -27l377 -1341q8 -27 -18 -27h-107q-25 0 -31 25z" />
<glyph unicode="]" horiz-adv-x="616" d="M45 -195q0 8 5.5 14.5t12.5 6.5h281v1651h-281q-18 0 -18 18v98q0 8 5.5 14.5t12.5 6.5h422q9 0 15 -6.5t6 -14.5v-1886q0 -8 -6 -14t-15 -6h-422q-18 0 -18 20v98z" />
<glyph unicode="^" horiz-adv-x="1026" d="M57.5 842.5q-3.5 8.5 3.5 17.5l383 596q13 19 31 19h74q18 0 31 -19l383 -596q7 -9 3 -17.5t-18 -8.5h-106q-18 0 -33 18l-297 469l-297 -469q-12 -18 -31 -18h-110q-13 0 -16.5 8.5z" />
<glyph unicode="_" horiz-adv-x="985" d="M-23 -186q0 7 6.5 13.5t14.5 6.5h991q8 0 14.5 -6.5t6.5 -13.5v-78q0 -9 -6.5 -15t-14.5 -6h-991q-8 0 -14.5 6t-6.5 15v78z" />
<glyph unicode="`" horiz-adv-x="712" d="M184 1548q0 17 21 17h102q14 0 27 -21l184 -342q6 -12 6 -20q0 -15 -16 -15h-76q-18 0 -29 19l-213 346q-6 9 -6 16z" />
<glyph unicode="a" horiz-adv-x="909" d="M59 252q0 169 191 242q137 51 414 65v31q0 116 -48 176q-53 63 -167 63q-150 0 -283 -86q-23 -10 -29 7l-33 69q-8 16 11 27q143 96 352 96q182 0 270 -100q76 -86 76 -250v-574q0 -8 -5.5 -13t-12.5 -5h-97q-8 0 -13 5t-5 13v33h-8q-121 -71 -279 -71q-138 0 -229 65 q-105 77 -105 207zM203 256q0 -85 73 -131q62 -37 160 -37q132 0 228 62v311q-203 -5 -308 -37q-153 -48 -153 -168z" />
<glyph unicode="b" horiz-adv-x="1021" d="M109 27v1347q0 8 6.5 14.5t13.5 6.5h111q7 0 12.5 -6.5t5.5 -14.5v-489q120 57 256 57q200 0 322 -131q118 -131 118 -350q0 -193 -108 -316q-143 -165 -436 -165q-203 0 -281 22q-20 3 -20 25zM258 115q73 -13 164 -13q202 0 305 125q74 90 74 234q0 169 -92 264 q-87 90 -224 90q-124 0 -227 -57v-643z" />
<glyph unicode="c" horiz-adv-x="917" d="M68 461q0 182 104 305q70 85 172.5 130.5t222.5 45.5q164 0 283 -82q17 -14 10 -26l-43 -78q-7 -20 -31 -6q-101 63 -219 63q-80 0 -149.5 -30t-116.5 -87q-82 -95 -82 -235q0 -158 94 -258q93 -99 256 -99q127 0 224 58q22 16 30 -4l41 -76q8 -13 -10 -27 q-113 -75 -289 -75q-237 0 -370 139q-127 127 -127 342z" />
<glyph unicode="d" horiz-adv-x="1005" d="M68 459q0 179 92 309q62 82 158 129t217 47q101 0 210 -37v467q0 8 6 14.5t13 6.5h110q9 0 15 -6.5t6 -14.5v-1356q0 -8 -6 -13t-15 -5h-276q-269 0 -410 141q-120 117 -120 318zM219 461q0 -143 84 -230q103 -106 309 -106h133v653q-101 37 -202 37q-82 0 -149 -35 t-111 -98q-64 -92 -64 -221z" />
<glyph unicode="e" horiz-adv-x="1028" d="M68 473q0 203 122 334q125 135 338 135q216 0 336 -147q97 -123 97 -317v-23q-3 -23 -25 -23h-713q6 -129 78 -221q97 -115 264 -115q146 0 281 82q19 12 31 -4l36 -70q8 -13 -8 -26q-62 -42 -156.5 -70t-195.5 -28q-235 0 -365 149q-120 132 -120 344zM223 528h594 q-6 128 -76 207q-80 90 -213 90q-149 0 -231 -98q-68 -80 -74 -199z" />
<glyph unicode="f" horiz-adv-x="661" d="M39 825v80q0 8 6.5 14.5t13.5 6.5h119v145q0 183 82 268q72 72 201 72q163 0 274 -86q8 -5 10 -13t-2 -14l-36 -75q-4 -9 -14 -10.5t-19 4.5q-85 67 -182 67q-81 0 -121 -49q-43 -51 -43 -178v-131h276q7 0 13 -6.5t6 -14.5v-80q0 -7 -5.5 -12.5t-13.5 -5.5h-276v-789 q0 -8 -6 -13t-15 -5h-110q-8 0 -13.5 5.5t-5.5 12.5v789h-119q-8 0 -14 5.5t-6 12.5z" />
<glyph unicode="g" horiz-adv-x="1024" d="M68 463q0 219 116 352q114 127 301 127q156 0 277 -96h6v59q0 8 5.5 14.5t12.5 6.5h107q9 0 14.5 -6.5t5.5 -14.5v-934q0 -227 -116 -340q-106 -106 -320 -106q-95 0 -184 27t-154 71q-17 10 -8 25l41 82q11 18 31 4q131 -88 276 -88q144 0 215 80q70 79 70 229v119 q-110 -92 -277 -92q-185 0 -299 127q-120 135 -120 354zM219 463q0 -167 78 -264q77 -93 205 -93q154 0 262 99v516q-30 22 -47.5 33.5t-52 29.5t-74.5 26.5t-86 8.5q-129 0 -207 -94q-78 -100 -78 -262z" />
<glyph unicode="h" horiz-adv-x="1058" d="M109 18v1356q0 8 6.5 14.5t13.5 6.5h111q7 0 12.5 -6.5t5.5 -14.5v-622q50 87 119 133q82 57 207 57q171 0 268 -84q111 -97 111 -309v-531q0 -7 -6.5 -12.5t-14.5 -5.5h-111q-8 0 -14 5.5t-6 12.5v502q0 169 -74 240q-62 59 -182 59q-166 0 -242 -125q-55 -89 -55 -213 v-463q0 -8 -5 -13t-13 -5h-111q-8 0 -14 5.5t-6 12.5z" />
<glyph unicode="i" horiz-adv-x="370" d="M94 1325q0 37 26.5 62.5t63.5 25.5q38 0 64 -25.5t26 -62.5q0 -38 -26 -64t-64 -26q-37 0 -63.5 26t-26.5 64zM111 18v887q0 8 6.5 14.5t13.5 6.5h111q7 0 12.5 -6.5t5.5 -14.5v-887q0 -8 -5 -13t-13 -5h-111q-8 0 -14 5.5t-6 12.5z" />
<glyph unicode="j" horiz-adv-x="372" d="M-27 -397q-18 18 2 30q82 51 112 135.5t30 227.5v909q0 8 5.5 13.5t14.5 5.5h111q7 0 12.5 -5.5t5.5 -13.5v-831q0 -106 -6.5 -180.5t-25 -149.5t-57 -128.5t-97.5 -88.5q-23 -8 -39 8zM96 1325q0 37 26.5 62.5t63.5 25.5q38 0 64 -25.5t26 -62.5q0 -38 -26 -64t-64 -26 q-37 0 -63.5 26t-26.5 64z" />
<glyph unicode="k" horiz-adv-x="946" d="M109 18v1356q0 8 6.5 14.5t13.5 6.5h111q7 0 12.5 -6.5t5.5 -14.5v-901l451 434q19 19 39 19h126q18 0 21 -12t-8 -23l-395 -367l415 -493q9 -11 6 -21t-20 -10h-127q-25 0 -35 18l-342 410l-131 -119v-291q0 -8 -5 -13t-13 -5h-111q-8 0 -14 5.5t-6 12.5z" />
<glyph unicode="l" horiz-adv-x="368" d="M109 18v1356q0 8 6.5 14.5t13.5 6.5h111q7 0 12.5 -6.5t5.5 -14.5v-1356q0 -8 -5 -13t-13 -5h-111q-8 0 -14 5.5t-6 12.5z" />
<glyph unicode="m" horiz-adv-x="1597" d="M109 18v887q0 8 6.5 14.5t13.5 6.5h104q7 0 14 -7t7 -14v-114h6q28 61 86 100q76 51 184 51q129 0 209 -63q70 -48 99 -129q43 91 120 143q80 49 193 49q158 0 252 -90q96 -93 96 -283v-551q0 -8 -5.5 -13t-12.5 -5h-111q-8 0 -14 5.5t-6 12.5v523q0 145 -64 215 q-57 63 -168 63q-120 0 -186 -92q-53 -82 -53 -231v-478q0 -7 -5.5 -12.5t-13.5 -5.5h-110q-8 0 -14.5 5.5t-6.5 12.5v523q0 146 -63 215q-57 63 -168 63q-121 0 -187 -92q-53 -75 -53 -207v-502q0 -8 -5 -13t-13 -5h-111q-8 0 -14 5.5t-6 12.5z" />
<glyph unicode="n" horiz-adv-x="1058" d="M109 18v887q0 8 6.5 14.5t13.5 6.5h104q7 0 14 -7t7 -14v-149h6q34 74 109 127q88 59 215 59q173 0 266 -84q111 -94 111 -309v-531q0 -7 -5.5 -12.5t-13.5 -5.5h-111q-20 0 -20 18v500q0 168 -74 242q-65 59 -184 59q-163 0 -240 -127q-55 -89 -55 -217v-457 q0 -8 -5 -13t-13 -5h-111q-8 0 -14 5.5t-6 12.5z" />
<glyph unicode="o" horiz-adv-x="1116" d="M68 461q0 208 137 342q67 67 158 103t194 36t194 -36t158 -103q138 -135 138 -342t-138 -342q-67 -67 -158 -103t-194 -36t-194 36t-158 103q-137 134 -137 342zM215 461q0 -152 92 -250q95 -109 250 -109t250 109q92 98 92 250t-92 250q-94 108 -250 108t-250 -108 q-92 -98 -92 -250z" />
<glyph unicode="p" horiz-adv-x="1011" d="M109 -455v1346q0 21 22 27q127 24 275 24q252 0 397 -133q141 -131 141 -346q0 -214 -117 -338q-66 -74 -160.5 -109.5t-191.5 -35.5q-129 0 -217 40v-475q0 -7 -5 -12.5t-13 -5.5h-111q-8 0 -14 5.5t-6 12.5zM258 145q85 -43 203 -43q146 0 241 95q93 90 93 266 q0 162 -99 258q-103 100 -276 100q-64 0 -162 -12v-664z" />
<glyph unicode="q" horiz-adv-x="1009" d="M68 459q0 194 108 321q143 162 426 162q143 0 270 -31q27 -8 27 -30v-1336q0 -7 -6 -12.5t-14 -5.5h-111q-8 0 -13 5.5t-5 12.5v596q-19 -52 -60 -90q-74 -71 -211 -71q-175 0 -286 114q-125 128 -125 365zM215 463q0 -177 84 -273q75 -88 203 -88q121 0 182 76 q66 77 66 248v379q-90 16 -160 16q-204 0 -305 -129q-70 -89 -70 -229z" />
<glyph unicode="r" horiz-adv-x="720" d="M109 18v887q0 8 6.5 14.5t13.5 6.5h104q7 0 14 -7t7 -14v-139h6q28 64 78 108q78 68 180 68q73 0 135 -27q52 -24 88 -57q14 -17 2 -33l-61 -73q-12 -17 -29 0q-39 31 -69 45q-44 18 -90 18q-111 0 -172 -86q-64 -93 -64 -258v-453q0 -8 -5 -13t-13 -5h-111q-8 0 -14 5.5 t-6 12.5z" />
<glyph unicode="s" horiz-adv-x="763" d="M43 82l37 76q7 21 26 8q124 -76 259 -76q95 0 145 33q59 41 59 119q0 54 -31.5 84t-97.5 59q-29 13 -109.5 41t-119.5 45q-156 71 -156 223q0 111 80 176q94 74 260 74q164 0 281 -67q18 -8 10 -27l-37 -76q-9 -18 -26 -6q-106 59 -224 59q-92 0 -147 -36 q-49 -37 -49 -97q0 -47 27 -75.5t81 -53.5q31 -13 112.5 -40.5t115.5 -43.5q88 -40 133 -93t45 -136q0 -137 -107 -211q-92 -61 -243 -61q-189 0 -316 77q-18 9 -8 25z" />
<glyph unicode="t" horiz-adv-x="710" d="M31 825v80q0 8 6.5 14.5t13.5 6.5h109v178q0 8 6 14t14 6h111q7 0 13.5 -6t6.5 -14v-178h322q7 0 13.5 -6.5t6.5 -14.5v-80q0 -7 -6 -12.5t-14 -5.5h-322v-481q0 -103 31 -150q40 -67 145 -67q90 0 168 57q21 15 31 -2l37 -80q8 -14 -8 -27q-109 -77 -264 -77 q-154 0 -228 90q-63 79 -63 237v500h-109q-8 0 -14 5.5t-6 12.5z" />
<glyph unicode="u" horiz-adv-x="1044" d="M96 391v514q0 8 6 14.5t13 6.5h110q9 0 15 -6.5t6 -14.5v-510q0 -113 37 -180q67 -113 239 -113q89 0 148.5 30.5t87.5 82.5q39 66 39 180v510q0 8 6.5 14.5t13.5 6.5h111q7 0 12.5 -6.5t5.5 -14.5v-514q0 -88 -15.5 -148.5t-51.5 -113.5q-50 -72 -141.5 -110.5 t-215.5 -38.5q-256 0 -358 149q-36 53 -52 113.5t-16 148.5z" />
<glyph unicode="v" horiz-adv-x="927" d="M8.5 916q3.5 10 16.5 10h118q24 0 31 -23l289 -760h4l287 760q10 23 30 23h117q14 0 17 -10t-3 -19l-360 -881q-6 -13 -12.5 -17.5t-20.5 -4.5h-129q-24 0 -31 22l-352 881q-5 9 -1.5 19z" />
<glyph unicode="w" horiz-adv-x="1425" d="M10 897q-5 29 17 29h110q28 0 31 -23l235 -725h5l233 725q7 23 31 23h86q23 0 30 -23l234 -725h4l240 725q3 23 30 23h103q14 0 17 -10t-3 -19l-301 -881q-7 -22 -31 -22h-118q-26 0 -31 22l-217 666h-4l-224 -666q-5 -22 -30 -22h-117q-24 0 -31 22z" />
<glyph unicode="x" horiz-adv-x="972" d="M9.5 10q-4.5 10 4.5 21l381 440l-362 422q-9 12 -6 22.5t18 10.5h139q19 0 33 -21l270 -330l273 330q14 21 33 21h133q15 0 19 -10.5t-7 -22.5l-363 -412l386 -450q10 -12 6 -21.5t-21 -9.5h-135q-17 0 -33 16l-291 353l-292 -353q-13 -16 -33 -16h-133q-15 0 -19.5 10z " />
<glyph unicode="y" horiz-adv-x="972" d="M9.5 916q3.5 10 17.5 10h133q23 0 30 -23l318 -772l287 772q7 23 30 23h123q13 0 16.5 -10t-1.5 -17l-369 -948q-79 -201 -178 -305q-125 -121 -309 -121h-23q-16 0 -16 16v113q0 14 18 14q5 0 16.5 -1t22.5 -1q109 0 194 94q64 74 111 185l-420 954q-4 7 -0.5 17z" />
<glyph unicode="z" horiz-adv-x="819" d="M12 11q-2 11 6 20l551 764h-524q-18 0 -18 20v90q0 8 5.5 14.5t12.5 6.5h735q14 0 19 -10.5t-2 -22.5l-551 -762h538q7 0 13 -6t6 -14v-93q0 -7 -5.5 -12.5t-13.5 -5.5h-753q-17 0 -19 11z" />
<glyph unicode="{" horiz-adv-x="620" d="M49 600v100q0 8 6.5 14.5t14.5 6.5h8q88 0 133 63q53 80 53 240q0 46 -4 138.5t-4 148.5q0 144 59 215q71 86 238 86q22 0 22 -21v-82q0 -7 -6.5 -13.5t-13.5 -6.5q-87 0 -123 -51q-33 -46 -33 -150q0 -50 3.5 -142t3.5 -138q0 -168 -66 -260q-52 -72 -139 -99 q89 -25 139 -98q66 -92 66 -260q0 -47 -3.5 -139t-3.5 -140q0 -105 33 -149q38 -53 123 -53q7 0 13.5 -6.5t6.5 -14.5v-82q0 -18 -22 -18q-167 0 -238 86q-59 71 -59 213q0 56 4 148t4 140q0 165 -53 238q-45 66 -133 66h-8q-8 0 -14.5 5.5t-6.5 14.5z" />
<glyph unicode="|" horiz-adv-x="376" d="M113 -428v1802q0 8 5.5 14.5t12.5 6.5h113q9 0 14.5 -6.5t5.5 -14.5v-1802q0 -18 -20 -18h-113q-7 0 -12.5 5t-5.5 13z" />
<glyph unicode="}" horiz-adv-x="622" d="M37 -211q0 7 5.5 12.5t12.5 5.5q84 0 125 56q31 44 31 147l-4 281q0 172 63 260q53 70 140 98q-92 30 -140 99q-63 85 -63 260l4 280q0 104 -31 148q-41 53 -125 53q-7 0 -12.5 5.5t-5.5 12.5v84q0 8 5.5 13.5t14.5 5.5q169 0 240 -86q57 -72 57 -213l-6 -289 q0 -165 53 -238q44 -65 131 -65h11q7 0 12.5 -5.5t5.5 -13.5v-102q0 -8 -5.5 -14t-12.5 -6h-11q-86 0 -131 -64q-53 -72 -53 -240l6 -286q0 -143 -57 -215q-74 -86 -240 -86q-9 0 -14.5 6t-5.5 14v82z" />
<glyph unicode="~" horiz-adv-x="1175" d="M78 487q0 141 80 214t202 73q60 0 113 -18.5t92.5 -45.5t76 -54t79.5 -45.5t88 -18.5q65 0 108.5 33.5t43.5 107.5q0 21 20 21h98q21 0 21 -21q0 -140 -80.5 -212t-202.5 -72q-59 0 -111.5 18.5t-91 45.5t-75.5 54t-80.5 45.5t-89.5 18.5q-65 0 -108.5 -35t-43.5 -109 q0 -18 -22 -18h-97q-20 0 -20 18z" />
<glyph unicode="&#xa1;" horiz-adv-x="428" d="M109 -309q0 41 2.5 82.5t7.5 99.5t6 76l45 561q1 9 8 14.5t15 5.5h45q8 0 14.5 -5.5t7.5 -14.5l45 -561q2 -23 7 -77.5t7.5 -97t2.5 -83.5q0 -180 -107 -180q-106 0 -106 180zM121 848q0 39 27.5 66.5t66.5 27.5q40 0 67 -27t27 -67t-27 -67t-67 -27q-39 0 -66.5 27.5 t-27.5 66.5z" />
<glyph unicode="&#xa2;" horiz-adv-x="1118" d="M158 461q0 183 106 305q61 76 150.5 120t193.5 52v141q0 8 6 14.5t15 6.5h45q7 0 13.5 -6.5t6.5 -14.5v-139q135 -9 248 -80q15 -12 10 -26l-43 -78q-10 -20 -30 -6q-101 63 -220 63q-80 0 -149.5 -30t-116.5 -87q-82 -91 -82 -235q0 -160 92 -258q96 -99 256 -99 q129 0 226 58q21 15 28 -4l43 -76q6 -14 -10 -27q-95 -63 -252 -73v-138q0 -7 -6 -12.5t-14 -5.5h-45q-9 0 -15 5t-6 13v138q-204 12 -323 137q-127 130 -127 342z" />
<glyph unicode="&#xa3;" horiz-adv-x="1146" d="M106 18v103q0 9 6.5 14.5t14.5 5.5h133q119 111 119 277q0 59 -31 162h-164q-20 0 -20 18v92q0 21 20 21h115q-66 162 -66 278q0 193 125 309q121 115 326 115q91 0 177 -22.5t147 -59.5q18 -11 10 -26l-43 -86q-8 -19 -25 -9q-119 68 -254 68q-143 0 -225 -82 q-82 -79 -82 -213q0 -44 11 -95.5t22.5 -85.5t32.5 -91h438q8 0 14 -6t6 -15v-92q0 -7 -6 -12.5t-14 -5.5h-391q26 -95 26 -156q0 -162 -108 -283h575q8 0 14.5 -5.5t6.5 -14.5v-103q0 -7 -6.5 -12.5t-14.5 -5.5h-868q-8 0 -14.5 5.5t-6.5 12.5z" />
<glyph unicode="&#xa4;" horiz-adv-x="1361" d="M74 1315q0 9 4 14l67 68q4 6 13.5 6t15.5 -6l186 -187q141 115 322 115q182 0 319 -115l187 189q6 5 15 5t14 -5l67 -68q10 -14 0 -28l-186 -187q114 -136 114 -321q0 -183 -112 -324l184 -186q14 -15 0 -29l-65 -68q-15 -11 -29 0l-189 189q-135 -113 -319 -113 q-182 0 -324 113l-184 -187q-14 -11 -29 0l-65 68q-14 14 0 29l184 186q-112 138 -112 322q0 185 114 321l-188 184q-4 6 -4 15zM279 795q-1 -110 53 -204t147 -148.5t203 -53.5q167 -1 285 118.5t118 287.5q0 166 -118 283.5t-285 117.5t-285.5 -117.5t-117.5 -283.5z" />
<glyph unicode="&#xa5;" horiz-adv-x="1218" d="M22 1385q4 10 17 10h143q22 0 35 -23l389 -598l393 598q11 23 33 23h146q14 0 18 -10t-2 -19l-446 -653h323q7 0 13 -5.5t6 -13.5v-71q0 -9 -5.5 -15t-13.5 -6h-383v-176h383q7 0 13 -6t6 -14v-72q0 -8 -6 -14.5t-13 -6.5h-383v-295q0 -8 -5 -13t-13 -5h-125 q-8 0 -14.5 5.5t-6.5 12.5v295h-381q-7 0 -12.5 6.5t-5.5 14.5v72q0 8 5.5 14t12.5 6h381v176h-381q-8 0 -13 6t-5 15v71q0 8 5.5 13.5t12.5 5.5h324l-442 653q-7 9 -3 19z" />
<glyph unicode="&#xa6;" horiz-adv-x="376" d="M113 334q0 8 5.5 14t12.5 6h113q9 0 14.5 -6t5.5 -14v-762q0 -18 -20 -18h-113q-7 0 -12.5 5t-5.5 13v762zM113 612v762q0 8 5.5 14.5t12.5 6.5h113q9 0 14.5 -6.5t5.5 -14.5v-762q0 -18 -20 -18h-113q-7 0 -12.5 5t-5.5 13z" />
<glyph unicode="&#xa7;" horiz-adv-x="913" d="M74 549q0 179 153 301q-96 96 -96 227q0 147 88 238q97 100 266 100q76 0 142.5 -17t102 -35.5t77.5 -47.5q17 -10 10 -27l-39 -82q-9 -18 -28 -6q-123 94 -256 94q-102 0 -156 -59q-49 -46 -49 -139q0 -23 5 -44.5t10.5 -39t19.5 -37t22.5 -32t31 -32t32.5 -28t38.5 -28 l38 -26t43 -27.5t41.5 -26q47 -30 80 -54t71.5 -60.5t61.5 -73t38.5 -86t15.5 -105.5q0 -178 -154 -305q96 -96 96 -225q0 -148 -92 -240q-94 -98 -260 -98q-76 0 -142.5 17t-102 35.5t-77.5 47.5q-16 13 -10 27l39 82q10 19 27 6q123 -94 260 -94q91 0 145 51q58 55 58 147 q0 42 -15.5 80.5t-37 66t-60 58t-69 50t-80 50.5t-78.5 50q-47 33 -81.5 65t-65.5 74t-47.5 94t-16.5 113zM229 567q0 -80 38 -137.5t108 -107.5q33 -25 104.5 -68.5t102.5 -65.5q100 76 100 189q0 84 -42.5 144t-119.5 112q-26 18 -92 59t-98 66q-101 -85 -101 -191z" />
<glyph unicode="&#xa8;" horiz-adv-x="778" d="M106 1366q0 37 27 63.5t64 26.5q38 0 64 -26.5t26 -63.5t-26 -63.5t-64 -26.5q-37 0 -64 26.5t-27 63.5zM492 1366q0 37 26.5 63.5t63.5 26.5t63.5 -26.5t26.5 -63.5t-26.5 -63.5t-63.5 -26.5t-63.5 26.5t-26.5 63.5z" />
<glyph unicode="&#xa9;" horiz-adv-x="1654" d="M72 733q0 154 59.5 294t160 241t240.5 161t295 60q154 0 293.5 -60t240.5 -161t160.5 -241t59.5 -294t-59.5 -293t-160.5 -239.5t-240.5 -159.5t-293.5 -59q-207 0 -380.5 100t-274 272.5t-100.5 378.5zM162 733q0 -136 52 -259.5t140.5 -213t212 -142t260.5 -52.5 q136 0 259 52.5t211.5 142t141 213t52.5 259.5q0 182 -88 336t-241 244t-335 90q-137 0 -260 -53t-212 -143t-141 -214t-52 -260zM465 727q0 161 114.5 269t272.5 108q112 0 192 -41q38 -18 35 -33q0 -5 -15.5 -32t-19.5 -27q-7 -3 -45 14q-68 33 -149 33q-119 0 -204 -83 t-85 -208q0 -131 83.5 -211t207.5 -80q83 0 154 29q35 14 43 10q3 0 17.5 -28t14.5 -33q2 -8 -4 -14.5t-24 -12.5q-94 -37 -201 -37q-168 0 -277.5 103t-109.5 274z" />
<glyph unicode="&#xaa;" horiz-adv-x="544" d="M53 1004q0 92 99 141q69 35 247 45v14q0 83 -41 117q-28 22 -79 22q-81 0 -164 -49q-18 -11 -21 4l-16 35q-7 17 10 25q85 57 201 57q84 0 135 -39q68 -52 68 -184v-338q0 -7 -6.5 -12.5t-14.5 -5.5h-43q-8 0 -13 5t-5 13v29h-7q-33 -23 -71 -35q-43 -12 -88 -12 q-78 0 -135 45q-56 42 -56 123zM119 549v31q0 8 5.5 14t12.5 6h269q9 0 14.5 -6t5.5 -14v-31q0 -8 -5.5 -13.5t-14.5 -5.5h-269q-7 0 -12.5 5.5t-5.5 13.5zM141 1006q0 -49 41 -78q37 -25 90 -25q72 0 127 35v195q-109 -9 -168 -27q-90 -25 -90 -100z" />
<glyph unicode="&#xab;" horiz-adv-x="1153" d="M49 465q0 13 14 31l392 424q18 18 39 18h110q18 0 21.5 -11t-7.5 -24l-397 -438l397 -436q11 -15 7.5 -26t-21.5 -11h-110q-22 0 -39 20l-392 424q-14 14 -14 29zM528 465q0 14 17 31l391 424q15 18 39 18h110q17 0 21 -11t-8 -24l-398 -438l398 -436q12 -15 8 -26 t-21 -11h-110q-24 0 -39 20l-391 424q-17 14 -17 29z" />
<glyph unicode="&#xac;" horiz-adv-x="1107" d="M53 664v110q0 8 5.5 13.5t13.5 5.5h960q9 0 15 -5.5t6 -13.5v-375q0 -20 -21 -20h-102q-21 0 -21 20v246h-837q-8 0 -13.5 5.5t-5.5 13.5z" />
<glyph unicode="&#xad;" horiz-adv-x="923" d="M133 543v102q0 7 5.5 13t13.5 6h620q8 0 13.5 -6t5.5 -13v-102q0 -9 -5.5 -15t-13.5 -6h-620q-8 0 -13.5 6t-5.5 15z" />
<glyph unicode="&#xae;" horiz-adv-x="901" d="M74 1096q0 156 110.5 266.5t266.5 110.5q157 0 267.5 -110t110.5 -267q0 -156 -109.5 -265.5t-266.5 -109.5q-158 0 -268.5 109.5t-110.5 265.5zM125 1096q0 -134 95.5 -230t232.5 -96q135 0 230 96t95 230q0 136 -95 231.5t-232 95.5q-135 0 -230.5 -95.5t-95.5 -231.5z M301 930v338q0 16 16 16h148q61 0 100 -27t39 -86q0 -86 -98 -104l102 -133q7 -10 3.5 -15.5t-13.5 -5.5h-25q-14 0 -22 13l-102 135h-95v-133q0 -6 -5 -10.5t-11 -4.5h-23q-14 0 -14 17zM354 1106h103q94 0 94 68q0 63 -92 63h-105v-131z" />
<glyph unicode="&#xaf;" horiz-adv-x="1097" d="M119 1303v86q0 7 6 12.5t14 5.5h484q8 0 14 -5.5t6 -12.5v-86q0 -7 -6 -13t-14 -6h-484q-8 0 -14 6t-6 13z" />
<glyph unicode="&#xb0;" horiz-adv-x="704" d="M76 1214q0 116 80.5 196.5t195.5 80.5q116 0 196.5 -80.5t80.5 -196.5q0 -115 -80.5 -194.5t-196.5 -79.5t-196 79.5t-80 194.5zM147 1214q0 -88 58.5 -147t146.5 -59q87 0 147 59.5t60 146.5t-60 147t-147 60q-88 0 -146.5 -59.5t-58.5 -147.5z" />
<glyph unicode="&#xb1;" horiz-adv-x="1105" d="M59 18v103q0 9 5.5 14.5t13.5 5.5h950q8 0 13.5 -5.5t5.5 -14.5v-103q0 -7 -5.5 -12.5t-13.5 -5.5h-950q-8 0 -13.5 5.5t-5.5 12.5zM59 752v102q0 7 5.5 12.5t13.5 5.5h403v404q0 7 6.5 13.5t14.5 6.5h102q7 0 13 -6t6 -14v-404h405q8 0 13.5 -5.5t5.5 -12.5v-102 q0 -8 -6 -14.5t-13 -6.5h-405v-403q0 -8 -6 -14.5t-13 -6.5h-102q-8 0 -14.5 6.5t-6.5 14.5v403h-403q-7 0 -13 6.5t-6 14.5z" />
<glyph unicode="&#xb2;" horiz-adv-x="749" d="M129 700v27q0 68 16 114t58 89q41 40 129.5 87.5t120.5 76.5q49 43 49 106q0 64 -45 100q-44 35 -105 35q-80 0 -164 -55q-16 -10 -24 6l-19 37q-8 16 11 29q99 63 200 63t168 -61q66 -63 66 -152q0 -95 -72 -160q-41 -37 -126 -83t-118 -76q-49 -49 -49 -119h350 q7 0 13 -6.5t6 -14.5v-43q0 -7 -5.5 -12.5t-13.5 -5.5h-428q-7 0 -12.5 5t-5.5 13z" />
<glyph unicode="&#xb3;" horiz-adv-x="743" d="M139 743l17 39q8 16 26 4q67 -38 146 -38q78 0 122 37t44 100q0 90 -88 121q-35 12 -87 12h-20q-7 0 -12.5 5t-5.5 13v35q0 9 5 15t13 6h14q52 0 90 14q68 28 68 108q0 52 -36.5 86.5t-98.5 34.5q-70 0 -139 -41q-17 -10 -27 6l-16 35q-10 20 8 31q96 49 180 49 q97 0 155 -55t58 -137q0 -116 -109 -162q134 -48 134 -182q0 -92 -66 -149.5t-180 -57.5q-105 0 -187 45q-19 9 -8 26z" />
<glyph unicode="&#xb4;" horiz-adv-x="714" d="M188 1182q0 6 7 20l184 342q13 21 27 21h102q20 0 20 -17q0 -2 -2.5 -8t-3.5 -8l-213 -346q-11 -19 -28 -19h-76q-17 0 -17 15z" />
<glyph unicode="&#xb5;" horiz-adv-x="1044" d="M96 -332v1237q0 8 6 14.5t13 6.5h110q9 0 15 -6.5t6 -14.5v-510q0 -113 37 -180q67 -113 239 -113q89 0 148.5 30.5t87.5 82.5q39 66 39 180v510q0 8 6.5 14.5t13.5 6.5h111q7 0 12.5 -6.5t5.5 -14.5v-514q0 -88 -15.5 -148.5t-51.5 -113.5q-50 -72 -141.5 -110.5 t-215.5 -38.5q-111 0 -180 34q-66 31 -96 92v-438q0 -8 -6 -13t-15 -5h-110q-8 0 -13.5 5.5t-5.5 12.5z" />
<glyph unicode="&#xb6;" horiz-adv-x="1236" d="M59 1053q0 198 122.5 305.5t348.5 107.5h648q8 0 14 -5.5t6 -12.5v-88q0 -8 -6.5 -14.5t-13.5 -6.5h-205v-1728q0 -8 -6 -14.5t-13 -6.5h-98q-7 0 -12.5 6.5t-5.5 14.5v1728h-240v-1728q0 -8 -5.5 -14.5t-14.5 -6.5h-97q-7 0 -13.5 6.5t-6.5 14.5v1026q-188 10 -295 121 t-107 295z" />
<glyph unicode="&#xb7;" horiz-adv-x="342" d="M74 707q0 40 28.5 68t69.5 28t69.5 -28t28.5 -68q0 -41 -28.5 -70t-69.5 -29t-69.5 29t-28.5 70z" />
<glyph unicode="&#xb8;" horiz-adv-x="737" d="M125 -336q0 17 16 17q5 0 28.5 -2.5t45.5 -2.5q63 0 109.5 24.5t46.5 78.5q0 43 -36.5 64.5t-92.5 21.5q-23 0 -43 -2l14 155h80v-90q81 -6 131.5 -45.5t50.5 -107.5q0 -50 -24 -87t-63.5 -56.5t-81.5 -28.5t-87 -9q-38 0 -78 7q-16 4 -16 18v45z" />
<glyph unicode="&#xb9;" horiz-adv-x="745" d="M160 1274v33q0 21 20 28l189 72q16 8 26 8h21q18 0 18 -20v-631h144q9 0 14.5 -6.5t5.5 -14.5v-43q0 -18 -20 -18h-394q-8 0 -14 5.5t-6 12.5v43q0 8 6.5 14.5t13.5 6.5h158v547l-154 -56q-28 -12 -28 19z" />
<glyph unicode="&#xba;" horiz-adv-x="735" d="M76 1126q0 115 71 195q87 94 222 94q136 0 223 -94q72 -82 72 -195q0 -112 -72 -194q-87 -94 -223 -94q-135 0 -222 94q-71 80 -71 194zM170 1126q0 -83 49 -141q54 -67 150 -67q100 0 151 67q49 58 49 141q0 84 -49 142q-54 67 -151 67q-96 0 -150 -67q-49 -58 -49 -142 zM215 549v31q0 8 5.5 14t12.5 6h269q8 0 14 -6t6 -14v-31q0 -7 -6 -13t-14 -6h-269q-7 0 -12.5 5.5t-5.5 13.5z" />
<glyph unicode="&#xbb;" horiz-adv-x="1153" d="M45.5 920q-1.5 8 4.5 13t18 5h110q24 0 39 -18l391 -424q17 -21 17 -31q0 -12 -17 -29l-391 -424q-15 -20 -39 -20h-110q-18 0 -21.5 11t8.5 26l398 436l-398 438q-8 9 -9.5 17zM527.5 3q-3.5 11 7.5 26l397 436l-397 438q-11 13 -7.5 24t21.5 11h108q23 0 41 -18 l392 -424q14 -18 14 -31q0 -15 -14 -29l-392 -424q-18 -20 -41 -20h-108q-18 0 -21.5 11z" />
<glyph unicode="&#xbc;" horiz-adv-x="813" d="M61 463v43q0 7 6.5 13.5t14.5 6.5h651q7 0 13 -6t6 -14v-43q0 -7 -6 -13t-13 -6h-651q-8 0 -14.5 6t-6.5 13zM106 -221q0 16 15 37l319 450q14 23 41 23h35q8 0 13.5 -6t5.5 -15v-454h98q20 0 20 -21v-39q0 -18 -20 -18h-98v-154q0 -7 -5.5 -12.5t-13.5 -5.5h-51 q-8 0 -14.5 5.5t-6.5 12.5v154h-317q-8 0 -14.5 5.5t-6.5 12.5v25zM184 1274v33q0 20 21 28l188 72q16 8 27 8h20q21 0 21 -20v-631h143q7 0 13 -6.5t6 -14.5v-43q0 -7 -5.5 -12.5t-13.5 -5.5h-395q-8 0 -14.5 5.5t-6.5 12.5v43q0 7 7 14t14 7h158v547l-154 -56 q-29 -13 -29 19zM217 -186h227v325z" />
<glyph unicode="&#xbd;" horiz-adv-x="813" d="M61 463v43q0 7 6.5 13.5t14.5 6.5h651q7 0 13 -6t6 -14v-43q0 -7 -6 -13t-13 -6h-651q-8 0 -14.5 6t-6.5 13zM168 -385q0 69 15.5 114.5t58.5 88.5q41 41 129.5 88.5t120.5 75.5q49 43 49 106q0 65 -47 100q-41 35 -105 35q-81 0 -162 -55q-18 -11 -26 6l-17 37 q-11 16 9 29q102 63 202 63q102 0 166 -61q66 -60 66 -152q0 -97 -70 -160q-41 -37 -126 -82.5t-118 -76.5q-49 -49 -49 -119h350q7 0 13 -6.5t6 -14.5v-43q0 -7 -5.5 -12.5t-13.5 -5.5h-428q-8 0 -13 5t-5 13v27zM184 1274v33q0 20 21 28l188 72q16 8 27 8h20q21 0 21 -20 v-631h143q7 0 13 -6.5t6 -14.5v-43q0 -7 -5.5 -12.5t-13.5 -5.5h-395q-8 0 -14.5 5.5t-6.5 12.5v43q0 7 7 14t14 7h158v547l-154 -56q-29 -13 -29 19z" />
<glyph unicode="&#xbe;" horiz-adv-x="813" d="M61 463v43q0 7 6.5 13.5t14.5 6.5h651q7 0 13 -6t6 -14v-43q0 -7 -6 -13t-13 -6h-651q-8 0 -14.5 6t-6.5 13zM106 -221q0 16 15 37l319 450q14 23 41 23h35q8 0 13.5 -6t5.5 -15v-454h98q20 0 20 -21v-39q0 -18 -20 -18h-98v-154q0 -7 -5.5 -12.5t-13.5 -5.5h-51 q-8 0 -14.5 5.5t-6.5 12.5v154h-317q-8 0 -14.5 5.5t-6.5 12.5v25zM170 743l16 39q8 16 27 4q67 -38 145 -38t122 37t44 100q0 90 -88 121q-35 12 -86 12h-20q-8 0 -13.5 5.5t-5.5 12.5v35q0 9 5.5 15t13.5 6h14q52 0 90 14q68 28 68 108q0 52 -36.5 86.5t-98.5 34.5 q-71 0 -140 -41q-17 -10 -26 6l-17 35q-10 19 9 31q96 49 180 49q97 0 155 -55t58 -137q0 -116 -109 -162q133 -48 133 -182q0 -92 -65.5 -149.5t-179.5 -57.5q-105 0 -187 45q-19 9 -8 26zM217 -186h227v325z" />
<glyph unicode="&#xbf;" horiz-adv-x="987" d="M66 -90q0 77 28.5 139t70 103t111.5 92q112 80 150 141.5t41 157.5q3 20 25 20h75q18 0 25 -18q12 -40 12 -82q0 -106 -94 -203q-22 -24 -49 -47.5t-72 -59t-67 -53.5q-101 -84 -101 -190q0 -123 82 -195q78 -69 201 -69q116 0 204.5 43t172.5 116q6 5 14 3t12 -9l43 -84 q9 -15 -10 -30q-189 -174 -444 -174q-186 0 -306 108q-124 111 -124 291zM444 850q0 40 27.5 67t67.5 27t67 -27t27 -67t-27 -67t-67 -27t-67.5 27t-27.5 67z" />
<glyph unicode="&#xc0;" d="M8 14q0 11 4 19l531 1345q9 23 30 23h132q21 0 30 -23l529 -1345q6 -12 6 -19q0 -14 -21 -14h-125q-24 0 -30 20l-127 324h-662l-127 -324q-6 -20 -31 -20h-122q-17 0 -17 14zM348 477h578l-289 725zM467 1968q0 17 20 17h103q13 0 26 -21l185 -342q6 -12 6 -20 q0 -15 -16 -15h-76q-18 0 -29 19l-213 346q-6 9 -6 16z" />
<glyph unicode="&#xc1;" d="M8 14q0 11 4 19l531 1345q9 23 30 23h132q21 0 30 -23l529 -1345q6 -12 6 -19q0 -14 -21 -14h-125q-24 0 -30 20l-127 324h-662l-127 -324q-6 -20 -31 -20h-122q-17 0 -17 14zM348 477h578l-289 725zM467 1602q0 8 6 20l184 342q13 21 27 21h102q21 0 21 -17 q0 -2 -2.5 -8t-3.5 -8l-213 -346q-11 -19 -29 -19h-76q-16 0 -16 15z" />
<glyph unicode="&#xc2;" d="M8 14q0 11 4 19l531 1345q9 23 30 23h132q21 0 30 -23l529 -1345q6 -12 6 -19q0 -14 -21 -14h-125q-24 0 -30 20l-127 324h-662l-127 -324q-6 -20 -31 -20h-122q-17 0 -17 14zM257.5 1593.5q-2.5 8.5 6.5 18.5l318 354q16 16 28 16h54q12 0 28 -16l318 -354 q9 -10 6 -18.5t-15 -8.5h-94q-18 0 -35 17l-235 258l-236 -258q-17 -17 -34 -17h-95q-12 0 -14.5 8.5zM348 477h578l-289 725z" />
<glyph unicode="&#xc3;" d="M8 14q0 11 4 19l531 1345q9 23 30 23h132q21 0 30 -23l529 -1345q6 -12 6 -19q0 -14 -21 -14h-125q-24 0 -30 20l-127 324h-662l-127 -324q-6 -20 -31 -20h-122q-17 0 -17 14zM319 1753q0 84 45 135t128 51q74 0 157 -59q2 -1 13.5 -8.5t14.5 -9t13 -8t14 -8t13 -6 t14.5 -6t13.5 -4t15 -3t14 -0.5q84 0 92 78q3 20 21 20h47q24 0 24 -20q0 -85 -45 -136t-127 -51q-68 0 -155 60q-28 18 -42.5 26.5t-38.5 17.5t-46 9q-83 0 -92 -80q-7 -20 -21 -20h-47q-25 0 -25 22zM348 477h578l-289 725z" />
<glyph unicode="&#xc4;" d="M8 14q0 11 4 19l531 1345q9 23 30 23h132q21 0 30 -23l529 -1345q6 -12 6 -19q0 -14 -21 -14h-125q-24 0 -30 20l-127 324h-662l-127 -324q-6 -20 -31 -20h-122q-17 0 -17 14zM348 477h578l-289 725zM354 1780q0 37 26.5 63.5t63.5 26.5q38 0 64.5 -26.5t26.5 -63.5 t-26.5 -63.5t-64.5 -26.5q-37 0 -63.5 26.5t-26.5 63.5zM739 1780q0 37 26.5 63.5t63.5 26.5t64 -26.5t27 -63.5t-27 -63.5t-64 -26.5t-63.5 26.5t-26.5 63.5z" />
<glyph unicode="&#xc5;" d="M8 14q0 11 4 19l531 1345q9 23 30 23h132q21 0 30 -23l529 -1345q6 -12 6 -19q0 -14 -21 -14h-125q-24 0 -30 20l-127 324h-662l-127 -324q-6 -20 -31 -20h-122q-17 0 -17 14zM348 477h578l-289 725zM401 1765q0 98 70 168t168 70q97 0 166 -70t69 -168q0 -99 -69 -168 t-166 -69q-99 0 -168.5 69t-69.5 168zM477 1765q0 -69 47.5 -117.5t114.5 -48.5q66 0 114 48.5t48 117.5q0 67 -48 115.5t-114 48.5q-67 0 -114.5 -48t-47.5 -116z" />
<glyph unicode="&#xc6;" horiz-adv-x="2021" d="M9.5 10.5q-3.5 10.5 6.5 22.5l1035 1337q17 25 47 25h848q7 0 13.5 -6.5t6.5 -14.5v-104q0 -9 -6 -15t-14 -6h-711v-479h604q9 0 15 -5t6 -13v-107q0 -8 -6 -13t-15 -5h-604v-482h711q8 0 14 -6.5t6 -13.5v-107q0 -7 -6 -12.5t-14 -5.5h-852q-23 0 -23 20v324h-614 l-248 -324q-17 -20 -41 -20h-141q-14 0 -17.5 10.5zM557 477h514v670z" />
<glyph unicode="&#xc7;" horiz-adv-x="1306" d="M72 698q0 145 58 277t155.5 228t232.5 153t283 57q234 0 426 -110q21 -12 12 -31l-49 -103q-8 -19 -29 -6q-53 30 -95.5 49t-116.5 36.5t-152 17.5q-148 0 -276 -77t-203.5 -208t-75.5 -283q0 -166 76.5 -297.5t203.5 -202.5t277 -71q197 0 368 104q17 12 29 -6l49 -106 q6 -16 -10 -27q-187 -105 -401 -112v-52q81 -6 131.5 -45.5t50.5 -107.5q0 -50 -24 -87t-63.5 -56.5t-81.5 -28.5t-87 -9q-38 0 -78 7q-16 4 -16 18v45q0 17 16 17q5 0 28.5 -2.5t45.5 -2.5q63 0 109 24.5t46 78.5q0 43 -36.5 64.5t-92.5 21.5q-23 0 -43 -2l11 119 q-145 7 -270 61.5t-215 146t-141.5 222.5t-51.5 286z" />
<glyph unicode="&#xc8;" horiz-adv-x="1165" d="M113 18v1356q0 8 5.5 14.5t12.5 6.5h961q7 0 12.5 -6.5t5.5 -14.5v-104q0 -9 -5 -15t-13 -6h-816v-479h709q8 0 13.5 -5.5t5.5 -12.5v-107q0 -7 -5.5 -12.5t-13.5 -5.5h-709v-482h816q7 0 12.5 -6t5.5 -14v-107q0 -8 -5 -13t-13 -5h-961q-7 0 -12.5 5t-5.5 13zM389 1968 q0 17 21 17h102q14 0 27 -21l184 -342q6 -12 6 -20q0 -15 -16 -15h-76q-18 0 -29 19l-213 346q-6 9 -6 16z" />
<glyph unicode="&#xc9;" horiz-adv-x="1165" d="M113 18v1356q0 8 5.5 14.5t12.5 6.5h961q7 0 12.5 -6.5t5.5 -14.5v-104q0 -9 -5 -15t-13 -6h-816v-479h709q8 0 13.5 -5.5t5.5 -12.5v-107q0 -7 -5.5 -12.5t-13.5 -5.5h-709v-482h816q7 0 12.5 -6t5.5 -14v-107q0 -8 -5 -13t-13 -5h-961q-7 0 -12.5 5t-5.5 13zM467 1602 q0 8 6 20l184 342q13 21 27 21h102q21 0 21 -17q0 -2 -2.5 -8t-3.5 -8l-213 -346q-11 -19 -29 -19h-76q-16 0 -16 15z" />
<glyph unicode="&#xca;" horiz-adv-x="1165" d="M113 18v1356q0 8 5.5 14.5t12.5 6.5h961q7 0 12.5 -6.5t5.5 -14.5v-104q0 -9 -5 -15t-13 -6h-816v-479h709q8 0 13.5 -5.5t5.5 -12.5v-107q0 -7 -5.5 -12.5t-13.5 -5.5h-709v-482h816q7 0 12.5 -6t5.5 -14v-107q0 -8 -5 -13t-13 -5h-961q-7 0 -12.5 5t-5.5 13z M208.5 1593.5q-2.5 8.5 6.5 18.5l317 354q16 16 29 16h53q13 0 29 -16l318 -354q9 -10 6 -18.5t-15 -8.5h-94q-18 0 -35 17l-235 258l-236 -258q-17 -17 -35 -17h-94q-12 0 -14.5 8.5z" />
<glyph unicode="&#xcb;" horiz-adv-x="1165" d="M113 18v1356q0 8 5.5 14.5t12.5 6.5h961q7 0 12.5 -6.5t5.5 -14.5v-104q0 -9 -5 -15t-13 -6h-816v-479h709q8 0 13.5 -5.5t5.5 -12.5v-107q0 -7 -5.5 -12.5t-13.5 -5.5h-709v-482h816q7 0 12.5 -6t5.5 -14v-107q0 -8 -5 -13t-13 -5h-961q-7 0 -12.5 5t-5.5 13zM322 1780 q0 37 26.5 63.5t63.5 26.5q38 0 64 -26.5t26 -63.5t-26 -63.5t-64 -26.5q-37 0 -63.5 26.5t-26.5 63.5zM707 1780q0 37 26.5 63.5t63.5 26.5t63.5 -26.5t26.5 -63.5t-26.5 -63.5t-63.5 -26.5t-63.5 26.5t-26.5 63.5z" />
<glyph unicode="&#xcc;" horiz-adv-x="438" d="M45 1968q0 17 21 17h102q14 0 27 -21l184 -342q6 -12 6 -20q0 -15 -16 -15h-76q-18 0 -29 19l-213 346q-6 9 -6 16zM141 18v1356q0 8 6 14.5t13 6.5h125q7 0 13.5 -6.5t6.5 -14.5v-1356q0 -7 -6 -12.5t-14 -5.5h-125q-8 0 -13.5 5.5t-5.5 12.5z" />
<glyph unicode="&#xcd;" horiz-adv-x="438" d="M55 1602q0 8 6 20l185 342q13 21 26 21h103q20 0 20 -17q0 -2 -2.5 -8t-3.5 -8l-213 -346q-11 -19 -29 -19h-75q-17 0 -17 15zM135 18v1356q0 8 6 14.5t13 6.5h125q7 0 13.5 -6.5t6.5 -14.5v-1356q0 -7 -6 -12.5t-14 -5.5h-125q-8 0 -13.5 5.5t-5.5 12.5z" />
<glyph unicode="&#xce;" horiz-adv-x="385" d="M-186.5 1593.5q-2.5 8.5 6.5 18.5l317 354q16 16 29 16h53q13 0 29 -16l317 -354q9 -10 6.5 -18.5t-14.5 -8.5h-94q-18 0 -35 17l-235 258l-236 -258q-17 -17 -35 -17h-94q-12 0 -14.5 8.5zM113 18v1356q0 8 5.5 14.5t12.5 6.5h125q7 0 13.5 -6.5t6.5 -14.5v-1356 q0 -7 -6 -12.5t-14 -5.5h-125q-7 0 -12.5 5t-5.5 13z" />
<glyph unicode="&#xcf;" horiz-adv-x="434" d="M-63 1780q0 37 26.5 63.5t63.5 26.5q38 0 64 -26.5t26 -63.5t-26 -63.5t-64 -26.5q-37 0 -63.5 26.5t-26.5 63.5zM137 18v1356q0 8 6 14.5t13 6.5h125q7 0 13.5 -6.5t6.5 -14.5v-1356q0 -7 -6 -12.5t-14 -5.5h-125q-8 0 -13.5 5.5t-5.5 12.5zM322 1780q0 37 26.5 63.5 t63.5 26.5t63.5 -26.5t26.5 -63.5t-26.5 -63.5t-63.5 -26.5t-63.5 26.5t-26.5 63.5z" />
<glyph unicode="&#xd0;" horiz-adv-x="1490" d="M-39 647v101q0 8 6 13t15 5h172v608q0 8 5.5 14.5t12.5 6.5h500q380 0 581 -221q162 -183 162 -478q0 -202 -80.5 -355.5t-234.5 -240.5q-180 -100 -459 -100h-469q-8 0 -13 5t-5 13v609h-172q-9 0 -15 6t-6 14zM317 137h310q221 0 364 76q126 66 191 189t65 294 q0 245 -127 385q-152 174 -473 174h-330v-489h324q9 0 15 -5t6 -13v-101q0 -8 -6 -14t-15 -6h-324v-490z" />
<glyph unicode="&#xd1;" horiz-adv-x="1433" d="M113 18v1356q0 8 5.5 14.5t12.5 6.5h113q21 0 39 -21l880 -1110v1110q0 8 6 14.5t15 6.5h116q8 0 14.5 -6.5t6.5 -14.5v-1356q0 -7 -6.5 -12.5t-14.5 -5.5h-114q-22 0 -37 20l-881 1106v-1108q0 -8 -5 -13t-13 -5h-119q-7 0 -12.5 5t-5.5 13zM397 1753q0 84 44.5 135 t127.5 51q75 0 158 -59q2 -1 13.5 -8.5t14.5 -9t13 -8t14 -8t13 -6t14.5 -6t13.5 -4t15 -3t14 -0.5q84 0 92 78q3 20 21 20h47q24 0 24 -20q0 -85 -45 -136t-127 -51q-68 0 -155 60q-28 18 -42.5 26.5t-38.5 17.5t-46 9q-84 0 -93 -80q-7 -20 -20 -20h-47q-25 0 -25 22z" />
<glyph unicode="&#xd2;" horiz-adv-x="1601" d="M72 694q0 149 58 283t156.5 229t233 151t281.5 56t281 -56t232.5 -151t157 -229t58.5 -283t-58.5 -282.5t-157 -227.5t-232.5 -149t-281 -55t-281.5 55.5t-233 150t-156.5 227.5t-58 281zM244 694q0 -153 73.5 -282.5t201.5 -205t282 -75.5q153 0 281 76t201 205t73 282 t-73 283t-201 206.5t-281 76.5t-281.5 -76.5t-202 -206.5t-73.5 -283zM621 1968q0 17 20 17h102q14 0 27 -21l184 -342q7 -14 7 -20q0 -15 -17 -15h-76q-17 0 -28 19l-213 346q-6 9 -6 16z" />
<glyph unicode="&#xd3;" horiz-adv-x="1601" d="M72 694q0 149 58 283t156.5 229t233 151t281.5 56t281 -56t232.5 -151t157 -229t58.5 -283t-58.5 -282.5t-157 -227.5t-232.5 -149t-281 -55t-281.5 55.5t-233 150t-156.5 227.5t-58 281zM244 694q0 -153 73.5 -282.5t201.5 -205t282 -75.5q153 0 281 76t201 205t73 282 t-73 283t-201 206.5t-281 76.5t-281.5 -76.5t-202 -206.5t-73.5 -283zM637 1602q0 8 6 20l184 342q13 21 27 21h102q21 0 21 -17q0 -2 -2.5 -8t-3.5 -8l-213 -346q-11 -19 -29 -19h-76q-16 0 -16 15z" />
<glyph unicode="&#xd4;" horiz-adv-x="1601" d="M72 694q0 149 58 283t156.5 229t233 151t281.5 56t281 -56t232.5 -151t157 -229t58.5 -283t-58.5 -282.5t-157 -227.5t-232.5 -149t-281 -55t-281.5 55.5t-233 150t-156.5 227.5t-58 281zM244 694q0 -153 73.5 -282.5t201.5 -205t282 -75.5q153 0 281 76t201 205t73 282 t-73 283t-201 206.5t-281 76.5t-281.5 -76.5t-202 -206.5t-73.5 -283zM419.5 1593.5q-2.5 8.5 6.5 18.5l317 354q16 16 29 16h53q13 0 29 -16l317 -354q9 -10 6.5 -18.5t-14.5 -8.5h-94q-18 0 -35 17l-235 258l-236 -258q-17 -17 -35 -17h-94q-12 0 -14.5 8.5z" />
<glyph unicode="&#xd5;" horiz-adv-x="1601" d="M72 694q0 149 58 283t156.5 229t233 151t281.5 56t281 -56t232.5 -151t157 -229t58.5 -283t-58.5 -282.5t-157 -227.5t-232.5 -149t-281 -55t-281.5 55.5t-233 150t-156.5 227.5t-58 281zM244 694q0 -153 73.5 -282.5t201.5 -205t282 -75.5q153 0 281 76t201 205t73 282 t-73 283t-201 206.5t-281 76.5t-281.5 -76.5t-202 -206.5t-73.5 -283zM479 1753q0 84 44.5 135t127.5 51q75 0 158 -59q2 -1 13.5 -8.5t14.5 -9t13 -8t14 -8t13 -6t14.5 -6t13.5 -4t15 -3t14 -0.5q84 0 92 78q3 20 21 20h47q24 0 24 -20q0 -85 -45 -136t-127 -51 q-68 0 -155 60q-28 18 -42.5 26.5t-38.5 17.5t-46 9q-84 0 -93 -80q-7 -20 -20 -20h-47q-25 0 -25 22z" />
<glyph unicode="&#xd6;" horiz-adv-x="1601" d="M72 694q0 149 58 283t156.5 229t233 151t281.5 56t281 -56t232.5 -151t157 -229t58.5 -283t-58.5 -282.5t-157 -227.5t-232.5 -149t-281 -55t-281.5 55.5t-233 150t-156.5 227.5t-58 281zM244 694q0 -153 73.5 -282.5t201.5 -205t282 -75.5q153 0 281 76t201 205t73 282 t-73 283t-201 206.5t-281 76.5t-281.5 -76.5t-202 -206.5t-73.5 -283zM516 1780q0 37 26.5 63.5t63.5 26.5q38 0 64 -26.5t26 -63.5t-26 -63.5t-64 -26.5q-37 0 -63.5 26.5t-26.5 63.5zM901 1780q0 37 26.5 63.5t63.5 26.5t63.5 -26.5t26.5 -63.5t-26.5 -63.5t-63.5 -26.5 t-63.5 26.5t-26.5 63.5z" />
<glyph unicode="&#xd7;" horiz-adv-x="960" d="M40 1070q0 8 5 13l74 74q5 5 13 5t13 -5l334 -334l336 334q4 6 13 6t14 -6l73 -74q11 -11 0 -26l-335 -334l335 -336q5 -5 5 -14t-5 -13l-73 -73q-4 -5 -13 -5t-14 5l-336 336l-334 -336q-5 -5 -13 -5t-13 5l-74 73q-11 14 0 29l334 334l-334 334q-5 5 -5 13z" />
<glyph unicode="&#xd8;" horiz-adv-x="1601" d="M72 694q0 149 58 283t156.5 229t233 151t281.5 56q235 0 428 -137l84 98q17 21 33 21h92q13 0 17.5 -10t-3.5 -19l-137 -160q101 -99 158 -231t57 -281t-58.5 -282.5t-157 -227.5t-232.5 -149t-281 -55q-236 0 -428 133l-82 -95q-18 -18 -31 -18h-96q-13 0 -17.5 8 t3.5 19l137 157q-102 99 -158.5 230t-56.5 280zM244 694q0 -228 149 -387l731 848q-143 105 -323 105q-153 0 -281.5 -76.5t-202 -206.5t-73.5 -283zM475 233q142 -102 326 -102q153 0 281 76t201 205t73 282q0 221 -150 387z" />
<glyph unicode="&#xd9;" horiz-adv-x="1398" d="M111 551v823q0 8 5.5 14.5t14.5 6.5h123q9 0 14.5 -6.5t5.5 -14.5v-805q0 -200 105 -317q110 -125 319 -125q212 0 322 125q106 115 106 317v805q0 8 6 14.5t13 6.5h125q7 0 13.5 -6.5t6.5 -14.5v-823q0 -247 -135 -397q-157 -174 -455 -174q-297 0 -454 174 q-135 150 -135 397zM522 1968q0 17 21 17h102q14 0 27 -21l184 -342q6 -12 6 -20q0 -15 -16 -15h-76q-18 0 -29 19l-213 346q-6 9 -6 16z" />
<glyph unicode="&#xda;" horiz-adv-x="1398" d="M111 551v823q0 8 5.5 14.5t14.5 6.5h123q9 0 14.5 -6.5t5.5 -14.5v-805q0 -200 105 -317q110 -125 319 -125q212 0 322 125q106 115 106 317v805q0 8 6 14.5t13 6.5h125q7 0 13.5 -6.5t6.5 -14.5v-823q0 -247 -135 -397q-157 -174 -455 -174q-297 0 -454 174 q-135 150 -135 397zM537 1602q0 8 6 20l184 342q13 21 27 21h102q21 0 21 -17q0 -2 -3 -8l-4 -8l-213 -346q-11 -19 -28 -19h-76q-16 0 -16 15z" />
<glyph unicode="&#xdb;" horiz-adv-x="1398" d="M111 551v823q0 8 5.5 14.5t14.5 6.5h123q9 0 14.5 -6.5t5.5 -14.5v-805q0 -200 105 -317q110 -125 319 -125q212 0 322 125q106 115 106 317v805q0 8 6 14.5t13 6.5h125q7 0 13.5 -6.5t6.5 -14.5v-823q0 -247 -135 -397q-157 -174 -455 -174q-297 0 -454 174 q-135 150 -135 397zM319.5 1593.5q-2.5 8.5 6.5 18.5l317 354q16 16 29 16h53q13 0 29 -16l317 -354q9 -10 6.5 -18.5t-14.5 -8.5h-94q-18 0 -35 17l-236 258l-235 -258q-17 -17 -35 -17h-94q-12 0 -14.5 8.5z" />
<glyph unicode="&#xdc;" horiz-adv-x="1398" d="M111 551v823q0 8 5.5 14.5t14.5 6.5h123q9 0 14.5 -6.5t5.5 -14.5v-805q0 -200 105 -317q110 -125 319 -125q212 0 322 125q106 115 106 317v805q0 8 6 14.5t13 6.5h125q7 0 13.5 -6.5t6.5 -14.5v-823q0 -247 -135 -397q-157 -174 -455 -174q-297 0 -454 174 q-135 150 -135 397zM418 1780q0 37 26.5 63.5t63.5 26.5q38 0 64 -26.5t26 -63.5t-26 -63.5t-64 -26.5q-37 0 -63.5 26.5t-26.5 63.5zM803 1780q0 37 26.5 63.5t63.5 26.5t63.5 -26.5t26.5 -63.5t-26.5 -63.5t-63.5 -26.5t-63.5 26.5t-26.5 63.5z" />
<glyph unicode="&#xdd;" horiz-adv-x="1249" d="M3 1384.5q4 10.5 20 10.5h141q21 0 33 -21l426 -600l428 600q11 21 30 21h144q14 0 18 -10.5t-4 -20.5l-534 -752v-594q0 -8 -6 -13t-15 -5h-123q-20 0 -20 18v594l-533 752q-9 10 -5 20.5zM471 1602q0 8 6 20l185 342q13 21 26 21h103q20 0 20 -17q0 -2 -2.5 -8t-3.5 -8 l-213 -346q-11 -19 -29 -19h-76q-16 0 -16 15z" />
<glyph unicode="&#xde;" horiz-adv-x="1222" d="M113 20v1354q0 8 5.5 14.5t12.5 6.5h125q7 0 13.5 -6.5t6.5 -14.5v-221h404q197 0 321 -98q78 -60 121 -152.5t43 -208.5q0 -117 -47 -213t-131 -157q-117 -88 -328 -88h-383v-216q0 -8 -6 -14t-14 -6h-125q-7 0 -12.5 6t-5.5 14zM276 379h357q164 0 248 61 q118 85 118 254q0 162 -106 244q-90 72 -238 72h-379v-631z" />
<glyph unicode="&#xdf;" horiz-adv-x="1069" d="M109 -117v1135q0 171 84 272q99 123 292 123q188 0 285 -84q94 -81 94 -215q0 -57 -20.5 -102t-50.5 -71.5t-66 -48t-66 -34.5t-50.5 -29.5t-20.5 -33.5q0 -26 28.5 -47t95 -51.5t93.5 -45.5q91 -52 142.5 -123.5t51.5 -179.5q0 -165 -116 -272q-107 -96 -269 -96 q-191 0 -309 92q-16 13 -8 28l41 82q11 19 27 6q97 -82 245 -82q109 0 176 64q70 64 70 168q0 24 -6 47t-13 39.5t-24.5 36t-28 30.5t-36.5 29t-37 25t-42 26t-40 25q-8 5 -31 18.5t-31 18.5t-27.5 17t-26.5 18.5t-21 18.5t-19.5 21.5t-13 22.5t-10 26.5t-2.5 28.5 q0 30 19.5 54t49 38.5t63.5 34t63.5 39.5t49 57t19.5 85q0 88 -56 141q-58 55 -168 55q-118 0 -178 -78q-53 -65 -53 -194v-1135q0 -8 -5.5 -14t-12.5 -6h-111q-7 0 -13.5 6.5t-6.5 13.5z" />
<glyph unicode="&#xe0;" horiz-adv-x="909" d="M59 252q0 169 191 242q137 51 414 65v31q0 116 -48 176q-53 63 -167 63q-150 0 -283 -86q-23 -10 -29 7l-33 69q-8 16 11 27q143 96 352 96q182 0 270 -100q76 -86 76 -250v-574q0 -8 -5.5 -13t-12.5 -5h-97q-8 0 -13 5t-5 13v33h-8q-121 -71 -279 -71q-138 0 -229 65 q-105 77 -105 207zM203 256q0 -85 73 -131q62 -37 160 -37q132 0 228 62v311q-203 -5 -308 -37q-153 -48 -153 -168zM285 1550q0 17 20 17h103q13 0 26 -21l184 -342q7 -14 7 -20q0 -15 -17 -15h-76q-17 0 -28 19l-213 346q-6 9 -6 16z" />
<glyph unicode="&#xe1;" horiz-adv-x="909" d="M59 252q0 169 191 242q137 51 414 65v31q0 116 -48 176q-53 63 -167 63q-150 0 -283 -86q-23 -10 -29 7l-33 69q-8 16 11 27q143 96 352 96q182 0 270 -100q76 -86 76 -250v-574q0 -8 -5.5 -13t-12.5 -5h-97q-8 0 -13 5t-5 13v33h-8q-121 -71 -279 -71q-138 0 -229 65 q-105 77 -105 207zM203 256q0 -85 73 -131q62 -37 160 -37q132 0 228 62v311q-203 -5 -308 -37q-153 -48 -153 -168zM295 1182q0 8 6 20l184 342q13 21 27 21h102q21 0 21 -17q0 -2 -2.5 -8t-3.5 -8l-213 -346q-11 -19 -29 -19h-76q-16 0 -16 15z" />
<glyph unicode="&#xe2;" horiz-adv-x="935" d="M59 252q0 169 191 242q137 51 414 65v31q0 116 -48 176q-53 63 -167 63q-150 0 -283 -86q-23 -10 -29 7l-33 69q-8 16 11 27q143 96 352 96q182 0 270 -100q76 -86 76 -250v-574q0 -8 -5.5 -13t-12.5 -5h-97q-8 0 -13 5t-5 13v33h-8q-121 -71 -279 -71q-138 0 -229 65 q-105 77 -105 207zM79.5 1175.5q-2.5 8.5 6.5 18.5l317 354q17 17 29 17h53q12 0 29 -17l317 -354q9 -10 6.5 -18.5t-14.5 -8.5h-94q-18 0 -35 17l-235 258l-236 -258q-17 -17 -35 -17h-94q-12 0 -14.5 8.5zM203 256q0 -85 73 -131q62 -37 160 -37q132 0 228 62v311 q-203 -5 -308 -37q-153 -48 -153 -168z" />
<glyph unicode="&#xe3;" horiz-adv-x="909" d="M59 252q0 169 191 242q137 51 414 65v31q0 116 -48 176q-53 63 -167 63q-150 0 -283 -86q-23 -10 -29 7l-33 69q-8 16 11 27q143 96 352 96q182 0 270 -100q76 -86 76 -250v-574q0 -8 -5.5 -13t-12.5 -5h-97q-8 0 -13 5t-5 13v33h-8q-121 -71 -279 -71q-138 0 -229 65 q-105 77 -105 207zM135 1290q0 84 44.5 135.5t127.5 51.5q74 0 158 -60q2 -1 13.5 -8.5t14.5 -9t13 -8t14 -8t13 -6t14.5 -6t13.5 -4t15 -3t14 -0.5q84 0 92 78q3 20 20 20h48q24 0 24 -20q0 -85 -45 -136t-127 -51q-69 0 -156 60q-28 18 -42.5 26.5t-38.5 17.5t-46 9 q-83 0 -92 -80q-7 -20 -20 -20h-47q-25 0 -25 22zM203 256q0 -85 73 -131q62 -37 160 -37q132 0 228 62v311q-203 -5 -308 -37q-153 -48 -153 -168z" />
<glyph unicode="&#xe4;" horiz-adv-x="921" d="M66 252q0 170 190 242q137 51 414 65v31q0 118 -47 176q-53 63 -168 63q-150 0 -283 -86q-23 -10 -29 7l-32 69q-8 17 10 27q143 96 352 96q182 0 270 -100q76 -86 76 -250v-574q0 -8 -5.5 -13t-12.5 -5h-96q-8 0 -13.5 5.5t-5.5 12.5v33h-8q-121 -71 -279 -71 q-138 0 -229 65q-104 77 -104 207zM182 1366q0 37 26.5 63.5t63.5 26.5q38 0 64 -26.5t26 -63.5t-26 -63.5t-64 -26.5q-37 0 -63.5 26.5t-26.5 63.5zM209 256q0 -85 74 -131q62 -37 159 -37q132 0 228 62v311q-203 -5 -308 -37q-153 -48 -153 -168zM567 1366q0 37 26.5 63.5 t63.5 26.5t64 -26.5t27 -63.5t-27 -63.5t-64 -26.5t-63.5 26.5t-26.5 63.5z" />
<glyph unicode="&#xe5;" horiz-adv-x="909" d="M59 252q0 169 191 242q137 51 414 65v31q0 116 -48 176q-53 63 -167 63q-150 0 -283 -86q-23 -10 -29 7l-33 69q-8 16 11 27q143 96 352 96q182 0 270 -100q76 -86 76 -250v-574q0 -8 -5.5 -13t-12.5 -5h-97q-8 0 -13 5t-5 13v33h-8q-121 -71 -279 -71q-138 0 -229 65 q-105 77 -105 207zM203 256q0 -85 73 -131q62 -37 160 -37q132 0 228 62v311q-203 -5 -308 -37q-153 -48 -153 -168zM221 1356q0 98 70 167.5t168 69.5q97 0 166 -69.5t69 -167.5q0 -99 -69 -168.5t-166 -69.5q-99 0 -168.5 69.5t-69.5 168.5zM297 1356q0 -69 47.5 -117.5 t114.5 -48.5q66 0 114 48.5t48 117.5q0 67 -48 115.5t-114 48.5q-67 0 -114.5 -48t-47.5 -116z" />
<glyph unicode="&#xe6;" horiz-adv-x="1630" d="M66 246q0 144 172 211q153 62 432 71v62q0 118 -47 176q-51 61 -166 61q-157 0 -285 -82q-22 -15 -29 5l-32 69q-7 18 10 27q146 96 352 96q117 0 189 -43q74 -51 108 -162q44 89 133 148q94 57 227 57q214 0 338 -147q104 -131 95 -340q0 -23 -23 -23h-713 q6 -134 78 -221q94 -115 260 -115q150 0 285 82q20 14 31 -4l37 -70q7 -12 -11 -26q-62 -42 -155 -70t-195 -28q-239 0 -375 157q-96 -89 -182 -121q-88 -36 -219 -36q-140 0 -225 73q-90 74 -90 193zM209 250q0 -76 63 -121q56 -41 152 -41q100 0 168 29q67 25 141 96 q-56 95 -59 217q-82 0 -181.5 -12.5t-164.5 -36.5q-119 -43 -119 -131zM827 528h592q-3 128 -73 207q-80 90 -213 90q-152 0 -234 -98q-66 -82 -72 -199z" />
<glyph unicode="&#xe7;" horiz-adv-x="923" d="M68 461q0 182 104 305q70 85 172.5 130.5t222.5 45.5q164 0 283 -82q17 -14 10 -26l-43 -78q-7 -20 -31 -6q-101 63 -219 63q-80 0 -149.5 -30t-116.5 -87q-82 -95 -82 -235q0 -158 94 -258q93 -99 256 -99q127 0 224 58q22 16 30 -4l41 -76q8 -13 -10 -27 q-104 -69 -258 -75v-52q81 -6 131.5 -45.5t50.5 -107.5q0 -50 -24 -87t-63.5 -56.5t-81.5 -28.5t-87 -9q-38 0 -78 7q-16 4 -16 18v45q0 17 16 17q5 0 28.5 -2.5t45.5 -2.5q63 0 109.5 24.5t46.5 78.5q0 43 -36.5 64.5t-92.5 21.5q-23 0 -43 -2l10 119q-201 15 -317 137 q-127 127 -127 342z" />
<glyph unicode="&#xe8;" horiz-adv-x="1028" d="M68 473q0 203 122 334q125 135 338 135q216 0 336 -147q103 -130 97 -340q-3 -23 -25 -23h-713q6 -129 78 -221q97 -115 264 -115q146 0 281 82q19 12 31 -4l36 -70q8 -13 -8 -26q-62 -42 -156.5 -70t-195.5 -28q-235 0 -365 149q-120 132 -120 344zM223 528h594 q-6 128 -76 207q-80 90 -213 90q-149 0 -231 -98q-68 -80 -74 -199zM338 1550q0 17 20 17h103q13 0 26 -21l185 -342q6 -12 6 -20q0 -15 -16 -15h-76q-18 0 -29 19l-213 346q-6 9 -6 16z" />
<glyph unicode="&#xe9;" horiz-adv-x="1028" d="M68 473q0 203 122 334q125 135 338 135q216 0 336 -147q103 -130 97 -340q-3 -23 -25 -23h-713q6 -129 78 -221q97 -115 264 -115q146 0 281 82q19 12 31 -4l36 -70q8 -13 -8 -26q-62 -42 -156.5 -70t-195.5 -28q-235 0 -365 149q-120 132 -120 344zM223 528h594 q-6 128 -76 207q-80 90 -213 90q-149 0 -231 -98q-68 -80 -74 -199zM346 1182q0 8 6 20l185 342q13 21 26 21h103q20 0 20 -17q0 -2 -2.5 -8t-3.5 -8l-213 -346q-11 -19 -29 -19h-76q-16 0 -16 15z" />
<glyph unicode="&#xea;" horiz-adv-x="1028" d="M68 473q0 203 122 334q125 135 338 135q216 0 336 -147q103 -130 97 -340q-3 -23 -25 -23h-713q6 -129 78 -221q97 -115 264 -115q146 0 281 82q19 12 31 -4l36 -70q8 -13 -8 -26q-62 -42 -156.5 -70t-195.5 -28q-235 0 -365 149q-120 132 -120 344zM130.5 1175.5 q-2.5 8.5 6.5 18.5l318 354q17 17 28 17h54q11 0 28 -17l318 -354q9 -10 6 -18.5t-15 -8.5h-94q-18 0 -35 17l-235 258l-236 -258q-17 -17 -34 -17h-95q-12 0 -14.5 8.5zM223 528h594q-6 128 -76 207q-80 90 -213 90q-149 0 -231 -98q-68 -80 -74 -199z" />
<glyph unicode="&#xeb;" horiz-adv-x="1028" d="M68 473q0 203 122 334q125 135 338 135q216 0 336 -147q103 -130 97 -340q-3 -23 -25 -23h-713q6 -129 78 -221q97 -115 264 -115q146 0 281 82q19 12 31 -4l36 -70q8 -13 -8 -26q-62 -42 -156.5 -70t-195.5 -28q-235 0 -365 149q-120 132 -120 344zM223 528h594 q-6 128 -76 207q-80 90 -213 90q-149 0 -231 -98q-68 -80 -74 -199zM227 1366q0 37 26.5 63.5t63.5 26.5q38 0 64.5 -26.5t26.5 -63.5t-26.5 -63.5t-64.5 -26.5q-37 0 -63.5 26.5t-26.5 63.5zM612 1366q0 37 26.5 63.5t63.5 26.5t64 -26.5t27 -63.5t-27 -63.5t-64 -26.5 t-63.5 26.5t-26.5 63.5z" />
<glyph unicode="&#xec;" horiz-adv-x="419" d="M37 1550q0 17 20 17h103q13 0 26 -21l185 -342q6 -12 6 -20q0 -15 -17 -15h-75q-18 0 -29 19l-213 346q-6 9 -6 16zM135 18v887q0 7 6.5 14t14.5 7h110q7 0 13 -6.5t6 -14.5v-887q0 -7 -5.5 -12.5t-13.5 -5.5h-110q-8 0 -14.5 5.5t-6.5 12.5z" />
<glyph unicode="&#xed;" horiz-adv-x="419" d="M43 1182q0 8 6 20l184 342q13 21 27 21h102q21 0 21 -17q0 -2 -2.5 -8t-3.5 -8l-213 -346q-11 -19 -29 -19h-76q-16 0 -16 15zM133 18v887q0 7 6.5 14t14.5 7h110q7 0 13 -6.5t6 -14.5v-887q0 -7 -5.5 -12.5t-13.5 -5.5h-110q-8 0 -14.5 5.5t-6.5 12.5z" />
<glyph unicode="&#xee;" horiz-adv-x="356" d="M-201 1175.5q-3 8.5 6 18.5l318 354q17 17 29 17h53q11 0 28 -17l318 -354q9 -10 6.5 -18.5t-14.5 -8.5h-94q-18 0 -35 17l-236 258l-235 -258q-17 -17 -35 -17h-94q-12 0 -15 8.5zM102 18v887q0 7 7 14t14 7h110q7 0 13 -6.5t6 -14.5v-887q0 -7 -5.5 -12.5t-13.5 -5.5 h-110q-8 0 -14.5 5.5t-6.5 12.5z" />
<glyph unicode="&#xef;" horiz-adv-x="405" d="M-78 1366q0 37 26.5 63.5t63.5 26.5q38 0 64 -26.5t26 -63.5t-26 -63.5t-64 -26.5q-37 0 -63.5 26.5t-26.5 63.5zM129 18v887q0 7 6.5 14t14.5 7h110q7 0 13 -6.5t6 -14.5v-887q0 -7 -5.5 -12.5t-13.5 -5.5h-110q-8 0 -14.5 5.5t-6.5 12.5zM307 1366q0 37 26.5 63.5 t63.5 26.5t63.5 -26.5t26.5 -63.5t-26.5 -63.5t-63.5 -26.5t-63.5 26.5t-26.5 63.5z" />
<glyph unicode="&#xf0;" horiz-adv-x="997" d="M68 424q0 176 112 285q60 60 140 92.5t161 32.5q128 0 240 -74q-33 98 -95 195t-139 175l-188 -147q-16 -12 -27 2l-41 51q-11 15 7 29l170 133q-53 53 -150 121q-18 11 -6 27l70 69q12 15 32 2q96 -64 168 -133l168 133q6 5 15 5.5t14 -5.5l39 -53q12 -16 -2 -27 l-158 -123q152 -159 242 -356.5t90 -400.5q0 -117 -34.5 -209.5t-95 -150t-138.5 -87.5t-168 -30q-168 0 -283 98q-143 124 -143 346zM207 424q0 -144 77 -232t208 -88q128 0 212 90t84 263q0 78 -20 176q-124 82 -262 82q-53 0 -104.5 -18t-96 -52.5t-71.5 -92t-27 -128.5z " />
<glyph unicode="&#xf1;" horiz-adv-x="1058" d="M109 18v887q0 8 6.5 14.5t13.5 6.5h104q7 0 14 -7t7 -14v-149h6q34 74 109 127q88 59 215 59q173 0 266 -84q111 -94 111 -309v-531q0 -7 -5.5 -12.5t-13.5 -5.5h-111q-20 0 -20 18v500q0 168 -74 242q-65 59 -184 59q-163 0 -240 -127q-55 -89 -55 -217v-457 q0 -8 -5 -13t-13 -5h-111q-8 0 -14 5.5t-6 12.5zM203 1290q0 84 44.5 135.5t127.5 51.5q73 0 157 -60q2 -1 13.5 -8.5t14.5 -9t13 -8t14 -8t13 -6t14.5 -6t13.5 -4t15 -3t14 -0.5q85 0 93 78q3 20 20 20h47q25 0 25 -20q0 -85 -45 -136t-127 -51q-69 0 -156 60 q-28 18 -42.5 26.5t-38.5 17.5t-46 9q-83 0 -92 -80q-7 -20 -21 -20h-47q-24 0 -24 22z" />
<glyph unicode="&#xf2;" horiz-adv-x="1116" d="M68 461q0 208 137 342q67 67 158 103t194 36t194 -36t158 -103q138 -135 138 -342t-138 -342q-67 -67 -158 -103t-194 -36t-194 36t-158 103q-137 134 -137 342zM215 461q0 -152 92 -250q95 -109 250 -109t250 109q92 98 92 250t-92 250q-94 108 -250 108t-250 -108 q-92 -98 -92 -250zM381 1550q0 17 20 17h103q13 0 26 -21l185 -342q6 -12 6 -20q0 -15 -16 -15h-76q-18 0 -29 19l-213 346q-6 9 -6 16z" />
<glyph unicode="&#xf3;" horiz-adv-x="1116" d="M68 461q0 208 137 342q67 67 158 103t194 36t194 -36t158 -103q138 -135 138 -342t-138 -342q-67 -67 -158 -103t-194 -36t-194 36t-158 103q-137 134 -137 342zM215 461q0 -152 92 -250q95 -109 250 -109t250 109q92 98 92 250t-92 250q-94 108 -250 108t-250 -108 q-92 -98 -92 -250zM389 1182q0 8 6 20l185 342q13 21 26 21h103q20 0 20 -17q0 -2 -2.5 -8t-3.5 -8l-213 -346q-11 -19 -29 -19h-75q-17 0 -17 15z" />
<glyph unicode="&#xf4;" horiz-adv-x="1116" d="M68 461q0 208 137 342q67 67 158 103t194 36t194 -36t158 -103q138 -135 138 -342t-138 -342q-67 -67 -158 -103t-194 -36t-194 36t-158 103q-137 134 -137 342zM175.5 1175.5q-2.5 8.5 6.5 18.5l318 354q17 17 28 17h54q11 0 28 -17l318 -354q9 -10 6.5 -18.5 t-14.5 -8.5h-95q-17 0 -34 17l-236 258l-236 -258q-17 -17 -34 -17h-95q-12 0 -14.5 8.5zM215 461q0 -152 92 -250q95 -109 250 -109t250 109q92 98 92 250t-92 250q-94 108 -250 108t-250 -108q-92 -98 -92 -250z" />
<glyph unicode="&#xf5;" horiz-adv-x="1116" d="M68 461q0 208 137 342q67 67 158 103t194 36t194 -36t158 -103q138 -135 138 -342t-138 -342q-67 -67 -158 -103t-194 -36t-194 36t-158 103q-137 134 -137 342zM215 461q0 -152 92 -250q95 -109 250 -109t250 109q92 98 92 250t-92 250q-94 108 -250 108t-250 -108 q-92 -98 -92 -250zM231 1290q0 84 44.5 135.5t127.5 51.5q74 0 158 -60q2 -1 13.5 -8.5t14.5 -9t13 -8t14 -8t13 -6t14.5 -6t13.5 -4t15 -3t14 -0.5q84 0 92 78q3 20 21 20h47q24 0 24 -20q0 -85 -45 -136t-127 -51q-68 0 -155 60q-28 18 -42.5 26.5t-38.5 17.5t-46 9 q-83 0 -92 -80q-7 -20 -21 -20h-47q-25 0 -25 22z" />
<glyph unicode="&#xf6;" horiz-adv-x="1116" d="M68 461q0 208 137 342q67 67 158 103t194 36t194 -36t158 -103q138 -135 138 -342t-138 -342q-67 -67 -158 -103t-194 -36t-194 36t-158 103q-137 134 -137 342zM215 461q0 -152 92 -250q95 -109 250 -109t250 109q92 98 92 250t-92 250q-94 108 -250 108t-250 -108 q-92 -98 -92 -250zM272 1366q0 37 26.5 63.5t63.5 26.5q38 0 64.5 -26.5t26.5 -63.5t-26.5 -63.5t-64.5 -26.5q-37 0 -63.5 26.5t-26.5 63.5zM657 1366q0 37 27 63.5t64 26.5t63.5 -26.5t26.5 -63.5t-26.5 -63.5t-63.5 -26.5t-64 26.5t-27 63.5z" />
<glyph unicode="&#xf7;" horiz-adv-x="1150" d="M59 672v102q0 8 5.5 13.5t13.5 5.5h993q8 0 14.5 -6t6.5 -13v-102q0 -9 -6.5 -15t-14.5 -6h-993q-8 0 -13.5 6t-5.5 15zM479 1163q0 38 28 65t68 27q38 0 65.5 -27t27.5 -65q0 -39 -27 -66.5t-66 -27.5q-40 0 -68 27t-28 67zM481 281q0 41 27 68.5t67 27.5t67.5 -27.5 t27.5 -68.5q0 -38 -27.5 -65.5t-67.5 -27.5q-39 0 -66.5 27t-27.5 66z" />
<glyph unicode="&#xf8;" horiz-adv-x="1128" d="M68 461q0 208 137 342q67 67 158 103t194 36q163 0 291 -88l45 51q17 21 31 21h55q13 0 17 -9t-5 -20l-82 -94q138 -135 138 -342t-138 -342q-67 -67 -158 -103t-194 -36q-163 0 -285 81l-36 -43q-15 -18 -31 -18h-55q-14 0 -18.5 7t5.5 20l74 86l-6 6q-137 134 -137 342 zM215 461q0 -149 86 -244l461 535q-86 67 -205 67q-156 0 -250 -108q-92 -98 -92 -250zM360 162q86 -60 197 -60q155 0 250 109q92 98 92 250q0 139 -80 235z" />
<glyph unicode="&#xf9;" horiz-adv-x="1044" d="M96 391v514q0 8 6 14.5t13 6.5h110q9 0 15 -6.5t6 -14.5v-510q0 -113 37 -180q67 -113 239 -113q89 0 148.5 30.5t87.5 82.5q39 66 39 180v510q0 8 6.5 14.5t13.5 6.5h111q7 0 12.5 -6.5t5.5 -14.5v-514q0 -88 -15.5 -148.5t-51.5 -113.5q-50 -72 -141.5 -110.5 t-215.5 -38.5q-256 0 -358 149q-36 53 -52 113.5t-16 148.5zM346 1550q0 17 21 17h102q14 0 27 -21l184 -342q6 -12 6 -20q0 -15 -16 -15h-76q-18 0 -29 19l-213 346q-6 9 -6 16z" />
<glyph unicode="&#xfa;" horiz-adv-x="1044" d="M96 391v514q0 8 6 14.5t13 6.5h110q9 0 15 -6.5t6 -14.5v-510q0 -113 37 -180q67 -113 239 -113q89 0 148.5 30.5t87.5 82.5q39 66 39 180v510q0 8 6.5 14.5t13.5 6.5h111q7 0 12.5 -6.5t5.5 -14.5v-514q0 -88 -15.5 -148.5t-51.5 -113.5q-50 -72 -141.5 -110.5 t-215.5 -38.5q-256 0 -358 149q-36 53 -52 113.5t-16 148.5zM354 1182q0 8 6 20l185 342q13 21 26 21h103q20 0 20 -17q0 -2 -2.5 -8t-3.5 -8l-213 -346q-11 -19 -29 -19h-75q-17 0 -17 15z" />
<glyph unicode="&#xfb;" horiz-adv-x="1044" d="M96 391v514q0 8 6 14.5t13 6.5h110q9 0 15 -6.5t6 -14.5v-510q0 -113 37 -180q67 -113 239 -113q89 0 148.5 30.5t87.5 82.5q39 66 39 180v510q0 8 6.5 14.5t13.5 6.5h111q7 0 12.5 -6.5t5.5 -14.5v-514q0 -88 -15.5 -148.5t-51.5 -113.5q-50 -72 -141.5 -110.5 t-215.5 -38.5q-256 0 -358 149q-36 53 -52 113.5t-16 148.5zM141 1175.5q-3 8.5 6 18.5l318 354q17 17 29 17h53q11 0 28 -17l318 -354q9 -10 6.5 -18.5t-14.5 -8.5h-94q-18 0 -35 17l-236 258l-235 -258q-17 -17 -35 -17h-94q-12 0 -15 8.5z" />
<glyph unicode="&#xfc;" horiz-adv-x="1044" d="M96 391v514q0 8 6 14.5t13 6.5h110q9 0 15 -6.5t6 -14.5v-510q0 -113 37 -180q67 -113 239 -113q89 0 148.5 30.5t87.5 82.5q39 66 39 180v510q0 8 6.5 14.5t13.5 6.5h111q7 0 12.5 -6.5t5.5 -14.5v-514q0 -88 -15.5 -148.5t-51.5 -113.5q-50 -72 -141.5 -110.5 t-215.5 -38.5q-256 0 -358 149q-36 53 -52 113.5t-16 148.5zM238 1366q0 37 26.5 63.5t63.5 26.5q38 0 64 -26.5t26 -63.5t-26 -63.5t-64 -26.5q-37 0 -63.5 26.5t-26.5 63.5zM623 1366q0 37 26.5 63.5t63.5 26.5t63.5 -26.5t26.5 -63.5t-26.5 -63.5t-63.5 -26.5t-63.5 26.5 t-26.5 63.5z" />
<glyph unicode="&#xfd;" horiz-adv-x="972" d="M9.5 916q3.5 10 17.5 10h133q23 0 30 -23l318 -772l287 772q7 23 30 23h123q13 0 16.5 -10t-1.5 -17l-369 -948q-79 -201 -178 -305q-133 -129 -332 -121q-16 0 -16 16v113q0 14 18 14q5 0 16.5 -1t22.5 -1q109 0 194 94q64 74 111 185l-420 954q-4 7 -0.5 17zM319 1182 q0 6 7 20l184 342q13 21 27 21h102q20 0 20 -17q0 -2 -2.5 -8t-3.5 -8l-213 -346q-11 -19 -28 -19h-76q-17 0 -17 15z" />
<glyph unicode="&#xfe;" horiz-adv-x="1011" d="M109 -455v1829q0 8 6.5 14.5t13.5 6.5h111q7 0 12.5 -6.5t5.5 -14.5v-444q64 12 148 12q252 0 397 -133q141 -131 141 -346q0 -214 -117 -338q-66 -74 -160.5 -109.5t-191.5 -35.5q-129 0 -217 40v-475q0 -7 -5 -12.5t-13 -5.5h-111q-8 0 -14 5.5t-6 12.5zM258 145 q85 -43 203 -43q146 0 241 95q93 90 93 266q0 162 -99 258q-103 100 -276 100q-64 0 -162 -12v-664z" />
<glyph unicode="&#xff;" horiz-adv-x="972" d="M9.5 916q3.5 10 17.5 10h133q23 0 30 -23l318 -772l287 772q7 23 30 23h123q13 0 16.5 -10t-1.5 -17l-369 -948q-79 -201 -178 -305q-133 -129 -332 -121q-16 0 -16 16v113q0 14 18 14q5 0 16.5 -1t22.5 -1q109 0 194 94q64 74 111 185l-420 954q-4 7 -0.5 17zM203 1366 q0 37 26.5 63.5t63.5 26.5q38 0 64 -26.5t26 -63.5t-26 -63.5t-64 -26.5q-37 0 -63.5 26.5t-26.5 63.5zM588 1366q0 37 26.5 63.5t63.5 26.5t63.5 -26.5t26.5 -63.5t-26.5 -63.5t-63.5 -26.5t-63.5 26.5t-26.5 63.5z" />
<glyph unicode="&#x152;" horiz-adv-x="2414" d="M72 694q0 149 58 283t156.5 229t233 151t281.5 56q165 0 311.5 -69t249.5 -191v221q0 8 5.5 14.5t12.5 6.5h961q7 0 12.5 -6.5t5.5 -14.5v-104q0 -9 -5 -15t-13 -6h-815v-479h708q8 0 13.5 -5.5t5.5 -12.5v-107q0 -7 -5.5 -12.5t-13.5 -5.5h-708v-482h815q7 0 12.5 -6 t5.5 -14v-107q0 -8 -5.5 -13t-12.5 -5h-961q-8 0 -13 5t-5 13v218q-103 -120 -249.5 -188t-311.5 -68q-147 0 -281.5 55.5t-233 150t-156.5 227.5t-58 281zM244 694q0 -153 73.5 -282.5t201.5 -205t282 -75.5q153 0 281 76t201 205t73 282t-73 283t-201 206.5t-281 76.5 t-281.5 -76.5t-202 -206.5t-73.5 -283z" />
<glyph unicode="&#x153;" horiz-adv-x="1861" d="M68 461q0 208 137 342q67 67 158 103t194 36t194 -36t158 -103q36 -36 60 -72q24 40 55 76q125 135 338 135q216 0 336 -147q102 -129 96 -340q-3 -23 -25 -23h-712q6 -129 78 -221q97 -115 264 -115q145 0 280 82q19 12 31 -4l37 -70q8 -13 -8 -26q-62 -41 -157 -69.5 t-196 -28.5q-234 0 -364 149q-37 41 -51 66q-28 -42 -62 -76q-67 -67 -158 -103t-194 -36t-194 36t-158 103q-137 134 -137 342zM215 461q0 -152 92 -250q95 -109 250 -109t250 109q92 98 92 250t-92 250q-94 108 -250 108t-250 -108q-92 -98 -92 -250zM1057 528h594 q-6 128 -76 207q-80 90 -213 90q-150 0 -232 -98q-67 -79 -73 -199z" />
<glyph unicode="&#x178;" horiz-adv-x="1249" d="M3 1384.5q4 10.5 20 10.5h141q21 0 33 -21l426 -600l428 600q11 21 30 21h144q14 0 18 -10.5t-4 -20.5l-534 -752v-594q0 -8 -6 -13t-15 -5h-123q-20 0 -20 18v594l-533 752q-9 10 -5 20.5zM340 1780q0 37 26.5 63.5t63.5 26.5q38 0 64 -26.5t26 -63.5t-26 -63.5 t-64 -26.5q-37 0 -63.5 26.5t-26.5 63.5zM725 1780q0 37 26.5 63.5t63.5 26.5t63.5 -26.5t26.5 -63.5t-26.5 -63.5t-63.5 -26.5t-63.5 26.5t-26.5 63.5z" />
<glyph unicode="&#x2c6;" horiz-adv-x="827" d="M34.5 1175.5q-2.5 8.5 6.5 18.5l317 354q17 17 29 17h53q12 0 29 -17l317 -354q9 -10 6.5 -18.5t-14.5 -8.5h-94q-18 0 -35 17l-235 258l-236 -258q-17 -17 -35 -17h-94q-12 0 -14.5 8.5z" />
<glyph unicode="&#x2dc;" horiz-adv-x="796" d="M78 1290q0 84 44.5 135.5t127.5 51.5q74 0 158 -60q3 -2 15.5 -10t16 -10t14.5 -8.5t16 -8.5t14 -6t16 -5.5t15.5 -3t16.5 -1.5q85 0 93 78q3 20 20 20h47q25 0 25 -20q0 -85 -45 -136t-127 -51q-69 0 -156 60q-28 18 -42.5 26.5t-38.5 17.5t-46 9q-83 0 -92 -80 q-7 -20 -20 -20h-48q-24 0 -24 22z" />
<glyph unicode="&#x2000;" horiz-adv-x="1001" />
<glyph unicode="&#x2001;" horiz-adv-x="2003" />
<glyph unicode="&#x2002;" horiz-adv-x="1001" />
<glyph unicode="&#x2003;" horiz-adv-x="2003" />
<glyph unicode="&#x2004;" horiz-adv-x="667" />
<glyph unicode="&#x2005;" horiz-adv-x="500" />
<glyph unicode="&#x2006;" horiz-adv-x="333" />
<glyph unicode="&#x2007;" horiz-adv-x="333" />
<glyph unicode="&#x2008;" horiz-adv-x="250" />
<glyph unicode="&#x2009;" horiz-adv-x="400" />
<glyph unicode="&#x200a;" horiz-adv-x="111" />
<glyph unicode="&#x2010;" horiz-adv-x="923" d="M133 543v102q0 7 5.5 13t13.5 6h620q8 0 13.5 -6t5.5 -13v-102q0 -9 -5.5 -15t-13.5 -6h-620q-8 0 -13.5 6t-5.5 15z" />
<glyph unicode="&#x2011;" horiz-adv-x="923" d="M133 543v102q0 7 5.5 13t13.5 6h620q8 0 13.5 -6t5.5 -13v-102q0 -9 -5.5 -15t-13.5 -6h-620q-8 0 -13.5 6t-5.5 15z" />
<glyph unicode="&#x2012;" horiz-adv-x="923" d="M133 543v102q0 7 5.5 13t13.5 6h620q8 0 13.5 -6t5.5 -13v-102q0 -9 -5.5 -15t-13.5 -6h-620q-8 0 -13.5 6t-5.5 15z" />
<glyph unicode="&#x2013;" horiz-adv-x="1335" d="M133 461v106q0 9 5.5 15t13.5 6h1030q8 0 14 -6t6 -15v-106q0 -8 -6.5 -14.5t-13.5 -6.5h-1030q-7 0 -13 6.5t-6 14.5z" />
<glyph unicode="&#x2014;" horiz-adv-x="2420" d="M133 461v106q0 9 5.5 15t13.5 6h2115q8 0 14.5 -6t6.5 -15v-106q0 -7 -7 -14t-14 -7h-2115q-7 0 -13 6.5t-6 14.5z" />
<glyph unicode="&#x2018;" horiz-adv-x="372" d="M80 1194q-1 69 45.5 134.5t114.5 90.5q21 7 28 -8l17 -22q9 -17 -6 -29q-19 -14 -29.5 -23t-22.5 -26.5t-12 -34.5q0 -18 12 -32t26 -22t26 -27t12 -46q0 -41 -26.5 -66.5t-69.5 -25.5q-57 0 -85 36.5t-30 100.5z" />
<glyph unicode="&#x2019;" horiz-adv-x="372" d="M80 1323q0 40 26 66t70 26q56 0 84.5 -37t30.5 -100q1 -71 -46 -136t-114 -89q-20 -8 -31 6l-16 24q-10 16 8 27q1 1 10 8.5t11 9.5t10 9t10.5 10.5l7.5 10.5t7 11.5t4 11.5t2 13q0 18 -11.5 32t-25.5 23t-25.5 28t-11.5 46z" />
<glyph unicode="&#x201a;" horiz-adv-x="352" d="M74 72q0 40 26 65t70 25q56 0 84.5 -37t30.5 -100q1 -70 -46 -135.5t-114 -90.5q-20 -6 -31 8l-16 23q-8 16 8 29q2 1 11.5 9.5t12.5 11t11 10t11 12.5t7.5 12t6 14t1.5 15q0 17 -11.5 31t-25 22.5t-25 28t-11.5 47.5z" />
<glyph unicode="&#x201c;" horiz-adv-x="688" d="M82 1194q-3 68 44.5 134t115.5 91q21 7 28 -8l17 -22q9 -17 -6 -29q-64 -44 -64 -84q0 -18 12 -32t26 -22t26 -27t12 -46q0 -41 -26.5 -66.5t-69.5 -25.5q-57 0 -86 36.5t-29 100.5zM397 1194q-1 69 45.5 134.5t114.5 90.5q21 7 29 -8l16 -22q9 -17 -6 -29 q-19 -14 -29.5 -23t-22.5 -26.5t-12 -34.5q0 -18 12 -32t26 -22t26 -27t12 -46q0 -41 -26.5 -66.5t-69.5 -25.5q-57 0 -85 36.5t-30 100.5z" />
<glyph unicode="&#x201d;" horiz-adv-x="688" d="M80 1323q0 40 26 66t70 26q56 0 84.5 -37t30.5 -100q1 -71 -46 -136t-114 -89q-20 -8 -31 6l-16 24q-10 16 8 27q1 1 10 8.5t11 9.5t10 9t10.5 10.5l7.5 10.5t7 11.5t4 11.5t2 13q0 18 -11.5 32t-25.5 23t-25.5 28t-11.5 46zM395 1323q0 40 26.5 66t70.5 26 q55 0 83.5 -37t30.5 -100q1 -71 -46.5 -136t-115.5 -89q-19 -8 -28 6l-17 24q-9 15 7 27q21 16 30.5 25t21 26t11.5 33q0 18 -11.5 32t-25.5 23t-25.5 28t-11.5 46z" />
<glyph unicode="&#x201e;" horiz-adv-x="667" d="M74 72q0 40 26 65t70 25q56 0 84.5 -37t30.5 -100q1 -70 -46 -135.5t-114 -90.5q-20 -6 -31 8l-16 23q-8 16 8 29q2 1 11.5 9.5t12.5 11t11 10t11 12.5t7.5 12t6 14t1.5 15q0 17 -11.5 31t-25 22.5t-25 28t-11.5 47.5zM389 72q0 40 26 65t70 25q55 0 84 -37t31 -100 q1 -70 -46.5 -135.5t-115.5 -90.5q-20 -6 -28 8l-17 23q-8 15 6 29q2 1 10 7.5t10 8.5t9 7.5t9.5 9t8 9t7.5 9.5l5 10t4 11.5t1 11.5q0 17 -11.5 31t-25.5 22.5t-25.5 28t-11.5 47.5z" />
<glyph unicode="&#x2022;" horiz-adv-x="987" d="M80 698q0 170 122 292t292 122t291.5 -122t121.5 -292t-121.5 -291.5t-291.5 -121.5t-292 121.5t-122 291.5z" />
<glyph unicode="&#x2026;" horiz-adv-x="1349" d="M74 76q0 40 27 67t67 27q39 0 66.5 -27.5t27.5 -66.5t-27.5 -66.5t-66.5 -27.5q-40 0 -67 27t-27 67zM586 76q0 40 27 67t67 27q38 0 65 -27t27 -67t-27 -67t-65 -27q-40 0 -67 27t-27 67zM1096 76q0 40 28 67t68 27q38 0 65 -27t27 -67t-27 -67t-65 -27q-40 0 -68 27 t-28 67z" />
<glyph unicode="&#x202f;" horiz-adv-x="400" />
<glyph unicode="&#x2039;" horiz-adv-x="671" d="M49 465q0 13 14 31l392 424q18 18 39 18h110q18 0 21.5 -11t-7.5 -24l-397 -438l397 -436q11 -15 7.5 -26t-21.5 -11h-110q-22 0 -39 20l-392 424q-14 14 -14 29z" />
<glyph unicode="&#x203a;" horiz-adv-x="671" d="M47 3q-4 11 8 26l398 436l-398 438q-12 13 -8 24t23 11h108q24 0 39 -18l393 -424q15 -19 15 -31q0 -14 -15 -29l-393 -424q-15 -20 -39 -20h-108q-19 0 -23 11z" />
<glyph unicode="&#x205f;" horiz-adv-x="500" />
<glyph unicode="&#x20ac;" horiz-adv-x="1218" d="M-29 535v49q0 8 6 14t13 6h108q-4 31 -4 94q0 59 6 90h-110q-8 0 -13.5 6t-5.5 13v51q0 8 5.5 13.5t13.5 5.5h127q52 197 205 344q98 92 222.5 142t262.5 50q239 0 424 -108q20 -14 12 -33l-49 -103q-5 -19 -27 -6q-177 103 -362 103q-97 0 -186.5 -36.5t-159.5 -99.5 q-118 -109 -164 -253h733q8 0 13.5 -5.5t5.5 -13.5v-51q0 -7 -5.5 -13t-13.5 -6h-760q-8 -41 -8 -90q0 -48 6 -94h647q7 0 13 -6t6 -14v-49q0 -9 -5.5 -15t-13.5 -6h-618q43 -156 158 -258q148 -129 354 -129q197 0 364 104q19 13 29 -6l47 -104q4 -8 2 -16t-10 -13 q-190 -112 -432 -112q-274 0 -463 157q-179 143 -231 377h-123q-8 0 -13.5 6t-5.5 15z" />
<glyph unicode="&#x2122;" horiz-adv-x="1544" d="M43 1393v47q0 8 5.5 14t12.5 6h560q9 0 14.5 -6t5.5 -14v-47q0 -21 -20 -21h-230v-627q0 -7 -6 -12.5t-14 -5.5h-58q-8 0 -14 5.5t-6 12.5v627h-232q-8 0 -13 6t-5 15zM725 739v701q0 8 5.5 14t12.5 6h54q23 0 34 -20l259 -434l258 434q13 20 36 20h54q7 0 12.5 -6 t5.5 -14v-701q0 -7 -5 -12.5t-13 -5.5h-58q-8 0 -13 5.5t-5 12.5v549l-232 -385q-11 -20 -28 -20h-25q-17 0 -28 20l-230 385v-549q0 -7 -6 -12.5t-14 -5.5h-56q-7 0 -12.5 5.5t-5.5 12.5z" />
<glyph unicode="&#x25fc;" horiz-adv-x="921" d="M0 0v922h922v-922h-922z" />
</font>
</defs>
</svg>
