<?xml version="1.0" encoding="UTF-8"?>
<svg width="100%" height="auto" viewBox="0 0 390 485" preserveAspectRatio="xMidYMid meet" version="1.1" xmlns="http://www.w3.org/2000/svg" xmlns:xlink="http://www.w3.org/1999/xlink">
    <g stroke="none" stroke-width="1" fill="none" fill-rule="evenodd" opacity="0.03">
        <g  fill="#E10A0A" transform="translate(-416.750217, 171.076118)">
            <g transform="translate(528.500000, 117) rotate(315) translate(-528.5, -117) ">
                <path d="M965.740376,0 C985.124894,0 1000.05928,14.6145214 1000.05928,33.6758193 C1000.05928,48.926147 993.387951,61.9517973 974.322039,89.2734208 L974.322039,89.2734208 L947.946296,127.081337 L947.946296,153.769734 C947.946296,191.257812 970.825135,214.13137 1000.05928,214.13137 C1000.22891,214.13137 1000.39833,214.130561 1000.56754,214.128945 L1000.56653,233.509 L1000.05928,233.513795 C957.906969,233.513795 928.833063,202.061585 928.2558,155.194646 L928.247046,153.769734 L928.247046,152.814089 L918.394839,169.018772 L895.199976,204.602011 C885.031746,219.852338 872.954474,230.971859 854.525769,230.971859 C830.378963,230.971859 815.441998,212.862336 815.441998,189.034424 L815.441998,189.034424 L815.476825,44.3310591 C815.476825,29.7139582 807.213768,22.4079871 796.729514,22.4079871 C787.831829,22.4079871 781.476526,27.8091181 774.166698,38.6113799 L774.166698,38.6113799 L723.96018,114.86044 L723.96018,189.520629 C723.96018,217.795318 707.119329,234 686.146953,234 C666.765014,234 651.830631,219.385478 651.830631,200.321602 C651.830631,185.072563 658.503248,172.045623 677.567873,144.72529 L677.567873,144.72529 L703.942321,106.918663 L703.942321,80.2302663 C703.942321,42.7408978 681.063482,19.8660509 651.830631,19.8660509 C622.91509,19.8660509 600.034959,42.7408978 600.034959,80.2302663 L600.034959,80.2302663 L600.054309,153.132637 C600.054309,203.647656 567.641868,233.513795 527.287553,233.513795 C484.709461,233.513795 455.474027,201.422978 455.474027,153.769734 L455.474027,153.769734 L455.474027,152.814089 L445.62182,169.018772 L422.426958,204.602011 C412.258728,219.852338 400.181456,230.971859 381.754041,230.971859 C357.604654,230.971859 342.67027,212.862336 342.67027,189.034424 L342.67027,189.034424 L342.703807,44.3310591 C342.703807,29.7139582 334.440749,22.4079871 323.956496,22.4079871 C315.060101,22.4079871 308.703507,27.8091181 301.39368,38.6113799 L301.39368,38.6113799 L251.188449,114.86044 L251.188449,189.520629 C251.188449,217.795318 234.346311,234 213.376517,234 C193.991996,234 179.057612,219.385478 179.057612,200.321602 C179.057612,185.072563 185.73152,172.045623 204.794854,144.72529 L204.794854,144.72529 L231.170594,106.918663 L231.170594,80.2302663 C231.170594,42.7408978 208.290467,19.8660509 179.057612,19.8660509 C150.142071,19.8660509 127.263232,42.7408978 127.263232,80.2302663 L127.263232,80.2302663 L127.282582,153.132637 C127.282582,203.647656 94.8701408,233.513795 54.5145348,233.513795 L55.5545348,233.505 L55.5555063,214.121179 C83.6908329,213.569316 105.857506,190.640965 106.303356,154.253077 L106.310202,153.132637 L106.289565,80.8647833 C106.289565,30.352344 138.702006,0.487494628 179.057612,0.487494628 C221.636992,0.487494628 250.869847,32.5744425 250.869847,80.2302663 L250.869847,80.2302663 L250.869847,81.1846211 L260.722054,64.9812282 L283.916917,29.3979894 C294.085147,14.1489512 306.161128,3.02814123 324.588546,3.02814123 C348.740508,3.02814123 363.676182,21.1376638 363.676182,44.9642861 L363.676182,44.9642861 L363.641355,189.668941 C363.641355,204.286042 371.901834,211.590723 382.387379,211.590723 C391.285061,211.590723 397.639076,206.188303 404.948904,195.38862 L404.948904,195.38862 L455.155422,119.13956 L455.155422,44.4780813 C455.155422,16.2033928 471.998851,0 492.968649,0 C512.353166,0 527.287553,14.6145214 527.287553,33.6758193 C527.287553,48.926147 520.614933,61.9517973 501.550308,89.2734208 L501.550308,89.2734208 L475.174568,127.081337 L475.174568,153.769734 C475.174568,191.257812 498.05212,214.13137 527.287553,214.13137 C556.203094,214.13137 579.08193,190.620716 579.08193,153.132637 L579.08193,153.132637 L579.062584,80.8647833 C579.062584,30.352344 611.475025,0.487494628 651.830631,0.487494628 C694.40872,0.487494628 723.642866,32.5744425 723.642866,80.2302663 L723.642866,80.2302663 L723.642866,81.1846211 L733.492491,64.9812282 L756.688644,29.3979894 C766.856874,14.1489512 778.934146,3.02814123 797.361561,3.02814123 C821.513526,3.02814123 836.449201,21.1376638 836.449201,44.9642861 L836.449201,44.9642861 L836.413086,189.668941 C836.413086,204.286042 844.67614,211.590723 855.160397,211.590723 C864.058079,211.590723 870.412095,206.188303 877.721922,195.38862 L877.721922,195.38862 L927.928441,119.13956 L927.928441,44.4780813 C927.928441,16.2033928 944.770579,0 965.740376,0 Z M704.640713,137.892857 L695.013469,152.783968 L692.123995,157.218251 C675.114132,182.562333 671.58371,191.115816 671.58371,199.985666 C671.58371,209.492109 678.001002,216.146104 686.668125,216.146104 C696.618447,216.146104 704.640713,206.323295 704.640713,191.752408 L704.640713,191.752408 L704.640713,137.892857 Z M231.583609,137.892857 L221.953761,152.783968 L219.06559,157.218251 C202.057028,182.562333 198.526603,191.115816 198.526603,199.985666 C198.526603,209.492109 204.943898,216.146104 213.611018,216.146104 C223.560037,216.146104 231.583609,206.323295 231.583609,191.752408 L231.583609,191.752408 L231.583609,137.892857 Z M965.41069,17.8538961 C955.459977,17.8538961 947.438695,27.6767054 947.438695,42.2488777 L947.438695,42.2488777 L947.438695,96.1071429 L957.067621,81.2160315 L959.954604,76.7804635 C976.962533,51.4363809 980.495698,42.8841837 980.495698,34.0117615 C980.495698,24.5078913 974.075549,17.8538961 965.41069,17.8538961 Z M492.732842,17.8538961 C482.783822,17.8538961 474.761557,27.6767054 474.761557,42.2488777 L474.761557,42.2488777 L474.761557,96.1071429 L484.390102,81.2160315 L487.279576,76.7804635 C504.286835,51.4363809 507.818559,42.8841837 507.818559,34.0117615 C507.818559,24.5078913 501.39866,17.8538961 492.732842,17.8538961 Z" id="Pattern-colour"></path>
            </g>
        </g>
    </g>
</svg>