<?xml version="1.0" encoding="UTF-8" standalone="no"?>
<svg width="40px" height="30px" viewBox="0 0 40 30" version="1.1" xmlns="http://www.w3.org/2000/svg" xmlns:xlink="http://www.w3.org/1999/xlink">
    <!-- Generator: Sketch 39.1 (31720) - http://www.bohemiancoding.com/sketch -->
    <title>icon-payments</title>
    <desc>Created with Sketch.</desc>
    <defs></defs>
    <g id="Page-1" stroke="none" stroke-width="1" fill="none" fill-rule="evenodd">
        <g id="Base-Size---For-Vector-Export" transform="translate(-222.000000, -225.000000)" fill="#FFFFFF">
            <g id="icon-payments" transform="translate(222.000000, 225.000000)">
                <path d="M27.8174911,19 L4.18150893,19 C3.52825666,19 2.9995,18.488671 2.9995,17.857626 L2.9995,4.14372675 C2.9995,3.51132905 3.52825666,3 4.18150893,3 L27.8174911,3 C28.4700439,3 28.9995,3.51132905 28.9995,4.14372675 L28.9995,17.857626 C28.9995,18.488671 28.4700439,19 27.8174911,19 M31.9995,2.44412297 C31.9995,1.09511754 30.8974583,0 29.5382977,0 L2.46143067,0 C1.10227013,0 -0.0005,1.09511754 -0.0005,2.44412297 L-0.0005,19.5551537 C-0.0005,20.9048825 1.10227013,22 2.46143067,22 L29.5382977,22 C30.8974583,22 31.9995,20.9048825 31.9995,19.5551537 L31.9995,2.44412297 Z M16,15.0007891 C13.7904912,15.0007891 12,13.2087197 12,11.0007891 C12,8.79128033 13.7904912,7 16,7 C18.2087197,7 20,8.79128033 20,11.0007891 C20,13.2087197 18.2087197,15.0007891 16,15.0007891 M15.9998551,5 C12.6854206,5 9.9995,7.68521039 9.9995,10.9996449 C9.9995,14.3119489 12.6854206,17 15.9998551,17 C19.3135794,17 21.9995,14.3119489 21.9995,10.9996449 C21.9995,7.68521039 19.3135794,5 15.9998551,5" id="icon-payments1"></path>
                <path d="M34,8 L37.5382977,8 C38.8974583,8 39.9995,9.09511754 39.9995,10.444123 L39.9995,27.5551537 C39.9995,28.9048825 38.8974583,30 37.5382977,30 L10.4614307,30 C9.10227013,30 7.9995,28.9048825 7.9995,27.5551537 L7.9995,24 L10.9995,24 L10.9995,25.857626 C10.9995,26.488671 11.5282567,27 12.1815089,27 L35.8174911,27 C36.4700439,27 36.9995,26.488671 36.9995,25.857626 L36.9995,12.1437268 C36.9995,11.511329 36.4700439,11 35.8174911,11 L34,11 L34,8 Z" id="icon-payments2"></path>
            </g>
        </g>
    </g>
</svg>