<?xml version="1.0" encoding="UTF-8" standalone="no"?>
<svg width="40px" height="40px" viewBox="0 0 40 40" version="1.1" xmlns="http://www.w3.org/2000/svg" xmlns:xlink="http://www.w3.org/1999/xlink">
    <!-- Generator: Sketch 39.1 (31720) - http://www.bohemiancoding.com/sketch -->
    <title>icon-help</title>
    <desc>Created with Sketch.</desc>
    <defs></defs>
    <g id="Page-1" stroke="none" stroke-width="1" fill="none" fill-rule="evenodd">
        <g id="Base-Size---For-Vector-Export" transform="translate(-628.000000, -221.000000)" fill="#FFFFFF">
            <g id="icon-help" transform="translate(628.000000, 221.000000)">
                <path d="M20,40 C31.045695,40 40,31.045695 40,20 C40,8.954305 31.045695,0 20,0 C8.954305,0 0,8.954305 0,20 C0,31.045695 8.954305,40 20,40 Z M20,36.8421053 C29.3016379,36.8421053 36.8421053,29.3016379 36.8421053,20 C36.8421053,10.6983621 29.3016379,3.15789474 20,3.15789474 C10.6983621,3.15789474 3.15789474,10.6983621 3.15789474,20 C3.15789474,29.3016379 10.6983621,36.8421053 20,36.8421053 Z" id="Circle1"></path>
                <path d="M20,28.4210526 C24.6508189,28.4210526 28.4210526,24.6508189 28.4210526,20 C28.4210526,15.3491811 24.6508189,11.5789474 20,11.5789474 C15.3491811,11.5789474 11.5789474,15.3491811 11.5789474,20 C11.5789474,24.6508189 15.3491811,28.4210526 20,28.4210526 Z M20,25.2631579 C22.9067618,25.2631579 25.2631579,22.9067618 25.2631579,20 C25.2631579,17.0932382 22.9067618,14.7368421 20,14.7368421 C17.0932382,14.7368421 14.7368421,17.0932382 14.7368421,20 C14.7368421,22.9067618 17.0932382,25.2631579 20,25.2631579 Z" id="Circle2"></path>
                <path d="M19.4052935,0.457925097 L21.5105567,0.457925097 L21.5105567,13.089504 L19.4052935,13.089504 L19.4052935,0.457925097 Z M19.4052935,25.721083 L21.5105567,25.721083 L21.5105567,38.3526619 L19.4052935,38.3526619 L19.4052935,25.721083 Z" id="Line1" transform="translate(20.457925, 19.405294) rotate(-315.000000) translate(-20.457925, -19.405294) "></path>
                <path d="M19.4052935,0.457925097 L21.5105567,0.457925097 L21.5105567,13.089504 L19.4052935,13.089504 L19.4052935,0.457925097 Z M19.4052935,25.721083 L21.5105567,25.721083 L21.5105567,38.3526619 L19.4052935,38.3526619 L19.4052935,25.721083 Z" id="Line2" transform="translate(20.457925, 19.405294) rotate(-225.000000) translate(-20.457925, -19.405294) "></path>
            </g>
        </g>
    </g>
</svg>