<?xml version="1.0" encoding="UTF-8" standalone="no"?>
<svg width="40px" height="40px" viewBox="0 0 40 40" version="1.1" xmlns="http://www.w3.org/2000/svg" xmlns:xlink="http://www.w3.org/1999/xlink">
    <!-- Generator: Sketch 39.1 (31720) - http://www.bohemiancoding.com/sketch -->
    <title>icon-spending</title>
    <desc>Created with Sketch.</desc>
    <defs></defs>
    <g id="Page-1" stroke="none" stroke-width="1" fill="none" fill-rule="evenodd">
        <g id="Base-Size---For-Vector-Export" transform="translate(-322.000000, -220.000000)" fill="#FFFFFF">
            <g id="icon-spending" transform="translate(322.000000, 220.000000)">
                <path d="M29.4736842,8.42105263 L36.6666667,8.42105263 C38.5075,8.42105263 40,9.79438429 40,11.4910787 L40,36.9269016 C40,38.6243641 38.5075,40 36.6666667,40 L3.33333333,40 C1.4925,40 0,38.6243641 0,36.9269016 L0,11.4910787 C0,9.79438429 1.4925,8.42105263 3.33333333,8.42105263 L10.5263158,8.42105263 L10.5263158,8.37257618 C10.5263158,3.97479224 14.1510297,0 18.5105721,0 L21.8074142,0 C26.1677803,0 29.4736842,3.97562327 29.4736842,8.37423823 L29.4736842,8.42105263 Z M27.0022883,8.42105263 L12.9977117,8.42105263 L12.9977117,8.37257618 C12.9977117,5.35429363 15.6544622,2.49307479 18.5122197,2.49307479 L21.8074142,2.49307479 C24.6643478,2.49307479 27.0022883,5.35429363 27.0022883,8.37257618 L27.0022883,8.42105263 Z M10.5263158,11.5789474 L4.84258984,11.5789474 C3.91221172,11.5789474 3.15789474,12.2614395 3.15789474,13.1023282 L3.15789474,35.3194544 C3.15789474,36.1618029 3.91221172,36.8421053 4.84258984,36.8421053 L35.1582178,36.8421053 C36.0877883,36.8421053 36.8421053,36.1618029 36.8421053,35.3194544 L36.8421053,13.1023282 C36.8421053,12.2614395 36.0877883,11.5789474 35.1582178,11.5789474 L29.4736842,11.5789474 L29.4736842,17.6177285 C29.4736842,18.3506925 28.9645767,18.9473684 28.2379863,18.9473684 C27.5113959,18.9473684 27.0022883,18.3506925 27.0022883,17.6177285 L27.0022883,11.5789474 L12.9977117,11.5789474 L12.9977117,17.6177285 C12.9977117,18.3506925 12.4886041,18.9473684 11.7620137,18.9473684 C11.0354233,18.9473684 10.5263158,18.3506925 10.5263158,17.6177285 L10.5263158,11.5789474 Z"></path>
            </g>
        </g>
    </g>
</svg>