<?xml version="1.0" encoding="utf-8"?>
<!-- Generator: Adobe Illustrator 19.1.0, SVG Export Plug-In . SVG Version: 6.00 Build 0)  -->
<svg version="1.1" id="Layer_1" xmlns="http://www.w3.org/2000/svg" xmlns:xlink="http://www.w3.org/1999/xlink" x="0px" y="0px"
	 viewBox="0 0 56.0561523 64.0245895" style="enable-background:new 0 0 56.0561523 64.0245895;" xml:space="preserve">
<style type="text/css">
	.st0{fill:#000000;}
</style>
<path class="st0" d="M12.0429344,48.0224495l0.0086498,3.9940224l19.9988461-0.0209045l-0.0086899-3.9941368L12.0429344,48.0224495z
	 M12.0325413,38.0230064l0.0085335,3.9940605l31.99687-0.0309982l0.0008659-3.9971275L12.0325413,38.0230064z
	 M12.0189276,28.0140877l0.0117912,4.0036545l31.9967155-0.0310764l-0.0031662-4.00634L12.0189276,28.0140877z
	 M38.0021324,7.9925175l0.010807,8.0008202l-8.0038834,0.0014076l-3.9940243,0.0086498l-8.0009346,0.0108452l-0.0108089-8.0008192
	l6.002161-0.0113382l-0.0090637-1.9954023c0.0062733-1.1065092,0.8953266-1.9958925,1.9990349-1.9982066l4.0036564-0.011791
	c1.1035919-0.0022759,1.9955902,0.894398,1.9980907,1.9990737l0.0091,1.9955177L38.0021324,7.9925175z M42.0157661,19.9787884
	l-0.0078201-7.9912653l9.9994049-0.0105095l0.052845,47.9984322L4.061727,60.0281792L4.0085764,12.0288172l9.9997444-0.0094662
	l0.0078211,7.9912653L42.0157661,19.9787884z M42.0056725,7.9807644l-0.0086861-3.994139l-5.9926453,0.0082355
	c-0.0076942-2.2168188-1.7984734-3.9994795-4.0058937-3.9948518l-8.0039215,0.0012916
	c-2.207304,0.0045897-3.9994431,1.7985899-3.9948521,4.0058918l-6.0022774,0.0113769l0.0083466,3.9930949L0,8.0253391
	l0.0636558,55.9992523l55.9924965-0.0520782l-0.053833-56.0014267L42.0056725,7.9807644z"/>
</svg>
