<?xml version="1.0" encoding="utf-8"?>
<!-- Generator: Adobe Illustrator 19.1.0, SVG Export Plug-In . SVG Version: 6.00 Build 0)  -->
<svg version="1.1" id="Layer_1" xmlns="http://www.w3.org/2000/svg" xmlns:xlink="http://www.w3.org/1999/xlink" x="0px" y="0px"
	 viewBox="0 0 60.2287064 64.2653427" style="enable-background:new 0 0 60.2287064 64.2653427;" xml:space="preserve">
<style type="text/css">
	.st0{fill-rule:evenodd;clip-rule:evenodd;fill:#FFFFFF;}
</style>
<path class="st0" d="M55.9836502,15.9770823L55.9145126,3.9773581c-0.0189972-2.2122431-1.8137932-3.9902694-4.022007-3.9772873
	L3.9795177,16.2665825c-2.2082109,0.0129814-3.9887457,1.8122311-3.9794817,4.022459l0.2232054,39.998909
	c0.0101907,2.2073212,1.8139124,3.9903107,4.0221233,3.9773254l47.9986496-0.2689362l4.0053673-0.0205994
	c2.2079124-0.0120544,3.989357-1.8141518,3.9792824-4.0214348l-0.0685272-12.0016441l-0.069313-11.9987564l-0.0854836-15.9985447
	C59.9866562,17.7421265,58.1915627,15.9650307,55.9836502,15.9770823z M49.9111862,4.0097322
	c1.1043129-0.0069375,2.00634,0.8840318,2.0113602,1.9877319l0.0553246,10.0011129l-35.0020714,0.194355L49.9111862,4.0097322z
	 M48.1364288,44.0204124l8.0014076-0.0441093l-0.0257034-4.0028267l-8.0012894,0.0441475L48.1364288,44.0204124z
	 M56.0948792,35.9775047l-12.0066528,0.0647507l0.0690193,11.9996872l11.9975281-0.0686836l0.0553284,10.0011139
	c0.0050354,1.1036415-0.8805504,2.0052719-1.9848824,2.0122681L6.2265687,60.2555733
	c-1.103899,0.0060463-2.0059085-0.8849831-2.0109453-1.9886246L4.0093751,22.2649422
	c-0.0051532-1.1036797,0.890089-2.0022297,1.9943032-2.009264l47.9983368-0.2679462
	c1.104332-0.0069942,2.00634,0.8840332,2.0113754,1.9876747L56.0948792,35.9775047z"/>
</svg>
