<?xml version="1.0" encoding="UTF-8" standalone="no"?>
<svg width="82px" height="58px" viewBox="0 0 82 58" version="1.1" xmlns="http://www.w3.org/2000/svg" xmlns:xlink="http://www.w3.org/1999/xlink">
    <!-- Generator: Sketch 42 (36781) - http://www.bohemiancoding.com/sketch -->
    <title>Group 4</title>
    <desc>Created with Sketch.</desc>
    <defs></defs>
    <g id="CB-Screens" stroke="none" stroke-width="1" fill="none" fill-rule="evenodd">
        <g id="04---You---05---So-far…-Copy" transform="translate(-471.000000, -25.000000)" fill="#FFFFFF">
            <g id="Enrollment-header" transform="translate(0.000000, -5.000000)">
                <g id="Header-/-Nav">
                    <g id="Group-4" transform="translate(471.000000, 30.000000)">
                        <g id="Logo">
                            <polygon id="Fill-1" points="48.4068314 37.2988585 72.4281342 12.6606183 72.4719381 4.73877584 40.974335 37.2988585"></polygon>
                            <path d="M59.3143876,43.2349148 L71.4261745,43.0949754 C73.9925695,43.0949754 76.0900048,45.154629 76.0900048,47.6964374 C76.0900048,50.2344293 73.9925695,52.2839055 71.4261745,52.2839055 L59.3143876,52.2839055 L59.3143876,43.2349148 Z M29.3228667,57.9107417 C39.504704,57.9107417 48.4716263,52.7762378 53.7306747,45.0019678 L53.7306747,57.9107417 L58.2347495,57.9107417 L59.3143876,57.9107417 L71.5034756,57.9107417 C77.2752876,57.9107417 81.9030441,53.3996042 81.9030441,47.6964374 C81.9030441,44.7615265 80.6597855,42.1064943 78.6692833,40.228762 C80.6597855,38.3408522 81.9030441,35.6972696 81.9030441,32.7610865 C81.9030441,27.0566476 77.2057167,22.4208368 71.4261745,22.4208368 L67.1681747,22.4208368 L61.3577121,28.1659854 L71.4261745,28.1659854 C73.9925695,28.1659854 76.0900048,30.225639 76.0900048,32.7610865 C76.0900048,35.2965341 73.9925695,37.3498268 71.4261745,37.3498268 L57.392168,37.3498268 L53.7564418,37.3498268 L50.4299197,37.3498268 C47.0621704,45.5986185 38.8850072,51.4111925 29.3228667,51.4111925 C16.7537152,51.4111925 6.5796081,41.3622711 6.5796081,28.9471017 C6.5796081,16.5408375 16.7537152,6.48301091 29.3228667,6.48301091 C39.4531699,6.48301091 48.0310103,13.0181811 50.9800455,22.0531778 L55.9878655,16.8754199 C51.352379,6.91555088 41.146063,0 29.3228667,0 C13.1295841,0 0,12.9609331 0,28.9471017 C0,44.9434477 13.1295841,57.9107417 29.3228667,57.9107417 L29.3228667,57.9107417 Z" id="Fill-2"></path>
                        </g>
                    </g>
                </g>
            </g>
        </g>
    </g>
</svg>