<?xml version="1.0" encoding="UTF-8" standalone="no"?>
<svg width="115px" height="156px" viewBox="0 0 115 156" version="1.1" xmlns="http://www.w3.org/2000/svg" xmlns:xlink="http://www.w3.org/1999/xlink">
    <!-- Generator: Sketch 45.1 (43504) - http://www.bohemiancoding.com/sketch -->
    <title>CB</title>
    <desc>Created with Sketch.</desc>
    <defs>
        <linearGradient x1="50%" y1="26.0602679%" x2="50%" y2="100%" id="linearGradient-1">
            <stop stop-color="#ED3424" offset="0%"></stop>
            <stop stop-color="#972728" offset="100%"></stop>
        </linearGradient>
        <polygon id="path-2" points="0 87.0741725 97.6729632 87.0741725 97.6729632 0.0293505731 0 0.0293505731"></polygon>
    </defs>
    <g id="BOW-+-B" stroke="none" stroke-width="1" fill="none" fill-rule="evenodd">
        <g id="CB">
            <g id="CB-logo">
                <g id="Group">
                    <rect id="Rectangle-2" fill="url(#linearGradient-1)" x="0" y="0" width="115" height="156" rx="20"></rect>
                    <g id="Logo-2" transform="translate(8.497537, 34.036364)">
                        <polygon id="Fill-1" fill="#FEFEFE" points="34.6687193 27.7768673 52.2060587 9.58684096 52.2380388 9.55678567 52.2380388 3.73826898 29.2424435 27.7768673"></polygon>
                        <g id="Group-19" transform="translate(0.000000, 0.035035)">
                            <path d="M43.303919,31.9491039 L52.1464252,31.8457888 C54.0200846,31.8457888 55.5513685,33.3663987 55.5513685,35.242976 C55.5513685,37.1167357 54.0200846,38.6298318 52.1464252,38.6298318 L43.303919,38.6298318 L43.303919,31.9491039 L43.303919,31.9491039 Z M21.4078758,42.7840367 C28.8413751,42.7840367 35.387896,38.993313 39.2273929,33.2536914 L39.2273929,42.7840367 L42.5157028,42.7840367 L43.303919,42.7840367 L52.2028607,42.7840367 C56.4167132,42.7840367 59.79532,39.4535346 59.79532,35.242976 C59.79532,33.0761773 58.8876486,31.1160088 57.4344338,29.7297084 C58.8876486,28.3358942 59.79532,26.3841787 59.79532,24.2164408 C59.79532,20.004943 56.3659212,16.5823966 52.1464252,16.5823966 L49.0377683,16.5823966 L44.795698,20.8239497 L52.1464252,20.8239497 C54.0200846,20.8239497 55.5513685,22.3445596 55.5513685,24.2164408 C55.5513685,26.0883219 54.0200846,27.6042357 52.1464252,27.6042357 L41.9005556,27.6042357 L39.2462047,27.6042357 L36.817596,27.6042357 C34.3588882,33.6941893 28.3889503,37.9855214 21.4078758,37.9855214 C12.2314595,37.9855214 4.80360377,30.5665604 4.80360377,21.4006356 C4.80360377,12.2412853 12.2314595,4.81574976 21.4078758,4.81574976 C28.8037514,4.81574976 35.0662135,9.64056336 37.2192288,16.3109597 L40.8753102,12.4883023 C37.4910599,5.13508723 30.0396894,0.0294444959 21.4078758,0.0294444959 C9.58557393,0.0294444959 0,9.5982981 0,21.4006356 C0,33.2104869 9.58557393,42.7840367 21.4078758,42.7840367 L21.4078758,42.7840367 Z" id="Fill-2" fill="#FEFEFE"></path>
                            <mask id="mask-3" fill="white">
                                <use xlink:href="#path-2"></use>
                            </mask>
                            <g id="Clip-5"></g>
                            <polygon id="Fill-4" fill="#FEFEFE" mask="url(#mask-3)" points="16.1509067 70.3089549 18.2145657 70.3089549 18.2145657 56.4534653 16.1509067 56.4534653"></polygon>
                            <polygon id="Fill-6" fill="#FEFEFE" mask="url(#mask-3)" points="26.9207801 60.0805755 24.0623208 66.6626844 21.1116834 60.0805755 18.9069355 60.0805755 22.9580657 69.1826328 20.9555451 73.7454019 23.160293 73.7454019 29.1452804 60.0805755"></polygon>
                            <path d="M34.3150567,68.5941126 C33.730949,68.5941126 33.1985739,68.4494715 32.68407,68.1573717 C32.183675,67.8624541 31.7745174,67.4369839 31.4782309,66.9025632 C31.1753603,66.361568 31.0173408,65.7961528 31.0173408,65.2091354 C31.0173408,64.6211787 31.1706573,64.0557635 31.464122,63.5204037 C31.7679333,63.0010106 32.1714473,62.5830542 32.6746641,62.2947113 C33.1835244,61.9979153 33.7253054,61.8523349 34.3272844,61.8523349 C35.2650547,61.8523349 36.0288154,62.1716724 36.6665369,62.8216181 C37.3061395,63.472503 37.6259408,64.2689683 37.6259408,65.244826 C37.6259408,65.8806833 37.4745055,66.4592477 37.1895061,66.9654915 C36.9167344,67.4661 36.5188639,67.8586972 35.9911917,68.1517363 C35.4635196,68.4438362 34.9038673,68.5941126 34.3150567,68.5941126 M37.5469311,69.3182573 L37.5469311,70.3091427 L39.5889565,70.3091427 L39.5889565,56.4536531 L37.5469311,56.4536531 L37.5469311,61.1056488 C37.2308921,60.8107312 36.882873,60.5702889 36.5235669,60.3758687 C35.8397564,60.0161444 35.0665897,59.832995 34.2322846,59.832995 C32.780951,59.832995 31.5299635,60.3570842 30.4943716,61.403384 C29.4710074,62.4449877 28.9499194,63.7091885 28.9499194,65.1659309 C28.9499194,66.6564855 29.4634827,67.9338354 30.4793221,68.9867099 C31.5083299,70.0301921 32.7546144,70.5570989 34.1956015,70.5570989 C35.0054512,70.5570989 35.7626279,70.3824025 36.4502007,70.0470982 C36.8339623,69.8564349 37.2036149,69.6122357 37.5469311,69.3182573" id="Fill-7" fill="#FEFEFE" mask="url(#mask-3)"></path>
                            <path d="M43.4141564,63.8190781 C43.6163837,63.303442 43.8863336,62.9033309 44.2004913,62.6253195 C44.7911832,62.0946557 45.4702907,61.8382465 46.2914275,61.8382465 C46.7805354,61.8382465 47.2602374,61.95565 47.7041969,62.1585232 C48.1472157,62.3604572 48.5046407,62.6337725 48.7689471,62.973773 C48.9570655,63.1935524 49.1075602,63.4800169 49.2364214,63.8190781 L43.4141564,63.8190781 Z M46.2726157,59.832995 C44.5851935,59.832995 43.2194538,60.4932722 42.2111391,61.7696829 C41.4191605,62.7793529 41.0250525,63.9346031 41.0250525,65.2260415 C41.0250525,66.5869827 41.4962891,67.8258242 42.4218317,68.9059363 C43.3661862,70.001076 44.6820745,70.5570989 46.3384571,70.5570989 C47.0758813,70.5570989 47.7455829,70.4434523 48.349443,70.2105238 C48.9504814,69.9822914 49.4913218,69.6413517 49.9597367,69.2083677 C50.4347357,68.7735052 50.8561209,68.1996369 51.2060212,67.5046083 L51.3969614,67.1279779 L49.6549848,66.2112915 L49.4386487,66.5522312 C49.1019167,67.1279779 48.7886995,67.5412382 48.5046407,67.7854374 C48.2252849,68.026819 47.8857311,68.2249961 47.4793953,68.368698 C47.0805843,68.5246098 46.6657832,68.5941126 46.2331108,68.5941126 C45.361182,68.5941126 44.6425696,68.2973166 44.0462342,67.6840008 C43.5420769,67.1505194 43.2401468,66.5062091 43.1517312,65.71444 L51.5709709,65.71444 L51.5709709,65.2814559 C51.5596838,63.9130009 51.1740411,62.742723 50.4394386,61.819462 C49.4029062,60.4989076 47.9995428,59.832995 46.2726157,59.832995 L46.2726157,59.832995 Z" id="Fill-8" fill="#FEFEFE" mask="url(#mask-3)"></path>
                            <path d="M55.4508192,61.8195559 C55.9427489,61.8195559 56.4892329,62.0947497 57.047004,62.6338665 L57.3498746,62.9278448 L58.7287826,61.5152461 L58.4136843,61.2250246 C57.4552209,60.3008244 56.4892329,59.8330889 55.5063141,59.8330889 C54.6607219,59.8330889 53.9374065,60.1120396 53.3655266,60.6643056 C52.8002307,61.2156324 52.5039442,61.9172356 52.5039442,62.7418777 C52.5039442,63.3786742 52.691122,63.9544209 53.0457252,64.4522116 C53.3975067,64.9377924 54.0079509,65.3970749 54.9240876,65.8751419 C55.8957193,66.3691757 56.209877,66.6481264 56.3161639,66.7655299 C56.4760646,66.9655854 56.5550743,67.1759725 56.5550743,67.4201717 C56.5550743,67.7207246 56.4309162,67.9724377 56.1863622,68.1997309 C55.9229964,68.4420516 55.6144822,68.5519413 55.2373048,68.5519413 C54.672009,68.5519413 54.1330497,68.2598414 53.6006746,67.6568571 L53.2742891,67.2952544 L51.9621632,68.777356 L52.1784993,69.0600636 C52.5349837,69.5240422 53.0033986,69.8931587 53.5470608,70.1570818 C54.0973072,70.4228832 54.6804743,70.5571928 55.285275,70.5571928 C56.209877,70.5571928 56.9943308,70.2491261 57.6151216,69.6282965 C58.2406153,69.0140414 58.5538325,68.2513884 58.5538325,67.3666357 C58.5538325,66.7335961 58.3685358,66.1578495 57.997002,65.6403349 C57.634874,65.1547541 56.9811625,64.668234 56.0132933,64.1732609 C55.1771069,63.7327631 54.835672,63.448177 54.6992861,63.2838121 C54.5318607,63.0856351 54.4584946,62.8912149 54.4584946,62.6836455 C54.4584946,62.4582308 54.5422072,62.269446 54.7322069,62.0947497 C54.932553,61.9059649 55.1658198,61.8195559 55.4508192,61.8195559" id="Fill-9" fill="#FEFEFE" mask="url(#mask-3)"></path>
                            <path d="M67.668452,66.9652097 C67.3956803,67.4658182 66.9968692,67.8584154 66.4748406,68.1523938 C65.9424655,68.4491898 65.3875162,68.5938309 64.793062,68.5938309 C64.2174196,68.5938309 63.6671732,68.4435544 63.1630159,68.1580291 C62.6663833,67.8621724 62.2628693,67.4367021 61.9543551,66.9032207 C61.6543062,66.3612862 61.4962867,65.7968103 61.4962867,65.2097928 C61.4962867,64.620897 61.6505438,64.0554818 61.9449491,63.5201219 C62.2459386,63.0007289 62.6560367,62.5827725 63.1573723,62.2944295 C63.6615297,61.999512 64.2098949,61.8529924 64.8052897,61.8529924 C65.7411788,61.8529924 66.5068207,62.1713907 67.1454828,62.8213363 C67.7841448,63.4722213 68.0954808,64.2686865 68.0954808,65.2445443 C68.0954808,65.8954292 67.9581543,66.4533305 67.668452,66.9652097 L67.668452,66.9652097 Z M68.0221146,61.1063062 C67.7041945,60.8104495 67.3589972,60.5700071 66.9987504,60.375587 C66.3224647,60.0168019 65.5427139,59.8327132 64.7074681,59.8327132 C63.2627186,59.8327132 62.0032658,60.3577416 60.9789611,61.4031022 C59.9480721,62.4456452 59.4298059,63.7089067 59.4298059,65.1656491 C59.4298059,66.657143 59.9424286,67.9335537 60.9563868,68.9864281 C61.9853946,70.0308495 63.2326197,70.5568171 64.6783097,70.5568171 C65.4900407,70.5568171 66.2396926,70.38306 66.928206,70.0468164 C67.3138487,69.8561531 67.6825608,69.6119539 68.0221146,69.3189148 L68.0221146,70.3098002 L70.068843,70.3098002 L70.068843,56.4543106 L68.0221146,56.4543106 L68.0221146,61.1063062 Z" id="Fill-10" fill="#FEFEFE" mask="url(#mask-3)"></path>
                            <path d="M79.7693572,66.9652097 C79.4834173,67.4658182 79.0996557,67.8584154 78.5719835,68.1523938 C78.0386678,68.4491898 77.4959462,68.5938309 76.8930267,68.5938309 C76.3108002,68.5938309 75.7746627,68.4491898 75.2695647,68.1580291 C74.7625856,67.8621724 74.3543686,67.4367021 74.0552603,66.9032207 C73.7552115,66.3612862 73.6047167,65.7968103 73.6047167,65.2097928 C73.6047167,64.620897 73.7514491,64.0554818 74.0458544,63.5201219 C74.3430815,63.0007289 74.7522391,62.5827725 75.2526341,62.2944295 C75.7539696,61.999512 76.3108002,61.8529924 76.9061949,61.8529924 C77.8392623,61.8529924 78.6039637,62.1713907 79.2416851,62.8213363 C79.889753,63.4722213 80.2039108,64.2686865 80.2039108,65.2445443 C80.2039108,65.8813408 80.0590596,66.4589659 79.7693572,66.9652097 L79.7693572,66.9652097 Z M80.1249011,61.1063062 C79.8050997,60.8104495 79.4636648,60.5700071 79.0996557,60.375587 C78.4158452,60.0168019 77.6445597,59.8327132 76.8083734,59.8327132 C75.358921,59.8327132 74.1041711,60.3577416 73.0770446,61.4031022 C72.0470962,62.4456452 71.5269488,63.7089067 71.5269488,65.1656491 C71.5269488,66.657143 72.0433339,67.9335537 73.0591733,68.9864281 C74.0797157,70.0308495 75.3278814,70.5568171 76.7773338,70.5568171 C77.5871836,70.5568171 78.3462414,70.38306 79.0319331,70.0468164 C79.4119323,69.8561531 79.7815849,69.6119539 80.1249011,69.3189148 L80.1249011,70.3098002 L82.1753918,70.3098002 L82.1753918,60.0806694 L80.1249011,60.0806694 L80.1249011,61.1063062 Z" id="Fill-11" fill="#FEFEFE" mask="url(#mask-3)"></path>
                            <polygon id="Fill-12" fill="#FEFEFE" mask="url(#mask-3)" points="83.8509625 70.3089549 85.913681 70.3089549 85.913681 56.4534653 83.8509625 56.4534653"></polygon>
                            <path d="M90.3009787,62.6249438 C90.8926111,62.0952193 91.5735998,61.8378708 92.3937961,61.8378708 C92.8763198,61.8378708 93.3635465,61.9552743 93.807506,62.1590868 C94.2486437,62.3610208 94.6051281,62.6343361 94.8675533,62.9733973 C95.0500281,63.1931767 95.21181,63.4796412 95.3359681,63.8187024 L89.5108813,63.8187024 C89.7243957,63.3040055 89.9849398,62.9038945 90.3009787,62.6249438 L90.3009787,62.6249438 Z M95.543839,66.5527948 C95.2061664,67.1285415 94.8901275,67.5408625 94.6051281,67.7850617 C94.3295346,68.0273825 93.9880997,68.2255596 93.5798827,68.3683223 C93.1726063,68.5242341 92.7643894,68.5937369 92.3383011,68.5937369 C91.457907,68.5937369 90.7402352,68.2969409 90.150484,67.6845644 C89.6397425,67.1501437 89.3368718,66.5067726 89.2540997,65.7140643 L97.6733395,65.7140643 L97.6695771,65.2810802 C97.6601712,63.9126252 97.2782908,62.7423473 96.539926,61.8200255 C95.5033935,60.4985319 94.1056737,59.8326193 92.3749842,59.8326193 C90.6885026,59.8326193 89.31806,60.4928965 88.3191512,61.7702464 C87.5271726,62.7752203 87.1245992,63.9332882 87.1245992,65.226605 C87.1245992,66.5875462 87.5948953,67.8254485 88.5223191,68.9055606 C89.4704359,70.0016395 90.784443,70.5567232 92.4427069,70.5567232 C93.1726063,70.5567232 93.853595,70.4430766 94.4489898,70.2101481 C95.0443846,69.982855 95.5918092,69.6419153 96.0621052,69.2089312 C96.539926,68.7740687 96.9528459,68.2002005 97.3093303,67.5042326 L97.4965081,67.1285415 L95.7517098,66.2109158 L95.543839,66.5527948 Z" id="Fill-13" fill="#FEFEFE" mask="url(#mask-3)"></path>
                            <path d="M14.7453799,67.93562 L15.0106269,67.6003156 L13.3410759,66.3379934 L13.0880567,66.6479386 C11.9640491,67.9506476 10.6077153,68.5799303 8.94098618,68.5799303 C7.42757351,68.5799303 6.20574439,68.1206479 5.21059797,67.1504255 C4.23332279,66.18396 3.75550201,65.0221351 3.75550201,63.5804203 C3.75550201,62.6336786 3.97560056,61.7771028 4.40733233,61.0322951 C4.84470765,60.2827912 5.46737961,59.6807462 6.26123933,59.2346129 C7.06356438,58.7837835 7.93079028,58.5602473 8.86573881,58.5602473 C9.72355879,58.5602473 10.5174185,58.7340045 11.2294467,59.0749442 C11.9480591,59.4149447 12.5622657,59.9174316 13.0748884,60.5871011 L13.3241453,60.9148916 L15.0002804,59.6441163 L14.7576076,59.305055 C14.1048367,58.4071532 13.2583038,57.701793 12.2518703,57.2021238 C11.2444962,56.7109076 10.0950927,56.4535592 8.85257052,56.4535592 C6.77950557,56.4535592 5.0281231,57.1401348 3.64639333,58.4794737 C2.26372297,59.8253873 1.56862542,61.5000306 1.56862542,63.4667737 C1.56862542,65.3255057 2.14614896,66.9390992 3.28332479,68.2709243 C4.64248035,69.835678 6.52366452,70.6283863 8.86573881,70.6283863 C10.0950927,70.6283863 11.2228626,70.3954578 12.2170684,69.9296008 C13.2216208,69.4675006 14.071916,68.7921958 14.7453799,67.93562" id="Fill-14" fill="#FEFEFE" mask="url(#mask-3)"></path>
                            <path d="M8.72709554,83.8070683 C8.51452172,84.1226489 8.23328469,84.3555774 7.88244384,84.502097 C7.50244464,84.6580088 6.87130735,84.7350255 6.00314086,84.7350255 L4.86596503,84.7350255 L4.86596503,80.7273401 L5.15284562,80.7273401 C6.18937809,80.7273401 6.9126934,80.7696054 7.30397971,80.8701028 C7.87021615,81.0081693 8.29442318,81.2457939 8.59917501,81.5998828 C8.90016448,81.9417618 9.0515998,82.3306021 9.0515998,82.7889453 C9.0515998,83.1599403 8.94060994,83.4896093 8.72709554,83.8070683 L8.72709554,83.8070683 Z M4.86596503,75.385012 L5.90437869,75.385012 C6.68601071,75.385012 7.23625708,75.5268354 7.5673455,75.7926369 C7.87021615,76.0368361 8.02165147,76.3777758 8.02165147,76.8323621 C8.02165147,77.1770587 7.93041404,77.4804294 7.73006793,77.7640762 C7.53630596,78.0430268 7.27858373,78.2543531 6.9493765,78.3849058 C6.58630795,78.52579 5.98715079,78.5971713 5.15942976,78.5971713 L4.86596503,78.5971713 L4.86596503,75.385012 Z M9.94516228,79.9581125 C9.7062519,79.7496039 9.40244065,79.5608191 9.03843152,79.3936365 C9.31590618,79.1513157 9.54352946,78.8855143 9.72412314,78.587779 C10.0382809,78.0618114 10.1991221,77.4616448 10.1991221,76.8323621 C10.1991221,76.1373335 10.0157067,75.5099293 9.65640051,74.948271 C9.30461908,74.383795 8.80516468,73.9602033 8.18813627,73.695341 C7.58991971,73.4220257 6.76972341,73.2924122 5.6889831,73.2924122 L2.76280113,73.2924122 L2.76280113,86.8304429 L6.68318894,86.8304429 C8.03858213,86.8304429 9.14283724,86.4416025 9.96585531,85.6658003 C10.8001605,84.8787273 11.2290705,83.8972342 11.2290705,82.7739177 C11.2290705,82.2038063 11.1105559,81.6806564 10.8848138,81.2025894 C10.667537,80.7141909 10.3467951,80.2943561 9.94516228,79.9581125 L9.94516228,79.9581125 Z" id="Fill-15" fill="#FEFEFE" mask="url(#mask-3)"></path>
                            <path d="M20.5093282,83.4804988 C20.2243288,83.9848642 19.8311613,84.3793399 19.3025486,84.6780143 C18.7786388,84.9663573 18.2180459,85.1222691 17.632057,85.1222691 C17.0413652,85.1222691 16.5118119,84.9701142 15.9944862,84.6780143 C15.4978536,84.3793399 15.0896366,83.9576266 14.786766,83.4147528 C14.4820141,82.8840891 14.3296382,82.3120993 14.3296382,81.7325957 C14.3296382,81.1436998 14.4820141,80.5764062 14.7754789,80.0410463 C15.0792901,79.5160179 15.4846853,79.1018184 15.9879021,78.8172324 C16.4967624,78.514801 17.039484,78.3767345 17.6358194,78.3767345 C18.5801739,78.3767345 19.3373505,78.683862 19.9713095,79.3385039 C20.6221993,79.9931457 20.9372976,80.7896109 20.9372976,81.7654687 C20.9372976,82.4041436 20.7924464,82.974255 20.5093282,83.4804988 L20.5093282,83.4804988 Z M20.8620503,77.6159599 C20.5384866,77.3313739 20.1951705,77.0852962 19.8311613,76.8983898 C19.1511133,76.5367871 18.3788871,76.3555161 17.5483443,76.3555161 C16.0988919,76.3555161 14.8413203,76.8843014 13.8132532,77.9202698 C12.7833048,78.9571773 12.264098,80.2260742 12.264098,81.6922089 C12.264098,83.1799459 12.7748395,84.4563566 13.7925601,85.5035956 C14.8206273,86.5442601 16.0603277,87.0739847 17.5078989,87.0739847 C18.3177487,87.0739847 19.0796283,86.9039844 19.7596763,86.5564701 C20.1424973,86.3808345 20.5130906,86.1309999 20.8620503,85.8360823 L20.8620503,86.8297854 L22.9012539,86.8297854 L22.9012539,76.59408 L20.8620503,76.59408 L20.8620503,77.6159599 Z" id="Fill-16" fill="#FEFEFE" mask="url(#mask-3)"></path>
                            <path d="M32.0297001,76.9554949 C31.4201964,76.5666545 30.7147523,76.3553283 29.9284174,76.3553283 C29.1684189,76.3553283 28.4526284,76.5375385 27.810204,76.8916274 C27.4640661,77.0710199 27.1376806,77.3039484 26.83481,77.5960483 L26.83481,76.5938922 L24.7673886,76.5938922 L24.7673886,86.8305368 L26.83481,86.8305368 L26.83481,82.9646748 C26.83481,81.7690378 26.8874831,80.9472134 26.9890671,80.5236216 C27.1527301,79.890582 27.478175,79.3730674 27.9917383,78.9475972 C28.4930738,78.5258839 29.0517855,78.3183145 29.6932693,78.3183145 C30.2322286,78.3183145 30.6517327,78.4432318 30.9752963,78.703398 C31.3007412,78.955111 31.5123744,79.3289237 31.6412355,79.8708582 C31.6967305,80.0962729 31.7653937,80.6316328 31.7653937,81.9343419 L31.7653937,86.8305368 L33.8187062,86.8305368 L33.8187062,81.576496 C33.8187062,80.2258864 33.6813798,79.2500286 33.3963804,78.5878729 C33.106678,77.9097504 32.6429661,77.3612413 32.0297001,76.9554949" id="Fill-17" fill="#FEFEFE" mask="url(#mask-3)"></path>
                            <polygon id="Fill-18" fill="#FEFEFE" mask="url(#mask-3)" points="44.4539809 76.59408 41.375423 76.59408 37.6196388 79.8616538 37.6196388 72.9742958 35.5456333 72.9742958 35.5456333 86.8297854 37.6196388 86.8297854 37.6196388 83.1376806 41.7478975 86.8297854 44.7267526 86.8297854 38.8123096 81.5099987"></polygon>
                        </g>
                    </g>
                </g>
            </g>
        </g>
    </g>
</svg>