<?xml version="1.0" encoding="UTF-8"?>
<svg width="96px" height="96px" viewBox="0 0 96 96" version="1.1" xmlns="http://www.w3.org/2000/svg" xmlns:xlink="http://www.w3.org/1999/xlink">
    <!-- Generator: Sketch 46.2 (44496) - http://www.bohemiancoding.com/sketch -->
    <title>Rotate</title>
    <desc>Created with Sketch.</desc>
    <defs></defs>
    <g id="Page-1" stroke="none" stroke-width="1" fill="none" fill-rule="evenodd">
        <g id="Rotate">
            <g id="Group-3" transform="translate(48.000000, 69.500000) rotate(-270.000000) translate(-48.000000, -69.500000) translate(22.500000, 22.500000)" stroke="#161414" stroke-width="2">
                <rect id="Rectangle-3" stroke-linecap="square" x="3.55271368e-14" y="-1.42108547e-14" width="51" height="94" rx="5"></rect>
                <rect id="Rectangle-4" x="7" y="12" width="37" height="67" rx="2"></rect>
                <rect id="Rectangle-4" x="20" y="4" width="11" height="4" rx="2"></rect>
                <circle id="Oval" cx="25.5" cy="86.5" r="3.5"></circle>
            </g>
            <rect id="Rectangle-4" stroke="#161414" stroke-width="2" x="21" y="5" width="11" height="4" rx="2"></rect>
            <path d="M52,1 L52,43 L52,43 C52,45.7614237 49.7614237,48 47,48 L6,48 L6,48 C3.23857625,48 1,45.7614237 1,43 L1,5" id="Rectangle-3" stroke="#161414" stroke-width="2" stroke-linecap="square" transform="translate(26.500000, 24.500000) rotate(-180.000000) translate(-26.500000, -24.500000) "></path>
            <path d="M8,44 L45,44 L45,14 C45,13.4477153 44.5522847,13 44,13 L9,13 C8.44771525,13 8,13.4477153 8,14 L8,44 Z" id="Rectangle-4" stroke="#161414" stroke-width="2"></path>
            <path d="M74.3406569,29.320928 L70.2835369,25.3763788 C69.9140205,25.0171152 69.3167459,25.0171152 68.9472295,25.3763788 C68.7629438,25.5555512 68.6703284,25.7907724 68.6703284,26.0259936 C68.6703284,26.2612148 68.7629438,26.496436 68.9472295,26.6756084 L74.6166129,32.1876863 C74.7035579,32.2731378 74.808459,32.3402126 74.9247007,32.3870731 C75.1552941,32.4798752 75.4151841,32.4798752 75.6467225,32.3870731 C75.7629643,32.3402126 75.8678653,32.2731378 75.9548104,32.1876863 L81.6241938,26.6756084 C81.9937102,26.3163447 81.9937102,25.7356424 81.6241938,25.3763788 C81.2546774,25.0171152 80.6574028,25.0171152 80.2878864,25.3763788 L76.2307664,29.320928 L76.2307664,26.9448264 C76.2307664,20.3586329 70.7192071,15 63.9450547,15 C63.4224395,15 63,15.4107183 63,15.9188328 C63,16.4269473 63.4224395,16.8376656 63.9450547,16.8376656 C69.6768117,16.8376656 74.3406569,21.3721055 74.3406569,26.9448264 L74.3406569,29.320928 Z" id="Shape" fill="#000000" fill-rule="nonzero"></path>
        </g>
    </g>
</svg>