<?xml version="1.0" encoding="UTF-8"?>
<svg width="96px" height="96px" viewBox="0 0 96 96" version="1.1" xmlns="http://www.w3.org/2000/svg" xmlns:xlink="http://www.w3.org/1999/xlink">
    <!-- Generator: Sketch 46.2 (44496) - http://www.bohemiancoding.com/sketch -->
    <title>Rotate Copy</title>
    <desc>Created with Sketch.</desc>
    <defs></defs>
    <g id="Page-1" stroke="none" stroke-width="1" fill="none" fill-rule="evenodd">
        <g id="Rotate-Copy">
            <rect id="Rectangle-4" stroke="#161414" stroke-width="2" transform="translate(88.000000, 69.500000) rotate(-90.000000) translate(-88.000000, -69.500000) " x="82.5" y="67.5" width="11" height="4" rx="2"></rect>
            <path d="M97,46 L97,88 L97,88 C97,90.7614237 94.7614237,93 92,93 L51,93 L51,93 C48.2385763,93 46,90.7614237 46,88 L46,50" id="Rectangle-3" stroke="#161414" stroke-width="2" stroke-linecap="square" transform="translate(71.500000, 69.500000) scale(1, -1) rotate(-90.000000) translate(-71.500000, -69.500000) "></path>
            <path d="M49,85 L86,85 L86,55 C86,54.4477153 85.5522847,54 85,54 L50,54 C49.4477153,54 49,54.4477153 49,55 L49,85 Z" id="Rectangle-4" stroke="#161414" stroke-width="2" transform="translate(67.500000, 69.500000) rotate(-270.000000) translate(-67.500000, -69.500000) "></path>
            <g id="Group-3" transform="translate(26.000000, 48.500000) rotate(-360.000000) translate(-26.000000, -48.500000) translate(0.500000, 1.500000)" stroke="#161414" stroke-width="2">
                <rect id="Rectangle-3" stroke-linecap="square" x="3.55271368e-14" y="-1.42108547e-14" width="51" height="93.5" rx="5"></rect>
                <rect id="Rectangle-4" x="7" y="11.9414894" width="37" height="66.6329787" rx="2"></rect>
                <rect id="Rectangle-4" x="20" y="3.98404255" width="11" height="3.96808511" rx="1.98404255"></rect>
                <ellipse id="Oval" cx="25.5" cy="86.0398936" rx="3.5" ry="3.48138298"></ellipse>
            </g>
            <path d="M72.6183287,29.0432562 L68.5612087,25.098707 C68.1916923,24.7394434 67.5944177,24.7394434 67.2249013,25.098707 C67.0406156,25.2778794 66.9480002,25.5131006 66.9480002,25.7483218 C66.9480002,25.983543 67.0406156,26.2187642 67.2249013,26.3979366 L72.8942847,31.9100145 C72.9812297,31.995466 73.0861308,32.0625408 73.2023725,32.1094013 C73.4329659,32.2022034 73.6928559,32.2022034 73.9243943,32.1094013 C74.0406361,32.0625408 74.1455371,31.995466 74.2324822,31.9100145 L79.9018655,26.3979366 C80.271382,26.038673 80.271382,25.4579706 79.9018655,25.098707 C79.5323491,24.7394434 78.9350745,24.7394434 78.5655581,25.098707 L74.5084381,29.0432562 L74.5084381,26.6671546 C74.5084381,20.0809611 68.9968789,14.7223282 62.2227265,14.7223282 C61.7001113,14.7223282 61.2776718,15.1330465 61.2776718,15.641161 C61.2776718,16.1492756 61.7001113,16.5599938 62.2227265,16.5599938 C67.9544835,16.5599938 72.6183287,21.0944337 72.6183287,26.6671546 L72.6183287,29.0432562 Z" id="Shape" fill="#000000" fill-rule="nonzero" transform="translate(70.728337, 23.450666) scale(-1, 1) rotate(-90.000000) translate(-70.728337, -23.450666) "></path>
        </g>
    </g>
</svg>