<?xml version="1.0" encoding="UTF-8"?>
<svg width="115px" height="156px" viewBox="0 0 115 156" version="1.1" xmlns="http://www.w3.org/2000/svg" xmlns:xlink="http://www.w3.org/1999/xlink">
    <!-- Generator: Sketch 45.1 (43504) - http://www.bohemiancoding.com/sketch -->
    <title>YB</title>
    <desc>Created with Sketch.</desc>
    <defs>
        <linearGradient x1="50%" y1="26.0602679%" x2="50%" y2="100%" id="linearGradient-1">
            <stop stop-color="#00B8EC" offset="0%"></stop>
            <stop stop-color="#3D60A4" offset="100%"></stop>
        </linearGradient>
        <polygon id="path-2" points="0 100.139717 87.5787034 100.139717 87.5787034 0 0 0"></polygon>
    </defs>
    <g id="Page-1" stroke="none" stroke-width="1" fill="none" fill-rule="evenodd">
        <g id="YB">
            <g id="CB-logo" fill="url(#linearGradient-1)">
                <rect id="Rectangle-2" x="0" y="0" width="114.900391" height="155.653239" rx="20"></rect>
            </g>
            <g transform="translate(13.584283, 27.734577)">
                <path d="M32.5482233,50.0385198 C42.3756367,50.3508121 53.6902127,47.2733683 61.9181676,42.3706821 C72.219045,36.1157397 76.5682369,26.1436091 76.5682369,14.9859805 L76.5682369,1.22692653 L55.8268709,1.22692653 L55.8268709,14.5978891 C55.8268709,19.9796257 53.5323914,24.3244306 47.7445973,27.8081575 C44.8157974,29.469674 41.3346229,30.8128342 37.7775727,30.8128342 C33.7379534,30.8128342 30.0868174,29.7091992 27.0821419,27.4837374 C22.8118606,24.4881566 20.3443847,19.024557 20.3443847,14.2825648 L20.3443847,1.22692653 L0.000607005153,1.22692653 L0.000607005153,14.5978891 C0.000607005153,26.2254722 7.80669327,31.6648161 27.7194973,33.9024058 C33.9170199,34.5936936 40.3178892,34.5512461 46.7126885,32.4349351 C50.5125408,31.1736379 50.9404794,30.4338386 52.1089643,29.8668613 L52.5793933,30.3459117 L52.2698207,31.2039576 C49.9692712,37.3073017 44.8947081,41.9674308 39.4286267,44.7356142 C32.3904019,48.3103001 23.919645,47.979816 16.1530141,46.876181 L15.9982278,46.876181 C19.1060942,48.9712684 29.3098508,49.9657526 32.5482233,50.0385198 L32.5482233,50.0385198 Z" id="Fill-1" fill="#FEFEFE"></path>
                <path d="M49.5334415,20.603604 C48.8323505,21.8830929 47.3755381,23.3717874 46.5712563,23.3717874 L46.4225401,23.3505636 C46.1342126,23.1868376 45.9915664,22.9230567 45.706274,22.4318784 C45.4482968,21.961924 45.0840937,21.3252115 44.4345982,20.5763163 C43.6181763,19.3483708 42.7774741,18.7086263 42.1583289,18.2568636 L41.7455654,17.9294115 L41.8457212,17.5989274 C42.3798857,16.8773199 42.6985634,15.9677306 42.6985634,14.9702143 L42.6985634,14.9307988 L42.8138944,14.5851548 C44.2251814,14.4729722 45.7153791,14.1515839 46.8261985,13.7028532 C47.4362387,13.4572641 47.5728148,13.3541773 47.7913367,13.1813554 C47.9339829,13.044917 48.1737499,12.8478393 49.1510282,12.3445332 L49.7337532,12.1868711 C50.2527426,12.1868711 50.419669,13.0176293 50.5623152,14.0151456 L50.662471,14.573027 C50.653366,15.6311825 50.4439492,18.6540509 49.5334415,20.603604 M41.4936582,26.6978522 L40.4374693,27.0071126 C39.584627,27.1011035 38.9199564,27.1465829 38.2765309,27.1465829 C37.3113927,27.1465829 36.3462545,27.0313683 34.631465,26.6917883 C33.7391674,26.5219983 32.3096703,25.9671488 32.4796317,25.018144 C32.5615774,24.4299429 33.1382323,23.8781254 33.7330973,23.3111481 L34.7376909,22.2681524 C35.4478869,21.4222343 36.1155926,20.5459967 36.5556713,19.1937406 L37.0169952,19.1937406 C37.4085135,19.324115 37.8303821,19.412042 38.2613558,19.412042 C38.7378548,19.412042 39.1688285,19.327147 39.6149773,19.1937406 L39.8941996,19.1937406 C40.1400367,20.2337043 40.9139683,21.6496317 41.6484445,22.7138511 C41.9640872,23.1595499 42.2857999,23.5203536 42.5771624,23.8417418 C43.1659574,24.5209019 43.4573199,24.8544179 43.3844793,25.3395322 C43.2175529,26.2157699 42.643933,26.4037517 41.4936582,26.6978522 M30.9408736,21.5738326 C30.3338685,22.3803351 29.9939456,22.807842 29.6145674,22.8169379 C28.6039038,22.6683717 27.5507499,21.8315495 26.8921493,20.6399875 C25.9664664,18.6237313 25.7540146,15.5432556 25.7449095,14.5487713 C25.8602405,12.95699 26.1455329,12.3869807 26.8162736,12.3869807 L26.864834,12.3869807 C27.5932402,12.4779397 28.0211789,12.7174648 28.5007129,13.0024695 C28.864916,13.214707 29.2807145,13.4572641 29.8725446,13.6422139 L29.9727004,13.6664697 C31.10173,14.0333373 32.6071028,14.4911639 33.9485842,14.6397302 L33.9212689,14.9702143 C33.9212689,15.9919863 34.2490517,16.9076395 34.7801812,17.629247 L34.8499868,17.9051558 L34.276367,18.2689915 C33.6329415,18.6661788 32.7436789,19.2089004 31.9333271,20.2913117 C31.5387737,20.7642981 31.2079559,21.1857411 30.9408736,21.5738326 M28.9316866,6.82029427 L29.2018039,6.45039463 C30.6616513,4.77371837 31.5630539,4.2279648 34.2581568,3.43965408 C34.6618152,3.33656729 35.1170691,3.26986408 35.5116224,3.26986408 C36.0700672,3.26986408 36.4980058,3.39114265 36.6801074,3.59731622 L36.8106135,4.12790998 C36.7711581,4.85254944 36.7104576,5.2467048 36.6679673,5.59841266 C36.6163718,6.02288766 36.5678114,6.37459552 36.5678114,7.05375552 C36.4980058,8.20286999 36.7317028,9.22161 37.0018201,10.3980121 L37.0655556,10.6708889 L36.7802632,10.8952543 C35.9183159,11.1984507 35.1716996,11.7381404 34.6618152,12.4930995 L34.631465,12.5234191 L34.0032146,12.0655925 C33.4690501,11.6441495 32.7800993,11.086268 31.6176844,10.7375921 C30.868033,10.4374277 30.2337126,10.2767336 29.7238283,10.1402952 C29.0197023,9.95534536 28.5492733,9.83103482 28.1941753,9.47932696 C27.5416448,8.90931767 27.9392332,8.19983803 28.9316866,6.82029427 M40.9382485,15.0429815 C40.9382485,16.5559316 39.696923,17.7899411 38.1794101,17.7899411 C36.7013525,17.7899411 35.4994823,16.5559316 35.4994823,15.0429815 C35.4994823,13.551255 36.6801074,12.365757 38.1794101,12.365757 C39.7272732,12.365757 40.9382485,13.551255 40.9382485,15.0429815 M39.7667286,7.23264142 C39.7667286,6.53225766 39.7272732,6.17448588 39.6696077,5.7560748 C39.6271174,5.40436695 39.5694519,5.00717962 39.5269615,4.26434837 L39.6544326,3.76710622 C39.8395692,3.54880479 40.3069631,3.42752622 40.9048632,3.42752622 C41.3176267,3.42752622 41.8153709,3.4972614 42.2250994,3.59731622 C44.9444825,4.37956301 45.827675,4.92531659 47.2723473,6.5716732 L47.8065118,7.28418481 C48.8444906,8.60005732 49.011417,9.03969214 48.3163961,9.62182929 C48.064489,9.82193893 47.8065118,9.87045036 47.3209077,9.94018554 C46.7472878,10.0190166 45.9642512,10.1402952 44.8625368,10.667857 C43.6788768,11.1560032 42.9565406,11.8139395 42.3889908,12.3445332 L42.0338928,12.6568255 C41.4238526,11.6896289 40.4374693,11.0104689 39.2902295,10.7406241 L39.3357549,10.5374825 C39.6149773,9.37017625 39.8274291,8.35446821 39.7667286,7.23264142 M51.1116549,10.91951 L51.9644971,9.57634982 L50.4105639,9.29740911 C50.54107,8.28170107 50.1950771,7.1750341 49.3756201,6.05320731 C47.5030092,3.43662212 43.5028453,1.23238407 40.6559911,1.23238407 C40.0064956,1.23238407 39.4298407,1.35063068 38.9472716,1.56286818 L38.3463365,0.283379244 L37.2992526,1.64169925 C36.6892124,1.42946175 36.0215068,1.29908728 35.3325559,1.29908728 C32.0334829,1.29908728 28.3611017,3.92476837 26.7009427,6.46555445 C25.9664664,7.5995091 25.6933141,8.627345 25.8966608,9.43991143 L25.3351811,9.59757357 L24.3943231,9.59757357 L25.3351811,10.9407338 C23.9512093,11.9473459 23.6871621,14.8186161 24.0817154,17.4685529 C24.6340901,21.0462708 26.4247553,24.6452124 29.2018039,24.5694133 L29.2018039,26.1551306 L30.5614954,25.785231 L30.9712239,26.7948751 C32.1730941,28.4321358 35.6512336,29.0233688 38.2583208,29.0233688 C41.1476653,29.0233688 43.4391097,28.3654326 44.3921078,27.2860533 L44.886817,26.3340165 L46.7260426,26.9131217 L46.5560812,25.1697422 C49.3756201,25.0939431 51.2634061,22.0043715 52.070723,19.1088456 C52.899285,16.1708722 52.9053551,12.4779397 51.1116549,10.91951" id="Fill-3" fill="#FEFEFE"></path>
                <path d="M30.5478378,69.7032338 C30.0379535,69.4121653 29.5462793,69.266631 29.0879904,69.266631 C28.4870553,69.266631 27.9012953,69.4606767 27.3671308,69.8123846 L26.7176353,70.3338824 L26.7176353,69.5516356 L24.3776304,69.5516356 L24.3776304,81.3065612 L26.7176353,81.3065612 L26.7176353,77.1800578 C26.7176353,75.3548153 26.796546,74.1389976 26.9574023,73.5598924 C27.1698541,72.8473808 27.4490765,72.325883 27.8193496,72.0075267 L28.8482234,71.5436362 L29.4097031,71.6891705 L29.7769413,71.8528965 L30.9606013,69.9397271 L30.5478378,69.7032338 Z" id="Fill-5" fill="#FEFEFE"></path>
                <polygon id="Fill-7" fill="#FEFEFE" points="42.1619709 69.5534548 38.7263217 69.5534548 34.3346394 73.3767618 34.3346394 65.3693441 32.0158798 65.3693441 32.0158798 81.3083804 34.3346394 81.3083804 34.3346394 76.9938952 39.1542604 81.3083804 42.4836836 81.3083804 35.6852259 75.1838125"></polygon>
                <path d="M46.361536,71.486332 C46.941226,71.486332 47.5725113,71.8168161 48.2220068,72.4444328 L48.5588947,72.762789 L50.0885477,71.1831356 L49.7577299,70.8678113 C48.6590505,69.8157197 47.5482311,69.2699661 46.4283066,69.2699661 C45.4540633,69.2699661 44.6346064,69.5883224 43.9760058,70.2250349 C43.3325803,70.8556835 43.0108676,71.6470261 43.0108676,72.6020949 C43.0108676,73.3267344 43.2051092,73.9816387 43.6209078,74.5516479 C44.0124261,75.0943696 44.7226221,75.649219 45.772741,76.1798128 C46.831965,76.7285983 47.2416935,77.0560505 47.3843397,77.2258405 L47.6635621,77.9959594 L47.2204483,78.9328364 C46.9230158,79.2057131 46.5588127,79.3482155 46.1126639,79.3482155 C45.4510283,79.3482155 44.8136729,79.0056035 44.1854226,78.2930919 L43.8454997,77.9080324 L42.3765472,79.5756128 L42.6102442,79.8818412 C43.0230077,80.406371 43.5511022,80.8247821 44.1793525,81.1310105 C44.8106379,81.4311749 45.4813786,81.5888371 46.1642594,81.5888371 C47.2204483,81.5888371 48.121851,81.2310653 48.8381171,80.5306815 C49.542243,79.8242339 49.9034111,78.9570921 49.9034111,77.9383521 C49.9034111,77.2197765 49.6970294,76.5557763 49.2721257,75.9706072 C48.8502572,75.397566 48.1097109,74.8548444 46.9988914,74.2818031 C46.009473,73.7694012 45.6209898,73.441949 45.4631684,73.2418394 L45.1718059,72.5323597 L45.4995887,71.8228801 L46.361536,71.486332" id="Fill-9" fill="#FEFEFE"></path>
                <path d="M60.1863819,69.9676211 C59.497431,69.5067625 58.6840441,69.2702693 57.7856765,69.2702693 C56.9358693,69.2702693 56.1103423,69.4794749 55.366761,69.8887901 C54.9479274,70.1101234 54.5564091,70.4072559 54.1709608,70.7589638 L54.1709608,65.3711632 L51.8673763,65.3711632 L51.8673763,81.3041356 L54.1709608,81.3041356 L54.1709608,76.8744358 C54.1709608,75.4827642 54.2316613,74.5276954 54.3591324,74.0334852 C54.5564091,73.3027819 54.9357873,72.7024529 55.5215473,72.2021788 C56.1164123,71.7140326 56.7750129,71.4745074 57.5094892,71.4745074 C58.1468446,71.4745074 58.6385188,71.6139777 59.0057569,71.9232381 C59.3942402,72.2143067 59.6491823,72.6751652 59.7978986,73.2845901 C59.8646692,73.542307 59.9375098,74.1790195 59.9375098,75.6798419 L59.9375098,81.3041356 L62.2441294,81.3041356 L62.2441294,75.2674947 C62.2441294,73.7090651 62.086308,72.5811743 61.7645953,71.8353111 C61.4246724,71.0530643 60.902648,70.4254477 60.1863819,69.9676211" id="Fill-11" fill="#FEFEFE"></path>
                <path d="M65.68251,65.0919193 C65.2424313,65.0919193 64.8600181,65.2495815 64.5443754,65.5588418 C64.2348028,65.8771981 64.0739464,66.2531617 64.0739464,66.6988604 C64.0739464,67.1415272 64.2348028,67.5174908 64.5443754,67.8267511 C64.8600181,68.1451074 65.2424313,68.2967056 65.68251,68.2967056 C66.1256238,68.2967056 66.5110721,68.1451074 66.8145747,67.8267511 C67.1241473,67.5174908 67.2819686,67.1415272 67.2819686,66.6988604 C67.2819686,66.2531617 67.1241473,65.8771981 66.8145747,65.5588418 C66.5110721,65.2495815 66.1256238,65.0919193 65.68251,65.0919193" id="Fill-13" fill="#FEFEFE"></path>
                <mask id="mask-3" fill="white">
                    <use xlink:href="#path-2"></use>
                </mask>
                <g id="Clip-16"></g>
                <polygon id="Fill-15" fill="#FEFEFE" mask="url(#mask-3)" points="64.5276827 81.3035292 66.8434074 81.3035292 66.8434074 69.5486037 64.5276827 69.5486037"></polygon>
                <path d="M75.4322268,69.7032338 C74.9223425,69.4121653 74.4306683,69.266631 73.9723794,69.266631 C73.3653743,69.266631 72.7947894,69.4606767 72.2454498,69.8245124 L71.6020243,70.3338824 L71.6020243,69.5516356 L69.2680895,69.5516356 L69.2680895,81.3065612 L71.6020243,81.3065612 L71.6020243,77.1800578 C71.6020243,75.3548153 71.680935,74.1389976 71.8539314,73.5598924 C72.0512081,72.8473808 72.3334655,72.325883 72.7007036,72.0075267 L73.7417175,71.5436362 L74.3001622,71.6891705 L74.6643653,71.8528965 L75.8510604,69.9397271 L75.4322268,69.7032338 Z" id="Fill-17" fill="#FEFEFE" mask="url(#mask-3)"></path>
                <path d="M78.1294542,73.8730943 C78.3783263,73.2545736 78.690934,72.7755233 79.0703122,72.4359433 C79.750158,71.8234865 80.5514048,71.526354 81.5074379,71.526354 C82.0901628,71.526354 82.6455725,71.6385366 83.1584919,71.8871577 C83.6774813,72.1266829 84.0963148,72.4450392 84.4058875,72.8331306 C84.6274444,73.1060074 84.815616,73.4607472 84.9734373,73.8730943 L78.1294542,73.8730943 Z M87.5683843,75.5315788 C87.5623143,73.9549574 87.1252706,72.6148292 86.2693933,71.5566736 C85.0857332,70.0406915 83.4771696,69.2705725 81.4892277,69.2705725 C79.5498463,69.2705725 77.989843,70.0194677 76.8304632,71.4960343 C75.9229905,72.6451488 75.4677366,73.985277 75.4677366,75.4618436 C75.4677366,77.0263372 76.0110062,78.4483285 77.0732652,79.6914338 C78.1598045,80.949699 79.6682123,81.5833795 81.5711734,81.5833795 C82.4179456,81.5833795 83.1888421,81.4499731 83.883863,81.1952881 C84.5576388,80.9315072 85.1858891,80.5464478 85.7291587,80.0431417 C86.2693933,79.5428676 86.7580324,78.8788674 87.1586558,78.0875247 L87.3650376,77.6782095 L85.413516,76.6503736 L85.1858891,77.0263372 C84.7791956,77.6873054 84.4149926,78.1663558 84.0902448,78.4483285 C83.7685321,78.739397 83.3679087,78.9576985 82.9005147,79.1365844 C82.4270507,79.3063744 81.9505516,79.4033972 81.4467374,79.4033972 C80.4208987,79.4033972 79.5893016,79.0456254 78.8973157,78.3361458 C78.2903106,77.6994333 77.9473527,76.9384102 77.8471968,75.9924374 L87.5774894,75.9924374 L87.5683843,75.5315788 Z" id="Fill-18" fill="#FEFEFE" mask="url(#mask-3)"></path>
                <polygon id="Fill-19" fill="#FEFEFE" mask="url(#mask-3)" points="7.45978982 73.9670852 12.4645473 65.74743 9.70570889 65.74743 6.2670247 71.3626279 2.76460497 65.74743 0.00273152319 65.74743 5.1015748 73.9792131 5.1015748 81.3044388 7.45978982 81.3044388"></polygon>
                <path d="M16.4383065,71.5545512 C17.4671803,71.5545512 18.3473377,71.9244509 19.0787789,72.7006337 C19.8436054,73.4707527 20.2078085,74.3833739 20.2078085,75.4900409 C20.2078085,76.1904247 20.0378471,76.8544248 19.6948892,77.4638497 C19.3640714,78.0641786 18.8997124,78.5311011 18.3473377,78.8615852 C17.7676478,79.1860054 17.1302924,79.3527634 16.4383065,79.3527634 C15.7463207,79.3527634 15.1089653,79.1860054 14.5414154,78.8615852 C13.9769006,78.5311011 13.5125417,78.0641786 13.1786889,77.4638497 C12.8296609,76.8544248 12.6596995,76.1904247 12.6596995,75.4900409 C12.6596995,74.3833739 13.0299726,73.4707527 13.779624,72.6945698 C14.5262403,71.9244509 15.3972927,71.5545512 16.4383065,71.5545512 M20.8360589,79.7499507 C21.9590184,78.5220052 22.5326383,77.0878861 22.5326383,75.4657852 C22.5326383,73.8497482 21.9893687,72.4307889 20.9240746,71.2422589 C19.7373795,69.9385143 18.2289717,69.2684502 16.4383065,69.2684502 C14.6324662,69.2684502 13.1270934,69.9385143 11.9312933,71.2513548 C10.8720693,72.4338209 10.3287997,73.8588441 10.3287997,75.4657852 C10.3287997,77.0878861 10.9024195,78.5220052 12.0314491,79.7499507 C13.1665488,80.9688004 14.6506764,81.5873211 16.4383065,81.5873211 C18.2168316,81.5873211 19.6948892,80.9688004 20.8360589,79.7499507" id="Fill-20" fill="#FEFEFE" mask="url(#mask-3)"></path>
                <path d="M8.81007278,89.8072795 L7.91170516,90.5167592 C7.50197668,90.6683574 6.81909588,90.7532524 5.88430795,90.7532524 L5.53224496,90.7532524 L5.53224496,87.0906395 L6.72197506,87.0906395 C7.61123761,87.0906395 8.24252297,87.2483016 8.61279611,87.557562 C8.97092915,87.8365027 9.13178551,88.2215622 9.13178551,88.7218363 C9.13178551,89.1311515 9.02859464,89.4767954 8.81007278,89.8072795 L8.81007278,89.8072795 Z M5.53224496,93.1848877 L5.86306277,93.1848877 C7.04975784,93.1848877 7.8692148,93.2303672 8.31839861,93.3425499 C8.96789412,93.4941481 9.44135814,93.7730888 9.79949118,94.1702761 C10.1394141,94.5674635 10.3124105,95.0101303 10.3124105,95.540724 C10.3124105,95.9500392 10.1879745,96.3350987 9.94213739,96.6868065 C9.70844041,97.0476103 9.38672768,97.3083592 8.9769992,97.4872451 C8.54906057,97.6570351 7.83279449,97.7540579 6.84034106,97.7540579 L5.53224496,97.7540579 L5.53224496,93.1848877 Z M11.3291442,92.3056181 C11.0559918,92.0660929 10.7099989,91.8508235 10.2911654,91.6567777 L11.077237,90.7441565 C11.4384051,90.1377636 11.6114016,89.4586036 11.6114016,88.7218363 C11.6114016,87.9517174 11.4080548,87.2301099 11.0013614,86.5903654 C10.600738,85.9536529 10.0362232,85.4655066 9.32906219,85.1623102 C8.64314637,84.8560818 7.71139346,84.7075156 6.4913131,84.7075156 L3.14974974,84.7075156 L3.14974974,100.140214 L7.61123761,100.140214 C9.15910075,100.140214 10.4125664,99.700579 11.3564594,98.8122135 C12.3064225,97.9086881 12.7889916,96.7959572 12.7889916,95.5104044 C12.7889916,94.8676279 12.6554504,94.270331 12.3974732,93.7245774 C12.1455661,93.1697279 11.778328,92.6846136 11.3291442,92.3056181 L11.3291442,92.3056181 Z" id="Fill-21" fill="#FEFEFE" mask="url(#mask-3)"></path>
                <path d="M22.7626932,91.6018992 C23.5002045,92.3477624 23.8522675,93.2482558 23.8522675,94.3609867 C23.8522675,95.0856262 23.6853411,95.7435624 23.3545232,96.3317635 C23.0419156,96.8957088 22.6018369,97.3414076 21.9917967,97.6809876 C21.3908616,98.0145037 20.7444011,98.1903576 20.0858005,98.1903576 C19.4211299,98.1903576 18.8110897,98.0205676 18.2253297,97.6809876 C17.6547449,97.3414076 17.1934209,96.8562933 16.847428,96.2529324 C16.4984,95.6344117 16.3284386,94.9886033 16.3284386,94.3276351 C16.3284386,93.657571 16.4984,93.0087306 16.8352879,92.4084017 C17.1843159,91.8020088 17.6456398,91.3290224 18.2162246,91.0015703 C18.7959145,90.6619903 19.4120248,90.5012961 20.1009756,90.5012961 C21.1632346,90.5012961 22.0403571,90.853004 22.7626932,91.6018992 L22.7626932,91.6018992 Z M23.7642517,89.6432502 C23.4091537,89.3036702 23.0115653,89.0277615 22.6018369,88.812492 C21.8218352,88.4062088 20.9447128,88.1939713 19.9917147,88.1939713 C18.3467307,88.1939713 16.9141986,88.7943002 15.7366086,89.9919261 C14.5650886,91.1622644 13.9762936,92.6085113 13.9762936,94.2760917 C13.9762936,95.9770237 14.5559836,97.4263026 15.7123284,98.6299924 C16.8838483,99.8185224 18.3133455,100.421883 19.9552944,100.421883 C20.8749072,100.421883 21.7338195,100.212678 22.5138211,99.8306503 C22.9447948,99.6184128 23.3696984,99.342504 23.7642517,99.0120199 L23.7642517,100.139911 L26.0981865,100.139911 L26.0981865,88.4668481 L23.7642517,88.4668481 L23.7642517,89.6432502 Z" id="Fill-22" fill="#FEFEFE" mask="url(#mask-3)"></path>
                <path d="M36.4946673,88.8867752 C35.8026814,88.4289485 34.9923295,88.1954873 34.0939619,88.1954873 C33.2380846,88.1954873 32.4186277,88.3986289 31.6902215,88.814008 C31.2956682,89.0171496 30.925395,89.2839625 30.567262,89.6083827 L30.567262,88.4683641 L28.2211871,88.4683641 L28.2211871,100.138395 L30.567262,100.138395 L30.567262,95.7299186 C30.567262,94.3685666 30.6370676,93.4316896 30.7463285,92.9405114 C30.9375351,92.2249678 31.3199484,91.6458627 31.8935682,91.1455886 C32.4732581,90.6726021 33.1045435,90.4330769 33.8238446,90.4330769 C34.4460249,90.4330769 34.928594,90.5755793 35.3019022,90.8666478 C35.6570002,91.1546844 35.9119423,91.5821914 36.0545885,92.2037441 C36.1152891,92.4614611 36.1881297,93.0708859 36.1881297,94.5474525 L36.1881297,100.138395 L38.5342046,100.138395 L38.5342046,94.1563291 C38.5342046,92.6130593 38.3763833,91.5094243 38.0546705,90.7453693 C37.7208177,89.9752503 37.2018283,89.3446018 36.4946673,88.8867752" id="Fill-23" fill="#FEFEFE" mask="url(#mask-3)"></path>
                <polygon id="Fill-24" fill="#FEFEFE" mask="url(#mask-3)" points="44.2206289 94.0674926 50.6548835 88.4674545 47.1403236 88.4674545 42.8700424 92.1998025 42.8700424 84.3409511 40.5087924 84.3409511 40.5087924 100.140517 42.8700424 100.140517 42.8700424 95.9351826 47.5712973 100.140517 50.9644561 100.140517"></polygon>
            </g>
        </g>
    </g>
</svg>