<?xml version="1.0" standalone="no"?>
<!DOCTYPE svg PUBLIC "-//W3C//DTD SVG 1.1//EN" "http://www.w3.org/Graphics/SVG/1.1/DTD/svg11.dtd">
<svg xmlns="http://www.w3.org/2000/svg">
<metadata>Generated by Fontastic.me</metadata>
<defs>
<font id="untitled-font-1" horiz-adv-x="512">
<font-face font-family="untitled-font-1" units-per-em="512" ascent="480" descent="-32"/>
<missing-glyph horiz-adv-x="512" />

<glyph glyph-name="icon-briefcase" unicode="&#97;" d="M160 416l0 32c0 18 14 32 32 32l128 0c18 0 32-14 32-32l0-32 32 0 0 16c0 9 7 16 16 16l64 0c9 0 16-7 16-16l0-16c18 0 32-15 32-32l0-320c0-18-14-32-32-32l-448 0c-18 0-32 15-32 32l0 320c0 18 14 32 32 32l0 16c0 9 7 16 16 16l64 0c9 0 16-7 16-16l0-16z m32 32l0-32 128 0 0 32z m-160-64l0-320 32 0 0 320z m416 0l0-320 32 0 0 320z m-352 0l0-320 320 0 0 320z"/>
<glyph glyph-name="icon-building" unicode="&#98;" d="M320 32l32 0 0 448-192 0 0-448 32 0 0 96 128 0z m-192 384l0 96 256 0 0-96 128 0 0-416-512 0 0 416z m256-32l0-352 96 0 0 352z m-352-352l96 0 0 352-96 0z m192 64l0-64 64 0 0 64z m-32 320l128 0 0-32-128 0z m0-96l128 0 0-32-128 0z m0-96l128 0 0-32-128 0z m-128 96l32 0 0-32-32 0z m352 0l32 0 0-32-32 0z m-352-96l32 0 0-32-32 0z m352 0l32 0 0-32-32 0z m-352-96l32 0 0-32-32 0z m352 0l32 0 0-32-32 0z"/>
<glyph glyph-name="icon-calculator" unicode="&#99;" d="M64 416c0 18 15 32 32 32l320 0c18 0 32-15 32-32l0-320c0-18-15-32-32-32l-320 0c-18 0-32 15-32 32z m32-64l0-256 320 0 0 256z m0 64l0-32 320 0 0 32z m32-144c0 9 7 16 16 16l32 0c9 0 16-7 16-16l0-32c0-9-7-16-16-16l-32 0c-9 0-16 7-16 16z m0-96c0 9 7 16 16 16l32 0c9 0 16-7 16-16l0-32c0-9-7-16-16-16l-32 0c-9 0-16 7-16 16z m96 96c0 9 7 16 16 16l32 0c9 0 16-7 16-16l0-32c0-9-7-16-16-16l-32 0c-9 0-16 7-16 16z m0-96c0 9 7 16 16 16l32 0c9 0 16-7 16-16l0-32c0-9-7-16-16-16l-32 0c-9 0-16 7-16 16z m96 96c0 9 7 16 16 16l32 0c9 0 16-7 16-16l0-32c0-9-7-16-16-16l-32 0c-9 0-16 7-16 16z m0-96c0 9 7 16 16 16l32 0c9 0 16-7 16-16l0-32c0-9-7-16-16-16l-32 0c-9 0-16 7-16 16z"/>
<glyph glyph-name="icon-calculator-small" unicode="&#100;" d="M384 128l0 224-224 0 0-224z m-256 0l0 224c0 18 14 32 32 32l224 0c18 0 32-14 32-32l0-224c0-18-14-32-32-32l-224 0c-18 0-32 14-32 32z m64 128l0-32 32 0 0 32z m0-64l0-32 32 0 0 32z m64 64l0-32 32 0 0 32z m0-64l0-32 32 0 0 32z m64 64l0-32 32 0 0 32z m0-64l0-32 32 0 0 32z m-160 128l0-32 224 0 0 32z"/>
<glyph glyph-name="icon-chevron-down" unicode="&#101;" d="M313 310l30-29-92-89-91 89 30 29 61-59z"/>
<glyph glyph-name="icon-chevron-left" unicode="&#102;" d="M310 199l-29-30-89 92 89 91 29-30-59-61z"/>
<glyph glyph-name="icon-chevron-right" unicode="&#103;" d="M224 199l29-30 89 92-89 91-29-30 60-61z"/>
<glyph glyph-name="icon-chevron-up" unicode="&#104;" d="M313 202l30 29-92 89-91-89 30-29 61 59z"/>
<glyph glyph-name="icon-clipboard-tick" unicode="&#105;" d="M352 448l32 0 0-32 96 0 0-416-448 0 0 416 96 0 0 32 32 0 0 32c0 18 14 32 32 32l128 0c18 0 32-14 32-32l0-32z m-32-32l0 64-128 0 0-64-32 0 0-64 192 0 0 64z m-192-96l0 64-64 0 0-352 384 0 0 352-64 0 0-64z m59-137l38-37 106 105c6 7 16 7 22 0 7-6 7-16 0-22l-117-117c-6-7-16-7-22 0l-49 49c-7 6-7 16 0 22 6 7 16 7 22 0z"/>
<glyph glyph-name="icon-cross" unicode="&#106;" d="M191 352l-26-25 66-66-66-66 26-26 66 66 66-66 25 26-66 66 66 66-25 25-66-66z"/>
<glyph glyph-name="icon-cycle" unicode="&#107;" d="M138 71l-25-44c-5-8-1-13 7-13l123 9c9 0 13 7 9 14l-54 111c-4 8-11 8-15 1l-25-43c-10 6-19 14-28 23-34 33-53 78-53 127 0 48 19 93 53 127 9 9 18 17 29 23 9 6 12 19 6 28-6 9-19 12-28 6-13-8-25-18-35-29-41-41-65-96-65-155 0-59 24-115 65-156 11-11 23-21 36-29z m218 335c10-7 20-14 28-23 34-34 53-79 53-127 0-49-19-94-53-127-9-9-18-17-29-24-9-6-11-18-5-27 6-10 18-12 27-6 13 8 25 18 36 28 40 41 64 97 64 156 0 59-24 114-64 155-12 11-24 21-37 30l25 43c4 7 1 12-8 12l-121-8c-8 0-12-7-8-15l53-108c4-8 11-8 15-1z"/>
<glyph glyph-name="icon-cycle-small" unicode="&#108;" d="M190 162l-13-22c-2-5 0-8 5-8l72 4c5 0 8 4 5 9l-33 64c-2 5-6 5-9 0l-11-19c-2 2-4 4-6 6-15 16-24 37-24 60 0 22 9 44 24 59 4 4 8 8 13 11 7 5 9 15 4 22-5 8-15 10-22 5-7-5-13-10-18-15-21-22-33-51-33-82 0-31 12-60 33-82 4-4 8-8 13-12z m116 159c2-2 4-4 6-6 15-15 24-37 24-59 0-23-9-44-24-60-4-4-8-8-13-11-7-5-9-15-4-22 5-7 15-9 22-4 7 4 13 9 18 15 21 22 33 51 33 82 0 31-12 60-33 82-4 4-8 8-13 11l12 22c3 4 1 8-4 8l-72-4c-5 0-7-4-5-9l33-63c2-5 7-5 9 0l11 18z"/>
<glyph glyph-name="icon-diary" unicode="&#109;" d="M0 448c0 35 29 64 64 64l384 0c35 0 64-29 64-64l0-384c0-35-29-64-64-64l-384 0c-35 0-64 29-64 64z m96-416l0 64-32 0 0 64 32 0 0 64-32 0 0 64 32 0 0 64-32 0 0 64 32 0 0 64-32 0c-18 0-32-14-32-32l0-384c0-18 14-32 32-32z m32 0l320 0c18 0 32 14 32 32l0 384c0 18-14 32-32 32l-320 0z m32 384l288 0 0-160-288 0z m32-128l224 0 0 96-224 0z m-32-176c0 9 7 16 16 16l256 0c9 0 16-7 16-16 0-9-7-16-16-16l-256 0c-9 0-16 7-16 16z m0 64c0 9 7 16 16 16l256 0c9 0 16-7 16-16 0-9-7-16-16-16l-256 0c-9 0-16 7-16 16z"/>
<glyph glyph-name="icon-dot" unicode="&#110;" d="M512 256c0-141-115-256-256-256-141 0-256 115-256 256 0 141 115 256 256 256 141 0 256-115 256-256z"/>
<glyph glyph-name="icon-dot-medium" unicode="&#111;" d="M384 256c0-71-57-128-128-128-71 0-128 57-128 128 0 71 57 128 128 128 71 0 128-57 128-128z"/>
<glyph glyph-name="icon-dot-small" unicode="&#112;" d="M320 256c0-35-29-64-64-64-35 0-64 29-64 64 0 35 29 64 64 64 35 0 64-29 64-64z"/>
<glyph glyph-name="icon-download" unicode="&#113;" d="M64 128l384 0 0 96 64 0 0-160-512 0 0 160 64 0z m224 133l64 65 45-46-141-141-141 141 45 46 64-65 0 219 64 0 0-219z"/>
<glyph glyph-name="icon-download-small" unicode="&#114;" d="M288 221l50 50 22-23-88-88-88 88 23 23 49-49 0 162 32 0 0-163z m160-29l0-96-352 0 0 96 32 0 0-64 288 0 0 64z"/>
<glyph glyph-name="icon-flag" unicode="&#115;" d="M32 210l0-194c0-9-7-16-16-16-9 0-16 7-16 16l0 465 21 8c37 14 82 23 131 23 53 0 105-11 154-32 36-16 70-23 99-23 23 0 43 4 61 12l46 22 0-277-7-9c-20-26-54-45-100-45-29 0-62 8-96 23-58 25-119 37-181 37-32 0-62-3-89-9l-7-1z m96 42c66 0 131-13 193-40 32-13 60-20 84-20 34 0 59 12 75 33l0 216c-23-11-48-16-75-16-34 0-72 8-111 25-46 20-94 30-142 30-43 0-83-7-120-21l0-217c31 7 63 10 96 10z"/>
<glyph glyph-name="icon-list" unicode="&#116;" d="M104 368c-22 0-40 18-40 40 0 22 18 40 40 40 22 0 40-18 40-40 0-22-18-40-40-40z m0-128c-22 0-40 18-40 40 0 22 18 40 40 40 22 0 40-18 40-40 0-22-18-40-40-40z m0-136c-22 0-40 18-40 40 0 22 18 40 40 40 22 0 40-18 40-40 0-22-18-40-40-40z m88 296c0 9 7 16 16 16l212 0c9 0 16-7 16-16 0-9-7-16-16-16l-212 0c-9 0-16 7-16 16z m0-128c0 9 7 16 16 16l212 0c9 0 16-7 16-16 0-9-7-16-16-16l-212 0c-9 0-16 7-16 16z m0-128c0 9 7 16 16 16l212 0c9 0 16-7 16-16 0-9-7-16-16-16l-212 0c-9 0-16 7-16 16z"/>
<glyph glyph-name="icon-magnify" unicode="&#117;" d="M500 79l-122 122c18 31 29 66 29 104 0 111-96 207-207 207-110 0-200-90-200-200 0-111 96-207 207-207 36 0 71 10 101 27l123-123c12-12 31-12 43 0l31 31c12 12 8 27-5 39z m-438 233c0 76 62 138 138 138 77 0 145-68 145-145 0-76-62-138-138-138-77 0-145 68-145 145z"/>
<glyph glyph-name="icon-magnify-small" unicode="&#118;" d="M363 176l-49 50c7 12 11 27 11 42 0 45-39 84-84 84-45 0-81-36-81-81 0-45 39-84 84-84 15 0 29 4 41 11l50-50c5-5 13-5 18 0l12 12c5 5 3 11-2 16z m-178 95c0 31 25 56 56 56 32 0 59-28 59-59 0-31-25-56-56-56-31 0-59 27-59 59z"/>
<glyph glyph-name="icon-pencil" unicode="&#119;" d="M366 366c-21 21-37 18-37 18l-186-187-15-69 69 15 187 186c0 0 3 16-18 37z m-173-215l-23-5c-3 4-5 8-10 14-6 5-10 7-14 10l5 23 7 7c0 0 13 0 27-15 15-14 15-27 15-27l-7-7z"/>
<glyph glyph-name="icon-plus-small" unicode="&#120;" d="M288 288l0 96-32 0 0-96-96 0 0-32 96 0 0-96 32 0 0 96 96 0 0 32z"/>
<glyph glyph-name="icon-question" unicode="&#121;" d="M262 480c88 0 146-56 146-138 0-65-46-110-117-119l0-36-77 0 0 99 48 0c39 0 66 23 66 56 0 37-27 63-66 63-42 0-69-29-77-73l-78 16c5 70 66 132 155 132z m-10-341c29 0 49-23 49-49 0-28-20-49-49-49-29 0-50 21-50 49 0 26 21 49 50 49z"/>
<glyph glyph-name="icon-question-small" unicode="&#122;" d="M277 416c65 0 109-42 109-104 0-48-34-82-88-89l0-27-57 0 0 75 36 0c29 0 49 17 49 41 0 29-20 48-49 48-32 0-52-22-58-55l-59 12c4 53 50 99 117 99z m-8-256c21 0 37-17 37-37 0-20-16-36-37-36-22 0-38 16-38 36 0 20 16 37 38 37z"/>
<glyph glyph-name="icon-watch" unicode="&#65;" d="M352 422c57-33 96-95 96-166 0-71-39-133-96-166l0-90-192 0 0 90c-57 33-96 95-96 166 0 71 39 133 96 166l0 90 192 0z m-32 15l0 43-128 0 0-43c20 7 42 11 64 11 22 0 44-4 64-11z m0-362c-20-7-42-11-64-11-22 0-44 4-64 11l0-43 128 0z m-64 21c88 0 160 72 160 160 0 88-72 160-160 160-88 0-160-72-160-160 0-88 72-160 160-160z m0 160l80 0c9 0 16-7 16-16 0-9-7-16-16-16l-96 0c-5 0-9 2-11 5-3 3-5 6-5 11l0 128c0 9 7 16 16 16 9 0 16-7 16-16z"/>
<glyph glyph-name="icon-trophy" unicode="&#66;" d="M448 288l-33 0c1 5 1 11 1 16l0 112 63 0z m-64 80l0-64c0-62-50-112-112-112-62 0-112 50-112 112l0 176 224 0z m-288-80l-31 128 63 0 0-112c0-5 0-11 1-16z m320 160l0 64-288 0 0-64-64 0c-18 0-32-14-32-32 0 0 27-109 32-128 5-19 14-32 32-32l40 0c18-51 64-89 120-95l0-129-64 0 0-32 160 0 0 32-64 0 0 129c56 6 102 44 120 95l40 0c18 0 28 16 32 32 4 16 32 128 32 128 0 18-14 32-32 32z"/>
<glyph glyph-name="icon-triangle-up" unicode="&#67;" d="M256 373l96-192-192 0z"/>
<glyph glyph-name="icon-triangle-right" unicode="&#68;" d="M352 256l-192-96 0 192z"/>
<glyph glyph-name="icon-triangle-left" unicode="&#69;" d="M160 256l192 96 0-192z"/>
<glyph glyph-name="icon-triangle-down" unicode="&#70;" d="M256 160l-96 192 192 0z"/>
<glyph glyph-name="icon-tick-outlined" unicode="&#71;" d="M100 278l-68-69 143-145 305 316-68 68-237-246-75 76z m289 192c12 13 32 13 45 1l69-68c12-12 12-32 0-45l-305-316c-12-13-33-13-45 0l-144 145c-12 12-12 32 0 45l68 68c12 13 33 13 45 0l52-52 215 222z"/>
<glyph glyph-name="icon-tick" unicode="&#72;" d="M223 128c-8 0-16 4-21 10l-69 86c-8 12-6 28 6 36 11 9 28 6 37-5l45-57 114 174c7 12 24 16 36 8 13-7 17-23 9-35l-134-205c-5-7-13-12-22-12 0 0 0 0-1 0z"/>
<glyph glyph-name="icon-telephone" unicode="&#73;" d="M151 139c-3 3-3 3-5 5-3 3-5 5-8 8-21 20-37 18-79-15-22-18-29-32-27-44 2-9 19-31 42-52 34-31 163 19 271 126 107 108 159 238 127 270-2 1-8 9-10 11-4 5-9 9-14 14-10 10-21 16-29 18-12 2-26-5-44-27-33-42-35-58-15-79 2-3 5-5 8-8 2-2 2-2 5-5 2-3 2-3 4-4 32-32 0-80-71-151-72-71-119-103-151-71-2 2-2 2-4 4z m27 18c9-9 51 18 105 72 54 54 81 96 72 105-2 2-9 8-9 9-4 3-7 6-9 9-32 34-30 66 13 121 25 30 50 43 75 38 36-8 66-48 69-51 49-49-6-194-127-315-121-121-264-174-315-127-24 22-47 50-51 69-5 25 7 50 38 75 55 43 87 45 121 13 3-2 6-5 9-9 1 0 7-7 9-9z"/>
<glyph glyph-name="icon-tag-verticle" unicode="&#74;" d="M64 352l192 160 192-160 0-352-384 0z m32-320l320 0 0 305-160 133-160-133z m160 224c-35 0-64 29-64 64 0 35 29 64 64 64 35 0 64-29 64-64 0-35-29-64-64-64z m0 32c18 0 32 14 32 32 0 18-14 32-32 32-18 0-32-14-32-32 0-18 14-32 32-32z m-64-80c0 9 7 16 16 16 9 0 16-7 16-16l0-128c0-9-7-16-16-16-9 0-16 7-16 16z m96 0c0 9 7 16 16 16 9 0 16-7 16-16l0-128c0-9-7-16-16-16-9 0-16 7-16 16z"/>
<glyph glyph-name="icon-shirt" unicode="&#75;" d="M128 448l0 32c0 18 14 32 32 32l224 0c18 0 32-14 32-32l0-32 64 0c18 0 32-14 32-32l0-384c0-18-14-32-32-32l-416 0c-18 0-32 14-32 32l0 384c0 18 14 32 32 32z m288-32l0-95c0-18-13-27-28-20l-100 45 0-314 192 0 0 384-64 0z m-288 0l-64 0 0-384 192 0 0 314-100-45c-15-7-28 1-28 20l0 95z m233 64c-43 0-135 0-178 0l89-89 89 89z m-201-143l83 37-83 83c0-40 0-120 0-120z m224 0l0 120-83-83z m-64-129c0 9 7 16 16 16l96 0c9 0 16-7 16-16 0-9-7-16-16-16l-96 0c-9 0-16 7-16 16z"/>
<glyph glyph-name="icon-search-bold" unicode="&#76;" d="M501 67l-106 106c26 36 38 77 38 122 0 30-5 58-17 85-11 26-27 49-46 69-19 19-42 35-69 46-27 11-55 17-84 17-30 0-58-6-85-17-26-11-49-27-69-46-19-20-35-43-46-69-11-27-17-55-17-85 0-29 6-57 17-84 11-27 27-50 46-69 20-19 43-35 69-46 27-12 55-17 85-17 45 0 86 12 122 38l106-105c7-8 17-12 28-12 10 0 20 4 27 12 8 7 12 17 12 27 0 11-4 20-11 28z m-187 131c-27-27-59-41-97-41-38 0-71 14-98 41-27 27-40 59-40 97 0 38 13 71 40 98 27 27 60 40 98 40 38 0 70-13 97-40 27-27 41-60 41-98 0-38-14-70-41-97z"/>
<glyph glyph-name="icon-tag" unicode="&#77;" d="M257 497l-240-241c-16-15-14-39 0-54l179-180c16-15 39-15 54 0l241 241 7 242z m201-215l-210-210c-24-24-24-24-45-3l-138 139c-21 20-21 20 3 44l210 210 187 6z m-215-144l-27-26-108 109 26 26z m150 259c-25 25-65 25-90 0-25-25-25-65 0-90 25-25 65-25 90 0 25 25 25 65 0 90z m-18-72c-15-15-39-15-54 0-15 15-15 39 0 54 15 15 39 15 54 0 15-15 15-39 0-54z"/>
<glyph glyph-name="item-dots" unicode="&#78;" d="M51 205c28 0 51 23 51 51 0 28-23 51-51 51-28 0-51-23-51-51 0-28 23-51 51-51z m205 0c28 0 51 23 51 51 0 28-23 51-51 51-28 0-51-23-51-51 0-28 23-51 51-51z m205 0c28 0 51 23 51 51 0 28-23 51-51 51-28 0-51-23-51-51 0-28 23-51 51-51z"/>
<glyph glyph-name="icon-add" unicode="&#79;" d="M256 32c-124 0-224 100-224 224 0 124 100 224 224 224 124 0 224-100 224-224 0-124-100-224-224-224m0 480c-141 0-256-115-256-256 0-141 115-256 256-256 141 0 256 115 256 256 0 141-115 256-256 256m16-240l0 88c0 9-7 16-16 16-9 0-16-7-16-16l0-88-88 0c-9 0-16-7-16-16 0-9 7-16 16-16l88 0 0-88c0-9 7-16 16-16 9 0 16 7 16 16l0 88 88 0c9 0 16 7 16 16 0 9-7 16-16 16z"/>
<glyph glyph-name="icon-attention" unicode="&#80;" d="M256 512c-141 0-256-115-256-256 0-141 115-256 256-256 141 0 256 115 256 256 0 141-115 256-256 256z m0-391c-15 0-27 12-27 27 0 15 12 27 27 27 15 0 27-12 27-27 0-15-12-27-27-27z m27 108c0-15-12-27-27-27-15 0-27 12-27 27l0 135c0 15 12 27 27 27 15 0 27-12 27-27z"/>
<glyph glyph-name="icon-clear" unicode="&#81;" d="M256 0c141 0 256 115 256 256 0 141-115 256-256 256-141 0-256-115-256-256 0-141 115-256 256-256z m0 272l91 90c4 5 11 5 15 0 5-4 5-11 0-15l-90-91 90-91c5-4 5-11 0-15-4-5-11-5-15 0l-91 90-91-90c-4-5-11-5-15 0-5 4-5 11 0 15l90 91-90 91c-5 4-5 11 0 15 4 5 11 5 15 0z"/>
<glyph glyph-name="icon-done" unicode="&#82;" d="M256 512c-141 0-256-115-256-256 0-141 115-256 256-256 141 0 256 115 256 256 0 141-115 256-256 256z m131-179l-171-171c-3-3-6-4-9-4-2 0-6 1-8 4l-72 72c-4 4-4 13 0 18 4 4 12 4 17 0l65-65 162 162c4 4 12 4 17 0 3-4 3-12-1-16z"/>
<glyph glyph-name="icon-help-demo" unicode="&#83;" d="M422 410l-51 0 0 64c0 21-16 38-38 38l-77 0c-22 0-38-17-38-38l0-64-90 0c-8 0-15-6-19-11l-69-103 69-105c4-7 13-11 19-11l90 0 0-140c0-22 16-39 38-39l77 0c22 0 38 17 38 39l0 140 51 0c29 0 52 24 52 52l0 128c0 27-23 50-52 50z m-166 51c0 7 6 13 13 13l51 0c6 0 13-7 13-13l0-51-77 0z m77-410c0-7-7-13-13-13l-51 0c-7 0-13 7-13 13l0 128 77 0z m102 179c0-7-5-12-13-12l-282 0-52 76 52 77 282 0c7 0 13-6 13-13z"/>
<glyph glyph-name="icon-help-spending" unicode="&#84;" d="M77 512c-21 0-39-17-39-38l0-474 31 0 63 48 61-48 63 48 62-48 62 48 63-48 31 0 0 474c0 21-18 38-39 38z m0-51c0 7 5 13 13 13l332 0c7 0 13-6 13-13l0-423-60 47-59-47-60 47-60-47-59 47-60-47z m38-45c0 11 9 19 19 19l244 0c10 0 19-8 19-19 0-11-9-19-19-19l-244 0c-10 0-19 8-19 19z m0-115c0 10 9 19 19 19l116 0c10 0 19-9 19-19 0-11-9-19-19-19l-116 0c-10 0-19 8-19 19z m205 0c0 10 9 19 19 19l39 0c10 0 19-9 19-19 0-11-9-19-19-19l-39 0c-10 0-19 8-19 19z m-205-77c0 11 9 19 19 19l116 0c10 0 19-8 19-19 0-11-9-19-19-19l-116 0c-10 0-19 8-19 19z m205 0c0 11 9 19 19 19l39 0c10 0 19-8 19-19 0-11-9-19-19-19l-39 0c-10 0-19 8-19 19z m-205-77c0 11 9 19 19 19l116 0c10 0 19-8 19-19 0-10-9-19-19-19l-116 0c-10 0-19 9-19 19z m205 0c0 11 9 19 19 19l39 0c10 0 19-8 19-19 0-10-9-19-19-19l-39 0c-10 0-19 9-19 19z"/>
<glyph glyph-name="icon-interest-rates" unicode="&#85;" d="M466 211l0 27-105 0c-8 0-13-6-13-14l0-65c0-8 5-13 13-13l105 0 0 26-92 0 0 39z m0 184l0 87c0 22-17 34-38 27l-391-116c-17-4-30-20-30-39l0-315c0-22 17-39 39-39l420 0c21 0 39 17 39 39l0 315c0 23-17 41-39 41z m-50 74c7 2 13-3 13-10l0-65-265 0z m50-415c0-8-7-13-13-13l-394 0c-6 0-13 5-13 13l0 289c0 8 7 13 13 13l394 0c6 0 13-5 13-13z"/>
<glyph glyph-name="icon-mail" unicode="&#86;" d="M474 435l-436 0c-21 0-38-16-38-38l0-282c0-20 17-38 38-38l436 0c21 0 38 16 38 38l0 282c0 20-17 38-38 38z m-40-38l-184-124-190 124z m40-269c0-8-7-13-13-13l-410 0c-7 0-13 5-13 13l0 237 201-131c7-4 16-4 22 0l213 142z"/>
<glyph glyph-name="icon-overdrafts" unicode="&#87;" d="M22 179c-7-13-9-25-9-38 0-78 109-141 243-141 134 0 243 63 243 141 0 13-2 25-9 38-6-14-16-25-29-37 0 0 0 0 0-1 0-57-92-103-205-103-113 0-205 46-205 103 0 0 0 0 0 1-13 12-23 23-29 37z m0 77c-7-13-9-26-9-38 0-78 109-141 243-141 134 0 243 63 243 141 0 12-2 25-9 38-6-14-16-26-29-37 0 0 0 0 0-1 0-57-92-103-205-103-113 0-205 46-205 103 0 0 0 0 0 1-13 11-23 23-29 37z m468 77c7-13 9-26 9-39 0-78-109-140-243-140-134 0-243 62-243 140 0 13 2 26 9 39 6-14 16-26 29-37 0 0 0 0 0-2 0-56 92-102 205-102 113 0 205 46 205 102 0 0 0 0 0 2 13 11 23 23 29 37z m-234 179c-134 0-243-63-243-141 0-78 109-141 243-141 134 0 243 63 243 141 0 78-109 141-243 141z m0-243c-113 0-205 46-205 102 0 57 92 103 205 103 113 0 205-46 205-103 0-56-92-102-205-102z"/>
<glyph glyph-name="icon-page-back" unicode="&#88;" d="M357 3l-253 253 253 253 51-50-202-203 202-203z"/>
<glyph glyph-name="icon-alerts" unicode="&#89;" d="M442 115l-20 0 0 205c0 83-61 152-140 164 0 1 0 1 0 2 0 14-12 26-26 26-14 0-26-12-26-26 0-1 0-1 0-2-79-13-140-81-140-164l0-205-20 0c-10 0-19-9-19-19 0-10 9-19 19-19l123 0c-1-4-1-8-1-13 0-36 28-64 64-64 36 0 64 28 64 64 0 5 0 9-1 13l123 0c10 0 19 9 19 19 0 10-9 19-19 19z m-186-77c-14 0-26 12-26 26 0 14 12 26 26 26 14 0 26-12 26-26 0-14-12-26-26-26z m-128 77l0 205c0 70 58 128 128 128 70 0 128-58 128-128l0-205z"/>
<glyph glyph-name="icon-your-payments" unicode="&#90;" d="M410 512l-308 0c-21 0-38-17-38-38l0-436c0-21 17-38 38-38l308 0c21 0 38 17 38 38l0 436c0 21-17 38-38 38z m0-461c0-7-6-13-13-13l-282 0c-7 0-13 7-13 13l0 410c0 7 6 13 13 13l282 0c7 0 13-7 13-13z m-269 339c0 11 9 20 19 20l115 0c10 0 19-9 19-20 0-10-9-19-19-19l-115 0c-10 0-19 9-19 19z m0-89c0 10 9 19 19 19l192 0c10 0 19-9 19-19 0-10-9-19-19-19l-192 0c-10 0-19 9-19 19z m0-90c0 10 9 19 19 19l192 0c10 0 19-9 19-19 0-10-9-19-19-19l-192 0c-10 0-19 9-19 19z m0-89c0 10 9 19 19 19l192 0c10 0 19-9 19-19 0-11-9-20-19-20l-192 0c-10 0-19 9-19 20z"/>
<glyph glyph-name="icon-search" unicode="&#48;" d="M505 35l-130 130c-1 2-2 2-3 3 30 37 48 83 48 135 0 116-94 210-210 210-115 0-210-94-210-210 0-115 95-210 210-210 51 0 99 19 135 49 2-2 2-3 3-4l130-130c4-4 9-5 14-5 6 0 11 1 15 5 5 6 5 20-2 27z m-295 96c-94 0-171 76-171 171 0 94 77 171 171 171 95 0 171-77 171-171 0-95-76-171-171-171z"/>
<glyph glyph-name="icon-settings" unicode="&#49;" d="M512 256c0 34-26 61-59 63-3 11-8 22-13 32 21 25 21 62-3 86-24 24-61 24-86 3-10 5-21 10-32 13-2 33-29 59-63 59-34 0-61-26-63-59-11-3-22-8-32-13-25 21-62 21-86-3-24-24-24-61-3-86-5-10-10-21-13-32-33-2-59-29-59-63 0-34 26-61 59-63 3-11 8-22 13-32-21-25-21-62 3-86 24-24 61-24 86-3 10-5 21-10 32-13 2-33 29-59 63-59 34 0 61 26 63 59 11 3 22 8 32 13 25-21 62-21 86 3 24 24 24 61 3 86 5 10 10 21 13 32 33 2 59 29 59 63z m-83-32c-5-25-15-47-28-67l13-14c13-13 13-33 0-45-12-13-32-13-45 0l-14 13c-20-13-42-23-67-28l0-19c0-18-14-32-32-32-18 0-32 14-32 32l0 19c-25 5-47 15-67 28l-14-13c-13-13-33-13-45 0-13 12-13 32 0 45l13 14c-13 20-23 42-28 67l-19 0c-18 0-32 14-32 32 0 18 14 32 32 32l19 0c5 25 15 47 28 67l-13 14c-13 13-13 33 0 45 12 13 32 13 45 0l14-13c20 13 42 23 67 28l0 19c0 18 14 32 32 32 18 0 32-14 32-32l0-19c25-5 47-15 67-28l14 13c13 13 33 13 45 0 13-12 13-32 0-45l-13-14c13-20 24-42 28-67l19 0c18 0 32-14 32-32 0-18-14-32-32-32z m-173 128c-53 0-96-43-96-96 0-53 43-96 96-96 53 0 96 43 96 96 0 53-43 96-96 96z m0-160c-35 0-64 29-64 64 0 35 29 64 64 64 35 0 64-29 64-64 0-35-29-64-64-64z"/>
<glyph glyph-name="icon-shopping" unicode="&#50;" d="M441 205c1 0 2 0 2 0 0 0 0 0 2 0 2 1 5 4 6 7l61 225c0 4 0 8-3 9 0 0-1 1-1 1 0 0-1 2-1 2 0 0-2 0-2 0 0 0-1 0-1 0l-112 0-65 50c-16 16-41 16-56 0l-65-50-121 0 0 40 31 0c5 0 11 4 11 11-4 7-8 12-14 12l-102 0c-7 0-11-5-11-11 0-5 4-11 11-11l51 0 0-358c0-5 4-11 11-11l91 0c-33 0-60-27-60-62 0-33 27-62 62-62 33 0 62 27 62 62 0 34-27 61-61 62l183 0c-33 0-60-27-60-62 0-33 27-62 62-62 33 0 62 27 62 62 0 34-27 61-61 62l133 0c6 0 11 4 11 11 0 5-4 11-11 11l-404 0 0 42z m-159 281c8 8 20 8 28 0l48-36-126 0z m-200-56l406 0-57-205-350-19 0 224z m307-368c0-23-18-40-40-40-23 0-40 18-40 40 0 22 18 40 40 40 22 0 40-18 40-40z m-184 0c0-23-19-40-41-40-23 0-40 18-40 40 0 22 19 40 40 40 22 0 41-18 41-40z"/>
<glyph glyph-name="icon-swipe-left" unicode="&#54;" d="M366 507l-242-231c-12-11-12-30 0-42l242-229c7-7 18-7 26 0 7 7 7 19-1 26l-241 229c3-3 3-7 0-9l241 230c8 7 8 19 1 26-8 7-19 7-26 0z"/>
<glyph glyph-name="icon-swipe-right" unicode="&#55;" d="M388 276c12-11 12-30 0-42l-242-229c-7-7-18-7-26 0-7 7-7 19 1 26l241 229c-3-3-3-7 0-9l-241 230c-8 7-8 19-1 26 8 7 19 7 26 0z"/>
<glyph glyph-name="icon-waiting" unicode="&#56;" d="M391 269l-122 0 0 155c0 9-5 14-13 14-8 0-13-5-13-14l0-161c0-2 0-3 0-3 0-1 0-3 0-3 0-8 5-13 13-13l135 0c8 0 13 5 13 13 0 8-5 12-13 12z m-135 243c-141 0-256-115-256-256 0-141 115-256 256-256 141 0 256 115 256 256 0 141-115 256-256 256z m0-472c-119 0-216 97-216 216 0 119 97 216 216 216 119 0 216-97 216-216 0-119-97-216-216-216z m135 337c0-7-6-13-14-13-7 0-13 6-13 13 0 8 6 14 13 14 8 0 14-6 14-14z m0-242c0-8-6-14-14-14-7 0-13 6-13 14 0 7 6 13 13 13 8 0 14-6 14-13z m-243 242c0-7-6-13-13-13-8 0-14 6-14 13 0 8 6 14 14 14 7 0 13-6 13-14z m-54-121c0-7-6-13-13-13-8 0-14 6-14 13 0 7 6 13 14 13 7 0 13-6 13-13z m175-175c0-8-6-14-13-14-7 0-13 6-13 14 0 7 6 13 13 13 7 0 13-6 13-13z m-121 54c0-8-6-14-13-14-8 0-14 6-14 14 0 7 6 13 14 13 7 0 13-6 13-13z"/>
<glyph glyph-name="icon-warning" unicode="&#33;" d="M497 65l-235 395c-7 11-18 11-25 0l-235-395c-7-11-1-21 13-21l470 0c13 0 20 10 12 21z m-442 16l195 326 195-326z m220 50c0-14-11-25-25-25-14 0-25 11-25 25 0 14 11 25 25 25 14 0 25-11 25-25z m-50 175l0-100c0-14 11-25 25-25 13 0 25 11 25 25l0 100c0 14-12 25-25 25-14 0-25-11-25-25z"/>
<glyph glyph-name="icon-you" unicode="&#34;" d="M335 227c45 26 75 75 75 131 0 85-70 154-154 154-84 0-154-69-154-154 0-55 30-105 75-131-73-31-126-104-126-189l0-19c0-10 9-19 19-19 11 0 20 9 20 19l0 19c0 93 74 167 166 167 92 0 166-74 166-167l0-19c0-10 9-19 20-19 10 0 19 9 19 19l0 19c0 85-51 158-126 189z m-194 131c0 64 51 116 115 116 64 0 115-52 115-116 0-64-51-115-115-115-64 0-115 51-115 115z"/>
<glyph glyph-name="icon-plus" unicode="&#57;" d="M448 288l-160 0 0 160c0 18-14 32-32 32-18 0-32-14-32-32l0-160-160 0c-18 0-32-14-32-32 0-18 14-32 32-32l160 0 0-160c0-18 14-32 32-32 18 0 32 14 32 32l0 160 160 0c18 0 32 14 32 32 0 18-14 32-32 32z"/>
<glyph glyph-name="icon-payments" unicode="&#35;" d="M356 205l-302 0c-9 0-16 6-16 14l0 176c0 8 7 15 16 15l302 0c8 0 15-7 15-15l0-176c0-8-7-14-15-14m54 212c0 17-15 31-32 31l-346 0c-18 0-32-14-32-31l0-219c0-18 14-32 32-32l346 0c17 0 32 14 32 32z m-205-161c-28 0-51 23-51 51 0 28 23 51 51 51 28 0 51-23 51-51 0-28-23-51-51-51m0 128c-43 0-77-34-77-77 0-42 34-77 77-77 42 0 77 35 77 77 0 43-35 77-77 77m230-38l45 0c18 0 32-14 32-32l0-219c0-17-14-31-32-31l-346 0c-17 0-32 14-32 31l0 46 39 0 0-24c0-8 7-15 15-15l302 0c9 0 16 7 16 15l0 176c0 8-7 14-16 14l-23 0z"/>
<glyph glyph-name="icon-payees" unicode="&#36;" d="M188 330c-19 21-48 35-79 35-27 0-52-10-71-26l0 0-38 0 0-89 0 0c3-58 51-103 109-103 60 0 109 49 109 109 0 15-3 29-9 42 13 6 29 9 47 9 18 0 34-3 47-9-6-13-9-27-9-42 0-60 49-109 109-109 58 0 106 45 109 103l0 0 0 89-38 0 0 0c-19 16-44 26-71 26-31 0-60-14-79-35-1 0-1 1-2 1-18 9-41 15-66 15-25 0-48-6-66-15-1 0-1-1-2-1z m-10-28c9-14 14-29 14-46 0-46-37-83-83-83-46 0-83 37-83 83 0 46 37 83 83 83 22 0 43-9 58-23-1-1-1-1-1-2z m167 14c15 14 36 23 58 23 46 0 83-37 83-83 0-46-37-83-83-83-46 0-83 37-83 83 0 17 5 32 14 46l12 12c0 1 0 1-1 2z"/>
<glyph glyph-name="icon-minus" unicode="&#37;" d="M417 288l-322 0c-17 0-31-14-31-32 0-18 14-32 31-32l322 0c17 0 31 14 31 32 0 18-14 32-31 32z"/>
<glyph glyph-name="icon-logout" unicode="&#38;" d="M39 60l0 392c0 3 4 5 6 5l213-30 0 31-215 30c-20 0-41-16-41-36l0-391c0-21 21-37 42-37l214 30 0 31-213-30c-2 1-6 2-6 5z m469 203c-1 3-3 4-6 5l-157 120c-7 3-17 1-22-6-2-4-2-8-1-13 1-3 3-8 7-11l118-91-346 0c-8 0-16-4-16-12 0-9 8-12 16-12l346 0-118-91c-4-2-6-6-7-11-1-3 0-8 1-12 2-5 9-7 13-7 3 0 7 1 9 2l157 119c1 1 3 1 4 2 5 5 5 12 2 18z"/>
<glyph glyph-name="icon-joint-account" unicode="&#39;" d="M406 215c62-28 106-91 106-164l-38 0c0 78-63 141-141 141-78 0-141-63-141-141l-38 0c0 73 43 136 106 164-33 23-55 61-55 105 0 71 57 128 128 128 70 0 128-57 128-128 0-44-22-82-55-105z m-300 51c-33 23-55 62-55 105 0 71 58 128 128 128 31 0 59-11 82-29-13-6-24-14-35-22-14 8-30 13-47 13-49 0-89-40-89-90 0-46 35-85 81-89 3-14 8-27 14-39 0 0 0 0-1 0 0 0 0 0 0 0-1 0-3 0-5 0-78 0-141-63-141-141l-38 0c0 73 44 136 106 164z m-106-164l38 0 0-19c0-10-8-19-19-19-10 0-19 9-19 19z m154-51l38 0 0-19c0-11-9-19-19-19-11 0-19 8-19 19z m320 0l38 0 0-19c0-11-9-19-19-19-11 0-19 8-19 19z m-141 179c49 0 89 41 89 90 0 49-40 90-89 90-50 0-90-41-90-90 0-49 40-90 90-90z"/>
<glyph glyph-name="icon-edit" unicode="&#40;" d="M40 458c-22 0-40-17-40-40l0-378c0-22 18-40 40-40l378 0c23 0 40 18 40 40l0 256-40 0 0-242c0-8-6-14-14-14l-350 0c-8 0-14 6-14 14l0 350c0 8 6 14 14 14l242 0 0 40z m238-210l216 217c9 8 9 20 0 28-8 8-20 8-28 0l-217-217c-8-8-8-20 0-28 7-7 20-7 29 0z"/>
<glyph glyph-name="icon-error" unicode="&#41;" d="M256 512c-141 0-256-115-256-256 0-141 115-256 256-256 141 0 256 115 256 256 0 141-115 256-256 256z m0-472c-119 0-216 97-216 216 0 119 97 216 216 216 119 0 216-97 216-216 0-119-97-216-216-216z m-40 283c0-15-12-27-27-27-15 0-27 12-27 27 0 15 12 27 27 27 15 0 27-12 27-27z m134 0c0-15-12-27-27-27-15 0-27 12-27 27 0 15 12 27 27 27 15 0 27-12 27-27z m-191-151c0 0 0 0 1 2 3 3 7 7 12 9 18 11 45 18 84 18 38 0 65-7 82-18 6-2 10-6 12-9 2-2 2-2 2-2 4-10 16-14 27-10 10 4 14 16 10 27-1 2-4 6-6 10-6 7-12 13-22 18-24 15-58 23-102 23-46 0-80-8-104-23-16-10-26-20-30-28-5-10-1-22 10-27 8-3 20 1 24 10z"/>
<glyph glyph-name="icon-goals" unicode="&#42;" d="M461 461l-58 0 0 51-294 0 0-51-58 0c-22 0-36-17-32-37l21-117c4-20 24-37 44-37l29 0c16-52 65-90 121-90l0-140-45 0c-10 0-19-9-19-20 0-10 9-19 19-19l128 0c11 0 20 9 20 19 0 11-9 20-20 20l-44 0 0 140c57 0 106 38 121 90l30 0c21 0 41 17 44 37l21 117c6 20-8 37-28 37z m-375-154c-8 0-14 5-14 13l-13 90c-1 7 4 12 11 12l40 0 0-115z m279 0c0-50-40-89-90-89l-38 0c-50 0-90 39-90 89l0 167 218 0z m77 13c-2-8-8-13-14-13l-24 0 0 115 40 0c8 0 12-5 12-12z"/>
<glyph glyph-name="icon-help-email" unicode="&#43;" d="M474 461l-436 0c-21 0-38-17-38-39l0-332c0-22 17-39 38-39l436 0c21 0 38 17 38 39l0 332c0 22-17 39-38 39z m0-359c0-7-7-12-13-12l-410 0c-7 0-13 6-13 12l0 308c0 7 7 12 13 12l410 0c7 0 13-6 13-12z m-52 282l-102 0c-6 0-13-5-13-13l0-102c0-7 5-13 13-13l102 0c7 0 13 5 13 13l0 102c0 7-5 13-13 13z m-12-102l-77 0 0 76 77 0z m-333-71c0 10 9 19 19 19l154 0c10 0 19-9 19-19 0-10-9-19-19-19l-154 0c-10 0-19 9-19 19z m0-64c0 10 9 19 19 19l154 0c10 0 19-9 19-19 0-10-9-19-19-19l-154 0c-10 0-19 9-19 19z"/>
<glyph glyph-name="icon-help-get-help" unicode="&#44;" d="M117 198c-47 23-79 63-79 109 0 71 75 128 167 128 92 0 166-57 166-128 0-70-74-128-166-128-6 0-12 0-17 1l-74-41z m-34-25l0-83 101 52c7-1 14-1 21-1 113 0 205 74 205 166 0 92-92 167-205 167-113 0-205-75-205-167 0-55 33-103 83-134z m354 163c23-22 37-50 37-80 0-46-32-86-79-109l3-59-74 41c-5-1-11-1-17-1-7 0-14 0-20 1-27-8-56-13-86-13-2 0-3 0-5 0 32-17 70-26 111-26 7 0 14 0 21 0l101-52 0 84c50 31 83 79 83 134 0 61-40 114-100 143 13-19 21-41 25-63z"/>
<glyph glyph-name="icon-help-questions" unicode="&#45;" d="M142 138c-62 30-104 86-104 149 0 96 98 175 218 175 120 0 218-79 218-175 0-97-98-175-218-175-13 0-26 1-39 3l-75-40z m-38-22l0-103 121 63c10-1 20-2 31-2 141 0 256 95 256 213 0 117-115 212-256 212-141 0-256-95-256-212 0-70 41-132 104-171z m149 68c8 0 16 8 16 16 0 9-8 16-16 16-9 0-17-7-17-16 0-8 8-16 17-16z m-7 57l18 8c-5 3-7 9-7 14 0 28 57 32 57 76 0 25-22 45-58 45-28 0-50-11-64-30l15-15c11 14 24 24 47 24 23 0 34-13 34-27 0-31-53-34-53-71 0-9 4-17 11-24"/>
<glyph glyph-name="icon-help-reminders" unicode="&#46;" d="M247 433c-58 0-105-47-105-105 0-58 47-105 105-105 58 0 105 47 105 105 0 58-47 105-105 105z m0-185c-44 0-79 36-79 79 0 43 35 79 79 79 43 0 79-36 79-79 0-43-36-79-79-79z m241-160l-84 146c16 27 27 59 27 94 0 103-83 185-184 185-101 0-184-82-184-185 0-38 12-75 32-104l-73-126c-6-13-1-19 12-17l80 20 24-79c4-14 13-14 21-2l72 124c5 0 11-1 16-1 9 0 18 1 27 3l79-137c8-13 16-12 20 3l22 83 83-23c13-4 18 3 10 16z m-333-26l-17 57c-3 7-9 11-16 10l-58-15 50 87c24-26 55-45 92-54z m63 123c-32 7-58 22-79 46-22 26-37 59-37 97 0 80 65 146 145 146 80 0 144-66 144-146 0-47-22-88-56-115l-17-10 17 10c-11-8-21-15-34-20l17 9-17-9c-17-7-36-11-54-11-11 0-29 3-29 3z m169-60c-6 1-14-3-15-9l-16-61-55 96c35 10 65 31 88 59l57-101z"/>
<glyph glyph-name="icon-help-talk" unicode="&#47;" d="M406 512c-76-2-163-61-254-151-91-92-150-178-152-254 0-21 15-41 41-65 13-13 31-27 37-31 26-18 59-14 75 9 6 9 58 88 64 97 5 7 7 16 7 25 0 10-3 22-9 32-3 6-12 22-24 42l-17-9 16-12c11 16 31 39 60 68 29 29 52 48 67 59l-11 16-10-17c20-11 36-20 43-24 20-10 42-12 58-1 10 6 89 59 96 64 12 9 19 24 19 40 0 12-4 24-11 34-2 3-5 7-9 12-6 9-13 17-21 25-8 9-15 16-23 22-15 12-28 19-42 19z m1-39c0 0 2-1 4-2 4-2 8-4 12-8 6-5 12-11 19-19 7-7 13-14 19-22 2-3 4-5 6-7 1-2 2-3 2-3 2-4 4-8 4-12 0-4-2-7-3-8-7-5-85-57-94-63-3-2-10-1-19 3-6 3-22 12-41 23l-11 6-10-7c-18-12-42-33-73-63-31-31-51-55-64-73l-7-10 6-11c11-20 20-35 23-41 3-5 4-10 4-14 0-2 0-4-1-5-5-8-57-87-63-95-2-4-11-5-20 2-4 3-20 15-32 27-18 16-29 30-29 35 2 62 56 142 141 227 84 84 165 138 227 140z"/>
<glyph glyph-name="icon-helps" unicode="&#58;" d="M256 512c-141 0-256-115-256-256 0-141 115-256 256-256 141 0 256 115 256 256 0 141-115 256-256 256z m90-314c11 16 18 36 18 58 0 26-10 49-23 67l77 77c33-38 55-87 55-143 0-51-18-98-47-134z m-157 58c0 38 29 67 67 67 38 0 67-29 67-67 0-38-29-67-67-67-38 0-67 29-67 67z m208 162l-76-77c-18 13-41 21-65 21-22 0-42-6-58-17l-77 77c37 29 84 47 135 47 54 3 104-18 141-51z m-357-162c0 58 23 110 61 150l77-77c-18-19-28-45-28-73 0-24 8-47 21-65l-77-76c-33 37-54 87-54 141z m73-160l77 76c19-14 42-22 67-22 29 0 54 10 73 28l77-77c-39-38-92-61-150-61-56 0-106 21-144 56z"/>
<glyph glyph-name="icon-information" unicode="&#59;" d="M256 512c-141 0-256-115-256-256 0-141 115-256 256-256 141 0 256 115 256 256 0 141-115 256-256 256z m0-472c-119 0-216 97-216 216 0 119 97 216 216 216 119 0 216-97 216-216 0-119-97-216-216-216z m-27 243c0 15 12 27 27 27 15 0 27-12 27-27l0-135c0-15-12-27-27-27-15 0-27 12-27 27z m54 81c0-15-12-27-27-27-15 0-27 12-27 27 0 15 12 27 27 27 15 0 27-12 27-27z"/>
<glyph glyph-name="icon-delete" unicode="&#60;" d="M179 64c8 0 13 5 13 13l0 205c0 6-5 12-13 12-7 0-13-5-13-12l0-205c0-8 6-13 13-13z m77 0c8 0 13 5 13 13l0 205c0 6-5 12-13 12-8 0-13-5-13-12l0-205c0-8 5-13 13-13z m77 0c7 0 13 5 13 13l0 205c0 6-6 12-13 12-8 0-13-5-13-12l0-205c0-8 5-13 13-13z m102 384l-102 0 0 38c0 14-12 26-26 26l-102 0c-14 0-26-12-26-26l0-38-102 0c-22 0-39-17-39-38l0-26c0-22 17-38 39-38l0-295c0-28 23-51 51-51l256 0c28 0 51 23 51 51l0 295c22 0 39 16 39 38l0 26c0 21-17 38-39 38z m-217 26l76 0 0-26-76 0z m179-410c0-14-12-26-26-26l-230 0c-14 0-26 12-26 26l0 282 282 0z m25 320l-332 0c-8 0-13 5-13 13 0 7 5 13 13 13l332 0c8 0 13-6 13-13 0-8-5-13-13-13z"/>
<glyph glyph-name="icon-case" unicode="&#61;" d="M472 424l-122 0 0 48c0 22-19 33-41 33l-108 0c-23 0-41-11-41-33l0-48-121 0c-21 0-39-10-39-33l0-337c0-22 18-47 39-47l431 0c22 0 41 24 41 47l0 337c1 21-18 33-39 33z m-270 34c0 8 5 7 12 7l81 0c8 0 14 1 14-7l0-34-108 0 0 34z m-121-411l-28 0c-7 0-13 14-13 20l0 209 41 0z m310 0l-270 0 0 229 270 0z m81 20c0-8-7-20-14-20l-27 0 0 229 41 0z m0 250l-432 0 0 60c0 8 6 7 13 7l404 0c6 0 13 1 13-7l0-60z"/>
<glyph glyph-name="icon-move" unicode="&#62;" d="M345 237l-326 0c-10 0-19 9-19 19 0 11 9 20 19 20l326 0-140 139c-7 8-7 20 0 27 8 8 20 8 27 0l172-172c3-3 6-8 6-14 0-6-3-12-8-15l-169-170c-8-7-20-7-27 0-8 8-8 20 0 27z m129 205c0 10 8 19 19 19 10 0 19-9 19-19l0-372c0-10-9-19-19-19-11 0-19 9-19 19z"/>
<glyph glyph-name="icon-more" unicode="&#63;" d="M237 167l0 326c0 10 9 19 19 19 11 0 20-9 20-19l0-326 139 140c8 7 20 7 27 0 8-8 8-20 0-27l-172-172c-3-3-8-6-14-6-6 0-12 3-15 8l-170 169c-7 8-7 20 0 27 8 8 20 8 27 0z m205-129c10 0 19-8 19-19 0-10-9-19-19-19l-372 0c-10 0-19 9-19 19 0 11 9 19 19 19z"/>
<glyph glyph-name="icon-back" unicode="&#64;" d="M6 271c-4-4-6-9-6-14 0-6 3-12 7-15 0 0 1-1 1-1l196-209c7-8 19-8 27-1 7 7 8 19 1 27l-169 179 430 0c10 0 19 9 19 20 0 10-9 19-19 19l-428 0 167 178c7 8 6 20-1 27-8 7-20 7-27-1l-197-208c0-1-1-1-1-1z"/>
<glyph glyph-name="icon-opt-out" unicode="&#91;" d="M256 20c-56 0-108 20-148 53l331 331c33-40 53-92 53-148 0-130-106-236-236-236m-236 236c0 130 106 236 236 236 67 0 127-28 169-72l-333-333c-44 42-72 103-72 169m236 256c-141 0-256-115-256-256 0-141 115-256 256-256 141 0 256 115 256 256 0 141-115 256-256 256"/>
<glyph glyph-name="icon-close" unicode="&#93;" d="M256 292l212 212c10 11 26 11 36 0 11-10 11-26 0-36l-212-212 212-212c11-10 11-26 0-36-10-11-26-11-36 0l-212 212-212-212c-10-11-26-11-36 0-11 10-11 26 0 36l212 212-212 212c-11 10-11 26 0 36 10 11 26 11 36 0z"/>
<glyph glyph-name="icon-commitments" unicode="&#94;" d="M123 143l165 0 0 20-165 0z m0 62l267 0 0 20-267 0z m246 245l0 22-41 0 0 6c0 19-13 34-31 34l-82 0c-18 0-31-15-31-34l0-6-41 0 0-21-102 0 0-451 430 0 0 450z m-205 0l40 0 0 24c0 10 7 18 15 18l71 0c8 0 15-8 15-18l0-24 41 0 0-62-182 0z m287-430l-390 0 0 410 82 0 0-62 226 0 0 62 82 0z m-328 247l267 0 0 20-267 0z"/>
<glyph glyph-name="icon-confirm" unicode="&#95;" d="M205 86c-12-12-31-12-43 0l-157 175c-7 7-7 19 0 26 8 8 19 8 26 0l157-174c-2 2-6 2-9 0l302 317c7 7 18 7 26 0 7-8 7-20 0-27z"/>
<glyph glyph-name="icon-calendar" unicode="&#96;" d="M461 512l-410 0c-20 0-38-17-38-38l0-436c0-21 16-38 38-38l410 0c20 0 38 17 38 38l0 436c0 21-16 38-38 38z m0-461c0-7-7-13-13-13l-384 0c-6 0-13 7-13 13l0 320 410 0z m0 359l-410 0 0 51c0 7 7 13 13 13l384 0c6 0 13-6 13-13z m-359-141c0 6 7 13 13 13l51 0c7 0 13-7 13-13l0-51c0-7-6-13-13-13l-51 0c-6 0-13 6-13 13z m116 0c0 6 6 13 12 13l52 0c6 0 12-7 12-13l0-51c0-7-6-13-12-13l-52 0c-6 0-12 6-12 13z m115 0c0 6 6 13 13 13l51 0c6 0 13-7 13-13l0-51c0-7-7-13-13-13l-51 0c-7 0-13 6-13 13z m-231-115c0 6 7 12 13 12l51 0c7 0 13-6 13-12l0-52c0-6-6-12-13-12l-51 0c-6 0-13 6-13 12z m116 0c0 6 6 12 12 12l52 0c6 0 12-6 12-12l0-52c0-6-6-12-12-12l-52 0c-6 0-12 6-12 12z m115 0c0 6 6 12 13 12l51 0c6 0 13-6 13-12l0-52c0-6-7-12-13-12l-51 0c-7 0-13 6-13 12z"/>
<glyph glyph-name="icon-currency" unicode="&#123;" d="M256 512c-141 0-256-115-256-256 0-141 115-256 256-256 141 0 256 115 256 256 0 141-115 256-256 256z m0-492c-131 0-236 105-236 236 0 131 105 236 236 236 131 0 236-105 236-236 0-131-105-236-236-236z m38 148c-19 0-27 14-49 14-5 0-12-1-17-3 13 10 24 23 24 43 0 6-1 10-3 14l41 0 0 17-49 0c-11 15-25 27-25 52 0 25 21 41 47 41 20 0 36-12 42-27l21 14c-12 23-36 36-66 36-39 0-73-28-73-64 0-25 14-38 26-52l-35 0 0-17 47 0c3-6 5-12 5-19 0-19-14-38-43-50l10-20c13 7 27 13 39 13 24 0 29-14 59-14 20 0 35 6 45 14l-13 22c-8-7-20-14-33-14z"/>
<glyph glyph-name="icon-wallet" unicode="&#124;" d="M460 389l-9 0 0 91c0 18-15 32-32 32l-378-123c0 0 0-1-1-2-12-6-20-17-20-30l0-325c0-6 2-12 4-17 0 0 0-1 2-1 5-8 15-14 25-14l409 0c17 0 32 14 32 32l0 325c0 18-15 32-32 32z m-47 103c9 0 17-8 17-17l0-86-310 0z m58-349l-102 0 0 62 102 0z m0 82l-123 0 0-102 123 0 0-86c0-9-8-17-15-17l-400 0c-9 0-15 8-15 17l0 315c0 9 8 17 15 17l400 0c9 0 15-8 15-17z"/>
<glyph glyph-name="icon-pound" unicode="&#125;" d="M430 433c-43 49-106 78-175 78-133 0-242-114-242-255 0-39 9-75 23-107l38 26c-9 26-15 53-15 81-1 116 87 210 196 210 54 0 104-23 139-61l-19-15 77-22 0 80z m55-92l-39-27c6-19 8-38 8-58 0-116-88-210-197-210-49 0-92 19-127 49l21 19-78 16 8-81 16 15c43-39 98-63 158-63 135 0 244 114 244 255 0 30-6 58-14 85z m-164-162l-127 0 0 15 20 6 0 39-20 0 0 22 20 0 0 25c0 10 2 20 6 28 4 8 11 15 19 19 8 4 18 6 28 6 17 0 29-5 38-14 9-10 15-23 16-39l-23-4c-1 10-4 20-9 25-5 5-12 9-22 9-8 0-16-2-21-8-5-5-8-12-8-21l0-24 47 0 0-23-47 0 0-38 83 0z"/>
<glyph glyph-name="icon-mail-envelop" unicode="&#92;" d="M77 139c0 5 2 10 6 14 4 4 9 6 14 6l152 0c11-1 20-10 20-20 0-11-9-20-20-21l-152 0c-11 0-20 9-20 21z m0 67c0 6 2 11 6 15 4 3 9 5 14 5l152 0c11 0 20-9 20-20 0-11-9-19-20-20l-152 0c-11 0-20 9-20 20z m257 155l0-81 77 0 0 81z m-26 22c0 3 3 5 5 5l118 0c3 0 5-2 5-5l0-124c0-3-2-6-5-6l-118 0c-2 0-5 3-5 6z m-269 40l0-340c0-3 2-5 5-5l426 0c3 0 5 2 5 5l0 340c0 3-2 6-5 6l-426 0c-2 0-3-1-4-2-1-1-1-2-1-4z m-39 30c0 9 7 16 16 16l482 0c8 0 16-7 16-16l0-400c0-9-8-16-16-16l-482 0c-9 0-16 7-16 16z"/>
<glyph glyph-name="icon-pound-sign" unicode="&#57344;" d="M181 64l0 2c41 24 67 68 67 116 0 13-2 26-5 39l136 0 0 57-154 0c-10 28-19 55-19 84 0 51 42 81 112 81 38 0 81-9 99-19l0 64c-22 11-64 19-106 19-115 0-183-52-183-141 0-30 10-59 21-88l-79 0 0-57 99 0c3-14 5-28 5-43 0-56-44-105-105-117l0-62 372 0 0 65z"/>
<glyph glyph-name="icon-spends" unicode="&#51;" d="M205 389c-45 0-82-36-82-82 0-45 36-82 82-82 45 0 82 36 82 82 0 45-37 82-82 82z m0-143c-33 0-61 27-61 61 0 33 28 61 61 61 34 0 61-28 61-61 0-34-27-61-61-61z m204-50l0 221c0 18-14 33-31 33l-345 0c-18 0-31-14-31-33l0-222c0-16 13-31 31-31l345 0c17 0 31 15 31 32z m-370-11c-9 0-16 8-16 18l0 209c0 10 7 18 16 18l332 0c9 0 17-8 17-18l0-209c0-10-8-18-17-18z m440 163l-29 0 0-20 23 0c9 0 16-7 16-17l0-210c0-10-7-17-16-17l-332 0c-9 0-17 7-17 17l0 23-21 0 0-29c0-18 14-33 31-33l345 0c18 0 31 14 31 33l0 221c0 18-13 32-31 32z"/>
<glyph glyph-name="icon-spending" unicode="&#52;" d="M469 404l-92 0c0 57-42 108-98 108l-42 0c-55 0-102-51-102-108l-92 0c-23 0-43-17-43-39l0-326c0-21 19-39 43-39l427 0c23 0 43 18 43 39l0 326c-1 22-20 39-44 39z m-303 0c0 39 33 76 70 76l42 0c36 0 66-37 66-76z m306-345c0-10-10-19-22-19l-388 0c-12 0-22 9-22 19l0 285c0 10 10 18 22 18l73 0 0-76c0-10 6-18 16-18 9 0 16 8 16 18l0 78 179 0 0-77c0-9 7-18 16-18 10 0 17 9 17 18l0 77 72 0c12 0 22-8 22-19l0-286z"/>
<glyph glyph-name="icon-small-dropdown" unicode="&#53;" d="M5 366l231-242c11-12 30-12 42 0l229 242c7 7 7 18 0 26-7 7-19 7-26-1l-229-241c3 3 7 3 9 0l-230 241c-7 8-19 8-26 1-7-8-7-19 0-26z"/>
<glyph glyph-name="externallink" unicode="&#126;" d="M0 448l353 0-32-32-289 0 0-385 385 0 0 288 32 32 0-351-449 0z m353 64l159 0 0-159-56 56-219-218-44 45 218 218z"/>
<glyph glyph-name="icon-business-banking" unicode="&#57345;" d="M480 320l-448 0 0 64c0 18 14 32 32 32l384 0c18 0 32-14 32-32z m0-224c0-18-14-32-32-32l-384 0c-18 0-32 14-32 32l0 192 448 0z m-288 352l0 32 128 0 0-32-128 0z m256 0l-96 0 0 48c0 9-7 16-16 16l-160 0c-9 0-16-7-16-16l0-48-96 0c-35 0-64-29-64-64l0-288c0-35 29-64 64-64l384 0c35 0 64 29 64 64l0 288c0 35-29 64-64 64z"/>
<glyph glyph-name="icon-chat" unicode="&#57347;" d="M416 417c13-19 22-41 27-63 23-27 37-61 37-98 0-56-32-105-80-134l0-58-62 35c-11-2-22-3-34-3-16 0-32 2-47 6-18-4-37-6-57-6-4 0-8 0-12 1 33-21 73-33 116-33 11 0 22 1 33 2l95-66 0 105c49 35 80 89 80 151 0 68-38 127-96 161m-263-249l-41-24 0 42c-48 29-80 78-80 134 0 89 79 160 176 160 97 0 176-71 176-160 0-88-79-160-176-160-19 0-38 3-55 8m263 152c0 106-93 192-208 192-115 0-208-86-208-192 0-62 31-116 80-151l0-89 77 54c16-4 33-6 51-6 115 0 208 86 208 192"/>
<glyph glyph-name="icon-creditcard" unicode="&#57348;" d="M224 128l96 0 0 32-96 0z m-160 0l128 0 0 32-128 0z m416 256l-448 0 0 32c0 18 14 32 32 32l384 0c18 0 32-14 32-32z m-448-96l448 0 0 64-448 0z m448-192c0-18-14-32-32-32l-384 0c-18 0-32 14-32 32l0 160 448 0z m-32 384l-384 0c-35 0-64-29-64-64l0-320c0-35 29-64 64-64l384 0c35 0 64 29 64 64l0 320c0 35-29 64-64 64z"/>
<glyph glyph-name="icon-currentaccounts" unicode="&#57349;" d="M320 208c-18 0-32 14-32 32 0 18 14 32 32 32 18 0 32-14 32-32 0-18-14-32-32-32z m96 48l-34 0c-7 28-32 48-62 48-30 0-55-20-62-48l-162 0c-9 0-16-7-16-16 0-9 7-16 16-16l162 0c7-28 32-48 62-48 30 0 55 20 62 48l34 0c9 0 16 7 16 16 0 9-7 16-16 16z m64-208c0-9-7-16-16-16l-416 0c-9 0-16 7-16 16l0 416c0 9 7 16 16 16l416 0c9 0 16-7 16-16z m-16 464l-416 0c-27 0-48-21-48-48l0-416c0-26 21-48 48-48l416 0c26 0 48 22 48 48l0 416c0 27-22 48-48 48z m-288-176c-18 0-32 14-32 32 0 18 14 32 32 32 18 0 32-14 32-32 0-18-14-32-32-32z m240 48l-178 0c-7 28-32 48-62 48-30 0-55-20-62-48l-18 0c-9 0-16-7-16-16 0-9 7-16 16-16l18 0c7-28 32-48 62-48 30 0 55 20 62 48l178 0c9 0 16 7 16 16 0 9-7 16-16 16z m-240-304c-18 0-32 14-32 32 0 18 14 32 32 32 18 0 32-14 32-32 0-18-14-32-32-32z m240 48l-178 0c-7 28-32 48-62 48-30 0-55-20-62-48l-18 0c-9 0-16-7-16-16 0-9 7-16 16-16l18 0c7-28 32-48 62-48 30 0 55 20 62 48l178 0c9 0 16 7 16 16 0 9-7 16-16 16z"/>
<glyph glyph-name="icon-delete-1" unicode="&#57350;" d="M336 112l32 0 0 192-32 0z m-96 0l32 0 0 224-32 0z m192 288l0-352c0-9-7-16-16-16l-320 0c-9 0-16 7-16 16l0 368 352 0-3-7c2-2 3-5 3-9z m-224 48l96 0 0 32-96 0z m272 0l-144 0 0 48c0 9-7 16-16 16l-128 0c-9 0-16-7-16-16l0-48-144 0c-9 0-16-7-16-16 0-9 7-16 16-16l16 0 0-384c0-18 14-32 32-32l352 0c18 0 32 14 32 32l0 384 16 0c9 0 16 7 16 16 0 9-7 16-16 16z m-336-336l32 0 0 192-32 0z"/>
<glyph glyph-name="icon-error-1" unicode="&#57351;" d="M512 256c0-141-115-256-256-256-141 0-256 115-256 256 0 141 115 256 256 256 141 0 256-115 256-256z m-265-40l18 0 0 16-18 0z m9 104c-5 0-9-4-9-8l0-56c0-4 4-8 9-8 5 0 9 4 9 8l0 56c0 4-4 8-9 8z m0 56l102-184-204 0z m0 24l-128-224 256 0z"/>
<glyph glyph-name="icon-externallink" unicode="&#57352;" d="M495 480c0 0 0 0 0 0 0 0 0 0 0 0l0 1c0 4-1 7-4 9 0 1 0 1-1 1 0 1 0 1-1 1-2 2-5 4-9 4l-1 0c0 0 0 0 0 0 0 0 0 0 0 0l-161-1c-8 0-15-7-15-16 0-9 7-16 15-16l123 1-260-261c-7-7-6-16 0-22 6-7 16-7 22 0l260 261 1-122c0-8 7-15 16-15 9 0 16 7 16 15z m-63-416c0-9-7-16-16-16l-352 0c-9 0-16 7-16 16l0 352c0 9 7 16 16 16l208 0 0 32-224 0c-18 0-32-14-32-32l0-384c0-18 14-32 32-32l384 0c18 0 32 14 32 32l0 224-32 0z"/>
<glyph glyph-name="icon-hamburger" unicode="&#57353;" d="M464 256l-416 0c-9 0-16-7-16-16 0-9 7-16 16-16l416 0c9 0 16 7 16 16 0 9-7 16-16 16m0 96l-416 0c-9 0-16-7-16-16 0-9 7-16 16-16l416 0c9 0 16 7 16 16 0 9-7 16-16 16m0-192l-416 0c-9 0-16-7-16-16 0-9 7-16 16-16l416 0c9 0 16 7 16 16 0 9-7 16-16 16"/>
<glyph glyph-name="icon-insurance" unicode="&#57354;" d="M432 192c-27 0-48 21-48 48 0 26 21 48 48 48 27 0 48-22 48-48 0-27-21-48-48-48z m16-32l-384 0 0 2c5-1 11-2 16-2 44 0 80 36 80 80 0 5-1 11-2 16l196 0c-1-5-2-11-2-16 0-44 36-80 80-80 5 0 11 1 16 2z m-32-64l-320 0c-18 0-32 14-32 32l384 0c0-18-14-32-32-32z m0-48c0-9-7-16-16-16-9 0-16 7-16 16l0 16 32 0z m-288 0c0-9-7-16-16-16-9 0-16 7-16 16l0 16 32 0z m-96 192c0 26 21 48 48 48 27 0 48-22 48-48 0-27-21-48-48-48-27 0-48 21-48 48z m64 176c16 32 29 64 64 64l192 0c35 0 48-32 64-64l19-96c-1 0-2 0-3 0-26 0-49-13-64-32l-224 0c-15 19-38 32-64 32-1 0-2 0-3 0z m373-106l-21 106c-16 48-43 96-96 96l-192 0c-53 0-80-48-96-96l-21-106c-25-13-43-39-43-70 0-26 13-49 32-64l0-48c0-24 13-44 32-55l0-41c0-18 14-32 32-32l32 0c18 0 32 14 32 32l0 32 192 0 0-32c0-18 14-32 32-32l32 0c18 0 32 14 32 32l0 41c19 11 32 31 32 55l0 48c19 15 32 38 32 64 0 31-18 57-43 70z"/>
<glyph glyph-name="icon-privatebanking" unicode="&#57355;" d="M326 212c-24-24-64-24-88 0-25 25-25 64 0 89 24 24 64 24 88 0 25-25 25-64 0-89m12 101c-31 31-81 31-112 0-29-29-31-75-6-106l-73-67c-3-2-3-5-2-8l-1 0 47-47 12 11-38 38 23 21 36-37 12 12-36 36 31 29c32-26 78-24 107 5 31 31 31 82 0 113m110 7l2-272c0-9-7-16-16-16l-80-1-96-1-176-1c-9 0-16 7-16 16l-2 272-2 0 193 157 196-154z m60-4l-241 190c-4 4-9 5-14 4 0 0 0 0 0 0-1 0-2 0-3 0-1 0-1 0-1-1-2 0-4-1-6-3l-238-193c-7-7-7-17 0-23 6-7 17-7 23 0l4 3 2-264c0-18 15-32 32-32l384 3c18 0 32 14 32 32l-2 265 5-4c6-6 17-6 23 0 6 7 6 17 0 23z m-445 193l190 1-190-1z"/>
<glyph glyph-name="icon-quicklinks" unicode="&#57356;" d="M210 94l-35-35-11-12c-20-19-51-19-70 0l-47 47c-19 19-19 50 0 70l151 151c20 19 51 19 70 0l23-24 12-11c3-3 7-5 12-5 4 0 8 2 11 5 7 6 7 17 0 23l-11 12-24 23c-32 32-84 32-116 0l-151-151c-32-32-32-84 0-116l47-47c32-32 84-32 116 0l11 12 35 35c7 6 7 16 0 23-6 6-17 6-23 0m277 350l-43 43c-32 33-86 33-118 2l-11-12-35-34c-7-7-7-17 0-24 3-3 7-5 11-5 5 0 9 2 12 5l35 35 11 11c19 19 53 18 72-1l43-43c19-19 20-53 1-72l-104-104-41-41c-20-20-59-22-77-4l-20 20c0 0-1 1-1 2l0 0-12 11c-6 7-17 7-23 0-7-6-7-17 0-23l13-13 20-20 2-2c1-1 2-1 3-2 30-25 80-24 112 3l1-1c1 1 2 3 3 4 1 0 2 1 2 2l146 145c31 32 31 86-2 118"/>
<glyph glyph-name="icon-pound-1" unicode="&#57357;" d="M320 119c-26 0-39 19-69 19-8 0-17-2-24-4 19 13 36 33 36 61 0 7-2 14-4 20l57 0 0 25-70 0c-16 21-37 38-37 72 0 37 31 59 66 59 29 0 51-18 59-38l32 19c-18 33-52 52-95 52-56 0-104-40-104-91 0-34 19-54 36-73l-49 0 0-25 67 0c4-9 7-18 7-28 0-28-22-53-61-70l13-29c20 10 39 18 55 18 35 0 42-21 83-21 30 0 50 9 63 22l-16 31c-6-9-24-19-45-19"/>
<glyph glyph-name="icon-refresh" unicode="&#57358;" d="M511 182c0 0 0 1 0 1-1 1-2 2-3 3-1 2-3 3-5 4 1 1 1 1 1 2l-33 0 0 0-135 0c-9 0-16-7-16-16 0-9 7-16 16-16l122 0c-36-76-112-128-202-128-113 0-206 83-221 192l-33 0c16-126 124-224 254-224 97 0 181 54 224 133l0-117c0-9 7-16 16-16 9 0 16 7 16 16l0 159c0 0 0 1 0 1 0 2 0 4-1 6m-502 140c0-1 0-1 0-2l167 0c9 0 16 7 16 16 0 9-7 16-16 16l-122 0c36 76 113 128 202 128 113 0 206-83 222-192l32 0c-16 126-123 224-254 224-96 0-180-54-224-133l0 117c0 9-7 16-16 16-9 0-16-7-16-16l0-159c0 0 0 0 0-1 0-2 1-4 1-6 1 0 1-1 1-1 0-1 1-2 2-3 2-2 3-3 5-4"/>
<glyph glyph-name="icon-savings" unicode="&#57359;" d="M384 192l32 0 0 32-32 0z m16 64c-27 0-48-21-48-48 0-26 21-48 48-48 26 0 48 22 48 48 0 27-22 48-48 48z m80-208c0-9-7-16-16-16l-416 0c-9 0-16 7-16 16l0 288c0 9 7 16 16 16l416 0c9 0 16-7 16-16z m-448 368l0 48c0 9 7 16 16 16l320 0c9 0 16-7 16-16l0-80-352 0z m448-32l-64 0 0 73c0 30-24 55-53 55l-311 0c-26 0-48-21-51-48l-1 0 0-432c0-18 14-32 32-32l448 0c18 0 32 14 32 32l0 320c0 18-14 32-32 32z"/>
<glyph glyph-name="icon-spending-1" unicode="&#57360;" d="M32 512l0-504 32 0 63 47 62-47 64 47 63-47 63 47 63-47 31 0 0 504z m32-32l378 0 0-441-63 48-63-48-63 48-63-48-63 48-63-48z m63-94l252 0 0 31-252 0z m189-95l63 0 0 32-63 0z m-189 0l126 0 0 32-126 0z m189-63l63 0 0 32-63 0z m-189 0l126 0 0 32-126 0z m189-63l63 0 0 32-63 0z m-189 0l126 0 0 32-126 0z"/>
<glyph glyph-name="icon-sweep" unicode="&#57361;" d="M461 288c-15 100-101 176-205 176-80 0-150-45-184-112l24 0 0-23c28 61 89 103 160 103 86 0 158-62 173-144l-45 0 64-80 64 80z m-205-208c-86 0-158 62-173 144l45 0-64 80-64-80 51 0c15-100 101-176 205-176 80 0 150 45 184 112l-37 0c-31-48-85-80-147-80z m26 120c-13 0-20 9-35 9-4 0-9 0-12-2 9 7 18 17 18 32 0 3-1 7-2 10l29 0 0 13-36 0c-8 10-19 19-19 37 0 19 16 30 34 30 15 0 27-9 31-19l16 9c-9 17-27 27-49 27-29 0-53-21-53-47 0-17 10-27 18-37l-25 0 0-13 35 0c2-4 3-9 3-14 0-15-11-28-31-36l7-15c10 5 20 9 28 9 18 0 21-11 42-11 16 0 26 5 33 11l-9 16c-3-4-12-9-23-9"/>
<glyph glyph-name="icon-information-1" unicode="&#57363;" d="M256 32c-124 0-224 100-224 224 0 124 100 224 224 224 124 0 224-100 224-224 0-124-100-224-224-224z m-256 224c0-141 115-256 256-256 141 0 256 115 256 256 0 141-115 256-256 256-141 0-256-115-256-256z m260-142c-11 0-20 6-20 14l0 179c0 7 9 13 20 13 11 0 20-6 20-13l0-179c0-8-9-14-20-14m0 286c-11 0-20-9-20-20 0-11 9-20 20-20 11 0 20 9 20 20 0 11-9 20-20 20"/>
<glyph glyph-name="icon-56-link" unicode="&#57364;" d="M5 152c-7-8-7-19 0-27 6-8 17-7 25 0l231 246c-2-3-7-3-10 0l229-246c6-8 18-8 26 0 6 8 6 19 0 27l-229 246c-11 13-31 13-42 0z"/>
<glyph glyph-name="icon-graph" unicode="&#57365;" d="M256 469c-11 0-21-10-21-21l0-384c0-11 10-21 21-21 11 0 21 10 21 21l0 384c0 11-10 21-21 21z m0 43c35 0 64-29 64-64l0-384c0-35-29-64-64-64-35 0-64 29-64 64l0 384c0 35 29 64 64 64z m192-171c-11 0-21-10-21-21l0-256c0-11 10-21 21-21 11 0 21 10 21 21l0 256c0 11-10 21-21 21z m0 43c35 0 64-29 64-64l0-256c0-35-29-64-64-64-35 0-64 29-64 64l0 256c0 35 29 64 64 64z m-384-171c-11 0-21-10-21-21l0-128c0-11 10-21 21-21 11 0 21 10 21 21l0 128c0 11-10 21-21 21z m0 43c35 0 64-29 64-64l0-128c0-35-29-64-64-64-35 0-64 29-64 64l0 128c0 35 29 64 64 64z"/>
<glyph glyph-name="artboard-5" unicode="&#57366;" d="M256 0c-141 0-256 115-256 256 0 141 115 256 256 256 141 0 256-115 256-256 0-141-115-256-256-256z m0 34c123 0 222 99 222 222 0 123-99 222-222 222-123 0-222-99-222-222 0-123 99-222 222-222z m-62 145l-64 64-36-36 100-99 35 35 0 0 192 192-36 36z"/>
<glyph glyph-name="icon-projection" unicode="&#57367;" d="M435 136l-348 0c-26 0-47 22-47 49l0 307 31 0 0-307c0-8 7-15 16-15l348 0c9 0 16 7 16 15l0 307 31 0 0-307c0-27-21-49-47-49z m-325 97c-4 0-8 1-11 4-6 6-7 17-1 24l91 111c5 7 15 8 21 2l85-70 98 107c6 7 16 7 22 0 7-7 7-17 1-24l-108-117c-6-6-15-7-21-2l-84 69-81-99c-3-3-8-5-12-5z m-94 279l486 0 0-34-486 0z m325-488c-6 0-11 3-14 9l-49 102-31 0-54-102c-5-9-14-12-22-7-7 5-10 15-6 23l59 111c2 6 8 9 13 9l51 0c6 0 11-4 14-9l53-111c4-9 1-19-7-23-2-2-4-2-7-2z"/>
<glyph glyph-name="icon-statements" unicode="&#57368;" d="M32 512l0-512 32 0 64 48 64-48 64 48 64-48 64 48 64-48 32 0 0 512z m32-32l384 0 0-448-64 48-64-48-64 48-64-48-64 48-64-48z m64-96l256 0 0 32-256 0z m0-128l256 0 0 32-256 0z m0-64l256 0 0 32-256 0z"/>
<glyph glyph-name="icon-wallet-1" unicode="&#57369;" d="M455 235l-11 0 0 50 40 52-92 70 6 15-54 22-47 36-6-8 2 10-58 7-54 22-6-14-115 15-20-151c-14-4-23-16-23-30l0-310c0-11 9-21 21-21l385 0c12 0 21 10 21 21l0 64 11 0c6 0 11 5 11 11l0 128c0 6-5 11-11 11z m-154 215l153-117-15-20c-4 4-10 7-16 7l-14 0c-4 10-2 21 5 30l-85 65c-6-8-16-12-26-12-6 0-13 2-19 6l-69-89-13 0z m85-126c0-1 1-3 1-4l-145 0 49 63c4-1 8-2 12-2 8 0 16 2 24 6 1 0 1 1 2 1l58-44c-1-7-2-13-1-20z m-211-4l-16 0 40 96c14 1 27 6 36 15l19-8z m17 164l82-34-6-9-40 16c-5-12-17-19-30-19-4 0-8 0-12 2l-50-120-12 0z m-91-164l-13 0 14 105c7 2 14 6 20 11 4 4 8 8 11 13l21-3z m-23 168l88-11-4-11-43 6c-2-16-16-28-32-28-1 0-3 0-4 0l-16-124-11 0z m345-467l-385 0 0 278 385 0 0-64-107 0c0 0-43-51-43-75 0-24 43-75 43-75l107 0z m21 86l-118 0c-4 5-9 11-14 19-16 24-17 33-17 34 0 1 1 10 17 34 5 8 10 14 14 19l118 0z m-85 85c-18 0-32-14-32-32 0-18 14-32 32-32 17 0 32 14 32 32 0 18-15 32-32 32z m0-43c-6 0-11 5-11 11 0 6 5 11 11 11 6 0 10-5 10-11 0-6-4-11-10-11z"/>
<glyph glyph-name="icon-money" unicode="&#57370;" d="M357 205l-303 0c-8 0-14 6-14 14l0 176c0 8 6 15 14 15l303 0c8 0 14-7 14-15l0-176c0-8-6-14-14-14z m53 211c0 18-15 32-32 32l-346 0c-18 0-32-14-32-32l0-219c0-18 14-32 32-32l347 0c18 0 32 14 32 32l0 219z m-205-160c-29 0-51 22-51 51 0 29 22 51 51 51 29 0 51-22 51-51 0-29-22-51-51-51z m0 128c-43 0-77-34-77-77 0-41 34-77 77-77 43 0 77 36 77 77 0 43-34 77-77 77z m230-38l45 0c18 0 32-15 32-32l0-218c0-18-14-32-32-32l-347 0c-18 0-32 14-32 32l0 45 38 0 0-24c0-8 7-15 15-15l302 0c8 0 14 7 14 15l0 176c0 8-6 14-14 14l-24 0 0 39z"/>
<glyph glyph-name="icon-wallet-round" unicode="&#57371;" d="M458 383l0 86c0 21-17 34-38 27l-389-113c-17-4-29-18-29-37l0-306c0-21 17-38 38-38l419 0c22 0 39 17 39 38l0 304c-2 22-19 39-40 39z m-52 72c7 1 13-2 13-10l0-63-262 0z m52-289l-92 0 0 39 92 0z m0 64l-104 0c-8 0-13-7-13-13l0-63c0-8 7-13 13-13l104 0 0-90c0-8-7-12-13-12l-392 0c-8 0-13 6-13 12l0 281c0 8 7 12 13 12l392 0c8 0 13-6 13-12z"/>
<glyph glyph-name="mortgage" unicode="&#57362;" d="M507 316c7-7 7-17 0-23-6-7-16-7-23 0l-4 3 0-264c0-18-15-32-32-32l-384 0c-17 0-32 14-32 32l0 264-4-3c-7-7-17-7-23 0-7 6-7 16 0 23l239 191c3 4 8 5 12 5 4 0 9-1 12-5z m-251-284l96 0 0 192-96 0z m192 288l2 0-194 155-194-155 2 0 0-272c0-9 7-16 16-16l144 0 0 224 160 0 0-224 48 0c9 0 16 7 16 16z m-352-160l0 96 96 0 0-96z m32 32l32 0 0 32-32 0z"/>
<glyph glyph-name="icon-calendar-1" unicode="&#57346;" d="M112 96l32 0 0 32-32 0z m-32-32l96 0 0 96-96 0z m160 32l32 0 0 32-32 0z m-32-32l96 0 0 96-96 0z m32 160l32 0 0 32-32 0z m-32-32l96 0 0 96-96 0z m256 192l-416 0 0 48c0 9 7 16 16 16l80 0 0-32 32 0 0 32 160 0 0-32 32 0 0 32 80 0c9 0 16-7 16-16z m0-336c0-9-7-16-16-16l-384 0c-9 0-16 7-16 16l0 304 416 0z m16 432l-112 0 0 32-32 0 0-32-160 0 0 32-32 0 0-32-96 0c-18 0-32-14-32-32l0-416c0-18 14-32 32-32l416 0c18 0 32 14 32 32l0 416c0 18 2 32-16 32z m-112-384l32 0 0 32-32 0z m-32-32l96 0 0 96-96 0z m-224 160l32 0 0 32-32 0z m-32-32l96 0 0 96-96 0z m288 32l32 0 0 32-32 0z m-32-32l96 0 0 96-96 0z"/>
<glyph glyph-name="icon-move-money" unicode="&#57372;" d="M188 249c-6 0-12 3-16 7l-102 108c-8 9-8 24 0 33l102 108c9 9 23 9 31 0 9-9 9-24 0-33l-63-68 271 0c12 0 22-10 22-23 0-13-10-24-22-24l-271 0 63-68c9-9 9-24 0-33-4-4-10-7-15-7z m238-104c9-9 9-23 0-32l-101-105c-4-4-10-6-16-6-5 0-11 2-15 6-9 9-9 24 0 33l63 65-271 0c-12 0-22 11-22 23 0 13 10 23 22 23l271 0-63 66c-9 9-9 23 0 32 8 9 22 9 31 0z"/>
<glyph glyph-name="reorder-down" unicode="&#57373;" d="M278 79c-1-1-1-2-2-2-3-3-8-5-12-5-4 0-9 2-12 5-1 0-1 1-2 2l-101 116c-7 6-7 17 0 23 7 7 17 7 24 0l74-84 0 273c0 9 8 17 17 17 9 0 17-8 17-17l0-273 74 84c7 7 17 7 24 0 7-6 7-17 0-23z"/>
<glyph glyph-name="reorder-up" unicode="&#57374;" d="M278 417c-1 1-1 2-2 2-3 3-8 5-12 5-4 0-9-2-12-5-1 0-1-1-2-2l-101-116c-7-6-7-17 0-23 7-7 17-7 24 0l74 84 0-273c0-9 8-17 17-17 9 0 17 8 17 17l0 273 74-84c7-7 17-7 24 0 7 6 7 17 0 23z"/>
</font>
</defs>
</svg>
