<?xml version="1.0" encoding="UTF-8" standalone="no"?>
<svg width="28px" height="28px" viewBox="0 0 28 28" version="1.1" xmlns="http://www.w3.org/2000/svg" xmlns:xlink="http://www.w3.org/1999/xlink">
    <!-- Generator: Sketch 39.1 (31720) - http://www.bohemiancoding.com/sketch -->
    <title>close</title>
    <desc>Created with Sketch.</desc>
    <defs></defs>
    <g id="You" stroke="none" stroke-width="1" fill="none" fill-rule="evenodd">
        <g id="01---You---04---Search-Results" transform="translate(-1795.000000, -335.000000)" fill="#C3C3C3">
            <g id="Timeline" transform="translate(21.000000, 224.000000)">
                <g id="Right-Col" transform="translate(726.000000, 0.000000)">
                    <g id="Search" transform="translate(0.000000, 84.000000)">
                        <path d="M1062,55 C1069.73199,55 1076,48.7319865 1076,41 C1076,33.2680135 1069.73199,27 1062,27 C1054.26801,27 1048,33.2680135 1048,41 C1048,48.7319865 1054.26801,55 1062,55 Z M1062,40.1477806 L1066.97128,35.1765004 C1067.20661,34.9411665 1067.58817,34.9411665 1067.8235,35.1765004 C1068.05883,35.4118343 1068.05883,35.793386 1067.8235,36.0287199 L1062.85222,41 L1067.8235,45.9712801 C1068.05883,46.206614 1068.05883,46.5881657 1067.8235,46.8234996 C1067.58817,47.0588335 1067.20661,47.0588335 1066.97128,46.8234996 L1062,41.8522194 L1057.02872,46.8234996 C1056.79339,47.0588335 1056.41183,47.0588335 1056.1765,46.8234996 C1055.94117,46.5881657 1055.94117,46.206614 1056.1765,45.9712801 L1061.14778,41 L1056.1765,36.0287199 C1055.94117,35.793386 1055.94117,35.4118343 1056.1765,35.1765004 C1056.41183,34.9411665 1056.79339,34.9411665 1057.02872,35.1765004 L1062,40.1477806 Z" id="close"></path>
                    </g>
                </g>
            </g>
        </g>
    </g>
</svg>