<?xml version="1.0" encoding="iso-8859-1"?>
<!-- Generator: Adobe Illustrator 16.0.0, SVG Export Plug-In . SVG Version: 6.00 Build 0)  -->
<!DOCTYPE svg PUBLIC "-//W3C//DTD SVG 1.1//EN" "http://www.w3.org/Graphics/SVG/1.1/DTD/svg11.dtd">
<svg version="1.1" xmlns="http://www.w3.org/2000/svg" xmlns:xlink="http://www.w3.org/1999/xlink" x="0px" y="0px" width="16px"
	 height="16px" viewBox="0 0 16 16" style="enable-background:new 0 0 16 16;" xml:space="preserve">
<g id="_x37_2-document_-_drawing__writing_board" style="enable-background:new    ;">
	<path d="M4,11.999h5v-1H4V11.999z M4,9.999h8v-1H4V9.999z M11.5,1.999v-1H10c0-0.553-0.447-1-1-1H7c-0.552,0-1,0.447-1,1H4.5v1H1
		v14h14v-14H11.5z M5.5,1.999H7v-0.5c0-0.276,0.224-0.5,0.5-0.5h1c0.276,0,0.5,0.224,0.5,0.5v0.5h1.5v2h-2h-1h-2V1.999z M14,14.999
		H2v-12h2.5v2h7v-2H14V14.999z M4,7.999h8v-1H4V7.999z"/>
</g>
<g id="Layer_1">
</g>
</svg>
