<?xml version="1.0" encoding="UTF-8" standalone="no"?>
<svg width="54px" height="59px" viewBox="0 0 54 59" version="1.1" xmlns="http://www.w3.org/2000/svg" xmlns:xlink="http://www.w3.org/1999/xlink">
    <!-- Generator: Sketch 39.1 (31720) - http://www.bohemiancoding.com/sketch -->
    <title>REFRESH</title>
    <desc>Created with Sketch.</desc>
    <defs></defs>
    <g id="Miscellaneous" stroke="none" stroke-width="1" fill="none" fill-rule="evenodd">
        <g id="04-Help---Ask-a-question" transform="translate(-257.000000, -54.000000)" fill="#FFFFFF">
            <g id="REFRESH" transform="translate(257.000000, 53.000000)">
                <path d="M22.2296416,18.3922361 C21.2689935,18.9290689 20.4902344,18.4733324 20.4902344,17.3668359 L20.4902344,2.36167972 C20.4902344,1.25853406 21.2648638,0.797138989 22.2296416,1.3362795 L35.7508271,8.89223612 C36.7114752,9.42906888 36.7156049,10.297139 35.7508271,10.8362795 L22.2296416,18.3922361 Z" id="Triangle"></path>
                <path d="M53.3320647,30 C53.4430126,30.9846718 53.5,31.9856808 53.5,33 C53.5,47.6355459 41.6355459,59.5 27,59.5 C12.3644541,59.5 0.5,47.6355459 0.5,33 C0.5,20.4280415 9.25458955,9.90082693 21,7.18212497 L21,12.869636 C12.3255332,15.4512836 6,23.4869381 6,33 C6,44.5979797 15.4020203,54 27,54 C38.5979797,54 48,44.5979797 48,33 C48,31.981436 47.9274841,30.979809 47.7873334,30 L53.3320647,30 Z" id="Combined-Shape"></path>
            </g>
        </g>
    </g>
</svg>