<?xml version="1.0" encoding="UTF-8" standalone="no"?>
<svg width="38px" height="39px" viewBox="0 0 38 39" version="1.1" xmlns="http://www.w3.org/2000/svg" xmlns:xlink="http://www.w3.org/1999/xlink">
    <!-- Generator: Sketch 39.1 (31720) - http://www.bohemiancoding.com/sketch -->
    <title>icon-interest-rates</title>
    <desc>Created with Sketch.</desc>
    <defs></defs>
    <g id="Page-1" stroke="none" stroke-width="1" fill="none" fill-rule="evenodd">
        <g id="Base-Size---For-Vector-Export" transform="translate(-326.000000, -639.000000)" fill="#FFFFFF">
            <g id="icon-interest-rates" transform="translate(326.000000, 639.000000)">
                <path d="M2.28322091,9.00172218 C0.978423019,9.32362048 0,10.5059274 0,11.9151883 L0,35.91515 C0,37.5678505 1.34209804,38.9151691 2.99765987,38.9151691 L35.0023401,38.9151691 C36.6475599,38.9151691 38,37.5720148 38,35.91515 L38,11.9151883 C38,10.2624877 36.657902,8.91516912 35.0023401,8.91516912 L34.9626465,8.91516912 L34.9626465,2.26622777 C34.9626465,0.598984748 33.6768471,-0.351350597 32.0907333,0.121117677 L2.27783203,9.00172218 L2.28322091,9.00172218 Z M3,12.9158637 C3,12.3631954 3.45236206,11.9151691 3.99278641,11.9151691 L34.0072136,11.9151691 C34.5555144,11.9151691 35,12.3626383 35,12.9158637 L35,34.9144745 C35,35.4671429 34.5476379,35.9151691 34.0072136,35.9151691 L3.99278641,35.9151691 C3.44448561,35.9151691 3,35.4676999 3,34.9144745 L3,12.9158637 Z M26,21.9180984 C26,21.3641959 26.4463114,20.9151691 26.9975446,20.9151691 L35,20.9151691 L35,27.9151691 L26.9975446,27.9151691 C26.446616,27.9151691 26,27.4772878 26,26.9122398 L26,21.9180984 Z M28,22.9151691 L35,22.9151691 L35,25.9151691 L28,25.9151691 L28,22.9151691 Z M11.980957,8.98938759 L31.1502205,3.28520775 C31.6788682,3.12789855 32.1074219,3.45052364 32.1074219,4.00280042 L32.1074219,8.98938756 L11.980957,8.98938759 Z"></path>
            </g>
        </g>
    </g>
</svg>