<?xml version="1.0" encoding="UTF-8" standalone="no"?>
<svg width="32px" height="40px" viewBox="0 0 32 40" version="1.1" xmlns="http://www.w3.org/2000/svg" xmlns:xlink="http://www.w3.org/1999/xlink">
    <!-- Generator: Sketch 39.1 (31720) - http://www.bohemiancoding.com/sketch -->
    <title>icon_you</title>
    <desc>Created with Sketch.</desc>
    <defs></defs>
    <g id="Page-1" stroke="none" stroke-width="1" fill="none" fill-rule="evenodd">
        <g id="Base-Size---For-Vector-Export" transform="translate(-129.000000, -220.000000)" fill="#FFFFFF">
            <g id="icon-you" transform="translate(129.000000, 220.000000)">
                <g id="icon_you">
                    <path d="M16,21 L16,21 C20.9705627,21 25,16.9705627 25,12 C25,7.02943725 20.9705627,3 16,3 C11.0294373,3 7,7.02943725 7,12 C7,16.9705627 11.0294373,21 16,21 L16,21 L16,21 Z M9.77011453,22.2581899 C6.3104616,20.1526107 4,16.3461239 4,12 C4,5.372583 9.372583,0 16,0 C22.627417,0 28,5.372583 28,12 C28,16.3461239 25.6895384,20.1526107 22.2298855,22.2581899 C27.9714812,24.6875877 32,30.3733383 32,37 L29,37 C29,29.8202983 23.1797017,24 16,24 C8.82029825,24 3,29.8202983 3,37 L0,37 C0,30.3733383 4.02851883,24.6875877 9.77011453,22.2581899 L9.77011453,22.2581899 Z M0,37 L3,37 L3,38.5 C3,39.3284271 2.33420277,40 1.5,40 C0.671572875,40 0,39.3342028 0,38.5 L0,37 L0,37 Z M29,37 L32,37 L32,38.5 C32,39.3284271 31.3342028,40 30.5,40 C29.6715729,40 29,39.3342028 29,38.5 L29,37 L29,37 Z" id="Shape"></path>
                </g>
            </g>
        </g>
    </g>
</svg>