<?xml version="1.0" encoding="UTF-8" standalone="no"?>
<svg width="34px" height="40px" viewBox="0 0 34 40" version="1.1" xmlns="http://www.w3.org/2000/svg" xmlns:xlink="http://www.w3.org/1999/xlink">
    <!-- Generator: Sketch 39.1 (31720) - http://www.bohemiancoding.com/sketch -->
    <title>icon-delete</title>
    <desc>Created with Sketch.</desc>
    <defs></defs>
    <g id="Page-1" stroke="none" stroke-width="1" fill="none" fill-rule="evenodd">
        <g id="Base-Size---For-Vector-Export" transform="translate(-328.000000, -502.000000)" fill="#FFFFFF">
            <g id="icon-delete" transform="translate(328.000000, 502.000000)">
                <path d="M14,5 L3.00235843,5 C1.34331243,5 0,6.34389141 0,8.00166547 L0,9.99833453 C0,11.6609799 1.34420165,13 3.00235843,13 L30.9976416,13 C32.6566876,13 34,11.6561086 34,9.99833453 L34,8.00166547 C34,6.33902013 32.6557983,5 30.9976416,5 L20,5 L20,5 L23,5 L23,2.0048815 C23,0.893899798 22.1007504,0 20.9914698,0 L13.0085302,0 C11.9019504,0 11,0.897616023 11,2.0048815 L11,5 L14,5 L14,3 L20,3 L20,5 Z M3,13 L31,13 L31,36.0015293 C31,38.2098237 29.2058797,40 27.0031611,40 L6.99683887,40 C4.78944571,40 3,38.2075447 3,36.0015293 L3,13 Z M6,13 L28,13 L28,34.9950534 C28,36.1023548 27.1103261,37 26.008845,37 L7.991155,37 C6.89147046,37 6,36.1029738 6,34.9950534 L6,13 Z M10,17.9933977 C10,17.4447593 10.4438648,17 11,17 C11.5522847,17 12,17.4449463 12,17.9933977 L12,34.0066023 C12,34.5552407 11.5561352,35 11,35 C10.4477153,35 10,34.5550537 10,34.0066023 L10,17.9933977 Z M16,17.9933977 C16,17.4447593 16.4438648,17 17,17 C17.5522847,17 18,17.4449463 18,17.9933977 L18,34.0066023 C18,34.5552407 17.5561352,35 17,35 C16.4477153,35 16,34.5550537 16,34.0066023 L16,17.9933977 Z M22,17.9933977 C22,17.4447593 22.4438648,17 23,17 C23.5522847,17 24,17.4449463 24,17.9933977 L24,34.0066023 C24,34.5552407 23.5561352,35 23,35 C22.4477153,35 22,34.5550537 22,34.0066023 L22,17.9933977 Z M3,9 C3,8.44771525 3.43981314,8 3.99653482,8 L30.0034652,8 C30.5538362,8 31,8.44386482 31,9 C31,9.55228475 30.5601869,10 30.0034652,10 L3.99653482,10 C3.44616384,10 3,9.55613518 3,9 Z" id="Rectangle-35"></path>
            </g>
        </g>
    </g>
</svg>