<?xml version="1.0" encoding="UTF-8" standalone="no"?>
<svg width="38px" height="38px" viewBox="0 0 38 38" version="1.1" xmlns="http://www.w3.org/2000/svg" xmlns:xlink="http://www.w3.org/1999/xlink">
    <!-- Generator: Sketch 39.1 (31720) - http://www.bohemiancoding.com/sketch -->
    <title>icon-spending</title>
    <desc>Created with Sketch.</desc>
    <defs></defs>
    <g id="Page-1" stroke="none" stroke-width="1" fill="none" fill-rule="evenodd">
        <g id="Base-Size---For-Vector-Export" transform="translate(-322.000000, -221.000000)" fill="#FFFFFF">
            <g id="icon-spending" transform="translate(322.000000, 221.000000)">
                <path d="M28,8 L34.8333333,8 C36.582125,8 38,9.30466508 38,10.9165248 L38,35.0805565 C38,36.6931459 36.582125,38 34.8333333,38 L3.16666667,38 C1.417875,38 0,36.6931459 0,35.0805565 L0,10.9165248 C0,9.30466508 1.417875,8 3.16666667,8 L10,8 L10,7.95394737 C10,3.77605263 13.4434783,0 17.5850435,0 L20.7170435,0 C24.8593913,0 28,3.77684211 28,7.95552632 L28,8 Z M25.6521739,8 L12.3478261,8 L12.3478261,7.95394737 C12.3478261,5.08657895 14.8717391,2.36842105 17.5866087,2.36842105 L20.7170435,2.36842105 C23.4311304,2.36842105 25.6521739,5.08657895 25.6521739,7.95394737 L25.6521739,8 Z M10,11 L4.60046034,11 C3.71660113,11 3,11.6483675 3,12.4472118 L3,33.5534817 C3,34.3537128 3.71660113,35 4.60046034,35 L33.4003069,35 C34.2833989,35 35,34.3537128 35,33.5534817 L35,12.4472118 C35,11.6483675 34.2833989,11 33.4003069,11 L28,11 L28,16.7368421 C28,17.4331579 27.5163478,18 26.826087,18 C26.1358261,18 25.6521739,17.4331579 25.6521739,16.7368421 L25.6521739,11 L12.3478261,11 L12.3478261,16.7368421 C12.3478261,17.4331579 11.8641739,18 11.173913,18 C10.4836522,18 10,17.4331579 10,16.7368421 L10,11 Z"></path>
            </g>
        </g>
    </g>
</svg>