<?xml version="1.0" encoding="UTF-8" standalone="no"?>
<svg width="34px" height="40px" viewBox="0 0 34 40" version="1.1" xmlns="http://www.w3.org/2000/svg" xmlns:xlink="http://www.w3.org/1999/xlink">
    <!-- Generator: Sketch 39.1 (31720) - http://www.bohemiancoding.com/sketch -->
    <title>icon-help-demo</title>
    <desc>Created with Sketch.</desc>
    <defs></defs>
    <g id="Page-1" stroke="none" stroke-width="1" fill="none" fill-rule="evenodd">
        <g id="Base-Size---For-Vector-Export" transform="translate(-228.000000, -638.000000)" fill="#FFFFFF">
            <g id="icon-help-demo" transform="translate(228.000000, 638.000000)">
                <path d="M23,8 L23,3.99914214 C23,3.45492426 22.5564136,3 22.009222,3 L17.990778,3 C17.4509752,3 17,3.44733117 17,3.99914214 L17,8 L23,8 Z M17,26 L17,36.0008579 C17,36.5450757 17.4435864,37 17.990778,37 L22.009222,37 C22.5490248,37 23,36.5526688 23,36.0008579 L23,26 L17,26 Z M26,8 L26,3.0065012 C26,1.34230941 24.6581293,0 23.002848,0 L16.997152,0 C15.3416228,0 14,1.34605644 14,3.0065012 L14,8 L6.97652144,8 C6.41938715,8 5.73220063,8.36963805 5.42745221,8.82560968 L0,16.9462891 L5.42745221,25.1644769 C5.7374489,25.6338704 6.42574256,26 6.97652144,26 L14,26 L14,36.9934988 C14,38.6576906 15.3418707,40 16.997152,40 L23.002848,40 C24.6583772,40 26,38.6539436 26,36.9934988 L26,26 L30.0001989,26 C32.2045501,26 34,24.2114745 34,22.0052166 L34,11.9947834 C34,9.79171562 32.2092281,8 30.0001989,8 L26,8 Z M3.89428711,17 L7.89211204,11 L30.0070829,11 C30.5554559,11 31,11.455761 31,12.0024733 L31,21.9975267 C31,22.5511774 30.5590234,23 30.0070829,23 L7.89211204,23 L3.89428711,17 Z"></path>
            </g>
        </g>
    </g>
</svg>