<?xml version="1.0" encoding="UTF-8" standalone="no"?>
<svg width="34px" height="40px" viewBox="0 0 34 40" version="1.1" xmlns="http://www.w3.org/2000/svg" xmlns:xlink="http://www.w3.org/1999/xlink">
    <!-- Generator: Sketch 39.1 (31720) - http://www.bohemiancoding.com/sketch -->
    <title>icon-help-spending</title>
    <desc>Created with Sketch.</desc>
    <defs></defs>
    <g id="Page-1" stroke="none" stroke-width="1" fill="none" fill-rule="evenodd">
        <g id="Base-Size---For-Vector-Export" transform="translate(-628.000000, -638.000000)" fill="#FFFFFF">
            <g id="icon-help-spending" transform="translate(628.000000, 638.000000)">
                <path d="M3.00235843,0 C1.34420165,0 0,1.34230941 0,3.0065012 L0,40 L2.42873733,40 L7.28543778,36.2501743 L12.1142662,40 L17.0003871,36.2501743 L21.8570876,40 L26.7145622,36.2501743 L31.5720369,40 L34,40 L34,3.0065012 C34,1.34605644 32.6566876,0 30.9976416,0 L3.00235843,0 Z M3,3.99914214 C3,3.44733117 3.43981314,3 3.99653482,3 L30.0034652,3 C30.5538362,3 31,3.45492426 31,3.99914214 L31,37 L26.3330854,33.3573641 L21.6661708,37 L17,33.3573641 L12.3330854,37 L7.66617077,33.3573641 L3,37 L3,3.99914214 Z M6,7.5 C6,6.67157288 6.67042869,6 7.49485322,6 L26.5051468,6 C27.3307314,6 28,6.66579723 28,7.5 L28,7.5 C28,8.32842712 27.3295713,9 26.5051468,9 L7.49485322,9 C6.66926859,9 6,8.33420277 6,7.5 L6,7.5 Z M6,16.5 C6,15.6715729 6.67955446,15 7.49554521,15 L16.5044548,15 C17.3304216,15 18,15.6657972 18,16.5 L18,16.5 C18,17.3284271 17.3204455,18 16.5044548,18 L7.49554521,18 C6.6695784,18 6,17.3342028 6,16.5 L6,16.5 Z M22,16.5 C22,15.6715729 22.6650298,15 23.498576,15 L26.501424,15 C27.3290647,15 28,15.6657972 28,16.5 L28,16.5 C28,17.3284271 27.3349702,18 26.501424,18 L23.498576,18 C22.6709353,18 22,17.3342028 22,16.5 L22,16.5 Z M6,22.5 C6,21.6715729 6.67955446,21 7.49554521,21 L16.5044548,21 C17.3304216,21 18,21.6657972 18,22.5 L18,22.5 C18,23.3284271 17.3204455,24 16.5044548,24 L7.49554521,24 C6.6695784,24 6,23.3342028 6,22.5 L6,22.5 Z M22,22.5 C22,21.6715729 22.6650298,21 23.498576,21 L26.501424,21 C27.3290647,21 28,21.6657972 28,22.5 L28,22.5 C28,23.3284271 27.3349702,24 26.501424,24 L23.498576,24 C22.6709353,24 22,23.3342028 22,22.5 L22,22.5 Z M6,28.5 C6,27.6715729 6.67955446,27 7.49554521,27 L16.5044548,27 C17.3304216,27 18,27.6657972 18,28.5 L18,28.5 C18,29.3284271 17.3204455,30 16.5044548,30 L7.49554521,30 C6.6695784,30 6,29.3342028 6,28.5 L6,28.5 Z M22,28.5 C22,27.6715729 22.6650298,27 23.498576,27 L26.501424,27 C27.3290647,27 28,27.6657972 28,28.5 L28,28.5 C28,29.3284271 27.3349702,30 26.501424,30 L23.498576,30 C22.6709353,30 22,29.3342028 22,28.5 L22,28.5 Z"></path>
            </g>
        </g>
    </g>
</svg>