<?xml version="1.0" ?><!DOCTYPE svg  PUBLIC '-//W3C//DTD SVG 1.1//EN'  'http://www.w3.org/Graphics/SVG/1.1/DTD/svg11.dtd'><svg enable-background="new 0 0 91 91" height="91px" id="Layer_1" version="1.1" viewBox="0 0 91 91" width="91px" xml:space="preserve" xmlns="http://www.w3.org/2000/svg" xmlns:xlink="http://www.w3.org/1999/xlink"><g><path d="M45.2,18.577c-15.243,0-27.645,12.404-27.645,27.646c0,15.244,12.401,27.646,27.645,27.646   c15.244,0,27.645-12.402,27.645-27.646C72.845,30.981,60.444,18.577,45.2,18.577z M45.2,70.47   c-13.368,0-24.244-10.875-24.244-24.246c0-13.369,10.876-24.246,24.244-24.246c13.369,0,24.245,10.877,24.245,24.246   C69.445,59.595,58.569,70.47,45.2,70.47z"/><polygon points="46.985,26.272 43.585,26.272 43.585,47.925 54.485,47.925 54.485,44.524 46.985,44.524  "/><rect height="4.424" width="3.4" x="43.585" y="61.72"/><rect height="3.4" width="4.36" x="25.229" y="44.524"/><rect height="3.4" width="4.36" x="60.813" y="44.524"/><rect height="3.402" transform="matrix(0.7378 0.6751 -0.6751 0.7378 31.4782 -12.701)" width="4.36" x="29.907" y="32.465"/><rect height="3.401" transform="matrix(-0.738 -0.6748 0.6748 -0.738 62.1598 140.4834)" width="4.356" x="56.174" y="56.474"/><rect height="4.361" transform="matrix(-0.7377 -0.6751 0.6751 -0.7377 17.6811 125.4726)" width="3.399" x="31.514" y="57.121"/><rect height="4.36" transform="matrix(0.7377 0.6751 -0.6751 0.7377 37.3121 -29.9663)" width="3.399" x="55.523" y="30.858"/></g></svg>