<?xml version="1.0" encoding="UTF-8" standalone="no"?>
<svg width="30px" height="30px" viewBox="0 0 30 30" version="1.1" xmlns="http://www.w3.org/2000/svg" xmlns:xlink="http://www.w3.org/1999/xlink">
    <!-- Generator: Sketch 39.1 (31720) - http://www.bohemiancoding.com/sketch -->
    <title>icon-opt-out</title>
    <desc>Created with Sketch.</desc>
    <defs></defs>
    <g id="You-&gt;-Account-&gt;-Projections" stroke="none" stroke-width="1" fill="none" fill-rule="evenodd">
        <g id="05---You---08---Projections-Settings-02" transform="translate(-1611.000000, -81.000000)" fill="#FFFFFF">
            <g id="Settings" transform="translate(1611.000000, 74.000000)">
                <path d="M15,35.7988 C11.715,35.7988 8.7006,34.6492 6.3312,32.7334 L25.7346,13.3294 C27.6504,15.6988 28.8,18.7138 28.8,21.9988 C28.8,29.6206 22.6212,35.7988 15,35.7988 M1.2,21.9988 C1.2,14.377 7.3782,8.1988 15,8.1988 C18.897,8.1988 22.4142,9.8164 24.9234,12.4138 L5.4144,31.9222 C2.8176,29.4124 1.2,25.8958 1.2,21.9988 M15,7 C6.7152,7 0,13.7146 0,21.9988 C0,30.2842 6.7152,36.9988 15,36.9988 C23.2842,36.9988 30,30.2842 30,21.9988 C30,13.7146 23.2842,7 15,7" id="icon-opt-out"></path>
            </g>
        </g>
    </g>
</svg>