<?xml version="1.0" encoding="UTF-8" standalone="no"?>
<svg width="46px" height="46px" viewBox="0 0 46 46" version="1.1" xmlns="http://www.w3.org/2000/svg" xmlns:xlink="http://www.w3.org/1999/xlink">
    <!-- Generator: Sketch 39.1 (31720) - http://www.bohemiancoding.com/sketch -->
    <title>icon-settings</title>
    <desc>Created with Sketch.</desc>
    <defs></defs>
    <g id="You-&gt;-Account-&gt;-Projections" stroke="none" stroke-width="1" fill="none" fill-rule="evenodd">
        <g id="05---You---01---Projections" transform="translate(-1957.000000, -85.000000)" fill="#FFFFFF">
            <g id="icon-settings" transform="translate(1957.000000, 85.000000)">
                <path d="M46,22.997125 C46,19.978375 43.662625,17.53175 40.70425,17.296 C40.390875,16.309875 40.00275,15.36975 39.53125,14.464125 C41.42875,12.204375 41.3885,8.863625 39.261,6.736125 C37.13925,4.6115 33.7985,4.568375 31.53875,6.465875 C30.63025,5.99725 29.68725,5.609125 28.704,5.292875 C28.4625,2.3345 26.021625,6.79847888e-14 23,6.79847888e-14 C19.98125,6.79847888e-14 17.534625,2.3345 17.296,5.292875 C16.309875,5.609125 15.366875,5.99725 14.46125,6.465875 C12.2015,4.568375 8.86075,4.608625 6.736125,6.736125 C4.6115,8.863625 4.568375,12.2015 6.465875,14.46125 C5.99725,15.36975 5.612,16.309875 5.292875,17.296 C2.3345,17.53175 0,19.978375 0,22.997125 C0,26.01875 2.3345,28.4625 5.292875,28.701125 C5.612,29.68725 5.99725,30.63025 6.46875,31.535875 C4.568375,33.79275 4.6115,37.1335 6.736125,39.261 C8.863625,41.385625 12.2015,41.42875 14.46125,39.53125 C15.366875,39.999875 16.309875,40.388 17.296,40.70425 C17.53175,43.6655 19.98125,46 23,46 C26.021625,46 28.46825,43.662625 28.704,40.70425 C29.68725,40.388 30.63025,39.999875 31.53875,39.53125 C33.795625,41.42875 37.136375,41.3885 39.261,39.261 C41.3885,37.136375 41.42875,33.795625 39.53125,31.535875 C40.00275,30.63025 40.390875,29.684375 40.70425,28.701125 C43.6655,28.4625 46,26.01875 46,22.997125 L46,22.997125 Z M38.548,25.875 C38.136875,28.097375 37.234125,30.138625 35.997875,31.92975 L37.228375,33.163125 C38.3525,34.28725 38.3525,36.10425 37.228375,37.228375 C36.10425,38.3525 34.28725,38.3525 33.163125,37.228375 L31.921125,35.986375 C30.13,37.216875 28.091625,38.113875 25.875,38.51925 L25.875,40.247125 C25.875,41.837 24.589875,43.125 23,43.125 C21.410125,43.125 20.125,41.837 20.125,40.247125 L20.125,38.51925 C17.9055,38.111 15.867125,37.216875 14.076,35.986375 L12.836875,37.228375 C11.71275,38.3525 9.892875,38.3525 8.771625,37.228375 C7.6475,36.10425 7.6475,34.28725 8.771625,33.163125 L10.005,31.92975 C8.765875,30.138625 7.866,28.097375 7.454875,25.875 L5.75,25.875 C4.163,25.875 2.875,24.587 2.875,22.997125 C2.875,21.410125 4.163,20.125 5.75,20.125 L7.452,20.125 C7.863125,17.89975 8.765875,15.8585 10.002125,14.067375 L8.76875,12.834 C7.644625,11.709875 7.644625,9.892875 8.76875,8.76875 C9.89,7.644625 11.709875,7.644625 12.834,8.76875 L14.076,10.007875 C15.867125,8.78025 17.9055,7.88325 20.125,7.477875 L20.125,5.75 C20.125,4.160125 21.413,2.875 23,2.875 C24.587,2.875 25.875,4.160125 25.875,5.75 L25.875,7.477875 C28.0945,7.886125 30.132875,8.783125 31.924,10.01075 L33.166,8.76875 C34.290125,7.644625 36.107125,7.644625 37.23125,8.76875 C38.355375,9.892875 38.355375,11.709875 37.23125,12.834 L36.00075,14.067375 C37.237,15.8585 38.13975,17.89975 38.550875,20.125 L40.25,20.125 C41.839875,20.125 43.125,21.410125 43.125,22.997125 C43.125,24.587 41.839875,25.875 40.25,25.875 L38.548,25.875 L38.548,25.875 Z M23,14.375 C18.236125,14.375 14.375,18.236125 14.375,22.997125 C14.375,27.761 18.236125,31.625 23,31.625 C27.761,31.625 31.625,27.761 31.625,22.997125 C31.625,18.236125 27.761,14.375 23,14.375 L23,14.375 Z M23,28.747125 C19.826,28.747125 17.25,26.174 17.25,22.997125 C17.25,19.823125 19.826,17.25 23,17.25 C26.174,17.25 28.75,19.826 28.75,22.997125 C28.75,26.176875 26.174,28.747125 23,28.747125 L23,28.747125 Z" id="Shape"></path>
            </g>
        </g>
    </g>
</svg>