<?xml version="1.0" encoding="UTF-8" standalone="no"?>
<svg width="38px" height="38px" viewBox="0 0 38 38" version="1.1" xmlns="http://www.w3.org/2000/svg" xmlns:xlink="http://www.w3.org/1999/xlink">
    <!-- Generator: Sketch 39.1 (31720) - http://www.bohemiancoding.com/sketch -->
    <title>icon-help-talk</title>
    <desc>Created with Sketch.</desc>
    <defs></defs>
    <g id="Page-1" stroke="none" stroke-width="1" fill="none" fill-rule="evenodd">
        <g id="Base-Size---For-Vector-Export" transform="translate(-1226.000000, -503.000000)" fill="#FFFFFF">
            <g id="icon-help-talk" transform="translate(1226.000000, 503.000000)">
                <path d="M30.1057974,0.00150485525 C24.4975348,0.18006045 18.0421599,4.49044661 11.2716891,11.2411459 C4.49767823,17.9999043 0.179506468,24.4376802 3.70874085e-07,30.0502612 C-0.000742818874,31.6021062 1.11550174,33.1132489 3.01689763,34.8862913 C4.04013819,35.8404581 5.34086682,36.8701211 5.79339573,37.1729517 C7.68619716,38.4972561 10.1654982,38.1931685 11.3319173,36.5327972 C11.7899388,35.8843989 15.6930938,30.0174759 16.1059221,29.3445239 C16.4433237,28.7912203 16.606417,28.1507795 16.606417,27.4725055 C16.606417,26.6854181 16.385279,25.8621785 15.9773221,25.0872814 C15.7237209,24.6062106 15.059648,23.4332894 14.2011282,21.9340843 L12.9320117,22.6571868 L14.1276394,23.4956955 C14.9479351,22.3319232 16.3690587,20.6674307 18.5465922,18.496929 C20.7089965,16.3389406 22.3887157,14.91311 23.5584898,14.0930671 L22.7180927,12.9002906 L21.9938004,14.1665724 C23.4392207,14.9891688 24.6700772,15.6813087 25.1521683,15.9339352 C26.6376819,16.7160093 28.2435914,16.8117266 29.4554607,16.0420805 C30.1925427,15.5780759 36.0334503,11.6863194 36.5886792,11.2853593 C37.5074721,10.6252279 38,9.51148759 38,8.31806519 C38,7.42188207 37.7219252,6.52153607 37.1918667,5.7598788 C37.041788,5.54958381 36.8255422,5.25825407 36.5283669,4.87820311 C36.0389953,4.25235647 35.5153154,3.62697385 34.9741545,3.03892628 C34.3893028,2.40340244 33.8164342,1.84720676 33.259976,1.39027185 C32.1547171,0.48268986 31.1434664,-0.0316396396 30.1056462,0.0015096765 L30.1057974,0.00150485525 Z M30.1992027,2.91578622 C30.2264305,2.91491653 30.3433795,2.94766485 30.5263164,3.04070791 C30.7743655,3.16686748 31.0716073,3.36997278 31.4021312,3.64138205 C31.8418953,4.00249384 32.3210119,4.46766605 32.82073,5.01068023 C33.3040079,5.53582978 33.7789537,6.10301369 34.2234305,6.67144532 C34.3801715,6.87189803 34.5219024,7.05824376 34.6461242,7.22559746 C34.7207299,7.3261074 34.7727542,7.39772291 34.8008972,7.43720648 C34.9781873,7.69215214 35.0768659,8.01165229 35.0768659,8.31806519 C35.0768659,8.62865242 34.9799592,8.84778503 34.8773486,8.92150896 C34.3748842,9.2843598 28.583725,13.1429693 27.8904269,13.579424 C27.6683189,13.720469 27.1517551,13.6896801 26.5141209,13.353988 C26.0744524,13.1235889 24.8441131,12.4317398 23.442385,11.6340088 L22.6366548,11.1754634 L21.8776956,11.7075141 C20.5648235,12.6278726 18.7569885,14.1624543 16.4797452,16.4350475 C14.187483,18.7199071 12.6573725,20.5120508 11.736384,21.8186781 L11.2024354,22.5762033 L11.6628953,23.3802894 C12.4950433,24.8334422 13.1603656,26.0085702 13.3897032,26.4436135 C13.5856683,26.8158416 13.683283,27.1792356 13.683283,27.4725055 C13.683283,27.6386578 13.6535542,27.755398 13.6105218,27.8259679 C13.2351347,28.437877 9.3661759,34.2533989 8.94019413,34.856448 C8.73921933,35.1425226 8.09443249,35.221606 7.44680208,34.7686189 C7.09920955,34.535638 5.92148534,33.6033459 5.01313569,32.7563142 C3.72072268,31.5511454 2.92239124,30.4703852 2.92239124,30.0967473 C3.06945658,25.521734 7.07009569,19.5573538 13.3385877,13.3029759 C19.6031213,7.05673652 25.5847177,3.06270198 30.1990515,2.91579104 L30.1992027,2.91578622 Z"></path>
            </g>
        </g>
    </g>
</svg>