<?xml version="1.0" encoding="UTF-8" standalone="no"?>
<svg width="40px" height="38px" viewBox="0 0 40 38" version="1.1" xmlns="http://www.w3.org/2000/svg" xmlns:xlink="http://www.w3.org/1999/xlink">
    <!-- Generator: Sketch 39.1 (31720) - http://www.bohemiancoding.com/sketch -->
    <title>icon-joint-account</title>
    <desc>Created with Sketch.</desc>
    <defs></defs>
    <g id="Page-1" stroke="none" stroke-width="1" fill="none" fill-rule="evenodd">
        <g id="Base-Size---For-Vector-Export" transform="translate(-1025.000000, -503.000000)" fill="#FFFFFF">
            <g id="icon-joint-account" transform="translate(1025.000000, 503.000000)">
                <path d="M31.7073979,22.2123869 C36.5944978,24.3969239 40,29.3007631 40,35 L37,35 C37,28.9248678 32.0751322,24 26,24 C19.9248678,24 15,28.9248678 15,35 L15,35 L12,35 C12,29.3007631 15.4055022,24.3969239 20.2926021,22.2123869 C17.6980275,20.4058404 16,17.401218 16,14 C16,8.4771525 20.4771525,4 26,4 C31.5228475,4 36,8.4771525 36,14 C36,17.401218 34.3019725,20.4058404 31.7073979,22.2123869 Z M8.29260211,18.2123869 C5.69802748,16.4058404 4,13.401218 4,10 C4,4.4771525 8.4771525,0 14,0 C16.4162064,0 18.6322668,0.856927061 20.3608442,2.28344416 L20.3608442,2.28344416 C19.3856565,2.75365903 18.4781529,3.34203648 17.656911,4.02999873 C16.592654,3.37669828 15.3403183,3 14,3 C10.1340068,3 7,6.13400675 7,10 C7,13.643641 9.78386967,16.6370743 13.3406643,16.9693554 C13.5889908,18.032193 13.9677096,19.0448874 14.4590336,19.9896515 C14.4376096,19.9906195 14.416168,19.99152 14.394709,19.992353 C14.3977976,19.9973311 14.4008895,20.002307 14.4039847,20.0072807 L14.4039847,20.0072807 C14.269921,20.0024408 14.1352455,20 14,20 C7.92486775,20 3,24.9248678 3,31 L0,31 C0,25.3007631 3.40550223,20.3969239 8.29260211,18.2123869 Z M0,31 L3,31 L3,32.5 C3,33.3284271 2.33420277,34 1.5,34 C0.671572875,34 0,33.3342028 0,32.5 L0,31 Z M12,35 L15,35 L15,36.5 C15,37.3284271 14.3342028,38 13.5,38 C12.6715729,38 12,37.3342028 12,36.5 L12,35 Z M37,35 L40,35 L40,36.5 C40,37.3284271 39.3342028,38 38.5,38 C37.6715729,38 37,37.3342028 37,36.5 L37,35 Z M26,21 C29.8659932,21 33,17.8659932 33,14 C33,10.1340068 29.8659932,7 26,7 C22.1340068,7 19,10.1340068 19,14 C19,17.8659932 22.1340068,21 26,21 Z" id="icon-user"></path>
            </g>
        </g>
    </g>
</svg>