<?xml version="1.0" encoding="UTF-8" standalone="no"?>
<svg width="37px" height="40px" viewBox="0 0 37 40" version="1.1" xmlns="http://www.w3.org/2000/svg" xmlns:xlink="http://www.w3.org/1999/xlink">
    <!-- Generator: Sketch 39.1 (31720) - http://www.bohemiancoding.com/sketch -->
    <title>icon-goals</title>
    <desc>Created with Sketch.</desc>
    <defs></defs>
    <g id="Page-1" stroke="none" stroke-width="1" fill="none" fill-rule="evenodd">
        <g id="Base-Size---For-Vector-Export" transform="translate(-427.000000, -220.000000)" fill="#FFFFFF">
            <g id="icon-goals" transform="translate(427.000000, 220.000000)">
                <path d="M7,0 L30,0 L30,16.0034985 C30,21.5244138 25.52444,26 19.9954924,26 L17.0045076,26 C11.4791706,26 7,21.5304407 7,16.0034985 L7,0 Z M10,3 L27,3 L27,16.0049706 C27,19.8682186 23.8621266,23 19.9995797,23 L17.0004203,23 C13.1341949,23 10,19.875 10,16.0049706 L10,3 Z" id="Cup"></path>
                <path d="M17,25 L20,25 L20,37 L17,37 L17,25 Z M12,38.5 C12,37.6715729 12.6625444,37 13.4912653,37 L23.5087347,37 C24.3323378,37 25,37.6657972 25,38.5 C25,39.3284271 24.3374556,40 23.5087347,40 L13.4912653,40 C12.6676622,40 12,39.3342028 12,38.5 Z" id="Stem"></path>
                <path d="M0.00569367189,4 L5.48285661,4 C7.14027529,4 8.24427644,5.33114994 7.9536777,6.94561996 L6.31413398,16.05438 C6.02131211,17.681201 4.44376525,19 2.79326136,19 L0.00569367189,19 L0.00569367189,4 Z M0.00578556222,7 L4.13476136,7 C4.68779677,7 5.07281755,7.43408871 4.99064897,7.99754465 L3.96912538,15.0024554 C3.88878365,15.553384 3.38569578,16 2.82055387,16 L0.00578556222,16 L0.00578556222,7 Z" id="handle" transform="translate(4.002893, 11.500000) scale(-1, 1) translate(-4.002893, -11.500000) "></path>
                <path d="M29.0056937,4 L34.4828566,4 C36.1402753,4 37.2442764,5.33114994 36.9536777,6.94561996 L35.314134,16.05438 C35.0213121,17.681201 33.4437653,19 31.7932614,19 L29.0056937,19 L29.0056937,4 Z M29.0057856,7 L33.1347614,7 C33.6877968,7 34.0728175,7.43408871 33.990649,7.99754465 L32.9691254,15.0024554 C32.8887837,15.553384 32.3856958,16 31.8205539,16 L29.0057856,16 L29.0057856,7 Z" id="handle"></path>
            </g>
        </g>
    </g>
</svg>