<?xml version="1.0" encoding="UTF-8" standalone="no"?>
<svg width="38px" height="38px" viewBox="0 0 38 38" version="1.1" xmlns="http://www.w3.org/2000/svg" xmlns:xlink="http://www.w3.org/1999/xlink">
    <!-- Generator: Sketch 39.1 (31720) - http://www.bohemiancoding.com/sketch -->
    <title>icon-help</title>
    <desc>Created with Sketch.</desc>
    <defs></defs>
    <g id="Page-1" stroke="none" stroke-width="1" fill="none" fill-rule="evenodd">
        <g id="Base-Size---For-Vector-Export" transform="translate(-628.000000, -221.000000)" fill="#FFFFFF">
            <g id="icon-help" transform="translate(628.000000, 221.000000)">
                <path d="M19,38 C29.4934102,38 38,29.4934102 38,19 C38,8.50658975 29.4934102,0 19,0 C8.50658975,0 0,8.50658975 0,19 C0,29.4934102 8.50658975,38 19,38 Z M19,35 C27.836556,35 35,27.836556 35,19 C35,10.163444 27.836556,3 19,3 C10.163444,3 3,10.163444 3,19 C3,27.836556 10.163444,35 19,35 Z" id="Circle1"></path>
                <path d="M19,27 C23.418278,27 27,23.418278 27,19 C27,14.581722 23.418278,11 19,11 C14.581722,11 11,14.581722 11,19 C11,23.418278 14.581722,27 19,27 Z M19,24 C21.7614237,24 24,21.7614237 24,19 C24,16.2385763 21.7614237,14 19,14 C16.2385763,14 14,16.2385763 14,19 C14,21.7614237 16.2385763,24 19,24 Z" id="Circle2"></path>
                <path d="M18.4350288,0.435028843 L20.4350288,0.435028843 L20.4350288,12.4350288 L18.4350288,12.4350288 L18.4350288,0.435028843 Z M18.4350288,24.4350288 L20.4350288,24.4350288 L20.4350288,36.4350288 L18.4350288,36.4350288 L18.4350288,24.4350288 Z" id="Line1" transform="translate(19.435029, 18.435029) rotate(-315.000000) translate(-19.435029, -18.435029) "></path>
                <path d="M18.4350288,0.435028843 L20.4350288,0.435028843 L20.4350288,12.4350288 L18.4350288,12.4350288 L18.4350288,0.435028843 Z M18.4350288,24.4350288 L20.4350288,24.4350288 L20.4350288,36.4350288 L18.4350288,36.4350288 L18.4350288,24.4350288 Z" id="Line2" transform="translate(19.435029, 18.435029) rotate(-225.000000) translate(-19.435029, -18.435029) "></path>
            </g>
        </g>
    </g>
</svg>