<svg xmlns="http://www.w3.org/2000/svg" width="52" height="52" viewBox="0 0 26 26" style="fill: rgb(255, 255, 255);">
    <path d="M 10 0 L 0 2 L 3.03125 5.03125 C 1.2740709 7.2221946 0.1875 9.9723249 0.1875 13 C 0.1875 20.076 5.923 25.8125 13 25.8125 C 20.077 25.8125 25.8125 20.076 25.8125 13 C 25.8125 7.697 22.592 3.1345 18 1.1875 L 18 4.28125 C 21.026 6.01825 23.0625 9.26 23.0625 13 C 23.0625 18.562 18.561 23.0625 13 23.0625 C 7.439 23.0625 2.9375 18.562 2.9375 13 C 2.9375 10.725264 3.6959617 8.6532475 4.96875 6.96875 L 8 10 L 10 0 z"/>
</svg>