<?xml version="1.0" encoding="UTF-8" standalone="no"?>
<svg width="38px" height="38px" viewBox="0 0 38 38" version="1.1" xmlns="http://www.w3.org/2000/svg" xmlns:xlink="http://www.w3.org/1999/xlink">
    <!-- Generator: Sketch 39.1 (31720) - http://www.bohemiancoding.com/sketch -->
    <title>icon-add-someone-new</title>
    <desc>Created with Sketch.</desc>
    <defs></defs>
    <g id="Page-1" stroke="none" stroke-width="1" fill="none" fill-rule="evenodd">
        <g id="Base-Size---For-Vector-Export" transform="translate(-626.000000, -503.000000)" fill="#FFFFFF">
            <g id="icon-add-someone-new" transform="translate(626.000000, 503.000000)">
                <path d="M20,18 L20,9.99180311 C20,9.45530558 19.5522847,9 19,9 C18.4438648,9 18,9.44404538 18,9.99180311 L18,18 L9.99180311,18 C9.45530558,18 9,18.4477153 9,19 C9,19.5561352 9.44404538,20 9.99180311,20 L18,20 L18,28.0081969 C18,28.5446944 18.4477153,29 19,29 C19.5561352,29 20,28.5559546 20,28.0081969 L20,20 L28.0081969,20 C28.5446944,20 29,19.5522847 29,19 C29,18.4438648 28.5559546,18 28.0081969,18 L20,18 Z M19,38 C29.4934102,38 38,29.4934102 38,19 C38,8.50658975 29.4934102,0 19,0 C8.50658975,0 0,8.50658975 0,19 C0,29.4934102 8.50658975,38 19,38 Z M19,35 C27.836556,35 35,27.836556 35,19 C35,10.163444 27.836556,3 19,3 C10.163444,3 3,10.163444 3,19 C3,27.836556 10.163444,35 19,35 Z"></path>
            </g>
        </g>
    </g>
</svg>