<svg width="54.49999999999999" height="55.00000000000001" xmlns="http://www.w3.org/2000/svg">

 <g>
  <title>background</title>
  <rect fill="none" id="canvas_background" height="402" width="582" y="-1" x="-1"/>
 </g>
 <g>
  <title>Layer 1</title>
  <g id="svg_1">
   <path fill="#00d96c" id="svg_2" d="m48,0l-41.5,0c-3.58398,0 -6.5,2.91602 -6.5,6.5l0,42c0,3.58398 2.91602,6.5 6.5,6.5l41.5,0c3.58398,0 6.5,-2.91602 6.5,-6.5l0,-42c0,-3.58398 -2.91602,-6.5 -6.5,-6.5zm-41.5,3l41.5,0c1.92969,0 3.5,1.57031 3.5,3.5l0,4.66602l-48.5,0l0,-4.66602c0,-1.92969 1.57031,-3.5 3.5,-3.5zm-3.5,45.5l0,-34.33398l11.3335,0l0,37.83398l-7.8335,0c-1.92969,0 -3.5,-1.57031 -3.5,-3.5zm45,3.5l-30.6665,0l0,-37.83398l34.1665,0l0,34.33398c0,1.92969 -1.57031,3.5 -3.5,3.5z"/>
   <path fill="#00d96c" id="svg_3" d="m42.50018,20.83301l-17.16668,0c-1.00837,0 -1.83332,0.82501 -1.83332,1.83331c0,1.00836 0.82495,1.83337 1.83332,1.83337l17.16668,0c1.0083,0 1.83332,-0.82501 1.83332,-1.83337c0,-1.0083 -0.82502,-1.83331 -1.83332,-1.83331z"/>
   <path fill="#00d96c" id="svg_4" d="m42.50018,30.83301l-17.16668,0c-1.00837,0 -1.83332,0.82501 -1.83332,1.83331c0,1.00836 0.82495,1.83337 1.83332,1.83337l17.16668,0c1.0083,0 1.83332,-0.82501 1.83332,-1.83337c0,-1.0083 -0.82502,-1.83331 -1.83332,-1.83331z"/>
   <path fill="#00d96c" id="svg_5" d="m42.50018,40.83301l-17.16668,0c-1.00837,0 -1.83332,0.82501 -1.83332,1.83331c0,1.00836 0.82495,1.83337 1.83332,1.83337l17.16668,0c1.0083,0 1.83332,-0.82501 1.83332,-1.83337c0,-1.0083 -0.82502,-1.83331 -1.83332,-1.83331z"/>
  </g>
 </g>
</svg>