<?xml version="1.0" encoding="UTF-8" standalone="no"?>
<svg width="40px" height="32px" viewBox="0 0 40 32" version="1.1" xmlns="http://www.w3.org/2000/svg" xmlns:xlink="http://www.w3.org/1999/xlink">
    <!-- Generator: Sketch 39.1 (31720) - http://www.bohemiancoding.com/sketch -->
    <title>icon-help-email</title>
    <desc>Created with Sketch.</desc>
    <defs></defs>
    <g id="Page-1" stroke="none" stroke-width="1" fill="none" fill-rule="evenodd">
        <g id="Base-Size---For-Vector-Export" transform="translate(-1325.000000, -506.000000)" fill="#FFFFFF">
            <g id="icon-help-email" transform="translate(1325.000000, 506.000000)">
                <path d="M0,2.99610022 C0,1.34139976 1.34230941,0 3.0065012,0 L36.9934988,0 C38.6539436,0 40,1.33425951 40,2.99610022 L40,29.0038998 C40,30.6586002 38.6576906,32 36.9934988,32 L3.0065012,32 C1.34605644,32 0,30.6657405 0,29.0038998 L0,2.99610022 Z M3,4.00329963 C3,3.44919255 3.45492426,3 3.99914214,3 L36.0008579,3 C36.5526688,3 37,3.45127869 37,4.00329963 L37,27.9967004 C37,28.5508075 36.5450757,29 36.0008579,29 L3.99914214,29 C3.44733117,29 3,28.5487213 3,27.9967004 L3,4.00329963 Z M24,6.99539757 C24,6.44565467 24.4556644,6 24.9953976,6 L33.0046024,6 C33.5543453,6 34,6.4556644 34,6.99539757 L34,15.0046024 C34,15.5543453 33.5443356,16 33.0046024,16 L24.9953976,16 C24.4456547,16 24,15.5443356 24,15.0046024 L24,6.99539757 Z M26,8 L32,8 L32,14 L26,14 L26,8 Z M6,19.5 C6,18.6715729 6.66388585,18 7.49309635,18 L19.5069036,18 C20.331518,18 21,18.6657972 21,19.5 C21,20.3284271 20.3361142,21 19.5069036,21 L7.49309635,21 C6.66848201,21 6,20.3342028 6,19.5 Z M6,24.5 C6,23.6715729 6.66388585,23 7.49309635,23 L19.5069036,23 C20.331518,23 21,23.6657972 21,24.5 C21,25.3284271 20.3361142,26 19.5069036,26 L7.49309635,26 C6.66848201,26 6,25.3342028 6,24.5 Z"></path>
            </g>
        </g>
    </g>
</svg>