<?xml version="1.0" encoding="UTF-8" standalone="no"?>
<svg width="48px" height="48px" viewBox="0 0 48 48" version="1.1" xmlns="http://www.w3.org/2000/svg" xmlns:xlink="http://www.w3.org/1999/xlink">
    <!-- Generator: Sketch 39.1 (31720) - http://www.bohemiancoding.com/sketch -->
    <title>icon-add</title>
    <desc>Created with Sketch.</desc>
    <defs></defs>
    <g id="Alerts-&amp;-Sweeps-(June)" stroke="none" stroke-width="1" fill="none" fill-rule="evenodd">
        <g id="Alerts-&amp;-Sweeps---05---Updated-List" transform="translate(-1652.000000, -210.000000)" fill="#2BE66D">
            <g id="Subnav" transform="translate(167.000000, 200.000000)">
                <path d="M1508.99962,55.0007031 C1497.40144,55.0007031 1488.00005,45.5993062 1488.00005,34.000375 C1488.00005,22.4014438 1497.40144,13.0000469 1508.99962,13.0000469 C1520.59781,13.0000469 1529.99995,22.4014438 1529.99995,34.000375 C1529.99995,45.5993062 1520.59781,55.0007031 1508.99962,55.0007031 M1508.99962,10 C1495.74467,10 1485,20.7446679 1485,34.000375 C1485,47.2560821 1495.74467,58.00075 1508.99962,58.00075 C1522.25458,58.00075 1533,47.2560821 1533,34.000375 C1533,20.7446679 1522.25458,10 1508.99962,10 M1510.4644,32.5356021 L1510.4644,24.2209722 C1510.46515,23.4124596 1509.80889,22.7561993 1508.99962,22.7561993 C1508.19111,22.7561993 1507.53485,23.4124596 1507.53485,24.2209722 L1507.53485,32.5356021 L1499.22022,32.5356021 C1498.41171,32.5356021 1497.75545,33.1903623 1497.75545,34.000375 C1497.75545,34.8088876 1498.41171,35.4651479 1499.22022,35.4651479 L1507.53485,35.4651479 L1507.53485,43.7797778 C1507.53485,44.5882904 1508.19111,45.2445507 1508.99962,45.2445507 C1509.80889,45.2445507 1510.4644,44.5882904 1510.4644,43.7797778 L1510.4644,35.4651479 L1518.77903,35.4651479 C1519.58829,35.4651479 1520.2438,34.8088876 1520.2438,34.000375 C1520.2438,33.1903623 1519.58829,32.5356021 1518.77903,32.5356021 L1510.4644,32.5356021 Z" id="icon-add"></path>
            </g>
        </g>
    </g>
</svg>