<?xml version="1.0" encoding="UTF-8" standalone="no"?>
<svg width="40px" height="38px" viewBox="0 0 40 38" version="1.1" xmlns="http://www.w3.org/2000/svg" xmlns:xlink="http://www.w3.org/1999/xlink">
    <!-- Generator: Sketch 39.1 (31720) - http://www.bohemiancoding.com/sketch -->
    <title>icon-help-questions</title>
    <desc>Created with Sketch.</desc>
    <defs></defs>
    <g id="Page-1" stroke="none" stroke-width="1" fill="none" fill-rule="evenodd">
        <g id="Base-Size---For-Vector-Export" transform="translate(-1125.000000, -503.000000)" fill="#FFFFFF">
            <g id="icon-help-questions" transform="translate(1125.000000, 503.000000)">
                <path d="M11.1069336,28.2466647 C6.24317124,25.841837 3,21.5235142 3,16.5961991 C3,9.04787044 10.6111593,2.92874102 20,2.92874102 C29.3888407,2.92874102 37,9.04787044 37,16.5961991 C37,24.1445278 29.3888407,30.2636572 20,30.2636572 C18.9699383,30.2636572 17.9612737,30.1900039 16.9817097,30.0488906 L11.1069336,33.118765 L11.1069336,28.2466647 Z M8.10693359,29.9405649 L8.10693359,38 L17.5442158,33.0685319 C18.3490101,33.1502999 19.1685805,33.1923982 20,33.1923982 C31.045695,33.1923982 40,25.7620268 40,16.5961991 C40,7.43037144 31.045695,0 20,0 C8.954305,0 0,7.43037144 0,16.5961991 C0,22.0656091 3.18837551,26.917072 8.10693359,29.9405649 Z M19.7375,24.5870769 C20.4275,24.5870769 21.0025,24.0203077 21.0025,23.3390769 C21.0025,22.6596923 20.4275,22.0910769 19.7375,22.0910769 C19.0475,22.0910769 18.4725,22.6596923 18.4725,23.3390769 C18.4725,24.0203077 19.0475,24.5870769 19.7375,24.5870769 Z M19.255,20.1624615 L20.6575,19.5501538 C20.266875,19.2781538 20.06,18.8233846 20.06,18.4615385 C20.06,16.2369231 24.498125,15.9427692 24.498125,12.5150769 C24.498125,10.5636923 22.79625,9 19.990625,9 C17.805625,9 16.104375,9.88430769 15,11.3132308 L16.15,12.5384615 C17.000625,11.4043077 18.081875,10.6775385 19.83,10.6775385 C21.623125,10.6775385 22.52,11.6541538 22.52,12.7883077 C22.52,15.1938462 18.380625,15.4196923 18.380625,18.3015385 C18.380625,19.0049231 18.63375,19.6406154 19.255,20.1624615" id="Bubble"></path>
            </g>
        </g>
    </g>
</svg>