<?xml version="1.0" encoding="UTF-8" standalone="no"?>
<svg width="80px" height="64px" viewBox="0 0 80 64" version="1.1" xmlns="http://www.w3.org/2000/svg" xmlns:xlink="http://www.w3.org/1999/xlink">
    <!-- Generator: Sketch 39.1 (31720) - http://www.bohemiancoding.com/sketch -->
    <title>icon</title>
    <desc>Created with Sketch.</desc>
    <defs>
        <ellipse id="path-1" cx="31.9949778" cy="30.8750168" rx="29.3287296" ry="30.8750168"></ellipse>
        <mask id="mask-2" maskContentUnits="userSpaceOnUse" maskUnits="objectBoundingBox" x="0" y="0" width="58.6574593" height="61.7500337" fill="white">
            <use xlink:href="#path-1"></use>
        </mask>
    </defs>
    <g id="Alerts-&amp;-Sweeps-(June)" stroke="none" stroke-width="1" fill="none" fill-rule="evenodd">
        <g id="Alerts-&amp;-Sweeps---05---Updated-List" transform="translate(-53.000000, -348.000000)">
            <g id="Sweeps" transform="translate(41.000000, 337.000000)">
                <g id="Sweep1">
                    <g id="icon" transform="translate(21.000000, 11.000000)">
                        <use id="Oval-1" stroke="#39AEFF" mask="url(#mask-2)" stroke-width="10" xlink:href="#path-1"></use>
                        <path d="M0.190446296,54.7329844 L61.5274759,12.3914251" id="Line" stroke="#FFFFFF" stroke-width="13" stroke-linecap="square"></path>
                        <polygon id="Triangle-1" fill="#39AEFF" points="46.0880037 14.1673591 56.2681004 6.41558792 56.2681001 17.1211958"></polygon>
                        <polygon id="Triangle-1-Copy" fill="#39AEFF" points="20.504463 49.0339196 11.1584241 57.4774732 10.1187571 46.9081519"></polygon>
                        <path d="M40.7676326,41.1036629 L23.706984,41.1036629 L23.706984,39.0563851 L26.3436297,38.4049785 L26.3436297,33.1937259 L23.706984,33.1937259 L23.706984,30.1848479 L26.3436297,30.1848479 L26.3436297,27.0208731 C26.3436297,25.614655 26.6434805,24.373893 27.2431912,23.2985498 C27.8429018,22.2232065 28.685586,21.3856922 29.7712691,20.7859815 C30.8569522,20.1862709 32.1132237,19.8864201 33.5401215,19.8864201 C35.6701282,19.8864201 37.3710062,20.5326503 38.6428063,21.8251301 C39.9146065,23.11761 40.6125351,24.8391673 40.7366132,26.9898537 L37.6036577,27.6102409 C37.5002594,26.1419838 37.0918418,25.0201282 36.378393,24.2446403 C35.6649441,23.4691524 34.7188631,23.0814142 33.5401215,23.0814142 C32.3820595,23.0814142 31.4463182,23.4433032 30.7328693,24.1670919 C30.0194204,24.8908806 29.6627013,25.8421315 29.6627013,27.0208731 L29.6627013,30.1848479 L35.9286122,30.1848479 L35.9286122,33.1937259 L29.6627013,33.1937259 L29.6627013,38.0947849 L40.7676326,38.0947849 L40.7676326,41.1036629 Z" id="£" fill="#39AEFF"></path>
                    </g>
                </g>
            </g>
        </g>
    </g>
</svg>