<?xml version="1.0" encoding="UTF-8"?>
<svg width="32px" height="32px" viewBox="0 0 32 32" version="1.1" xmlns="http://www.w3.org/2000/svg" xmlns:xlink="http://www.w3.org/1999/xlink">
    <!-- Generator: Sketch 44.1 (41455) - http://www.bohemiancoding.com/sketch -->
    <title>Untitled</title>
    <desc>Created with Sketch.</desc>
    <defs></defs>
    <g id="Page-1" stroke="none" stroke-width="1" fill="none" fill-rule="evenodd">
        <g id="Calculator" fill="#3C4042">
            <path d="M6.4,24 L8.53333333,24 L8.53333333,22 L6.4,22 L6.4,24 Z M5.33333333,26 L9.6,26 C10.1888,26 10.6666667,25.552 10.6666667,25 L10.6666667,21.001 C10.6666667,20.447 10.1888,20 9.6,20 L5.33333333,20 C4.74346667,20 4.26666667,20.447 4.26666667,21.001 L4.26666667,25 C4.26666667,25.552 4.74346667,26 5.33333333,26 L5.33333333,26 Z M14.9333333,24 L17.0666667,24 L17.0666667,22 L14.9333333,22 L14.9333333,24 Z M13.8666667,26 L18.1333333,26 C18.7221333,26 19.2,25.552 19.2,25 L19.2,21.001 C19.2,20.447 18.7221333,20 18.1333333,20 L13.8666667,20 C13.2768,20 12.8,20.447 12.8,21.001 L12.8,25 C12.8,25.552 13.2768,26 13.8666667,26 L13.8666667,26 Z M6.4,16 L8.53333333,16 L8.53333333,14 L6.4,14 L6.4,16 Z M5.33333333,18 L9.6,18 C10.1888,18 10.6666667,17.5519253 10.6666667,17.0008334 L10.6666667,13.0001667 C10.6666667,12.4470745 10.1888,12 9.6,12 L5.33333333,12 C4.74346667,12 4.26666667,12.4470745 4.26666667,13.0001667 L4.26666667,17.0008334 C4.26666667,17.5519253 4.74346667,18 5.33333333,18 L5.33333333,18 Z M14.9333333,16 L17.0666667,16 L17.0666667,14 L14.9333333,14 L14.9333333,16 Z M13.8666667,18 L18.1333333,18 C18.7221333,18 19.2,17.5519253 19.2,17.0008334 L19.2,13.0001667 C19.2,12.4470745 18.7221333,12 18.1333333,12 L13.8666667,12 C13.2768,12 12.8,12.4470745 12.8,13.0001667 L12.8,17.0008334 C12.8,17.5519253 13.2768,18 13.8666667,18 L13.8666667,18 Z M23.4666667,16 L25.6,16 L25.6,14 L23.4666667,14 L23.4666667,16 Z M22.4,18 L26.6666667,18 C27.2554667,18 27.7333333,17.5519253 27.7333333,17.0008334 L27.7333333,13.0001667 C27.7333333,12.4470745 27.2554667,12 26.6666667,12 L22.4,12 C21.8101333,12 21.3333333,12.4470745 21.3333333,13.0001667 L21.3333333,17.0008334 C21.3333333,17.5519253 21.8101333,18 22.4,18 L22.4,18 Z M29.8666667,6 L2.13333333,6 L2.13333333,3.00025005 C2.13333333,2.4471118 2.61013333,2 3.2,2 L28.8,2 C29.3888,2 29.8666667,2.4471118 29.8666667,3.00025005 L29.8666667,6 Z M29.8666667,28.999 C29.8666667,29.553 29.3888,30 28.8,30 L3.2,30 C2.61013333,30 2.13333333,29.553 2.13333333,28.999 L2.13333333,8 L29.8666667,8 L29.8666667,28.999 Z M29.8666667,0 L2.13333333,0 C0.954666667,0 0,0.896 0,2 L0,30 C0,31.105 0.954666667,32 2.13333333,32 L29.8666667,32 C31.0442667,32 32,31.105 32,30 L32,2 C32,0.896 31.0442667,0 29.8666667,0 L29.8666667,0 Z M23.4666667,24 L25.6,24 L25.6,22 L23.4666667,22 L23.4666667,24 Z M22.4,26 L26.6666667,26 C27.2554667,26 27.7333333,25.552 27.7333333,25 L27.7333333,21.001 C27.7333333,20.447 27.2554667,20 26.6666667,20 L22.4,20 C21.8101333,20 21.3333333,20.447 21.3333333,21.001 L21.3333333,25 C21.3333333,25.552 21.8101333,26 22.4,26 L22.4,26 Z" id="Shape"></path>
        </g>
    </g>
</svg>