<?xml version="1.0" encoding="UTF-8" standalone="no"?>
<svg width="38px" height="40px" viewBox="0 0 38 40" version="1.1" xmlns="http://www.w3.org/2000/svg" xmlns:xlink="http://www.w3.org/1999/xlink">
    <!-- Generator: Sketch 39.1 (31720) - http://www.bohemiancoding.com/sketch -->
    <title>icon-calendar</title>
    <desc>Created with Sketch.</desc>
    <defs></defs>
    <g id="Page-1" stroke="none" stroke-width="1" fill="none" fill-rule="evenodd">
        <g id="Base-Size---For-Vector-Export" transform="translate(-826.000000, -638.000000)" fill="#FFFFFF">
            <g id="icon-calendar" transform="translate(826.000000, 638.000000)">
                <path d="M0,3.0065012 C0,1.34605644 1.35244012,0 2.99765987,0 L35.0023401,0 C36.657902,0 38,1.34230941 38,3.0065012 L38,36.9934988 C38,38.6539436 36.6475599,40 35.0023401,40 L2.99765987,40 C1.34209804,40 0,38.6576906 0,36.9934988 L0,3.0065012 Z M3,3.99980749 C3,3.44762906 3.45236206,3 3.99278641,3 L34.0072136,3 C34.5555144,3 35,3.44371665 35,3.99980749 L35,8 L3,8 L3,3.99980749 Z M3,11 L35,11 L35,35.9967004 C35,36.5508075 34.5476379,37 34.0072136,37 L3.99278641,37 C3.44448561,37 3,36.5487213 3,35.9967004 L3,11 Z M7,18.990778 C7,18.4435864 7.45097518,18 7.99077797,18 L12.009222,18 C12.5564136,18 13,18.4509752 13,18.990778 L13,23.009222 C13,23.5564136 12.5490248,24 12.009222,24 L7.99077797,24 C7.44358641,24 7,23.5490248 7,23.009222 L7,18.990778 Z M16,18.990778 C16,18.4435864 16.4509752,18 16.990778,18 L21.009222,18 C21.5564136,18 22,18.4509752 22,18.990778 L22,23.009222 C22,23.5564136 21.5490248,24 21.009222,24 L16.990778,24 C16.4435864,24 16,23.5490248 16,23.009222 L16,18.990778 Z M25,18.990778 C25,18.4435864 25.4509752,18 25.990778,18 L30.009222,18 C30.5564136,18 31,18.4509752 31,18.990778 L31,23.009222 C31,23.5564136 30.5490248,24 30.009222,24 L25.990778,24 C25.4435864,24 25,23.5490248 25,23.009222 L25,18.990778 Z M7,27.990778 C7,27.4435864 7.45097518,27 7.99077797,27 L12.009222,27 C12.5564136,27 13,27.4509752 13,27.990778 L13,32.009222 C13,32.5564136 12.5490248,33 12.009222,33 L7.99077797,33 C7.44358641,33 7,32.5490248 7,32.009222 L7,27.990778 Z M16,27.990778 C16,27.4435864 16.4509752,27 16.990778,27 L21.009222,27 C21.5564136,27 22,27.4509752 22,27.990778 L22,32.009222 C22,32.5564136 21.5490248,33 21.009222,33 L16.990778,33 C16.4435864,33 16,32.5490248 16,32.009222 L16,27.990778 Z M25,27.990778 C25,27.4435864 25.4509752,27 25.990778,27 L30.009222,27 C30.5564136,27 31,27.4509752 31,27.990778 L31,32.009222 C31,32.5564136 30.5490248,33 30.009222,33 L25.990778,33 C25.4435864,33 25,32.5490248 25,32.009222 L25,27.990778 Z"></path>
            </g>
        </g>
    </g>
</svg>