<?xml version="1.0" encoding="UTF-8" standalone="no"?>
<svg width="38px" height="38px" viewBox="0 0 38 38" version="1.1" xmlns="http://www.w3.org/2000/svg" xmlns:xlink="http://www.w3.org/1999/xlink">
    <!-- Generator: Sketch 39.1 (31720) - http://www.bohemiancoding.com/sketch -->
    <title>icon-error</title>
    <desc>Created with Sketch.</desc>
    <defs></defs>
    <g id="Page-1" stroke="none" stroke-width="1" fill="none" fill-rule="evenodd">
        <g id="Base-Size---For-Vector-Export" transform="translate(-1226.000000, -639.000000)" fill="#FFFFFF">
            <g id="icon-error" transform="translate(1226.000000, 639.000000)">
                <path d="M19,38 C29.4934102,38 38,29.4934102 38,19 C38,8.50658975 29.4934102,0 19,0 C8.50658975,0 0,8.50658975 0,19 C0,29.4934102 8.50658975,38 19,38 Z M19,35 C27.836556,35 35,27.836556 35,19 C35,10.163444 27.836556,3 19,3 C10.163444,3 3,10.163444 3,19 C3,27.836556 10.163444,35 19,35 Z M14,16 C15.1045695,16 16,15.1045695 16,14 C16,12.8954305 15.1045695,12 14,12 C12.8954305,12 12,12.8954305 12,14 C12,15.1045695 12.8954305,16 14,16 Z M24,16 C25.1045695,16 26,15.1045695 26,14 C26,12.8954305 25.1045695,12 24,12 C22.8954305,12 22,12.8954305 22,14 C22,15.1045695 22.8954305,16 24,16 Z M11.8391907,25.1756984 C11.8283761,25.1971323 11.8647848,25.1430408 11.9632684,25.0333481 C12.178093,24.7940728 12.486427,24.5397597 12.9074319,24.2898052 C14.2424357,23.4972011 16.2530493,23 19.0922852,23 C21.925059,23 23.8935083,23.4942946 25.1637048,24.2770123 C25.5578956,24.5199197 25.8399221,24.7649694 26.0310676,24.993533 C26.1150075,25.0939047 26.142202,25.1383713 26.1285657,25.1075918 C26.4641294,25.8650141 27.3501696,26.2069981 28.1075918,25.8714343 C28.8650141,25.5358706 29.2069981,24.6498304 28.8714343,23.8924082 C28.7747291,23.6741287 28.6012515,23.3904703 28.3323815,23.068967 C27.9355105,22.5944056 27.4083138,22.1363303 26.7375403,21.7229877 C24.9649817,20.6307054 22.4532979,20 19.0922852,20 C15.7377344,20 13.1990011,20.6277989 11.3758933,21.7101948 C10.1734236,22.4241122 9.474502,23.2025829 9.16080933,23.8243016 C8.7876314,24.5639162 9.084687,25.4660127 9.82430158,25.8391907 C10.5639162,26.2123686 11.4660127,25.915313 11.8391907,25.1756984 L11.8391907,25.1756984 Z"></path>
            </g>
        </g>
    </g>
</svg>