<?xml version="1.0" encoding="UTF-8" standalone="no"?>
<svg width="38px" height="38px" viewBox="0 0 38 38" version="1.1" xmlns="http://www.w3.org/2000/svg" xmlns:xlink="http://www.w3.org/1999/xlink">
    <!-- Generator: Sketch 39.1 (31720) - http://www.bohemiancoding.com/sketch -->
    <title>icon-edit</title>
    <desc>Created with Sketch.</desc>
    <defs></defs>
    <g id="Page-1" stroke="none" stroke-width="1" fill="none" fill-rule="evenodd">
        <g id="Base-Size---For-Vector-Export" transform="translate(-826.000000, -503.000000)" fill="#FFFFFF">
            <g id="icon-edit" transform="translate(826.000000, 503.000000)">
                <path d="M26.4988208,4 L3.00235843,4 C1.34331243,4 0,5.34420165 0,7.00235843 L0,34.9976416 C0,36.6566876 1.34420165,38 3.00235843,38 L30.9976416,38 C32.6566876,38 34,36.6557983 34,34.9976416 L34,11.5011792 L34,16 L31,16 L31,34.0034652 C31,34.5538362 30.5601869,35 30.0034652,35 L3.99653482,35 C3.44616384,35 3,34.5601869 3,34.0034652 L3,7.99653482 C3,7.44616384 3.43981314,7 3.99653482,7 L22,7 L22,4 L26.4988208,4 Z" id="Box"></path>
                <path d="M20.5606602,19.5606602 L36.6851757,3.43614467 C37.2709621,2.85035823 37.2709621,1.90061076 36.6851757,1.31482433 C36.0993893,0.729037887 35.1496418,0.729037887 34.5638554,1.31482432 L18.4393398,17.4393398 C17.8535534,18.0251263 17.8535534,18.9748737 18.4393398,19.5606602 C19.0251263,20.1464466 19.9748737,20.1464466 20.5606602,19.5606602 L20.5606602,19.5606602 Z" id="Line"></path>
            </g>
        </g>
    </g>
</svg>