<?xml version="1.0" encoding="UTF-8" standalone="no"?>
<svg width="30px" height="30px" viewBox="0 0 30 30" version="1.1" xmlns="http://www.w3.org/2000/svg" xmlns:xlink="http://www.w3.org/1999/xlink">
    <!-- Generator: Sketch 39.1 (31720) - http://www.bohemiancoding.com/sketch -->
    <title>icon-close</title>
    <desc>Created with Sketch.</desc>
    <defs></defs>
    <g id="Page-1" stroke="none" stroke-width="1" fill="none" fill-rule="evenodd">
        <g id="Base-Size---For-Vector-Export" transform="translate(-630.000000, -779.000000)" fill="#FFFFFF">
            <g id="icon-close" transform="translate(630.000000, 779.000000)">
                <path d="M15,12.8694514 L27.4282003,0.441251075 C28.016535,-0.147083683 28.9704141,-0.147083693 29.5587489,0.441251052 C30.1470837,1.0295858 30.1470837,1.9834649 29.5587489,2.57179966 L17.1305486,15 L29.5587489,27.4282003 C30.1470837,28.016535 30.1470837,28.9704141 29.5587489,29.5587489 C28.9704142,30.1470837 28.0165351,30.1470837 27.4282003,29.5587489 L15,17.1305486 L2.57179973,29.5587489 C1.98346497,30.1470837 1.02958585,30.1470837 0.441251083,29.5587489 C-0.147083686,28.9704142 -0.147083696,28.0165351 0.441251061,27.4282003 L12.8694514,15 L0.441251075,2.57179973 C-0.147083683,1.98346497 -0.147083693,1.02958585 0.441251052,0.441251083 C1.0295858,-0.147083686 1.9834649,-0.147083696 2.57179966,0.441251061 L15,12.8694514 Z"></path>
            </g>
        </g>
    </g>
</svg>