<?xml version="1.0" encoding="UTF-8" standalone="no"?>
<svg width="40px" height="17px" viewBox="0 0 40 17" version="1.1" xmlns="http://www.w3.org/2000/svg" xmlns:xlink="http://www.w3.org/1999/xlink">
    <!-- Generator: Sketch 39.1 (31720) - http://www.bohemiancoding.com/sketch -->
    <title>icon-payees</title>
    <desc>Created with Sketch.</desc>
    <defs></defs>
    <g id="Page-1" stroke="none" stroke-width="1" fill="none" fill-rule="evenodd">
        <g id="Base-Size---For-Vector-Export" transform="translate(-525.000000, -514.000000)" fill="#FFFFFF">
            <g id="icon-payees" transform="translate(525.000000, 514.000000)">
                <path d="M14.724414,2.71145437 C13.1724653,1.0433969 10.9580819,0 8.5,0 C6.39910801,0 4.47623546,0.762191868 2.99281681,2.02514117 L3,2 L0,2 L0,9 L0.0144617887,9 C0.273270689,13.4616897 3.97342702,17 8.5,17 C13.1944204,17 17,13.1944204 17,8.5 C17,7.34954792 16.7714433,6.25247812 16.3572596,5.25172023 C17.3680848,4.78177019 18.5784639,4.50000001 20,4.50000001 C21.4215361,4.50000001 22.6319152,4.7817702 23.6427404,5.25172025 C23.2285567,6.25247814 23,7.34954793 23,8.5 C23,13.1944204 26.8055796,17 31.5,17 C36.026573,17 39.7267293,13.4616897 39.9855382,9 L40,9 L40,2 L37,2 L37.0071832,2.02514117 C35.5237645,0.762191868 33.600892,0 31.5,0 C29.0419181,0 26.8275347,1.04339691 25.2755859,2.71145439 C25.2410855,2.69373194 25.2061638,2.67603092 25.1708204,2.65835923 C23.7182233,1.93206067 21.9899807,1.50000001 20,1.50000001 C18.0100193,1.50000002 16.2817767,1.93206065 14.8291796,2.65835919 C14.7938362,2.67603089 14.7589145,2.69373192 14.724414,2.71145437 Z M13.9379706,4.93797056 C14.6094361,5.96098444 15,7.18488168 15,8.5 C15,12.0898509 12.0898509,15 8.5,15 C4.91014913,15 2,12.0898509 2,8.5 C2,4.91014913 4.91014913,2 8.5,2 C10.2649641,2 11.8656283,2.70345155 13.0369166,3.84527865 C13.002423,3.87739993 12.9698986,3.90878099 12.9393398,3.93933976 L13.9379706,4.93797056 Z M26.9630833,3.84527868 C28.1343716,2.70345156 29.7350359,2 31.5,2 C35.0898509,2 38,4.91014913 38,8.5 C38,12.0898509 35.0898509,15 31.5,15 C27.9101491,15 25,12.0898509 25,8.5 C25,7.18488175 25.3905638,5.96098458 26.0620293,4.93797074 L27.0606602,3.93933984 C27.0301014,3.90878105 26.997577,3.87739997 26.9630833,3.84527868 Z"></path>
            </g>
        </g>
    </g>
</svg>