<?xml version="1.0" encoding="UTF-8" standalone="no"?>
<svg width="40px" height="34px" viewBox="0 0 40 34" version="1.1" xmlns="http://www.w3.org/2000/svg" xmlns:xlink="http://www.w3.org/1999/xlink">
    <!-- Generator: Sketch 39.1 (31720) - http://www.bohemiancoding.com/sketch -->
    <title>icon-help-get-help</title>
    <desc>Created with Sketch.</desc>
    <defs></defs>
    <g id="Page-1" stroke="none" stroke-width="1" fill="none" fill-rule="evenodd">
        <g id="Base-Size---For-Vector-Export" transform="translate(-425.000000, -641.000000)" fill="#FFFFFF">
            <g id="icon-help-get-help" transform="translate(425.000000, 641.000000)">
                <path d="M9.17725488,21.5137281 C5.4702223,19.7521464 3,16.5979776 3,13 C3,7.4771525 8.82029825,3 16,3 C23.1797017,3 29,7.4771525 29,13 C29,18.5228475 23.1797017,23 16,23 C15.5500245,23 15.1053886,22.982414 14.6671906,22.9480868 L8.88554688,26.1463934 L9.17725488,21.5137281 Z M6.48554687,23.4528003 L6.48554687,30 L14.3713505,25.93348 C14.9068751,25.9774685 15.4501991,26 16,26 C24.836556,26 32,20.1797017 32,13 C32,5.82029825 24.836556,0 16,0 C7.163444,0 0,5.82029825 0,13 C0,17.2842538 2.55070041,21.0844624 6.48554687,23.4528003 Z M34.1521445,10.75328 C35.9341951,12.4647727 37,14.6366432 37,17 C37,20.5979776 34.5297777,23.7521464 30.8227451,25.5137281 L31.1144531,30.1463934 L25.3328094,26.9480868 C24.8946114,26.982414 24.4499755,27 24,27 C23.4542966,27 22.9164465,26.9741356 22.3884083,26.9239135 C20.3154254,27.5700582 18.0637978,27.9241973 15.7101567,27.9241973 C15.5787171,27.9241973 15.4475956,27.9230928 15.3168057,27.9208948 C17.8176939,29.2362885 20.7990781,30 24,30 C24.5498009,30 25.0931249,29.9774685 25.6286495,29.93348 L33.5144531,34 L33.5144531,27.4528003 C37.4492996,25.0844624 40,21.2842538 40,17 C40,12.261268 36.8794341,8.11472437 32.2168796,5.84296312 C33.1880311,7.34828088 33.855151,9.00291663 34.1521445,10.75328 Z"></path>
            </g>
        </g>
    </g>
</svg>