<?xml version="1.0" encoding="UTF-8" standalone="no"?>
<svg width="37px" height="39px" viewBox="0 0 37 39" version="1.1" xmlns="http://www.w3.org/2000/svg" xmlns:xlink="http://www.w3.org/1999/xlink">
    <!-- Generator: Sketch 39.1 (31720) - http://www.bohemiancoding.com/sketch -->
    <title>icon-help-reminders</title>
    <desc>Created with Sketch.</desc>
    <defs></defs>
    <g id="Page-1" stroke="none" stroke-width="1" fill="none" fill-rule="evenodd">
        <g id="Base-Size---For-Vector-Export" transform="translate(-127.000000, -638.000000)" fill="#FFFFFF">
            <g id="icon-help-reminders" transform="translate(127.000000, 638.000000)">
                <path d="M18,28 C25.7319865,28 32,21.7319865 32,14 C32,6.2680135 25.7319865,0 18,0 C10.2680135,0 4,6.2680135 4,14 C4,21.7319865 10.2680135,28 18,28 Z M18,25 C24.0751322,25 29,20.0751322 29,14 C29,7.92486775 24.0751322,3 18,3 C11.9248678,3 7,7.92486775 7,14 C7,20.0751322 11.9248678,25 18,25 Z M18,22 C22.418278,22 26,18.418278 26,14 C26,9.581722 22.418278,6 18,6 C13.581722,6 10,9.581722 10,14 C10,18.418278 13.581722,22 18,22 Z M18,20 C21.3137085,20 24,17.3137085 24,14 C24,10.6862915 21.3137085,8 18,8 C14.6862915,8 12,10.6862915 12,14 C12,17.3137085 14.6862915,20 18,20 Z" id="Circle"></path>
                <path d="M15.1521726,22.0454585 L15.1521726,35.2099858 C15.1521726,36.313341 14.4986457,36.5894832 13.69974,35.833636 L9.15217262,31.5311682 L4.60460526,35.833636 C3.80244886,36.5925587 3.15217262,36.3047215 3.15217262,35.2099858 L3.15217262,22.0454585 L15.1521726,22.0454585 Z M13.2112547,22.0454585 L5.17927223,22.0454585 L5.17927223,32.551229 L8.45104305,29.4071189 C8.84042579,29.0329294 9.46872438,29.0310881 9.85921075,29.3983709 L13.2112547,32.551229 L13.2112547,22.0454585 Z" id="ribbon" transform="translate(9.152173, 29.170253) rotate(-330.000000) translate(-9.152173, -29.170253) "></path>
                <path d="M33.9553613,21.992723 L33.9553613,35.9986628 C33.9553613,37.0999518 33.3245964,37.3629849 32.533445,36.5731211 L27.9553613,32.0024887 L23.3772775,36.5731211 C22.5919748,37.3571456 21.9553613,37.0982093 21.9553613,35.9986628 L21.9553613,21.992723 L33.9553613,21.992723 Z M32.0144433,21.992723 L23.9824609,21.992723 L23.9824609,33.0789047 L27.2542317,29.7610922 C27.6436144,29.3662299 28.271913,29.3642869 28.6623994,29.751861 L32.0144433,33.0789047 L32.0144433,21.992723 Z" id="ribbon" transform="translate(27.955361, 29.511141) scale(-1, 1) rotate(-330.000000) translate(-27.955361, -29.511141) "></path>
            </g>
        </g>
    </g>
</svg>