<?xml version="1.0" encoding="UTF-8" standalone="no"?>
<svg width="37px" height="37px" viewBox="0 0 37 37" version="1.1" xmlns="http://www.w3.org/2000/svg" xmlns:xlink="http://www.w3.org/1999/xlink">
    <!-- Generator: Sketch 39.1 (31720) - http://www.bohemiancoding.com/sketch -->
    <title>icon-tag</title>
    <desc>Created with Sketch.</desc>
    <defs></defs>
    <g id="Page-1" stroke="none" stroke-width="1" fill="none" fill-rule="evenodd">
        <g id="Base-Size---For-Vector-Export" transform="translate(-226.000000, -504.000000)" fill="#FFFFFF">
            <g id="icon-tag" transform="translate(247.976546, 518.712929) rotate(-45.000000) translate(-247.976546, -518.712929) translate(227.976546, 506.712929)">
                <path d="M5.68434189e-14,2.77655084 C5.68434189e-14,1.24310416 1.22483506,1.13686838e-13 2.72729013,1.13686838e-13 L27.2727273,1.13686838e-13 L27.2727273,24 L2.72729013,24 C1.22104939,24 5.68434189e-14,22.7601938 5.68434189e-14,21.2234492 L5.68434189e-14,2.77655084 L5.68434189e-14,2.77655084 Z M5.11158547,2.76923077 L26.5702479,2.76923077 L26.5702479,21.2307692 L5.11158547,21.2307692 C2.72727273,21.2307692 2.72727273,21.2307692 2.72727273,19.0949609 L2.72727273,4.90503911 C2.72727273,2.76923077 2.72727273,2.76923077 5.11158547,2.76923077 Z M27.2727273,1.13686838e-13 L40,12 L27.2727273,24 L27.2727273,1.13686838e-13 L27.2727273,1.13686838e-13 Z M36.3636364,12 L26.5702479,21.2307692 L26.5702479,2.76923077 L36.3636364,12 Z" id="Tag"></path>
                <rect id="Lne" x="5.45454545" y="6.46153846" width="2.72727273" height="11.0769231"></rect>
                <path d="M24.5454545,16.6153846 C27.0558398,16.6153846 29.0909091,14.5490065 29.0909091,12 C29.0909091,9.45099346 27.0558398,7.38461538 24.5454545,7.38461538 C22.0350693,7.38461538 20,9.45099346 20,12 C20,14.5490065 22.0350693,16.6153846 24.5454545,16.6153846 Z M24.5454545,14.7692308 C26.0516857,14.7692308 27.2727273,13.5294039 27.2727273,12 C27.2727273,10.4705961 26.0516857,9.23076923 24.5454545,9.23076923 C23.0392234,9.23076923 21.8181818,10.4705961 21.8181818,12 C21.8181818,13.5294039 23.0392234,14.7692308 24.5454545,14.7692308 Z" id="Circle"></path>
            </g>
        </g>
    </g>
</svg>