<?xml version="1.0" encoding="UTF-8" standalone="no"?>
<svg width="40px" height="36px" viewBox="0 0 40 36" version="1.1" xmlns="http://www.w3.org/2000/svg" xmlns:xlink="http://www.w3.org/1999/xlink">
    <!-- Generator: Sketch 39.1 (31720) - http://www.bohemiancoding.com/sketch -->
    <title>icon-back</title>
    <desc>Created with Sketch.</desc>
    <defs></defs>
    <g id="Page-1" stroke="none" stroke-width="1" fill="none" fill-rule="evenodd">
        <g id="Base-Size---For-Vector-Export" transform="translate(-125.000000, -775.000000)" fill="#FFFFFF">
            <g id="icon-back" transform="translate(125.000000, 775.000000)">
                <path d="M0.495398486,16.8291509 C0.191250274,17.1028577 0,17.5006478 0,17.9465553 C0,18.4123527 0.214185144,18.8285615 0.54702301,19.1036865 C0.569465258,19.1315955 0.593729115,19.1594958 0.619873046,19.1873827 L15.9056942,35.5259166 C16.4722896,36.130285 17.4215433,36.1609061 18.0259117,35.5943107 C18.6302801,35.0277153 18.6609012,34.0784616 18.0943058,33.4740932 L4.943489,19.4465553 L38.5049563,19.4465553 C39.3306461,19.4465553 40,18.780758 40,17.9465553 C40,17.1181281 39.3225085,16.4465553 38.5049563,16.4465553 L5.04370704,16.4465553 L18.0943058,2.52591657 C18.6609012,1.92154817 18.6302801,0.972294458 18.0259117,0.405699075 C17.4215433,-0.160896308 16.4722896,-0.130275221 15.9056942,0.474093188 L0.53363037,16.7866268 C0.52035782,16.8007842 0.507617147,16.8149593 0.495398486,16.8291509 Z"></path>
            </g>
        </g>
    </g>
</svg>