<?xml version="1.0" encoding="UTF-8" standalone="no"?>
<svg width="32px" height="40px" viewBox="0 0 32 40" version="1.1" xmlns="http://www.w3.org/2000/svg" xmlns:xlink="http://www.w3.org/1999/xlink">
    <!-- Generator: Sketch 39.1 (31720) - http://www.bohemiancoding.com/sketch -->
    <title>icon-alerts</title>
    <desc>Created with Sketch.</desc>
    <defs></defs>
    <g id="Page-1" stroke="none" stroke-width="1" fill="none" fill-rule="evenodd">
        <g id="Base-Size---For-Vector-Export" transform="translate(-529.000000, -220.000000)" fill="#FFFFFF">
            <g id="icon-alerts" transform="translate(529.000000, 220.000000)">
                <path d="M20.8903603,34 L30.4994941,34 C31.3316345,34 32,33.3284271 32,32.5 C32,31.6657972 31.3282006,31 30.4994941,31 L1.50050592,31 C0.668365479,31 0,31.6715729 0,32.5 C0,33.3342028 0.671799385,34 1.50050592,34 L11.1096397,34 C11.0378015,34.3080337 11,34.6411592 11,35 C11,37.7614237 13.2385763,40 16,40 C18.7614237,40 21,37.7614237 21,35 C21,34.6411592 20.9621985,34.3080337 20.8903603,34 Z M17.994309,2.1520189 C17.9980803,2.10183972 18,2.05114405 18,2 C18,0.8954305 17.1045695,0 16,0 C14.8954305,0 14,0.8954305 14,2 C14,2.05114405 14.0019197,2.10183972 14.005691,2.1520189 C7.77272479,3.11162742 3,8.49844891 3,15 C16,15 16,15 29,15 C29,8.49844891 24.2272752,3.11162742 17.994309,2.1520189 Z M26,15 C26,9.4771525 21.5228475,5 16,5 C10.4771525,5 6,9.4771525 6,15 L26,15 Z M3,15 L6,15 L6,31 L3,31 L3,15 Z M26,15 L29,15 L29,31 L26,31 L26,15 Z M16,37 C17.1045695,37 18,36.1045695 18,35 C18,33.8954305 17.1045695,33 16,33 C14.8954305,33 14,33.8954305 14,35 C14,36.1045695 14.8954305,37 16,37 Z" id="Oval-16"></path>
            </g>
        </g>
    </g>
</svg>