<?xml version="1.0" encoding="UTF-8" standalone="no"?>
<svg width="32px" height="40px" viewBox="0 0 32 40" version="1.1" xmlns="http://www.w3.org/2000/svg" xmlns:xlink="http://www.w3.org/1999/xlink">
    <!-- Generator: Sketch 39.1 (31720) - http://www.bohemiancoding.com/sketch -->
    <title>icon-more</title>
    <desc>Created with Sketch.</desc>
    <defs></defs>
    <g id="Page-1" stroke="none" stroke-width="1" fill="none" fill-rule="evenodd">
        <g id="Base-Size---For-Vector-Export" transform="translate(-729.000000, -772.000000)" fill="#FFFFFF">
            <g id="icon-more" transform="translate(745.000000, 792.000000) rotate(-270.000000) translate(-745.000000, -792.000000) translate(725.000000, 776.000000)">
                <path d="M26.9146118,17.4694609 L1.50050592,17.4694609 C0.671799385,17.4694609 0,16.8036637 0,15.9694609 C0,15.1410338 0.668365479,14.4694609 1.50050592,14.4694609 L26.9387383,14.4694609 L16.0259734,3.55669612 C15.442427,2.97314967 15.4401589,2.02930207 16.0300293,1.43943163 C16.6158157,0.853645197 17.5644099,0.854399504 18.1441134,1.43643748 L31.5481578,14.8944593 C31.8269469,15.1660597 32,15.54607 32,15.9694609 C32,16.4630578 31.762726,16.9009704 31.3949097,17.1743247 L18.1747443,30.4477271 C17.5950407,31.0297651 16.6464466,31.0305194 16.0606602,30.4447329 C15.4707897,29.8548625 15.4730579,28.9110149 16.0566043,28.3274684 L26.9146118,17.4694609 Z M37,1.50050592 C37,0.671799385 37.6657972,-1.13686838e-13 38.5,-1.13686838e-13 C39.3284271,-1.13686838e-13 40,0.668365479 40,1.50050592 L40,30.4994941 C40,31.3282006 39.3342028,32 38.5,32 C37.6715729,32 37,31.3316345 37,30.4994941 L37,1.50050592 Z"></path>
            </g>
        </g>
    </g>
</svg>