<?xml version="1.0" encoding="UTF-8" standalone="no"?>
<svg width="38px" height="40px" viewBox="0 0 38 40" version="1.1" xmlns="http://www.w3.org/2000/svg" xmlns:xlink="http://www.w3.org/1999/xlink">
    <!-- Generator: Sketch 39.1 (31720) - http://www.bohemiancoding.com/sketch -->
    <title>icon-overdrafts</title>
    <desc>Created with Sketch.</desc>
    <defs></defs>
    <g id="Page-1" stroke="none" stroke-width="1" fill="none" fill-rule="evenodd">
        <g id="Base-Size---For-Vector-Export" transform="translate(-526.000000, -638.000000)" fill="#FFFFFF">
            <g id="icon-overdrafts" transform="translate(526.000000, 638.000000)">
                <path d="M0.715203137,26 C0.249304737,26.9536636 0,27.9599762 0,29 C0,35.0751322 8.50658975,40 19,40 C29.4934102,40 38,35.0751322 38,29 C38,27.9599762 37.7506953,26.9536636 37.2847969,26 C36.7714237,27.0508413 35.9950665,28.0377569 34.9994894,28.9354098 C34.9998296,28.9569198 35,28.9784499 35,29 C35,33.418278 27.836556,37 19,37 C10.163444,37 3,33.418278 3,29 C3,28.9784499 3.00017042,28.9569198 3.00051061,28.9354098 C2.00493354,28.0377569 1.22857627,27.0508413 0.715203137,26 Z" id="Oval-32"></path>
                <path d="M0.715203137,20 C0.249304737,20.9536636 0,21.9599762 0,23 C0,29.0751322 8.50658975,34 19,34 C29.4934102,34 38,29.0751322 38,23 C38,21.9599762 37.7506953,20.9536636 37.2847969,20 C36.7714237,21.0508413 35.9950665,22.0377569 34.9994894,22.9354098 C34.9998296,22.9569198 35,22.9784499 35,23 C35,27.418278 27.836556,31 19,31 C10.163444,31 3,27.418278 3,23 C3,22.9784499 3.00017042,22.9569198 3.00051061,22.9354098 C2.00493354,22.0377569 1.22857627,21.0508413 0.715203137,20 Z" id="Oval-32"></path>
                <path d="M37.2847969,14 C37.7506953,14.9536636 38,15.9599762 38,17 C38,23.0751322 29.4934102,28 19,28 C8.50658975,28 0,23.0751322 0,17 C0,15.9599762 0.249304737,14.9536636 0.715203137,14 C1.22857627,15.0508413 2.00493354,16.0377569 3.00051061,16.9354098 C3.00017042,16.9569198 3,16.9784499 3,17 C3,21.418278 10.163444,25 19,25 C27.836556,25 35,21.418278 35,17 C35,16.9784499 34.9998296,16.9569198 34.9994894,16.9354098 C35.9950665,16.0377569 36.7714237,15.0508413 37.2847969,14 Z" id="Oval-32"></path>
                <path d="M19,22 C29.4934102,22 38,17.0751322 38,11 C38,4.92486775 29.4934102,0 19,0 C8.50658975,0 0,4.92486775 0,11 C0,17.0751322 8.50658975,22 19,22 Z M19,19 C27.836556,19 35,15.418278 35,11 C35,6.581722 27.836556,3 19,3 C10.163444,3 3,6.581722 3,11 C3,15.418278 10.163444,19 19,19 Z" id="Oval-32"></path>
            </g>
        </g>
    </g>
</svg>