<?xml version="1.0" encoding="utf-8"?>
<!-- Generator: Adobe Illustrator 19.1.0, SVG Export Plug-In . SVG Version: 6.00 Build 0)  -->
<svg version="1.1" id="Layer_1" xmlns="http://www.w3.org/2000/svg" xmlns:xlink="http://www.w3.org/1999/xlink" x="0px" y="0px"
	 viewBox="0 0 20 20" style="enable-background:new 0 0 20 20;" xml:space="preserve">
<style type="text/css">
	.st0{fill:#2BE66D;}
</style>
<path class="st0" d="M17.1819115,15.4398365H2.9176829c-1.072603,0-1.9451219-0.9171505-1.9451219-2.0447941V0.8310394h1.296748
	v12.564003c0,0.3560619,0.2909451,0.6451483,0.6483738,0.6451483h14.2642288c0.3577442,0,0.6483727-0.2890863,0.6483727-0.6451483
	V0.8310394h1.2967491v12.564003C19.1270332,14.522686,18.2545128,15.4398365,17.1819115,15.4398365z"/>
<path class="st0" d="M3.8494039,11.4595957c-0.1525958,0-0.3058248-0.0580912-0.4292943-0.1756392
	c-0.2681508-0.2562828-0.2931614-0.6984558-0.0560362-0.9878845l3.7281504-4.5488472
	c0.2250948-0.274735,0.6081672-0.3147149,0.8788505-0.0926037l3.4780455,2.8635321l4.0162458-4.3745747
	c0.2520046-0.2743933,0.6623049-0.2757602,0.9168425-0.0044422c0.2539043,0.2720013,0.2558022,0.7151995,0.0037975,0.9899344
	l-4.4170465,4.8112807c-0.2285776,0.2501316-0.5958204,0.2767849-0.8535242,0.0635576L7.6639829,7.1619053l-3.3286152,4.0612268
	C4.2071495,11.3796349,4.0289097,11.4595957,3.8494039,11.4595957z"/>
<rect class="st0" width="19.9375" height="1.3996452"/>
<path class="st0" d="M13.3328228,20.0180702c-0.2342749,0-0.4603195-0.1373672-0.5761909-0.3772488l-2.0065403-4.1715984H9.4549265
	l-2.2047248,4.1941528C7.073545,20.0003014,6.678442,20.115799,6.3662853,19.9271755
	c-0.3112068-0.1906738-0.4204302-0.6178131-0.2437735-0.9540558l2.3908787-4.5488462
	c0.1149225-0.2193785,0.3305197-0.3546953,0.5638456-0.3546953h2.0666914c0.2418737,0,0.4641199,0.1455688,0.5755587,0.3772478
	l2.188262,4.5488482c0.1646261,0.3430767,0.0411568,0.7654305-0.2766981,0.9438038
	C13.5354404,19.9927845,13.4334984,20.0180702,13.3328228,20.0180702z"/>
</svg>
