<svg width="320" height="322" xmlns="http://www.w3.org/2000/svg">
 <!-- Created with Method Draw - http://github.com/duopixel/Method-Draw/ -->

 <g>
  <title>background</title>
  <rect x="-1" y="-1" width="322" height="324" id="canvas_background" fill="#fff"/>
 </g>
 <g>
  <title>Layer 1</title>
  <g id="svg_18">
   <g id="svg_5" transform="matrix(5.668934132236473,0,0,5.668934132236473,0,0) ">
    <g id="svg_6">
     <path d="m48.973999,0.900399l-41.5,0c-3.58398,0 -6.5,2.91602 -6.5,6.5l0,42c0,3.58398 2.91602,6.5 6.5,6.5l41.5,0c3.58398,0 6.5,-2.91602 6.5,-6.5l0,-42c0,-3.58398 -2.91602,-6.5 -6.5,-6.5zm-41.5,3l41.5,0c1.92969,0 3.5,1.57031 3.5,3.5l0,4.66602l-48.5,0l0,-4.66602c0,-1.92969 1.57031,-3.5 3.5,-3.5zm-3.5,45.5l0,-34.33398l11.3335,0l0,37.83398l-7.8335,0c-1.92969,0 -3.5,-1.57031 -3.5,-3.5zm45,3.5l-30.6665,0l0,-37.83398l34.1665,0l0,34.33398c0,1.92969 -1.57031,3.5 -3.5,3.5z" id="svg_7" fill="#06db00"/>
     <path d="m48.973999,56.650399l-41.5,0c-3.99756,0 -7.25,-3.25195 -7.25,-7.25l0,-42c0,-3.99805 3.25244,-7.25 7.25,-7.25l41.5,0c3.99756,0 7.25,3.25195 7.25,7.25l0,42c0,3.99805 -3.25244,7.25 -7.25,7.25zm-41.5,-55c-3.17041,0 -5.75,2.5791 -5.75,5.75l0,42c0,3.1709 2.57959,5.75 5.75,5.75l41.5,0c3.17041,0 5.75,-2.5791 5.75,-5.75l0,-42c0,-3.1709 -2.57959,-5.75 -5.75,-5.75l-41.5,0zm41.5,52l-31.4165,0l0,-39.33398l35.6665,0l0,35.08398c0,2.34375 -1.90674,4.25 -4.25,4.25zm-29.9165,-1.5l29.9165,0c1.5166,0 2.75,-1.2334 2.75,-2.75l0,-33.58398l-32.6665,0l0,36.33398zm-3,1.5l-8.5835,0c-2.34326,0 -4.25,-1.90625 -4.25,-4.25l0,-35.08398l12.8335,0l0,39.33398zm-11.3335,-37.83398l0,33.58398c0,1.5166 1.2334,2.75 2.75,2.75l7.0835,0l0,-36.33398l-9.8335,0zm48.5,-3l-50,0l0,-5.41602c0,-2.34375 1.90674,-4.25 4.25,-4.25l41.5,0c2.34326,0 4.25,1.90625 4.25,4.25l0,5.41602zm-48.5,-1.5l47,0l0,-3.91602c0,-1.5166 -1.2334,-2.75 -2.75,-2.75l-41.5,0c-1.5166,0 -2.75,1.2334 -2.75,2.75l0,3.91602z" id="svg_8" fill="#06db00"/>
    </g>
    <g id="svg_9">
     <path d="m43.474179,21.733409l-17.16668,0c-1.00837,0 -1.83332,0.82501 -1.83332,1.83331c0,1.00836 0.82495,1.83337 1.83332,1.83337l17.16668,0c1.0083,0 1.83332,-0.82501 1.83332,-1.83337c0,-1.0083 -0.82502,-1.83331 -1.83332,-1.83331z" id="svg_10" fill="#06db00"/>
     <path d="m43.473999,26.150399l-17.1665,0c-1.42432,0 -2.5835,-1.15918 -2.5835,-2.58398c0,-1.42383 1.15918,-2.58301 2.5835,-2.58301l17.1665,0c1.42432,0 2.5835,1.15918 2.5835,2.58301c0,1.4248 -1.15918,2.58398 -2.5835,2.58398zm-17.1665,-3.66699c-0.59766,0 -1.0835,0.48535 -1.0835,1.08301s0.48584,1.08398 1.0835,1.08398l17.1665,0c0.59766,0 1.0835,-0.48633 1.0835,-1.08398s-0.48584,-1.08301 -1.0835,-1.08301l-17.1665,0z" id="svg_11" fill="#06db00"/>
    </g>
    <g id="svg_12">
     <path d="m43.474179,31.733409l-17.16668,0c-1.00837,0 -1.83332,0.82501 -1.83332,1.83331c0,1.00836 0.82495,1.83337 1.83332,1.83337l17.16668,0c1.0083,0 1.83332,-0.82501 1.83332,-1.83337c0,-1.0083 -0.82502,-1.83331 -1.83332,-1.83331z" id="svg_13" fill="#06db00"/>
     <path d="m43.473999,36.150399l-17.1665,0c-1.42432,0 -2.5835,-1.15918 -2.5835,-2.58398c0,-1.42383 1.15918,-2.58301 2.5835,-2.58301l17.1665,0c1.42432,0 2.5835,1.15918 2.5835,2.58301c0,1.4248 -1.15918,2.58398 -2.5835,2.58398zm-17.1665,-3.66699c-0.59766,0 -1.0835,0.48535 -1.0835,1.08301s0.48584,1.08398 1.0835,1.08398l17.1665,0c0.59766,0 1.0835,-0.48633 1.0835,-1.08398s-0.48584,-1.08301 -1.0835,-1.08301l-17.1665,0z" id="svg_14" fill="#06db00"/>
    </g>
    <g id="svg_15">
     <path d="m43.474179,41.733409l-17.16668,0c-1.00837,0 -1.83332,0.82501 -1.83332,1.83331c0,1.00836 0.82495,1.83337 1.83332,1.83337l17.16668,0c1.0083,0 1.83332,-0.82501 1.83332,-1.83337c0,-1.0083 -0.82502,-1.83331 -1.83332,-1.83331z" id="svg_16" fill="#06db00"/>
     <path d="m43.473999,46.150399l-17.1665,0c-1.42432,0 -2.5835,-1.15918 -2.5835,-2.58398c0,-1.42383 1.15918,-2.58301 2.5835,-2.58301l17.1665,0c1.42432,0 2.5835,1.15918 2.5835,2.58301c0,1.4248 -1.15918,2.58398 -2.5835,2.58398zm-17.1665,-3.66699c-0.59766,0 -1.0835,0.48535 -1.0835,1.08301s0.48584,1.08398 1.0835,1.08398l17.1665,0c0.59766,0 1.0835,-0.48633 1.0835,-1.08398s-0.48584,-1.08301 -1.0835,-1.08301l-17.1665,0z" id="svg_17" fill="#06db00"/>
    </g>
   </g>
  </g>
 </g>
</svg>