<?xml version="1.0" encoding="UTF-8" standalone="no"?>
<svg width="41px" height="34px" viewBox="0 0 41 34" version="1.1" xmlns="http://www.w3.org/2000/svg" xmlns:xlink="http://www.w3.org/1999/xlink">
    <!-- Generator: Sketch 39.1 (31720) - http://www.bohemiancoding.com/sketch -->
    <title>icon-warning</title>
    <desc>Created with Sketch.</desc>
    <defs></defs>
    <g id="Page-1" stroke="none" stroke-width="1" fill="none" fill-rule="evenodd">
        <g id="Base-Size---For-Vector-Export" transform="translate(-1125.000000, -642.000000)" fill="#FFFFFF">
            <g id="icon-warning" transform="translate(1145.500000, 658.500000) scale(1, -1) translate(-1145.500000, -658.500000) translate(1125.000000, 641.000000)">
                <path d="M19.0137755,33.3315357 C19.5757375,34.2781767 20.4851747,34.2810118 21.0488196,33.3315357 L39.8181589,1.71404507 C40.3801208,0.767404115 39.9473731,0 38.8288036,0 L1.23379152,0 C0.125423794,0 -0.319208666,0.764569025 0.244436254,1.71404507 L19.0137755,33.3315357 Z M20.0312976,29.131639 L35.6345851,3 L4.42801006,3 L20.0312976,29.131639 Z M20.0313152,9 C21.1358847,9 22.0313152,8.1045695 22.0313152,7 C22.0313152,5.8954305 21.1358847,5 20.0313152,5 C18.9267457,5 18.0313152,5.8954305 18.0313152,7 C18.0313152,8.1045695 18.9267457,9 20.0313152,9 Z M18.0313152,13.0085302 C18.0313152,11.8992496 18.9190448,11 20.0313152,11 C21.1358847,11 22.0313152,11.9019504 22.0313152,13.0085302 L22.0313152,20.9914698 C22.0313152,22.1007504 21.1435855,23 20.0313152,23 C18.9267457,23 18.0313152,22.0980496 18.0313152,20.9914698 L18.0313152,13.0085302 Z"></path>
            </g>
        </g>
    </g>
</svg>