<?xml version="1.0" encoding="UTF-8" standalone="no"?>
<svg width="38px" height="38px" viewBox="0 0 38 38" version="1.1" xmlns="http://www.w3.org/2000/svg" xmlns:xlink="http://www.w3.org/1999/xlink">
    <!-- Generator: Sketch 39.1 (31720) - http://www.bohemiancoding.com/sketch -->
    <title>icon-waiting</title>
    <desc>Created with Sketch.</desc>
    <defs></defs>
    <g id="Page-1" stroke="none" stroke-width="1" fill="none" fill-rule="evenodd">
        <g id="Base-Size---For-Vector-Export" transform="translate(-726.000000, -639.000000)" fill="#FFFFFF">
            <g id="icon-waiting" transform="translate(726.000000, 639.000000)">
                <path d="M18.0257859,18.7666108 C18.0089168,18.6937994 18,18.617941 18,18.54 L18,6.5 C18,5.94771525 18.4477153,5.5 19,5.5 C19.5522847,5.5 20,5.94771525 20,6.5 L20,18 L29.0384045,18 C29.5906892,18 30.0384045,18.4477153 30.0384045,19 C30.0384045,19.5522847 29.5906892,20 29.0384045,20 L18.9984045,20 C18.4461198,20 17.9984045,19.5522847 17.9984045,19 C17.9984045,18.9196371 18.007884,18.8414883 18.0257859,18.7666108 Z M19,38 C29.4934102,38 38,29.4934102 38,19 C38,8.50658975 29.4934102,0 19,0 C8.50658975,0 0,8.50658975 0,19 C0,29.4934102 8.50658975,38 19,38 Z M19,35 C27.836556,35 35,27.836556 35,19 C35,10.163444 27.836556,3 19,3 C10.163444,3 3,10.163444 3,19 C3,27.836556 10.163444,35 19,35 Z M28,11 C28.5522847,11 29,10.5522847 29,10 C29,9.44771525 28.5522847,9 28,9 C27.4477153,9 27,9.44771525 27,10 C27,10.5522847 27.4477153,11 28,11 Z M28,29 C28.5522847,29 29,28.5522847 29,28 C29,27.4477153 28.5522847,27 28,27 C27.4477153,27 27,27.4477153 27,28 C27,28.5522847 27.4477153,29 28,29 Z M10,11 C10.5522847,11 11,10.5522847 11,10 C11,9.44771525 10.5522847,9 10,9 C9.44771525,9 9,9.44771525 9,10 C9,10.5522847 9.44771525,11 10,11 Z M6,20 C6.55228475,20 7,19.5522847 7,19 C7,18.4477153 6.55228475,18 6,18 C5.44771525,18 5,18.4477153 5,19 C5,19.5522847 5.44771525,20 6,20 Z M19,33 C19.5522847,33 20,32.5522847 20,32 C20,31.4477153 19.5522847,31 19,31 C18.4477153,31 18,31.4477153 18,32 C18,32.5522847 18.4477153,33 19,33 Z M10,29 C10.5522847,29 11,28.5522847 11,28 C11,27.4477153 10.5522847,27 10,27 C9.44771525,27 9,27.4477153 9,28 C9,28.5522847 9.44771525,29 10,29 Z"></path>
            </g>
        </g>
    </g>
</svg>