<?xml version="1.0" encoding="UTF-8" standalone="no"?>
<svg width="30px" height="40px" viewBox="0 0 30 40" version="1.1" xmlns="http://www.w3.org/2000/svg" xmlns:xlink="http://www.w3.org/1999/xlink">
    <!-- Generator: Sketch 39.1 (31720) - http://www.bohemiancoding.com/sketch -->
    <title>icon-your-payments</title>
    <desc>Created with Sketch.</desc>
    <defs></defs>
    <g id="Page-1" stroke="none" stroke-width="1" fill="none" fill-rule="evenodd">
        <g id="Base-Size---For-Vector-Export" transform="translate(-430.000000, -502.000000)" fill="#FFFFFF">
            <g id="icon-your-payments" transform="translate(430.000000, 502.000000)">
                <path d="M0,3.0065012 C0,1.34605644 1.34731857,0 3.00001915,0 L26.9999809,0 C28.6568457,0 30,1.34230941 30,3.0065012 L30,36.9934988 C30,38.6539436 28.6526814,40 26.9999809,40 L3.00001915,40 C1.34315432,40 0,38.6576906 0,36.9934988 L0,3.0065012 Z M3,3.99914214 C3,3.44733117 3.44746922,3 4.00069463,3 L25.9993054,3 C26.5519738,3 27,3.45492426 27,3.99914214 L27,36.0008579 C27,36.5526688 26.5525308,37 25.9993054,37 L4.00069463,37 C3.44802625,37 3,36.5450757 3,36.0008579 L3,3.99914214 Z M6,9.5 C6,8.67157288 6.67955446,8 7.49554521,8 L16.5044548,8 C17.3304216,8 18,8.66579723 18,9.5 C18,10.3284271 17.3204455,11 16.5044548,11 L7.49554521,11 C6.6695784,11 6,10.3342028 6,9.5 Z M6,16.5 C6,15.6715729 6.66197696,15 7.50370994,15 L22.4962901,15 C23.3267661,15 24,15.6657972 24,16.5 C24,17.3284271 23.338023,18 22.4962901,18 L7.50370994,18 C6.67323387,18 6,17.3342028 6,16.5 Z M6,23.5 C6,22.6715729 6.66197696,22 7.50370994,22 L22.4962901,22 C23.3267661,22 24,22.6657972 24,23.5 C24,24.3284271 23.338023,25 22.4962901,25 L7.50370994,25 C6.67323387,25 6,24.3342028 6,23.5 Z M6,30.5 C6,29.6715729 6.66197696,29 7.50370994,29 L22.4962901,29 C23.3267661,29 24,29.6657972 24,30.5 C24,31.3284271 23.338023,32 22.4962901,32 L7.50370994,32 C6.67323387,32 6,31.3342028 6,30.5 Z"></path>
            </g>
        </g>
    </g>
</svg>