<?xml version="1.0" encoding="UTF-8" standalone="no"?>
<svg width="38px" height="38px" viewBox="0 0 38 38" version="1.1" xmlns="http://www.w3.org/2000/svg" xmlns:xlink="http://www.w3.org/1999/xlink">
    <!-- Generator: Sketch 39.1 (31720) - http://www.bohemiancoding.com/sketch -->
    <title>icon-information</title>
    <desc>Created with Sketch.</desc>
    <defs></defs>
    <g id="Page-1" stroke="none" stroke-width="1" fill="none" fill-rule="evenodd">
        <g id="Base-Size---For-Vector-Export" transform="translate(-926.000000, -639.000000)" fill="#8E8E93">
            <g id="icon-information" transform="translate(926.000000, 639.000000)">
                <path d="M19,38 C29.4934102,38 38,29.4934102 38,19 C38,8.50658975 29.4934102,0 19,0 C8.50658975,0 0,8.50658975 0,19 C0,29.4934102 8.50658975,38 19,38 Z M19,35 C27.836556,35 35,27.836556 35,19 C35,10.163444 27.836556,3 19,3 C10.163444,3 3,10.163444 3,19 C3,27.836556 10.163444,35 19,35 Z M17,17.0058587 C17,15.8980535 17.8877296,15 19,15 C20.1045695,15 21,15.8970601 21,17.0058587 L21,26.9941413 C21,28.1019465 20.1122704,29 19,29 C17.8954305,29 17,28.1029399 17,26.9941413 L17,17.0058587 Z M19,13 C20.1045695,13 21,12.1045695 21,11 C21,9.8954305 20.1045695,9 19,9 C17.8954305,9 17,9.8954305 17,11 C17,12.1045695 17.8954305,13 19,13 Z"></path>
            </g>
        </g>
    </g>
</svg>