<?xml version="1.0" encoding="UTF-8" standalone="no"?>
<svg width="50px" height="10px" viewBox="0 0 50 10" version="1.1" xmlns="http://www.w3.org/2000/svg" xmlns:xlink="http://www.w3.org/1999/xlink">
    <!-- Generator: Sketch 39.1 (31720) - http://www.bohemiancoding.com/sketch -->
    <title>item</title>
    <desc>Created with Sketch.</desc>
    <defs></defs>
    <g id="Symbols" stroke="none" stroke-width="1" fill="none" fill-rule="evenodd">
        <g id="Top-Nav-Bar---1" transform="translate(-1966.000000, -96.000000)" fill="#FFFFFF">
            <g id="Nav-Items" transform="translate(227.000000, 70.000000)">
                <g id="item" transform="translate(1739.000000, 26.000000)">
                    <path d="M5,10 C7.76142375,10 10,7.76142375 10,5 C10,2.23857625 7.76142375,0 5,0 C2.23857625,0 0,2.23857625 0,5 C0,7.76142375 2.23857625,10 5,10 Z M25,10 C27.7614237,10 30,7.76142375 30,5 C30,2.23857625 27.7614237,0 25,0 C22.2385763,0 20,2.23857625 20,5 C20,7.76142375 22.2385763,10 25,10 Z M45,10 C47.7614237,10 50,7.76142375 50,5 C50,2.23857625 47.7614237,0 45,0 C42.2385763,0 40,2.23857625 40,5 C40,7.76142375 42.2385763,10 45,10 Z" id="Oval-10"></path>
                </g>
            </g>
        </g>
    </g>
</svg>