<?xml version="1.0" encoding="utf-8"?>
<!-- Generator: Adobe Illustrator 19.1.0, SVG Export Plug-In . SVG Version: 6.00 Build 0)  -->
<svg version="1.1" id="Layer_1" xmlns="http://www.w3.org/2000/svg" xmlns:xlink="http://www.w3.org/1999/xlink" x="0px" y="0px"
	 viewBox="0 0 263.25 324" style="enable-background:new 0 0 263.25 324;" xml:space="preserve">
<style type="text/css">
	.st0{fill-rule:evenodd;clip-rule:evenodd;fill:#FFFFFF;}
</style>
<path class="st0" d="M222.75,202.5V243h-6.0140076H46.5140076H40.5v-40.5v-81c0-44.7319946,36.2680054-81,81-81h20.25
	c44.7120056,0,81,36.2680054,81,81V202.5z M131.625,303.75c-16.7869873,0-30.375-13.6079712-30.375-30.375
	c0-3.6049805,0.8909912-6.9459839,2.0450134-10.125h56.6389771C161.0889893,266.4290161,162,269.7700195,162,273.375
	C162,290.1420288,148.4119873,303.75,131.625,303.75z M263.25,243H243v-40.5v-81
	c0-52.5289917-40.1350098-95.1950073-91.3070068-100.2369995c0-0.3649902,0.1820068-0.6480103,0.1820068-1.0130005
	c0-11.1779785-9.052002-20.25-20.25-20.25c-11.178009,0-20.25,9.0720215-20.25,20.25
	c0,0.3649902,0.1820068,0.6480103,0.2019958,1.0130005C60.3850098,26.3049927,20.25,68.9710083,20.25,121.5v81V243H0v20.25
	h82.0119934C81.3649902,266.5100098,81,269.8920288,81,273.375C81,301.3400269,103.6799927,324,131.625,324
	c27.9649963,0,50.625-22.6599731,50.625-50.625c0-3.4829712-0.3649902-6.8649902-1.0329895-10.125H263.25V243z"/>
</svg>
